<svg width="180" height="180" viewBox="0 0 180 180" fill="none" xmlns="http://www.w3.org/2000/svg">
<g clip-path="url(#clip0_1316_80)">
<rect x="6" y="6" width="168" height="168" rx="34" fill="black"/>
<g filter="url(#filter0_i_1316_80)">
<path fill-rule="evenodd" clip-rule="evenodd" d="M6 6H174V174H6V6Z" fill="url(#paint0_radial_1316_80)"/>
</g>
<mask id="mask0_1316_80" style="mask-type:alpha" maskUnits="userSpaceOnUse" x="6" y="6" width="168" height="168">
<path fill-rule="evenodd" clip-rule="evenodd" d="M6 6H174V174H6V6Z" fill="white"/>
</mask>
<g mask="url(#mask0_1316_80)">
<g filter="url(#filter1_di_1316_80)">
<path fill-rule="evenodd" clip-rule="evenodd" d="M91.662 131.374C117.254 131.374 138 110.392 138 84.5083C138 58.6248 117.254 37.6422 91.662 37.6422C79.078 37.6422 67.6656 42.7155 59.3153 50.9503C51.5806 51.587 39.2334 51.0506 28 43.7662C32.455 54.8917 42.8755 60.2826 51.4372 61.2263C51.1046 61.8129 50.7841 62.4076 50.4762 63.0098C45.162 64.2141 39.2486 64.6246 30.3788 62.8939C35.4583 66.9274 41.5016 69.1313 47.8267 69.2756C46.2046 74.0514 45.3241 79.1758 45.3241 84.5083C45.3241 110.392 66.0703 131.374 91.662 131.374Z" fill="url(#paint1_radial_1316_80)"/>
</g>
<g filter="url(#filter2_di_1316_80)">
<path fill-rule="evenodd" clip-rule="evenodd" d="M119.667 159.923C119.667 172.644 107.039 182.957 91.4615 182.957C75.8842 182.957 63.2563 172.644 63.2563 159.923C63.2563 147.202 75.8842 136.889 91.4615 136.889C107.039 136.889 119.667 147.202 119.667 159.923ZM108.385 168.855C114.437 163.617 114.864 156.98 108.385 151.932C110.523 155.677 110.951 162.929 108.385 168.855ZM74.5384 168.855C68.4862 163.617 68.0585 156.98 74.5384 151.932C72.3998 155.677 71.9721 162.929 74.5384 168.855Z" fill="url(#paint2_radial_1316_80)"/>
</g>
<rect opacity="0.253567" x="6" y="6" width="86" height="168" fill="url(#paint3_linear_1316_80)"/>
</g>
</g>
<rect x="3" y="3" width="174" height="174" rx="37" stroke="white" stroke-width="6"/>
<defs>
<filter id="filter0_i_1316_80" x="6" y="6" width="168" height="168" filterUnits="userSpaceOnUse" color-interpolation-filters="sRGB">
<feFlood flood-opacity="0" result="BackgroundImageFix"/>
<feBlend mode="normal" in="SourceGraphic" in2="BackgroundImageFix" result="shape"/>
<feColorMatrix in="SourceAlpha" type="matrix" values="0 0 0 0 0 0 0 0 0 0 0 0 0 0 0 0 0 0 127 0" result="hardAlpha"/>
<feOffset/>
<feGaussianBlur stdDeviation="3"/>
<feComposite in2="hardAlpha" operator="arithmetic" k2="-1" k3="1"/>
<feColorMatrix type="matrix" values="0 0 0 0 0 0 0 0 0 0 0 0 0 0 0 0 0 0 1 0"/>
<feBlend mode="normal" in2="shape" result="effect1_innerShadow_1316_80"/>
</filter>
<filter id="filter1_di_1316_80" x="23" y="35.6422" width="120" height="103.732" filterUnits="userSpaceOnUse" color-interpolation-filters="sRGB">
<feFlood flood-opacity="0" result="BackgroundImageFix"/>
<feColorMatrix in="SourceAlpha" type="matrix" values="0 0 0 0 0 0 0 0 0 0 0 0 0 0 0 0 0 0 127 0" result="hardAlpha"/>
<feOffset dy="3"/>
<feGaussianBlur stdDeviation="2.5"/>
<feColorMatrix type="matrix" values="0 0 0 0 0 0 0 0 0 0 0 0 0 0 0 0 0 0 1 0"/>
<feBlend mode="normal" in2="BackgroundImageFix" result="effect1_dropShadow_1316_80"/>
<feBlend mode="normal" in="SourceGraphic" in2="effect1_dropShadow_1316_80" result="shape"/>
<feColorMatrix in="SourceAlpha" type="matrix" values="0 0 0 0 0 0 0 0 0 0 0 0 0 0 0 0 0 0 127 0" result="hardAlpha"/>
<feOffset dx="0.5" dy="-1"/>
<feComposite in2="hardAlpha" operator="arithmetic" k2="-1" k3="1"/>
<feColorMatrix type="matrix" values="0 0 0 0 1 0 0 0 0 1 0 0 0 0 1 0 0 0 1 0"/>
<feBlend mode="normal" in2="shape" result="effect2_innerShadow_1316_80"/>
</filter>
<filter id="filter2_di_1316_80" x="58.5555" y="135.009" width="65.812" height="55.4701" filterUnits="userSpaceOnUse" color-interpolation-filters="sRGB">
<feFlood flood-opacity="0" result="BackgroundImageFix"/>
<feColorMatrix in="SourceAlpha" type="matrix" values="0 0 0 0 0 0 0 0 0 0 0 0 0 0 0 0 0 0 127 0" result="hardAlpha"/>
<feOffset dy="2.82051"/>
<feGaussianBlur stdDeviation="2.35043"/>
<feColorMatrix type="matrix" values="0 0 0 0 0 0 0 0 0 0 0 0 0 0 0 0 0 0 1 0"/>
<feBlend mode="normal" in2="BackgroundImageFix" result="effect1_dropShadow_1316_80"/>
<feBlend mode="normal" in="SourceGraphic" in2="effect1_dropShadow_1316_80" result="shape"/>
<feColorMatrix in="SourceAlpha" type="matrix" values="0 0 0 0 0 0 0 0 0 0 0 0 0 0 0 0 0 0 127 0" result="hardAlpha"/>
<feOffset dy="0.94017"/>
<feComposite in2="hardAlpha" operator="arithmetic" k2="-1" k3="1"/>
<feColorMatrix type="matrix" values="0 0 0 0 1 0 0 0 0 1 0 0 0 0 1 0 0 0 1 0"/>
<feBlend mode="normal" in2="shape" result="effect2_innerShadow_1316_80"/>
</filter>
<radialGradient id="paint0_radial_1316_80" cx="0" cy="0" r="1" gradientUnits="userSpaceOnUse" gradientTransform="translate(90 90) rotate(135) scale(118.794)">
<stop stop-color="#262626"/>
<stop offset="1" stop-color="#0A0A0A"/>
</radialGradient>
<radialGradient id="paint1_radial_1316_80" cx="0" cy="0" r="1" gradientUnits="userSpaceOnUse" gradientTransform="translate(83 64.0257) rotate(78.4742) scale(72.9235 84.6439)">
<stop stop-color="white"/>
<stop offset="1" stop-color="#EAEAEA"/>
</radialGradient>
<radialGradient id="paint2_radial_1316_80" cx="0" cy="0" r="1" gradientUnits="userSpaceOnUse" gradientTransform="translate(91.4615 136.889) rotate(90) scale(58.2906 71.3762)">
<stop stop-color="white"/>
<stop offset="1" stop-color="#B4B4B4"/>
</radialGradient>
<linearGradient id="paint3_linear_1316_80" x1="89.749" y1="-27.4231" x2="-21.6002" y2="-25.1157" gradientUnits="userSpaceOnUse">
<stop stop-color="white"/>
<stop offset="1" stop-color="white" stop-opacity="0.01"/>
</linearGradient>
<clipPath id="clip0_1316_80">
<rect x="6" y="6" width="168" height="168" rx="34" fill="white"/>
</clipPath>
</defs>
</svg>
