<svg xmlns="http://www.w3.org/2000/svg" version="1.1" xmlns:xlink="http://www.w3.org/1999/xlink" xmlns:svgjs="http://svgjs.com/svgjs" width="1052" height="1052"><svg width="1052" height="1052" viewBox="0 0 1052 1052" fill="none" xmlns="http://www.w3.org/2000/svg">
<g clip-path="url(#clip0_1315_66)">
<rect width="1052" height="1052" rx="242" fill="black"></rect>
<circle cx="526.5" cy="513.5" r="275.5" fill="white"></circle>
<path fill-rule="evenodd" clip-rule="evenodd" d="M380 309.121C380 309.121 255.433 342.881 148 274C180.638 354.588 267.128 383.991 320.436 376.368C276.375 389.981 236.938 400.871 162.143 386.441C203.756 419.112 256.249 431.364 309.013 419.657C361.777 407.95 380 309.121 380 309.121Z" fill="white"></path>
<ellipse cx="526.5" cy="964" rx="185.5" ry="150" fill="white"></ellipse>
<path fill-rule="evenodd" clip-rule="evenodd" d="M413.856 1016.72C371.556 983.689 368.566 941.837 413.856 910C398.909 933.616 395.919 979.354 413.856 1016.72Z" fill="black"></path>
<path fill-rule="evenodd" clip-rule="evenodd" d="M638 1016.72C680.3 983.689 683.29 941.837 638 910C652.947 933.616 655.936 979.354 638 1016.72Z" fill="black"></path>
</g>
<defs>
<clipPath id="SvgjsClipPath1000">
<rect width="1052" height="1052" rx="242" fill="white"></rect>
</clipPath>
</defs>
</svg><style>@media (prefers-color-scheme: light) { :root { filter: none; } }
@media (prefers-color-scheme: dark) { :root { filter: none; } }
</style></svg>