<?xml version="1.0" standalone="no"?>
<!DOCTYPE svg PUBLIC "-//W3C//DTD SVG 20010904//EN"
 "http://www.w3.org/TR/2001/REC-SVG-20010904/DTD/svg10.dtd">
<svg version="1.0" xmlns="http://www.w3.org/2000/svg"
 width="700.000000pt" height="700.000000pt" viewBox="0 0 700.000000 700.000000"
 preserveAspectRatio="xMidYMid meet">
<metadata>
Created by potrace 1.14, written by Peter Selinger 2001-2017
</metadata>
<g transform="translate(0.000000,700.000000) scale(0.100000,-0.100000)"
fill="#000000" stroke="none">
<path d="M1445 6989 c-630 -66 -1161 -491 -1359 -1089 -42 -128 -62 -220 -76
-365 -8 -78 -10 -694 -8 -2105 4 -2192 0 -2046 63 -2265 78 -269 208 -488 410
-690 202 -202 421 -332 690 -410 191 -55 228 -58 804 -62 l533 -5 -45 59 c-93
121 -154 261 -178 408 -14 90 -7 242 17 330 22 83 85 215 138 288 54 76 191
209 271 264 364 246 880 304 1310 146 396 -146 666 -450 716 -806 28 -205 -41
-449 -178 -625 l-44 -57 453 -3 c584 -4 706 7 937 84 567 188 970 660 1079
1264 16 88 17 253 17 2150 0 1897 -1 2062 -17 2150 -133 737 -699 1264 -1437
1339 -125 13 -3974 13 -4096 0z m2363 -1600 c371 -62 691 -223 960 -483 338
-326 527 -728 562 -1194 59 -770 -394 -1511 -1106 -1813 -375 -159 -786 -190
-1179 -89 -321 83 -595 240 -835 480 -280 280 -444 598 -517 1000 -12 67 -17
151 -17 285 -1 210 14 332 63 505 l27 98 -80 7 c-163 14 -356 79 -500 169
-110 69 -112 76 -19 60 212 -37 437 -38 639 -3 57 10 68 15 85 43 10 17 19 34
19 37 0 3 -24 9 -54 13 -78 9 -220 52 -311 95 -224 105 -408 278 -516 484 -22
43 -38 81 -35 84 2 3 17 -4 33 -15 39 -27 155 -85 255 -126 98 -41 275 -89
408 -111 98 -17 470 -32 511 -22 13 4 58 36 99 72 106 93 275 204 410 269 342
164 721 218 1098 155z"/>
<path d="M2675 879 c-47 -44 -75 -82 -101 -134 -34 -69 -36 -77 -33 -157 5
-110 37 -176 135 -277 l73 -76 -29 86 c-66 199 -62 438 11 581 11 21 17 38 15
38 -3 0 -35 -28 -71 -61z"/>
<path d="M4270 897 c71 -160 75 -375 10 -567 -15 -47 -27 -86 -25 -88 9 -9
147 155 171 204 26 53 29 69 29 154 0 84 -3 101 -27 145 -31 60 -84 122 -138
165 l-39 31 19 -44z"/>
</g>
</svg>
