<?xml version="1.0" standalone="no"?>
<!DOCTYPE svg PUBLIC "-//W3C//DTD SVG 20010904//EN"
 "http://www.w3.org/TR/2001/REC-SVG-20010904/DTD/svg10.dtd">
<svg version="1.0" xmlns="http://www.w3.org/2000/svg"
 width="512.000000pt" height="512.000000pt" viewBox="0 0 512.000000 512.000000"
 preserveAspectRatio="xMidYMid meet">
<metadata>
Created by potrace 1.14, written by Peter Selinger 2001-2017
</metadata>
<g transform="translate(0.000000,512.000000) scale(0.100000,-0.100000)"
fill="#000000" stroke="none">
<path d="M1289 5116 c-2 -2 -51 -6 -109 -10 -198 -12 -320 -32 -475 -80 -52
-16 -153 -67 -218 -110 -61 -41 -186 -159 -244 -231 -76 -95 -167 -289 -187
-401 -2 -16 -9 -54 -15 -84 -33 -183 -36 -306 -36 -1650 0 -1433 2 -1487 56
-1725 35 -152 108 -303 198 -410 226 -267 467 -373 914 -403 62 -4 688 -7
1392 -7 1114 0 1400 4 1515 20 14 2 45 6 70 9 182 22 354 84 491 177 77 52
207 181 263 261 79 113 142 269 169 418 3 14 8 41 11 60 27 149 31 356 31
1615 0 1125 -4 1408 -20 1520 -2 17 -6 48 -9 70 -25 201 -110 414 -216 540
-212 251 -454 372 -799 401 -41 3 -84 8 -95 12 -22 6 -2680 14 -2687 8z m2671
-178 c14 -4 54 -9 90 -12 314 -28 517 -129 691 -346 87 -107 153 -272 173
-430 3 -25 8 -55 10 -66 17 -84 21 -404 21 -1514 0 -1113 -4 -1423 -19 -1520
-2 -14 -7 -47 -11 -75 -45 -342 -265 -620 -571 -724 -57 -19 -79 -24 -141 -36
-16 -3 -37 -7 -48 -10 -11 -2 -51 -7 -90 -10 -38 -4 -86 -8 -105 -11 -19 -2
-189 -7 -378 -11 l-343 -6 54 75 c249 348 57 795 -403 937 -114 35 -159 43
-267 46 -241 6 -473 -79 -627 -230 -142 -138 -190 -243 -191 -415 0 -146 32
-249 109 -345 18 -22 36 -46 41 -54 7 -12 -51 -13 -381 -8 -214 3 -402 8 -419
11 -16 3 -58 7 -91 10 -34 3 -72 7 -85 10 -13 3 -37 7 -54 10 -326 45 -612
305 -694 631 -54 215 -56 285 -56 1720 0 1105 4 1420 19 1501 2 11 7 44 11 74
32 249 143 449 335 602 112 89 286 158 441 173 30 3 59 8 65 10 7 2 65 7 130
11 66 3 121 8 123 10 7 7 2634 -2 2661 -8z m-1866 -4199 c-33 -90 -24 -303 17
-399 23 -53 -62 44 -91 105 -45 91 -41 182 11 257 27 40 71 89 76 84 2 -1 -4
-23 -13 -47z m1091 -61 c39 -71 39 -151 2 -228 -26 -53 -84 -126 -93 -118 -2
3 2 23 10 45 39 112 36 285 -9 398 -15 38 62 -45 90 -97z"/>
<path d="M2445 4040 c-102 -15 -155 -27 -270 -64 -91 -29 -296 -138 -343 -183
-7 -7 -16 -13 -20 -13 -4 0 -34 -25 -67 -55 -65 -59 -55 -56 -205 -59 -216 -3
-452 53 -645 154 l-95 49 15 -35 c26 -63 101 -167 162 -225 121 -115 288 -201
441 -224 48 -8 50 -12 22 -42 -18 -20 -40 -26 -140 -38 -98 -12 -287 -4 -375
16 -61 13 -62 11 -19 -20 98 -72 261 -134 389 -147 33 -4 61 -7 63 -9 1 -1 -4
-20 -12 -42 -37 -104 -50 -207 -51 -383 0 -192 12 -273 65 -431 101 -305 309
-561 586 -725 109 -64 273 -130 375 -149 13 -3 49 -10 79 -16 78 -16 275 -18
378 -4 303 43 544 164 762 384 288 290 421 680 376 1102 -4 34 -9 65 -10 68
-2 3 -7 24 -10 46 -7 44 -24 109 -36 140 -4 11 -18 47 -31 80 -114 298 -357
559 -659 706 -64 32 -218 87 -263 95 -18 3 -50 9 -72 13 -55 12 -54 12 -205
15 -74 1 -157 -1 -185 -4z"/>
</g>
</svg>
