<?xml version="1.0" encoding="UTF-8"?>
<svg width="371px" height="228px" viewBox="0 0 371 228" version="1.1" xmlns="http://www.w3.org/2000/svg" xmlns:xlink="http://www.w3.org/1999/xlink">
    <!-- Generator: Sketch 50.2 (55047) - http://www.bohemiancoding.com/sketch -->
    <title>svg</title>
    <desc>Created with Sketch.</desc>
    <defs>
        <radialGradient cx="36.420247%" cy="15.5730797%" fx="36.420247%" fy="15.5730797%" r="100.20774%" gradientTransform="translate(0.364202,0.155731),scale(0.430696,1.000000),rotate(122.592921),translate(-0.364202,-0.155731)" id="radialGradient-1">
            <stop stop-color="#F9CDAD" offset="0%"></stop>
            <stop stop-color="#FFFFFF" offset="100%"></stop>
        </radialGradient>
        <linearGradient x1="93.5060677%" y1="0%" x2="0%" y2="80.8548835%" id="linearGradient-2">
            <stop stop-color="#D5AAA7" offset="0%"></stop>
            <stop stop-color="#EED0C8" offset="33.0107773%"></stop>
            <stop stop-color="#FCECE0" offset="68.176265%"></stop>
            <stop stop-color="#FFFDFC" offset="100%"></stop>
        </linearGradient>
        <linearGradient x1="89.0771651%" y1="0%" x2="-22.8682274%" y2="119.39015%" id="linearGradient-3">
            <stop stop-color="#E4B697" offset="0%"></stop>
            <stop stop-color="#F4CBAD" offset="100%"></stop>
        </linearGradient>
        <linearGradient x1="50%" y1="0%" x2="50%" y2="100%" id="linearGradient-4">
            <stop stop-color="#B6E1BE" offset="0%"></stop>
            <stop stop-color="#8FC58E" offset="100%"></stop>
        </linearGradient>
        <radialGradient cx="50%" cy="50%" fx="50%" fy="50%" r="81.6513761%" gradientTransform="translate(0.500000,0.500000),scale(0.612360,1.000000),rotate(180.000000),scale(1.000000,0.602789),translate(-0.500000,-0.500000)" id="radialGradient-5">
            <stop stop-color="#FFFFFF" stop-opacity="0" offset="0%"></stop>
            <stop stop-color="#FFFFFF" offset="100%"></stop>
        </radialGradient>
    </defs>
    <g id="Page-1" stroke="none" stroke-width="1" fill="none" fill-rule="evenodd">
        <g id="svg">
            <path d="M169.749512,108.499512 C188.386379,107.866296 199.594712,106.241296 203.374512,103.624512 C204.457845,102.874512 217.374512,103.291178 242.124512,104.874512 L254.249512,101.124512 L283.999512,111.749512 L283.999512,137.129437 L169.749512,137.129437 L169.749512,108.499512 Z" id="Path-4" fill="#DBCDD0"></path>
            <path d="M189,115.295838 C215.195726,107.04312 229.704537,102.27784 232.526434,101 C236.359955,102.75703 244.106862,107.389201 267.587177,109.066367 C283.24072,110.184477 315.772403,106.412029 365.182227,97.7490234 L365.182227,156.452266 L189,115.295838 Z" id="Path-5" fill="#DFBBB2"></path>
            <path d="M189.433535,115.375 L221.433535,107 L221.433535,115.375 C211.766868,116.708333 200.391868,117.375 187.308535,117.375 C174.225201,117.375 174.933535,116.708333 189.433535,115.375 Z" id="Path-6" fill="#EEC2AE"></path>
            <polygon id="Path-7" fill="#F6D0B1" points="221 107.437744 240.625 102 324.25 105.625 221 115.875244"></polygon>
            <path d="M204,118 L258,116 C259,116.666667 261.333333,117.333333 265,118 C268.666667,118.666667 287.458333,119.375 321.375,120.125 L209.5,120.125 L204,118 Z" id="Path-8" fill="#F6D3B8"></path>
            <path d="M129.75,91.7490234 C136,94.7490234 171.5,105.749023 190.75,109.999023 C199.87765,112.014219 258.496264,122.491297 366.605843,141.430257 L366.605843,223.498047 L57.2251252,223.498047 C75.7633096,204.907213 91.3132679,188.616034 103.875,174.624512 C134.625,140.374512 129,113.749512 127.5625,106.624756 C126.125,99.5 119.6875,98.7497559 118.875,97.3122559 C118.0625,95.8747559 118.5,94.8122559 120.75,93.0622559 C121.442316,92.5237881 121.708586,91.6080407 121.548811,90.3150137 C124.495966,90.061274 127.229695,90.5392772 129.75,91.7490234 Z" id="Combined-Shape" fill="url(#radialGradient-1)"></path>
            <path d="M121.548811,90.3150137 C121.708586,91.6080407 121.442316,92.5237881 120.75,93.0622559 C118.5,94.8122559 118.0625,95.8747559 118.875,97.3122559 C119.6875,98.7497559 126.125,99.5 127.5625,106.624756 C129,113.749512 134.625,140.374512 103.875,174.624512 C91.3132679,188.616034 75.7633096,204.907213 57.2251252,223.498047 L7.25,223.498047 L7.25,134.999023 L115.5,91.7490234 C117.607343,90.9587697 119.623614,90.4807664 121.548811,90.3150137 Z" id="Combined-Shape" fill="url(#linearGradient-2)"></path>
            <path d="M181.062256,109.874756 L176.874756,113.874756 C174.833089,112.999756 173.145589,113.291423 171.812256,114.749756 C170.478923,116.208089 168.791423,118.103923 166.749756,120.437256 C170.624756,117.562256 173.010173,115.895589 173.906006,115.437256 C174.801839,114.978923 174.801839,115.541423 173.906006,117.124756 L164.999756,126.687256 L172.687256,120.437256 C174.312256,120.978923 174.718506,121.728923 173.906006,122.687256 C173.093506,123.645589 171.749756,124.978923 169.874756,126.687256 C173.291423,124.853923 175.312256,123.353923 175.937256,122.187256 C176.562256,121.020589 176.562256,119.833089 175.937256,118.624756 L184.124756,110.937256 L181.062256,109.874756 Z" id="Path-2" fill="url(#linearGradient-3)"></path>
            <path d="M180.375542,102.454028 L180.375542,92 C180.375542,90.8954305 181.270973,90 182.375542,90 C183.480112,90 184.375542,90.8954305 184.375542,92 L184.375542,98.3749339 C184.411786,98.3749716 184.448289,98.3763129 184.485006,98.3789994 C187.024426,98.5648107 188.000542,97.6363103 188.000542,95 C188.000542,94.1715729 188.672115,93.5 189.500542,93.5 C190.328969,93.5 191.000542,94.1715729 191.000542,95 C191.000542,99.3264718 188.601445,101.645441 184.375542,101.378465 L184.375542,111 L180.375542,111 L180.375542,105.456448 C176.704337,105.636155 175,102.418757 175,96.7495117 C175,95.9210846 175.671573,95.2495117 176.5,95.2495117 C177.328427,95.2495117 178,95.9210846 178,96.7495117 C178,100.970247 178.849462,102.549405 180.278927,102.457193 C180.311317,102.455103 180.343533,102.454058 180.375542,102.454028 Z" id="Combined-Shape" fill="url(#linearGradient-4)"></path>
            <ellipse id="Oval" fill="url(#radialGradient-5)" cx="187" cy="114" rx="178" ry="109"></ellipse>
            <path d="M0,0 L371,0 L371,228 L0,228 L0,0 Z M187.5,220 C283.873689,220 362,172.318326 362,113.5 C362,54.6816741 283.873689,7 187.5,7 C91.1263112,7 13,54.6816741 13,113.5 C13,172.318326 91.1263112,220 187.5,220 Z" id="Combined-Shape" fill="#FFFFFF"></path>
        </g>
    </g>
</svg>