<?xml version="1.0" encoding="UTF-8"?>
<svg width="55px" height="11px" viewBox="0 0 55 11" version="1.1" xmlns="http://www.w3.org/2000/svg" xmlns:xlink="http://www.w3.org/1999/xlink">
    <!-- Generator: Sketch 53.2 (72643) - https://sketchapp.com -->
    <title>Artboard</title>
    <desc>Created with Sketch.</desc>
    <g id="Artboard" stroke="none" stroke-width="1" fill="none" fill-rule="evenodd">
        <path d="M0.3925,0.718 L2.0435,0.718 L4.5915,8.284 L4.6305,8.284 L7.1785,0.718 L8.8295,0.718 L5.5275,10 L3.6945,10 L0.3925,0.718 Z M12.9375,0.536 C13.8345,0.536 14.5755,0.796 15.1605,1.316 C15.7325,1.836 16.0185,2.499 16.0185,3.331 C16.0185,4.137 15.7065,4.865 15.1085,5.528 C14.7445,5.918 14.0945,6.412 13.1845,7.023 C12.2355,7.647 11.6635,8.193 11.4555,8.661 L16.0315,8.661 L16.0315,10 L9.5575,10 C9.5575,9.051 9.8565,8.232 10.4805,7.53 C10.8185,7.14 11.5335,6.568 12.6125,5.827 C13.2105,5.411 13.6265,5.06 13.8865,4.787 C14.2895,4.332 14.4975,3.838 14.4975,3.318 C14.4975,2.811 14.3545,2.434 14.0945,2.187 C13.8215,1.94 13.4185,1.823 12.8855,1.823 C12.3135,1.823 11.8845,2.018 11.5985,2.408 C11.3125,2.772 11.1565,3.331 11.1305,4.059 L9.6095,4.059 C9.6225,3.019 9.9215,2.187 10.5195,1.55 C11.1305,0.874 11.9365,0.536 12.9375,0.536 Z M17.6045,0.718 L24.2995,0.718 L24.2995,2.018 L19.1255,2.018 L19.1255,4.592 L23.9875,4.592 L23.9875,5.892 L19.1255,5.892 L19.1255,8.7 L24.5205,8.7 L24.5205,10 L17.6045,10 L17.6045,0.718 Z M25.3135,0.718 L27.1725,0.718 L29.3565,3.994 L31.5405,0.718 L33.3995,0.718 L30.2665,5.203 L33.6075,10 L31.7485,10 L29.3565,6.412 L26.9645,10 L25.1055,10 L28.4205,5.203 L25.3135,0.718 Z" id="V2EX" fill="#FFFFFF" fill-rule="nonzero"></path>
        <path d="M37.2819426,0.5 C36.9510166,0.5 36.8502404,0.519460797 36.7473766,0.574472951 C36.6715479,0.615026598 36.6150266,0.671547851 36.574473,0.747376578 C36.5194608,0.850240361 36.5,0.951016642 36.5,1.2819426 L36.5,9.7180574 C36.5,10.0489834 36.5194608,10.1497596 36.574473,10.2526234 C36.6150266,10.3284521 36.6715479,10.3849734 36.7473766,10.425527 C36.8502404,10.4805392 36.9510166,10.5 37.2819426,10.5 L53.7180574,10.5 C54.0489834,10.5 54.1497596,10.4805392 54.2526234,10.425527 C54.3284521,10.3849734 54.3849734,10.3284521 54.425527,10.2526234 C54.4805392,10.1497596 54.5,10.0489834 54.5,9.7180574 L54.5,1.2819426 C54.5,0.951016642 54.4805392,0.850240361 54.425527,0.747376578 C54.3849734,0.671547851 54.3284521,0.615026598 54.2526234,0.574472951 C54.1497596,0.519460797 54.0489834,0.5 53.7180574,0.5 L37.2819426,0.5 Z" id="Rectangle" stroke="#FF9900" fill="#FF9900" fill-rule="nonzero"></path>
        <path d="M38.055,1.86 L41.015,1.86 C42.735,1.86 43.605,2.59 43.605,4.05 C43.605,5.52 42.735,6.26 40.995,6.26 L39.225,6.26 L39.225,9 L38.055,9 L38.055,1.86 Z M39.225,2.86 L39.225,5.26 L40.925,5.26 C41.445,5.26 41.825,5.16 42.065,4.98 C42.305,4.79 42.425,4.48 42.425,4.05 C42.425,3.62 42.295,3.32 42.055,3.14 C41.815,2.95 41.435,2.86 40.925,2.86 L39.225,2.86 Z M46.945,3.69 C47.195,3.69 47.415,3.73 47.595,3.82 L47.595,4.96 C47.335,4.88 47.095,4.85 46.855,4.85 C46.555,4.85 46.285,4.96 46.045,5.2 C45.765,5.47 45.635,5.82 45.635,6.26 L45.635,9 L44.505,9 L44.505,3.83 L45.635,3.83 L45.635,4.57 C45.775,4.31 45.935,4.11 46.125,3.97 C46.355,3.78 46.625,3.69 46.945,3.69 Z M50.645,3.69 C51.425,3.69 52.055,3.94 52.535,4.46 C53.005,4.97 53.245,5.62 53.245,6.42 C53.245,7.21 53.005,7.86 52.545,8.36 C52.065,8.88 51.425,9.14 50.645,9.14 C49.855,9.14 49.225,8.88 48.745,8.36 C48.275,7.86 48.045,7.21 48.045,6.42 C48.045,5.62 48.275,4.97 48.755,4.46 C49.225,3.94 49.855,3.69 50.645,3.69 Z M50.645,4.62 C50.165,4.62 49.805,4.8 49.545,5.18 C49.325,5.5 49.215,5.92 49.215,6.42 C49.215,6.92 49.325,7.33 49.545,7.65 C49.805,8.02 50.165,8.21 50.645,8.21 C51.115,8.21 51.485,8.02 51.745,7.65 C51.965,7.32 52.085,6.91 52.085,6.42 C52.085,5.92 51.965,5.5 51.745,5.18 C51.485,4.8 51.115,4.62 50.645,4.62 Z" id="Pro" fill="#000000" fill-rule="nonzero"></path>
    </g>
</svg>