<svg width="420" height="420" viewBox="0 0 420 420" fill="none" xmlns="http://www.w3.org/2000/svg">
<path d="M420 0H0V420H420V0Z" fill="white"/>
<path d="M420 0H0V420H420V0Z" fill="white"/>
<path d="M24 12H12V24H24V12Z" fill="black"/>
<path d="M36 12H24V24H36V12Z" fill="black"/>
<path d="M48 12H36V24H48V12Z" fill="black"/>
<path d="M60 12H48V24H60V12Z" fill="black"/>
<path d="M72 12H60V24H72V12Z" fill="black"/>
<path d="M84 12H72V24H84V12Z" fill="black"/>
<path d="M96 12H84V24H96V12Z" fill="black"/>
<path d="M120 12H108V24H120V12Z" fill="black"/>
<path d="M132 12H120V24H132V12Z" fill="black"/>
<path d="M144 12H132V24H144V12Z" fill="black"/>
<path d="M156 12H144V24H156V12Z" fill="black"/>
<path d="M180 12H168V24H180V12Z" fill="black"/>
<path d="M192 12H180V24H192V12Z" fill="black"/>
<path d="M240 12H228V24H240V12Z" fill="black"/>
<path d="M252 12H240V24H252V12Z" fill="black"/>
<path d="M264 12H252V24H264V12Z" fill="black"/>
<path d="M276 12H264V24H276V12Z" fill="black"/>
<path d="M288 12H276V24H288V12Z" fill="black"/>
<path d="M300 12H288V24H300V12Z" fill="black"/>
<path d="M336 12H324V24H336V12Z" fill="black"/>
<path d="M348 12H336V24H348V12Z" fill="black"/>
<path d="M360 12H348V24H360V12Z" fill="black"/>
<path d="M372 12H360V24H372V12Z" fill="black"/>
<path d="M384 12H372V24H384V12Z" fill="black"/>
<path d="M396 12H384V24H396V12Z" fill="black"/>
<path d="M408 12H396V24H408V12Z" fill="black"/>
<path d="M24 24H12V36H24V24Z" fill="black"/>
<path d="M96 24H84V36H96V24Z" fill="black"/>
<path d="M120 24H108V36H120V24Z" fill="black"/>
<path d="M132 24H120V36H132V24Z" fill="black"/>
<path d="M144 24H132V36H144V24Z" fill="black"/>
<path d="M180 24H168V36H180V24Z" fill="black"/>
<path d="M192 24H180V36H192V24Z" fill="black"/>
<path d="M204 24H192V36H204V24Z" fill="black"/>
<path d="M240 24H228V36H240V24Z" fill="black"/>
<path d="M252 24H240V36H252V24Z" fill="black"/>
<path d="M264 24H252V36H264V24Z" fill="black"/>
<path d="M276 24H264V36H276V24Z" fill="black"/>
<path d="M288 24H276V36H288V24Z" fill="black"/>
<path d="M300 24H288V36H300V24Z" fill="black"/>
<path d="M336 24H324V36H336V24Z" fill="black"/>
<path d="M408 24H396V36H408V24Z" fill="black"/>
<path d="M24 36H12V48H24V36Z" fill="black"/>
<path d="M48 36H36V48H48V36Z" fill="black"/>
<path d="M60 36H48V48H60V36Z" fill="black"/>
<path d="M72 36H60V48H72V36Z" fill="black"/>
<path d="M96 36H84V48H96V36Z" fill="black"/>
<path d="M120 36H108V48H120V36Z" fill="black"/>
<path d="M156 36H144V48H156V36Z" fill="black"/>
<path d="M168 36H156V48H168V36Z" fill="black"/>
<path d="M192 36H180V48H192V36Z" fill="black"/>
<path d="M216 36H204V48H216V36Z" fill="black"/>
<path d="M228 36H216V48H228V36Z" fill="black"/>
<path d="M240 36H228V48H240V36Z" fill="black"/>
<path d="M336 36H324V48H336V36Z" fill="black"/>
<path d="M360 36H348V48H360V36Z" fill="black"/>
<path d="M372 36H360V48H372V36Z" fill="black"/>
<path d="M384 36H372V48H384V36Z" fill="black"/>
<path d="M408 36H396V48H408V36Z" fill="black"/>
<path d="M24 48H12V60H24V48Z" fill="black"/>
<path d="M48 48H36V60H48V48Z" fill="black"/>
<path d="M60 48H48V60H60V48Z" fill="black"/>
<path d="M72 48H60V60H72V48Z" fill="black"/>
<path d="M96 48H84V60H96V48Z" fill="black"/>
<path d="M120 48H108V60H120V48Z" fill="black"/>
<path d="M132 48H120V60H132V48Z" fill="black"/>
<path d="M180 48H168V60H180V48Z" fill="black"/>
<path d="M192 48H180V60H192V48Z" fill="black"/>
<path d="M240 48H228V60H240V48Z" fill="black"/>
<path d="M288 48H276V60H288V48Z" fill="black"/>
<path d="M336 48H324V60H336V48Z" fill="black"/>
<path d="M360 48H348V60H360V48Z" fill="black"/>
<path d="M372 48H360V60H372V48Z" fill="black"/>
<path d="M384 48H372V60H384V48Z" fill="black"/>
<path d="M408 48H396V60H408V48Z" fill="black"/>
<path d="M24 60H12V72H24V60Z" fill="black"/>
<path d="M48 60H36V72H48V60Z" fill="black"/>
<path d="M60 60H48V72H60V60Z" fill="black"/>
<path d="M72 60H60V72H72V60Z" fill="black"/>
<path d="M96 60H84V72H96V60Z" fill="black"/>
<path d="M120 60H108V72H120V60Z" fill="black"/>
<path d="M144 60H132V72H144V60Z" fill="black"/>
<path d="M168 60H156V72H168V60Z" fill="black"/>
<path d="M180 60H168V72H180V60Z" fill="black"/>
<path d="M216 60H204V72H216V60Z" fill="black"/>
<path d="M228 60H216V72H228V60Z" fill="black"/>
<path d="M240 60H228V72H240V60Z" fill="black"/>
<path d="M264 60H252V72H264V60Z" fill="black"/>
<path d="M276 60H264V72H276V60Z" fill="black"/>
<path d="M288 60H276V72H288V60Z" fill="black"/>
<path d="M312 60H300V72H312V60Z" fill="black"/>
<path d="M336 60H324V72H336V60Z" fill="black"/>
<path d="M360 60H348V72H360V60Z" fill="black"/>
<path d="M372 60H360V72H372V60Z" fill="black"/>
<path d="M384 60H372V72H384V60Z" fill="black"/>
<path d="M408 60H396V72H408V60Z" fill="black"/>
<path d="M24 72H12V84H24V72Z" fill="black"/>
<path d="M96 72H84V84H96V72Z" fill="black"/>
<path d="M144 72H132V84H144V72Z" fill="black"/>
<path d="M168 72H156V84H168V72Z" fill="black"/>
<path d="M180 72H168V84H180V72Z" fill="black"/>
<path d="M192 72H180V84H192V72Z" fill="black"/>
<path d="M204 72H192V84H204V72Z" fill="black"/>
<path d="M216 72H204V84H216V72Z" fill="black"/>
<path d="M240 72H228V84H240V72Z" fill="black"/>
<path d="M252 72H240V84H252V72Z" fill="black"/>
<path d="M276 72H264V84H276V72Z" fill="black"/>
<path d="M300 72H288V84H300V72Z" fill="black"/>
<path d="M312 72H300V84H312V72Z" fill="black"/>
<path d="M336 72H324V84H336V72Z" fill="black"/>
<path d="M408 72H396V84H408V72Z" fill="black"/>
<path d="M24 84H12V96H24V84Z" fill="black"/>
<path d="M36 84H24V96H36V84Z" fill="black"/>
<path d="M48 84H36V96H48V84Z" fill="black"/>
<path d="M60 84H48V96H60V84Z" fill="black"/>
<path d="M72 84H60V96H72V84Z" fill="black"/>
<path d="M84 84H72V96H84V84Z" fill="black"/>
<path d="M96 84H84V96H96V84Z" fill="black"/>
<path d="M120 84H108V96H120V84Z" fill="black"/>
<path d="M144 84H132V96H144V84Z" fill="black"/>
<path d="M168 84H156V96H168V84Z" fill="black"/>
<path d="M192 84H180V96H192V84Z" fill="black"/>
<path d="M216 84H204V96H216V84Z" fill="black"/>
<path d="M240 84H228V96H240V84Z" fill="black"/>
<path d="M264 84H252V96H264V84Z" fill="black"/>
<path d="M288 84H276V96H288V84Z" fill="black"/>
<path d="M312 84H300V96H312V84Z" fill="black"/>
<path d="M336 84H324V96H336V84Z" fill="black"/>
<path d="M348 84H336V96H348V84Z" fill="black"/>
<path d="M360 84H348V96H360V84Z" fill="black"/>
<path d="M372 84H360V96H372V84Z" fill="black"/>
<path d="M384 84H372V96H384V84Z" fill="black"/>
<path d="M396 84H384V96H396V84Z" fill="black"/>
<path d="M408 84H396V96H408V84Z" fill="black"/>
<path d="M120 96H108V108H120V96Z" fill="black"/>
<path d="M156 96H144V108H156V96Z" fill="black"/>
<path d="M192 96H180V108H192V96Z" fill="black"/>
<path d="M204 96H192V108H204V96Z" fill="black"/>
<path d="M228 96H216V108H228V96Z" fill="black"/>
<path d="M240 96H228V108H240V96Z" fill="black"/>
<path d="M264 96H252V108H264V96Z" fill="black"/>
<path d="M276 96H264V108H276V96Z" fill="black"/>
<path d="M288 96H276V108H288V96Z" fill="black"/>
<path d="M312 96H300V108H312V96Z" fill="black"/>
<path d="M36 108H24V120H36V108Z" fill="black"/>
<path d="M48 108H36V120H48V108Z" fill="black"/>
<path d="M72 108H60V120H72V108Z" fill="black"/>
<path d="M96 108H84V120H96V108Z" fill="black"/>
<path d="M108 108H96V120H108V108Z" fill="black"/>
<path d="M132 108H120V120H132V108Z" fill="black"/>
<path d="M156 108H144V120H156V108Z" fill="black"/>
<path d="M192 108H180V120H192V108Z" fill="black"/>
<path d="M216 108H204V120H216V108Z" fill="black"/>
<path d="M228 108H216V120H228V108Z" fill="black"/>
<path d="M264 108H252V120H264V108Z" fill="black"/>
<path d="M276 108H264V120H276V108Z" fill="black"/>
<path d="M300 108H288V120H300V108Z" fill="black"/>
<path d="M312 108H300V120H312V108Z" fill="black"/>
<path d="M336 108H324V120H336V108Z" fill="black"/>
<path d="M360 108H348V120H360V108Z" fill="black"/>
<path d="M372 108H360V120H372V108Z" fill="black"/>
<path d="M384 108H372V120H384V108Z" fill="black"/>
<path d="M396 108H384V120H396V108Z" fill="black"/>
<path d="M408 108H396V120H408V108Z" fill="black"/>
<path d="M36 120H24V132H36V120Z" fill="black"/>
<path d="M48 120H36V132H48V120Z" fill="black"/>
<path d="M60 120H48V132H60V120Z" fill="black"/>
<path d="M72 120H60V132H72V120Z" fill="black"/>
<path d="M84 120H72V132H84V120Z" fill="black"/>
<path d="M108 120H96V132H108V120Z" fill="black"/>
<path d="M120 120H108V132H120V120Z" fill="black"/>
<path d="M156 120H144V132H156V120Z" fill="black"/>
<path d="M168 120H156V132H168V120Z" fill="black"/>
<path d="M228 120H216V132H228V120Z" fill="black"/>
<path d="M264 120H252V132H264V120Z" fill="black"/>
<path d="M288 120H276V132H288V120Z" fill="black"/>
<path d="M312 120H300V132H312V120Z" fill="black"/>
<path d="M324 120H312V132H324V120Z" fill="black"/>
<path d="M336 120H324V132H336V120Z" fill="black"/>
<path d="M348 120H336V132H348V120Z" fill="black"/>
<path d="M48 132H36V144H48V132Z" fill="black"/>
<path d="M72 132H60V144H72V132Z" fill="black"/>
<path d="M96 132H84V144H96V132Z" fill="black"/>
<path d="M108 132H96V144H108V132Z" fill="black"/>
<path d="M132 132H120V144H132V132Z" fill="black"/>
<path d="M144 132H132V144H144V132Z" fill="black"/>
<path d="M156 132H144V144H156V132Z" fill="black"/>
<path d="M180 132H168V144H180V132Z" fill="black"/>
<path d="M204 132H192V144H204V132Z" fill="black"/>
<path d="M216 132H204V144H216V132Z" fill="black"/>
<path d="M240 132H228V144H240V132Z" fill="black"/>
<path d="M324 132H312V144H324V132Z" fill="black"/>
<path d="M348 132H336V144H348V132Z" fill="black"/>
<path d="M384 132H372V144H384V132Z" fill="black"/>
<path d="M408 132H396V144H408V132Z" fill="black"/>
<path d="M36 144H24V156H36V144Z" fill="black"/>
<path d="M48 144H36V156H48V144Z" fill="black"/>
<path d="M60 144H48V156H60V144Z" fill="black"/>
<path d="M84 144H72V156H84V144Z" fill="black"/>
<path d="M120 144H108V156H120V144Z" fill="black"/>
<path d="M132 144H120V156H132V144Z" fill="black"/>
<path d="M144 144H132V156H144V144Z" fill="black"/>
<path d="M156 144H144V156H156V144Z" fill="black"/>
<path d="M168 144H156V156H168V144Z" fill="black"/>
<path d="M180 144H168V156H180V144Z" fill="black"/>
<path d="M204 144H192V156H204V144Z" fill="black"/>
<path d="M216 144H204V156H216V144Z" fill="black"/>
<path d="M228 144H216V156H228V144Z" fill="black"/>
<path d="M264 144H252V156H264V144Z" fill="black"/>
<path d="M276 144H264V156H276V144Z" fill="black"/>
<path d="M300 144H288V156H300V144Z" fill="black"/>
<path d="M324 144H312V156H324V144Z" fill="black"/>
<path d="M336 144H324V156H336V144Z" fill="black"/>
<path d="M360 144H348V156H360V144Z" fill="black"/>
<path d="M396 144H384V156H396V144Z" fill="black"/>
<path d="M24 156H12V168H24V156Z" fill="black"/>
<path d="M36 156H24V168H36V156Z" fill="black"/>
<path d="M48 156H36V168H48V156Z" fill="black"/>
<path d="M60 156H48V168H60V156Z" fill="black"/>
<path d="M84 156H72V168H84V156Z" fill="black"/>
<path d="M96 156H84V168H96V156Z" fill="black"/>
<path d="M120 156H108V168H120V156Z" fill="black"/>
<path d="M132 156H120V168H132V156Z" fill="black"/>
<path d="M156 156H144V168H156V156Z" fill="black"/>
<path d="M168 156H156V168H168V156Z" fill="black"/>
<path d="M180 156H168V168H180V156Z" fill="black"/>
<path d="M240 156H228V168H240V156Z" fill="black"/>
<path d="M252 156H240V168H252V156Z" fill="black"/>
<path d="M264 156H252V168H264V156Z" fill="black"/>
<path d="M312 156H300V168H312V156Z" fill="black"/>
<path d="M372 156H360V168H372V156Z" fill="black"/>
<path d="M36 168H24V180H36V168Z" fill="black"/>
<path d="M72 168H60V180H72V168Z" fill="black"/>
<path d="M108 168H96V180H108V168Z" fill="black"/>
<path d="M120 168H108V180H120V168Z" fill="black"/>
<path d="M144 168H132V180H144V168Z" fill="black"/>
<path d="M156 168H144V180H156V168Z" fill="black"/>
<path d="M192 168H180V180H192V168Z" fill="black"/>
<path d="M204 168H192V180H204V168Z" fill="black"/>
<path d="M228 168H216V180H228V168Z" fill="black"/>
<path d="M252 168H240V180H252V168Z" fill="black"/>
<path d="M276 168H264V180H276V168Z" fill="black"/>
<path d="M300 168H288V180H300V168Z" fill="black"/>
<path d="M324 168H312V180H324V168Z" fill="black"/>
<path d="M360 168H348V180H360V168Z" fill="black"/>
<path d="M372 168H360V180H372V168Z" fill="black"/>
<path d="M408 168H396V180H408V168Z" fill="black"/>
<path d="M24 180H12V192H24V180Z" fill="black"/>
<path d="M36 180H24V192H36V180Z" fill="black"/>
<path d="M72 180H60V192H72V180Z" fill="black"/>
<path d="M84 180H72V192H84V180Z" fill="black"/>
<path d="M96 180H84V192H96V180Z" fill="black"/>
<path d="M108 180H96V192H108V180Z" fill="black"/>
<path d="M132 180H120V192H132V180Z" fill="black"/>
<path d="M168 180H156V192H168V180Z" fill="black"/>
<path d="M180 180H168V192H180V180Z" fill="black"/>
<path d="M204 180H192V192H204V180Z" fill="black"/>
<path d="M240 180H228V192H240V180Z" fill="black"/>
<path d="M252 180H240V192H252V180Z" fill="black"/>
<path d="M264 180H252V192H264V180Z" fill="black"/>
<path d="M288 180H276V192H288V180Z" fill="black"/>
<path d="M324 180H312V192H324V180Z" fill="black"/>
<path d="M348 180H336V192H348V180Z" fill="black"/>
<path d="M360 180H348V192H360V180Z" fill="black"/>
<path d="M384 180H372V192H384V180Z" fill="black"/>
<path d="M396 180H384V192H396V180Z" fill="black"/>
<path d="M408 180H396V192H408V180Z" fill="black"/>
<path d="M48 192H36V204H48V192Z" fill="black"/>
<path d="M84 192H72V204H84V192Z" fill="black"/>
<path d="M108 192H96V204H108V192Z" fill="black"/>
<path d="M132 192H120V204H132V192Z" fill="black"/>
<path d="M144 192H132V204H144V192Z" fill="black"/>
<path d="M168 192H156V204H168V192Z" fill="black"/>
<path d="M180 192H168V204H180V192Z" fill="black"/>
<path d="M192 192H180V204H192V192Z" fill="black"/>
<path d="M216 192H204V204H216V192Z" fill="black"/>
<path d="M264 192H252V204H264V192Z" fill="black"/>
<path d="M276 192H264V204H276V192Z" fill="black"/>
<path d="M300 192H288V204H300V192Z" fill="black"/>
<path d="M312 192H300V204H312V192Z" fill="black"/>
<path d="M336 192H324V204H336V192Z" fill="black"/>
<path d="M348 192H336V204H348V192Z" fill="black"/>
<path d="M372 192H360V204H372V192Z" fill="black"/>
<path d="M396 192H384V204H396V192Z" fill="black"/>
<path d="M36 204H24V216H36V204Z" fill="black"/>
<path d="M72 204H60V216H72V204Z" fill="black"/>
<path d="M96 204H84V216H96V204Z" fill="black"/>
<path d="M108 204H96V216H108V204Z" fill="black"/>
<path d="M132 204H120V216H132V204Z" fill="black"/>
<path d="M156 204H144V216H156V204Z" fill="black"/>
<path d="M192 204H180V216H192V204Z" fill="black"/>
<path d="M204 204H192V216H204V204Z" fill="black"/>
<path d="M216 204H204V216H216V204Z" fill="black"/>
<path d="M240 204H228V216H240V204Z" fill="black"/>
<path d="M252 204H240V216H252V204Z" fill="black"/>
<path d="M264 204H252V216H264V204Z" fill="black"/>
<path d="M276 204H264V216H276V204Z" fill="black"/>
<path d="M300 204H288V216H300V204Z" fill="black"/>
<path d="M312 204H300V216H312V204Z" fill="black"/>
<path d="M324 204H312V216H324V204Z" fill="black"/>
<path d="M336 204H324V216H336V204Z" fill="black"/>
<path d="M372 204H360V216H372V204Z" fill="black"/>
<path d="M384 204H372V216H384V204Z" fill="black"/>
<path d="M60 216H48V228H60V216Z" fill="black"/>
<path d="M72 216H60V228H72V216Z" fill="black"/>
<path d="M120 216H108V228H120V216Z" fill="black"/>
<path d="M144 216H132V228H144V216Z" fill="black"/>
<path d="M180 216H168V228H180V216Z" fill="black"/>
<path d="M204 216H192V228H204V216Z" fill="black"/>
<path d="M228 216H216V228H228V216Z" fill="black"/>
<path d="M264 216H252V228H264V216Z" fill="black"/>
<path d="M276 216H264V228H276V216Z" fill="black"/>
<path d="M312 216H300V228H312V216Z" fill="black"/>
<path d="M336 216H324V228H336V216Z" fill="black"/>
<path d="M348 216H336V228H348V216Z" fill="black"/>
<path d="M408 216H396V228H408V216Z" fill="black"/>
<path d="M24 228H12V240H24V228Z" fill="black"/>
<path d="M72 228H60V240H72V228Z" fill="black"/>
<path d="M84 228H72V240H84V228Z" fill="black"/>
<path d="M96 228H84V240H96V228Z" fill="black"/>
<path d="M120 228H108V240H120V228Z" fill="black"/>
<path d="M216 228H204V240H216V228Z" fill="black"/>
<path d="M228 228H216V240H228V228Z" fill="black"/>
<path d="M276 228H264V240H276V228Z" fill="black"/>
<path d="M312 228H300V240H312V228Z" fill="black"/>
<path d="M324 228H312V240H324V228Z" fill="black"/>
<path d="M384 228H372V240H384V228Z" fill="black"/>
<path d="M396 228H384V240H396V228Z" fill="black"/>
<path d="M408 228H396V240H408V228Z" fill="black"/>
<path d="M24 240H12V252H24V240Z" fill="black"/>
<path d="M36 240H24V252H36V240Z" fill="black"/>
<path d="M48 240H36V252H48V240Z" fill="black"/>
<path d="M72 240H60V252H72V240Z" fill="black"/>
<path d="M108 240H96V252H108V240Z" fill="black"/>
<path d="M168 240H156V252H168V240Z" fill="black"/>
<path d="M192 240H180V252H192V240Z" fill="black"/>
<path d="M216 240H204V252H216V240Z" fill="black"/>
<path d="M312 240H300V252H312V240Z" fill="black"/>
<path d="M348 240H336V252H348V240Z" fill="black"/>
<path d="M360 240H348V252H360V240Z" fill="black"/>
<path d="M408 240H396V252H408V240Z" fill="black"/>
<path d="M36 252H24V264H36V252Z" fill="black"/>
<path d="M48 252H36V264H48V252Z" fill="black"/>
<path d="M84 252H72V264H84V252Z" fill="black"/>
<path d="M96 252H84V264H96V252Z" fill="black"/>
<path d="M132 252H120V264H132V252Z" fill="black"/>
<path d="M144 252H132V264H144V252Z" fill="black"/>
<path d="M168 252H156V264H168V252Z" fill="black"/>
<path d="M204 252H192V264H204V252Z" fill="black"/>
<path d="M216 252H204V264H216V252Z" fill="black"/>
<path d="M228 252H216V264H228V252Z" fill="black"/>
<path d="M240 252H228V264H240V252Z" fill="black"/>
<path d="M264 252H252V264H264V252Z" fill="black"/>
<path d="M276 252H264V264H276V252Z" fill="black"/>
<path d="M288 252H276V264H288V252Z" fill="black"/>
<path d="M300 252H288V264H300V252Z" fill="black"/>
<path d="M312 252H300V264H312V252Z" fill="black"/>
<path d="M324 252H312V264H324V252Z" fill="black"/>
<path d="M360 252H348V264H360V252Z" fill="black"/>
<path d="M372 252H360V264H372V252Z" fill="black"/>
<path d="M72 264H60V276H72V264Z" fill="black"/>
<path d="M84 264H72V276H84V264Z" fill="black"/>
<path d="M120 264H108V276H120V264Z" fill="black"/>
<path d="M144 264H132V276H144V264Z" fill="black"/>
<path d="M156 264H144V276H156V264Z" fill="black"/>
<path d="M180 264H168V276H180V264Z" fill="black"/>
<path d="M204 264H192V276H204V264Z" fill="black"/>
<path d="M216 264H204V276H216V264Z" fill="black"/>
<path d="M228 264H216V276H228V264Z" fill="black"/>
<path d="M240 264H228V276H240V264Z" fill="black"/>
<path d="M264 264H252V276H264V264Z" fill="black"/>
<path d="M276 264H264V276H276V264Z" fill="black"/>
<path d="M300 264H288V276H300V264Z" fill="black"/>
<path d="M312 264H300V276H312V264Z" fill="black"/>
<path d="M324 264H312V276H324V264Z" fill="black"/>
<path d="M336 264H324V276H336V264Z" fill="black"/>
<path d="M348 264H336V276H348V264Z" fill="black"/>
<path d="M360 264H348V276H360V264Z" fill="black"/>
<path d="M396 264H384V276H396V264Z" fill="black"/>
<path d="M408 264H396V276H408V264Z" fill="black"/>
<path d="M24 276H12V288H24V276Z" fill="black"/>
<path d="M60 276H48V288H60V276Z" fill="black"/>
<path d="M72 276H60V288H72V276Z" fill="black"/>
<path d="M84 276H72V288H84V276Z" fill="black"/>
<path d="M96 276H84V288H96V276Z" fill="black"/>
<path d="M144 276H132V288H144V276Z" fill="black"/>
<path d="M168 276H156V288H168V276Z" fill="black"/>
<path d="M192 276H180V288H192V276Z" fill="black"/>
<path d="M216 276H204V288H216V276Z" fill="black"/>
<path d="M252 276H240V288H252V276Z" fill="black"/>
<path d="M288 276H276V288H288V276Z" fill="black"/>
<path d="M312 276H300V288H312V276Z" fill="black"/>
<path d="M336 276H324V288H336V276Z" fill="black"/>
<path d="M384 276H372V288H384V276Z" fill="black"/>
<path d="M396 276H384V288H396V276Z" fill="black"/>
<path d="M408 276H396V288H408V276Z" fill="black"/>
<path d="M36 288H24V300H36V288Z" fill="black"/>
<path d="M48 288H36V300H48V288Z" fill="black"/>
<path d="M60 288H48V300H60V288Z" fill="black"/>
<path d="M72 288H60V300H72V288Z" fill="black"/>
<path d="M108 288H96V300H108V288Z" fill="black"/>
<path d="M132 288H120V300H132V288Z" fill="black"/>
<path d="M144 288H132V300H144V288Z" fill="black"/>
<path d="M156 288H144V300H156V288Z" fill="black"/>
<path d="M168 288H156V300H168V288Z" fill="black"/>
<path d="M240 288H228V300H240V288Z" fill="black"/>
<path d="M252 288H240V300H252V288Z" fill="black"/>
<path d="M264 288H252V300H264V288Z" fill="black"/>
<path d="M276 288H264V300H276V288Z" fill="black"/>
<path d="M288 288H276V300H288V288Z" fill="black"/>
<path d="M300 288H288V300H300V288Z" fill="black"/>
<path d="M312 288H300V300H312V288Z" fill="black"/>
<path d="M348 288H336V300H348V288Z" fill="black"/>
<path d="M360 288H348V300H360V288Z" fill="black"/>
<path d="M24 300H12V312H24V300Z" fill="black"/>
<path d="M48 300H36V312H48V300Z" fill="black"/>
<path d="M60 300H48V312H60V300Z" fill="black"/>
<path d="M96 300H84V312H96V300Z" fill="black"/>
<path d="M108 300H96V312H108V300Z" fill="black"/>
<path d="M132 300H120V312H132V300Z" fill="black"/>
<path d="M144 300H132V312H144V300Z" fill="black"/>
<path d="M168 300H156V312H168V300Z" fill="black"/>
<path d="M180 300H168V312H180V300Z" fill="black"/>
<path d="M192 300H180V312H192V300Z" fill="black"/>
<path d="M216 300H204V312H216V300Z" fill="black"/>
<path d="M240 300H228V312H240V300Z" fill="black"/>
<path d="M252 300H240V312H252V300Z" fill="black"/>
<path d="M264 300H252V312H264V300Z" fill="black"/>
<path d="M276 300H264V312H276V300Z" fill="black"/>
<path d="M300 300H288V312H300V300Z" fill="black"/>
<path d="M312 300H300V312H312V300Z" fill="black"/>
<path d="M324 300H312V312H324V300Z" fill="black"/>
<path d="M336 300H324V312H336V300Z" fill="black"/>
<path d="M348 300H336V312H348V300Z" fill="black"/>
<path d="M360 300H348V312H360V300Z" fill="black"/>
<path d="M384 300H372V312H384V300Z" fill="black"/>
<path d="M120 312H108V324H120V312Z" fill="black"/>
<path d="M156 312H144V324H156V312Z" fill="black"/>
<path d="M168 312H156V324H168V312Z" fill="black"/>
<path d="M180 312H168V324H180V312Z" fill="black"/>
<path d="M204 312H192V324H204V312Z" fill="black"/>
<path d="M264 312H252V324H264V312Z" fill="black"/>
<path d="M288 312H276V324H288V312Z" fill="black"/>
<path d="M300 312H288V324H300V312Z" fill="black"/>
<path d="M312 312H300V324H312V312Z" fill="black"/>
<path d="M360 312H348V324H360V312Z" fill="black"/>
<path d="M372 312H360V324H372V312Z" fill="black"/>
<path d="M396 312H384V324H396V312Z" fill="black"/>
<path d="M408 312H396V324H408V312Z" fill="black"/>
<path d="M24 324H12V336H24V324Z" fill="black"/>
<path d="M36 324H24V336H36V324Z" fill="black"/>
<path d="M48 324H36V336H48V324Z" fill="black"/>
<path d="M60 324H48V336H60V324Z" fill="black"/>
<path d="M72 324H60V336H72V324Z" fill="black"/>
<path d="M84 324H72V336H84V324Z" fill="black"/>
<path d="M96 324H84V336H96V324Z" fill="black"/>
<path d="M120 324H108V336H120V324Z" fill="black"/>
<path d="M132 324H120V336H132V324Z" fill="black"/>
<path d="M168 324H156V336H168V324Z" fill="black"/>
<path d="M180 324H168V336H180V324Z" fill="black"/>
<path d="M240 324H228V336H240V324Z" fill="black"/>
<path d="M264 324H252V336H264V324Z" fill="black"/>
<path d="M300 324H288V336H300V324Z" fill="black"/>
<path d="M312 324H300V336H312V324Z" fill="black"/>
<path d="M336 324H324V336H336V324Z" fill="black"/>
<path d="M360 324H348V336H360V324Z" fill="black"/>
<path d="M384 324H372V336H384V324Z" fill="black"/>
<path d="M396 324H384V336H396V324Z" fill="black"/>
<path d="M408 324H396V336H408V324Z" fill="black"/>
<path d="M24 336H12V348H24V336Z" fill="black"/>
<path d="M96 336H84V348H96V336Z" fill="black"/>
<path d="M132 336H120V348H132V336Z" fill="black"/>
<path d="M144 336H132V348H144V336Z" fill="black"/>
<path d="M156 336H144V348H156V336Z" fill="black"/>
<path d="M168 336H156V348H168V336Z" fill="black"/>
<path d="M180 336H168V348H180V336Z" fill="black"/>
<path d="M192 336H180V348H192V336Z" fill="black"/>
<path d="M204 336H192V348H204V336Z" fill="black"/>
<path d="M264 336H252V348H264V336Z" fill="black"/>
<path d="M276 336H264V348H276V336Z" fill="black"/>
<path d="M288 336H276V348H288V336Z" fill="black"/>
<path d="M300 336H288V348H300V336Z" fill="black"/>
<path d="M312 336H300V348H312V336Z" fill="black"/>
<path d="M360 336H348V348H360V336Z" fill="black"/>
<path d="M396 336H384V348H396V336Z" fill="black"/>
<path d="M408 336H396V348H408V336Z" fill="black"/>
<path d="M24 348H12V360H24V348Z" fill="black"/>
<path d="M48 348H36V360H48V348Z" fill="black"/>
<path d="M60 348H48V360H60V348Z" fill="black"/>
<path d="M72 348H60V360H72V348Z" fill="black"/>
<path d="M96 348H84V360H96V348Z" fill="black"/>
<path d="M120 348H108V360H120V348Z" fill="black"/>
<path d="M132 348H120V360H132V348Z" fill="black"/>
<path d="M168 348H156V360H168V348Z" fill="black"/>
<path d="M180 348H168V360H180V348Z" fill="black"/>
<path d="M192 348H180V360H192V348Z" fill="black"/>
<path d="M228 348H216V360H228V348Z" fill="black"/>
<path d="M252 348H240V360H252V348Z" fill="black"/>
<path d="M264 348H252V360H264V348Z" fill="black"/>
<path d="M276 348H264V360H276V348Z" fill="black"/>
<path d="M312 348H300V360H312V348Z" fill="black"/>
<path d="M324 348H312V360H324V348Z" fill="black"/>
<path d="M336 348H324V360H336V348Z" fill="black"/>
<path d="M348 348H336V360H348V348Z" fill="black"/>
<path d="M360 348H348V360H360V348Z" fill="black"/>
<path d="M372 348H360V360H372V348Z" fill="black"/>
<path d="M396 348H384V360H396V348Z" fill="black"/>
<path d="M408 348H396V360H408V348Z" fill="black"/>
<path d="M24 360H12V372H24V360Z" fill="black"/>
<path d="M48 360H36V372H48V360Z" fill="black"/>
<path d="M60 360H48V372H60V360Z" fill="black"/>
<path d="M72 360H60V372H72V360Z" fill="black"/>
<path d="M96 360H84V372H96V360Z" fill="black"/>
<path d="M132 360H120V372H132V360Z" fill="black"/>
<path d="M144 360H132V372H144V360Z" fill="black"/>
<path d="M156 360H144V372H156V360Z" fill="black"/>
<path d="M168 360H156V372H168V360Z" fill="black"/>
<path d="M180 360H168V372H180V360Z" fill="black"/>
<path d="M192 360H180V372H192V360Z" fill="black"/>
<path d="M204 360H192V372H204V360Z" fill="black"/>
<path d="M216 360H204V372H216V360Z" fill="black"/>
<path d="M240 360H228V372H240V360Z" fill="black"/>
<path d="M264 360H252V372H264V360Z" fill="black"/>
<path d="M300 360H288V372H300V360Z" fill="black"/>
<path d="M312 360H300V372H312V360Z" fill="black"/>
<path d="M360 360H348V372H360V360Z" fill="black"/>
<path d="M24 372H12V384H24V372Z" fill="black"/>
<path d="M48 372H36V384H48V372Z" fill="black"/>
<path d="M60 372H48V384H60V372Z" fill="black"/>
<path d="M72 372H60V384H72V372Z" fill="black"/>
<path d="M96 372H84V384H96V372Z" fill="black"/>
<path d="M120 372H108V384H120V372Z" fill="black"/>
<path d="M132 372H120V384H132V372Z" fill="black"/>
<path d="M168 372H156V384H168V372Z" fill="black"/>
<path d="M240 372H228V384H240V372Z" fill="black"/>
<path d="M264 372H252V384H264V372Z" fill="black"/>
<path d="M288 372H276V384H288V372Z" fill="black"/>
<path d="M312 372H300V384H312V372Z" fill="black"/>
<path d="M324 372H312V384H324V372Z" fill="black"/>
<path d="M360 372H348V384H360V372Z" fill="black"/>
<path d="M372 372H360V384H372V372Z" fill="black"/>
<path d="M408 372H396V384H408V372Z" fill="black"/>
<path d="M24 384H12V396H24V384Z" fill="black"/>
<path d="M96 384H84V396H96V384Z" fill="black"/>
<path d="M120 384H108V396H120V384Z" fill="black"/>
<path d="M144 384H132V396H144V384Z" fill="black"/>
<path d="M156 384H144V396H156V384Z" fill="black"/>
<path d="M204 384H192V396H204V384Z" fill="black"/>
<path d="M216 384H204V396H216V384Z" fill="black"/>
<path d="M240 384H228V396H240V384Z" fill="black"/>
<path d="M264 384H252V396H264V384Z" fill="black"/>
<path d="M276 384H264V396H276V384Z" fill="black"/>
<path d="M288 384H276V396H288V384Z" fill="black"/>
<path d="M300 384H288V396H300V384Z" fill="black"/>
<path d="M336 384H324V396H336V384Z" fill="black"/>
<path d="M360 384H348V396H360V384Z" fill="black"/>
<path d="M372 384H360V396H372V384Z" fill="black"/>
<path d="M384 384H372V396H384V384Z" fill="black"/>
<path d="M396 384H384V396H396V384Z" fill="black"/>
<path d="M24 396H12V408H24V396Z" fill="black"/>
<path d="M36 396H24V408H36V396Z" fill="black"/>
<path d="M48 396H36V408H48V396Z" fill="black"/>
<path d="M60 396H48V408H60V396Z" fill="black"/>
<path d="M72 396H60V408H72V396Z" fill="black"/>
<path d="M84 396H72V408H84V396Z" fill="black"/>
<path d="M96 396H84V408H96V396Z" fill="black"/>
<path d="M240 396H228V408H240V396Z" fill="black"/>
<path d="M252 396H240V408H252V396Z" fill="black"/>
<path d="M264 396H252V408H264V396Z" fill="black"/>
<path d="M276 396H264V408H276V396Z" fill="black"/>
<path d="M288 396H276V408H288V396Z" fill="black"/>
<path d="M300 396H288V408H300V396Z" fill="black"/>
<path d="M312 396H300V408H312V396Z" fill="black"/>
<path d="M336 396H324V408H336V396Z" fill="black"/>
<path d="M360 396H348V408H360V396Z" fill="black"/>
<path d="M372 396H360V408H372V396Z" fill="black"/>
<path d="M396 396H384V408H396V396Z" fill="black"/>
<path d="M408 396H396V408H408V396Z" fill="black"/>
<rect x="165" y="165" width="90" height="90" rx="17" fill="white"/>
<path d="M249 224.08L223.911 215.644C223.911 215.644 225.839 212.758 227.897 207.1C229.956 201.442 230.25 198.334 230.25 198.334L214.01 198.201V192.654L233.678 192.515V188.594H214.006V179.668H204.372V188.594H186.021V192.516L204.372 192.385V198.334H189.653V201.441H219.951C219.951 201.441 219.617 203.963 218.455 207.1C217.294 210.236 216.098 212.984 216.098 212.984C216.098 212.984 201.872 208.005 194.376 208.005C186.879 208.005 177.762 211.016 176.878 219.756C175.998 228.491 181.125 233.222 188.348 234.964C195.571 236.715 202.24 234.947 208.046 232.104C213.853 229.266 219.551 222.815 219.551 222.815L248.792 237.013V237.996C248.792 244.07 243.869 248.995 237.795 248.996C219.197 249 200.599 249.002 182.002 248.997C175.927 248.995 171.004 244.069 171.005 237.994C171.006 219.331 170.999 200.667 171 182.004C171.001 175.928 175.928 171.005 182.003 171.006C200.669 171.007 219.335 170.998 238.001 171C244.076 171.001 248.998 175.927 248.998 182.002C248.997 196.028 249 210.054 249 224.08ZM212.434 219.192C212.434 219.192 203.306 230.714 192.552 230.714C181.792 230.714 179.533 225.24 179.533 221.302C179.533 217.37 181.77 213.091 190.925 212.472C200.074 211.855 212.439 219.192 212.439 219.192H212.434Z" fill="#3D76F6"/>
</svg>
