<?xml version="1.0" encoding="utf-8"?>
<!DOCTYPE svg PUBLIC "-//W3C//DTD SVG 20010904//EN" "http://www.w3.org/TR/2001/REC-SVG-20010904/DTD/svg10.dtd">
<svg xmlns="http://www.w3.org/2000/svg" xml:space="preserve" xmlns:xlink="http://www.w3.org/1999/xlink" width="420" height="420" viewBox="0 0 420 420">
<desc></desc>
<rect width="420" height="420" fill="#ffffff" cx="0" cy="0" />
<defs>
<rect id="p" width="12" height="12" />
</defs>
<g fill="#000000">
<use x="12" y="12" xlink:href="#p" />
<use x="24" y="12" xlink:href="#p" />
<use x="36" y="12" xlink:href="#p" />
<use x="48" y="12" xlink:href="#p" />
<use x="60" y="12" xlink:href="#p" />
<use x="72" y="12" xlink:href="#p" />
<use x="84" y="12" xlink:href="#p" />
<use x="120" y="12" xlink:href="#p" />
<use x="168" y="12" xlink:href="#p" />
<use x="204" y="12" xlink:href="#p" />
<use x="216" y="12" xlink:href="#p" />
<use x="228" y="12" xlink:href="#p" />
<use x="240" y="12" xlink:href="#p" />
<use x="252" y="12" xlink:href="#p" />
<use x="288" y="12" xlink:href="#p" />
<use x="300" y="12" xlink:href="#p" />
<use x="324" y="12" xlink:href="#p" />
<use x="336" y="12" xlink:href="#p" />
<use x="348" y="12" xlink:href="#p" />
<use x="360" y="12" xlink:href="#p" />
<use x="372" y="12" xlink:href="#p" />
<use x="384" y="12" xlink:href="#p" />
<use x="396" y="12" xlink:href="#p" />
<use x="12" y="24" xlink:href="#p" />
<use x="84" y="24" xlink:href="#p" />
<use x="108" y="24" xlink:href="#p" />
<use x="120" y="24" xlink:href="#p" />
<use x="144" y="24" xlink:href="#p" />
<use x="156" y="24" xlink:href="#p" />
<use x="168" y="24" xlink:href="#p" />
<use x="180" y="24" xlink:href="#p" />
<use x="192" y="24" xlink:href="#p" />
<use x="216" y="24" xlink:href="#p" />
<use x="252" y="24" xlink:href="#p" />
<use x="276" y="24" xlink:href="#p" />
<use x="324" y="24" xlink:href="#p" />
<use x="396" y="24" xlink:href="#p" />
<use x="12" y="36" xlink:href="#p" />
<use x="36" y="36" xlink:href="#p" />
<use x="48" y="36" xlink:href="#p" />
<use x="60" y="36" xlink:href="#p" />
<use x="84" y="36" xlink:href="#p" />
<use x="120" y="36" xlink:href="#p" />
<use x="132" y="36" xlink:href="#p" />
<use x="144" y="36" xlink:href="#p" />
<use x="180" y="36" xlink:href="#p" />
<use x="192" y="36" xlink:href="#p" />
<use x="204" y="36" xlink:href="#p" />
<use x="228" y="36" xlink:href="#p" />
<use x="240" y="36" xlink:href="#p" />
<use x="264" y="36" xlink:href="#p" />
<use x="276" y="36" xlink:href="#p" />
<use x="324" y="36" xlink:href="#p" />
<use x="348" y="36" xlink:href="#p" />
<use x="360" y="36" xlink:href="#p" />
<use x="372" y="36" xlink:href="#p" />
<use x="396" y="36" xlink:href="#p" />
<use x="12" y="48" xlink:href="#p" />
<use x="36" y="48" xlink:href="#p" />
<use x="48" y="48" xlink:href="#p" />
<use x="60" y="48" xlink:href="#p" />
<use x="84" y="48" xlink:href="#p" />
<use x="108" y="48" xlink:href="#p" />
<use x="120" y="48" xlink:href="#p" />
<use x="144" y="48" xlink:href="#p" />
<use x="168" y="48" xlink:href="#p" />
<use x="180" y="48" xlink:href="#p" />
<use x="192" y="48" xlink:href="#p" />
<use x="204" y="48" xlink:href="#p" />
<use x="216" y="48" xlink:href="#p" />
<use x="228" y="48" xlink:href="#p" />
<use x="276" y="48" xlink:href="#p" />
<use x="288" y="48" xlink:href="#p" />
<use x="300" y="48" xlink:href="#p" />
<use x="324" y="48" xlink:href="#p" />
<use x="348" y="48" xlink:href="#p" />
<use x="360" y="48" xlink:href="#p" />
<use x="372" y="48" xlink:href="#p" />
<use x="396" y="48" xlink:href="#p" />
<use x="12" y="60" xlink:href="#p" />
<use x="36" y="60" xlink:href="#p" />
<use x="48" y="60" xlink:href="#p" />
<use x="60" y="60" xlink:href="#p" />
<use x="84" y="60" xlink:href="#p" />
<use x="132" y="60" xlink:href="#p" />
<use x="156" y="60" xlink:href="#p" />
<use x="168" y="60" xlink:href="#p" />
<use x="204" y="60" xlink:href="#p" />
<use x="216" y="60" xlink:href="#p" />
<use x="240" y="60" xlink:href="#p" />
<use x="252" y="60" xlink:href="#p" />
<use x="288" y="60" xlink:href="#p" />
<use x="324" y="60" xlink:href="#p" />
<use x="348" y="60" xlink:href="#p" />
<use x="360" y="60" xlink:href="#p" />
<use x="372" y="60" xlink:href="#p" />
<use x="396" y="60" xlink:href="#p" />
<use x="12" y="72" xlink:href="#p" />
<use x="84" y="72" xlink:href="#p" />
<use x="108" y="72" xlink:href="#p" />
<use x="132" y="72" xlink:href="#p" />
<use x="168" y="72" xlink:href="#p" />
<use x="192" y="72" xlink:href="#p" />
<use x="216" y="72" xlink:href="#p" />
<use x="252" y="72" xlink:href="#p" />
<use x="264" y="72" xlink:href="#p" />
<use x="324" y="72" xlink:href="#p" />
<use x="396" y="72" xlink:href="#p" />
<use x="12" y="84" xlink:href="#p" />
<use x="24" y="84" xlink:href="#p" />
<use x="36" y="84" xlink:href="#p" />
<use x="48" y="84" xlink:href="#p" />
<use x="60" y="84" xlink:href="#p" />
<use x="72" y="84" xlink:href="#p" />
<use x="84" y="84" xlink:href="#p" />
<use x="108" y="84" xlink:href="#p" />
<use x="132" y="84" xlink:href="#p" />
<use x="156" y="84" xlink:href="#p" />
<use x="180" y="84" xlink:href="#p" />
<use x="204" y="84" xlink:href="#p" />
<use x="228" y="84" xlink:href="#p" />
<use x="252" y="84" xlink:href="#p" />
<use x="276" y="84" xlink:href="#p" />
<use x="300" y="84" xlink:href="#p" />
<use x="324" y="84" xlink:href="#p" />
<use x="336" y="84" xlink:href="#p" />
<use x="348" y="84" xlink:href="#p" />
<use x="360" y="84" xlink:href="#p" />
<use x="372" y="84" xlink:href="#p" />
<use x="384" y="84" xlink:href="#p" />
<use x="396" y="84" xlink:href="#p" />
<use x="156" y="96" xlink:href="#p" />
<use x="180" y="96" xlink:href="#p" />
<use x="204" y="96" xlink:href="#p" />
<use x="240" y="96" xlink:href="#p" />
<use x="252" y="96" xlink:href="#p" />
<use x="264" y="96" xlink:href="#p" />
<use x="276" y="96" xlink:href="#p" />
<use x="288" y="96" xlink:href="#p" />
<use x="12" y="108" xlink:href="#p" />
<use x="24" y="108" xlink:href="#p" />
<use x="36" y="108" xlink:href="#p" />
<use x="48" y="108" xlink:href="#p" />
<use x="60" y="108" xlink:href="#p" />
<use x="84" y="108" xlink:href="#p" />
<use x="96" y="108" xlink:href="#p" />
<use x="108" y="108" xlink:href="#p" />
<use x="120" y="108" xlink:href="#p" />
<use x="132" y="108" xlink:href="#p" />
<use x="156" y="108" xlink:href="#p" />
<use x="168" y="108" xlink:href="#p" />
<use x="180" y="108" xlink:href="#p" />
<use x="192" y="108" xlink:href="#p" />
<use x="216" y="108" xlink:href="#p" />
<use x="240" y="108" xlink:href="#p" />
<use x="276" y="108" xlink:href="#p" />
<use x="288" y="108" xlink:href="#p" />
<use x="300" y="108" xlink:href="#p" />
<use x="312" y="108" xlink:href="#p" />
<use x="336" y="108" xlink:href="#p" />
<use x="360" y="108" xlink:href="#p" />
<use x="384" y="108" xlink:href="#p" />
<use x="24" y="120" xlink:href="#p" />
<use x="36" y="120" xlink:href="#p" />
<use x="60" y="120" xlink:href="#p" />
<use x="72" y="120" xlink:href="#p" />
<use x="96" y="120" xlink:href="#p" />
<use x="120" y="120" xlink:href="#p" />
<use x="240" y="120" xlink:href="#p" />
<use x="288" y="120" xlink:href="#p" />
<use x="324" y="120" xlink:href="#p" />
<use x="372" y="120" xlink:href="#p" />
<use x="384" y="120" xlink:href="#p" />
<use x="396" y="120" xlink:href="#p" />
<use x="12" y="132" xlink:href="#p" />
<use x="36" y="132" xlink:href="#p" />
<use x="48" y="132" xlink:href="#p" />
<use x="72" y="132" xlink:href="#p" />
<use x="84" y="132" xlink:href="#p" />
<use x="120" y="132" xlink:href="#p" />
<use x="144" y="132" xlink:href="#p" />
<use x="156" y="132" xlink:href="#p" />
<use x="180" y="132" xlink:href="#p" />
<use x="192" y="132" xlink:href="#p" />
<use x="204" y="132" xlink:href="#p" />
<use x="276" y="132" xlink:href="#p" />
<use x="336" y="132" xlink:href="#p" />
<use x="348" y="132" xlink:href="#p" />
<use x="360" y="132" xlink:href="#p" />
<use x="384" y="132" xlink:href="#p" />
<use x="12" y="144" xlink:href="#p" />
<use x="108" y="144" xlink:href="#p" />
<use x="120" y="144" xlink:href="#p" />
<use x="132" y="144" xlink:href="#p" />
<use x="144" y="144" xlink:href="#p" />
<use x="180" y="144" xlink:href="#p" />
<use x="192" y="144" xlink:href="#p" />
<use x="228" y="144" xlink:href="#p" />
<use x="252" y="144" xlink:href="#p" />
<use x="264" y="144" xlink:href="#p" />
<use x="288" y="144" xlink:href="#p" />
<use x="300" y="144" xlink:href="#p" />
<use x="312" y="144" xlink:href="#p" />
<use x="336" y="144" xlink:href="#p" />
<use x="372" y="144" xlink:href="#p" />
<use x="12" y="156" xlink:href="#p" />
<use x="36" y="156" xlink:href="#p" />
<use x="48" y="156" xlink:href="#p" />
<use x="60" y="156" xlink:href="#p" />
<use x="72" y="156" xlink:href="#p" />
<use x="84" y="156" xlink:href="#p" />
<use x="108" y="156" xlink:href="#p" />
<use x="120" y="156" xlink:href="#p" />
<use x="144" y="156" xlink:href="#p" />
<use x="156" y="156" xlink:href="#p" />
<use x="168" y="156" xlink:href="#p" />
<use x="180" y="156" xlink:href="#p" />
<use x="192" y="156" xlink:href="#p" />
<use x="204" y="156" xlink:href="#p" />
<use x="216" y="156" xlink:href="#p" />
<use x="276" y="156" xlink:href="#p" />
<use x="300" y="156" xlink:href="#p" />
<use x="312" y="156" xlink:href="#p" />
<use x="348" y="156" xlink:href="#p" />
<use x="360" y="156" xlink:href="#p" />
<use x="48" y="168" xlink:href="#p" />
<use x="108" y="168" xlink:href="#p" />
<use x="132" y="168" xlink:href="#p" />
<use x="156" y="168" xlink:href="#p" />
<use x="168" y="168" xlink:href="#p" />
<use x="192" y="168" xlink:href="#p" />
<use x="204" y="168" xlink:href="#p" />
<use x="228" y="168" xlink:href="#p" />
<use x="240" y="168" xlink:href="#p" />
<use x="252" y="168" xlink:href="#p" />
<use x="264" y="168" xlink:href="#p" />
<use x="276" y="168" xlink:href="#p" />
<use x="288" y="168" xlink:href="#p" />
<use x="312" y="168" xlink:href="#p" />
<use x="324" y="168" xlink:href="#p" />
<use x="384" y="168" xlink:href="#p" />
<use x="396" y="168" xlink:href="#p" />
<use x="24" y="180" xlink:href="#p" />
<use x="48" y="180" xlink:href="#p" />
<use x="60" y="180" xlink:href="#p" />
<use x="84" y="180" xlink:href="#p" />
<use x="96" y="180" xlink:href="#p" />
<use x="108" y="180" xlink:href="#p" />
<use x="168" y="180" xlink:href="#p" />
<use x="180" y="180" xlink:href="#p" />
<use x="192" y="180" xlink:href="#p" />
<use x="204" y="180" xlink:href="#p" />
<use x="228" y="180" xlink:href="#p" />
<use x="276" y="180" xlink:href="#p" />
<use x="300" y="180" xlink:href="#p" />
<use x="312" y="180" xlink:href="#p" />
<use x="336" y="180" xlink:href="#p" />
<use x="348" y="180" xlink:href="#p" />
<use x="384" y="180" xlink:href="#p" />
<use x="12" y="192" xlink:href="#p" />
<use x="36" y="192" xlink:href="#p" />
<use x="48" y="192" xlink:href="#p" />
<use x="96" y="192" xlink:href="#p" />
<use x="132" y="192" xlink:href="#p" />
<use x="144" y="192" xlink:href="#p" />
<use x="192" y="192" xlink:href="#p" />
<use x="204" y="192" xlink:href="#p" />
<use x="240" y="192" xlink:href="#p" />
<use x="252" y="192" xlink:href="#p" />
<use x="264" y="192" xlink:href="#p" />
<use x="288" y="192" xlink:href="#p" />
<use x="312" y="192" xlink:href="#p" />
<use x="324" y="192" xlink:href="#p" />
<use x="336" y="192" xlink:href="#p" />
<use x="372" y="192" xlink:href="#p" />
<use x="24" y="204" xlink:href="#p" />
<use x="84" y="204" xlink:href="#p" />
<use x="96" y="204" xlink:href="#p" />
<use x="108" y="204" xlink:href="#p" />
<use x="132" y="204" xlink:href="#p" />
<use x="168" y="204" xlink:href="#p" />
<use x="192" y="204" xlink:href="#p" />
<use x="204" y="204" xlink:href="#p" />
<use x="216" y="204" xlink:href="#p" />
<use x="240" y="204" xlink:href="#p" />
<use x="276" y="204" xlink:href="#p" />
<use x="288" y="204" xlink:href="#p" />
<use x="300" y="204" xlink:href="#p" />
<use x="312" y="204" xlink:href="#p" />
<use x="336" y="204" xlink:href="#p" />
<use x="348" y="204" xlink:href="#p" />
<use x="384" y="204" xlink:href="#p" />
<use x="12" y="216" xlink:href="#p" />
<use x="48" y="216" xlink:href="#p" />
<use x="60" y="216" xlink:href="#p" />
<use x="72" y="216" xlink:href="#p" />
<use x="96" y="216" xlink:href="#p" />
<use x="120" y="216" xlink:href="#p" />
<use x="132" y="216" xlink:href="#p" />
<use x="144" y="216" xlink:href="#p" />
<use x="168" y="216" xlink:href="#p" />
<use x="180" y="216" xlink:href="#p" />
<use x="192" y="216" xlink:href="#p" />
<use x="204" y="216" xlink:href="#p" />
<use x="228" y="216" xlink:href="#p" />
<use x="240" y="216" xlink:href="#p" />
<use x="252" y="216" xlink:href="#p" />
<use x="288" y="216" xlink:href="#p" />
<use x="300" y="216" xlink:href="#p" />
<use x="324" y="216" xlink:href="#p" />
<use x="360" y="216" xlink:href="#p" />
<use x="384" y="216" xlink:href="#p" />
<use x="396" y="216" xlink:href="#p" />
<use x="12" y="228" xlink:href="#p" />
<use x="36" y="228" xlink:href="#p" />
<use x="48" y="228" xlink:href="#p" />
<use x="60" y="228" xlink:href="#p" />
<use x="84" y="228" xlink:href="#p" />
<use x="108" y="228" xlink:href="#p" />
<use x="180" y="228" xlink:href="#p" />
<use x="192" y="228" xlink:href="#p" />
<use x="216" y="228" xlink:href="#p" />
<use x="252" y="228" xlink:href="#p" />
<use x="264" y="228" xlink:href="#p" />
<use x="312" y="228" xlink:href="#p" />
<use x="324" y="228" xlink:href="#p" />
<use x="336" y="228" xlink:href="#p" />
<use x="348" y="228" xlink:href="#p" />
<use x="360" y="228" xlink:href="#p" />
<use x="384" y="228" xlink:href="#p" />
<use x="24" y="240" xlink:href="#p" />
<use x="36" y="240" xlink:href="#p" />
<use x="48" y="240" xlink:href="#p" />
<use x="72" y="240" xlink:href="#p" />
<use x="96" y="240" xlink:href="#p" />
<use x="108" y="240" xlink:href="#p" />
<use x="132" y="240" xlink:href="#p" />
<use x="156" y="240" xlink:href="#p" />
<use x="180" y="240" xlink:href="#p" />
<use x="192" y="240" xlink:href="#p" />
<use x="252" y="240" xlink:href="#p" />
<use x="264" y="240" xlink:href="#p" />
<use x="276" y="240" xlink:href="#p" />
<use x="288" y="240" xlink:href="#p" />
<use x="300" y="240" xlink:href="#p" />
<use x="348" y="240" xlink:href="#p" />
<use x="372" y="240" xlink:href="#p" />
<use x="24" y="252" xlink:href="#p" />
<use x="48" y="252" xlink:href="#p" />
<use x="72" y="252" xlink:href="#p" />
<use x="84" y="252" xlink:href="#p" />
<use x="108" y="252" xlink:href="#p" />
<use x="120" y="252" xlink:href="#p" />
<use x="156" y="252" xlink:href="#p" />
<use x="168" y="252" xlink:href="#p" />
<use x="180" y="252" xlink:href="#p" />
<use x="192" y="252" xlink:href="#p" />
<use x="204" y="252" xlink:href="#p" />
<use x="216" y="252" xlink:href="#p" />
<use x="228" y="252" xlink:href="#p" />
<use x="276" y="252" xlink:href="#p" />
<use x="312" y="252" xlink:href="#p" />
<use x="336" y="252" xlink:href="#p" />
<use x="348" y="252" xlink:href="#p" />
<use x="384" y="252" xlink:href="#p" />
<use x="12" y="264" xlink:href="#p" />
<use x="36" y="264" xlink:href="#p" />
<use x="60" y="264" xlink:href="#p" />
<use x="108" y="264" xlink:href="#p" />
<use x="120" y="264" xlink:href="#p" />
<use x="132" y="264" xlink:href="#p" />
<use x="144" y="264" xlink:href="#p" />
<use x="180" y="264" xlink:href="#p" />
<use x="192" y="264" xlink:href="#p" />
<use x="204" y="264" xlink:href="#p" />
<use x="216" y="264" xlink:href="#p" />
<use x="240" y="264" xlink:href="#p" />
<use x="252" y="264" xlink:href="#p" />
<use x="264" y="264" xlink:href="#p" />
<use x="276" y="264" xlink:href="#p" />
<use x="288" y="264" xlink:href="#p" />
<use x="312" y="264" xlink:href="#p" />
<use x="324" y="264" xlink:href="#p" />
<use x="336" y="264" xlink:href="#p" />
<use x="360" y="264" xlink:href="#p" />
<use x="384" y="264" xlink:href="#p" />
<use x="396" y="264" xlink:href="#p" />
<use x="12" y="276" xlink:href="#p" />
<use x="60" y="276" xlink:href="#p" />
<use x="72" y="276" xlink:href="#p" />
<use x="84" y="276" xlink:href="#p" />
<use x="96" y="276" xlink:href="#p" />
<use x="108" y="276" xlink:href="#p" />
<use x="156" y="276" xlink:href="#p" />
<use x="168" y="276" xlink:href="#p" />
<use x="192" y="276" xlink:href="#p" />
<use x="252" y="276" xlink:href="#p" />
<use x="264" y="276" xlink:href="#p" />
<use x="276" y="276" xlink:href="#p" />
<use x="300" y="276" xlink:href="#p" />
<use x="348" y="276" xlink:href="#p" />
<use x="360" y="276" xlink:href="#p" />
<use x="384" y="276" xlink:href="#p" />
<use x="12" y="288" xlink:href="#p" />
<use x="48" y="288" xlink:href="#p" />
<use x="60" y="288" xlink:href="#p" />
<use x="120" y="288" xlink:href="#p" />
<use x="132" y="288" xlink:href="#p" />
<use x="156" y="288" xlink:href="#p" />
<use x="204" y="288" xlink:href="#p" />
<use x="264" y="288" xlink:href="#p" />
<use x="288" y="288" xlink:href="#p" />
<use x="300" y="288" xlink:href="#p" />
<use x="312" y="288" xlink:href="#p" />
<use x="324" y="288" xlink:href="#p" />
<use x="336" y="288" xlink:href="#p" />
<use x="348" y="288" xlink:href="#p" />
<use x="360" y="288" xlink:href="#p" />
<use x="372" y="288" xlink:href="#p" />
<use x="12" y="300" xlink:href="#p" />
<use x="36" y="300" xlink:href="#p" />
<use x="60" y="300" xlink:href="#p" />
<use x="72" y="300" xlink:href="#p" />
<use x="84" y="300" xlink:href="#p" />
<use x="108" y="300" xlink:href="#p" />
<use x="132" y="300" xlink:href="#p" />
<use x="144" y="300" xlink:href="#p" />
<use x="156" y="300" xlink:href="#p" />
<use x="168" y="300" xlink:href="#p" />
<use x="180" y="300" xlink:href="#p" />
<use x="192" y="300" xlink:href="#p" />
<use x="204" y="300" xlink:href="#p" />
<use x="216" y="300" xlink:href="#p" />
<use x="228" y="300" xlink:href="#p" />
<use x="240" y="300" xlink:href="#p" />
<use x="276" y="300" xlink:href="#p" />
<use x="300" y="300" xlink:href="#p" />
<use x="312" y="300" xlink:href="#p" />
<use x="324" y="300" xlink:href="#p" />
<use x="336" y="300" xlink:href="#p" />
<use x="348" y="300" xlink:href="#p" />
<use x="396" y="300" xlink:href="#p" />
<use x="108" y="312" xlink:href="#p" />
<use x="120" y="312" xlink:href="#p" />
<use x="132" y="312" xlink:href="#p" />
<use x="144" y="312" xlink:href="#p" />
<use x="168" y="312" xlink:href="#p" />
<use x="180" y="312" xlink:href="#p" />
<use x="192" y="312" xlink:href="#p" />
<use x="204" y="312" xlink:href="#p" />
<use x="240" y="312" xlink:href="#p" />
<use x="252" y="312" xlink:href="#p" />
<use x="264" y="312" xlink:href="#p" />
<use x="288" y="312" xlink:href="#p" />
<use x="300" y="312" xlink:href="#p" />
<use x="348" y="312" xlink:href="#p" />
<use x="360" y="312" xlink:href="#p" />
<use x="396" y="312" xlink:href="#p" />
<use x="12" y="324" xlink:href="#p" />
<use x="24" y="324" xlink:href="#p" />
<use x="36" y="324" xlink:href="#p" />
<use x="48" y="324" xlink:href="#p" />
<use x="60" y="324" xlink:href="#p" />
<use x="72" y="324" xlink:href="#p" />
<use x="84" y="324" xlink:href="#p" />
<use x="108" y="324" xlink:href="#p" />
<use x="120" y="324" xlink:href="#p" />
<use x="132" y="324" xlink:href="#p" />
<use x="156" y="324" xlink:href="#p" />
<use x="168" y="324" xlink:href="#p" />
<use x="192" y="324" xlink:href="#p" />
<use x="216" y="324" xlink:href="#p" />
<use x="228" y="324" xlink:href="#p" />
<use x="264" y="324" xlink:href="#p" />
<use x="276" y="324" xlink:href="#p" />
<use x="288" y="324" xlink:href="#p" />
<use x="300" y="324" xlink:href="#p" />
<use x="324" y="324" xlink:href="#p" />
<use x="348" y="324" xlink:href="#p" />
<use x="372" y="324" xlink:href="#p" />
<use x="384" y="324" xlink:href="#p" />
<use x="12" y="336" xlink:href="#p" />
<use x="84" y="336" xlink:href="#p" />
<use x="120" y="336" xlink:href="#p" />
<use x="132" y="336" xlink:href="#p" />
<use x="204" y="336" xlink:href="#p" />
<use x="228" y="336" xlink:href="#p" />
<use x="240" y="336" xlink:href="#p" />
<use x="264" y="336" xlink:href="#p" />
<use x="276" y="336" xlink:href="#p" />
<use x="288" y="336" xlink:href="#p" />
<use x="300" y="336" xlink:href="#p" />
<use x="348" y="336" xlink:href="#p" />
<use x="360" y="336" xlink:href="#p" />
<use x="372" y="336" xlink:href="#p" />
<use x="12" y="348" xlink:href="#p" />
<use x="36" y="348" xlink:href="#p" />
<use x="48" y="348" xlink:href="#p" />
<use x="60" y="348" xlink:href="#p" />
<use x="84" y="348" xlink:href="#p" />
<use x="108" y="348" xlink:href="#p" />
<use x="168" y="348" xlink:href="#p" />
<use x="180" y="348" xlink:href="#p" />
<use x="192" y="348" xlink:href="#p" />
<use x="204" y="348" xlink:href="#p" />
<use x="216" y="348" xlink:href="#p" />
<use x="228" y="348" xlink:href="#p" />
<use x="252" y="348" xlink:href="#p" />
<use x="300" y="348" xlink:href="#p" />
<use x="312" y="348" xlink:href="#p" />
<use x="324" y="348" xlink:href="#p" />
<use x="336" y="348" xlink:href="#p" />
<use x="348" y="348" xlink:href="#p" />
<use x="396" y="348" xlink:href="#p" />
<use x="12" y="360" xlink:href="#p" />
<use x="36" y="360" xlink:href="#p" />
<use x="48" y="360" xlink:href="#p" />
<use x="60" y="360" xlink:href="#p" />
<use x="84" y="360" xlink:href="#p" />
<use x="108" y="360" xlink:href="#p" />
<use x="120" y="360" xlink:href="#p" />
<use x="132" y="360" xlink:href="#p" />
<use x="144" y="360" xlink:href="#p" />
<use x="180" y="360" xlink:href="#p" />
<use x="192" y="360" xlink:href="#p" />
<use x="204" y="360" xlink:href="#p" />
<use x="216" y="360" xlink:href="#p" />
<use x="240" y="360" xlink:href="#p" />
<use x="252" y="360" xlink:href="#p" />
<use x="288" y="360" xlink:href="#p" />
<use x="300" y="360" xlink:href="#p" />
<use x="312" y="360" xlink:href="#p" />
<use x="336" y="360" xlink:href="#p" />
<use x="348" y="360" xlink:href="#p" />
<use x="12" y="372" xlink:href="#p" />
<use x="36" y="372" xlink:href="#p" />
<use x="48" y="372" xlink:href="#p" />
<use x="60" y="372" xlink:href="#p" />
<use x="84" y="372" xlink:href="#p" />
<use x="108" y="372" xlink:href="#p" />
<use x="120" y="372" xlink:href="#p" />
<use x="168" y="372" xlink:href="#p" />
<use x="192" y="372" xlink:href="#p" />
<use x="228" y="372" xlink:href="#p" />
<use x="276" y="372" xlink:href="#p" />
<use x="300" y="372" xlink:href="#p" />
<use x="312" y="372" xlink:href="#p" />
<use x="324" y="372" xlink:href="#p" />
<use x="360" y="372" xlink:href="#p" />
<use x="372" y="372" xlink:href="#p" />
<use x="384" y="372" xlink:href="#p" />
<use x="12" y="384" xlink:href="#p" />
<use x="84" y="384" xlink:href="#p" />
<use x="108" y="384" xlink:href="#p" />
<use x="132" y="384" xlink:href="#p" />
<use x="240" y="384" xlink:href="#p" />
<use x="252" y="384" xlink:href="#p" />
<use x="264" y="384" xlink:href="#p" />
<use x="276" y="384" xlink:href="#p" />
<use x="312" y="384" xlink:href="#p" />
<use x="336" y="384" xlink:href="#p" />
<use x="348" y="384" xlink:href="#p" />
<use x="360" y="384" xlink:href="#p" />
<use x="372" y="384" xlink:href="#p" />
<use x="12" y="396" xlink:href="#p" />
<use x="24" y="396" xlink:href="#p" />
<use x="36" y="396" xlink:href="#p" />
<use x="48" y="396" xlink:href="#p" />
<use x="60" y="396" xlink:href="#p" />
<use x="72" y="396" xlink:href="#p" />
<use x="84" y="396" xlink:href="#p" />
<use x="108" y="396" xlink:href="#p" />
<use x="120" y="396" xlink:href="#p" />
<use x="156" y="396" xlink:href="#p" />
<use x="168" y="396" xlink:href="#p" />
<use x="180" y="396" xlink:href="#p" />
<use x="192" y="396" xlink:href="#p" />
<use x="204" y="396" xlink:href="#p" />
<use x="216" y="396" xlink:href="#p" />
<use x="228" y="396" xlink:href="#p" />
<use x="276" y="396" xlink:href="#p" />
<use x="288" y="396" xlink:href="#p" />
<use x="300" y="396" xlink:href="#p" />
<use x="348" y="396" xlink:href="#p" />
<use x="384" y="396" xlink:href="#p" />
</g>
</svg>