<?xml version="1.0" encoding="utf-8"?>
<!DOCTYPE svg PUBLIC "-//W3C//DTD SVG 20010904//EN" "http://www.w3.org/TR/2001/REC-SVG-20010904/DTD/svg10.dtd">
<svg xmlns="http://www.w3.org/2000/svg" xml:space="preserve" xmlns:xlink="http://www.w3.org/1999/xlink" width="516" height="516" viewBox="0 0 516 516">
<desc></desc>
<rect width="516" height="516" fill="#ffffff" cx="0" cy="0" />
<defs>
<rect id="p" width="12" height="12" />
</defs>
<g fill="#000000">
<use x="12" y="12" xlink:href="#p" />
<use x="24" y="12" xlink:href="#p" />
<use x="36" y="12" xlink:href="#p" />
<use x="48" y="12" xlink:href="#p" />
<use x="60" y="12" xlink:href="#p" />
<use x="72" y="12" xlink:href="#p" />
<use x="84" y="12" xlink:href="#p" />
<use x="120" y="12" xlink:href="#p" />
<use x="156" y="12" xlink:href="#p" />
<use x="204" y="12" xlink:href="#p" />
<use x="240" y="12" xlink:href="#p" />
<use x="264" y="12" xlink:href="#p" />
<use x="276" y="12" xlink:href="#p" />
<use x="288" y="12" xlink:href="#p" />
<use x="324" y="12" xlink:href="#p" />
<use x="336" y="12" xlink:href="#p" />
<use x="360" y="12" xlink:href="#p" />
<use x="372" y="12" xlink:href="#p" />
<use x="384" y="12" xlink:href="#p" />
<use x="420" y="12" xlink:href="#p" />
<use x="432" y="12" xlink:href="#p" />
<use x="444" y="12" xlink:href="#p" />
<use x="456" y="12" xlink:href="#p" />
<use x="468" y="12" xlink:href="#p" />
<use x="480" y="12" xlink:href="#p" />
<use x="492" y="12" xlink:href="#p" />
<use x="12" y="24" xlink:href="#p" />
<use x="84" y="24" xlink:href="#p" />
<use x="120" y="24" xlink:href="#p" />
<use x="132" y="24" xlink:href="#p" />
<use x="144" y="24" xlink:href="#p" />
<use x="168" y="24" xlink:href="#p" />
<use x="192" y="24" xlink:href="#p" />
<use x="216" y="24" xlink:href="#p" />
<use x="240" y="24" xlink:href="#p" />
<use x="252" y="24" xlink:href="#p" />
<use x="276" y="24" xlink:href="#p" />
<use x="288" y="24" xlink:href="#p" />
<use x="300" y="24" xlink:href="#p" />
<use x="324" y="24" xlink:href="#p" />
<use x="336" y="24" xlink:href="#p" />
<use x="348" y="24" xlink:href="#p" />
<use x="372" y="24" xlink:href="#p" />
<use x="384" y="24" xlink:href="#p" />
<use x="396" y="24" xlink:href="#p" />
<use x="420" y="24" xlink:href="#p" />
<use x="492" y="24" xlink:href="#p" />
<use x="12" y="36" xlink:href="#p" />
<use x="36" y="36" xlink:href="#p" />
<use x="48" y="36" xlink:href="#p" />
<use x="60" y="36" xlink:href="#p" />
<use x="84" y="36" xlink:href="#p" />
<use x="108" y="36" xlink:href="#p" />
<use x="156" y="36" xlink:href="#p" />
<use x="192" y="36" xlink:href="#p" />
<use x="216" y="36" xlink:href="#p" />
<use x="252" y="36" xlink:href="#p" />
<use x="276" y="36" xlink:href="#p" />
<use x="288" y="36" xlink:href="#p" />
<use x="312" y="36" xlink:href="#p" />
<use x="324" y="36" xlink:href="#p" />
<use x="348" y="36" xlink:href="#p" />
<use x="372" y="36" xlink:href="#p" />
<use x="384" y="36" xlink:href="#p" />
<use x="420" y="36" xlink:href="#p" />
<use x="444" y="36" xlink:href="#p" />
<use x="456" y="36" xlink:href="#p" />
<use x="468" y="36" xlink:href="#p" />
<use x="492" y="36" xlink:href="#p" />
<use x="12" y="48" xlink:href="#p" />
<use x="36" y="48" xlink:href="#p" />
<use x="48" y="48" xlink:href="#p" />
<use x="60" y="48" xlink:href="#p" />
<use x="84" y="48" xlink:href="#p" />
<use x="120" y="48" xlink:href="#p" />
<use x="156" y="48" xlink:href="#p" />
<use x="168" y="48" xlink:href="#p" />
<use x="192" y="48" xlink:href="#p" />
<use x="216" y="48" xlink:href="#p" />
<use x="252" y="48" xlink:href="#p" />
<use x="288" y="48" xlink:href="#p" />
<use x="300" y="48" xlink:href="#p" />
<use x="312" y="48" xlink:href="#p" />
<use x="360" y="48" xlink:href="#p" />
<use x="372" y="48" xlink:href="#p" />
<use x="420" y="48" xlink:href="#p" />
<use x="444" y="48" xlink:href="#p" />
<use x="456" y="48" xlink:href="#p" />
<use x="468" y="48" xlink:href="#p" />
<use x="492" y="48" xlink:href="#p" />
<use x="12" y="60" xlink:href="#p" />
<use x="36" y="60" xlink:href="#p" />
<use x="48" y="60" xlink:href="#p" />
<use x="60" y="60" xlink:href="#p" />
<use x="84" y="60" xlink:href="#p" />
<use x="120" y="60" xlink:href="#p" />
<use x="132" y="60" xlink:href="#p" />
<use x="252" y="60" xlink:href="#p" />
<use x="264" y="60" xlink:href="#p" />
<use x="276" y="60" xlink:href="#p" />
<use x="312" y="60" xlink:href="#p" />
<use x="324" y="60" xlink:href="#p" />
<use x="372" y="60" xlink:href="#p" />
<use x="384" y="60" xlink:href="#p" />
<use x="420" y="60" xlink:href="#p" />
<use x="444" y="60" xlink:href="#p" />
<use x="456" y="60" xlink:href="#p" />
<use x="468" y="60" xlink:href="#p" />
<use x="492" y="60" xlink:href="#p" />
<use x="12" y="72" xlink:href="#p" />
<use x="84" y="72" xlink:href="#p" />
<use x="120" y="72" xlink:href="#p" />
<use x="132" y="72" xlink:href="#p" />
<use x="168" y="72" xlink:href="#p" />
<use x="228" y="72" xlink:href="#p" />
<use x="252" y="72" xlink:href="#p" />
<use x="264" y="72" xlink:href="#p" />
<use x="324" y="72" xlink:href="#p" />
<use x="336" y="72" xlink:href="#p" />
<use x="372" y="72" xlink:href="#p" />
<use x="384" y="72" xlink:href="#p" />
<use x="420" y="72" xlink:href="#p" />
<use x="492" y="72" xlink:href="#p" />
<use x="12" y="84" xlink:href="#p" />
<use x="24" y="84" xlink:href="#p" />
<use x="36" y="84" xlink:href="#p" />
<use x="48" y="84" xlink:href="#p" />
<use x="60" y="84" xlink:href="#p" />
<use x="72" y="84" xlink:href="#p" />
<use x="84" y="84" xlink:href="#p" />
<use x="108" y="84" xlink:href="#p" />
<use x="132" y="84" xlink:href="#p" />
<use x="156" y="84" xlink:href="#p" />
<use x="180" y="84" xlink:href="#p" />
<use x="204" y="84" xlink:href="#p" />
<use x="228" y="84" xlink:href="#p" />
<use x="252" y="84" xlink:href="#p" />
<use x="276" y="84" xlink:href="#p" />
<use x="300" y="84" xlink:href="#p" />
<use x="324" y="84" xlink:href="#p" />
<use x="348" y="84" xlink:href="#p" />
<use x="372" y="84" xlink:href="#p" />
<use x="396" y="84" xlink:href="#p" />
<use x="420" y="84" xlink:href="#p" />
<use x="432" y="84" xlink:href="#p" />
<use x="444" y="84" xlink:href="#p" />
<use x="456" y="84" xlink:href="#p" />
<use x="468" y="84" xlink:href="#p" />
<use x="480" y="84" xlink:href="#p" />
<use x="492" y="84" xlink:href="#p" />
<use x="108" y="96" xlink:href="#p" />
<use x="120" y="96" xlink:href="#p" />
<use x="144" y="96" xlink:href="#p" />
<use x="168" y="96" xlink:href="#p" />
<use x="204" y="96" xlink:href="#p" />
<use x="216" y="96" xlink:href="#p" />
<use x="240" y="96" xlink:href="#p" />
<use x="264" y="96" xlink:href="#p" />
<use x="276" y="96" xlink:href="#p" />
<use x="288" y="96" xlink:href="#p" />
<use x="300" y="96" xlink:href="#p" />
<use x="312" y="96" xlink:href="#p" />
<use x="336" y="96" xlink:href="#p" />
<use x="348" y="96" xlink:href="#p" />
<use x="360" y="96" xlink:href="#p" />
<use x="384" y="96" xlink:href="#p" />
<use x="396" y="96" xlink:href="#p" />
<use x="12" y="108" xlink:href="#p" />
<use x="24" y="108" xlink:href="#p" />
<use x="36" y="108" xlink:href="#p" />
<use x="60" y="108" xlink:href="#p" />
<use x="72" y="108" xlink:href="#p" />
<use x="84" y="108" xlink:href="#p" />
<use x="96" y="108" xlink:href="#p" />
<use x="108" y="108" xlink:href="#p" />
<use x="120" y="108" xlink:href="#p" />
<use x="144" y="108" xlink:href="#p" />
<use x="168" y="108" xlink:href="#p" />
<use x="180" y="108" xlink:href="#p" />
<use x="192" y="108" xlink:href="#p" />
<use x="204" y="108" xlink:href="#p" />
<use x="216" y="108" xlink:href="#p" />
<use x="240" y="108" xlink:href="#p" />
<use x="252" y="108" xlink:href="#p" />
<use x="264" y="108" xlink:href="#p" />
<use x="300" y="108" xlink:href="#p" />
<use x="312" y="108" xlink:href="#p" />
<use x="348" y="108" xlink:href="#p" />
<use x="360" y="108" xlink:href="#p" />
<use x="396" y="108" xlink:href="#p" />
<use x="408" y="108" xlink:href="#p" />
<use x="420" y="108" xlink:href="#p" />
<use x="468" y="108" xlink:href="#p" />
<use x="12" y="120" xlink:href="#p" />
<use x="36" y="120" xlink:href="#p" />
<use x="60" y="120" xlink:href="#p" />
<use x="72" y="120" xlink:href="#p" />
<use x="132" y="120" xlink:href="#p" />
<use x="180" y="120" xlink:href="#p" />
<use x="252" y="120" xlink:href="#p" />
<use x="264" y="120" xlink:href="#p" />
<use x="276" y="120" xlink:href="#p" />
<use x="300" y="120" xlink:href="#p" />
<use x="312" y="120" xlink:href="#p" />
<use x="324" y="120" xlink:href="#p" />
<use x="348" y="120" xlink:href="#p" />
<use x="360" y="120" xlink:href="#p" />
<use x="396" y="120" xlink:href="#p" />
<use x="408" y="120" xlink:href="#p" />
<use x="420" y="120" xlink:href="#p" />
<use x="24" y="132" xlink:href="#p" />
<use x="60" y="132" xlink:href="#p" />
<use x="72" y="132" xlink:href="#p" />
<use x="84" y="132" xlink:href="#p" />
<use x="120" y="132" xlink:href="#p" />
<use x="132" y="132" xlink:href="#p" />
<use x="144" y="132" xlink:href="#p" />
<use x="156" y="132" xlink:href="#p" />
<use x="168" y="132" xlink:href="#p" />
<use x="204" y="132" xlink:href="#p" />
<use x="228" y="132" xlink:href="#p" />
<use x="252" y="132" xlink:href="#p" />
<use x="372" y="132" xlink:href="#p" />
<use x="408" y="132" xlink:href="#p" />
<use x="468" y="132" xlink:href="#p" />
<use x="24" y="144" xlink:href="#p" />
<use x="36" y="144" xlink:href="#p" />
<use x="48" y="144" xlink:href="#p" />
<use x="60" y="144" xlink:href="#p" />
<use x="108" y="144" xlink:href="#p" />
<use x="120" y="144" xlink:href="#p" />
<use x="156" y="144" xlink:href="#p" />
<use x="192" y="144" xlink:href="#p" />
<use x="204" y="144" xlink:href="#p" />
<use x="228" y="144" xlink:href="#p" />
<use x="240" y="144" xlink:href="#p" />
<use x="252" y="144" xlink:href="#p" />
<use x="264" y="144" xlink:href="#p" />
<use x="276" y="144" xlink:href="#p" />
<use x="288" y="144" xlink:href="#p" />
<use x="300" y="144" xlink:href="#p" />
<use x="348" y="144" xlink:href="#p" />
<use x="420" y="144" xlink:href="#p" />
<use x="444" y="144" xlink:href="#p" />
<use x="48" y="156" xlink:href="#p" />
<use x="72" y="156" xlink:href="#p" />
<use x="84" y="156" xlink:href="#p" />
<use x="96" y="156" xlink:href="#p" />
<use x="108" y="156" xlink:href="#p" />
<use x="120" y="156" xlink:href="#p" />
<use x="132" y="156" xlink:href="#p" />
<use x="276" y="156" xlink:href="#p" />
<use x="312" y="156" xlink:href="#p" />
<use x="336" y="156" xlink:href="#p" />
<use x="348" y="156" xlink:href="#p" />
<use x="360" y="156" xlink:href="#p" />
<use x="408" y="156" xlink:href="#p" />
<use x="420" y="156" xlink:href="#p" />
<use x="444" y="156" xlink:href="#p" />
<use x="456" y="156" xlink:href="#p" />
<use x="480" y="156" xlink:href="#p" />
<use x="48" y="168" xlink:href="#p" />
<use x="72" y="168" xlink:href="#p" />
<use x="108" y="168" xlink:href="#p" />
<use x="132" y="168" xlink:href="#p" />
<use x="144" y="168" xlink:href="#p" />
<use x="168" y="168" xlink:href="#p" />
<use x="192" y="168" xlink:href="#p" />
<use x="264" y="168" xlink:href="#p" />
<use x="276" y="168" xlink:href="#p" />
<use x="288" y="168" xlink:href="#p" />
<use x="312" y="168" xlink:href="#p" />
<use x="324" y="168" xlink:href="#p" />
<use x="348" y="168" xlink:href="#p" />
<use x="360" y="168" xlink:href="#p" />
<use x="408" y="168" xlink:href="#p" />
<use x="456" y="168" xlink:href="#p" />
<use x="468" y="168" xlink:href="#p" />
<use x="492" y="168" xlink:href="#p" />
<use x="24" y="180" xlink:href="#p" />
<use x="72" y="180" xlink:href="#p" />
<use x="84" y="180" xlink:href="#p" />
<use x="180" y="180" xlink:href="#p" />
<use x="228" y="180" xlink:href="#p" />
<use x="240" y="180" xlink:href="#p" />
<use x="264" y="180" xlink:href="#p" />
<use x="276" y="180" xlink:href="#p" />
<use x="312" y="180" xlink:href="#p" />
<use x="360" y="180" xlink:href="#p" />
<use x="384" y="180" xlink:href="#p" />
<use x="396" y="180" xlink:href="#p" />
<use x="408" y="180" xlink:href="#p" />
<use x="432" y="180" xlink:href="#p" />
<use x="444" y="180" xlink:href="#p" />
<use x="480" y="180" xlink:href="#p" />
<use x="492" y="180" xlink:href="#p" />
<use x="12" y="192" xlink:href="#p" />
<use x="24" y="192" xlink:href="#p" />
<use x="48" y="192" xlink:href="#p" />
<use x="108" y="192" xlink:href="#p" />
<use x="144" y="192" xlink:href="#p" />
<use x="192" y="192" xlink:href="#p" />
<use x="216" y="192" xlink:href="#p" />
<use x="228" y="192" xlink:href="#p" />
<use x="240" y="192" xlink:href="#p" />
<use x="252" y="192" xlink:href="#p" />
<use x="264" y="192" xlink:href="#p" />
<use x="276" y="192" xlink:href="#p" />
<use x="312" y="192" xlink:href="#p" />
<use x="348" y="192" xlink:href="#p" />
<use x="360" y="192" xlink:href="#p" />
<use x="384" y="192" xlink:href="#p" />
<use x="396" y="192" xlink:href="#p" />
<use x="408" y="192" xlink:href="#p" />
<use x="432" y="192" xlink:href="#p" />
<use x="444" y="192" xlink:href="#p" />
<use x="480" y="192" xlink:href="#p" />
<use x="48" y="204" xlink:href="#p" />
<use x="60" y="204" xlink:href="#p" />
<use x="72" y="204" xlink:href="#p" />
<use x="84" y="204" xlink:href="#p" />
<use x="96" y="204" xlink:href="#p" />
<use x="120" y="204" xlink:href="#p" />
<use x="156" y="204" xlink:href="#p" />
<use x="216" y="204" xlink:href="#p" />
<use x="240" y="204" xlink:href="#p" />
<use x="264" y="204" xlink:href="#p" />
<use x="288" y="204" xlink:href="#p" />
<use x="300" y="204" xlink:href="#p" />
<use x="312" y="204" xlink:href="#p" />
<use x="348" y="204" xlink:href="#p" />
<use x="360" y="204" xlink:href="#p" />
<use x="396" y="204" xlink:href="#p" />
<use x="408" y="204" xlink:href="#p" />
<use x="420" y="204" xlink:href="#p" />
<use x="456" y="204" xlink:href="#p" />
<use x="468" y="204" xlink:href="#p" />
<use x="480" y="204" xlink:href="#p" />
<use x="492" y="204" xlink:href="#p" />
<use x="12" y="216" xlink:href="#p" />
<use x="24" y="216" xlink:href="#p" />
<use x="48" y="216" xlink:href="#p" />
<use x="60" y="216" xlink:href="#p" />
<use x="108" y="216" xlink:href="#p" />
<use x="120" y="216" xlink:href="#p" />
<use x="132" y="216" xlink:href="#p" />
<use x="144" y="216" xlink:href="#p" />
<use x="168" y="216" xlink:href="#p" />
<use x="192" y="216" xlink:href="#p" />
<use x="228" y="216" xlink:href="#p" />
<use x="252" y="216" xlink:href="#p" />
<use x="264" y="216" xlink:href="#p" />
<use x="276" y="216" xlink:href="#p" />
<use x="300" y="216" xlink:href="#p" />
<use x="312" y="216" xlink:href="#p" />
<use x="360" y="216" xlink:href="#p" />
<use x="396" y="216" xlink:href="#p" />
<use x="420" y="216" xlink:href="#p" />
<use x="432" y="216" xlink:href="#p" />
<use x="456" y="216" xlink:href="#p" />
<use x="36" y="228" xlink:href="#p" />
<use x="84" y="228" xlink:href="#p" />
<use x="120" y="228" xlink:href="#p" />
<use x="144" y="228" xlink:href="#p" />
<use x="180" y="228" xlink:href="#p" />
<use x="204" y="228" xlink:href="#p" />
<use x="228" y="228" xlink:href="#p" />
<use x="276" y="228" xlink:href="#p" />
<use x="300" y="228" xlink:href="#p" />
<use x="360" y="228" xlink:href="#p" />
<use x="396" y="228" xlink:href="#p" />
<use x="408" y="228" xlink:href="#p" />
<use x="432" y="228" xlink:href="#p" />
<use x="444" y="228" xlink:href="#p" />
<use x="468" y="228" xlink:href="#p" />
<use x="24" y="240" xlink:href="#p" />
<use x="36" y="240" xlink:href="#p" />
<use x="72" y="240" xlink:href="#p" />
<use x="96" y="240" xlink:href="#p" />
<use x="108" y="240" xlink:href="#p" />
<use x="132" y="240" xlink:href="#p" />
<use x="168" y="240" xlink:href="#p" />
<use x="180" y="240" xlink:href="#p" />
<use x="192" y="240" xlink:href="#p" />
<use x="228" y="240" xlink:href="#p" />
<use x="264" y="240" xlink:href="#p" />
<use x="312" y="240" xlink:href="#p" />
<use x="336" y="240" xlink:href="#p" />
<use x="348" y="240" xlink:href="#p" />
<use x="360" y="240" xlink:href="#p" />
<use x="372" y="240" xlink:href="#p" />
<use x="396" y="240" xlink:href="#p" />
<use x="444" y="240" xlink:href="#p" />
<use x="492" y="240" xlink:href="#p" />
<use x="12" y="252" xlink:href="#p" />
<use x="24" y="252" xlink:href="#p" />
<use x="36" y="252" xlink:href="#p" />
<use x="60" y="252" xlink:href="#p" />
<use x="84" y="252" xlink:href="#p" />
<use x="96" y="252" xlink:href="#p" />
<use x="120" y="252" xlink:href="#p" />
<use x="156" y="252" xlink:href="#p" />
<use x="180" y="252" xlink:href="#p" />
<use x="204" y="252" xlink:href="#p" />
<use x="216" y="252" xlink:href="#p" />
<use x="228" y="252" xlink:href="#p" />
<use x="264" y="252" xlink:href="#p" />
<use x="276" y="252" xlink:href="#p" />
<use x="300" y="252" xlink:href="#p" />
<use x="312" y="252" xlink:href="#p" />
<use x="324" y="252" xlink:href="#p" />
<use x="336" y="252" xlink:href="#p" />
<use x="372" y="252" xlink:href="#p" />
<use x="384" y="252" xlink:href="#p" />
<use x="396" y="252" xlink:href="#p" />
<use x="432" y="252" xlink:href="#p" />
<use x="444" y="252" xlink:href="#p" />
<use x="456" y="252" xlink:href="#p" />
<use x="36" y="264" xlink:href="#p" />
<use x="96" y="264" xlink:href="#p" />
<use x="144" y="264" xlink:href="#p" />
<use x="156" y="264" xlink:href="#p" />
<use x="180" y="264" xlink:href="#p" />
<use x="192" y="264" xlink:href="#p" />
<use x="204" y="264" xlink:href="#p" />
<use x="216" y="264" xlink:href="#p" />
<use x="228" y="264" xlink:href="#p" />
<use x="264" y="264" xlink:href="#p" />
<use x="276" y="264" xlink:href="#p" />
<use x="300" y="264" xlink:href="#p" />
<use x="360" y="264" xlink:href="#p" />
<use x="396" y="264" xlink:href="#p" />
<use x="432" y="264" xlink:href="#p" />
<use x="468" y="264" xlink:href="#p" />
<use x="492" y="264" xlink:href="#p" />
<use x="24" y="276" xlink:href="#p" />
<use x="36" y="276" xlink:href="#p" />
<use x="60" y="276" xlink:href="#p" />
<use x="84" y="276" xlink:href="#p" />
<use x="120" y="276" xlink:href="#p" />
<use x="132" y="276" xlink:href="#p" />
<use x="144" y="276" xlink:href="#p" />
<use x="156" y="276" xlink:href="#p" />
<use x="180" y="276" xlink:href="#p" />
<use x="192" y="276" xlink:href="#p" />
<use x="204" y="276" xlink:href="#p" />
<use x="240" y="276" xlink:href="#p" />
<use x="324" y="276" xlink:href="#p" />
<use x="408" y="276" xlink:href="#p" />
<use x="420" y="276" xlink:href="#p" />
<use x="432" y="276" xlink:href="#p" />
<use x="444" y="276" xlink:href="#p" />
<use x="456" y="276" xlink:href="#p" />
<use x="468" y="276" xlink:href="#p" />
<use x="480" y="276" xlink:href="#p" />
<use x="492" y="276" xlink:href="#p" />
<use x="24" y="288" xlink:href="#p" />
<use x="48" y="288" xlink:href="#p" />
<use x="60" y="288" xlink:href="#p" />
<use x="96" y="288" xlink:href="#p" />
<use x="120" y="288" xlink:href="#p" />
<use x="156" y="288" xlink:href="#p" />
<use x="180" y="288" xlink:href="#p" />
<use x="204" y="288" xlink:href="#p" />
<use x="216" y="288" xlink:href="#p" />
<use x="240" y="288" xlink:href="#p" />
<use x="252" y="288" xlink:href="#p" />
<use x="264" y="288" xlink:href="#p" />
<use x="312" y="288" xlink:href="#p" />
<use x="324" y="288" xlink:href="#p" />
<use x="336" y="288" xlink:href="#p" />
<use x="348" y="288" xlink:href="#p" />
<use x="360" y="288" xlink:href="#p" />
<use x="372" y="288" xlink:href="#p" />
<use x="396" y="288" xlink:href="#p" />
<use x="432" y="288" xlink:href="#p" />
<use x="444" y="288" xlink:href="#p" />
<use x="456" y="288" xlink:href="#p" />
<use x="480" y="288" xlink:href="#p" />
<use x="12" y="300" xlink:href="#p" />
<use x="48" y="300" xlink:href="#p" />
<use x="72" y="300" xlink:href="#p" />
<use x="84" y="300" xlink:href="#p" />
<use x="96" y="300" xlink:href="#p" />
<use x="120" y="300" xlink:href="#p" />
<use x="132" y="300" xlink:href="#p" />
<use x="144" y="300" xlink:href="#p" />
<use x="156" y="300" xlink:href="#p" />
<use x="192" y="300" xlink:href="#p" />
<use x="204" y="300" xlink:href="#p" />
<use x="216" y="300" xlink:href="#p" />
<use x="240" y="300" xlink:href="#p" />
<use x="252" y="300" xlink:href="#p" />
<use x="264" y="300" xlink:href="#p" />
<use x="312" y="300" xlink:href="#p" />
<use x="348" y="300" xlink:href="#p" />
<use x="360" y="300" xlink:href="#p" />
<use x="396" y="300" xlink:href="#p" />
<use x="408" y="300" xlink:href="#p" />
<use x="420" y="300" xlink:href="#p" />
<use x="456" y="300" xlink:href="#p" />
<use x="468" y="300" xlink:href="#p" />
<use x="12" y="312" xlink:href="#p" />
<use x="24" y="312" xlink:href="#p" />
<use x="36" y="312" xlink:href="#p" />
<use x="60" y="312" xlink:href="#p" />
<use x="96" y="312" xlink:href="#p" />
<use x="120" y="312" xlink:href="#p" />
<use x="132" y="312" xlink:href="#p" />
<use x="144" y="312" xlink:href="#p" />
<use x="228" y="312" xlink:href="#p" />
<use x="252" y="312" xlink:href="#p" />
<use x="264" y="312" xlink:href="#p" />
<use x="300" y="312" xlink:href="#p" />
<use x="312" y="312" xlink:href="#p" />
<use x="324" y="312" xlink:href="#p" />
<use x="348" y="312" xlink:href="#p" />
<use x="360" y="312" xlink:href="#p" />
<use x="396" y="312" xlink:href="#p" />
<use x="408" y="312" xlink:href="#p" />
<use x="420" y="312" xlink:href="#p" />
<use x="456" y="312" xlink:href="#p" />
<use x="12" y="324" xlink:href="#p" />
<use x="36" y="324" xlink:href="#p" />
<use x="84" y="324" xlink:href="#p" />
<use x="108" y="324" xlink:href="#p" />
<use x="120" y="324" xlink:href="#p" />
<use x="168" y="324" xlink:href="#p" />
<use x="360" y="324" xlink:href="#p" />
<use x="372" y="324" xlink:href="#p" />
<use x="432" y="324" xlink:href="#p" />
<use x="456" y="324" xlink:href="#p" />
<use x="480" y="324" xlink:href="#p" />
<use x="492" y="324" xlink:href="#p" />
<use x="24" y="336" xlink:href="#p" />
<use x="36" y="336" xlink:href="#p" />
<use x="60" y="336" xlink:href="#p" />
<use x="72" y="336" xlink:href="#p" />
<use x="96" y="336" xlink:href="#p" />
<use x="120" y="336" xlink:href="#p" />
<use x="144" y="336" xlink:href="#p" />
<use x="156" y="336" xlink:href="#p" />
<use x="192" y="336" xlink:href="#p" />
<use x="204" y="336" xlink:href="#p" />
<use x="228" y="336" xlink:href="#p" />
<use x="240" y="336" xlink:href="#p" />
<use x="300" y="336" xlink:href="#p" />
<use x="348" y="336" xlink:href="#p" />
<use x="360" y="336" xlink:href="#p" />
<use x="372" y="336" xlink:href="#p" />
<use x="384" y="336" xlink:href="#p" />
<use x="408" y="336" xlink:href="#p" />
<use x="444" y="336" xlink:href="#p" />
<use x="456" y="336" xlink:href="#p" />
<use x="480" y="336" xlink:href="#p" />
<use x="492" y="336" xlink:href="#p" />
<use x="36" y="348" xlink:href="#p" />
<use x="48" y="348" xlink:href="#p" />
<use x="84" y="348" xlink:href="#p" />
<use x="96" y="348" xlink:href="#p" />
<use x="108" y="348" xlink:href="#p" />
<use x="120" y="348" xlink:href="#p" />
<use x="192" y="348" xlink:href="#p" />
<use x="204" y="348" xlink:href="#p" />
<use x="216" y="348" xlink:href="#p" />
<use x="228" y="348" xlink:href="#p" />
<use x="252" y="348" xlink:href="#p" />
<use x="276" y="348" xlink:href="#p" />
<use x="288" y="348" xlink:href="#p" />
<use x="300" y="348" xlink:href="#p" />
<use x="324" y="348" xlink:href="#p" />
<use x="336" y="348" xlink:href="#p" />
<use x="360" y="348" xlink:href="#p" />
<use x="372" y="348" xlink:href="#p" />
<use x="384" y="348" xlink:href="#p" />
<use x="396" y="348" xlink:href="#p" />
<use x="432" y="348" xlink:href="#p" />
<use x="444" y="348" xlink:href="#p" />
<use x="456" y="348" xlink:href="#p" />
<use x="24" y="360" xlink:href="#p" />
<use x="48" y="360" xlink:href="#p" />
<use x="72" y="360" xlink:href="#p" />
<use x="96" y="360" xlink:href="#p" />
<use x="108" y="360" xlink:href="#p" />
<use x="144" y="360" xlink:href="#p" />
<use x="192" y="360" xlink:href="#p" />
<use x="228" y="360" xlink:href="#p" />
<use x="240" y="360" xlink:href="#p" />
<use x="264" y="360" xlink:href="#p" />
<use x="276" y="360" xlink:href="#p" />
<use x="288" y="360" xlink:href="#p" />
<use x="312" y="360" xlink:href="#p" />
<use x="324" y="360" xlink:href="#p" />
<use x="336" y="360" xlink:href="#p" />
<use x="360" y="360" xlink:href="#p" />
<use x="372" y="360" xlink:href="#p" />
<use x="384" y="360" xlink:href="#p" />
<use x="396" y="360" xlink:href="#p" />
<use x="408" y="360" xlink:href="#p" />
<use x="444" y="360" xlink:href="#p" />
<use x="456" y="360" xlink:href="#p" />
<use x="468" y="360" xlink:href="#p" />
<use x="480" y="360" xlink:href="#p" />
<use x="492" y="360" xlink:href="#p" />
<use x="12" y="372" xlink:href="#p" />
<use x="84" y="372" xlink:href="#p" />
<use x="96" y="372" xlink:href="#p" />
<use x="132" y="372" xlink:href="#p" />
<use x="168" y="372" xlink:href="#p" />
<use x="180" y="372" xlink:href="#p" />
<use x="204" y="372" xlink:href="#p" />
<use x="228" y="372" xlink:href="#p" />
<use x="240" y="372" xlink:href="#p" />
<use x="300" y="372" xlink:href="#p" />
<use x="348" y="372" xlink:href="#p" />
<use x="384" y="372" xlink:href="#p" />
<use x="396" y="372" xlink:href="#p" />
<use x="420" y="372" xlink:href="#p" />
<use x="432" y="372" xlink:href="#p" />
<use x="456" y="372" xlink:href="#p" />
<use x="468" y="372" xlink:href="#p" />
<use x="480" y="372" xlink:href="#p" />
<use x="492" y="372" xlink:href="#p" />
<use x="24" y="384" xlink:href="#p" />
<use x="48" y="384" xlink:href="#p" />
<use x="72" y="384" xlink:href="#p" />
<use x="96" y="384" xlink:href="#p" />
<use x="108" y="384" xlink:href="#p" />
<use x="120" y="384" xlink:href="#p" />
<use x="144" y="384" xlink:href="#p" />
<use x="192" y="384" xlink:href="#p" />
<use x="204" y="384" xlink:href="#p" />
<use x="216" y="384" xlink:href="#p" />
<use x="228" y="384" xlink:href="#p" />
<use x="240" y="384" xlink:href="#p" />
<use x="252" y="384" xlink:href="#p" />
<use x="264" y="384" xlink:href="#p" />
<use x="276" y="384" xlink:href="#p" />
<use x="312" y="384" xlink:href="#p" />
<use x="348" y="384" xlink:href="#p" />
<use x="360" y="384" xlink:href="#p" />
<use x="372" y="384" xlink:href="#p" />
<use x="384" y="384" xlink:href="#p" />
<use x="396" y="384" xlink:href="#p" />
<use x="420" y="384" xlink:href="#p" />
<use x="432" y="384" xlink:href="#p" />
<use x="444" y="384" xlink:href="#p" />
<use x="492" y="384" xlink:href="#p" />
<use x="12" y="396" xlink:href="#p" />
<use x="48" y="396" xlink:href="#p" />
<use x="60" y="396" xlink:href="#p" />
<use x="84" y="396" xlink:href="#p" />
<use x="96" y="396" xlink:href="#p" />
<use x="120" y="396" xlink:href="#p" />
<use x="156" y="396" xlink:href="#p" />
<use x="180" y="396" xlink:href="#p" />
<use x="252" y="396" xlink:href="#p" />
<use x="264" y="396" xlink:href="#p" />
<use x="300" y="396" xlink:href="#p" />
<use x="312" y="396" xlink:href="#p" />
<use x="348" y="396" xlink:href="#p" />
<use x="360" y="396" xlink:href="#p" />
<use x="372" y="396" xlink:href="#p" />
<use x="384" y="396" xlink:href="#p" />
<use x="396" y="396" xlink:href="#p" />
<use x="408" y="396" xlink:href="#p" />
<use x="420" y="396" xlink:href="#p" />
<use x="432" y="396" xlink:href="#p" />
<use x="444" y="396" xlink:href="#p" />
<use x="456" y="396" xlink:href="#p" />
<use x="468" y="396" xlink:href="#p" />
<use x="480" y="396" xlink:href="#p" />
<use x="492" y="396" xlink:href="#p" />
<use x="108" y="408" xlink:href="#p" />
<use x="144" y="408" xlink:href="#p" />
<use x="168" y="408" xlink:href="#p" />
<use x="216" y="408" xlink:href="#p" />
<use x="252" y="408" xlink:href="#p" />
<use x="276" y="408" xlink:href="#p" />
<use x="312" y="408" xlink:href="#p" />
<use x="348" y="408" xlink:href="#p" />
<use x="360" y="408" xlink:href="#p" />
<use x="384" y="408" xlink:href="#p" />
<use x="396" y="408" xlink:href="#p" />
<use x="444" y="408" xlink:href="#p" />
<use x="456" y="408" xlink:href="#p" />
<use x="468" y="408" xlink:href="#p" />
<use x="12" y="420" xlink:href="#p" />
<use x="24" y="420" xlink:href="#p" />
<use x="36" y="420" xlink:href="#p" />
<use x="48" y="420" xlink:href="#p" />
<use x="60" y="420" xlink:href="#p" />
<use x="72" y="420" xlink:href="#p" />
<use x="84" y="420" xlink:href="#p" />
<use x="108" y="420" xlink:href="#p" />
<use x="156" y="420" xlink:href="#p" />
<use x="180" y="420" xlink:href="#p" />
<use x="276" y="420" xlink:href="#p" />
<use x="300" y="420" xlink:href="#p" />
<use x="312" y="420" xlink:href="#p" />
<use x="384" y="420" xlink:href="#p" />
<use x="396" y="420" xlink:href="#p" />
<use x="420" y="420" xlink:href="#p" />
<use x="444" y="420" xlink:href="#p" />
<use x="12" y="432" xlink:href="#p" />
<use x="84" y="432" xlink:href="#p" />
<use x="108" y="432" xlink:href="#p" />
<use x="120" y="432" xlink:href="#p" />
<use x="144" y="432" xlink:href="#p" />
<use x="168" y="432" xlink:href="#p" />
<use x="180" y="432" xlink:href="#p" />
<use x="204" y="432" xlink:href="#p" />
<use x="252" y="432" xlink:href="#p" />
<use x="276" y="432" xlink:href="#p" />
<use x="288" y="432" xlink:href="#p" />
<use x="300" y="432" xlink:href="#p" />
<use x="312" y="432" xlink:href="#p" />
<use x="360" y="432" xlink:href="#p" />
<use x="396" y="432" xlink:href="#p" />
<use x="444" y="432" xlink:href="#p" />
<use x="456" y="432" xlink:href="#p" />
<use x="12" y="444" xlink:href="#p" />
<use x="36" y="444" xlink:href="#p" />
<use x="48" y="444" xlink:href="#p" />
<use x="60" y="444" xlink:href="#p" />
<use x="84" y="444" xlink:href="#p" />
<use x="108" y="444" xlink:href="#p" />
<use x="156" y="444" xlink:href="#p" />
<use x="180" y="444" xlink:href="#p" />
<use x="192" y="444" xlink:href="#p" />
<use x="204" y="444" xlink:href="#p" />
<use x="216" y="444" xlink:href="#p" />
<use x="240" y="444" xlink:href="#p" />
<use x="312" y="444" xlink:href="#p" />
<use x="396" y="444" xlink:href="#p" />
<use x="408" y="444" xlink:href="#p" />
<use x="420" y="444" xlink:href="#p" />
<use x="432" y="444" xlink:href="#p" />
<use x="444" y="444" xlink:href="#p" />
<use x="12" y="456" xlink:href="#p" />
<use x="36" y="456" xlink:href="#p" />
<use x="48" y="456" xlink:href="#p" />
<use x="60" y="456" xlink:href="#p" />
<use x="84" y="456" xlink:href="#p" />
<use x="132" y="456" xlink:href="#p" />
<use x="144" y="456" xlink:href="#p" />
<use x="156" y="456" xlink:href="#p" />
<use x="180" y="456" xlink:href="#p" />
<use x="192" y="456" xlink:href="#p" />
<use x="204" y="456" xlink:href="#p" />
<use x="228" y="456" xlink:href="#p" />
<use x="240" y="456" xlink:href="#p" />
<use x="264" y="456" xlink:href="#p" />
<use x="300" y="456" xlink:href="#p" />
<use x="312" y="456" xlink:href="#p" />
<use x="336" y="456" xlink:href="#p" />
<use x="348" y="456" xlink:href="#p" />
<use x="372" y="456" xlink:href="#p" />
<use x="396" y="456" xlink:href="#p" />
<use x="432" y="456" xlink:href="#p" />
<use x="444" y="456" xlink:href="#p" />
<use x="456" y="456" xlink:href="#p" />
<use x="492" y="456" xlink:href="#p" />
<use x="12" y="468" xlink:href="#p" />
<use x="36" y="468" xlink:href="#p" />
<use x="48" y="468" xlink:href="#p" />
<use x="60" y="468" xlink:href="#p" />
<use x="84" y="468" xlink:href="#p" />
<use x="108" y="468" xlink:href="#p" />
<use x="144" y="468" xlink:href="#p" />
<use x="156" y="468" xlink:href="#p" />
<use x="192" y="468" xlink:href="#p" />
<use x="204" y="468" xlink:href="#p" />
<use x="216" y="468" xlink:href="#p" />
<use x="240" y="468" xlink:href="#p" />
<use x="264" y="468" xlink:href="#p" />
<use x="276" y="468" xlink:href="#p" />
<use x="360" y="468" xlink:href="#p" />
<use x="444" y="468" xlink:href="#p" />
<use x="468" y="468" xlink:href="#p" />
<use x="492" y="468" xlink:href="#p" />
<use x="12" y="480" xlink:href="#p" />
<use x="84" y="480" xlink:href="#p" />
<use x="108" y="480" xlink:href="#p" />
<use x="120" y="480" xlink:href="#p" />
<use x="156" y="480" xlink:href="#p" />
<use x="180" y="480" xlink:href="#p" />
<use x="192" y="480" xlink:href="#p" />
<use x="204" y="480" xlink:href="#p" />
<use x="216" y="480" xlink:href="#p" />
<use x="240" y="480" xlink:href="#p" />
<use x="252" y="480" xlink:href="#p" />
<use x="264" y="480" xlink:href="#p" />
<use x="300" y="480" xlink:href="#p" />
<use x="312" y="480" xlink:href="#p" />
<use x="324" y="480" xlink:href="#p" />
<use x="336" y="480" xlink:href="#p" />
<use x="348" y="480" xlink:href="#p" />
<use x="360" y="480" xlink:href="#p" />
<use x="384" y="480" xlink:href="#p" />
<use x="408" y="480" xlink:href="#p" />
<use x="420" y="480" xlink:href="#p" />
<use x="444" y="480" xlink:href="#p" />
<use x="468" y="480" xlink:href="#p" />
<use x="480" y="480" xlink:href="#p" />
<use x="12" y="492" xlink:href="#p" />
<use x="24" y="492" xlink:href="#p" />
<use x="36" y="492" xlink:href="#p" />
<use x="48" y="492" xlink:href="#p" />
<use x="60" y="492" xlink:href="#p" />
<use x="72" y="492" xlink:href="#p" />
<use x="84" y="492" xlink:href="#p" />
<use x="108" y="492" xlink:href="#p" />
<use x="120" y="492" xlink:href="#p" />
<use x="144" y="492" xlink:href="#p" />
<use x="156" y="492" xlink:href="#p" />
<use x="204" y="492" xlink:href="#p" />
<use x="216" y="492" xlink:href="#p" />
<use x="240" y="492" xlink:href="#p" />
<use x="264" y="492" xlink:href="#p" />
<use x="276" y="492" xlink:href="#p" />
<use x="300" y="492" xlink:href="#p" />
<use x="312" y="492" xlink:href="#p" />
<use x="348" y="492" xlink:href="#p" />
<use x="360" y="492" xlink:href="#p" />
<use x="396" y="492" xlink:href="#p" />
<use x="420" y="492" xlink:href="#p" />
<use x="432" y="492" xlink:href="#p" />
<use x="456" y="492" xlink:href="#p" />
<use x="468" y="492" xlink:href="#p" />
<use x="480" y="492" xlink:href="#p" />
<use x="492" y="492" xlink:href="#p" />
</g>
</svg>
