<svg width="420" height="420" viewBox="0 0 420 420" fill="none" xmlns="http://www.w3.org/2000/svg">
<path d="M420 0H0V420H420V0Z" fill="white"/>
<path d="M24 12H12V24H24V12Z" fill="black"/>
<path d="M36 12H24V24H36V12Z" fill="black"/>
<path d="M48 12H36V24H48V12Z" fill="black"/>
<path d="M60 12H48V24H60V12Z" fill="black"/>
<path d="M72 12H60V24H72V12Z" fill="black"/>
<path d="M84 12H72V24H84V12Z" fill="black"/>
<path d="M96 12H84V24H96V12Z" fill="black"/>
<path d="M120 12H108V24H120V12Z" fill="black"/>
<path d="M132 12H120V24H132V12Z" fill="black"/>
<path d="M168 12H156V24H168V12Z" fill="black"/>
<path d="M180 12H168V24H180V12Z" fill="black"/>
<path d="M192 12H180V24H192V12Z" fill="black"/>
<path d="M204 12H192V24H204V12Z" fill="black"/>
<path d="M228 12H216V24H228V12Z" fill="black"/>
<path d="M288 12H276V24H288V12Z" fill="black"/>
<path d="M300 12H288V24H300V12Z" fill="black"/>
<path d="M312 12H300V24H312V12Z" fill="black"/>
<path d="M336 12H324V24H336V12Z" fill="black"/>
<path d="M348 12H336V24H348V12Z" fill="black"/>
<path d="M360 12H348V24H360V12Z" fill="black"/>
<path d="M372 12H360V24H372V12Z" fill="black"/>
<path d="M384 12H372V24H384V12Z" fill="black"/>
<path d="M396 12H384V24H396V12Z" fill="black"/>
<path d="M408 12H396V24H408V12Z" fill="black"/>
<path d="M24 24H12V36H24V24Z" fill="black"/>
<path d="M96 24H84V36H96V24Z" fill="black"/>
<path d="M144 24H132V36H144V24Z" fill="black"/>
<path d="M156 24H144V36H156V24Z" fill="black"/>
<path d="M180 24H168V36H180V24Z" fill="black"/>
<path d="M204 24H192V36H204V24Z" fill="black"/>
<path d="M216 24H204V36H216V24Z" fill="black"/>
<path d="M240 24H228V36H240V24Z" fill="black"/>
<path d="M300 24H288V36H300V24Z" fill="black"/>
<path d="M336 24H324V36H336V24Z" fill="black"/>
<path d="M408 24H396V36H408V24Z" fill="black"/>
<path d="M24 36H12V48H24V36Z" fill="black"/>
<path d="M48 36H36V48H48V36Z" fill="black"/>
<path d="M60 36H48V48H60V36Z" fill="black"/>
<path d="M72 36H60V48H72V36Z" fill="black"/>
<path d="M96 36H84V48H96V36Z" fill="black"/>
<path d="M132 36H120V48H132V36Z" fill="black"/>
<path d="M144 36H132V48H144V36Z" fill="black"/>
<path d="M156 36H144V48H156V36Z" fill="black"/>
<path d="M168 36H156V48H168V36Z" fill="black"/>
<path d="M192 36H180V48H192V36Z" fill="black"/>
<path d="M216 36H204V48H216V36Z" fill="black"/>
<path d="M240 36H228V48H240V36Z" fill="black"/>
<path d="M300 36H288V48H300V36Z" fill="black"/>
<path d="M312 36H300V48H312V36Z" fill="black"/>
<path d="M336 36H324V48H336V36Z" fill="black"/>
<path d="M360 36H348V48H360V36Z" fill="black"/>
<path d="M372 36H360V48H372V36Z" fill="black"/>
<path d="M384 36H372V48H384V36Z" fill="black"/>
<path d="M408 36H396V48H408V36Z" fill="black"/>
<path d="M24 48H12V60H24V48Z" fill="black"/>
<path d="M48 48H36V60H48V48Z" fill="black"/>
<path d="M60 48H48V60H60V48Z" fill="black"/>
<path d="M72 48H60V60H72V48Z" fill="black"/>
<path d="M96 48H84V60H96V48Z" fill="black"/>
<path d="M120 48H108V60H120V48Z" fill="black"/>
<path d="M156 48H144V60H156V48Z" fill="black"/>
<path d="M168 48H156V60H168V48Z" fill="black"/>
<path d="M192 48H180V60H192V48Z" fill="black"/>
<path d="M204 48H192V60H204V48Z" fill="black"/>
<path d="M216 48H204V60H216V48Z" fill="black"/>
<path d="M252 48H240V60H252V48Z" fill="black"/>
<path d="M288 48H276V60H288V48Z" fill="black"/>
<path d="M312 48H300V60H312V48Z" fill="black"/>
<path d="M336 48H324V60H336V48Z" fill="black"/>
<path d="M360 48H348V60H360V48Z" fill="black"/>
<path d="M372 48H360V60H372V48Z" fill="black"/>
<path d="M384 48H372V60H384V48Z" fill="black"/>
<path d="M408 48H396V60H408V48Z" fill="black"/>
<path d="M24 60H12V72H24V60Z" fill="black"/>
<path d="M48 60H36V72H48V60Z" fill="black"/>
<path d="M60 60H48V72H60V60Z" fill="black"/>
<path d="M72 60H60V72H72V60Z" fill="black"/>
<path d="M96 60H84V72H96V60Z" fill="black"/>
<path d="M144 60H132V72H144V60Z" fill="black"/>
<path d="M192 60H180V72H192V60Z" fill="black"/>
<path d="M228 60H216V72H228V60Z" fill="black"/>
<path d="M240 60H228V72H240V60Z" fill="black"/>
<path d="M252 60H240V72H252V60Z" fill="black"/>
<path d="M264 60H252V72H264V60Z" fill="black"/>
<path d="M276 60H264V72H276V60Z" fill="black"/>
<path d="M288 60H276V72H288V60Z" fill="black"/>
<path d="M312 60H300V72H312V60Z" fill="black"/>
<path d="M336 60H324V72H336V60Z" fill="black"/>
<path d="M360 60H348V72H360V60Z" fill="black"/>
<path d="M372 60H360V72H372V60Z" fill="black"/>
<path d="M384 60H372V72H384V60Z" fill="black"/>
<path d="M408 60H396V72H408V60Z" fill="black"/>
<path d="M24 72H12V84H24V72Z" fill="black"/>
<path d="M96 72H84V84H96V72Z" fill="black"/>
<path d="M132 72H120V84H132V72Z" fill="black"/>
<path d="M144 72H132V84H144V72Z" fill="black"/>
<path d="M156 72H144V84H156V72Z" fill="black"/>
<path d="M168 72H156V84H168V72Z" fill="black"/>
<path d="M180 72H168V84H180V72Z" fill="black"/>
<path d="M216 72H204V84H216V72Z" fill="black"/>
<path d="M288 72H276V84H288V72Z" fill="black"/>
<path d="M300 72H288V84H300V72Z" fill="black"/>
<path d="M312 72H300V84H312V72Z" fill="black"/>
<path d="M336 72H324V84H336V72Z" fill="black"/>
<path d="M408 72H396V84H408V72Z" fill="black"/>
<path d="M24 84H12V96H24V84Z" fill="black"/>
<path d="M36 84H24V96H36V84Z" fill="black"/>
<path d="M48 84H36V96H48V84Z" fill="black"/>
<path d="M60 84H48V96H60V84Z" fill="black"/>
<path d="M72 84H60V96H72V84Z" fill="black"/>
<path d="M84 84H72V96H84V84Z" fill="black"/>
<path d="M96 84H84V96H96V84Z" fill="black"/>
<path d="M120 84H108V96H120V84Z" fill="black"/>
<path d="M144 84H132V96H144V84Z" fill="black"/>
<path d="M168 84H156V96H168V84Z" fill="black"/>
<path d="M192 84H180V96H192V84Z" fill="black"/>
<path d="M216 84H204V96H216V84Z" fill="black"/>
<path d="M240 84H228V96H240V84Z" fill="black"/>
<path d="M264 84H252V96H264V84Z" fill="black"/>
<path d="M288 84H276V96H288V84Z" fill="black"/>
<path d="M312 84H300V96H312V84Z" fill="black"/>
<path d="M336 84H324V96H336V84Z" fill="black"/>
<path d="M348 84H336V96H348V84Z" fill="black"/>
<path d="M360 84H348V96H360V84Z" fill="black"/>
<path d="M372 84H360V96H372V84Z" fill="black"/>
<path d="M384 84H372V96H384V84Z" fill="black"/>
<path d="M396 84H384V96H396V84Z" fill="black"/>
<path d="M408 84H396V96H408V84Z" fill="black"/>
<path d="M132 96H120V108H132V96Z" fill="black"/>
<path d="M144 96H132V108H144V96Z" fill="black"/>
<path d="M168 96H156V108H168V96Z" fill="black"/>
<path d="M180 96H168V108H180V96Z" fill="black"/>
<path d="M192 96H180V108H192V96Z" fill="black"/>
<path d="M204 96H192V108H204V96Z" fill="black"/>
<path d="M240 96H228V108H240V96Z" fill="black"/>
<path d="M264 96H252V108H264V96Z" fill="black"/>
<path d="M276 96H264V108H276V96Z" fill="black"/>
<path d="M300 96H288V108H300V96Z" fill="black"/>
<path d="M48 108H36V120H48V108Z" fill="black"/>
<path d="M72 108H60V120H72V108Z" fill="black"/>
<path d="M84 108H72V120H84V108Z" fill="black"/>
<path d="M96 108H84V120H96V108Z" fill="black"/>
<path d="M120 108H108V120H120V108Z" fill="black"/>
<path d="M132 108H120V120H132V108Z" fill="black"/>
<path d="M156 108H144V120H156V108Z" fill="black"/>
<path d="M204 108H192V120H204V108Z" fill="black"/>
<path d="M228 108H216V120H228V108Z" fill="black"/>
<path d="M264 108H252V120H264V108Z" fill="black"/>
<path d="M312 108H300V120H312V108Z" fill="black"/>
<path d="M324 108H312V120H324V108Z" fill="black"/>
<path d="M372 108H360V120H372V108Z" fill="black"/>
<path d="M408 108H396V120H408V108Z" fill="black"/>
<path d="M24 120H12V132H24V120Z" fill="black"/>
<path d="M36 120H24V132H36V120Z" fill="black"/>
<path d="M48 120H36V132H48V120Z" fill="black"/>
<path d="M60 120H48V132H60V120Z" fill="black"/>
<path d="M72 120H60V132H72V120Z" fill="black"/>
<path d="M108 120H96V132H108V120Z" fill="black"/>
<path d="M132 120H120V132H132V120Z" fill="black"/>
<path d="M144 120H132V132H144V120Z" fill="black"/>
<path d="M192 120H180V132H192V120Z" fill="black"/>
<path d="M228 120H216V132H228V120Z" fill="black"/>
<path d="M240 120H228V132H240V120Z" fill="black"/>
<path d="M252 120H240V132H252V120Z" fill="black"/>
<path d="M312 120H300V132H312V120Z" fill="black"/>
<path d="M336 120H324V132H336V120Z" fill="black"/>
<path d="M372 120H360V132H372V120Z" fill="black"/>
<path d="M396 120H384V132H396V120Z" fill="black"/>
<path d="M408 120H396V132H408V120Z" fill="black"/>
<path d="M24 132H12V144H24V132Z" fill="black"/>
<path d="M48 132H36V144H48V132Z" fill="black"/>
<path d="M72 132H60V144H72V132Z" fill="black"/>
<path d="M96 132H84V144H96V132Z" fill="black"/>
<path d="M108 132H96V144H108V132Z" fill="black"/>
<path d="M156 132H144V144H156V132Z" fill="black"/>
<path d="M276 132H264V144H276V132Z" fill="black"/>
<path d="M336 132H324V144H336V132Z" fill="black"/>
<path d="M360 132H348V144H360V132Z" fill="black"/>
<path d="M372 132H360V144H372V132Z" fill="black"/>
<path d="M408 132H396V144H408V132Z" fill="black"/>
<path d="M60 144H48V156H60V144Z" fill="black"/>
<path d="M72 144H60V156H72V144Z" fill="black"/>
<path d="M144 144H132V156H144V144Z" fill="black"/>
<path d="M180 144H168V156H180V144Z" fill="black"/>
<path d="M216 144H204V156H216V144Z" fill="black"/>
<path d="M228 144H216V156H228V144Z" fill="black"/>
<path d="M264 144H252V156H264V144Z" fill="black"/>
<path d="M312 144H300V156H312V144Z" fill="black"/>
<path d="M324 144H312V156H324V144Z" fill="black"/>
<path d="M336 144H324V156H336V144Z" fill="black"/>
<path d="M372 144H360V156H372V144Z" fill="black"/>
<path d="M408 144H396V156H408V144Z" fill="black"/>
<path d="M24 156H12V168H24V156Z" fill="black"/>
<path d="M36 156H24V168H36V156Z" fill="black"/>
<path d="M48 156H36V168H48V156Z" fill="black"/>
<path d="M84 156H72V168H84V156Z" fill="black"/>
<path d="M96 156H84V168H96V156Z" fill="black"/>
<path d="M108 156H96V168H108V156Z" fill="black"/>
<path d="M132 156H120V168H132V156Z" fill="black"/>
<path d="M144 156H132V168H144V156Z" fill="black"/>
<path d="M180 156H168V168H180V156Z" fill="black"/>
<path d="M192 156H180V168H192V156Z" fill="black"/>
<path d="M204 156H192V168H204V156Z" fill="black"/>
<path d="M240 156H228V168H240V156Z" fill="black"/>
<path d="M252 156H240V168H252V156Z" fill="black"/>
<path d="M312 156H300V168H312V156Z" fill="black"/>
<path d="M324 156H312V168H324V156Z" fill="black"/>
<path d="M336 156H324V168H336V156Z" fill="black"/>
<path d="M360 156H348V168H360V156Z" fill="black"/>
<path d="M396 156H384V168H396V156Z" fill="black"/>
<path d="M408 156H396V168H408V156Z" fill="black"/>
<path d="M36 168H24V180H36V168Z" fill="black"/>
<path d="M60 168H48V180H60V168Z" fill="black"/>
<path d="M84 168H72V180H84V168Z" fill="black"/>
<path d="M132 168H120V180H132V168Z" fill="black"/>
<path d="M180 168H168V180H180V168Z" fill="black"/>
<path d="M192 168H180V180H192V168Z" fill="black"/>
<path d="M240 168H228V180H240V168Z" fill="black"/>
<path d="M264 168H252V180H264V168Z" fill="black"/>
<path d="M312 168H300V180H312V168Z" fill="black"/>
<path d="M324 168H312V180H324V168Z" fill="black"/>
<path d="M336 168H324V180H336V168Z" fill="black"/>
<path d="M360 168H348V180H360V168Z" fill="black"/>
<path d="M384 168H372V180H384V168Z" fill="black"/>
<path d="M396 168H384V180H396V168Z" fill="black"/>
<path d="M408 168H396V180H408V168Z" fill="black"/>
<path d="M36 180H24V192H36V180Z" fill="black"/>
<path d="M72 180H60V192H72V180Z" fill="black"/>
<path d="M96 180H84V192H96V180Z" fill="black"/>
<path d="M108 180H96V192H108V180Z" fill="black"/>
<path d="M120 180H108V192H120V180Z" fill="black"/>
<path d="M144 180H132V192H144V180Z" fill="black"/>
<path d="M156 180H144V192H156V180Z" fill="black"/>
<path d="M168 180H156V192H168V180Z" fill="black"/>
<path d="M180 180H168V192H180V180Z" fill="black"/>
<path d="M204 180H192V192H204V180Z" fill="black"/>
<path d="M252 180H240V192H252V180Z" fill="black"/>
<path d="M276 180H264V192H276V180Z" fill="black"/>
<path d="M312 180H300V192H312V180Z" fill="black"/>
<path d="M324 180H312V192H324V180Z" fill="black"/>
<path d="M336 180H324V192H336V180Z" fill="black"/>
<path d="M396 180H384V192H396V180Z" fill="black"/>
<path d="M408 180H396V192H408V180Z" fill="black"/>
<path d="M24 192H12V204H24V192Z" fill="black"/>
<path d="M36 192H24V204H36V192Z" fill="black"/>
<path d="M60 192H48V204H60V192Z" fill="black"/>
<path d="M72 192H60V204H72V192Z" fill="black"/>
<path d="M84 192H72V204H84V192Z" fill="black"/>
<path d="M108 192H96V204H108V192Z" fill="black"/>
<path d="M132 192H120V204H132V192Z" fill="black"/>
<path d="M144 192H132V204H144V192Z" fill="black"/>
<path d="M156 192H144V204H156V192Z" fill="black"/>
<path d="M168 192H156V204H168V192Z" fill="black"/>
<path d="M192 192H180V204H192V192Z" fill="black"/>
<path d="M228 192H216V204H228V192Z" fill="black"/>
<path d="M276 192H264V204H276V192Z" fill="black"/>
<path d="M288 192H276V204H288V192Z" fill="black"/>
<path d="M312 192H300V204H312V192Z" fill="black"/>
<path d="M324 192H312V204H324V192Z" fill="black"/>
<path d="M336 192H324V204H336V192Z" fill="black"/>
<path d="M360 192H348V204H360V192Z" fill="black"/>
<path d="M384 192H372V204H384V192Z" fill="black"/>
<path d="M396 192H384V204H396V192Z" fill="black"/>
<path d="M408 192H396V204H408V192Z" fill="black"/>
<path d="M24 204H12V216H24V204Z" fill="black"/>
<path d="M36 204H24V216H36V204Z" fill="black"/>
<path d="M48 204H36V216H48V204Z" fill="black"/>
<path d="M60 204H48V216H60V204Z" fill="black"/>
<path d="M96 204H84V216H96V204Z" fill="black"/>
<path d="M144 204H132V216H144V204Z" fill="black"/>
<path d="M156 204H144V216H156V204Z" fill="black"/>
<path d="M168 204H156V216H168V204Z" fill="black"/>
<path d="M180 204H168V216H180V204Z" fill="black"/>
<path d="M204 204H192V216H204V204Z" fill="black"/>
<path d="M228 204H216V216H228V204Z" fill="black"/>
<path d="M240 204H228V216H240V204Z" fill="black"/>
<path d="M252 204H240V216H252V204Z" fill="black"/>
<path d="M264 204H252V216H264V204Z" fill="black"/>
<path d="M276 204H264V216H276V204Z" fill="black"/>
<path d="M288 204H276V216H288V204Z" fill="black"/>
<path d="M300 204H288V216H300V204Z" fill="black"/>
<path d="M324 204H312V216H324V204Z" fill="black"/>
<path d="M336 204H324V216H336V204Z" fill="black"/>
<path d="M348 204H336V216H348V204Z" fill="black"/>
<path d="M360 204H348V216H360V204Z" fill="black"/>
<path d="M384 204H372V216H384V204Z" fill="black"/>
<path d="M36 216H24V228H36V216Z" fill="black"/>
<path d="M60 216H48V228H60V216Z" fill="black"/>
<path d="M84 216H72V228H84V216Z" fill="black"/>
<path d="M108 216H96V228H108V216Z" fill="black"/>
<path d="M120 216H108V228H120V216Z" fill="black"/>
<path d="M132 216H120V228H132V216Z" fill="black"/>
<path d="M144 216H132V228H144V216Z" fill="black"/>
<path d="M156 216H144V228H156V216Z" fill="black"/>
<path d="M216 216H204V228H216V216Z" fill="black"/>
<path d="M228 216H216V228H228V216Z" fill="black"/>
<path d="M240 216H228V228H240V216Z" fill="black"/>
<path d="M264 216H252V228H264V216Z" fill="black"/>
<path d="M324 216H312V228H324V216Z" fill="black"/>
<path d="M336 216H324V228H336V216Z" fill="black"/>
<path d="M372 216H360V228H372V216Z" fill="black"/>
<path d="M384 216H372V228H384V216Z" fill="black"/>
<path d="M396 216H384V228H396V216Z" fill="black"/>
<path d="M60 228H48V240H60V228Z" fill="black"/>
<path d="M96 228H84V240H96V228Z" fill="black"/>
<path d="M120 228H108V240H120V228Z" fill="black"/>
<path d="M144 228H132V240H144V228Z" fill="black"/>
<path d="M156 228H144V240H156V228Z" fill="black"/>
<path d="M180 228H168V240H180V228Z" fill="black"/>
<path d="M204 228H192V240H204V228Z" fill="black"/>
<path d="M216 228H204V240H216V228Z" fill="black"/>
<path d="M228 228H216V240H228V228Z" fill="black"/>
<path d="M252 228H240V240H252V228Z" fill="black"/>
<path d="M264 228H252V240H264V228Z" fill="black"/>
<path d="M276 228H264V240H276V228Z" fill="black"/>
<path d="M336 228H324V240H336V228Z" fill="black"/>
<path d="M348 228H336V240H348V228Z" fill="black"/>
<path d="M360 228H348V240H360V228Z" fill="black"/>
<path d="M384 228H372V240H384V228Z" fill="black"/>
<path d="M408 228H396V240H408V228Z" fill="black"/>
<path d="M36 240H24V252H36V240Z" fill="black"/>
<path d="M48 240H36V252H48V240Z" fill="black"/>
<path d="M108 240H96V252H108V240Z" fill="black"/>
<path d="M132 240H120V252H132V240Z" fill="black"/>
<path d="M144 240H132V252H144V240Z" fill="black"/>
<path d="M156 240H144V252H156V240Z" fill="black"/>
<path d="M180 240H168V252H180V240Z" fill="black"/>
<path d="M204 240H192V252H204V240Z" fill="black"/>
<path d="M216 240H204V252H216V240Z" fill="black"/>
<path d="M228 240H216V252H228V240Z" fill="black"/>
<path d="M252 240H240V252H252V240Z" fill="black"/>
<path d="M264 240H252V252H264V240Z" fill="black"/>
<path d="M276 240H264V252H276V240Z" fill="black"/>
<path d="M348 240H336V252H348V240Z" fill="black"/>
<path d="M24 252H12V264H24V252Z" fill="black"/>
<path d="M36 252H24V264H36V252Z" fill="black"/>
<path d="M72 252H60V264H72V252Z" fill="black"/>
<path d="M84 252H72V264H84V252Z" fill="black"/>
<path d="M96 252H84V264H96V252Z" fill="black"/>
<path d="M108 252H96V264H108V252Z" fill="black"/>
<path d="M132 252H120V264H132V252Z" fill="black"/>
<path d="M156 252H144V264H156V252Z" fill="black"/>
<path d="M180 252H168V264H180V252Z" fill="black"/>
<path d="M204 252H192V264H204V252Z" fill="black"/>
<path d="M228 252H216V264H228V252Z" fill="black"/>
<path d="M264 252H252V264H264V252Z" fill="black"/>
<path d="M276 252H264V264H276V252Z" fill="black"/>
<path d="M288 252H276V264H288V252Z" fill="black"/>
<path d="M312 252H300V264H312V252Z" fill="black"/>
<path d="M336 252H324V264H336V252Z" fill="black"/>
<path d="M348 252H336V264H348V252Z" fill="black"/>
<path d="M372 252H360V264H372V252Z" fill="black"/>
<path d="M396 252H384V264H396V252Z" fill="black"/>
<path d="M408 252H396V264H408V252Z" fill="black"/>
<path d="M36 264H24V276H36V264Z" fill="black"/>
<path d="M48 264H36V276H48V264Z" fill="black"/>
<path d="M60 264H48V276H60V264Z" fill="black"/>
<path d="M132 264H120V276H132V264Z" fill="black"/>
<path d="M156 264H144V276H156V264Z" fill="black"/>
<path d="M204 264H192V276H204V264Z" fill="black"/>
<path d="M216 264H204V276H216V264Z" fill="black"/>
<path d="M252 264H240V276H252V264Z" fill="black"/>
<path d="M264 264H252V276H264V264Z" fill="black"/>
<path d="M300 264H288V276H300V264Z" fill="black"/>
<path d="M312 264H300V276H312V264Z" fill="black"/>
<path d="M384 264H372V276H384V264Z" fill="black"/>
<path d="M408 264H396V276H408V264Z" fill="black"/>
<path d="M24 276H12V288H24V276Z" fill="black"/>
<path d="M48 276H36V288H48V276Z" fill="black"/>
<path d="M96 276H84V288H96V276Z" fill="black"/>
<path d="M132 276H120V288H132V276Z" fill="black"/>
<path d="M144 276H132V288H144V276Z" fill="black"/>
<path d="M168 276H156V288H168V276Z" fill="black"/>
<path d="M216 276H204V288H216V276Z" fill="black"/>
<path d="M228 276H216V288H228V276Z" fill="black"/>
<path d="M276 276H264V288H276V276Z" fill="black"/>
<path d="M288 276H276V288H288V276Z" fill="black"/>
<path d="M300 276H288V288H300V276Z" fill="black"/>
<path d="M312 276H300V288H312V276Z" fill="black"/>
<path d="M336 276H324V288H336V276Z" fill="black"/>
<path d="M348 276H336V288H348V276Z" fill="black"/>
<path d="M360 276H348V288H360V276Z" fill="black"/>
<path d="M396 276H384V288H396V276Z" fill="black"/>
<path d="M408 276H396V288H408V276Z" fill="black"/>
<path d="M36 288H24V300H36V288Z" fill="black"/>
<path d="M48 288H36V300H48V288Z" fill="black"/>
<path d="M72 288H60V300H72V288Z" fill="black"/>
<path d="M84 288H72V300H84V288Z" fill="black"/>
<path d="M108 288H96V300H108V288Z" fill="black"/>
<path d="M120 288H108V300H120V288Z" fill="black"/>
<path d="M132 288H120V300H132V288Z" fill="black"/>
<path d="M156 288H144V300H156V288Z" fill="black"/>
<path d="M180 288H168V300H180V288Z" fill="black"/>
<path d="M192 288H180V300H192V288Z" fill="black"/>
<path d="M216 288H204V300H216V288Z" fill="black"/>
<path d="M240 288H228V300H240V288Z" fill="black"/>
<path d="M252 288H240V300H252V288Z" fill="black"/>
<path d="M276 288H264V300H276V288Z" fill="black"/>
<path d="M312 288H300V300H312V288Z" fill="black"/>
<path d="M324 288H312V300H324V288Z" fill="black"/>
<path d="M408 288H396V300H408V288Z" fill="black"/>
<path d="M24 300H12V312H24V300Z" fill="black"/>
<path d="M60 300H48V312H60V300Z" fill="black"/>
<path d="M84 300H72V312H84V300Z" fill="black"/>
<path d="M96 300H84V312H96V300Z" fill="black"/>
<path d="M168 300H156V312H168V300Z" fill="black"/>
<path d="M228 300H216V312H228V300Z" fill="black"/>
<path d="M240 300H228V312H240V300Z" fill="black"/>
<path d="M264 300H252V312H264V300Z" fill="black"/>
<path d="M276 300H264V312H276V300Z" fill="black"/>
<path d="M288 300H276V312H288V300Z" fill="black"/>
<path d="M300 300H288V312H300V300Z" fill="black"/>
<path d="M312 300H300V312H312V300Z" fill="black"/>
<path d="M324 300H312V312H324V300Z" fill="black"/>
<path d="M336 300H324V312H336V300Z" fill="black"/>
<path d="M348 300H336V312H348V300Z" fill="black"/>
<path d="M360 300H348V312H360V300Z" fill="black"/>
<path d="M372 300H360V312H372V300Z" fill="black"/>
<path d="M396 300H384V312H396V300Z" fill="black"/>
<path d="M120 312H108V324H120V312Z" fill="black"/>
<path d="M132 312H120V324H132V312Z" fill="black"/>
<path d="M144 312H132V324H144V312Z" fill="black"/>
<path d="M168 312H156V324H168V312Z" fill="black"/>
<path d="M192 312H180V324H192V312Z" fill="black"/>
<path d="M204 312H192V324H204V312Z" fill="black"/>
<path d="M216 312H204V324H216V312Z" fill="black"/>
<path d="M228 312H216V324H228V312Z" fill="black"/>
<path d="M264 312H252V324H264V312Z" fill="black"/>
<path d="M276 312H264V324H276V312Z" fill="black"/>
<path d="M288 312H276V324H288V312Z" fill="black"/>
<path d="M312 312H300V324H312V312Z" fill="black"/>
<path d="M360 312H348V324H360V312Z" fill="black"/>
<path d="M384 312H372V324H384V312Z" fill="black"/>
<path d="M408 312H396V324H408V312Z" fill="black"/>
<path d="M24 324H12V336H24V324Z" fill="black"/>
<path d="M36 324H24V336H36V324Z" fill="black"/>
<path d="M48 324H36V336H48V324Z" fill="black"/>
<path d="M60 324H48V336H60V324Z" fill="black"/>
<path d="M72 324H60V336H72V324Z" fill="black"/>
<path d="M84 324H72V336H84V324Z" fill="black"/>
<path d="M96 324H84V336H96V324Z" fill="black"/>
<path d="M132 324H120V336H132V324Z" fill="black"/>
<path d="M216 324H204V336H216V324Z" fill="black"/>
<path d="M288 324H276V336H288V324Z" fill="black"/>
<path d="M300 324H288V336H300V324Z" fill="black"/>
<path d="M312 324H300V336H312V324Z" fill="black"/>
<path d="M336 324H324V336H336V324Z" fill="black"/>
<path d="M360 324H348V336H360V324Z" fill="black"/>
<path d="M372 324H360V336H372V324Z" fill="black"/>
<path d="M396 324H384V336H396V324Z" fill="black"/>
<path d="M408 324H396V336H408V324Z" fill="black"/>
<path d="M24 336H12V348H24V336Z" fill="black"/>
<path d="M96 336H84V348H96V336Z" fill="black"/>
<path d="M120 336H108V348H120V336Z" fill="black"/>
<path d="M132 336H120V348H132V336Z" fill="black"/>
<path d="M144 336H132V348H144V336Z" fill="black"/>
<path d="M192 336H180V348H192V336Z" fill="black"/>
<path d="M228 336H216V348H228V336Z" fill="black"/>
<path d="M252 336H240V348H252V336Z" fill="black"/>
<path d="M276 336H264V348H276V336Z" fill="black"/>
<path d="M288 336H276V348H288V336Z" fill="black"/>
<path d="M300 336H288V348H300V336Z" fill="black"/>
<path d="M312 336H300V348H312V336Z" fill="black"/>
<path d="M360 336H348V348H360V336Z" fill="black"/>
<path d="M408 336H396V348H408V336Z" fill="black"/>
<path d="M24 348H12V360H24V348Z" fill="black"/>
<path d="M48 348H36V360H48V348Z" fill="black"/>
<path d="M60 348H48V360H60V348Z" fill="black"/>
<path d="M72 348H60V360H72V348Z" fill="black"/>
<path d="M96 348H84V360H96V348Z" fill="black"/>
<path d="M120 348H108V360H120V348Z" fill="black"/>
<path d="M156 348H144V360H156V348Z" fill="black"/>
<path d="M204 348H192V360H204V348Z" fill="black"/>
<path d="M216 348H204V360H216V348Z" fill="black"/>
<path d="M240 348H228V360H240V348Z" fill="black"/>
<path d="M264 348H252V360H264V348Z" fill="black"/>
<path d="M288 348H276V360H288V348Z" fill="black"/>
<path d="M312 348H300V360H312V348Z" fill="black"/>
<path d="M324 348H312V360H324V348Z" fill="black"/>
<path d="M336 348H324V360H336V348Z" fill="black"/>
<path d="M348 348H336V360H348V348Z" fill="black"/>
<path d="M360 348H348V360H360V348Z" fill="black"/>
<path d="M384 348H372V360H384V348Z" fill="black"/>
<path d="M396 348H384V360H396V348Z" fill="black"/>
<path d="M24 360H12V372H24V360Z" fill="black"/>
<path d="M48 360H36V372H48V360Z" fill="black"/>
<path d="M60 360H48V372H60V360Z" fill="black"/>
<path d="M72 360H60V372H72V360Z" fill="black"/>
<path d="M96 360H84V372H96V360Z" fill="black"/>
<path d="M132 360H120V372H132V360Z" fill="black"/>
<path d="M144 360H132V372H144V360Z" fill="black"/>
<path d="M156 360H144V372H156V360Z" fill="black"/>
<path d="M168 360H156V372H168V360Z" fill="black"/>
<path d="M180 360H168V372H180V360Z" fill="black"/>
<path d="M216 360H204V372H216V360Z" fill="black"/>
<path d="M240 360H228V372H240V360Z" fill="black"/>
<path d="M252 360H240V372H252V360Z" fill="black"/>
<path d="M264 360H252V372H264V360Z" fill="black"/>
<path d="M288 360H276V372H288V360Z" fill="black"/>
<path d="M300 360H288V372H300V360Z" fill="black"/>
<path d="M312 360H300V372H312V360Z" fill="black"/>
<path d="M360 360H348V372H360V360Z" fill="black"/>
<path d="M372 360H360V372H372V360Z" fill="black"/>
<path d="M24 372H12V384H24V372Z" fill="black"/>
<path d="M48 372H36V384H48V372Z" fill="black"/>
<path d="M60 372H48V384H60V372Z" fill="black"/>
<path d="M72 372H60V384H72V372Z" fill="black"/>
<path d="M96 372H84V384H96V372Z" fill="black"/>
<path d="M120 372H108V384H120V372Z" fill="black"/>
<path d="M132 372H120V384H132V372Z" fill="black"/>
<path d="M144 372H132V384H144V372Z" fill="black"/>
<path d="M192 372H180V384H192V372Z" fill="black"/>
<path d="M204 372H192V384H204V372Z" fill="black"/>
<path d="M216 372H204V384H216V372Z" fill="black"/>
<path d="M240 372H228V384H240V372Z" fill="black"/>
<path d="M276 372H264V384H276V372Z" fill="black"/>
<path d="M324 372H312V384H324V372Z" fill="black"/>
<path d="M348 372H336V384H348V372Z" fill="black"/>
<path d="M360 372H348V384H360V372Z" fill="black"/>
<path d="M372 372H360V384H372V372Z" fill="black"/>
<path d="M384 372H372V384H384V372Z" fill="black"/>
<path d="M408 372H396V384H408V372Z" fill="black"/>
<path d="M24 384H12V396H24V384Z" fill="black"/>
<path d="M96 384H84V396H96V384Z" fill="black"/>
<path d="M132 384H120V396H132V384Z" fill="black"/>
<path d="M144 384H132V396H144V384Z" fill="black"/>
<path d="M156 384H144V396H156V384Z" fill="black"/>
<path d="M168 384H156V396H168V384Z" fill="black"/>
<path d="M192 384H180V396H192V384Z" fill="black"/>
<path d="M204 384H192V396H204V384Z" fill="black"/>
<path d="M216 384H204V396H216V384Z" fill="black"/>
<path d="M240 384H228V396H240V384Z" fill="black"/>
<path d="M252 384H240V396H252V384Z" fill="black"/>
<path d="M300 384H288V396H300V384Z" fill="black"/>
<path d="M312 384H300V396H312V384Z" fill="black"/>
<path d="M336 384H324V396H336V384Z" fill="black"/>
<path d="M348 384H336V396H348V384Z" fill="black"/>
<path d="M372 384H360V396H372V384Z" fill="black"/>
<path d="M396 384H384V396H396V384Z" fill="black"/>
<path d="M24 396H12V408H24V396Z" fill="black"/>
<path d="M36 396H24V408H36V396Z" fill="black"/>
<path d="M48 396H36V408H48V396Z" fill="black"/>
<path d="M60 396H48V408H60V396Z" fill="black"/>
<path d="M72 396H60V408H72V396Z" fill="black"/>
<path d="M84 396H72V408H84V396Z" fill="black"/>
<path d="M96 396H84V408H96V396Z" fill="black"/>
<path d="M168 396H156V408H168V396Z" fill="black"/>
<path d="M180 396H168V408H180V396Z" fill="black"/>
<path d="M192 396H180V408H192V396Z" fill="black"/>
<path d="M216 396H204V408H216V396Z" fill="black"/>
<path d="M252 396H240V408H252V396Z" fill="black"/>
<path d="M264 396H252V408H264V396Z" fill="black"/>
<path d="M312 396H300V408H312V396Z" fill="black"/>
<path d="M336 396H324V408H336V396Z" fill="black"/>
<path d="M348 396H336V408H348V396Z" fill="black"/>
<path d="M360 396H348V408H360V396Z" fill="black"/>
<path d="M372 396H360V408H372V396Z" fill="black"/>
<path d="M384 396H372V408H384V396Z" fill="black"/>
<path d="M396 396H384V408H396V396Z" fill="black"/>
<path d="M408 396H396V408H408V396Z" fill="black"/>
<path fill-rule="evenodd" clip-rule="evenodd" d="M160 210.5C160 184.402 182.806 164 209.97 164C237.134 164 259.94 184.402 259.94 210.5C259.94 236.598 237.134 257 209.97 257C201.11 257 192.759 254.851 185.51 251.06C184.039 250.29 182.569 249.978 181.256 250.09C176.918 250.459 172.222 250.66 168.906 250.185C168.04 250.061 167.067 249.865 166.129 249.524C165.286 249.218 163.878 248.587 162.764 247.239C161.385 245.57 160.954 243.402 161.526 241.357C161.991 239.698 163 238.514 163.708 237.805C164.89 236.624 165.557 235.178 165.894 233.565C165.915 233.466 165.94 233.234 165.828 232.78C165.712 232.304 165.475 231.704 165.081 230.956C161.832 224.79 160 217.843 160 210.5Z" fill="white"/>
<path fill-rule="evenodd" clip-rule="evenodd" d="M254.388 210.5C254.388 233.115 234.501 251.448 209.97 251.448C202.012 251.448 194.543 249.518 188.083 246.14C185.834 244.963 183.315 244.343 180.786 244.558C172.12 245.295 164.253 245.112 167.634 241.731C169.742 239.624 170.822 237.122 171.329 234.704C171.785 232.527 171.03 230.336 169.993 228.368C167.148 222.968 165.552 216.906 165.552 210.5C165.552 187.885 185.439 169.552 209.97 169.552C234.501 169.552 254.388 187.885 254.388 210.5ZM212.746 195.925C215.813 195.925 218.299 193.44 218.299 190.373C218.299 187.307 215.813 184.821 212.746 184.821C209.68 184.821 207.194 187.307 207.194 190.373C207.194 193.44 209.68 195.925 212.746 195.925ZM233.567 195.925C236.634 195.925 239.119 193.44 239.119 190.373C239.119 187.307 236.634 184.821 233.567 184.821C230.501 184.821 228.015 187.307 228.015 190.373C228.015 193.44 230.501 195.925 233.567 195.925ZM223.851 229.239C228.45 229.239 232.179 217.431 232.179 202.866H215.522C215.522 217.431 219.251 229.239 223.851 229.239Z" fill="url(#paint0_linear)"/>
<defs>
<linearGradient id="paint0_linear" x1="209.97" y1="169.552" x2="209.97" y2="251.448" gradientUnits="userSpaceOnUse">
<stop stop-color="#5EFF83"/>
<stop offset="1" stop-color="#17D543"/>
</linearGradient>
</defs>
</svg>
