<svg width="468" height="468" viewBox="0 0 468 468" fill="none" xmlns="http://www.w3.org/2000/svg">
<path d="M468 0H0V468H468V0Z" fill="white"/>
<path d="M24 12H12V24H24V12Z" fill="black"/>
<path d="M36 12H24V24H36V12Z" fill="black"/>
<path d="M48 12H36V24H48V12Z" fill="black"/>
<path d="M60 12H48V24H60V12Z" fill="black"/>
<path d="M72 12H60V24H72V12Z" fill="black"/>
<path d="M84 12H72V24H84V12Z" fill="black"/>
<path d="M96 12H84V24H96V12Z" fill="black"/>
<path d="M120 12H108V24H120V12Z" fill="black"/>
<path d="M132 12H120V24H132V12Z" fill="black"/>
<path d="M192 12H180V24H192V12Z" fill="black"/>
<path d="M240 12H228V24H240V12Z" fill="black"/>
<path d="M276 12H264V24H276V12Z" fill="black"/>
<path d="M300 12H288V24H300V12Z" fill="black"/>
<path d="M312 12H300V24H312V12Z" fill="black"/>
<path d="M336 12H324V24H336V12Z" fill="black"/>
<path d="M384 12H372V24H384V12Z" fill="black"/>
<path d="M396 12H384V24H396V12Z" fill="black"/>
<path d="M408 12H396V24H408V12Z" fill="black"/>
<path d="M420 12H408V24H420V12Z" fill="black"/>
<path d="M432 12H420V24H432V12Z" fill="black"/>
<path d="M444 12H432V24H444V12Z" fill="black"/>
<path d="M456 12H444V24H456V12Z" fill="black"/>
<path d="M24 24H12V36H24V24Z" fill="black"/>
<path d="M96 24H84V36H96V24Z" fill="black"/>
<path d="M144 24H132V36H144V24Z" fill="black"/>
<path d="M156 24H144V36H156V24Z" fill="black"/>
<path d="M180 24H168V36H180V24Z" fill="black"/>
<path d="M204 24H192V36H204V24Z" fill="black"/>
<path d="M216 24H204V36H216V24Z" fill="black"/>
<path d="M240 24H228V36H240V24Z" fill="black"/>
<path d="M264 24H252V36H264V24Z" fill="black"/>
<path d="M276 24H264V36H276V24Z" fill="black"/>
<path d="M300 24H288V36H300V24Z" fill="black"/>
<path d="M324 24H312V36H324V24Z" fill="black"/>
<path d="M336 24H324V36H336V24Z" fill="black"/>
<path d="M348 24H336V36H348V24Z" fill="black"/>
<path d="M384 24H372V36H384V24Z" fill="black"/>
<path d="M456 24H444V36H456V24Z" fill="black"/>
<path d="M24 36H12V48H24V36Z" fill="black"/>
<path d="M48 36H36V48H48V36Z" fill="black"/>
<path d="M60 36H48V48H60V36Z" fill="black"/>
<path d="M72 36H60V48H72V36Z" fill="black"/>
<path d="M96 36H84V48H96V36Z" fill="black"/>
<path d="M132 36H120V48H132V36Z" fill="black"/>
<path d="M156 36H144V48H156V36Z" fill="black"/>
<path d="M168 36H156V48H168V36Z" fill="black"/>
<path d="M180 36H168V48H180V36Z" fill="black"/>
<path d="M240 36H228V48H240V36Z" fill="black"/>
<path d="M276 36H264V48H276V36Z" fill="black"/>
<path d="M312 36H300V48H312V36Z" fill="black"/>
<path d="M336 36H324V48H336V36Z" fill="black"/>
<path d="M360 36H348V48H360V36Z" fill="black"/>
<path d="M384 36H372V48H384V36Z" fill="black"/>
<path d="M408 36H396V48H408V36Z" fill="black"/>
<path d="M420 36H408V48H420V36Z" fill="black"/>
<path d="M432 36H420V48H432V36Z" fill="black"/>
<path d="M456 36H444V48H456V36Z" fill="black"/>
<path d="M24 48H12V60H24V48Z" fill="black"/>
<path d="M48 48H36V60H48V48Z" fill="black"/>
<path d="M60 48H48V60H60V48Z" fill="black"/>
<path d="M72 48H60V60H72V48Z" fill="black"/>
<path d="M96 48H84V60H96V48Z" fill="black"/>
<path d="M120 48H108V60H120V48Z" fill="black"/>
<path d="M132 48H120V60H132V48Z" fill="black"/>
<path d="M156 48H144V60H156V48Z" fill="black"/>
<path d="M192 48H180V60H192V48Z" fill="black"/>
<path d="M216 48H204V60H216V48Z" fill="black"/>
<path d="M240 48H228V60H240V48Z" fill="black"/>
<path d="M264 48H252V60H264V48Z" fill="black"/>
<path d="M288 48H276V60H288V48Z" fill="black"/>
<path d="M324 48H312V60H324V48Z" fill="black"/>
<path d="M360 48H348V60H360V48Z" fill="black"/>
<path d="M384 48H372V60H384V48Z" fill="black"/>
<path d="M408 48H396V60H408V48Z" fill="black"/>
<path d="M420 48H408V60H420V48Z" fill="black"/>
<path d="M432 48H420V60H432V48Z" fill="black"/>
<path d="M456 48H444V60H456V48Z" fill="black"/>
<path d="M24 60H12V72H24V60Z" fill="black"/>
<path d="M48 60H36V72H48V60Z" fill="black"/>
<path d="M60 60H48V72H60V60Z" fill="black"/>
<path d="M72 60H60V72H72V60Z" fill="black"/>
<path d="M96 60H84V72H96V60Z" fill="black"/>
<path d="M156 60H144V72H156V60Z" fill="black"/>
<path d="M168 60H156V72H168V60Z" fill="black"/>
<path d="M180 60H168V72H180V60Z" fill="black"/>
<path d="M204 60H192V72H204V60Z" fill="black"/>
<path d="M228 60H216V72H228V60Z" fill="black"/>
<path d="M252 60H240V72H252V60Z" fill="black"/>
<path d="M276 60H264V72H276V60Z" fill="black"/>
<path d="M300 60H288V72H300V60Z" fill="black"/>
<path d="M336 60H324V72H336V60Z" fill="black"/>
<path d="M348 60H336V72H348V60Z" fill="black"/>
<path d="M360 60H348V72H360V60Z" fill="black"/>
<path d="M384 60H372V72H384V60Z" fill="black"/>
<path d="M408 60H396V72H408V60Z" fill="black"/>
<path d="M420 60H408V72H420V60Z" fill="black"/>
<path d="M432 60H420V72H432V60Z" fill="black"/>
<path d="M456 60H444V72H456V60Z" fill="black"/>
<path d="M24 72H12V84H24V72Z" fill="black"/>
<path d="M96 72H84V84H96V72Z" fill="black"/>
<path d="M132 72H120V84H132V72Z" fill="black"/>
<path d="M144 72H132V84H144V72Z" fill="black"/>
<path d="M156 72H144V84H156V72Z" fill="black"/>
<path d="M168 72H156V84H168V72Z" fill="black"/>
<path d="M180 72H168V84H180V72Z" fill="black"/>
<path d="M192 72H180V84H192V72Z" fill="black"/>
<path d="M216 72H204V84H216V72Z" fill="black"/>
<path d="M252 72H240V84H252V72Z" fill="black"/>
<path d="M276 72H264V84H276V72Z" fill="black"/>
<path d="M288 72H276V84H288V72Z" fill="black"/>
<path d="M348 72H336V84H348V72Z" fill="black"/>
<path d="M384 72H372V84H384V72Z" fill="black"/>
<path d="M456 72H444V84H456V72Z" fill="black"/>
<path d="M24 84H12V96H24V84Z" fill="black"/>
<path d="M36 84H24V96H36V84Z" fill="black"/>
<path d="M48 84H36V96H48V84Z" fill="black"/>
<path d="M60 84H48V96H60V84Z" fill="black"/>
<path d="M72 84H60V96H72V84Z" fill="black"/>
<path d="M84 84H72V96H84V84Z" fill="black"/>
<path d="M96 84H84V96H96V84Z" fill="black"/>
<path d="M120 84H108V96H120V84Z" fill="black"/>
<path d="M144 84H132V96H144V84Z" fill="black"/>
<path d="M168 84H156V96H168V84Z" fill="black"/>
<path d="M192 84H180V96H192V84Z" fill="black"/>
<path d="M216 84H204V96H216V84Z" fill="black"/>
<path d="M240 84H228V96H240V84Z" fill="black"/>
<path d="M264 84H252V96H264V84Z" fill="black"/>
<path d="M288 84H276V96H288V84Z" fill="black"/>
<path d="M312 84H300V96H312V84Z" fill="black"/>
<path d="M336 84H324V96H336V84Z" fill="black"/>
<path d="M360 84H348V96H360V84Z" fill="black"/>
<path d="M384 84H372V96H384V84Z" fill="black"/>
<path d="M396 84H384V96H396V84Z" fill="black"/>
<path d="M408 84H396V96H408V84Z" fill="black"/>
<path d="M420 84H408V96H420V84Z" fill="black"/>
<path d="M432 84H420V96H432V84Z" fill="black"/>
<path d="M444 84H432V96H444V84Z" fill="black"/>
<path d="M456 84H444V96H456V84Z" fill="black"/>
<path d="M132 96H120V108H132V96Z" fill="black"/>
<path d="M156 96H144V108H156V96Z" fill="black"/>
<path d="M180 96H168V108H180V96Z" fill="black"/>
<path d="M228 96H216V108H228V96Z" fill="black"/>
<path d="M264 96H252V108H264V96Z" fill="black"/>
<path d="M276 96H264V108H276V96Z" fill="black"/>
<path d="M300 96H288V108H300V96Z" fill="black"/>
<path d="M312 96H300V108H312V96Z" fill="black"/>
<path d="M324 96H312V108H324V96Z" fill="black"/>
<path d="M336 96H324V108H336V96Z" fill="black"/>
<path d="M360 96H348V108H360V96Z" fill="black"/>
<path d="M48 108H36V120H48V108Z" fill="black"/>
<path d="M72 108H60V120H72V108Z" fill="black"/>
<path d="M84 108H72V120H84V108Z" fill="black"/>
<path d="M96 108H84V120H96V108Z" fill="black"/>
<path d="M120 108H108V120H120V108Z" fill="black"/>
<path d="M132 108H120V120H132V108Z" fill="black"/>
<path d="M180 108H168V120H180V108Z" fill="black"/>
<path d="M192 108H180V120H192V108Z" fill="black"/>
<path d="M264 108H252V120H264V108Z" fill="black"/>
<path d="M276 108H264V120H276V108Z" fill="black"/>
<path d="M300 108H288V120H300V108Z" fill="black"/>
<path d="M324 108H312V120H324V108Z" fill="black"/>
<path d="M336 108H324V120H336V108Z" fill="black"/>
<path d="M372 108H360V120H372V108Z" fill="black"/>
<path d="M420 108H408V120H420V108Z" fill="black"/>
<path d="M456 108H444V120H456V108Z" fill="black"/>
<path d="M36 120H24V132H36V120Z" fill="black"/>
<path d="M48 120H36V132H48V120Z" fill="black"/>
<path d="M84 120H72V132H84V120Z" fill="black"/>
<path d="M108 120H96V132H108V120Z" fill="black"/>
<path d="M120 120H108V132H120V120Z" fill="black"/>
<path d="M132 120H120V132H132V120Z" fill="black"/>
<path d="M168 120H156V132H168V120Z" fill="black"/>
<path d="M204 120H192V132H204V120Z" fill="black"/>
<path d="M228 120H216V132H228V120Z" fill="black"/>
<path d="M276 120H264V132H276V120Z" fill="black"/>
<path d="M288 120H276V132H288V120Z" fill="black"/>
<path d="M300 120H288V132H300V120Z" fill="black"/>
<path d="M324 120H312V132H324V120Z" fill="black"/>
<path d="M336 120H324V132H336V120Z" fill="black"/>
<path d="M348 120H336V132H348V120Z" fill="black"/>
<path d="M360 120H348V132H360V120Z" fill="black"/>
<path d="M372 120H360V132H372V120Z" fill="black"/>
<path d="M384 120H372V132H384V120Z" fill="black"/>
<path d="M420 120H408V132H420V120Z" fill="black"/>
<path d="M432 120H420V132H432V120Z" fill="black"/>
<path d="M444 120H432V132H444V120Z" fill="black"/>
<path d="M456 120H444V132H456V120Z" fill="black"/>
<path d="M24 132H12V144H24V132Z" fill="black"/>
<path d="M36 132H24V144H36V132Z" fill="black"/>
<path d="M48 132H36V144H48V132Z" fill="black"/>
<path d="M60 132H48V144H60V132Z" fill="black"/>
<path d="M84 132H72V144H84V132Z" fill="black"/>
<path d="M96 132H84V144H96V132Z" fill="black"/>
<path d="M108 132H96V144H108V132Z" fill="black"/>
<path d="M144 132H132V144H144V132Z" fill="black"/>
<path d="M156 132H144V144H156V132Z" fill="black"/>
<path d="M168 132H156V144H168V132Z" fill="black"/>
<path d="M204 132H192V144H204V132Z" fill="black"/>
<path d="M228 132H216V144H228V132Z" fill="black"/>
<path d="M240 132H228V144H240V132Z" fill="black"/>
<path d="M300 132H288V144H300V132Z" fill="black"/>
<path d="M324 132H312V144H324V132Z" fill="black"/>
<path d="M336 132H324V144H336V132Z" fill="black"/>
<path d="M360 132H348V144H360V132Z" fill="black"/>
<path d="M408 132H396V144H408V132Z" fill="black"/>
<path d="M420 132H408V144H420V132Z" fill="black"/>
<path d="M432 132H420V144H432V132Z" fill="black"/>
<path d="M456 132H444V144H456V132Z" fill="black"/>
<path d="M36 144H24V156H36V144Z" fill="black"/>
<path d="M60 144H48V156H60V144Z" fill="black"/>
<path d="M72 144H60V156H72V144Z" fill="black"/>
<path d="M144 144H132V156H144V144Z" fill="black"/>
<path d="M204 144H192V156H204V144Z" fill="black"/>
<path d="M216 144H204V156H216V144Z" fill="black"/>
<path d="M228 144H216V156H228V144Z" fill="black"/>
<path d="M252 144H240V156H252V144Z" fill="black"/>
<path d="M264 144H252V156H264V144Z" fill="black"/>
<path d="M288 144H276V156H288V144Z" fill="black"/>
<path d="M300 144H288V156H300V144Z" fill="black"/>
<path d="M312 144H300V156H312V144Z" fill="black"/>
<path d="M324 144H312V156H324V144Z" fill="black"/>
<path d="M348 144H336V156H348V144Z" fill="black"/>
<path d="M372 144H360V156H372V144Z" fill="black"/>
<path d="M384 144H372V156H384V144Z" fill="black"/>
<path d="M24 156H12V168H24V156Z" fill="black"/>
<path d="M36 156H24V168H36V156Z" fill="black"/>
<path d="M84 156H72V168H84V156Z" fill="black"/>
<path d="M96 156H84V168H96V156Z" fill="black"/>
<path d="M132 156H120V168H132V156Z" fill="black"/>
<path d="M144 156H132V168H144V156Z" fill="black"/>
<path d="M156 156H144V168H156V156Z" fill="black"/>
<path d="M168 156H156V168H168V156Z" fill="black"/>
<path d="M180 156H168V168H180V156Z" fill="black"/>
<path d="M192 156H180V168H192V156Z" fill="black"/>
<path d="M216 156H204V168H216V156Z" fill="black"/>
<path d="M228 156H216V168H228V156Z" fill="black"/>
<path d="M252 156H240V168H252V156Z" fill="black"/>
<path d="M276 156H264V168H276V156Z" fill="black"/>
<path d="M300 156H288V168H300V156Z" fill="black"/>
<path d="M312 156H300V168H312V156Z" fill="black"/>
<path d="M324 156H312V168H324V156Z" fill="black"/>
<path d="M348 156H336V168H348V156Z" fill="black"/>
<path d="M360 156H348V168H360V156Z" fill="black"/>
<path d="M384 156H372V168H384V156Z" fill="black"/>
<path d="M396 156H384V168H396V156Z" fill="black"/>
<path d="M408 156H396V168H408V156Z" fill="black"/>
<path d="M420 156H408V168H420V156Z" fill="black"/>
<path d="M444 156H432V168H444V156Z" fill="black"/>
<path d="M456 156H444V168H456V156Z" fill="black"/>
<path d="M36 168H24V180H36V168Z" fill="black"/>
<path d="M48 168H36V180H48V168Z" fill="black"/>
<path d="M60 168H48V180H60V168Z" fill="black"/>
<path d="M84 168H72V180H84V168Z" fill="black"/>
<path d="M108 168H96V180H108V168Z" fill="black"/>
<path d="M120 168H108V180H120V168Z" fill="black"/>
<path d="M132 168H120V180H132V168Z" fill="black"/>
<path d="M144 168H132V180H144V168Z" fill="black"/>
<path d="M156 168H144V180H156V168Z" fill="black"/>
<path d="M216 168H204V180H216V168Z" fill="black"/>
<path d="M228 168H216V180H228V168Z" fill="black"/>
<path d="M252 168H240V180H252V168Z" fill="black"/>
<path d="M288 168H276V180H288V168Z" fill="black"/>
<path d="M300 168H288V180H300V168Z" fill="black"/>
<path d="M312 168H300V180H312V168Z" fill="black"/>
<path d="M372 168H360V180H372V168Z" fill="black"/>
<path d="M384 168H372V180H384V168Z" fill="black"/>
<path d="M444 168H432V180H444V168Z" fill="black"/>
<path d="M60 180H48V192H60V180Z" fill="black"/>
<path d="M96 180H84V192H96V180Z" fill="black"/>
<path d="M108 180H96V192H108V180Z" fill="black"/>
<path d="M120 180H108V192H120V180Z" fill="black"/>
<path d="M132 180H120V192H132V180Z" fill="black"/>
<path d="M144 180H132V192H144V180Z" fill="black"/>
<path d="M156 180H144V192H156V180Z" fill="black"/>
<path d="M192 180H180V192H192V180Z" fill="black"/>
<path d="M204 180H192V192H204V180Z" fill="black"/>
<path d="M228 180H216V192H228V180Z" fill="black"/>
<path d="M252 180H240V192H252V180Z" fill="black"/>
<path d="M264 180H252V192H264V180Z" fill="black"/>
<path d="M276 180H264V192H276V180Z" fill="black"/>
<path d="M300 180H288V192H300V180Z" fill="black"/>
<path d="M312 180H300V192H312V180Z" fill="black"/>
<path d="M324 180H312V192H324V180Z" fill="black"/>
<path d="M348 180H336V192H348V180Z" fill="black"/>
<path d="M384 180H372V192H384V180Z" fill="black"/>
<path d="M408 180H396V192H408V180Z" fill="black"/>
<path d="M420 180H408V192H420V180Z" fill="black"/>
<path d="M444 180H432V192H444V180Z" fill="black"/>
<path d="M456 180H444V192H456V180Z" fill="black"/>
<path d="M24 192H12V204H24V192Z" fill="black"/>
<path d="M36 192H24V204H36V192Z" fill="black"/>
<path d="M60 192H48V204H60V192Z" fill="black"/>
<path d="M72 192H60V204H72V192Z" fill="black"/>
<path d="M132 192H120V204H132V192Z" fill="black"/>
<path d="M168 192H156V204H168V192Z" fill="black"/>
<path d="M192 192H180V204H192V192Z" fill="black"/>
<path d="M204 192H192V204H204V192Z" fill="black"/>
<path d="M240 192H228V204H240V192Z" fill="black"/>
<path d="M252 192H240V204H252V192Z" fill="black"/>
<path d="M288 192H276V204H288V192Z" fill="black"/>
<path d="M312 192H300V204H312V192Z" fill="black"/>
<path d="M324 192H312V204H324V192Z" fill="black"/>
<path d="M348 192H336V204H348V192Z" fill="black"/>
<path d="M384 192H372V204H384V192Z" fill="black"/>
<path d="M396 192H384V204H396V192Z" fill="black"/>
<path d="M408 192H396V204H408V192Z" fill="black"/>
<path d="M444 192H432V204H444V192Z" fill="black"/>
<path d="M36 204H24V216H36V204Z" fill="black"/>
<path d="M48 204H36V216H48V204Z" fill="black"/>
<path d="M60 204H48V216H60V204Z" fill="black"/>
<path d="M84 204H72V216H84V204Z" fill="black"/>
<path d="M96 204H84V216H96V204Z" fill="black"/>
<path d="M120 204H108V216H120V204Z" fill="black"/>
<path d="M132 204H120V216H132V204Z" fill="black"/>
<path d="M168 204H156V216H168V204Z" fill="black"/>
<path d="M204 204H192V216H204V204Z" fill="black"/>
<path d="M216 204H204V216H216V204Z" fill="black"/>
<path d="M240 204H228V216H240V204Z" fill="black"/>
<path d="M252 204H240V216H252V204Z" fill="black"/>
<path d="M276 204H264V216H276V204Z" fill="black"/>
<path d="M324 204H312V216H324V204Z" fill="black"/>
<path d="M360 204H348V216H360V204Z" fill="black"/>
<path d="M372 204H360V216H372V204Z" fill="black"/>
<path d="M384 204H372V216H384V204Z" fill="black"/>
<path d="M396 204H384V216H396V204Z" fill="black"/>
<path d="M420 204H408V216H420V204Z" fill="black"/>
<path d="M456 204H444V216H456V204Z" fill="black"/>
<path d="M24 216H12V228H24V216Z" fill="black"/>
<path d="M48 216H36V228H48V216Z" fill="black"/>
<path d="M60 216H48V228H60V216Z" fill="black"/>
<path d="M108 216H96V228H108V216Z" fill="black"/>
<path d="M132 216H120V228H132V216Z" fill="black"/>
<path d="M168 216H156V228H168V216Z" fill="black"/>
<path d="M180 216H168V228H180V216Z" fill="black"/>
<path d="M204 216H192V228H204V216Z" fill="black"/>
<path d="M252 216H240V228H252V216Z" fill="black"/>
<path d="M288 216H276V228H288V216Z" fill="black"/>
<path d="M300 216H288V228H300V216Z" fill="black"/>
<path d="M312 216H300V228H312V216Z" fill="black"/>
<path d="M336 216H324V228H336V216Z" fill="black"/>
<path d="M348 216H336V228H348V216Z" fill="black"/>
<path d="M360 216H348V228H360V216Z" fill="black"/>
<path d="M372 216H360V228H372V216Z" fill="black"/>
<path d="M420 216H408V228H420V216Z" fill="black"/>
<path d="M432 216H420V228H432V216Z" fill="black"/>
<path d="M456 216H444V228H456V216Z" fill="black"/>
<path d="M36 228H24V240H36V228Z" fill="black"/>
<path d="M48 228H36V240H48V228Z" fill="black"/>
<path d="M60 228H48V240H60V228Z" fill="black"/>
<path d="M72 228H60V240H72V228Z" fill="black"/>
<path d="M84 228H72V240H84V228Z" fill="black"/>
<path d="M96 228H84V240H96V228Z" fill="black"/>
<path d="M108 228H96V240H108V228Z" fill="black"/>
<path d="M132 228H120V240H132V228Z" fill="black"/>
<path d="M144 228H132V240H144V228Z" fill="black"/>
<path d="M168 228H156V240H168V228Z" fill="black"/>
<path d="M216 228H204V240H216V228Z" fill="black"/>
<path d="M240 228H228V240H240V228Z" fill="black"/>
<path d="M264 228H252V240H264V228Z" fill="black"/>
<path d="M288 228H276V240H288V228Z" fill="black"/>
<path d="M312 228H300V240H312V228Z" fill="black"/>
<path d="M360 228H348V240H360V228Z" fill="black"/>
<path d="M372 228H360V240H372V228Z" fill="black"/>
<path d="M384 228H372V240H384V228Z" fill="black"/>
<path d="M408 228H396V240H408V228Z" fill="black"/>
<path d="M444 228H432V240H444V228Z" fill="black"/>
<path d="M456 228H444V240H456V228Z" fill="black"/>
<path d="M24 240H12V252H24V240Z" fill="black"/>
<path d="M36 240H24V252H36V240Z" fill="black"/>
<path d="M72 240H60V252H72V240Z" fill="black"/>
<path d="M84 240H72V252H84V240Z" fill="black"/>
<path d="M120 240H108V252H120V240Z" fill="black"/>
<path d="M132 240H120V252H132V240Z" fill="black"/>
<path d="M156 240H144V252H156V240Z" fill="black"/>
<path d="M192 240H180V252H192V240Z" fill="black"/>
<path d="M204 240H192V252H204V240Z" fill="black"/>
<path d="M216 240H204V252H216V240Z" fill="black"/>
<path d="M300 240H288V252H300V240Z" fill="black"/>
<path d="M312 240H300V252H312V240Z" fill="black"/>
<path d="M324 240H312V252H324V240Z" fill="black"/>
<path d="M336 240H324V252H336V240Z" fill="black"/>
<path d="M444 240H432V252H444V240Z" fill="black"/>
<path d="M456 240H444V252H456V240Z" fill="black"/>
<path d="M36 252H24V264H36V252Z" fill="black"/>
<path d="M72 252H60V264H72V252Z" fill="black"/>
<path d="M84 252H72V264H84V252Z" fill="black"/>
<path d="M96 252H84V264H96V252Z" fill="black"/>
<path d="M108 252H96V264H108V252Z" fill="black"/>
<path d="M120 252H108V264H120V252Z" fill="black"/>
<path d="M156 252H144V264H156V252Z" fill="black"/>
<path d="M168 252H156V264H168V252Z" fill="black"/>
<path d="M180 252H168V264H180V252Z" fill="black"/>
<path d="M204 252H192V264H204V252Z" fill="black"/>
<path d="M228 252H216V264H228V252Z" fill="black"/>
<path d="M264 252H252V264H264V252Z" fill="black"/>
<path d="M276 252H264V264H276V252Z" fill="black"/>
<path d="M324 252H312V264H324V252Z" fill="black"/>
<path d="M348 252H336V264H348V252Z" fill="black"/>
<path d="M360 252H348V264H360V252Z" fill="black"/>
<path d="M396 252H384V264H396V252Z" fill="black"/>
<path d="M432 252H420V264H432V252Z" fill="black"/>
<path d="M444 252H432V264H444V252Z" fill="black"/>
<path d="M456 252H444V264H456V252Z" fill="black"/>
<path d="M24 264H12V276H24V264Z" fill="black"/>
<path d="M36 264H24V276H36V264Z" fill="black"/>
<path d="M72 264H60V276H72V264Z" fill="black"/>
<path d="M108 264H96V276H108V264Z" fill="black"/>
<path d="M120 264H108V276H120V264Z" fill="black"/>
<path d="M144 264H132V276H144V264Z" fill="black"/>
<path d="M156 264H144V276H156V264Z" fill="black"/>
<path d="M168 264H156V276H168V264Z" fill="black"/>
<path d="M180 264H168V276H180V264Z" fill="black"/>
<path d="M228 264H216V276H228V264Z" fill="black"/>
<path d="M240 264H228V276H240V264Z" fill="black"/>
<path d="M276 264H264V276H276V264Z" fill="black"/>
<path d="M312 264H300V276H312V264Z" fill="black"/>
<path d="M324 264H312V276H324V264Z" fill="black"/>
<path d="M360 264H348V276H360V264Z" fill="black"/>
<path d="M372 264H360V276H372V264Z" fill="black"/>
<path d="M396 264H384V276H396V264Z" fill="black"/>
<path d="M420 264H408V276H420V264Z" fill="black"/>
<path d="M444 264H432V276H444V264Z" fill="black"/>
<path d="M24 276H12V288H24V276Z" fill="black"/>
<path d="M60 276H48V288H60V276Z" fill="black"/>
<path d="M72 276H60V288H72V276Z" fill="black"/>
<path d="M96 276H84V288H96V276Z" fill="black"/>
<path d="M168 276H156V288H168V276Z" fill="black"/>
<path d="M192 276H180V288H192V276Z" fill="black"/>
<path d="M204 276H192V288H204V276Z" fill="black"/>
<path d="M228 276H216V288H228V276Z" fill="black"/>
<path d="M252 276H240V288H252V276Z" fill="black"/>
<path d="M276 276H264V288H276V276Z" fill="black"/>
<path d="M288 276H276V288H288V276Z" fill="black"/>
<path d="M336 276H324V288H336V276Z" fill="black"/>
<path d="M372 276H360V288H372V276Z" fill="black"/>
<path d="M408 276H396V288H408V276Z" fill="black"/>
<path d="M432 276H420V288H432V276Z" fill="black"/>
<path d="M444 276H432V288H444V276Z" fill="black"/>
<path d="M456 276H444V288H456V276Z" fill="black"/>
<path d="M24 288H12V300H24V288Z" fill="black"/>
<path d="M36 288H24V300H36V288Z" fill="black"/>
<path d="M60 288H48V300H60V288Z" fill="black"/>
<path d="M84 288H72V300H84V288Z" fill="black"/>
<path d="M108 288H96V300H108V288Z" fill="black"/>
<path d="M120 288H108V300H120V288Z" fill="black"/>
<path d="M156 288H144V300H156V288Z" fill="black"/>
<path d="M192 288H180V300H192V288Z" fill="black"/>
<path d="M204 288H192V300H204V288Z" fill="black"/>
<path d="M216 288H204V300H216V288Z" fill="black"/>
<path d="M276 288H264V300H276V288Z" fill="black"/>
<path d="M288 288H276V300H288V288Z" fill="black"/>
<path d="M324 288H312V300H324V288Z" fill="black"/>
<path d="M360 288H348V300H360V288Z" fill="black"/>
<path d="M384 288H372V300H384V288Z" fill="black"/>
<path d="M396 288H384V300H396V288Z" fill="black"/>
<path d="M420 288H408V300H420V288Z" fill="black"/>
<path d="M444 288H432V300H444V288Z" fill="black"/>
<path d="M456 288H444V300H456V288Z" fill="black"/>
<path d="M36 300H24V312H36V300Z" fill="black"/>
<path d="M84 300H72V312H84V300Z" fill="black"/>
<path d="M96 300H84V312H96V300Z" fill="black"/>
<path d="M120 300H108V312H120V300Z" fill="black"/>
<path d="M156 300H144V312H156V300Z" fill="black"/>
<path d="M168 300H156V312H168V300Z" fill="black"/>
<path d="M204 300H192V312H204V300Z" fill="black"/>
<path d="M228 300H216V312H228V300Z" fill="black"/>
<path d="M240 300H228V312H240V300Z" fill="black"/>
<path d="M264 300H252V312H264V300Z" fill="black"/>
<path d="M312 300H300V312H312V300Z" fill="black"/>
<path d="M324 300H312V312H324V300Z" fill="black"/>
<path d="M348 300H336V312H348V300Z" fill="black"/>
<path d="M360 300H348V312H360V300Z" fill="black"/>
<path d="M372 300H360V312H372V300Z" fill="black"/>
<path d="M384 300H372V312H384V300Z" fill="black"/>
<path d="M420 300H408V312H420V300Z" fill="black"/>
<path d="M36 312H24V324H36V312Z" fill="black"/>
<path d="M72 312H60V324H72V312Z" fill="black"/>
<path d="M84 312H72V324H84V312Z" fill="black"/>
<path d="M120 312H108V324H120V312Z" fill="black"/>
<path d="M132 312H120V324H132V312Z" fill="black"/>
<path d="M144 312H132V324H144V312Z" fill="black"/>
<path d="M216 312H204V324H216V312Z" fill="black"/>
<path d="M252 312H240V324H252V312Z" fill="black"/>
<path d="M264 312H252V324H264V312Z" fill="black"/>
<path d="M276 312H264V324H276V312Z" fill="black"/>
<path d="M288 312H276V324H288V312Z" fill="black"/>
<path d="M300 312H288V324H300V312Z" fill="black"/>
<path d="M312 312H300V324H312V312Z" fill="black"/>
<path d="M324 312H312V324H324V312Z" fill="black"/>
<path d="M348 312H336V324H348V312Z" fill="black"/>
<path d="M360 312H348V324H360V312Z" fill="black"/>
<path d="M384 312H372V324H384V312Z" fill="black"/>
<path d="M456 312H444V324H456V312Z" fill="black"/>
<path d="M24 324H12V336H24V324Z" fill="black"/>
<path d="M60 324H48V336H60V324Z" fill="black"/>
<path d="M96 324H84V336H96V324Z" fill="black"/>
<path d="M108 324H96V336H108V324Z" fill="black"/>
<path d="M132 324H120V336H132V324Z" fill="black"/>
<path d="M144 324H132V336H144V324Z" fill="black"/>
<path d="M168 324H156V336H168V324Z" fill="black"/>
<path d="M192 324H180V336H192V324Z" fill="black"/>
<path d="M228 324H216V336H228V324Z" fill="black"/>
<path d="M240 324H228V336H240V324Z" fill="black"/>
<path d="M288 324H276V336H288V324Z" fill="black"/>
<path d="M300 324H288V336H300V324Z" fill="black"/>
<path d="M312 324H300V336H312V324Z" fill="black"/>
<path d="M324 324H312V336H324V324Z" fill="black"/>
<path d="M360 324H348V336H360V324Z" fill="black"/>
<path d="M372 324H360V336H372V324Z" fill="black"/>
<path d="M396 324H384V336H396V324Z" fill="black"/>
<path d="M456 324H444V336H456V324Z" fill="black"/>
<path d="M36 336H24V348H36V336Z" fill="black"/>
<path d="M60 336H48V348H60V336Z" fill="black"/>
<path d="M120 336H108V348H120V336Z" fill="black"/>
<path d="M168 336H156V348H168V336Z" fill="black"/>
<path d="M180 336H168V348H180V336Z" fill="black"/>
<path d="M192 336H180V348H192V336Z" fill="black"/>
<path d="M204 336H192V348H204V336Z" fill="black"/>
<path d="M228 336H216V348H228V336Z" fill="black"/>
<path d="M240 336H228V348H240V336Z" fill="black"/>
<path d="M276 336H264V348H276V336Z" fill="black"/>
<path d="M312 336H300V348H312V336Z" fill="black"/>
<path d="M324 336H312V348H324V336Z" fill="black"/>
<path d="M348 336H336V348H348V336Z" fill="black"/>
<path d="M384 336H372V348H384V336Z" fill="black"/>
<path d="M408 336H396V348H408V336Z" fill="black"/>
<path d="M444 336H432V348H444V336Z" fill="black"/>
<path d="M24 348H12V360H24V348Z" fill="black"/>
<path d="M60 348H48V360H60V348Z" fill="black"/>
<path d="M72 348H60V360H72V348Z" fill="black"/>
<path d="M96 348H84V360H96V348Z" fill="black"/>
<path d="M108 348H96V360H108V348Z" fill="black"/>
<path d="M120 348H108V360H120V348Z" fill="black"/>
<path d="M144 348H132V360H144V348Z" fill="black"/>
<path d="M156 348H144V360H156V348Z" fill="black"/>
<path d="M168 348H156V360H168V348Z" fill="black"/>
<path d="M192 348H180V360H192V348Z" fill="black"/>
<path d="M204 348H192V360H204V348Z" fill="black"/>
<path d="M228 348H216V360H228V348Z" fill="black"/>
<path d="M252 348H240V360H252V348Z" fill="black"/>
<path d="M276 348H264V360H276V348Z" fill="black"/>
<path d="M288 348H276V360H288V348Z" fill="black"/>
<path d="M300 348H288V360H300V348Z" fill="black"/>
<path d="M312 348H300V360H312V348Z" fill="black"/>
<path d="M324 348H312V360H324V348Z" fill="black"/>
<path d="M336 348H324V360H336V348Z" fill="black"/>
<path d="M348 348H336V360H348V348Z" fill="black"/>
<path d="M360 348H348V360H360V348Z" fill="black"/>
<path d="M372 348H360V360H372V348Z" fill="black"/>
<path d="M384 348H372V360H384V348Z" fill="black"/>
<path d="M396 348H384V360H396V348Z" fill="black"/>
<path d="M408 348H396V360H408V348Z" fill="black"/>
<path d="M120 360H108V372H120V360Z" fill="black"/>
<path d="M144 360H132V372H144V360Z" fill="black"/>
<path d="M156 360H144V372H156V360Z" fill="black"/>
<path d="M204 360H192V372H204V360Z" fill="black"/>
<path d="M216 360H204V372H216V360Z" fill="black"/>
<path d="M264 360H252V372H264V360Z" fill="black"/>
<path d="M288 360H276V372H288V360Z" fill="black"/>
<path d="M300 360H288V372H300V360Z" fill="black"/>
<path d="M312 360H300V372H312V360Z" fill="black"/>
<path d="M324 360H312V372H324V360Z" fill="black"/>
<path d="M336 360H324V372H336V360Z" fill="black"/>
<path d="M360 360H348V372H360V360Z" fill="black"/>
<path d="M408 360H396V372H408V360Z" fill="black"/>
<path d="M420 360H408V372H420V360Z" fill="black"/>
<path d="M432 360H420V372H432V360Z" fill="black"/>
<path d="M24 372H12V384H24V372Z" fill="black"/>
<path d="M36 372H24V384H36V372Z" fill="black"/>
<path d="M48 372H36V384H48V372Z" fill="black"/>
<path d="M60 372H48V384H60V372Z" fill="black"/>
<path d="M72 372H60V384H72V372Z" fill="black"/>
<path d="M84 372H72V384H84V372Z" fill="black"/>
<path d="M96 372H84V384H96V372Z" fill="black"/>
<path d="M168 372H156V384H168V372Z" fill="black"/>
<path d="M180 372H168V384H180V372Z" fill="black"/>
<path d="M192 372H180V384H192V372Z" fill="black"/>
<path d="M228 372H216V384H228V372Z" fill="black"/>
<path d="M240 372H228V384H240V372Z" fill="black"/>
<path d="M252 372H240V384H252V372Z" fill="black"/>
<path d="M264 372H252V384H264V372Z" fill="black"/>
<path d="M276 372H264V384H276V372Z" fill="black"/>
<path d="M312 372H300V384H312V372Z" fill="black"/>
<path d="M348 372H336V384H348V372Z" fill="black"/>
<path d="M360 372H348V384H360V372Z" fill="black"/>
<path d="M384 372H372V384H384V372Z" fill="black"/>
<path d="M408 372H396V384H408V372Z" fill="black"/>
<path d="M432 372H420V384H432V372Z" fill="black"/>
<path d="M444 372H432V384H444V372Z" fill="black"/>
<path d="M456 372H444V384H456V372Z" fill="black"/>
<path d="M24 384H12V396H24V384Z" fill="black"/>
<path d="M96 384H84V396H96V384Z" fill="black"/>
<path d="M120 384H108V396H120V384Z" fill="black"/>
<path d="M168 384H156V396H168V384Z" fill="black"/>
<path d="M192 384H180V396H192V384Z" fill="black"/>
<path d="M216 384H204V396H216V384Z" fill="black"/>
<path d="M240 384H228V396H240V384Z" fill="black"/>
<path d="M252 384H240V396H252V384Z" fill="black"/>
<path d="M300 384H288V396H300V384Z" fill="black"/>
<path d="M324 384H312V396H324V384Z" fill="black"/>
<path d="M348 384H336V396H348V384Z" fill="black"/>
<path d="M360 384H348V396H360V384Z" fill="black"/>
<path d="M408 384H396V396H408V384Z" fill="black"/>
<path d="M444 384H432V396H444V384Z" fill="black"/>
<path d="M24 396H12V408H24V396Z" fill="black"/>
<path d="M48 396H36V408H48V396Z" fill="black"/>
<path d="M60 396H48V408H60V396Z" fill="black"/>
<path d="M72 396H60V408H72V396Z" fill="black"/>
<path d="M96 396H84V408H96V396Z" fill="black"/>
<path d="M120 396H108V408H120V396Z" fill="black"/>
<path d="M144 396H132V408H144V396Z" fill="black"/>
<path d="M156 396H144V408H156V396Z" fill="black"/>
<path d="M180 396H168V408H180V396Z" fill="black"/>
<path d="M228 396H216V408H228V396Z" fill="black"/>
<path d="M252 396H240V408H252V396Z" fill="black"/>
<path d="M264 396H252V408H264V396Z" fill="black"/>
<path d="M276 396H264V408H276V396Z" fill="black"/>
<path d="M300 396H288V408H300V396Z" fill="black"/>
<path d="M312 396H300V408H312V396Z" fill="black"/>
<path d="M324 396H312V408H324V396Z" fill="black"/>
<path d="M336 396H324V408H336V396Z" fill="black"/>
<path d="M348 396H336V408H348V396Z" fill="black"/>
<path d="M360 396H348V408H360V396Z" fill="black"/>
<path d="M372 396H360V408H372V396Z" fill="black"/>
<path d="M384 396H372V408H384V396Z" fill="black"/>
<path d="M396 396H384V408H396V396Z" fill="black"/>
<path d="M408 396H396V408H408V396Z" fill="black"/>
<path d="M420 396H408V408H420V396Z" fill="black"/>
<path d="M456 396H444V408H456V396Z" fill="black"/>
<path d="M24 408H12V420H24V408Z" fill="black"/>
<path d="M48 408H36V420H48V408Z" fill="black"/>
<path d="M60 408H48V420H60V408Z" fill="black"/>
<path d="M72 408H60V420H72V408Z" fill="black"/>
<path d="M96 408H84V420H96V408Z" fill="black"/>
<path d="M132 408H120V420H132V408Z" fill="black"/>
<path d="M144 408H132V420H144V408Z" fill="black"/>
<path d="M156 408H144V420H156V408Z" fill="black"/>
<path d="M192 408H180V420H192V408Z" fill="black"/>
<path d="M216 408H204V420H216V408Z" fill="black"/>
<path d="M228 408H216V420H228V408Z" fill="black"/>
<path d="M252 408H240V420H252V408Z" fill="black"/>
<path d="M264 408H252V420H264V408Z" fill="black"/>
<path d="M300 408H288V420H300V408Z" fill="black"/>
<path d="M336 408H324V420H336V408Z" fill="black"/>
<path d="M348 408H336V420H348V408Z" fill="black"/>
<path d="M372 408H360V420H372V408Z" fill="black"/>
<path d="M396 408H384V420H396V408Z" fill="black"/>
<path d="M420 408H408V420H420V408Z" fill="black"/>
<path d="M432 408H420V420H432V408Z" fill="black"/>
<path d="M24 420H12V432H24V420Z" fill="black"/>
<path d="M48 420H36V432H48V420Z" fill="black"/>
<path d="M60 420H48V432H60V420Z" fill="black"/>
<path d="M72 420H60V432H72V420Z" fill="black"/>
<path d="M96 420H84V432H96V420Z" fill="black"/>
<path d="M120 420H108V432H120V420Z" fill="black"/>
<path d="M132 420H120V432H132V420Z" fill="black"/>
<path d="M144 420H132V432H144V420Z" fill="black"/>
<path d="M156 420H144V432H156V420Z" fill="black"/>
<path d="M192 420H180V432H192V420Z" fill="black"/>
<path d="M228 420H216V432H228V420Z" fill="black"/>
<path d="M252 420H240V432H252V420Z" fill="black"/>
<path d="M264 420H252V432H264V420Z" fill="black"/>
<path d="M276 420H264V432H276V420Z" fill="black"/>
<path d="M288 420H276V432H288V420Z" fill="black"/>
<path d="M408 420H396V432H408V420Z" fill="black"/>
<path d="M420 420H408V432H420V420Z" fill="black"/>
<path d="M456 420H444V432H456V420Z" fill="black"/>
<path d="M24 432H12V444H24V432Z" fill="black"/>
<path d="M96 432H84V444H96V432Z" fill="black"/>
<path d="M132 432H120V444H132V432Z" fill="black"/>
<path d="M144 432H132V444H144V432Z" fill="black"/>
<path d="M168 432H156V444H168V432Z" fill="black"/>
<path d="M180 432H168V444H180V432Z" fill="black"/>
<path d="M216 432H204V444H216V432Z" fill="black"/>
<path d="M300 432H288V444H300V432Z" fill="black"/>
<path d="M324 432H312V444H324V432Z" fill="black"/>
<path d="M336 432H324V444H336V432Z" fill="black"/>
<path d="M372 432H360V444H372V432Z" fill="black"/>
<path d="M396 432H384V444H396V432Z" fill="black"/>
<path d="M408 432H396V444H408V432Z" fill="black"/>
<path d="M444 432H432V444H444V432Z" fill="black"/>
<path d="M24 444H12V456H24V444Z" fill="black"/>
<path d="M36 444H24V456H36V444Z" fill="black"/>
<path d="M48 444H36V456H48V444Z" fill="black"/>
<path d="M60 444H48V456H60V444Z" fill="black"/>
<path d="M72 444H60V456H72V444Z" fill="black"/>
<path d="M84 444H72V456H84V444Z" fill="black"/>
<path d="M96 444H84V456H96V444Z" fill="black"/>
<path d="M156 444H144V456H156V444Z" fill="black"/>
<path d="M204 444H192V456H204V444Z" fill="black"/>
<path d="M216 444H204V456H216V444Z" fill="black"/>
<path d="M240 444H228V456H240V444Z" fill="black"/>
<path d="M348 444H336V456H348V444Z" fill="black"/>
<path d="M360 444H348V456H360V444Z" fill="black"/>
<path d="M444 444H432V456H444V444Z" fill="black"/>
<path d="M456 444H444V456H456V444Z" fill="black"/>
<path d="M226.699 228.568L240.296 222.599L219.185 234.632L215.654 227.04L216.366 227.539L216.59 227.696L216.83 227.83C218.238 228.621 220.195 229.41 222.578 229.41C223.949 229.41 225.267 229.143 226.524 228.642L226.612 228.607L226.699 228.568ZM295.5 225.174C295.5 216.562 292.905 208.465 288.528 201.426L289.092 201.178L286.417 198.065L285.607 196.774L285.407 196.888L284.252 195.544C273.155 182.626 255.126 174.5 235.074 174.5C202.758 174.5 174.5 196.258 174.5 225.284C174.5 240.502 182.539 254.02 194.671 263.153C194.376 264.263 194.04 265.506 193.721 266.69C193.612 267.092 193.506 267.487 193.403 267.867C193.155 268.787 192.93 269.629 192.765 270.26C192.684 270.572 192.61 270.861 192.554 271.091C192.535 271.171 192.513 271.265 192.491 271.361C192.309 271.978 192.073 272.959 192.073 274.094C192.073 278.21 195.37 281.357 199.36 281.357C200.56 281.357 202.114 281.045 203.498 280.033L215.078 273.344C215.189 273.282 215.28 273.24 215.348 273.213C215.358 273.215 215.368 273.217 215.379 273.219C215.418 273.228 215.456 273.237 215.492 273.246C221.583 275.008 228.197 275.958 234.926 275.958C267.242 275.958 295.5 254.2 295.5 225.174Z" fill="#09BB07" stroke="white" stroke-width="11"/>
</svg>
