<svg width="512" height="512" viewBox="0 0 512 512" fill="none" xmlns="http://www.w3.org/2000/svg">
<path d="M464.742 256C464.742 311.362 442.75 364.456 403.603 403.603C364.456 442.75 311.362 464.742 256 464.742C200.638 464.742 147.544 442.75 108.397 403.603C69.25 364.456 47.2576 311.362 47.2576 256C47.2576 200.638 69.25 147.544 108.397 108.397C147.544 69.25 200.638 47.2576 256 47.2576C311.362 47.2576 364.456 69.25 403.603 108.397C442.75 147.544 464.742 200.638 464.742 256Z" fill="black"/>
<path d="M273.135 113.749L275.831 113.306L278.63 113.118L281.463 113.203L284.331 113.562L287.181 114.176L289.997 115.063L292.745 116.19L295.39 117.555L297.916 119.142L300.254 120.934L302.387 122.931L304.299 125.082L305.954 127.386L307.337 129.792L308.48 132.13L309.623 134.502L310.75 136.892L311.876 139.315L313.003 141.756L314.112 144.213L316.297 149.231L317.389 151.774L318.464 154.351L319.522 156.928L321.638 162.184L322.679 164.83L323.703 167.509L324.71 170.206L325.717 172.919L327.697 178.415L328.67 181.18L330.581 186.778L331.503 189.594L332.425 192.427L333.329 195.277L334.234 198.144L335.104 201.011L335.872 204.117L336.282 207.258L336.35 210.398L336.06 213.521L335.428 216.559L334.455 219.494L333.158 222.276L331.537 224.887L329.643 227.277L327.475 229.427L325.069 231.287L322.441 232.858L319.642 234.12L316.689 235.042L313.651 235.622L310.528 235.861L307.371 235.725L304.213 235.247L301.124 234.411L298.103 233.233L295.219 231.714L292.506 229.905L289.98 227.806L287.693 225.451L285.679 222.874L283.938 220.092L282.522 217.139L281.429 214.084L280.576 211.149L278.835 205.346L277.948 202.462L277.077 199.578L276.19 196.727L275.319 193.877L274.432 191.044L273.545 188.228L272.64 185.429L271.753 182.647L270.865 179.883L269.961 177.135L269.073 174.404L268.169 171.691L267.281 168.994L266.377 166.332L265.489 163.686L264.585 161.058L263.68 158.464L262.793 155.887L261.888 153.327L261.001 150.801L260.096 148.292L259.209 145.818L258.321 143.36L257.434 140.936L256.649 138.342L256.205 135.748L256.085 133.171L256.29 130.628L256.819 128.171L257.655 125.832L258.782 123.614L260.164 121.566L261.82 119.706L263.714 118.05L265.813 116.616L268.1 115.405L270.558 114.449L273.135 113.749Z" fill="white"/>
<path d="M353.826 101.888L355.772 101.905L357.871 102.178L360.073 102.673L362.359 103.407L364.715 104.363L367.121 105.54L369.527 106.906L371.917 108.476L374.255 110.199L376.508 112.094L378.675 114.108L380.706 116.224L382.566 118.443L384.256 120.712L385.724 122.88L387.191 125.064L388.625 127.283L390.059 129.536L391.458 131.806L392.823 134.11L394.189 136.431L395.52 138.769L396.851 141.141L398.131 143.531L399.411 145.937L400.657 148.378L401.886 150.835L403.081 153.31L404.258 155.819L405.419 158.327L406.545 160.87L407.654 163.43L408.73 166.007L409.788 168.602L410.812 171.213L411.819 173.841L412.809 176.486L413.764 179.149L414.686 181.828L415.59 184.525L416.461 187.238L417.263 190.123L417.826 193.024L418.15 195.874L418.219 198.656L418.065 201.335L417.638 203.861L416.99 206.234L416.102 208.401L414.993 210.33L413.679 212.019L412.16 213.436L410.47 214.562L408.61 215.364L406.63 215.859L404.531 216.013L402.364 215.859L400.128 215.347L397.858 214.528L395.588 213.384L393.335 211.934L391.151 210.193L389.052 208.179L387.072 205.943L385.229 203.486L383.556 200.84L382.071 198.059L380.791 195.157L379.75 192.205L378.863 189.389L377.958 186.607L377.037 183.825L376.081 181.077L375.108 178.33L374.118 175.599L373.111 172.885L372.087 170.206L371.046 167.526L369.988 164.881L368.896 162.236L367.787 159.624L366.677 157.03L365.534 154.453L364.373 151.91L363.196 149.384L362.018 146.876L360.806 144.401L359.578 141.926L358.349 139.503L357.086 137.096L355.823 134.707L354.526 132.352L353.229 130.014L351.915 127.71L350.583 125.44L349.235 123.187L347.938 120.815L346.863 118.477L346.061 116.207L345.515 114.022L345.242 111.957V110.046L345.498 108.288L346.01 106.718L346.761 105.352L347.75 104.192L348.979 103.27L350.396 102.571L352.017 102.11L353.826 101.888Z" fill="white"/>
</svg>
