<svg width="146" height="146" viewBox="0 0 146 146" fill="none" xmlns="http://www.w3.org/2000/svg">
<g clip-path="url(#clip0_508_2)">
<path d="M137 73C137 108.346 108.346 137 73 137C37.6538 137 9 108.346 9 73C9 37.6538 37.6538 9 73 9C108.346 9 137 37.6538 137 73Z" fill="black"/>
<path d="M137 73C137 37.6538 108.346 9 73 9C37.6538 9 9 37.6538 9 73C9 108.346 37.6538 137 73 137C108.346 137 137 108.346 137 73ZM146 73C146 113.317 113.317 146 73 146C32.6832 146 0 113.317 0 73C0 32.6832 32.6832 0 73 0C113.317 0 146 32.6832 146 73Z" fill="white"/>
<path d="M60.5 97.5H78V106.5H51.5V65H60.5V97.5Z" fill="white"/>
<path fill-rule="evenodd" clip-rule="evenodd" d="M92 40C103.046 40 112 48.9543 112 60C112 71.0457 103.046 80 92 80C80.9543 80 72 71.0457 72 60C72 48.9543 80.9543 40 92 40ZM92 49C85.9249 49 81 53.9249 81 60C81 66.0751 85.9249 71 92 71C98.0751 71 103 66.0751 103 60C103 53.9249 98.0751 49 92 49Z" fill="white"/>
<path d="M42 74H23V65H42V74Z" fill="white"/>
</g>
<defs>
<clipPath id="clip0_508_2">
<rect width="146" height="146" fill="white"/>
</clipPath>
</defs>
</svg>
