<svg width="1199" height="308" xmlns="http://www.w3.org/2000/svg" xmlns:xlink="http://www.w3.org/1999/xlink"><defs><path id="a" d="M.526.685h134.735v193H.526z"/></defs><g fill="none" fill-rule="evenodd"><path d="M91.246 184.418c3.655 0 7.312-.057 10.965.02 2.228.047 3.402-.186 2.508-3.02-4.175-13.23-8.146-26.523-12.212-39.788-.21-.688-.623-1.314-.942-1.968-.343.55-.824 1.06-1.007 1.66-4.101 13.432-8.164 26.875-12.25 40.312-.706 2.323.346 2.875 2.472 2.81 3.486-.106 6.977-.03 10.466-.026zM93.182 0c4.766 14.078 9.418 28.196 14.315 42.23 25.58 73.3 51.19 146.592 76.927 219.839 1.409 4.01 1.37 5.239-3.43 5.136-13.972-.302-27.957-.22-41.935-.023-3.236.046-4.681-1.058-5.717-3.992-3.143-8.894-6.66-17.658-9.795-26.554-.93-2.641-2.227-3.514-5.023-3.492-17.307.127-34.616.135-51.924-.007-2.857-.024-4.08.985-4.998 3.55-3.236 9.04-6.807 17.96-10.004 27.014-.94 2.662-2.248 3.492-5.04 3.463-14.144-.145-28.293-.202-42.436.019-4.134.064-4.884-.72-3.46-4.768 20.112-57.133 40.06-114.322 60.066-171.491 10.44-29.832 20.92-59.65 31.364-89.481.154-.438.066-.961.09-1.443h1z" fill="#DCDCDC"/><g transform="translate(1063 79.435)"><mask id="b" fill="#fff"><use xlink:href="#a"/></mask><path d="M135.261 193.685c-1.276-1.003-2.659-1.897-3.814-3.024-25.94-25.332-51.856-50.691-77.776-76.043-.832-.814-1.578-1.775-2.552-2.354-.349-.207-1.707.4-1.814.83-.273 1.098-.104 2.305-.104 3.468 0 21.763-.075 43.525.071 65.287.025 3.67-.602 5.277-4.826 5.169-13.148-.341-26.307-.33-39.46-.217-3.456.03-4.466-.99-4.46-4.484C.63 123.01.596 63.703.63 4.396c0-1.237.427-2.474.654-3.711 1.08.675 2.264 1.225 3.218 2.044 25.752 22.089 51.481 44.206 77.211 66.319 1.01.867 1.97 1.8 3.034 2.592.61.452 1.388.68 2.09 1.008.178-.753.508-1.505.512-2.258.037-8.805.025-17.61.026-26.414 0-11.463.145-22.93-.085-34.387-.07-3.59 1.104-4.4 4.51-4.36 14.485.175 28.975.068 43.462.063v188.393z" fill="#DCDCDC" mask="url(#b)"/></g><path d="M373.64 20.613c38.794 0 77.588.094 116.38-.122 4.677-.026 6.478 1.482 8.092 5.75 16.76 44.31 33.784 88.523 50.77 132.749.505 1.314 1.397 2.48 2.109 3.716.642-1.25 1.408-2.453 1.909-3.757 16.995-44.211 34.023-88.408 50.842-132.686 1.575-4.15 3.342-5.791 8.083-5.78 75.255.185 150.51.169 225.766.029 4.254-.008 6.47 1.299 8.42 5.04 6.669 12.798 13.74 25.386 20.65 38.058 2.765 5.066 2.758 5.08-2.913 5.08-72.092.003-144.184.049-216.275-.11-4.565-.01-6.484 1.266-8.118 5.625-28.665 76.464-57.553 152.844-86.39 229.243-.234.619-.335 1.306-.657 1.87-.428.752-1.013 1.416-1.531 2.117-.392-.688-.881-1.341-1.161-2.071-3.853-10.051-7.705-20.102-11.501-30.173-25.347-67.253-50.715-134.497-75.916-201.804-1.316-3.514-2.765-4.823-6.6-4.79-21.976.195-43.955.207-65.93-.005-4.057-.041-4.876 1.22-4.87 5.007.112 62.619.08 125.238.079 187.857 0 6.51-.003 6.513-6.28 6.514-12.82.003-25.644-.177-38.458.1-4.258.094-5.18-1.306-5.172-5.323.119-62.62.094-125.238.069-187.857-.003-7.02.897-6.176-5.981-6.183-32.8-.033-65.6-.011-98.398-.02-5.2-.001-5.223-.038-2.808-4.597 6.909-13.042 13.962-26.01 20.673-39.152 1.67-3.271 3.566-4.422 7.24-4.41 39.293.137 78.586.085 117.878.085M961.326 221.747c24.914.559 46.46-19.765 47.109-44.437.703-26.636-19.772-48.14-46.168-48.488-24.608-.325-46.291 20.2-46.807 44.308-.58 27.052 19.2 48.019 45.866 48.617m.777-140.279c51.872.15 93.978 42.173 94.012 93.824.034 51.873-42.3 93.988-94.378 93.89-52.054-.1-94.263-42.415-94.017-94.257.246-51.637 42.63-93.606 94.383-93.457" fill="#DCDCDC"/><path d="M265.517 81.387c21.223.284 40.067 7.078 57.027 19.601 3.258 2.405 3.719 3.94.716 7.163-8.608 9.24-16.864 18.811-25.095 28.392-1.943 2.263-3.091 2.782-5.9.887-16.931-11.425-34.51-12.019-51.997-1.5-16.294 9.8-24.87 29.025-21.002 48.041 3.913 19.248 15.855 31.757 35.032 36.752 13.868 3.611 26.73.625 38.283-7.593 2.636-1.875 3.864-1.872 5.975.607a1258.969 1258.969 0 0025.677 29.208c2.206 2.431 2.278 3.744-.383 5.777-20.913 15.98-44.38 23.346-70.555 19.442-40.274-6.006-66.911-28.964-78.441-67.72-16.022-53.864 21.014-109.964 76.782-117.772 4.597-.643 9.253-.866 13.88-1.285M735.449 266.352c-8.986 0-17.976-.146-26.956.072-3.53.087-4.981-.606-4.866-4.578.302-10.45.238-20.918.026-31.372-.07-3.452.902-4.518 4.43-4.498 11.305.063 22.653.282 33.91-.55 12.59-.932 16.808-9.796 9.383-20.094-6.874-9.534-14.973-18.187-22.488-27.265-9.584-11.578-18.132-23.734-21.64-38.71-2.245-9.592-1.957-19.115.946-28.476 4.955-15.978 19.325-26.62 36.83-26.949 15.804-.298 31.618-.004 47.426-.14 3.096-.027 4.005 1.015 3.966 4.014-.142 10.623-.154 21.251.008 31.873.046 3.014-.788 4.054-3.916 3.977-8.15-.203-16.307-.09-24.46-.052-1.991.01-4.008.047-5.962.37-9.283 1.534-12.451 7.398-7.694 15.683 3.272 5.697 7.698 10.768 11.873 15.905 7.225 8.888 15.049 17.315 21.902 26.474 8.992 12.018 14.99 25.477 15.337 40.783.5 22.113-12.262 38.36-34.252 42.086-11.054 1.873-22.504 1.408-33.776 2a49.932 49.932 0 00-.027-.553M641.945 174.935c0-28.739.079-57.479-.092-86.217-.023-4.007 1.18-5.035 5.068-4.967 12.984.227 25.976.203 38.962.01 3.543-.054 4.494 1.096 4.489 4.525-.088 57.976-.087 115.953-.002 173.928.005 3.316-1.083 4.227-4.303 4.19-13.153-.155-26.311-.2-39.463.022-3.776.064-4.76-1.067-4.74-4.776.147-28.904.08-57.81.08-86.715M811.285 175.458c-.001-28.724.088-57.448-.097-86.17-.028-4.293.969-5.684 5.483-5.566 12.639.33 25.296.227 37.94.043 3.506-.05 4.927.585 4.918 4.559-.133 57.946-.115 115.89-.03 173.835.006 3.22-.86 4.294-4.182 4.25-13.145-.171-26.298-.218-39.441.023-3.851.07-4.685-1.19-4.667-4.804.137-28.724.076-57.447.076-86.17M459.856 176.034c0 28.71-.063 57.423.079 86.134.017 3.722-.694 5.139-4.827 5.045a837.074 837.074 0 00-38.423 0c-4.13.094-4.834-1.323-4.827-5.04.108-57.588.108-115.177-.002-172.766-.007-3.568.668-4.85 4.574-4.768 12.97.27 25.952.268 38.923 0 3.894-.08 4.602 1.18 4.585 4.763-.144 28.876-.082 57.754-.082 86.632" fill="#DCDCDC"/></g></svg>