<svg class="icon" viewBox="0 0 1024 1024" xmlns="http://www.w3.org/2000/svg" width="200" height="200"><defs><style/></defs><path d="M512 1024c282.767 0 512-229.233 512-512S794.767 0 512 0 0 229.233 0 512s229.233 512 512 512zm-50.033-701.44v-83.907h92.795v83.887h189.4v36.864l-189.4 1.27v52.12l156.386 1.27s-2.827 29.246-22.651 82.412c-19.805 53.166-38.4 80.282-38.4 80.282l303.431 99.574s-10.895 28.467-24.002 53.452C916.398 754.73 898.15 781.6 898.15 781.6L608.154 644.137s-54.846 60.662-110.777 87.347c-55.91 26.686-120.156 43.295-189.706 26.89-69.55-16.384-118.907-60.866-110.428-142.97 8.5-82.125 96.276-110.429 168.468-110.429 72.213 0 209.204 46.777 209.204 46.777s11.51-25.805 22.691-55.276c11.182-29.491 14.357-53.166 14.357-53.166H320.246v-29.245h141.721v-55.931l-176.68 1.27V322.54h176.68zm78.03 287.662S453.14 713.421 350.821 713.421c-102.338 0-123.842-49.009-123.842-84.275 0-35.246 21.299-73.565 108.339-79.115 87.081-5.53 204.677 60.212 204.677 60.212z" fill="#dcdcdc"/></svg>