<svg class="icon" viewBox="0 0 1024 1024" xmlns="http://www.w3.org/2000/svg" width="200" height="200"><defs><style/></defs><path d="M860.164 0C950.276 0 1024 73.879 1024 164.17v531.495s-32.767-4.106-180.22-53.353c-40.964-14.367-96.258-34.89-157.696-57.462 36.863-63.61 65.53-137.489 86.012-215.468H569.344v-71.828h247.809v-41.042H569.345V135.44H468.992c-18.43 0-18.43 18.466-18.43 18.466v104.66H200.706v41.042h249.856v69.771h-206.85v41.04h401.41c-14.338 51.306-34.814 98.502-57.342 141.597-129.026-43.096-268.294-77.977-356.356-55.407-55.3 14.362-92.163 38.988-112.642 63.615-96.255 116.968-26.624 295.502 176.13 295.502 120.832 0 237.566-67.718 327.678-178.534C757.76 742.86 1024 853.678 1024 853.678v6.154C1024 950.124 950.274 1024 860.164 1024H163.84C73.728 1024 0 950.124 0 859.832V164.171C0 73.879 73.728 0 163.84 0h696.324zm-610.31 556.12c94.213-10.26 182.274 26.68 286.724 77.983-75.776 94.392-167.936 153.907-260.097 153.907-159.746 0-206.85-125.174-126.976-194.952 26.621-22.573 73.728-34.882 100.349-36.938z" fill="#dcdcdc"/></svg>