<?xml version="1.0" standalone="no"?><!DOCTYPE svg PUBLIC "-//W3C//DTD SVG 1.1//EN" "http://www.w3.org/Graphics/SVG/1.1/DTD/svg11.dtd"><svg t="1553428114017" class="icon" style="" viewBox="0 0 1024 1024" version="1.1" xmlns="http://www.w3.org/2000/svg" p-id="5613" xmlns:xlink="http://www.w3.org/1999/xlink" width="200" height="200"><defs><style type="text/css"></style></defs><path d="M860.164096 0C950.276096 0 1024 73.878528 1024 164.169728V695.66464s-32.766976-4.105216-180.219904-53.352448c-40.964096-14.36672-96.258048-34.890752-157.696-57.46176 36.862976-63.61088 65.529856-137.489408 86.011904-215.468032H569.344V297.55392h247.809024V256.512h-247.808V135.440384H468.992c-18.429952 0-18.429952 18.465792-18.429952 18.465792v104.659968h-249.856v41.04192h249.856v69.771264H243.712v41.039872h401.410048c-14.338048 51.305472-34.813952 98.501632-57.341952 141.596672C458.754048 508.919808 319.485952 474.039296 231.424 496.60928c-55.299072 14.3616-92.163072 38.987776-112.642048 63.614976C22.526976 677.19168 92.157952 855.72608 294.912 855.72608c120.832 0 237.565952-67.718144 327.677952-178.5344C757.76 742.8608 1024 853.67808 1024 853.67808v6.15424c0 90.2912-73.725952 164.16768-163.835904 164.16768H163.84C73.728 1024 0 950.12352 0 859.83232V164.170752C0 73.878528 73.728 0 163.84 0h696.324096zM249.853952 556.120064C344.067072 545.860608 432.128 582.79936 536.578048 634.102784c-75.776 94.39232-167.936 153.9072-260.097024 153.9072-159.746048 0-206.850048-125.17376-126.976-194.952192 26.620928-22.573056 73.728-34.881536 100.348928-36.937728z" p-id="5614" fill="#dcdcdc"></path></svg>