<svg width="200" height="200" xmlns="http://www.w3.org/2000/svg"><path d="M196.982 124.201C183.632 177.784 129.375 210.367 75.8 197 22.251 183.75-10.365 129.376 3.018 75.877c13.333-53.624 67.607-86.232 121.148-72.89 53.583 13.374 86.182 67.623 72.816 121.23v-.016zm-52.916-38.44c2-13.25-8.117-20.417-22-25.25l4.5-17.942-10.958-2.75-4.375 17.558c-2.875-.725-5.875-1.391-8.866-2.083l4.383-17.725-11-2.75-4.5 18.042c-2.375-.559-4.708-1.1-7-1.667l-15.125-3.75L66.21 59.17s8.125 1.875 7.958 1.967c4.458 1.133 5.25 4.05 5.125 6.383L66.984 116.85c-.625 1.384-2 3.384-5.117 2.617.125.167-8-2-8-2l-5.5 12.583 14.25 3.55 7.75 2.017-4.5 18.25 11 2.724 4.5-18.083c3 .834 5.875 1.584 8.75 2.275l-4.25 17.95 11 2.75 4.541-18.25c18.667 3.559 32.75 2.142 38.666-14.783 4.75-13.641-.25-21.5-10.141-26.633 7.116-1.608 12.5-6.333 14-16.083h.083l.05.025zm-25.083 35.165c-3.367 13.667-26.308 6.25-33.75 4.417l6-24.166c7.467 1.916 31.308 5.583 27.75 19.75zm3.417-35.333c-3.084 12.417-22.183 6.125-28.375 4.584l5.45-22c6.2 1.5 26.141 4.367 22.916 17.366v.05h.009z" fill="#DCDCDC" fill-rule="nonzero"/></svg>