<svg width="20" height="19" viewBox="0 0 20 19" fill="none" xmlns="http://www.w3.org/2000/svg">
<path fill-rule="evenodd" clip-rule="evenodd" d="M10.2865 4.8708C11.055 4.8708 11.7809 5.08428 12.0477 5.19102C11.7275 4.07024 10.0196 1.34833 7.88482 1.02811C5.95665 0.738881 4.95729 2.71363 4.9916 5.48428C2.90457 5.87636 1.49142 6.68301 1 7.53418C2.35797 6.96906 3.71233 6.58718 5.03687 6.38335C5.17739 8.00665 5.64038 9.82796 6.44381 11.5955C6.92889 12.6627 7.46499 13.5992 8.0212 14.403C7.09954 14.7213 6.39142 14.6707 6.04488 14.2929C5.24662 13.4226 5.52496 12.0047 5.87328 11.4339C5.48901 10.7683 5.31097 10.033 5.26998 9.7485C4.45947 10.5862 2.95616 13.4262 3.74625 15.4351C4.45928 17.2481 6.66611 17.1279 9.04618 15.7161C10.3872 17.2297 11.7359 18 12.6882 18C11.5767 17.1501 10.6105 16.22 9.7969 15.2317C11.1361 14.2978 12.4862 12.9833 13.6184 11.3994C14.2611 10.5002 14.7806 9.61981 15.1882 8.78149C15.8382 9.38426 16.1065 9.97911 15.9612 10.4407C15.6067 11.5672 14.2396 12.0351 13.5711 12.0189C13.1868 12.6844 12.639 13.2063 12.4131 13.384C13.5439 13.6671 16.755 13.549 18.0998 11.8603C19.2882 10.3679 18.1549 8.56189 15.8417 7.2149C16.5262 5.23724 16.5295 3.63255 16.0427 2.78936C15.8565 4.22157 15.5191 5.56244 15.0471 6.79292C13.5424 6.06414 11.672 5.52351 9.66864 5.32863C8.57599 5.22234 7.56018 5.2121 6.63538 5.27674C6.81803 4.30151 7.21899 3.70228 7.72471 3.5899C8.87752 3.33372 9.96628 4.28372 10.2865 4.8708ZM14.429 8.19184C13.4314 7.53003 11.9738 6.90922 10.1003 6.50227C8.96237 6.25509 7.76609 6.16209 6.53393 6.22773C6.48952 7.39785 6.68998 8.90237 7.24437 10.6348C7.61762 11.8012 8.17081 12.9382 8.89537 14.0206C9.93752 13.4761 11.1514 12.5455 12.3861 11.1864C13.1794 10.3132 13.8656 9.30907 14.429 8.19184Z" fill="#DCDCDC"/>
</svg>
