<svg width="40" height="19" viewBox="0 0 40 19" fill="none" xmlns="http://www.w3.org/2000/svg">
<path fill-rule="evenodd" clip-rule="evenodd" d="M38.8992 7.20582C38.9335 7.0882 38.9678 6.97058 39 6.85261L38.9188 6.83194C38.893 6.609 38.8706 6.38545 38.8482 6.16191C38.7962 5.64271 38.7441 5.12338 38.6496 4.61162C38.5449 4.04454 38.3947 3.46695 38.1411 2.95185C38.0034 2.6724 37.6383 2.42754 37.321 2.31951C37.027 2.2194 36.7183 2.1607 36.4094 2.102C36.1064 2.0444 35.8034 1.98679 35.5142 1.89005C35.1446 1.7664 34.788 1.60673 34.4311 1.44697C34.1312 1.31269 33.8311 1.17835 33.5231 1.06529C33.3494 1.00157 33.1506 1.00294 32.9517 1.00431C32.861 1.00493 32.7703 1.00556 32.682 1C32.7247 1.05194 32.7659 1.10531 32.8072 1.15869C32.8981 1.27632 32.989 1.39397 33.0955 1.49624C33.1798 1.57726 33.2737 1.65182 33.3673 1.72619C33.703 1.99292 34.0355 2.25714 33.9151 2.80797L33.9084 2.83846C33.8043 3.31501 33.6985 3.79887 33.6793 4.28257C33.6437 5.17649 33.6286 6.07592 33.6891 6.9676C33.7609 8.02631 33.9053 9.08132 34.0493 10.1339L34.0523 10.1556C34.0831 10.3808 34.1507 10.6008 34.2184 10.8212C34.2639 10.9693 34.3094 11.1176 34.3439 11.2677C34.3573 11.3262 34.3713 11.3848 34.3852 11.4435C34.4563 11.7418 34.528 12.0431 34.535 12.3441C34.5413 12.6118 34.4981 12.8809 34.455 13.15C34.3635 13.7202 34.272 14.2904 34.6508 14.8479C34.885 15.1924 34.9513 15.5257 34.3678 15.6163C34.3486 15.6194 34.3203 15.8123 34.359 15.8851C34.6432 16.4199 34.4723 16.8608 34.0936 17.2718C34.0637 17.3042 34.0482 17.3493 34.0328 17.3943C34.0256 17.4152 34.0185 17.4361 34.0099 17.4558C34.0288 17.463 34.0483 17.473 34.0679 17.4831C34.1102 17.5048 34.1524 17.5265 34.1884 17.5192C34.3188 17.4923 34.4483 17.4598 34.5776 17.4273C34.7798 17.3765 34.9818 17.3257 35.1872 17.2968C35.3571 17.2729 35.53 17.2697 35.703 17.2666C35.8626 17.2637 36.0222 17.2608 36.1796 17.2416C36.8465 17.1604 37.4898 16.9203 37.623 16.2269C37.8601 14.9927 38.0107 13.7396 38.1316 12.4884C38.176 12.0289 38.169 11.565 38.1621 11.1007C38.1577 10.8103 38.1533 10.5195 38.1615 10.2299C38.1658 10.0804 38.2263 9.93028 38.2854 9.78368C38.2987 9.75076 38.3119 9.71798 38.3243 9.68546C38.3632 9.58426 38.409 9.48486 38.4549 9.38557C38.536 9.20977 38.6169 9.03432 38.6582 8.85009C38.6882 8.71636 38.6813 8.57514 38.6743 8.43367C38.6679 8.3017 38.6614 8.16946 38.6848 8.04291C38.7372 7.76054 38.8182 7.48318 38.8992 7.20582ZM35.6366 11.8978L35.6875 11.8978C35.6875 11.6386 35.6894 11.3793 35.6913 11.1201C35.6961 10.478 35.7009 9.83597 35.6764 9.19498C35.6687 8.99472 35.6152 8.79669 35.5616 8.59828C35.5145 8.42399 35.4674 8.2494 35.4511 8.07274C35.3544 7.02175 35.2875 5.96782 35.2579 4.91377C35.2573 4.8915 35.932 4.71987 36.1503 4.8474C36.8368 5.24824 37.3278 5.85415 37.4594 6.65565C37.5882 7.44059 37.3245 8.1497 37.0565 8.87044C37.0275 8.94825 36.9985 9.02618 36.97 9.10437C36.8376 9.46713 36.8398 9.88017 36.842 10.2878C36.8427 10.4103 36.8433 10.5324 36.8403 10.6524C36.8372 10.7748 36.8356 10.8971 36.8339 11.0192C36.8227 11.8296 36.8116 12.6323 36.3964 13.3972C36.2407 13.6839 36.1597 14.0085 36.0786 14.3339C36.0352 14.5078 35.9917 14.682 35.9368 14.8506C35.9179 14.9087 35.8639 14.9561 35.81 15.0034C35.7851 15.0252 35.7601 15.0471 35.7387 15.07C35.7279 15.0404 35.7142 15.0107 35.7005 14.9811C35.671 14.9174 35.6415 14.8536 35.641 14.7896C35.6353 14.0359 35.6358 13.2821 35.6363 12.5284L35.6366 11.8978Z" fill="#DCDCDC"/>
<path fill-rule="evenodd" clip-rule="evenodd" d="M27.8669 1.39349C27.991 1.3723 28.1156 1.34373 28.2402 1.31516C28.5212 1.25077 28.8022 1.18637 29.0767 1.2064C29.4142 1.23093 29.7463 1.32538 30.0786 1.41988C30.2289 1.46263 30.3792 1.50539 30.5301 1.54169C30.6797 1.57768 30.8298 1.61176 30.9799 1.64583C31.1194 1.6775 31.2589 1.70917 31.3981 1.74239C31.418 1.74714 31.4381 1.75168 31.4583 1.75624C31.548 1.7765 31.639 1.79704 31.7183 1.83763C32.6192 2.299 33.232 3.6925 32.988 4.65275C32.9348 4.86228 32.8997 5.07723 32.8647 5.29185C32.8137 5.60472 32.7628 5.91687 32.6559 6.21047C32.46 6.74838 32.08 7.1786 31.4522 7.32027C31.4009 7.33183 31.3581 7.46264 31.3523 7.54091C31.3501 7.57216 31.4618 7.64539 31.5167 7.64101C31.8604 7.61386 32.4023 8.15356 32.3738 8.48072C32.3714 8.5082 32.4155 8.53534 32.4641 8.56526C32.5137 8.59582 32.568 8.62926 32.5823 8.66889L32.6105 8.74677C32.7085 9.01703 32.808 9.29158 32.8456 9.5721C32.8705 9.75775 32.871 9.94657 32.8715 10.1354C32.872 10.3296 32.8725 10.5239 32.8996 10.7146C32.9139 10.8142 32.9946 10.9035 33.0767 10.9941C33.1228 11.0451 33.1693 11.0965 33.2045 11.1504C33.2608 11.2364 33.3177 11.3353 33.3294 11.4335C33.3414 11.5347 33.3554 11.6362 33.3693 11.7378C33.4155 12.0742 33.4618 12.4117 33.4412 12.7447C33.4368 12.8176 33.4183 12.8897 33.4005 12.9593C33.3464 13.1706 33.2981 13.3594 33.6622 13.4817C33.7444 13.5093 33.7596 13.8331 33.7434 14.0148C33.6516 15.0404 33.5468 16.0649 33.433 17.0884C33.3955 17.4252 33.1929 17.5094 32.9067 17.3174C32.8106 17.253 32.7217 17.1782 32.6328 17.1035C32.5272 17.0147 32.4218 16.926 32.3047 16.855C32.1726 16.7748 32.0321 16.7075 31.8917 16.6402C31.7386 16.5668 31.5856 16.4934 31.4435 16.4034C31.3246 16.3282 31.1647 16.1215 31.1972 16.0427C31.2405 15.938 31.2859 15.8338 31.3311 15.7297C31.5897 15.1352 31.8471 14.5434 31.7228 13.8625C31.6758 13.6056 31.6356 13.3464 31.5954 13.0871C31.491 12.4139 31.3865 11.7402 31.1641 11.1062C31.0621 10.8156 31.0436 10.5485 31.0251 10.2821C31.0159 10.1489 31.0066 10.0157 30.987 9.87992C30.946 9.59728 30.7819 9.33159 30.6178 9.06587C30.5458 8.94924 30.4738 8.83261 30.4122 8.71453C30.3965 8.72426 30.379 8.73285 30.3616 8.74144C30.3243 8.75982 30.287 8.77818 30.2672 8.80769C29.8796 9.3865 29.9711 9.99439 30.0623 10.6005C30.0912 10.7924 30.1201 10.9841 30.1337 11.1746C30.1532 11.448 30.1933 11.7199 30.2334 11.9919C30.2698 12.2383 30.3062 12.4847 30.3272 12.7323C30.3353 12.8279 30.287 12.9278 30.2385 13.0281C30.2148 13.0772 30.191 13.1264 30.1738 13.1752C30.1583 13.219 30.1438 13.2669 30.1458 13.3121C30.1551 13.5228 30.1654 13.7334 30.1757 13.944L30.1757 13.945C30.189 14.2169 30.2024 14.4893 30.2135 14.7613C30.2148 14.7954 30.2051 14.8331 30.1956 14.8698C30.1823 14.9216 30.1695 14.9713 30.189 15.0056C30.484 15.5256 30.3801 16.0431 30.2763 16.5602C30.2111 16.8848 30.146 17.2092 30.1795 17.5339C30.1831 17.5684 30.1666 17.6048 30.1501 17.6413C30.1424 17.6582 30.1347 17.6753 30.129 17.692C30.1184 17.6784 30.1064 17.6653 30.0944 17.6522C30.0687 17.6241 30.043 17.5959 30.0305 17.563C29.715 16.7312 29.1398 16.1263 28.3711 15.6607C28.2308 15.5758 28.1156 15.2648 28.1625 15.1072C28.2407 14.8449 28.3457 14.59 28.4506 14.3351C28.5642 14.0595 28.6777 13.784 28.7571 13.4993C28.8022 13.3375 28.7691 13.157 28.7356 12.9744C28.7152 12.8631 28.6946 12.7511 28.6916 12.6421C28.6795 12.2114 28.6785 11.7796 28.6775 11.3478C28.6753 10.4527 28.6732 9.5579 28.5727 8.67352C28.4537 7.62608 28.2347 6.58922 28.0158 5.55268C27.9327 5.15917 27.8495 4.76544 27.7719 4.37145C27.6961 3.9864 27.7757 3.70475 28.1532 3.50298C28.4045 3.36865 28.6296 3.18048 28.8449 2.99298C28.9014 2.94378 28.9295 2.8637 28.9577 2.78363C28.9705 2.74718 28.9834 2.71063 28.9989 2.6771C28.9536 2.6733 28.9081 2.6704 28.8627 2.66749C28.758 2.66081 28.6533 2.65412 28.5506 2.63653C28.5309 2.63315 28.5096 2.62997 28.4876 2.62668C28.3757 2.60995 28.2445 2.59034 28.2099 2.52767C27.9297 2.02016 27.5634 1.64582 26.941 1.57174C26.8884 1.56549 26.8406 1.52057 26.7929 1.47564C26.7707 1.45482 26.7486 1.434 26.726 1.41702C26.7479 1.40682 26.7696 1.39408 26.7914 1.38134C26.8388 1.35361 26.8863 1.32587 26.9346 1.32423C27.1588 1.31666 27.3833 1.31782 27.6078 1.31898C27.6896 1.3194 27.7714 1.31982 27.8532 1.31982L27.8669 1.39349ZM29.8514 4.99456C29.8514 5.14031 29.8505 5.28609 29.8495 5.43187C29.8472 5.79918 29.8449 6.16648 29.8573 6.53332C29.8618 6.66424 29.8981 6.79412 29.9344 6.924C29.951 6.9831 29.9675 7.0422 29.981 7.1014C30.0592 7.08248 30.1516 7.07081 30.244 7.05913C30.4455 7.03368 30.6471 7.00823 30.701 6.90769C31.0013 6.34749 31.2627 5.75112 31.421 5.13932C31.5993 4.45016 30.9601 3.36345 30.2914 3.05944C30.0382 2.94429 29.8217 2.8898 29.8439 3.31343C29.8643 3.70297 29.8598 4.09372 29.8552 4.48447C29.8533 4.65453 29.8513 4.8246 29.8514 4.99456Z" fill="#DCDCDC"/>
<path fill-rule="evenodd" clip-rule="evenodd" d="M1.11226 1.84865C1.19247 1.75822 1.27268 1.66779 1.3588 1.66213C2.63598 1.57788 3.91481 1.4997 5.19422 1.4785C5.39364 1.47531 5.59567 1.58301 5.79679 1.69023C5.88328 1.73634 5.96959 1.78236 6.05547 1.81943C6.13652 1.85441 6.22257 1.88482 6.30877 1.91528C6.51452 1.98798 6.72112 2.06098 6.86257 2.19727C7.47256 2.78507 7.6313 4.45221 7.17052 5.23359C6.99654 5.52868 6.79701 5.8094 6.5974 6.09023C6.48199 6.25261 6.36654 6.41503 6.25601 6.58028C6.2101 6.64889 6.1799 6.72743 6.14969 6.80597C6.13578 6.84212 6.12188 6.87827 6.10644 6.91346C6.13878 6.92325 6.17101 6.93524 6.20325 6.94723C6.27366 6.97343 6.34409 6.99963 6.41562 7.00291C6.77658 7.01954 6.88777 7.17303 6.78446 7.51631C6.74989 7.63106 6.77777 7.86121 6.84687 7.89251C7.28677 8.09174 7.25843 8.43144 7.22961 8.77675C7.2256 8.82483 7.22158 8.87302 7.21881 8.92096C7.21344 9.01399 7.19625 9.11667 7.17898 9.21975C7.13919 9.45729 7.09904 9.69701 7.20243 9.8259C7.83426 10.6132 7.65892 11.5333 7.50988 12.3154L7.48577 12.4426C7.43534 12.7116 7.43113 12.9954 7.42688 13.281C7.41734 13.9232 7.40766 14.5752 6.87265 15.0918C6.826 15.1368 6.78136 15.2148 6.78562 15.2741C6.85004 16.1737 6.25057 16.5282 5.65312 16.8814C5.38048 17.0426 5.10826 17.2036 4.89974 17.416C4.75577 17.5627 4.50077 17.6082 4.24995 17.653C4.15327 17.6702 4.05721 17.6874 3.96837 17.7102C3.94394 17.7165 3.91304 17.6896 3.87948 17.6605C3.85321 17.6376 3.82531 17.6134 3.79761 17.6025L3.77601 17.594C3.68821 17.5592 3.59412 17.522 3.5043 17.5247C3.13256 17.5359 2.76092 17.55 2.38929 17.5641C1.99225 17.5792 1.59522 17.5943 1.19805 17.6058C1.15993 17.6069 1.10699 17.5248 1.08564 17.472C1.07714 17.451 1.13312 17.3765 1.16478 17.3733C1.85904 17.3022 1.87138 16.7573 1.88126 16.321C1.88187 16.2942 1.88246 16.2678 1.88321 16.242C1.91093 15.2819 1.90734 14.3212 1.90376 13.3603C1.90125 12.6897 1.89875 12.019 1.90689 11.3486C1.91108 11.0031 1.94372 10.6581 1.97637 10.313C2.00355 10.0257 2.03074 9.7383 2.04153 9.45049C2.04799 9.27806 2.02636 9.10479 2.00471 8.93141C1.98447 8.76933 1.96422 8.60716 1.96691 8.44551C1.96959 8.28463 1.99542 8.12415 2.02126 7.96365C2.04679 7.80506 2.07232 7.64646 2.07551 7.48746C2.07803 7.36233 2.03276 7.2363 1.98749 7.11026C1.96701 7.05324 1.94653 6.99622 1.93047 6.93928C1.92404 6.91649 1.91591 6.89368 1.90778 6.87085C1.88981 6.82039 1.87182 6.7699 1.87213 6.71956C1.87914 5.70334 1.88983 4.68715 1.90653 3.67102C1.90715 3.63378 1.93091 3.59765 1.95514 3.56082C1.97119 3.53641 1.98744 3.51169 1.99731 3.48613L2.01375 3.44397C2.05356 3.34235 2.09385 3.23952 2.10727 3.13409C2.10884 3.12194 2.07394 3.10909 2.031 3.09328C1.98556 3.07655 1.93111 3.0565 1.90136 3.03046C1.67481 2.83193 1.45217 2.62914 1.22954 2.42635C1.15308 2.3567 1.07662 2.28706 1 2.21758V1.96608C1.03781 1.93259 1.07503 1.89062 1.11226 1.84865ZM4.19113 5.08811C4.19062 5.4215 4.1901 5.7549 4.19469 6.08823C4.19549 6.15044 4.23788 6.26421 4.26365 6.26493L4.27186 6.26516C4.38172 6.26819 4.54652 6.27275 4.58414 6.21309C4.61321 6.16697 4.64131 6.12006 4.66934 6.07328C4.85983 5.75534 5.04676 5.44332 5.50915 5.42786C5.5265 5.42727 5.55712 5.3901 5.55706 5.3701L5.55652 5.23538C5.55504 4.85182 5.55357 4.46816 5.54391 4.08476C5.54293 4.04628 5.54301 4.00709 5.54308 3.96782C5.54365 3.67063 5.54423 3.36848 5.09121 3.32625C5.08843 3.32599 5.08629 3.31973 5.08413 3.31342C5.08195 3.30703 5.07974 3.30058 5.07683 3.30023C5.01603 3.29306 4.9552 3.28483 4.89435 3.2766C4.71078 3.25177 4.5271 3.22693 4.34412 3.23097C4.2905 3.23217 4.20095 3.41447 4.19685 3.51602C4.184 3.83548 4.18671 4.15553 4.18941 4.47552C4.19025 4.57384 4.19108 4.67226 4.19146 4.77055C4.19146 4.8764 4.19129 4.98226 4.19113 5.08811ZM5.49319 9.13788C5.47481 9.08604 5.46268 9.04223 5.4525 9.0055C5.43503 8.94241 5.42333 8.90016 5.39567 8.87381C5.04243 8.53776 4.68228 8.20865 4.31931 7.88262C4.31188 7.87592 4.21316 7.9293 4.21119 7.95815C4.16344 8.66307 4.11886 9.3682 4.07429 10.0733C4.04837 10.4832 4.02243 10.8936 3.99589 11.3035C3.93484 12.2462 3.87259 13.1888 3.80475 14.1311C3.77787 14.5044 3.74705 14.8774 3.71622 15.2505C3.69523 15.5047 3.67423 15.7588 3.65448 16.013C3.65318 16.0296 3.68096 16.0629 3.69715 16.0642C4.08382 16.0948 5.30864 15.2622 5.29779 14.8847C5.28649 14.4926 5.37706 14.1112 5.46802 13.7282C5.6103 13.129 5.75351 12.5259 5.50899 11.8723C5.44521 11.7018 5.45172 11.4853 5.45869 11.2534C5.46518 11.0374 5.47207 10.808 5.42287 10.5902C5.34657 10.2525 5.39751 9.88762 5.44501 9.54735C5.46484 9.40531 5.48407 9.26756 5.49319 9.13788Z" fill="#DCDCDC"/>
<path fill-rule="evenodd" clip-rule="evenodd" d="M26.2721 18C26.2667 17.9916 26.2602 17.9834 26.2536 17.9752C26.2396 17.9575 26.2255 17.9399 26.2223 17.9205C26.1848 17.6916 26.1492 17.4624 26.1136 17.2331L26.1135 17.2322C26.0316 16.705 25.9497 16.1778 25.8444 15.6551C25.7947 15.4088 25.6811 15.1093 25.4916 14.9682C25.052 14.6411 25.1058 14.3361 25.3375 13.9259C25.5976 13.4652 25.8338 12.9817 25.9908 12.4814C26.0424 12.3173 25.8707 11.9932 25.7027 11.8759C25.3916 11.6585 25.0491 11.4834 24.7069 11.3084C24.5917 11.2495 24.4764 11.1906 24.3624 11.13C24.3249 11.1101 24.2413 11.1111 24.2211 11.1355C24.1855 11.1783 24.1664 11.2473 24.1687 11.3042C24.1703 11.3437 24.1711 11.3838 24.1718 11.4239C24.1745 11.5686 24.1773 11.7148 24.2207 11.8475C24.2623 11.975 24.3374 12.0921 24.4123 12.2091C24.4437 12.2581 24.4751 12.3071 24.504 12.3568C24.5228 12.3891 24.5493 12.4246 24.5757 12.46C24.6314 12.5346 24.6865 12.6083 24.6673 12.6495C24.6113 12.7687 24.4532 12.9418 24.3598 12.9296C23.5515 12.8239 22.8381 13.0608 22.1407 13.4185C22.0633 13.4582 21.8055 13.3539 21.8049 13.3141C21.8019 13.0993 21.8276 12.8758 21.8941 12.6709C21.9354 12.5433 22.003 12.4241 22.0708 12.3046C22.1092 12.2367 22.1477 12.1688 22.1815 12.0993C22.1954 12.0706 22.2014 12.0319 22.2071 11.9951C22.215 11.9443 22.2222 11.8973 22.2491 11.8849C22.7748 11.6432 22.7281 11.2543 22.6816 10.8664C22.6607 10.6918 22.6398 10.5174 22.6711 10.3567C22.6944 10.2374 22.7101 10.1148 22.7257 9.99229C22.7602 9.72294 22.7945 9.45413 22.9091 9.22248C22.9679 9.10353 22.9485 9.04916 22.9285 8.99259C22.9189 8.96553 22.9091 8.93797 22.9076 8.9026C22.8935 8.57281 22.9493 8.2391 23.0046 7.90788C23.0143 7.85025 23.0239 7.79269 23.0331 7.73525C23.04 7.69254 23.0757 7.65498 23.1118 7.61702C23.1459 7.58118 23.1804 7.54498 23.1912 7.50375C23.2505 7.27813 23.3046 7.05121 23.3587 6.82431C23.4325 6.51511 23.5064 6.20566 23.593 5.89994C23.646 5.71294 23.7193 5.53153 23.7927 5.34999C23.8475 5.2142 23.9025 5.07818 23.9489 4.93985C24.0207 4.7259 24.0833 4.50905 24.1459 4.29217C24.1836 4.16129 24.2214 4.03029 24.2612 3.90003C24.4032 3.43591 24.5475 2.97249 24.6943 2.50978C24.7095 2.46159 24.7348 2.39844 24.7747 2.37844C25.1285 2.20048 25.2652 1.94145 25.2019 1.54509C25.1893 1.46619 25.4225 1.2967 25.5635 1.26832C25.645 1.25195 25.8109 1.4151 25.8655 1.53038C26.0363 1.89115 26.1922 2.26146 26.3156 2.6399C26.3679 2.80024 26.3979 2.96727 26.4279 3.13446C26.4524 3.27088 26.4768 3.40741 26.5135 3.54049C26.5842 3.79728 26.6517 4.05525 26.7193 4.31325C26.9078 5.03303 27.0964 5.75346 27.3536 6.44928C27.7105 7.41461 27.8026 8.40056 27.8517 9.4028C27.8676 9.72825 27.8893 10.0541 27.911 10.38C27.9686 11.2448 28.0262 12.1099 27.9759 12.9687C27.9506 13.4008 27.7532 13.8233 27.5559 14.2459C27.4668 14.4366 27.3777 14.6273 27.3045 14.8188C27.2979 14.8359 27.2905 14.8528 27.2831 14.8697C27.2675 14.9053 27.2518 14.941 27.2446 14.9781C27.1842 15.2871 27.1248 15.5963 27.0654 15.9054C26.998 16.2562 26.9306 16.6069 26.8618 16.9574C26.8508 17.0131 26.8406 17.069 26.8304 17.1251C26.7935 17.3281 26.7563 17.5318 26.6839 17.7223C26.6538 17.8013 26.5674 17.8599 26.4809 17.9186C26.4419 17.9451 26.4028 17.9716 26.3689 18H26.2721ZM26.3304 9.40167L26.3934 9.39483L26.3486 9.0402C26.2862 8.54594 26.2239 8.05167 26.1562 7.55811C26.1511 7.5213 26.1096 7.48706 26.0716 7.45576C26.0627 7.44837 26.0539 7.44114 26.0458 7.43407C25.9124 7.31692 25.7784 7.20031 25.6445 7.08369C25.4993 6.95725 25.3537 6.83053 25.2091 6.7034C25.1886 6.68538 25.173 6.66207 25.1574 6.63876C25.1502 6.62798 25.143 6.61719 25.1353 6.60693C25.1301 6.61998 25.1242 6.6329 25.1184 6.64581C25.1057 6.67384 25.0929 6.70186 25.0873 6.73118C25.072 6.81083 25.0605 6.89186 25.0491 6.97285C25.0242 7.14871 24.9993 7.3244 24.9351 7.48526C24.9054 7.55954 24.8275 7.62164 24.7522 7.68165C24.6687 7.74818 24.5884 7.81214 24.5807 7.88729C24.5232 8.44572 24.5032 9.00787 24.4833 9.56977C24.4791 9.68894 24.4749 9.80809 24.4703 9.9272C24.4685 9.97293 24.5432 10.0662 24.5637 10.0614C25.1296 9.93013 25.5482 10.1963 25.9551 10.5215C26.0193 10.5729 26.1535 10.5776 26.2392 10.5521C26.2869 10.538 26.3242 10.4177 26.3264 10.3441C26.3333 10.1141 26.3322 9.88398 26.3311 9.65382C26.3308 9.56976 26.3304 9.48571 26.3304 9.40167Z" fill="#DCDCDC"/>
<path d="M17.4883 17.9785C17.3827 17.941 17.2778 17.9003 17.1729 17.8595C16.9374 17.7681 16.7019 17.6766 16.4578 17.6217C16.1599 17.5547 15.8558 17.5143 15.5516 17.4738C15.3818 17.4512 15.212 17.4286 15.0432 17.4014C14.8962 17.3777 14.7497 17.3466 14.6032 17.3156C14.3307 17.2578 14.0584 17.2 13.784 17.19C13.1316 17.166 12.4784 17.1638 11.8251 17.1615C11.4571 17.1603 11.089 17.159 10.7211 17.1539C10.6098 17.1523 10.4969 17.1149 10.3879 17.0787L10.3514 17.0666C9.86674 16.9076 9.44828 16.9162 9.06933 17.341C8.9061 17.524 8.60348 17.6243 8.34531 17.6818C8.09033 17.7387 7.81437 17.7224 7.54748 17.7066L7.50012 17.7038C7.40847 17.6984 7.30016 17.6128 7.24369 17.5339C7.21494 17.4937 7.25991 17.3569 7.31347 17.3161C7.37439 17.2697 7.44596 17.2331 7.51692 17.1968C7.62206 17.143 7.72586 17.0899 7.79172 17.0067C7.9212 16.8433 8.0163 16.6537 8.11123 16.4644C8.1448 16.3975 8.17837 16.3305 8.21341 16.2649C8.26742 16.1636 8.31245 16.0573 8.35425 15.9506C8.37835 15.8893 8.40297 15.8221 8.40142 15.7582C8.39816 15.6224 8.39055 15.4863 8.38294 15.3503C8.36776 15.079 8.35259 14.8079 8.37202 14.539C8.38327 14.3842 8.44669 14.2335 8.51037 14.0821C8.54476 14.0004 8.57922 13.9184 8.60558 13.8356C8.6185 13.7952 8.59433 13.7088 8.56323 13.695C8.15511 13.5137 8.18141 13.2016 8.20763 12.8906C8.21508 12.8022 8.22252 12.714 8.22 12.6289L8.21783 12.5584C8.21215 12.3775 8.20644 12.1958 8.22194 12.0162C8.2331 11.8875 8.23326 11.7506 8.23343 11.6132C8.23385 11.2764 8.23427 10.9366 8.3966 10.7079C8.62909 10.3803 8.59282 10.0657 8.55721 9.75696C8.53528 9.56679 8.51361 9.37883 8.55515 9.19142C8.56812 9.13292 8.60451 9.07621 8.64013 9.02072C8.68436 8.95182 8.72738 8.88479 8.72287 8.8185C8.71656 8.72549 8.67779 8.63483 8.63895 8.544C8.60161 8.45668 8.5642 8.3692 8.55551 8.27933C8.53983 8.11734 8.54325 7.95365 8.54668 7.78992C8.54994 7.63386 8.55321 7.47775 8.53994 7.32305C8.50747 6.94562 8.4658 6.56895 8.42412 6.19226C8.39222 5.90397 8.36032 5.6156 8.33255 5.32695C8.32512 5.25 8.3571 5.13749 8.41363 5.09189C8.78347 4.79376 8.83141 4.29765 8.5388 3.89997C8.49445 3.83965 8.5286 3.68198 8.58086 3.6039C8.88607 3.14782 8.71718 2.62396 8.25198 2.3522C7.97421 2.18993 7.75162 1.92725 7.53879 1.67607L7.49059 1.61926C7.45821 1.5812 7.50007 1.48317 7.54192 1.38517C7.56119 1.34006 7.58046 1.29494 7.59247 1.25569C7.62517 1.26632 7.65782 1.2771 7.69046 1.28788C7.7661 1.31286 7.84176 1.33785 7.91803 1.36086L7.94225 1.36819C8.03942 1.3976 8.13682 1.42707 8.23589 1.44874C8.34196 1.47197 8.4496 1.49104 8.5572 1.5101C8.78353 1.5502 9.00972 1.59027 9.22083 1.669C9.49373 1.7708 9.7508 1.94107 9.9777 2.1246C10.2885 2.37601 10.3287 3.38354 10.1028 3.70636C10.0501 3.78164 10.0818 3.99116 10.1538 4.05736C10.4422 4.32263 10.4679 4.56566 10.2064 4.86274C10.1511 4.92568 10.154 5.04627 10.1566 5.1507C10.1569 5.16564 10.1573 5.18025 10.1575 5.19431C10.1607 5.44567 10.1427 5.70591 10.1248 5.9663C10.0836 6.56216 10.0425 7.15875 10.255 7.65109C10.5586 8.3548 10.5164 9.03022 10.4744 9.7037C10.4547 10.0186 10.4351 10.333 10.4508 10.6497C10.4567 10.7683 10.422 10.8891 10.3873 11.0097C10.3517 11.1333 10.3162 11.2567 10.3245 11.3775C10.3362 11.5484 10.376 11.7192 10.4156 11.8892C10.468 12.1145 10.5202 12.3385 10.5067 12.56C10.489 12.8515 10.3938 13.1384 10.2987 13.4254C10.2573 13.5503 10.2159 13.6752 10.1809 13.8005C10.1788 13.8078 10.176 13.8151 10.1732 13.8224C10.1684 13.8348 10.1636 13.8472 10.1626 13.8599C10.1528 13.9847 10.1442 14.1096 10.1357 14.2346C10.1159 14.522 10.0961 14.8095 10.062 15.0953C10.0532 15.1698 10.0212 15.244 9.98969 15.3172C9.9495 15.4106 9.91002 15.5023 9.91997 15.5908C9.93903 15.7602 10.097 16.063 10.1635 16.0553C10.4342 16.0239 10.7006 15.9607 10.9674 15.8973C11.1174 15.8617 11.2676 15.8261 11.4187 15.7961C11.5706 15.7658 11.7457 15.7446 11.888 15.7881C12.4296 15.9537 12.9436 16.0341 13.4567 15.6823C13.5969 15.5863 13.8233 15.5849 14.0118 15.5837L14.0177 15.5836C15.308 15.5756 16.5986 15.5698 17.8885 15.5946C18.0061 15.5969 18.2031 15.8102 18.2174 15.9407C18.2343 16.0936 18.2169 16.2497 18.1994 16.4061C18.1836 16.5483 18.1677 16.6907 18.1775 16.8311C18.1894 17.0015 18.2456 17.169 18.3016 17.3365C18.3252 17.4069 18.3488 17.4773 18.3691 17.5478C18.3845 17.6013 18.4027 17.6541 18.4208 17.7068C18.4291 17.7308 18.4374 17.7548 18.4454 17.7789C18.4207 17.7859 18.396 17.7944 18.3713 17.8029C18.3175 17.8215 18.2637 17.8401 18.2092 17.8422C18.0475 17.8484 17.8854 17.8473 17.7234 17.8461C17.6595 17.8457 17.5956 17.8452 17.5318 17.8452L17.4883 17.9785Z" fill="#DCDCDC"/>
<path d="M21.622 1.43973L22.2577 1.43998C22.7717 1.44029 23.2857 1.4406 23.7997 1.4391C24.195 1.43803 24.2913 1.6158 24.1519 1.96091C24.0908 2.11208 24.0395 2.26974 23.9881 2.42724C23.8789 2.76231 23.7699 3.0967 23.5686 3.36632C23.4326 3.54845 23.3667 3.74224 23.3035 3.92786C23.2596 4.05717 23.217 4.18253 23.1529 4.29721C22.6636 5.17331 22.5863 6.08357 22.5293 7.04348C22.5055 7.44492 22.3574 7.83913 22.2091 8.23369C22.1395 8.41899 22.0699 8.60438 22.013 8.79062C21.9952 8.84924 21.9883 8.91091 21.9814 8.9727C21.977 9.01201 21.9726 9.05136 21.9653 9.09C21.9582 9.12802 21.9546 9.17151 21.951 9.2153C21.9424 9.31904 21.9337 9.42441 21.8778 9.46239C21.521 9.70453 21.515 10.0317 21.5087 10.3724C21.5072 10.4504 21.5058 10.5291 21.5001 10.6076C21.4728 10.986 21.4026 11.3615 21.3325 11.7369C21.305 11.8844 21.2774 12.0319 21.2525 12.1795C21.2464 12.2153 21.2329 12.2516 21.2195 12.2875C21.1985 12.3442 21.1777 12.4 21.187 12.4516C21.3077 13.1263 21.038 13.6912 20.7677 14.2575C20.6847 14.4314 20.6016 14.6054 20.5297 14.7828C20.4977 14.8619 20.6643 15.1198 20.7318 15.1173C20.8 15.1148 20.876 15.124 20.9532 15.1333C21.2277 15.1665 21.5172 15.2015 21.5242 14.7156C21.5253 14.6394 21.7039 14.5472 21.8161 14.4943C21.9594 14.4267 22.1088 14.3674 22.2579 14.3082C22.5517 14.1916 22.8448 14.0752 23.0904 13.8962C23.4415 13.6403 23.762 13.5001 24.1843 13.5997C24.226 13.6096 24.2769 13.6178 24.3283 13.6261C24.4511 13.6459 24.5766 13.6662 24.5865 13.7103C24.6086 13.8088 24.5798 13.9173 24.5507 14.0269C24.5359 14.0826 24.5211 14.1388 24.5128 14.194C24.4976 14.2951 24.4936 14.3975 24.5008 14.4995C24.512 14.6567 24.5251 14.814 24.5383 14.9712C24.5686 15.3346 24.599 15.6981 24.6055 16.062C24.6071 16.1521 24.4156 16.3147 24.3018 16.3251C23.8856 16.3632 23.4635 16.3696 23.0455 16.3505C22.9297 16.3452 22.8151 16.3136 22.7005 16.282C22.583 16.2495 22.4655 16.2171 22.347 16.2132C22.067 16.2039 21.7826 16.249 21.5044 16.2952C21.4419 16.3056 21.3833 16.3379 21.3247 16.3703C21.266 16.4027 21.2073 16.4352 21.1448 16.4455L20.983 16.4723C20.4775 16.5564 19.9708 16.6407 19.461 16.6762C19.329 16.6854 19.0603 16.468 19.063 16.3597C19.0675 16.1798 19.125 16.0017 19.1827 15.8228C19.2136 15.727 19.2446 15.6309 19.2675 15.5342C19.2784 15.4887 19.2708 15.4393 19.2633 15.3898C19.2563 15.3438 19.2492 15.2976 19.2568 15.2542C19.2763 15.1426 19.318 15.0312 19.3706 14.9298C19.3909 14.8905 19.423 14.855 19.4546 14.8199C19.4974 14.7725 19.5393 14.726 19.5504 14.6722L19.5738 14.5596C19.6453 14.2166 19.7172 13.8711 19.7359 13.524C19.7484 13.291 19.731 13.0568 19.7136 12.8224C19.7015 12.6602 19.6895 12.4979 19.6873 12.3358C19.6843 12.114 19.6768 11.8916 19.6692 11.6691C19.6482 11.0509 19.6271 10.4319 19.7048 9.82546C19.748 9.48834 19.9081 9.16698 20.069 8.84377C20.1627 8.65556 20.2568 8.46671 20.3282 8.27379C20.3715 8.15677 20.3561 8.0184 20.3408 7.88118C20.3349 7.82757 20.3289 7.77413 20.3265 7.72221C20.3254 7.70002 20.3133 7.67583 20.3017 7.65267C20.2876 7.62453 20.2742 7.59792 20.2825 7.5783C20.3931 7.31514 20.5081 7.0537 20.623 6.79225C20.6865 6.64769 20.7501 6.50308 20.8129 6.35823C20.8472 6.2791 20.8765 6.19786 20.9058 6.11667C20.9168 6.08608 20.9278 6.05545 20.9391 6.02499C21.0064 5.84337 21.0741 5.66187 21.1418 5.48037C21.315 5.0157 21.4883 4.55104 21.6558 4.08445C21.7637 3.78368 21.8557 3.4769 21.9331 3.16766C21.9382 3.1471 21.7611 3.07368 21.6631 3.04019C21.5982 3.01795 21.529 3.00203 21.46 2.98616C21.3314 2.95656 21.2036 2.92714 21.1053 2.85726C20.8706 2.69032 20.3039 2.8639 20.2137 3.20234C20.1699 3.36691 20.1473 3.5387 20.1249 3.70986C20.0925 3.95708 20.0603 4.203 19.9642 4.42396C19.8754 4.62784 19.6826 4.78958 19.4914 4.95C19.4184 5.01122 19.3456 5.07225 19.279 5.13535C19.2579 5.15532 19.1247 5.11081 19.1249 5.09733C19.1298 4.74 19.1408 4.3826 19.162 4.0258C19.1651 3.97394 19.1801 3.92242 19.195 3.87104C19.2119 3.8132 19.2287 3.75554 19.2284 3.69773C19.2271 3.46058 19.2229 3.22342 19.2188 2.98628C19.2115 2.56895 19.2042 2.15122 19.2124 1.7342C19.2142 1.64169 19.3815 1.47655 19.4764 1.47356C20.021 1.45668 20.5662 1.45851 21.1114 1.46033C21.2816 1.4609 21.4518 1.46146 21.622 1.46146L21.622 1.43973Z" fill="#DCDCDC"/>
<path d="M16.7648 1.59083C16.6301 1.59102 16.4954 1.5912 16.3608 1.5912V1.58566C16.1877 1.58566 16.0145 1.58668 15.8414 1.58771C15.4335 1.59012 15.0257 1.59253 14.6182 1.58156C14.2424 1.57145 14.0836 1.73039 14.1352 2.08246C14.1662 2.29339 14.2019 2.50377 14.2376 2.71411C14.2953 3.05371 14.353 3.39325 14.3906 3.73499C14.4109 3.91975 14.4048 4.10706 14.3987 4.29453C14.3935 4.45638 14.3882 4.61834 14.3999 4.7789C14.4155 4.99173 14.48 5.20255 14.5435 5.40979C14.5495 5.42914 14.5554 5.44846 14.5612 5.46774C14.5739 5.50922 14.6778 5.53971 14.7423 5.54544C14.7855 5.54925 14.8699 5.50472 14.8739 5.4741C14.9019 5.26092 14.9254 5.04719 14.9489 4.83344C14.9696 4.64508 14.9903 4.45671 15.0141 4.26871C15.0206 4.21771 15.022 4.16281 15.0233 4.10766C15.0293 3.86835 15.0354 3.62447 15.4579 3.67518C15.4834 3.67823 15.5405 3.59612 15.5485 3.54815C15.6585 2.9 16.0543 2.56386 16.7252 2.5558C16.8123 2.55475 16.8995 2.55305 16.9867 2.55135C17.2168 2.54686 17.4469 2.54237 17.6766 2.54991C17.7359 2.55183 17.8268 2.63363 17.8446 2.69473C18.0321 3.34204 17.6573 3.76164 17.2784 4.1859C17.2352 4.2343 17.1919 4.28277 17.1494 4.33164C17.0232 4.47665 16.8632 4.69921 16.8955 4.8504C16.9907 5.29576 16.7702 5.5865 16.5411 5.88849C16.4959 5.94804 16.4504 6.00802 16.407 6.06971C16.1219 6.47433 15.8451 6.89834 15.6582 7.35058C15.6025 7.48539 15.5606 7.62117 15.5184 7.75787C15.449 7.98235 15.379 8.20933 15.2458 8.43864L15.2208 8.48169C14.6858 9.40276 14.1319 10.3565 14.1064 11.4688C14.1023 11.6459 14.139 11.8237 14.1759 12.0018C14.1969 12.1034 14.2179 12.2052 14.2314 12.3071C14.2397 12.3701 14.2123 12.4431 14.1838 12.5036C14.1694 12.5342 14.1442 12.5661 14.1199 12.5968C14.0824 12.6442 14.0472 12.6888 14.0579 12.721C14.0734 12.7674 14.1162 12.8042 14.1597 12.8415C14.1985 12.8747 14.2378 12.9084 14.2586 12.9498C14.3146 13.0612 14.3779 13.2034 14.3524 13.3135C14.3085 13.5023 14.2556 13.6893 14.2028 13.8762C14.138 14.1053 14.0733 14.3342 14.0251 14.5665C14.019 14.5962 14.3178 14.7132 14.4837 14.743C14.5876 14.7617 14.7004 14.7635 14.812 14.7653C15.0018 14.7683 15.1881 14.7713 15.3215 14.857C15.332 14.8638 15.3424 14.8705 15.3525 14.877C15.6022 15.0382 15.7475 15.132 15.9536 14.8288C16.0068 14.7506 16.1458 14.7109 16.2524 14.6924C16.2781 14.688 16.3093 14.7237 16.3429 14.7621C16.365 14.7873 16.3881 14.8138 16.4113 14.8307C16.4532 14.8613 16.5142 14.902 16.5559 14.8926C16.7601 14.8463 16.9658 14.8685 17.1742 14.891C17.5144 14.9278 17.8616 14.9653 18.2207 14.7069C18.4906 14.5127 18.5175 14.3856 18.5288 14.1626C18.5341 14.0576 18.5277 13.9515 18.5213 13.8456C18.5128 13.7042 18.5043 13.5631 18.5238 13.4253C18.5577 13.1861 18.6092 12.9493 18.6606 12.7124C18.699 12.536 18.7373 12.3595 18.7684 12.1819C18.8137 11.9234 18.8469 11.659 18.8393 11.3986C18.8376 11.3417 18.6426 11.2777 18.5281 11.2466C18.5044 11.2402 18.4371 11.3626 18.4003 11.431C18.3731 11.4814 18.3442 11.5487 18.316 11.6142C18.2648 11.7332 18.2162 11.8463 18.1855 11.8416C17.85 11.7897 17.7667 11.9338 17.6286 12.1725C17.6131 12.1994 17.5968 12.2275 17.5795 12.2566C17.3816 12.5885 17.0765 12.8604 16.7724 13.1315C16.6601 13.2316 16.548 13.3315 16.4415 13.4343C16.3919 13.4821 16.321 13.5095 16.2506 13.5367C16.2238 13.547 16.197 13.5574 16.1716 13.5688C16.1069 13.5978 16.0424 13.627 15.9778 13.6561C15.7384 13.7643 15.4989 13.8725 15.2561 13.9728C15.1912 13.9996 15.119 14.0095 15.0467 14.0193C15.0137 14.0237 14.9807 14.0282 14.9483 14.0343C14.9464 14.0022 14.9413 13.969 14.9361 13.9358C14.9251 13.8642 14.9141 13.7927 14.9348 13.7314C15.0329 13.4419 15.141 13.1547 15.2491 12.8676C15.4678 12.2866 15.6863 11.7058 15.8217 11.107C15.9085 10.7228 16.1176 10.3924 16.3256 10.0637C16.6008 9.62884 16.874 9.19707 16.8594 8.6481C16.8588 8.62539 16.8774 8.58917 16.8968 8.58082C17.4573 8.34097 17.5828 7.86697 17.6137 7.337C17.6154 7.30707 17.6375 7.27908 17.6602 7.25042C17.6759 7.23052 17.6919 7.21029 17.7015 7.18887C17.7571 7.06479 17.8148 6.94116 17.8724 6.81746C18.1879 6.14096 18.5044 5.46232 18.4941 4.69543C18.4827 3.84057 18.4402 2.98608 18.3978 2.13184C18.3911 1.99641 18.3843 1.86099 18.3777 1.72557C18.3754 1.67816 18.2626 1.59807 18.2002 1.59712C17.7218 1.58953 17.2433 1.59018 16.7648 1.59083Z" fill="#DCDCDC"/>
<path d="M12.7461 12.8843C12.7699 12.7909 12.793 12.7005 12.8096 12.6146C12.7915 12.4609 12.7737 12.3122 12.7564 12.1672C12.7141 11.8127 12.6744 11.4797 12.6373 11.1464C12.6335 11.1117 12.6291 11.077 12.6247 11.0421C12.607 10.9013 12.5891 10.7592 12.6055 10.6218C12.6153 10.5396 12.646 10.4585 12.6766 10.3779C12.7138 10.2797 12.7507 10.1823 12.749 10.0846C12.7456 9.87786 12.7267 9.67119 12.7078 9.46465C12.6846 9.21227 12.6615 8.96008 12.6668 8.70826C12.669 8.60099 12.7243 8.49406 12.7794 8.38751C12.8363 8.2775 12.893 8.16788 12.8908 8.05872C12.8776 7.38578 12.8513 6.71308 12.8251 6.04037C12.8004 5.40672 12.7757 4.77306 12.7618 4.13919C12.7581 3.96923 12.8101 3.79852 12.8623 3.62722C12.8907 3.53418 12.9191 3.44097 12.9386 3.34761C12.953 3.27901 12.9552 3.18439 12.9178 3.13286C12.6404 2.75099 12.7651 2.42855 13.2215 2.24442C13.3277 2.20158 13.3917 2.03832 13.4452 1.90177C13.452 1.88443 13.4587 1.86752 13.4652 1.85134C13.4764 1.82359 13.3369 1.68856 13.2635 1.68572C12.5386 1.65744 11.8128 1.63092 11.0878 1.64207C10.9647 1.64392 10.8426 1.71059 10.7206 1.77726C10.6645 1.80789 10.6084 1.83852 10.5522 1.86286C10.599 1.89432 10.6458 1.92593 10.6925 1.95753C10.8342 2.05338 10.976 2.14924 11.1204 2.24114C11.136 2.25103 11.1607 2.2496 11.1845 2.24824C11.2093 2.24681 11.2331 2.24544 11.2445 2.25702C11.278 2.29137 11.3185 2.32635 11.3594 2.36175C11.4655 2.45339 11.5748 2.54785 11.5755 2.6415C11.6006 5.97557 11.6185 9.30989 11.5993 12.644C11.5985 12.7784 11.6053 12.9164 11.6122 13.0553C11.6443 13.7082 11.6775 14.3823 10.9306 14.812C10.9104 14.8236 10.8879 14.8579 10.8912 14.8778C10.9049 14.96 10.9228 15.0414 10.9407 15.1229C10.9468 15.1508 10.953 15.1788 10.9589 15.2067C10.9869 15.2001 11.0153 15.1946 11.0436 15.1891C11.1062 15.1769 11.1687 15.1647 11.2267 15.1416C11.2957 15.1141 11.3638 15.0775 11.4316 15.041C11.5604 14.9717 11.6884 14.903 11.8195 14.8981C12.1351 14.8863 12.4517 14.9026 12.7684 14.9189C12.9555 14.9286 13.1427 14.9382 13.3298 14.9421C13.4034 14.9436 13.4777 14.9184 13.5519 14.8932C13.5861 14.8815 13.6203 14.8699 13.6544 14.8609C13.6423 14.8188 13.6337 14.7738 13.6251 14.7288C13.6057 14.6273 13.5864 14.5258 13.5268 14.4577C13.4703 14.393 13.3883 14.3505 13.3058 14.3077C13.2332 14.27 13.1601 14.2321 13.1037 14.1787C13.0695 14.1464 13.0322 14.1132 12.9941 14.0793C12.8317 13.9349 12.6546 13.7772 12.6417 13.6155C12.6222 13.3698 12.6865 13.1177 12.7461 12.8843Z" fill="#DCDCDC"/>
</svg>
