<svg width="1177" height="540" xmlns="http://www.w3.org/2000/svg" xmlns:xlink="http://www.w3.org/1999/xlink"><defs><path id="a" d="M.76.267h195.583v524.514H.76z"/></defs><g fill="none" fill-rule="evenodd"><path d="M98.796 119.711c0 13.945-.087 27.892.1 41.835.025 1.975 1.337 5.587 2.135 5.61 3.395.095 8.727.296 9.921-1.646 7.016-11.414 12.215-24.367 28.635-24.93.537-.019 1.485-1.199 1.483-1.834-.055-13.603-.073-27.21-.407-40.808-.258-10.47 1.864-22.564-14.014-24.082-.173-.017-.266-.804-.445-.826-7.56-.915-15.14-2.37-22.682-2.199-1.66.038-4.432 5.826-4.559 9.05-.52 13.26-.217 26.552-.167 39.83zm40.297 138.658c-1.546-4.472-1.664-7.06-3.019-8.384-10.935-10.669-22.084-21.118-33.32-31.469-.23-.213-3.286 1.482-3.347 2.398-2.338 35.396-4.43 70.808-6.665 106.21-1.89 29.93-3.817 59.858-5.917 89.773-1.399 19.927-3.143 39.831-4.652 59.751-.04.527.82 1.582 1.321 1.623 11.97.972 49.886-25.46 49.55-37.447-.897-31.92 18.946-61.623 6.538-95.64-3.814-10.458.492-26.37-2.666-40.705-3.348-15.196 1.218-32.13 2.177-46.11zM0 30.672c3.693-3.355 7.204-9.387 11.107-9.65 39.537-2.675 79.125-5.157 118.731-5.83 8.828-.145 17.821 6.91 26.661 10.824 8.498 3.762 18.772 5.856 24.985 11.996 18.883 18.662 23.797 71.592 9.533 96.4-8.5 14.786-18.97 28.436-28.31 42.756-2.075 3.181-3.114 7.034-4.63 10.578 3.188.99 6.343 2.688 9.571 2.84 11.174.528 14.616 5.401 11.418 16.3-1.07 3.643-.207 10.95 1.932 11.944 15.514 7.206 12.215 20.2 11.514 32.652-.549 9.76-5.097 22.863-.507 28.731 20.63 26.366 13.462 57.42 8.771 83.078-5.07 27.738 4.95 60.41-18.98 84.108-1.444 1.428-2.826 3.906-2.694 5.788 2.904 41.598-37.78 46.482-58.38 68.003-6.175 6.452-18.947 6.74-28.832 9.341-1.348.355-3.333-2.632-5.286-3.419-2.905-1.17-6.07-2.563-9.08-2.469-23.802.735-47.59 1.865-71.393 2.573-1.18.035-2.819-2.57-3.48-4.248-.263-.665 1.47-3.03 2.45-3.134 22.813-2.395 21.841-21.74 22.24-35.918 1.457-51.752.12-103.575.733-155.36.238-20.1 3.433-40.149 4.168-60.262.387-10.592-2.482-21.285-2.31-31.907.165-10.155 3.163-20.26 3.362-30.417.113-5.77-2.894-11.6-4.49-17.404-.639-2.323-1.82-4.655-1.806-6.976.217-32.264.548-64.527 1.065-96.788.032-1.966 2.044-3.834 2.81-5.87 1.38-3.662 2.931-7.366 3.404-11.177.1-.794-4.583-1.682-6.374-3.29C18.481 55.997 9.278 47.285 0 38.657v-7.985zM784.137 266.744l1.95-.217c-2.403-19.444-4.745-38.896-7.342-58.314-.193-1.445-2.113-2.765-3.416-3.938-8.613-7.755-17.294-15.436-25.902-23.198-.928-.837-1.532-2.033-2.286-3.063-.507 1.313-1.23 2.585-1.484 3.945-1.504 8.02-1.808 16.482-4.712 23.941-1.937 4.973-10.517 8.226-10.972 12.764-2.158 21.49-2.607 43.153-3.418 64.765-.055 1.452 2.257 4.413 2.893 4.261 17.518-4.168 30.476 4.282 43.073 14.608 1.986 1.63 6.142 1.78 8.794.972 1.475-.449 2.63-4.269 2.698-6.606.292-9.966.124-19.945.124-29.92zm-1.803 272.988c-.53-.838-1.396-1.623-1.541-2.523-3.836-23.989-7.02-48.104-11.701-71.926-1.537-7.82-5.054-17.329-10.921-21.808-13.608-10.386-11.941-20.068-4.77-33.09 8.053-14.627 15.363-29.98 20.225-45.864 1.595-5.208-3.718-15.498-8.918-19.223-12.878-9.228-27.487-16.055-41.492-23.68-1.161-.632-3.75-.6-4.375.173-1.1 1.358-1.693 3.55-1.621 5.355.23 5.787-.108 11.87 1.608 17.251 1.83 5.74 5.737 10.82 8.77 16.168 1.81 3.19 5.935 7.368 5.055 9.293-1.733 3.787-6.627 9.282-9.518 8.895-25.021-3.358-47.107 4.164-68.695 15.522-2.395 1.26-10.376-2.052-10.394-3.316-.093-6.819.703-13.914 2.759-20.42 2.006-6.35 6.01-12.049 8.897-18.148 1.028-2.169.659-6.13 2.092-6.807 23.6-11.129 9.942-32.082 13.066-48.519 2.302-12.117 2.208-25.31 7.366-36.01 2.69-5.583.097-6.685-.047-10.156-.51-12.292 1.958-24.756 3.887-37.062.413-2.636 4.204-4.654 4.894-7.35 4.335-16.927 7.786-34.087 12.439-50.919 2.868-10.38 7.656-20.217 11.016-30.482 3.567-10.893 6.394-22.024 9.668-33.013a4594.173 4594.173 0 0113.407-44.139c.472-1.53 1.255-3.535 2.489-4.17 10.952-5.65 15.184-13.874 13.224-26.458-.39-2.505 6.83-7.886 11.195-8.787 2.523-.52 7.657 4.66 9.347 8.32 5.29 11.454 10.116 23.211 13.936 35.226 2.939 9.245 3.6 19.19 6.125 28.593 8.295 30.9 15.19 62.337 26.008 92.351 11.046 30.648 13.899 61.951 15.418 93.771 1.8 37.751 5.988 75.67 3.844 113.215-1.136 19.91-13.493 39.18-20.785 58.738-.628 1.685-1.523 3.318-1.854 5.058-3.99 20.938-7.841 41.904-11.85 62.84-1.564 8.167-2.644 16.568-5.507 24.285-1.35 3.641-6.383 5.921-9.75 8.816h-2.996z" fill="#DCDCDC"/><path d="M893.135 126.823c0 16.287-.354 32.585.184 48.854.2 6.048 2.49 12.026 3.829 18.036 7.693-1.91 19.853-1.494 22.287-6.15 9.298-17.786 17.389-36.72 22.289-56.144 5.519-21.88-14.266-56.382-34.967-66.034-7.84-3.656-14.541-5.386-13.853 8.064.906 17.75.222 35.58.23 53.374m-61.432-114.33c12.499-2.19 25.184-6.858 37.45-5.94 15.177 1.131 29.996 6.945 44.992 10.645 8.937 2.205 17.929 4.183 26.87 6.372 3.357.822 6.907 1.445 9.913 3.024 27.889 14.648 46.858 58.89 39.307 89.377-4.05 16.35-4.703 33.74-10.283 49.456-6.062 17.078-17.827 30.737-37.262 35.235-1.587.367-2.911 4.52-3.09 7.005-.07.992 3.388 3.317 5.088 3.178 10.64-.862 27.415 16.273 26.532 26.66-.15 1.763 5.58 3.484 6.455 5.974 3.295 9.378 6.875 18.913 8.15 28.676 1.566 11.961.017 24.336 1.674 36.273.687 4.94 6.404 9.081 9.438 13.835 1.743 2.732 3.503 5.872 3.865 8.99 1.61 13.855 4.29 27.863 3.463 41.63-.561 9.336-8.146 18.236 6.84 23.397 2.546.877 3.016 11.158 2.512 16.927-2.84 32.56-6.085 65.088-9.607 97.582-1.16 10.694-7.432 13.366-16.294 7.271-6.504-4.473-11.961-10.53-18.633-14.68-8.551-5.322-18.23-8.862-26.662-14.337-3.68-2.389-8.631-8.95-7.623-11.452 8.997-22.32 20.793-43.817 16.269-69.219-5.225-29.334-7.756-59.627-17.294-87.51-4.736-13.843-3.658-26.004-5.484-38.934-1.823-12.912-11.54-24.71-17.794-37-1.522.97-3.59 1.583-4.487 2.958-15.798 24.195-5.886 49.991-4.134 75.148 1.153 16.543 4.62 32.918 5.992 49.455.374 4.521-3.126 9.343-4.751 14.061-.478 1.39-.926 2.91-.865 4.346.658 15.34 1.485 30.671 2.094 46.012.103 2.602-1.79 5.89-.757 7.756 14.863 26.87-2.988 53.535-.293 80.27.16 1.604-1.012 3.343-1.564 5.02-1.037-1.358-2.484-2.564-3.05-4.095-9.767-26.41-27.571-45.616-51.37-60.396-4.342-2.697-7.907-12.572-6.455-17.575 5.035-17.337 13.675-33.654 18.405-51.047 2.249-8.27-1.778-18.08-2.027-27.218-1.148-42.024.93-84.375-3.68-125.997-5.084-45.883-16.058-91.126-24.79-136.586-2.348-12.225.117-21.167 11.803-27.573 7.78-4.265 14.747-10.239 21.412-16.192 2.546-2.274 3.233-6.625 4.767-10.029-4.63-.398-9.317-.487-13.878-1.288-3.702-.652-9.264-1.075-10.546-3.456-8.675-16.113-20.012-27.998-39.281-30.35-2.383-.29-4.444-3.21-6.655-4.912 2.15-1.029 4.274-2.87 6.458-2.946 9.469-.328 18.956-.14 28.436-.14.14.78.283 1.56.424 2.34" fill="#DCDCDC"/><g transform="translate(980 -.267)"><mask id="b" fill="#fff"><use xlink:href="#a"/></mask><path d="M93.8 346.258l-1.577.002c0 30.604-.087 61.21.138 91.812.022 2.975 1.97 5.936 3.023 8.903 2.103-2.303 5.277-4.268 6.134-6.966 4.881-15.373 6.833-32.176 14.226-46.145 14.792-27.943 13.017-57.473 13.743-87.142.402-16.49-1.318-34.17 4.014-49.15 9.07-25.477 19.568-50.133 15.15-77.744-4.074-25.447-19.272-44.684-40.523-57.41-6.76-4.049-27.645 1.4-27.626 2.107.915 33.465 2.987 66.926 5.98 100.294 1.076 11.994 6.527 23.687 6.973 35.63 1.066 28.568.344 57.202.344 85.81M196.343 186.08c-3.343 12.581-7.448 25.025-9.756 37.792-1.505 8.325.97 17.42-.824 25.627-2 9.153-7.006 17.62-10.336 26.522-2.106 5.63-4.88 11.473-5.04 17.285-.66 23.901 1.308 47.99-.927 71.706-3.743 39.724-8.403 79.508-15.744 118.692-4.124 22.014-24.037 29.638-44.683 32.216-10.156 1.27-20.608.293-30.72 1.752-10.427 1.505-20.573 4.878-30.92 7.061-1.628.342-3.674-1.292-5.527-2.012.841-1.969 1.238-4.336 2.592-5.843 11.725-13.046 17.013-27.046 8.216-44.026-1.197-2.31-.322-8.436.274-8.532 18.061-2.878 16.008-13.459 8.76-24.398-17.263-26.05-2.979-52.982-3.584-79.492-.26-11.438-3.39-22.887-5.918-34.174-2.654-11.855-7.43-23.353-9.027-35.307-4.489-33.648-9.004-67.373-11.242-101.217-1.873-28.31-1.406-56.866-.304-85.247.608-15.685 4.01-31.374 7.3-46.817C43.7 35.304 25.536 27.821 13.56 16.022 8.77 11.302 4.995 5.55.76.267 9.487.83 18.97-.606 26.798 2.34c20.878 7.86 40.58 18.96 61.637 26.185 18.076 6.202 37.902 7.338 55.933 13.635 9.821 3.43 21.125 11.204 25.385 20.076 7.853 16.354 12.502 34.692 15.743 52.696 4.186 23.245 5.68 46.973 8.333 70.493.838.22 1.675.437 2.514.656" fill="#DCDCDC" mask="url(#b)"/></g><path d="M510.419 539.05c-10.613-3.864-20.977-8.808-31.9-11.328-14.37-3.316-29.203-4.582-43.792-6.994-13.02-2.154-25.922-6.222-38.98-6.714-31.573-1.19-63.21-.692-94.816-1.145-3.833-.055-7.728-1.521-11.447-2.771-15.002-5.047-27.956-4.777-39.687 8.71-5.053 5.81-14.421 8.995-22.413 10.823-8.361 1.913-17.451 1.217-26.164.696-2.837-.17-6.19-2.887-7.938-5.392-.89-1.277.502-5.62 2.16-6.916 4.68-3.654 11.39-5.4 14.805-9.822 5.426-7.025 8.902-15.573 13.054-23.554 1.672-3.215 3.066-6.59 4.36-9.977.746-1.948 1.508-4.08 1.46-6.11-.302-12.914-1.813-25.892-.91-38.706.536-7.568 4.903-14.834 7.23-22.333.4-1.284-.348-4.027-1.311-4.465-16.221-7.391-10.273-21.624-10.625-33.848-.186-6.48-.482-13.008.06-19.45 1.192-14.105-1.668-31.315 5.407-41.54 11.63-16.805 1.534-32.535 4.908-48.145.9-4.164 5.444-8.04 5.192-11.84-.383-5.792-4.632-11.297-5.181-17.118-.948-10.045.36-20.296-.482-30.361-1.774-21.154-4.437-42.234-6.42-63.374-.23-2.443.76-6.015 2.51-7.463 11.449-9.465 12.933-25.216 3.875-37.842-1.373-1.915-.316-6.921 1.302-9.4 9.448-14.48 4.22-31.112-10.181-39.74-9.25-5.542-16.523-14.773-23.57-23.27-1.464-1.765 1.974-7.59 3.154-11.543 3.358 1.119 6.698 2.293 10.078 3.339 3.257 1.009 6.518 2.045 9.84 2.79 10.19 2.289 20.848 3.305 30.49 6.993 8.448 3.232 16.406 8.638 23.43 14.465 9.62 7.982 10.867 39.97 3.872 50.219-1.632 2.39-.648 9.042 1.58 11.144 8.926 8.422 9.723 16.138 1.629 25.57-1.96 2.284-1.56 6.96-1.516 10.527.328 26.242-6.434 55.538 3.018 78 13.796 32.787 4.533 63.64 6.062 95.202.37 7.624-4.416 15.529-3.91 23.109.847 12.61 6.373 25.199 5.64 37.543-.787 13.28-6.51 26.267-10.085 39.382-.173.634-.517 1.247-.566 1.886-.998 13.08-1.6 26.205-3.113 39.225-.625 5.377-4.948 10.72-4.398 15.73.59 5.38 5.48 14.992 7.54 14.747 13.089-1.555 25.862-5.583 38.854-8.23 4.705-.96 10.125-1.635 14.53-.253 16.764 5.258 32.677 7.81 48.56-3.357 4.384-3.082 11.496-3.096 17.366-3.134 39.944-.256 79.896-.438 119.826.349 3.64.073 9.739 6.844 10.183 10.988.995 9.267-1.873 18.91-1.235 28.268.524 7.686 3.81 15.189 5.93 22.756.694 2.473 1.57 4.893 2.363 7.337-2.436.7-4.852 1.91-7.313 2.009-6.98.275-13.98.096-20.97.096-.45 1.41-.897 2.822-1.345 4.233M638.382 13.961c22.472 0 44.943.047 67.415-.02 12.237-.034 15.217 5.61 10.902 16.567-5.911 15.01-8.894 32.036-18.057 44.62-7.145 9.811-8.039 20.687-12.868 29.555-15.147 27.815-17.54 56.715-19.305 87.191-1.084 18.731-10.477 36.966-15.981 55.47-.905 3.045-.901 6.35-1.477 9.505-.742 4.067-.248 10.108-2.711 11.823-13.571 9.447-10.748 22.97-11.691 36.36-1.178 16.733-4.928 33.288-7.666 49.904-.483 2.93-2.495 5.962-2.028 8.64 4.884 28-10.88 50.046-20.345 74.012-.992 2.514 4.167 10.702 6.256 10.622 9.624-.37 24.251 7.011 24.528-12.755.034-2.418 5.563-5.346 9.036-7.025 13.178-6.372 27.986-10.42 39.449-18.99 10.87-8.125 20.789-12.575 33.862-9.412 4.384 1.061 12.018 1.525 12.452 3.51 1.033 4.718-1.521 10.157-2.283 15.356a45.612 45.612 0 00-.37 9.7c1.149 16.54 2.953 33.058 3.241 49.607.051 2.861-5.879 8.026-9.4 8.356-12.887 1.208-25.951 1.412-38.893.805-7.26-.34-14.375-4.112-21.622-4.359-8.668-.295-17.473 1.135-26.085 2.603-3.87.66-7.262 4.117-11.132 4.772-17.31 2.933-34.658 6.077-52.123 7.324-4.087.292-12.403-6.61-12.32-10.048.214-8.773 4.293-17.407 6.331-26.21.646-2.786-.82-6.025-.332-8.889.603-3.542 1.893-7.08 3.521-10.3 1.483-2.935 4.971-5.208 5.568-8.176 2.428-12.062 5.101-24.227 5.741-36.456.656-12.513-1.34-25.139-1.504-37.724-.346-26.6-2.73-53.515.542-79.7 2.117-16.936 13.288-32.62 19.299-49.264 1.865-5.167.213-11.645-.054-17.512-.071-1.56-1.829-3.433-1.363-4.569 5.321-12.975 10.959-25.819 16.422-38.736 1.462-3.459 2.629-7.045 3.906-10.58 7.42-20.528 14.974-41.01 22.185-61.61 3.342-9.549 6.188-19.289 8.585-29.107.159-.653-5.325-2.984-8.357-4.047-5.763-2.023-12.596-2.4-17.268-5.808-7.265-5.3-24.81.211-27.601 10.956-3.319 12.772-2.688 26.913-7.725 38.785-3.795 8.943-13.74 15.332-21.211 22.586-.654.634-4.775-.779-4.769-1.207.152-11.345.493-22.692 1.148-34.02.202-3.5 2.073-6.95 2.054-10.416-.111-20.784-.891-41.572-.494-62.34.057-2.937 5.236-8.18 8.174-8.275 22.121-.703 44.274-.384 66.417-.384l.001-.69" fill="#DCDCDC"/><path d="M475.515 18.77c18.981 0 37.965-.121 56.942.188 1.932.03 5.424 2.573 5.495 4.078 1.494 31.418 3.193 62.846 3.603 94.29.376 28.8-13.4 53.68-24.537 79.164-.725 1.66-2.627 3.093-2.718 4.703-.957 16.826-4.84 31.875-22.193 39.49-.6.265-1.175 1.415-1.156 2.136.791 30.602-25.88 49.733-32.125 78.068-6.26 28.404-18.272 55.53-27.454 83.32-.94 2.85.228 6.396.418 9.619 3.19-.618 6.602-.712 9.527-1.952 9.545-4.046 18.92-8.491 28.34-12.828 2.853-1.313 6.236-2.173 8.356-4.27 12.235-12.106 26.842-22.965 35.227-37.391 5.314-9.141 7.206-15.01 18.76-13.177 1.475.235 4.284-8.531 6.65-13.036 1.14-2.17 3.224-6.056 3.956-5.852 3.544.986 9.583 3.017 9.635 4.825.236 8.268-.793 16.66-2.195 24.867-2.256 13.207-5.74 26.225-7.572 39.479-1.057 7.646.54 15.62.154 23.409-.35 7.08-1.182 11.115-9.537 17.28-17.925 13.228-34.898 2.029-51.537 5.894-1.289.299-3.18-.993-4.477-1.964-1.812-1.357-3.6-4.625-4.918-4.39-3.3.588-7.602 1.848-9.248 4.33-6.642 10.019-11.244 6.384-19.57.895-6.557-4.322-17.254-2.018-25.934-3.62-5.135-.946-14.386-4.661-14.196-5.602 2.706-13.394 7.108-26.437 10.131-39.784.791-3.493-1.17-8.008-2.904-11.546-1.366-2.786-5.308-4.475-6.212-7.263-.545-1.685 2.763-4.431 3.897-6.903.883-1.922 1.73-4.24 1.473-6.238-1.15-8.903-4.067-17.783-3.87-26.616.802-35.865 18.476-66.537 35.272-96.204 6.633-11.714 8.211-23.236 12.768-34.545 5.785-14.358 14.352-27.82 23.178-40.666 8.171-11.892 18.651-21.784 15.123-38.712-1-4.8 3.955-11.866 7.86-16.47 12.85-15.151 27.987-29.074 21.52-51.97-.549-1.94-3.363-4.537-5.199-4.598-9.805-.33-19.633.066-29.454.187-20.766.256-33.019 10.928-36.424 31.506-.25 1.523-2.015 4.13-2.805 4.033-16.092-1.981-12.67 10.198-13.738 18.844-1.572 12.742-2.712 25.537-4.342 38.27-.124.972-2.737 2.386-4.073 2.265-1.998-.182-5.214-1.15-5.605-2.467-2.127-7.17-4.468-14.482-4.994-21.87-.783-11.002.883-22.213-.289-33.143-1.883-17.57-5.399-34.957-7.905-52.466-1.599-11.178 3.318-16.224 14.952-15.903 17.97.496 35.962.13 53.944.13v.177zM365.583 368.752c-1.8 9.532-6.043 20.853-5.197 31.778.49 6.338 8.737 12.48 14.3 17.88 3.731 3.622 9.81 4.997 13.098 8.857 2.662 3.123 2.731 8.453 3.95 12.803-3.35.906-6.719 2.646-10.049 2.576-15.596-.33-31.212-1.99-46.752-1.396-6.199.236-12.164 5.202-18.352 7.731-2.608 1.067-5.516 1.4-8.288 2.066-.724-3.477-1.529-6.94-2.097-10.442-.102-.63.594-1.719 1.221-2.089 28.04-16.546 20.562-44.503 20.7-68.833.592-105.853.04-211.714-.739-317.567-.03-4.122-6.52-8.293-10.246-12.207-.687-.72-2.858.137-3.84-.504-5.945-3.88-11.744-7.982-17.59-12.01 5.525-2.455 11.018-6.924 16.581-7.01 22.442-.354 44.911.488 67.351 1.386 2.272.09 6.59 4.377 6.243 5.258-1.792 4.558-3.837 10.947-7.543 12.48-14.128 5.846-17.989 16.083-9.403 28.207 1.158 1.636 1.09 4.64.646 6.818-1.72 8.422-5.65 16.805-5.473 25.132.885 41.49 3.196 82.951 3.993 124.441.131 6.822-6.794 13.7-6.935 20.622-.297 14.538 2.312 29.115 2.546 43.696.091 5.65-3.769 11.264-4.443 17.056-.633 5.443.385 11.116.985 16.655 1.617 14.914 3.398 29.811 5.333 46.616" fill="#DCDCDC"/></g></svg>