<?xml version="1.0" encoding="UTF-8"?>
<svg width="1177px" height="540px" viewBox="0 0 1177 540" version="1.1" xmlns="http://www.w3.org/2000/svg" xmlns:xlink="http://www.w3.org/1999/xlink">
    <!-- Generator: Sketch 63.1 (92452) - https://sketch.com -->
    <title>编组 12</title>
    <desc>Created with Sketch.</desc>
    <defs>
        <polygon id="path-1" points="0.7601 0.2674 196.343 0.2674 196.343 524.780871 0.7601 524.780871"></polygon>
    </defs>
    <g id="页面-1" stroke="none" stroke-width="1" fill="none" fill-rule="evenodd">
        <g id="编组-12" transform="translate(0.000100, -0.267000)">
            <path d="M98.796,119.9781 C98.796,133.9231 98.709,147.8701 98.895,161.8131 C98.921,163.7881 100.233,167.4001 101.031,167.4221 C104.426,167.5181 109.758,167.7191 110.952,165.7771 C117.968,154.3631 123.167,141.4101 139.587,140.8461 C140.124,140.8281 141.072,139.6481 141.070003,139.0131 C141.015,125.4101 140.997,111.8031 140.663,98.2051 C140.405,87.7351 142.527,75.6411 126.649,74.1231 C126.476,74.1061 126.383,73.3191 126.204,73.2971 C118.644,72.3821 111.064,70.9261 103.522,71.0981 C101.862,71.1361 99.09,76.9241 98.963,80.1481 C98.443,93.4081 98.746,106.7001 98.796,119.9781 L98.796,119.9781 Z M139.093,258.6361 C137.547,254.1641 137.429,251.5751 136.074,250.2521 C125.139,239.5831 113.99,229.1341 102.754,218.7831 C102.523,218.5701 99.468,220.2651 99.407,221.1811 C97.069,256.5771 94.977,291.9891 92.742,327.3911 C90.852,357.3211 88.925,387.2491 86.825,417.1641 C85.426,437.0911 83.682,456.9951 82.173,476.9151 C82.133,477.4421 82.992,478.4971 83.494,478.5381 C95.463,479.5101 133.38,453.0781 133.044,441.0911 C132.147,409.1701 151.99,379.4681 139.582,345.4501 C135.768,334.9931 140.074,319.0811 136.916,304.7461 C133.568,289.5501 138.134,272.6151 139.093,258.6361 L139.093,258.6361 Z M2.84217094e-13,30.9391 C3.693,27.5841 7.204,21.5521 11.107,21.2881 C50.644,18.6141 90.232,16.1321 129.838,15.4598079 C138.666,15.3141 147.659,22.3691 156.499,26.2831 C164.997,30.0451 175.271,32.1391 181.484,38.2791 C200.367,56.9411 205.281,109.8711 191.017,134.6791 C182.516,149.4651 172.046,163.1151 162.707,177.4351 C160.632,180.6161 159.593,184.4691 158.077,188.0131 C161.265,189.0021 164.42,190.7011 167.648,190.8531 C178.822,191.3811 182.264,196.2541 179.066,207.1521 C177.996,210.7961 178.859,218.1031 180.998,219.0971 C196.512,226.3031 193.213,239.2961 192.512,251.7491 C191.963,261.5091 187.415,274.6121 192.005,280.4801 C212.635,306.8461 205.467,337.8991 200.776,363.5581 C195.705,391.2961 205.726,423.9671 181.795,447.6661 C180.352,449.0941 178.97,451.5721 179.102,453.4541 C182.006,495.0521 141.321,499.9361 120.722,521.4571 C114.547,527.9091 101.775,528.1971 91.89,530.7981 C90.542,531.1531 88.557,528.1661 86.604,527.3791 C83.699,526.2081 80.534,524.8161 77.524,524.9101 C53.722,525.6451 29.933,526.7751 6.131,527.4831 C4.951,527.5181 3.312,524.9121 2.65,523.2351 C2.388,522.5701 4.121,520.2041 5.101,520.1011 C27.914,517.7061 26.942,498.3611 27.341,484.1831 C28.798,432.4311 27.461,380.6081 28.074,328.8221 C28.312,308.7231 31.507,288.6741 32.242,268.5611 C32.629,257.9691 29.76,247.2761 29.932,236.6541 C30.097,226.4991 33.095,216.3941 33.294,206.2371 C33.407,200.4671 30.4,194.6371 28.803,188.8331 C28.165,186.5101 26.983,184.1781 26.998,181.8571 C27.215,149.5931 27.546,117.3301 28.063,85.0691 C28.095,83.1031 30.107,81.2351 30.873,79.1991 C32.252,75.5371 33.804,71.8331 34.277,68.0221 C34.376,67.2281 29.694,66.3401 27.903,64.7321 C18.481,56.2641 9.278,47.5521 2.84217094e-13,38.9241 L2.84217094e-13,30.9391 Z" id="Fill-1" fill="#DCDCDC"></path>
            <path d="M784.1368,267.0113 L786.0878,266.7943 C783.6838,247.3503 781.3418,227.8983 778.7448,208.4803 C778.5518,207.0353 776.6318,205.7153 775.3288,204.5423 C766.7158,196.7873 758.0348,189.1063 749.4268,181.3443 C748.4988,180.5073 747.8948,179.3113 747.1408,178.2813 C746.6338,179.5943 745.9108,180.8663 745.6568,182.2263 C744.1528,190.2453 743.8488,198.7083 740.9448,206.1673 C739.0078,211.1403 730.4278,214.3933 729.9728,218.9313 C727.8148,240.4203 727.3658,262.0843 726.5548,283.6963 C726.4998,285.1483 728.8118,288.1093 729.4478,287.9573 C746.9658,283.7893 759.9238,292.2393 772.5208,302.5653 C774.5068,304.1943 778.6628,304.3453 781.3148,303.5373 C782.7898,303.0883 783.9448,299.2683 784.0128,296.9313 C784.3048,286.9653 784.1368,276.9863 784.1368,267.0113 L784.1368,267.0113 Z M782.3338,539.9993 C781.8038,539.1613 780.9378,538.3763 780.7928,537.4763 C776.9568,513.4873 773.7728,489.3723 769.0918,465.5503 C767.5548,457.7303 764.0378,448.2213 758.1708,443.7423 C744.5628,433.3563 746.2298,423.6743 753.4008,410.6523 C761.4538,396.0253 768.7638,380.6723 773.6258,364.7883 C775.2208,359.5803 769.9078,349.2903 764.7078,345.5653 C751.8298,336.3373 737.2208,329.5103 723.2158,321.8853 C722.0548,321.2533 719.4668,321.2843 718.8408,322.0583 C717.7408,323.4163 717.1478,325.6073 717.2198,327.4133 C717.4508,333.2003 717.1118,339.2823 718.8278,344.6643 C720.6588,350.4033 724.5648,355.4843 727.5988,360.8323 C729.4078,364.0223 733.5328,368.2003 732.6528,370.1253 C730.9198,373.9123 726.0258,379.4073 723.1348,379.0203 C698.1138,375.6623 676.0278,383.1843 654.4398,394.5423 C652.0448,395.8023 644.0638,392.4903 644.0458,391.2263 C643.9528,384.4073 644.7488,377.3123 646.8048,370.8053 C648.8108,364.4563 652.8158,358.7573 655.7018,352.6583 C656.7298,350.4893 656.3608,346.5283 657.7938,345.8513 C681.3948,334.7223 667.7358,313.7693 670.8598,297.3323 C673.1618,285.2153 673.0678,272.0223 678.2258,261.3213 C680.9158,255.7393 678.3228,254.6373 678.1788,251.1663 C677.6688,238.8743 680.1368,226.4103 682.0658,214.1043 C682.4788,211.4683 686.2698,209.4503 686.9598,206.7533 C691.2948,189.8273 694.7458,172.6673 699.3988,155.8353 C702.2668,145.4543 707.0548,135.6183 710.4148,125.3533 C713.9818,114.4603 716.8088,103.3293 720.0828,92.3403 C724.4738,77.6043 728.9508,62.8933 733.4898,48.2013 C733.9618,46.6713 734.7448,44.6663 735.9788,44.0303 C746.9308,38.3803 751.1628,30.1573 749.2028,17.5733 C748.8128,15.0683 756.0338,9.6873 760.3978,8.7863 C762.9208,8.2663 768.0548,13.4463 769.7448,17.1053 C775.0358,28.5603 779.8608,40.3173 783.6808,52.3323 C786.6198,61.5773 787.2818,71.5213 789.8058,80.9253 C798.1008,111.8243 804.9958,143.2623 815.8138,173.2763 C826.8598,203.9243 829.7128,235.2273 831.2318,267.0473 C833.0318,304.7983 837.2198,342.7173 835.0758,380.2623 C833.9398,400.1713 821.5828,419.4423 814.2908,439.0003 C813.6628,440.6853 812.7678,442.3183 812.4368,444.0583 C808.4478,464.9963 804.5958,485.9623 800.5868,506.8973 C799.0228,515.0653 797.9428,523.4663 795.0798,531.1833 C793.7298,534.8243 788.6968,537.1043 785.3308,539.9993 L782.3338,539.9993 Z" id="Fill-3" fill="#DCDCDC"></path>
            <path d="M893.1348,127.0904 C893.1348,143.3774 892.7808,159.6754 893.3188,175.9444 C893.5188,181.9924 895.8098,187.9704 897.1478,193.9804 C904.8408,192.0694 917.0008,192.4864 919.4348,187.8304 C928.7328,170.0444 936.8238,151.1104 941.7238,131.6864 C947.2428,109.8054 927.4578,75.3044 906.7568,65.6524 C898.9178,61.9964 892.2158,60.2664 892.9038,73.7164 C893.8098,91.4654 893.1258,109.2954 893.1348,127.0904 M831.7018,12.7604 C844.2008,10.5694 856.8858,5.9024 869.1528,6.8194 C884.3288,7.9514 899.1478,13.7654 914.1438,17.4654 C923.0808,19.6704 932.0728,21.6484 941.0138,23.8374 C944.3708,24.6594 947.9208,25.2824 950.9268,26.8614 C978.8158,41.5094 997.7848,85.7504 990.2338,116.2384 C986.1848,132.5884 985.5308,149.9784 979.9508,165.6944 C973.8888,182.7724 962.1238,196.4314 942.6888,200.9294 C941.1018,201.2964 939.7778,205.4494 939.5998,207.9344 C939.5288,208.9264 942.9868,211.2514 944.6868,211.1124 C955.3268,210.2504 972.1018,227.3854 971.2188,237.7724 C971.0688,239.5354 976.7988,241.2564 977.6738,243.7464 C980.9688,253.1244 984.5488,262.6594 985.8248,272.4224 C987.3898,284.3834 985.8408,296.7584 987.4978,308.6954 C988.1848,313.6354 993.9018,317.7764 996.9358,322.5304 C998.6788,325.2624 1000.4388,328.4024 1000.8008,331.5204 C1002.4108,345.3754 1005.0908,359.3834 1004.2638,373.1494 C1003.7028,382.4864 996.1178,391.3864 1011.1038,396.5474 C1013.6498,397.4244 1014.1198,407.7054 1013.6158,413.4744 C1010.7758,446.0334 1007.5308,478.5624 1004.0088,511.0564 C1002.8498,521.7504 996.5768,524.4224 987.7148,518.3274 C981.2108,513.8544 975.7538,507.7964 969.0818,503.6464 C960.5308,498.3254 950.8528,494.7854 942.4198,489.3104 C938.7408,486.9214 933.7888,480.3604 934.7968,477.8584 C943.7938,455.5384 955.5898,434.0414 951.0658,408.6394 C945.8408,379.3054 943.3098,349.0124 933.7718,321.1284 C929.0358,307.2864 930.1138,295.1254 928.2878,282.1954 C926.4648,269.2834 916.7488,257.4844 910.4938,245.1954 C908.9718,246.1644 906.9048,246.7784 906.0068,248.1534 C890.2088,272.3484 900.1208,298.1444 901.8728,323.3014 C903.0258,339.8444 906.4938,356.2194 907.8648,372.7564 C908.2388,377.2774 904.7388,382.0994 903.1138,386.8174 C902.6358,388.2064 902.1878,389.7264 902.2488,391.1634 C902.9068,406.5024 903.7338,421.8344 904.3428,437.1754 C904.4458,439.7774 902.5538,443.0654 903.5858,444.9314 C918.4488,471.8004 900.5978,498.4664 903.2928,525.2004 C903.4538,526.8054 902.2808,528.5444 901.7288,530.2214 C900.6918,528.8634 899.2448,527.6574 898.6788,526.1264 C888.9118,499.7154 871.1078,480.5104 847.3088,465.7304 C842.9668,463.0334 839.4018,453.1584 840.8538,448.1554 C845.8888,430.8184 854.5288,414.5014 859.2588,397.1084 C861.5078,388.8384 857.4808,379.0274 857.2318,369.8904 C856.0838,327.8664 858.1628,285.5154 853.5518,243.8934 C848.4678,198.0104 837.4938,152.7674 828.7618,107.3074 C826.4138,95.0824 828.8788,86.1404 840.5648,79.7344 C848.3448,75.4694 855.3118,69.4954 861.9768,63.5424 C864.5228,61.2684 865.2098,56.9174 866.7438,53.5134 C862.1138,53.1154 857.4268,53.0264 852.8658,52.2254 C849.1638,51.5734 843.6018,51.1504 842.3198,48.7694 C833.6448,32.6564 822.3078,20.7714 803.0388,18.4194 C800.6558,18.1284 798.5948,15.2084 796.3838,13.5074 C798.5348,12.4784 800.6578,10.6374 802.8418,10.5614 C812.3108,10.2334 821.7978,10.4204 831.2778,10.4204 C831.4188,11.2004 831.5608,11.9814 831.7018,12.7604" id="Fill-5" fill="#DCDCDC"></path>
            <g id="编组" transform="translate(979.999900, 0.000000)">
                <mask id="mask-2" fill="white">
                    <use xlink:href="#path-1"></use>
                </mask>
                <g id="Clip-8"></g>
                <path d="M93.7991,346.2584 C93.2741,346.2594 92.7481,346.2594 92.2231,346.2604 C92.2231,376.8644 92.1361,407.4694 92.3611,438.0724 C92.3831,441.0474 94.3301,444.0084 95.3841,446.9754 C97.4871,444.6724 100.6611,442.7074 101.5181,440.0094 C106.3991,424.6364 108.3511,407.8334 115.7441,393.8644 C130.5361,365.9214 128.7611,336.3914 129.4871,306.7224 C129.8891,290.2324 128.1691,272.5514 133.5011,257.5724 C142.5701,232.0954 153.0691,207.4394 148.6501,179.8284 C144.5771,154.3814 129.3791,135.1444 108.1281,122.4184 C101.3671,118.3694 80.4831,123.8174 80.502087,124.5254 C81.4171,157.9904 83.4891,191.4514 86.4821,224.8194 C87.5581,236.8134 93.0091,248.5064 93.4551,260.4484 C94.5211,289.0174 93.7991,317.6514 93.7991,346.2584 M196.3431,186.0814 C193.0001,198.6624 188.8951,211.1064 186.5871,223.8734 C185.0821,232.1984 187.5561,241.2924 185.7631,249.5004 C183.7631,258.6534 178.7571,267.1194 175.4271,276.0224 C173.3211,281.6524 170.5471,287.4954 170.3871,293.3074 C169.7271,317.2084 171.6951,341.2974 169.4601,365.0134 C165.7171,404.7374 161.0571,444.5214 153.7161,483.7054 C149.5921,505.7194 129.6791,513.3434 109.0331,515.9214 C98.8771,517.1904 88.4251,516.2144 78.3131,517.6734 C67.8861,519.1784 57.7401,522.5514 47.3931,524.7344 C45.7651,525.0764 43.7191,523.4424 41.8661,522.7224 C42.7071,520.7534 43.1041,518.3864 44.4581,516.8794 C56.1831,503.8334 61.4711,489.8334 52.6741,472.8534 C51.4771,470.5424 52.3521,464.4174 52.9481,464.3214 C71.0091,461.4434 68.9561,450.8624 61.7071,439.9234 C44.4451,413.8724 58.7291,386.9414 58.1241,360.4314 C57.8631,348.9934 54.7331,337.5444 52.2061,326.2574 C49.5521,314.4024 44.7751,302.9044 43.1791,290.9504 C38.6901,257.3024 34.1751,223.5774 31.9371,189.7334 C30.0641,161.4224 30.5311,132.8674 31.6331,104.4864 C32.2411,88.8014 35.6421,73.1124 38.9331,57.6694 C43.7001,35.3044 25.5361,27.8214 13.5591,16.0224 C8.7681,11.3024 4.9951,5.5494 0.7601,0.2674 C9.4871,0.8294 18.9701,-0.6056 26.7981,2.3404 C47.6761,10.1994 67.3771,21.3004 88.4351,28.5254 C106.5111,34.7274 126.3371,35.8634 144.3681,42.1604 C154.1891,45.5894 165.4931,53.3644 169.7531,62.2364 C177.6061,78.5904 182.2551,96.9284 185.4961,114.9324 C189.6821,138.1774 191.1761,161.9054 193.8291,185.4254 C194.6671,185.6444 195.5041,185.8624 196.3431,186.0814" id="Fill-7" fill="#DCDCDC" mask="url(#mask-2)"></path>
            </g>
            <path d="M510.4185,539.3179 C499.8055,535.4529 489.4415,530.5089 478.5185,527.9889 C464.1485,524.6729 449.3155,523.4069 434.7265,520.9949 C421.7065,518.8409 408.8045,514.7729 395.7475,514.2809 C364.1735,513.0909 332.5375,513.5889 300.9305,513.1359 C297.0975,513.0809 293.2025,511.6149 289.4835,510.3649 C274.4815,505.3179 261.5275,505.5879 249.7965,519.0759 C244.7435,524.8849 235.3755,528.0699 227.3835,529.8979 C219.0225,531.8109 209.9325,531.1149 201.2195,530.5939 C198.3825,530.4249 195.0305,527.7069 193.2815,525.2019 C192.3915,523.9249 193.7835,519.5829 195.4425,518.2859 C200.1215,514.6319 206.8315,512.8859 210.2465,508.4639 C215.6725,501.4389 219.1485,492.8909 223.3005,484.9099 C224.9725,481.6949 226.3665,478.3209 227.6615,474.9329 C228.4065,472.9849 229.1685,470.8529 229.1215,468.8229 C228.8185,455.9089 227.3075,442.9309 228.2115,430.1169 C228.7465,422.5489 233.1135,415.2829 235.4415,407.7839 C235.8405,406.4999 235.0925,403.7569 234.1295,403.3189 C217.9085,395.9279 223.8565,381.6949 223.5045,369.4709 C223.3185,362.9909 223.0225,356.4629 223.5655,350.0219 C224.7565,335.9159 221.8965,318.7059 228.9715,308.4819 C240.6015,291.6759 230.5055,275.9459 233.8795,260.3359 C234.7795,256.1719 239.3235,252.2969 239.0715,248.4969 C238.6885,242.7039 234.4395,237.1989 233.8905,231.3779 C232.9425,221.3329 234.2515,211.0819 233.4085,201.0169 C231.6345,179.8629 228.9715,158.7829 226.9885,137.6429 C226.7595,135.1999 227.7485,131.6279 229.4995,130.1799 C240.9475,120.7149 242.4315,104.9639 233.3735,92.3379 C232.0005,90.4229 233.0575,85.4169 234.6755,82.9379 C244.1235,68.4589 238.8955,51.8259 224.4945,43.1979 C215.2445,37.6559 207.9715,28.4249 200.9245,19.9279 C199.4605,18.1629 202.8985,12.3389 204.0785,8.3849 C207.4365,9.5039 210.7765,10.6779 214.1565,11.7239 C217.4135,12.7329 220.6745,13.7689 223.9965,14.5149 C234.1875,16.8029 244.8445,17.8189 254.4865,21.5069 C262.9345,24.7389 270.8925,30.1449 277.9175,35.9719 C287.5375,43.9539 288.7835,75.9429 281.7885,86.1909 C280.1565,88.5809 281.1405,95.2329 283.3685,97.3349 C292.2945,105.7569 293.0915,113.4729 284.9975,122.9059 C283.0385,125.1889 283.4375,129.8649 283.4815,133.4319 C283.8095,159.6739 277.0475,188.9699 286.4995,211.4319 C300.2955,244.2189 291.0325,275.0719 292.5615,306.6339 C292.9315,314.2579 288.1455,322.1629 288.6525,329.7429 C289.4985,342.3529 295.0245,354.9419 294.2925,367.2859 C293.5045,380.5659 287.7815,393.5529 284.2065,406.6679 C284.0335,407.3019 283.6895,407.9149 283.6405,408.5539 C282.6425,421.6339 282.0405,434.7589 280.5275,447.7789 C279.9025,453.1559 275.5795,458.4999 276.1295,463.5089 C276.7195,468.8899 281.6095,478.5009 283.6695,478.2559 C296.7585,476.7009 309.5315,472.6729 322.5235,470.0259 C327.2285,469.0669 332.6485,468.3909 337.0545,469.7729 C353.8175,475.0309 369.7305,477.5829 385.6135,466.4159 C389.9975,463.3339 397.1095,463.3199 402.9795,463.2819 C442.9235,463.0259 482.8755,462.8439 522.8055,463.6309 C526.4465,463.7039 532.5445,470.4749 532.9885,474.6189 C533.9835,483.8859 531.1155,493.5289 531.7535,502.8869 C532.2775,510.5729 535.5645,518.0759 537.6845,525.6429 C538.3775,528.1159 539.2545,530.5359 540.0465,532.9799 C537.6105,533.6809 535.1945,534.8909 532.7335,534.9889 C525.7535,535.2639 518.7545,535.0849 511.7635,535.0849 C511.3145,536.4959 510.8665,537.9069 510.4185,539.3179" id="Fill-9" fill="#DCDCDC"></path>
            <path d="M638.3819,14.2281 C660.8539,14.2281 683.3249,14.2751 705.7969,14.2089382 C718.0339,14.1741 721.0139,19.8171 716.6989,30.7751 C710.7879,45.7841 707.8049,62.8111 698.6419,75.3941 C691.4969,85.2061 690.6029,96.0821 685.7739,104.9501 C670.6269,132.7651 668.2339,161.6651 666.4689,192.1411 C665.3849,210.8721 655.9919,229.1071 650.4879,247.6111 C649.5829,250.6561 649.5869,253.9601 649.0109,257.1161 C648.2689,261.1831 648.7629,267.2241 646.2999,268.9391 C632.7289,278.3861 635.5519,291.9091 634.6089,305.2991 C633.4309,322.0321 629.6809,338.5871 626.9429,355.2031 C626.4599,358.1321 624.4479,361.1651 624.9149,363.8421 C629.7989,391.8421 614.0349,413.8891 604.5699,437.8551 C603.5779,440.3691 608.7369,448.5571 610.8259,448.4771 C620.4499,448.1071 635.0769,455.4881 635.3539,435.7221 C635.3879,433.3041 640.9169,430.3761 644.3899,428.6971 C657.5679,422.3251 672.3759,418.2761 683.8389,409.7071 C694.7089,401.5821 704.6279,397.1321 717.7009,400.2951 C722.0849,401.3561 729.7189,401.8201 730.1529,403.8041 C731.1859,408.5231 728.6319,413.9621 727.8699,419.1611 C727.4029,422.3471 727.2769,425.6471 727.4999,428.8611 C728.6489,445.4001 730.4529,461.9191 730.741227,478.4681 C730.7919,481.3291 724.8619,486.4941 721.3409,486.8241 C708.4539,488.0321 695.3899,488.2361 682.4479,487.6291 C675.1879,487.2891 668.0729,483.5171 660.8259,483.2701 C652.1579,482.9751 643.3529,484.4051 634.7409,485.8731 C630.8709,486.5321 627.4789,489.9901 623.6089,490.6451 C606.2989,493.5781 588.9509,496.7221 571.4859,497.9691 C567.3989,498.2611 559.0829,491.3581 559.166268,487.9211 C559.3799,479.1481 563.4589,470.5141 565.4969,461.7101 C566.1429,458.9251 564.6769,455.6861 565.1649,452.8221 C565.7679,449.2801 567.0579,445.7411 568.6859,442.5211 C570.1689,439.5871 573.6569,437.3141 574.2539,434.3461 C576.6819,422.2841 579.3549,410.1191 579.9949,397.8901 C580.6509,385.3771 578.6549,372.7511 578.4909,360.1661 C578.1449,333.5661 575.7609,306.6511 579.0329,280.4651 C581.1499,263.5301 592.3209,247.8451 598.3319,231.2021 C600.1969,226.0351 598.5449,219.5571 598.2779,213.6901 C598.2069,212.1291 596.4489,210.2571 596.9149,209.1211 C602.2359,196.1461 607.8739,183.3021 613.3369,170.3851 C614.7989,166.9261 615.9659,163.3401 617.2429,159.8041 C624.6629,139.2771 632.2169,118.7951 639.4279,98.1951 C642.7699,88.6461 645.6159,78.9061 648.0129,69.0881 C648.1719,68.4351 642.6879,66.1041 639.6559,65.0411 C633.8929,63.0181 627.0599,62.6411 622.3879,59.2331 C615.1229,53.9321 597.5779,59.4441 594.7869,70.1891 C591.4679,82.9611 592.0989,97.1021 587.0619,108.9741 C583.2669,117.9171 573.3219,124.3061 565.8509,131.5601 C565.1969,132.1941 561.0759,130.7811 561.0819,130.3531 C561.2339,119.0081 561.5749,107.6611 562.2299,96.3331 C562.4319,92.8321 564.3029,89.3831 564.2839,85.9171 C564.1729,65.1331 563.3929,44.3451 563.7899,23.5771 C563.8469,20.6401 569.0259,15.3961 571.9639,15.3021 C594.0849,14.5991 616.2379,14.9181 638.3809,14.9181 C638.3809,14.6891 638.3819,14.4581 638.3819,14.2281" id="Fill-11" fill="#DCDCDC"></path>
            <path d="M475.5152,19.0377 C494.4962,19.0377 513.4802,18.9157 532.4572,19.2247 C534.3892,19.2557 537.8812,21.7977 537.9522,23.3027 C539.4462,54.7207 541.1452,86.1487 541.5552,117.5927 C541.9312,146.3937 528.1542,171.2727 517.0182,196.7567 C516.2932,198.4177 514.3912,199.8497 514.3002,201.4597 C513.3432,218.2857 509.4602,233.3347 492.1072,240.9507 C491.5072,241.2147 490.9322,242.3647 490.9512,243.0857 C491.7422,273.6877 465.0702,292.8187 458.8262,321.1537 C452.5662,349.5577 440.5542,376.6847 431.3722,404.4747 C430.4312,407.3237 431.6002,410.8697 431.7902,414.0927 C434.9792,413.4747 438.3922,413.3807 441.3172,412.1407 C450.8622,408.0947 460.2372,403.6497 469.6572,399.3127 C472.5102,397.9997 475.8932,397.1397 478.0132,395.0427 C490.2482,382.9367 504.8552,372.0777 513.2402,357.6517 C518.5542,348.5107 520.4462,342.6417 532.0002,344.4747 C533.4752,344.7097 536.2842,335.9437 538.6502,331.4387 C539.7892,329.2687 541.8742,325.3827 542.6062,325.5867 C546.1502,326.5727 552.1892,328.6037 552.2412,330.4117 C552.4772,338.6797 551.4482,347.0717 550.0462,355.2787 C547.7902,368.4857 544.3062,381.5037 542.4742,394.7577 C541.4172,402.4037 543.0142,410.3787 542.6282,418.1667 C542.2772,425.2477 541.4462,429.2817 533.0912,435.4467 C515.1662,448.6747 498.1932,437.4757 481.5542,441.3407 C480.2652,441.6397 478.3742,440.3477 477.0772,439.3767 C475.2652,438.0197 473.4772,434.7517 472.1592,434.9867 C468.8582,435.5747 464.5572,436.8347 462.9112,439.3167 C456.2692,449.3357 451.6672,445.7007 443.3402,440.2117 C436.7842,435.8897 426.0872,438.1937 417.4072,436.5927 C412.2722,435.6457 403.0212,431.9307 403.2112,430.9897 C405.9172,417.5957 410.3192,404.5527 413.3422,391.2057 C414.1332,387.7127 412.1722,383.1977 410.4382,379.6597 C409.0722,376.8737 405.1302,375.1847 404.2262,372.3967 C403.6812,370.7117 406.9892,367.9657 408.1232,365.4937 C409.0062,363.5717 409.8532,361.2537 409.5962,359.2557 C408.4462,350.3527 405.5292,341.4727 405.7262,332.6397 C406.5282,296.7747 424.2022,266.1027 440.9982,236.4357 C447.6312,224.7217 449.2092,213.1997 453.7662,201.8907 C459.5512,187.5327 468.1182,174.0717 476.9442,161.2247 C485.1152,149.3327 495.5952,139.4407 492.0672,122.5127 C491.0662,117.7127 496.0222,110.6467 499.9272,106.0437 C512.7762,90.8917 527.9142,76.9687 521.4462,54.0727 C520.8982,52.1337 518.0842,49.5357 516.2482,49.4747 C506.4432,49.1457 496.6152,49.5407 486.7942,49.6617 C466.0282,49.9177 453.7752,60.5897 450.3702,81.1677 C450.1192,82.6907 448.3552,85.2977 447.5652,85.2007 C431.4732,83.2197 434.8942,95.3987 433.8272,104.0447 C432.2552,116.7867 431.1152,129.5817 429.4852,142.3157 C429.3612,143.2867 426.7482,144.7007 425.4122,144.5797 C423.4142,144.3977 420.1982,143.4297 419.8072,142.1127 C417.6802,134.9437 415.3392,127.6307 414.8132,120.2427 C414.0302,109.2407 415.6962,98.0297 414.5242,87.0997 C412.6412,69.5307 409.1252,52.1427 406.6192,34.6337 C405.0202,23.4557 409.9372,18.4097 421.5712,18.7307 C439.5402,19.2267 457.5332,18.8617 475.5152,18.8617 L475.5152,19.0377 Z" id="Fill-13" fill="#DCDCDC"></path>
            <path d="M365.5831,369.0191 C363.7821,378.5511 359.5401,389.8721 360.3861,400.7971 C360.8761,407.1351 369.1231,413.2771 374.6861,418.6771 C378.4171,422.2991 384.4951,423.6741 387.7841,427.5341 C390.4461,430.6571 390.5151,435.9871 391.7331,440.3371 C388.3831,441.2431 385.0151,442.9831 381.6851,442.9131 C366.0891,442.5821 350.4731,440.9221 334.9331,441.5171 C328.7341,441.7531 322.7691,446.7191 316.5811,449.2481 C313.9731,450.3151 311.0651,450.6481 308.2931,451.3141 C307.5691,447.8371 306.7641,444.3731 306.1961,440.8721 C306.0941,440.2421 306.7901,439.1531 307.4171,438.7831 C335.4561,422.2371 327.9791,394.2801 328.1161,369.9501 C328.7091,264.0971 328.1561,158.2361 327.3781,52.3831 C327.3481,48.2611 320.8581,44.0901 317.1321,40.1761 C316.4451,39.4551 314.2741,40.3131 313.2921,39.6721 C307.3471,35.7921 301.5481,31.6901 295.7011,27.6611 C301.2271,25.2071 306.7201,20.7381 312.2831,20.6511 C334.7251,20.2981 357.1941,21.1401 379.6341,22.0381 C381.9061,22.1281 386.2241,26.4151 385.8771,27.2961 C384.0851,31.8541 382.0401,38.2431 378.3341,39.7761 C364.2061,45.6221 360.3451,55.8591 368.9311,67.9831 C370.0891,69.6191 370.0211,72.6231 369.5771,74.8011 C367.8571,83.2231 363.9261,91.6061 364.1041,99.9331 C364.9891,141.4231 367.3001,182.8841 368.0971,224.3741 C368.2281,231.1961 361.3031,238.0731 361.1621,244.9961 C360.8651,259.5341 363.4741,274.1111 363.7081,288.6921 C363.7991,294.3421 359.9391,299.9561 359.2651,305.7481 C358.6321,311.1911 359.6501,316.8641 360.2501,322.4031 C361.8671,337.3171 363.6481,352.2141 365.5831,369.0191" id="Fill-15" fill="#DCDCDC"></path>
        </g>
    </g>
</svg>