<svg width="19" height="19" viewBox="0 0 19 19" fill="none" xmlns="http://www.w3.org/2000/svg">
<path d="M9.5 18C4.80553 18 1 14.1944 1 9.5C1 4.80553 4.80553 1 9.5 1C14.1944 1 18 4.80553 18 9.5C18 14.1944 14.1944 18 9.5 18ZM9.5 16.6788C13.4646 16.6788 16.6788 13.4647 16.6788 9.5C16.6788 5.5353 13.4646 2.32124 9.5 2.32124C5.53521 2.32124 2.32124 5.5353 2.32124 9.5C2.32124 13.4647 5.53521 16.6788 9.5 16.6788ZM6.54922 13.3297C4.81047 12.4283 3.64249 10.7548 3.64249 8.83938C3.64249 5.9692 6.26498 3.64249 9.5 3.64249C12.735 3.64249 15.3575 5.9692 15.3575 8.83938C15.3575 10.6895 14.2678 12.3137 12.6269 13.2346V14.2123C12.6269 14.3525 12.5712 14.4869 12.4721 14.5861C12.3729 14.6852 12.2385 14.7408 12.0984 14.7408H7.07763C6.93747 14.7408 6.80304 14.6852 6.70393 14.5861C6.60482 14.4869 6.54913 14.3525 6.54913 14.2123V13.3297H6.54922ZM7.96463 7.80801C7.89293 7.8849 7.85472 7.98711 7.85838 8.09217C7.86205 8.19723 7.9073 8.29653 7.98418 8.36822L8.69281 9.02902C8.73082 9.06484 8.77553 9.09279 8.82438 9.11128C8.87322 9.12976 8.92524 9.13841 8.97744 9.13673C9.02964 9.13504 9.081 9.12306 9.12855 9.10146C9.1761 9.07987 9.21892 9.04909 9.25454 9.01089C9.29016 8.97269 9.31788 8.92783 9.33611 8.87889C9.35434 8.82995 9.36271 8.77788 9.36075 8.72569C9.35879 8.6735 9.34654 8.62221 9.32469 8.57477C9.30285 8.52733 9.27184 8.48468 9.23346 8.44926L8.52483 7.78837C8.44795 7.71668 8.34574 7.67846 8.24068 7.68213C8.13562 7.6858 8.03632 7.73105 7.96463 7.80793V7.80801ZM11.367 7.80801C11.2953 7.73114 11.196 7.68588 11.091 7.68222C10.9859 7.67855 10.8837 7.71677 10.8068 7.78846L10.0982 8.44926C10.0598 8.48468 10.0288 8.52733 10.0069 8.57477C9.98509 8.62221 9.97284 8.6735 9.97088 8.72569C9.96892 8.77788 9.9773 8.82995 9.99552 8.87889C10.0138 8.92783 10.0415 8.97269 10.0771 9.01089C10.1127 9.04909 10.1555 9.07987 10.2031 9.10146C10.2506 9.12306 10.302 9.13504 10.3542 9.13673C10.4064 9.13841 10.4584 9.12976 10.5073 9.11128C10.5561 9.09279 10.6008 9.06484 10.6388 9.02902L11.3475 8.36822C11.4243 8.29653 11.4696 8.19723 11.4732 8.09217C11.4769 7.98711 11.4387 7.8849 11.367 7.80801ZM6.98964 12.1865C7.96251 12.1865 8.7513 11.3977 8.7513 10.4249C8.7513 9.45191 7.96251 8.66321 6.98964 8.66321C6.01667 8.66321 5.22798 9.45191 5.22798 10.4249C5.22798 11.3977 6.01667 12.1865 6.98964 12.1865ZM12.3627 12.1865C13.3356 12.1865 14.1244 11.3977 14.1244 10.4249C14.1244 9.45191 13.3356 8.66321 12.3627 8.66321C11.3897 8.66321 10.601 9.45191 10.601 10.4249C10.601 11.3977 11.3897 12.1865 12.3627 12.1865ZM9.58808 11.0415L8.7513 12.5389H10.4249L9.58808 11.0415V11.0415Z" fill="#DCDCDC"/>
</svg>
