<svg width="194" height="194" xmlns="http://www.w3.org/2000/svg"><path d="M96.929 193.132c-53.296 0-96.5-43.205-96.5-96.5 0-53.296 43.204-96.5 96.5-96.5 53.295 0 96.5 43.204 96.5 96.5 0 53.295-43.205 96.5-96.5 96.5zm0-15c45.01 0 81.5-36.489 81.5-81.5s-36.49-81.5-81.5-81.5c-45.012 0-81.5 36.489-81.5 81.5s36.488 81.5 81.5 81.5zm-33.5-38.022c-19.74-10.233-33-29.232-33-50.978 0-32.585 29.773-59 66.5-59 36.727 0 66.5 26.415 66.5 59 0 21.004-12.371 39.444-31.001 49.899v11.1a6 6 0 01-6 6h-57a6 6 0 01-6-6V140.11zm16.069-62.687a4.5 4.5 0 00.222 6.36l8.045 7.502a4.5 4.5 0 106.138-6.582L85.858 77.2a4.5 4.5 0 00-6.36.222zm38.627 0a4.5 4.5 0 00-6.36-.222l-8.045 7.502a4.5 4.5 0 106.138 6.582l8.045-7.502a4.5 4.5 0 00.222-6.36zm-49.696 49.709c11.045 0 20-8.955 20-20 0-11.046-8.955-20-20-20-11.046 0-20 8.954-20 20 0 11.045 8.954 20 20 20zm61 0c11.045 0 20-8.955 20-20 0-11.046-8.955-20-20-20-11.046 0-20 8.954-20 20 0 11.045 8.954 20 20 20zm-31.5-13l-9.5 17h19l-9.5-17z" fill="#DCDCDC" fill-rule="nonzero"/></svg>