<svg width="2400" height="1038" xmlns="http://www.w3.org/2000/svg"><path d="M1297.07 9.062l1.986 1.279 1.989 1.277c9.286 5.95 18.694 11.715 29.074 15.62.907 1.704 2.794 5.078 3.7 6.747-.471 1.125-1.378 3.446-1.85 4.57 8.453 19.228 13.859 42.01 5.66 62.214-5.587 6.82-15.31 7.876-23.182 10.517-.036 9.759 1.524 19.412 2.358 29.099 16.833 2.72 31.083-8.997 47.735-7.836 2.249-9.324 4.027-18.8 7.009-27.938 3.446 6.058 3.588 13.027 3.627 19.848 4.354 1.233 8.78 2.358 13.235 3.442.043 1.673.076 5.01.076 6.68 72.991.434 145.943-.331 218.938.398-.182 2.496-.537 7.506-.683 10.013 1.887 0 5.732.036 7.648.036-.073-13.274 0-26.592-.036-39.866 1.85-.076 5.478-.185 7.291-.221.044 10.448.077 20.896.185 31.348l2.832 3.476.718.88c1.074 1.317 2.117 2.595 2.839 3.476 1.197-1.418 3.588-4.204 4.781-5.623 5.551 5.192 2.395 12.302 2.148 18.68 20.425-.222 41.06 1.157 61.419-.512 1.523-1.124 4.57-3.337 6.094-4.458 2.798 1.084 5.624 2.176 8.417 3.3 9.178-.224 18.393-.253 27.608-.29-.19 4.753-.334 9.502-.516 14.258-11.863-.185-23.762-.435-35.443 1.593-5.72-4.92-12.92-4.927-20.037-4.749l-.908.023c-1.965.051-3.92.101-5.828.05-14.004.652-28.45-1.815-42.01 2.644-8.061 2.25-16.906 1.709-24.016-2.866-.461 1.143-.608 2.667-.717 4.277l-.03.462-.044.699c-.261 4.046-.687 8.19-5.456 7.945-28.152.366-56.268-.25-84.383.185-3.845 2.032-7.727 3.954-11.565 5.837-4.064 12.117-15.709 20.203-25.62 27.604-.837 12.629 2.285 24.69 5.274 36.782l.47 1.91c1.248 5.093 2.434 10.198 3.253 15.359-5.55 1.592-11.137 3.232-16.615 5.046-3.07 7.244-4.21 15.52-5.537 23.688l-.206 1.256c-2.046 12.337-4.771 24.298-15.516 31.943-3.911 2.275-7.451 5.297-10.936 8.41l-.746.668c-8.695 7.804-17.18 15.876-30.364 13.923 9.577 7.98-2.612 5.478-1.343-.907-24.867-2.198-46.873-13.444-68.46-25.282l-1.773-.975-1.772-.975-3.54-1.953c-1.18-.65-2.358-1.3-3.537-1.946l-1.769-.968a526.897 526.897 0 00-11.512-6.135c-1.38 8.34-3.552 16.543-5.805 24.706 11.246 2.14 20.533 10.411 22.529 21.948 3.591 25.144-3.592 50.107-3.483 75.317.798 14.801-5.55 28.365-13.46 40.446-4.773 5.398-11.44 3.254-17.842 1.019l-.927-.325-.308-.107-.615-.213c-2.246-.775-4.433-1.47-6.464-1.753a614.242 614.242 0 00-5.55 11.029c2.358 9.864 3.374 20.13 6.675 29.78 18.538 20.498 35.407 42.703 48.359 67.191a887.31 887.31 0 0135.592 85.104c.913 5.076 5.311 7.217 9.578 9.084l.555.242.552.24.275.12c.616 5.805 1.233 11.602 1.813 17.483a810.695 810.695 0 005.55 7.978c1.126 35.773-3.264 71.395-8.822 106.693-1.72 7.965-.25 15.837 1.177 23.723l.294 1.632c1.31 7.343 2.39 14.705.633 22.17.436 8.21-5.217 14.409-7.872 21.665-.508 16.941-1.342 34.097.515 51.01.98 9.353 7.182 16.189 13.223 22.952l.739.828c1.72 1.932 3.407 3.866 4.939 5.86 7.763 8.238 14.257 19.3 26.011 22.234 11.065 3.301 21.622 8.09 31.373 14.37 2.975 7.36 2.431 15.168 1.016 22.815-14.022 2.584-28.233 2.613-42.446 2.428l-2.751-.038c-6.419-.091-12.835-.196-19.232-.097-9.458.495-18.33-2.195-27.197-4.937l-1.663-.514c-6.098-1.882-12.21-3.696-18.527-4.424-4.513-.114-9.313.455-14.146.98l-1 .108c-.834.09-1.668.175-2.502.255l-1 .092c-10.323.916-20.435.603-27.853-8.034 1.836-6.999 3.061-14.184 4.317-21.36l.36-2.05c2.112-11.954 4.481-23.829 10.081-34.711 2.975-20.421-2.677-41.14-1.487-61.745-1.77-1.488-5.333-4.462-7.11-5.957.85-8.97-1.818-17.283-4.348-25.643l-.42-1.394c-1.113-3.718-2.158-7.454-2.815-11.269-1.444-18.803-3.156-37.588-5.333-56.307-1.705-9.106 3.011-17.446 9.432-23.505.58-10.52 2.003-20.936 3.011-31.38-1.56-6.788-6.965-11.827-10.448-17.631-11.645 4.905-27.353 2.58-34.282-8.82-16.43-24.447-32.832-48.898-49.447-73.208-6.53-.432-13.423.254-19.518-2.358-7.03-7.216-10.702-16.83-15.193-25.61-6.425 7.22-5.957 18.281-13.568 24.851-12.848 12.33-18.171 29.273-24.07 45.676l-.53 1.467c-1.33 3.664-2.702 7.293-4.205 10.83-3.049 6.069-3.846 12.73-4.598 19.391l-.174 1.537c-.788 6.913-1.71 13.775-5.24 19.92-1.597 2.8-4.193 4.669-6.866 6.448l-.73.483-.365.241-.728.484c-3.144 2.106-6.1 4.353-7.346 8.13-3.338 8.3-7.256 16.901-15.056 21.951-5.83 3.823-8.706 10.017-11.167 16.346l-.366.95c-.97 2.536-1.895 5.075-2.934 7.475-1.922 4.473-1.182 9.068-.358 13.687l.256 1.434c.56 3.188 1.034 6.383.573 9.551-2.639 12.859-8.004 24.68-13.609 36.421l-1.162 2.428c-5.432 11.329-10.928 22.643-14.251 34.8-3.193 11.536-7.767 24.523-21.19 26.986-15.273 27.281-23.686 60.66-15.052 91.377 5.297 9.65 5.007 20.497 3.374 31.127-.684.053-1.368.108-2.052.163l-2.055.167c-2.056.17-4.116.345-6.179.518l-3.096.258c-19.964 1.642-40.138 2.804-59.606-2.735-5.201-10.305-4.868-22.305-3.86-33.564l.114-1.248.119-1.241c7.36-31.46 17.123-62.366 23.105-94.145-6.154-5.467-6.057-13.319-5.752-20.886l.033-.81c.056-1.346.111-2.681.132-3.989-.182-12.057 5.734-22.369 11.989-32.33l.671-1.065c2.128-3.372 4.271-6.709 6.205-10.066 2.942-13.967 1.563-28.975 8.779-41.792.894-1.688 1.773-3.39 2.647-5.1l.871-1.713c7.107-14.002 13.993-28.377 25.254-39.514 1.312-6 4.257-11.228 7.252-16.434l.855-1.487c2.42-4.216 4.773-8.464 6.22-13.14 3.627-9.723-2.722-19.59-1.445-29.527 2.338-22.616 6.005-45.062 9.698-67.498l1.055-6.41a3037.73 3037.73 0 002.598-16.029c-6.246-5.215-6.756-12.562-7.445-19.957l-.084-.887c-.285-2.958-.636-5.91-1.432-8.722a68.953 68.953 0 015.333-11.5c-2.25-2.068-4.459-4.172-6.712-6.237.414-2.021.727-4.346 1.074-6.763l.111-.766.057-.385.116-.772c1.499-9.8 4.12-20.17 16.528-17.543.43-14.959-1.526-29.715-3.606-44.443l-.605-4.276c-2.62-18.525-5.09-37.033-2.9-55.874 2.177 2.536 4.313 5.115 6.494 7.691l-1.161-11.935c6.82-3.628 14.076-6.421 21.694-7.836-9.587-1.259-18.98-3.43-28.364-5.659l-3.313-.787c-1.656-.394-3.313-.786-4.97-1.173-2.482-6.528-1.699-13.413-.744-20.16l.151-1.064c.127-.885.254-1.768.374-2.647 4.717-26.7 6.458-53.764 7.437-80.827 13.75-4.781 28.914-.722 42.337-7.11-4.165-33.848-5.217-69.179 6.82-101.651 9.686-27.648 28.192-54.312 57.065-64.031 13.64-3.261 30.8-6.93 40.443 6.312 2.648-2.43 5.297-4.934 7.945-7.364-22.017-43.73 4.284-107.615 54.246-116.612 16.543-5.732 34.613-.947 49.774 6.53zM319.556 489.745c43.17-.431 79.13 38.567 82.387 80.396-5.768.475-11.536.83-17.305.907-95.157-.105-190.314.036-285.438-.076-.04 67.622-.396 135.24.18 202.866 101.003-.148 201.964-.221 302.962.04-2.866 43.345-39.365 81.81-83.363 83.512-39.826.56-79.652.516-119.479.435l-21.723-.045c-25.345-.048-50.69-.068-76.034.085-18.03.617-36.605-1.636-52.854-9.87C20.883 833.667 1.071 804.46.1 772.753c-.08-66.68-.189-133.326.029-200.001 1.709-41.974 36.858-81.411 79.63-83.044 79.917-.076 159.874-.076 239.798.036zm235.52-.108c79.812.076 159.66 0 239.511.036 41.68.254 78.393 36.746 81.335 77.929-58.49.826-117.001.8-175.515.683l-23.406-.05c-39.01-.085-78.02-.166-117.024-.017-.475 21.187-.254 42.373-.29 63.592 78.288.25 156.612.073 234.9.073 23.214.906 47.597 8.347 63.41 26.301 17.773 15.893 25.286 40.09 25.867 63.381.395 23.255.395 46.621-3.378 69.65-8.634 37.298-44.295 65.087-82.347 66.284-76.108.722-152.263.073-228.37.363-17.954.366-36.529-2.213-52.458-10.956-25.25-13.173-43.389-39.663-45.888-68.098 107.165.516 214.366.327 321.532.077.253-22.573.108-45.134.108-67.695-79.303-.544-158.643-.076-237.987-.225-45.598.366-85.939-41.538-84.713-86.991.447-7.842.263-15.846.06-23.877l-.045-1.721-.021-.86-.042-1.723-.02-.861-.038-1.722c-.378-18.368.054-36.678 8.595-53.325 13.314-29.062 43.788-50.644 76.224-50.248zm1538.082-4.825c74.878.224 149.792-.25 224.67.18 42.445 1.815 79.735 38.463 81.371 81.046.076 68.823.076 137.675 0 206.538-.762 42.188-38.128 81.513-80.965 80.79-82.351-.362-164.702.255-247.06-.29-41.067-4.57-72.593-43.783-72.883-84.382-.58-62.764.072-125.598-.327-188.355-.326-18.502 3.011-37.512 12.806-53.474 11.497-20.065 32.103-34.109 54.374-39.518 9.113-2.467 18.61-2.644 28.014-2.535zm-493.138 0c81.009.076 162.054-.037 243.063.036 39.514.834 78.037 31.71 82.608 71.837-42.05-.14-84.097-.129-126.14-.097l-42.043.033c-56.055.04-112.104.04-168.15-.31-.109 75.027-.254 150.087 0 225.15 86.051-.142 172.096-.29 258.154.072-.132-10.753-.142-21.506-.13-32.258l.024-16.129c.01-10.752-.005-21.504-.148-32.255-42.55.243-85.108.326-127.662 0-34.134-1.31-59.529-30.8-67.216-62.217 91.493-.327 182.95-.363 274.436.036-.392 45.964.225 91.968-.327 137.933-1.088 38.708-34.387 72.777-72.556 76.659-88.264 0-176.565-.037-264.829-.037-26.374-.188-49.7-16.84-64.575-37.624-10.158-14.696-12.447-32.94-13.894-50.248-.145-61.673.072-123.382-.076-185.054.333-22.355 4.288-45.968 19.38-63.385 16.611-20.965 43.457-32.578 70.081-32.142zm478.043 69.512c.145 77.417-.327 154.867.217 232.284 80.429.221 160.9-.036 241.325.102.247-77.483.036-154.976.102-232.506-80.534-.029-161.107-.17-241.644.12zM1436.59 192.012c-4.353.076-8.743.145-13.096.181-.4.245-.8.493-1.195.744l-.394.251-.39.254c-4.979 3.273-8.82 7.115-3.42 12.83a246.602 246.602 0 01-8.967 5.112c-1.53 1.177-3.677 2.189-5.84 3.27l-.54.272c-4.32 2.187-8.496 4.728-7.696 9.486a176.6 176.6 0 0113.644 26.733c11.57-9.501 20.784-22.278 27.024-35.803a920.353 920.353 0 015.26-5.336c-.58-6.204-1.959-12.266-4.39-17.994z" fill="#DCDCDC" fill-rule="nonzero"/></svg>