<?xml version="1.0" encoding="UTF-8"?>
<svg width="44px" height="32px" viewBox="0 0 44 32" version="1.1" xmlns="http://www.w3.org/2000/svg" xmlns:xlink="http://www.w3.org/1999/xlink">
    <title>surface1</title>
    <g id="页面-1" stroke="none" stroke-width="1" fill="none" fill-rule="evenodd">
        <g id="画板" transform="translate(-940.000000, -1730.000000)" fill="#DCDCDC" fill-rule="nonzero">
            <g id="discord" transform="translate(940.000000, 1730.000000)">
                <path d="M38,4 C38,4 33.414,0.41 28,0 L27.512,0.977 C32.406,2.176 34.652,3.89 37,6 C32.953,3.934 28.96,2 22,2 C15.04,2 11.047,3.934 7,6 C9.348,3.89 12.02,1.984 16.488,0.977 L16,0 C10.32,0.535 6,4 6,4 C6,4 0.879,11.426 0,26 C5.16,31.953 13,32 13,32 L14.64,29.816 C11.856,28.848 8.716,27.121 6,24 C9.238,26.45 14.125,29 22,29 C29.875,29 34.762,26.45 38,24 C35.285,27.121 32.145,28.848 29.36,29.816 L31,32 C31,32 38.84,31.953 44,26 C43.121,11.426 38,4 38,4 Z M15.5,22 C13.566,22 12,20.21 12,18 C12,15.79 13.566,14 15.5,14 C17.434,14 19,15.79 19,18 C19,20.21 17.434,22 15.5,22 Z M28.5,22 C26.566,22 25,20.21 25,18 C25,15.79 26.566,14 28.5,14 C30.434,14 32,15.79 32,18 C32,20.21 30.434,22 28.5,22 Z" id="surface1"></path>
            </g>
        </g>
    </g>
</svg>