<svg width="44" height="32" xmlns="http://www.w3.org/2000/svg"><path d="M38 4S33.414.41 28 0l-.488.977C32.406 2.176 34.652 3.89 37 6c-4.047-2.066-8.04-4-15-4-6.96 0-10.953 1.934-15 4 2.348-2.11 5.02-4.016 9.488-5.023L16 0C10.32.535 6 4 6 4S.879 11.426 0 26c5.16 5.953 13 6 13 6l1.64-2.184C11.856 28.848 8.716 27.121 6 24c3.238 2.45 8.125 5 16 5s12.762-2.55 16-5c-2.715 3.121-5.855 4.848-8.64 5.816L31 32s7.84-.047 13-6c-.879-14.574-6-22-6-22zM15.5 22c-1.934 0-3.5-1.79-3.5-4s1.566-4 3.5-4 3.5 1.79 3.5 4-1.566 4-3.5 4zm13 0c-1.934 0-3.5-1.79-3.5-4s1.566-4 3.5-4 3.5 1.79 3.5 4-1.566 4-3.5 4z" fill="#DCDCDC" fill-rule="nonzero"/></svg>