<svg width="25" height="19" viewBox="0 0 25 19" fill="none" xmlns="http://www.w3.org/2000/svg">
<path d="M20.8636 3.125C20.8636 3.125 18.4664 1.21781 15.6364 1L15.3813 1.51903C17.9395 2.156 19.1135 3.06656 20.3409 4.1875C18.2254 3.08994 16.1382 2.0625 12.5 2.0625C8.86182 2.0625 6.77457 3.08994 4.65909 4.1875C5.88645 3.06656 7.28318 2.054 9.61873 1.51903L9.36364 1C6.39455 1.28422 4.13636 3.125 4.13636 3.125C4.13636 3.125 1.45948 7.07006 1 14.8125C3.69727 17.975 7.79545 18 7.79545 18L8.65273 16.8397C7.19745 16.3255 5.55609 15.408 4.13636 13.75C5.82895 15.0516 8.38352 16.4062 12.5 16.4062C16.6165 16.4062 19.171 15.0516 20.8636 13.75C19.4444 15.408 17.8031 16.3255 16.3473 16.8397L17.2045 18C17.2045 18 21.3027 17.975 24 14.8125C23.5405 7.07006 20.8636 3.125 20.8636 3.125ZM9.10227 12.6875C8.09132 12.6875 7.27273 11.7366 7.27273 10.5625C7.27273 9.38844 8.09132 8.4375 9.10227 8.4375C10.1132 8.4375 10.9318 9.38844 10.9318 10.5625C10.9318 11.7366 10.1132 12.6875 9.10227 12.6875ZM15.8977 12.6875C14.8868 12.6875 14.0682 11.7366 14.0682 10.5625C14.0682 9.38844 14.8868 8.4375 15.8977 8.4375C16.9087 8.4375 17.7273 9.38844 17.7273 10.5625C17.7273 11.7366 16.9087 12.6875 15.8977 12.6875Z" fill="#DCDCDC"/>
</svg>
