<svg width="120" height="120" xmlns="http://www.w3.org/2000/svg"><path d="M32.049 0H87.95c11.144 0 15.185 1.16 19.26 3.34 4.074 2.178 7.271 5.375 9.45 9.45C118.84 16.863 120 20.904 120 32.048V87.95c0 11.144-1.16 15.185-3.34 19.26-2.178 4.074-5.375 7.271-9.45 9.45-4.074 2.179-8.115 3.339-19.259 3.339H32.05c-11.144 0-15.185-1.16-19.26-3.34-4.074-2.178-7.271-5.375-9.45-9.45C1.16 103.137 0 99.096 0 87.952V32.05c0-11.144 1.16-15.185 3.34-19.26 2.178-4.074 5.375-7.271 9.45-9.45C16.863 1.16 20.904 0 32.048 0zM62.5 15v61c0 9-7.5 13-13.5 13-5 0-12-4.262-12-13 0-11 9-13 16-13V48c-24 0-32 17-32 28s8 28 28 28c21 0 29-13 29-24V45c4 4 11 6.333 21 7V39c-14-2.667-21-10.667-21-24H62.5z" fill="#DCDCDC" fill-rule="nonzero"/></svg>