<svg width="79" height="79" xmlns="http://www.w3.org/2000/svg"><path d="M23.075 0h32.85c8.024 0 10.933.835 13.867 2.404a16.356 16.356 0 016.804 6.804C78.165 12.142 79 15.051 79 23.075v32.85c0 8.024-.835 10.933-2.404 13.867a16.356 16.356 0 01-6.804 6.804C66.858 78.165 63.949 79 55.925 79h-32.85c-8.024 0-10.933-.835-13.867-2.404a16.356 16.356 0 01-6.804-6.804C.835 66.858 0 63.949 0 55.925v-32.85c0-8.024.835-10.933 2.404-13.867a16.356 16.356 0 016.804-6.804C12.142.835 15.051 0 23.075 0zM39.5 62C51.926 62 62 51.926 62 39.5S51.926 17 39.5 17 17 27.074 17 39.5c0 6.972 3.171 13.204 8.15 17.331C24 58 22 58 20 58c9 4 16.505 4 19.5 4zm0-7c-1.996 0-7 0-13-2.756 1.333 0 2.667 0 3.434-.805-3.32-2.843-5.434-7.136-5.434-11.939 0-8.56 6.716-15.5 15-15.5 8.284 0 15 6.94 15 15.5 0 8.56-6.716 15.5-15 15.5zm25-36a3.5 3.5 0 100-7 3.5 3.5 0 000 7z" fill="#DCDCDC" fill-rule="nonzero"/></svg>