<?xml version="1.0" encoding="UTF-8"?>
<svg width="79px" height="79px" viewBox="0 0 79 79" version="1.1" xmlns="http://www.w3.org/2000/svg" xmlns:xlink="http://www.w3.org/1999/xlink">
    <!-- Generator: Sketch 53.2 (72643) - https://sketchapp.com -->
    <title>duoshan</title>
    <desc>Created with Sketch.</desc>
    <g id="Page-1" stroke="none" stroke-width="1" fill="none" fill-rule="evenodd">
        <g id="化妆界面" transform="translate(-243.000000, -42.000000)" fill="#DCDCDC" fill-rule="nonzero">
            <path d="M266.074967,42 L298.925033,42 C306.948702,42 309.858278,42.8354305 312.791611,44.4041943 C315.724945,45.9729582 318.027042,48.2750553 319.595806,51.2083887 C321.164569,54.141722 322,57.0512981 322,65.0749668 L322,97.9250332 C322,105.948702 321.164569,108.858278 319.595806,111.791611 C318.027042,114.724945 315.724945,117.027042 312.791611,118.595806 C309.858278,120.164569 306.948702,121 298.925033,121 L266.074967,121 C258.051298,121 255.141722,120.164569 252.208389,118.595806 C249.275055,117.027042 246.972958,114.724945 245.404194,111.791611 C243.835431,108.858278 243,105.948702 243,97.9250332 L243,65.0749668 C243,57.0512981 243.835431,54.141722 245.404194,51.2083887 C246.972958,48.2750553 249.275055,45.9729582 252.208389,44.4041943 C255.141722,42.8354305 258.051298,42 266.074967,42 Z M282.5,104 C294.926407,104 305,93.9264069 305,81.5 C305,69.0735931 294.926407,59 282.5,59 C270.073593,59 260,69.0735931 260,81.5 C260,88.4723927 263.171443,94.7040552 268.150469,98.8311269 C267,100 265,100 263,100 C272,104 279.505424,104 282.5,104 Z M282.5,97 C280.503616,97 275.5,97 269.5,94.2444444 C270.833333,94.2444444 272.166667,94.2444444 272.933646,93.4392207 C269.614296,90.5961269 267.5,86.3032039 267.5,81.5 C267.5,72.9395864 274.215729,66 282.5,66 C290.784271,66 297.5,72.9395864 297.5,81.5 C297.5,90.0604136 290.784271,97 282.5,97 Z M307.5,61 C309.432997,61 311,59.4329966 311,57.5 C311,55.5670034 309.432997,54 307.5,54 C305.567003,54 304,55.5670034 304,57.5 C304,59.4329966 305.567003,61 307.5,61 Z" id="duoshan"></path>
        </g>
    </g>
</svg>