<svg width="648" height="751" xmlns="http://www.w3.org/2000/svg"><path d="M588.396 0c42.927 0 58.77 15.842 58.77 58.79v518.235c0 4.86-.197 9.375-.626 13.557-.977 9.375-1.161 18.459-9.88 28.802-.85 1.013-9.752 7.637-9.752 7.637-4.79 2.348-8.057 4.077-13.459 6.25L352.656 742.537c-13.54 6.206-19.201 8.625-29.035 8.43v.002h-.077v-.002c-9.833.195-15.495-2.224-29.033-8.43L33.716 633.272c-5.4-2.174-8.67-3.903-13.457-6.251 0 0-8.902-6.624-9.754-7.637-8.718-10.343-8.902-19.427-9.88-28.802C.196 586.4 0 581.885 0 577.025V58.79C0 15.842 15.843 0 58.77 0h529.626zM139.274 261.037h51.578v-39.896h-51.578v-81.448h53.631V99.797h-97.43v287.935h98.246v-39.897h-54.447v-86.798zm369.434 8.643v64.992c0 11.519-5.324 16.863-16.37 16.863h-8.193c-11.46 0-16.784-5.344-16.784-16.863V152.856c0-11.517 5.324-16.861 16.784-16.861h7.37c11.053 0 16.377 5.344 16.377 16.861v56.359h42.977v-58.827c0-35.783-17.193-53.06-52.8-53.06h-21.292c-35.608 0-53.216 17.685-53.216 53.475v185.922c0 35.791 17.608 53.475 53.216 53.475h21.7c35.615 0 53.214-17.684 53.214-53.475V269.68h-42.983zm-152.1 118.052h43.806V99.796h-43.806v287.936zm-63.559-160.01c0 11.518-5.316 16.869-16.37 16.869h-18.014V138.463h18.015c11.053 0 16.37 5.345 16.37 16.861v72.398zm-9.414-127.926h-68.77v287.936h43.8V283.25h24.97c35.614 0 53.214-17.684 53.214-53.467v-76.512c0-35.79-17.6-53.475-53.214-53.475zm269.287 421.22l.12-1.314v-2.87l-.12-1.314-.12-1.195-.239-1.196-.238-1.196-.239-1.076-.352-1.076-.359-1.075-.477-.956-.599-1.077-.59-.956-.718-1.075-.71-.957-.836-.836-.83-.957-.956-.836-.949-.838-.95-.597-.957-.717-.948-.598-1.069-.597-1.076-.599-1.19-.597-1.187-.477-1.188-.599-1.315-.47-1.068-.36-1.07-.358-1.195-.359-1.068-.358-1.188-.359-1.19-.359-1.196-.238-1.308-.359-1.188-.359-1.306-.238-1.308-.36-1.308-.358-1.316-.358-1.188-.24-1.068-.359-1.076-.239-.95-.358-.949-.239-1.428-.477-1.315-.479-1.188-.479-.949-.597-1.076-.597-.83-.838-.478-.717-.59-1.315-.12-1.553v-.24l.12-1.195.47-1.076.717-1.076 1.07-.957.837-.477.95-.479 1.067-.239 1.196-.24 1.308-.238h2.617l1.067.12 1.196.118 1.188.12 1.188.24 1.188.24 1.196.24 1.188.356 1.188.36 1.31.358.956.478 1.068.36.949.476 1.076.48.95.476 1.067.48.958.598 1.068.477.956.717.95.598 1.068.598.956.716.711-.956.597-.956.71-.956.718-.956.71-1.076.598-.956.716-.956.712-.957.596-.956.711-.956.717-.957.599-.956.71-1.075.717-.957.71-.956.598-.956.709-.958-.948-.716-.95-.717-.955-.719-.951-.596-1.075-.717-.949-.599-1.07-.597-1.075-.597-.95-.479-1.069-.597-1.195-.479-1.069-.479-1.068-.477-1.07-.359-1.194-.477-1.07-.24-1.069-.359-1.194-.358-1.07-.239-1.188-.24-1.188-.239-1.076-.238-1.189-.239-1.308-.12-1.188-.239-1.315-.12h-1.188l-1.308-.12-1.308-.118h-5.118l-1.188.118-1.188.12-1.196.12-1.188.12-1.07.24-1.188.238-1.074.238-1.071.24-.95.24-1.075.358-1.188.477-1.188.36-1.076.477-1.068.598-1.07.478-1.076.598-.948.597-.95.717-.956.718-.83.597-.956.837-.83.958-.836.836-.83.956-.718.956-.711.957-.596 1.075-.592 1.077-.477 1.075-.479 1.076-.47 1.076-.24 1.074-.358 1.078-.24 1.076-.239 1.074-.12 1.196-.118 1.076-.12 1.195V485.522l.12 1.313.118 1.196.12 1.195.239 1.076.24 1.196.359.956.35 1.076.359.957.479.83.597 1.074.59.957.6.836.709.836.717.838.83.837.837.836.829.719.956.597.95.717 1.069.598.956.597 1.189.597 1.068.598 1.195.478 1.189.478 1.188.478 1.308.48 1.076.358 1.068.358 1.07.36 1.187.24 1.076.356 1.19.36 1.186.24 1.196.358 1.188.238 1.308.36 1.19.238 1.306.358 1.196.24 1.188.358 1.07.238 1.076.36.948.24.83.24 1.427.595 1.196.479 1.068.478.95.478.957.717.829.717.599.836.478 1.196.118 1.435v.239l-.118 1.196-.36 1.074-.478.958-.71.837-.956.717-.83.478-.956.358-1.07.24-1.068.24-1.196.238-1.308.118H518.171l-1.306-.118h-1.19l-1.194-.239-1.308-.12-1.188-.239-1.188-.238-1.196-.24-1.068-.359-1.19-.359-1.188-.358-1.074-.478-1.071-.358-1.068-.479-1.076-.477-1.07-.479-.947-.599-1.078-.477-.948-.599-1.069-.716-.956-.597-1.07-.717-.955-.718-1.07-.717-.949-.717-.717.956-.83.836-.717.957-.83.956-.717.836-.71.957-.836.956-.711.838-.837.956-.71.836-.837.957-.71.956-.717.836-.83.956-.718.957-.829.838-.717.956.949.836.836.717.95.717.957.718.949.717.95.717.955.598.95.597 1.076.599.949.596 1.07.598 1.074.48 1.07.588 1.069.48 1.074.478 1.19.478 1.069.358 1.188.358 1.075.48 1.189.358 1.188.358 1.07.24 1.194.358 1.188.238 1.188.24 1.19.24 1.195.238 1.188.12 1.188.238 1.308.12 1.195.12 1.19.12h1.306l1.19.12H521.145l1.19-.12 1.306-.12 1.196-.12 1.068-.12 1.19-.118 1.195-.24 1.068-.239 1.07-.239 1.188-.24 1.076-.357 1.188-.36 1.188-.357 1.188-.479 1.196-.479 1.068-.597 1.069-.479 1.076-.597.95-.717.949-.59.956-.717.83-.717.955-.838.71-.717.838-.837.71-.836.598-.956.71-.956.598-.958.597-.956.471-1.074.479-.958.477-1.076.36-1.196.232-1.076.357-1.194.24-1.196.119-1.314.12-1.196zm-83.459 23.902h1.19v-19.719H423.998V510.378H465.414V491.856H423.998v-14.224H470.055v-19.725h-68.782V544.918H469.463zm-86.952 0h1.188V457.907h-24.392l-.597.957-.59 1.075-.718.95-.599 1.075-.589.956-.599 1.078-.709.948-.599 1.077-.596.956-.592.956-.716 1.068-.592.957-.597 1.075-.597.957-.71 1.068-.6.956-.589.956-.599 1.071-.597.955-.71 1.076-.597.957-.598 1.068-.591.957-.717 1.075-.59.95-.598.955-.598 1.076-.71.958-.598 1.076-.592.95-.596 1.075-.71.956-.598 1.068-.597.957-.59-.957-.598-1.068-.719-.956-.59-1.076-.598-.95-.59-1.075-.598-.958-.717-1.076-.59-.956-.6-.949-.589-1.075-.597-.957-.717-1.068-.592-.957-.598-1.076-.589-.955-.599-1.07-.717-.957-.59-.956-.598-1.068-.597-.957-.711-1.075-.597-.957-.591-1.068-.599-.956-.596-.956-.712-1.077-.597-.948-.59-1.078-.598-.956-.599-1.076-.709-.949-.597-1.075-.591-.957H292.662V544.918H315.275v-51.212l.71.956.6 1.084.709.954.597 1.076.718.958.59 1.074.718.964.59 1.076.718.956.597 1.076.71.956.598 1.084.71.956.598 1.076.71.956.598 1.083.717.956.71 1.076.598.956.71 1.083.598.956.718 1.076.589.956.717 1.084.591.956.717 1.074.599.958.71 1.076.597.964.71 1.074.598.956.71 1.076.599.964.716 1.076h.472l.597-.956.711-1.084.597-.956.718-.956.59-1.076.716-.957.591-.963.599-1.074.717-.958.59-.956.718-.962.59-1.076.717-.956.598-.958.591-1.082.717-.956.59-.958.717-1.074.59-.958.718-.962.599-1.076.59-.956.718-.956.59-1.083.716-.957.599-.956.71-.956.598-1.083.59-.956.718-.957.597-1.075.71-.957.598-.956.711-1.084.596-.956v51.452H382.511zm-138.078-35.855l.477 1.076H224.801l.47-1.076.359-1.083.479-1.196.478-1.076.351-1.082.477-1.076.479-1.196.472-1.083.357-1.076.479-1.075.477-1.082.352-1.196.479-1.076.477-1.083.36-1.076.471-1.076.479-1.201.477-1.078.352-1.074.479-1.083.478-1.196.358-1.083.47-1.076.479 1.076.359 1.083.47 1.196.479 1.083.359 1.074.477 1.078.472 1.201.357 1.076.479 1.076.479 1.083.35 1.076.479 1.196.36 1.082.47 1.075.478 1.076.36 1.083.477 1.196.471 1.076.359 1.082.478 1.076.471 1.196.359 1.083zm37.373 35.855h1.187l-.478-1.078-.478-1.076-.47-1.076-.36-1.194-.478-1.07-.478-1.074-.472-1.076-.477-1.076-.477-1.076-.471-1.196-.479-1.076-.36-1.075-.47-1.076-.478-1.076-.478-1.076-.478-1.195-.47-1.076-.479-1.077-.479-1.075-.35-1.076-.479-1.076-.479-1.196-.478-1.074-.471-1.076-.479-1.076-.477-1.076-.472-1.076-.357-1.196-.479-1.075-.472-1.076-.477-1.076-.479-1.076-.477-1.076-.472-1.195-.478-1.076-.358-1.076-.471-1.076-.479-1.074-.478-1.076-.478-1.196-.472-1.076-.478-1.076-.478-1.076-.352-1.075-.477-1.077-.479-1.068-.47-1.196-.479-1.075-.479-1.077-.477-1.076-.47-1.075-.36-1.076-.478-1.196-.47-1.075-.48-1.076-.477-1.076-.478-1.076-.472-1.076-.478-1.196-.358-1.074-.471-1.076-.479-1.076-.477-1.076-.47-1.076-.48-1.195-.478-1.076-.479-1.076-.35-1.076-.479-1.075-.479-1.077-.47-1.195-.479-1.076-.477-1.076-.479-1.076-.47-1.076-.36-1.074-.477-1.196-.472-1.076-.478-1.076-.478-1.076h-22.016l-.47 1.076-.479 1.076-.477 1.076-.36 1.196-.471 1.074-.477 1.076-.479 1.076-.47 1.076-.48 1.076-.478 1.195-.479 1.077-.35 1.075-.479 1.076-.479 1.076-.47 1.076-.479 1.195-.477 1.076-.472 1.076-.478 1.076-.358 1.076-.478 1.074-.472 1.196-.477 1.076-.479 1.076-.472 1.076-.477 1.076-.479 1.075-.358 1.196-.471 1.076-.479 1.075-.477 1.076-.472 1.077-.477 1.075-.478 1.196-.472 1.068-.358 1.077-.479 1.075-.477 1.076-.471 1.076-.479 1.076-.478 1.196-.471 1.076-.479 1.074-.358 1.076-.478 1.076-.472 1.076-.477 1.195-.477 1.076-.472 1.076-.478 1.076-.478 1.076-.359 1.075-.47 1.196-.48 1.076-.478 1.076-.47 1.076-.48 1.076-.478 1.074-.47 1.196-.36 1.076-.477 1.076-.478 1.075-.472 1.077-.478 1.076-.478 1.195-.471 1.076-.479 1.076-.357 1.076-.479 1.075-.47 1.076-.479 1.196-.479 1.076-.47 1.076-.478 1.076-.478 1.074-.359 1.07-.472 1.194-.477 1.076-.479 1.076-.47 1.078H211.228l.478-1.078.359-1.076.477-1.076.472-1.194.359-1.07.479-1.074.47-1.076.359-1.076.479-1.076.477-1.076.352-1.076.477-1.195.479-1.076.359-1.076.47-1.076H251.927l.479 1.076.359 1.076.478 1.076.472 1.195.358 1.076.478 1.076.478 1.076.352 1.076.478 1.076.478 1.074.352 1.07.478 1.194.478 1.076.358 1.076.472 1.078H281.806zm-104.257-11.112l.829-.716V494.247h-39.272v17.445h17.376v10.878l-.95.598-.837.478-1.068.478-.956.48-1.07.476-1.068.24-1.188.358-1.196.238-1.188.24-1.188.12-1.308.12-1.316.12H140.414l-1.308-.12-1.188-.12-1.188-.238-1.196-.24-1.188-.359-1.19-.359-1.074-.477-1.068-.479-1.07-.478-.957-.598-.948-.597-.949-.717-.957-.718-.828-.717-.719-.836-.83-.837-.717-.836-.71-.958-.598-.956-.597-.956-.59-1.076-.478-1.077-.479-1.195-.352-.956-.358-1.076-.239-1.074-.24-1.078-.239-1.074-.12-1.196-.118-1.076-.112-1.195V500.096l.112-1.194.118-1.195.24-1.316.239-1.075.239-1.189.358-1.195.472-1.076.359-1.076.477-1.076.599-.956.59-1.076.597-.956.592-.837.717-.956.83-.837.717-.836.829-.718.837-.717.83-.716.957-.599.948-.598.956-.598 1.07-.477 1.069-.479 1.068-.358 1.076-.358 1.069-.24 1.188-.238 1.076-.12 1.188-.119h2.496l1.315.119 1.308.12 1.189.118 1.188.24 1.188.24 1.076.238 1.068.358 1.07.36.955.358.95.478.956.478 1.068.598.95.596.956.6.95.596.949.718.956.598.95.836.955.718.711-.956.836-.838.712-.956.836-.956.71-.956.717-.837.83-.956.716-.956.831-.956.717-.839.71-.956.837-.956.71-.836.718-.957.83-.956.717-.956.829-.836.717-.957-.949-.718-.956-.836-.95-.717-.955-.717-.95-.599-.949-.716-1.076-.599-.95-.597-1.067-.597-.958-.598-1.068-.478-1.069-.598-1.076-.478-1.068-.479-1.07-.477-1.075-.359-.95-.359-1.068-.238-1.076-.359-1.07-.24-1.068-.239-1.075-.238-1.19-.239-1.187-.24-1.076-.119-1.308-.24-1.188-.118h-1.188l-1.308-.12-1.316-.12h-5.111l-1.196.12-1.19.12-1.186.118-1.19.12-1.194.24-1.19.12-1.187.238-1.07.358-1.194.24-1.068.358-1.068.24-1.078.477-1.188.36-.949.357-1.19.6-1.074.476-1.07.48-1.067.596-1.076.598-1.07.598-.948.598-.957.597-.95.717-.955.598-.95.717-.83.717-.956.838-.83.716-.836.838-.83.835-.718.837-.829.836-.717.84-.711.955-.717.956-.71.956-.598.956-.596.956-.592.957-.598.956-.597 1.076-.47 1.076-.48 1.076-.477 1.076-.472 1.075-.478 1.196-.359 1.076-.359 1.195-.35 1.076-.24 1.196-.359 1.194-.239 1.076-.118 1.196-.239 1.188-.121 1.315-.112 1.196v1.195l-.119 1.314v3.946l.119 1.194.112 1.196.121 1.196.117 1.075.24 1.196.12 1.076.239 1.195.359 1.077.238 1.195.352 1.074.239 1.076.479 1.078.358.956.472 1.074.478 1.076.478 1.076.471 1.076.597.956.598 1.076.592.958.596.954.71.958.598.956.717.837.71.956.718.836.83.837.837.838.829.716.837.837.83.717.836.718.95.717.95.716.956.719.949.596.956.598 1.07.598.947.592 1.078.597 1.068.479 1.069.477 1.076.477 1.187.48 1.069.358 1.07.477 1.075.36 1.188.239 1.07.358 1.194.24 1.068.238 1.19.24 1.188.238 1.196.12 1.188.12 1.188.12 1.308.12 1.188.118h5.12l1.306-.119 1.196-.12 1.308-.119 1.188-.12 1.308-.12 1.19-.12 1.194-.238 1.188-.239 1.07-.239 1.196-.238 1.068-.36 1.188-.358 1.069-.36 1.075-.358 1.07-.359 1.068-.479 1.196-.477 1.068-.479 1.188-.477 1.07-.599 1.074-.47 1.07-.598 1.069-.598 1.076-.596.95-.599.955-.597.95-.718.949-.597.956-.717.83-.599.957-.717zm21.256 114.277l122.757 42.206 127.982-42.206h-250.74z" fill="#DCDCDC" fill-rule="evenodd"/></svg>