<svg width="16" height="19" viewBox="0 0 16 19" fill="none" xmlns="http://www.w3.org/2000/svg">
<path d="M6.98534 6.52953C7.22446 6.52953 7.33946 6.40856 7.33946 6.14817L7.33949 4.51145C7.33949 4.2511 7.22446 4.13027 6.98536 4.13027H6.59564V6.52953H6.98534Z" fill="#DCDCDC"/>
<path d="M6.00469 11.9031L6.19907 12.5461H5.79507L5.98945 11.9031H6.00469Z" fill="#DCDCDC"/>
<path fill-rule="evenodd" clip-rule="evenodd" d="M1 1.99868C1 1.44712 1.44772 1 2 1H14C14.5523 1 15 1.44712 15 1.99868V14.2205C15 14.6086 14.7749 14.9615 14.4227 15.1256L8.45203 17.9064C8.18519 18.0307 7.87707 18.0312 7.6098 17.9078L1.58043 15.1246C1.22656 14.9613 1 14.6074 1 14.2181V1.99868ZM8.58527 16.3888L7.97521 16.599L5.35807 15.6514H10.6217L8.58527 16.3888ZM5.12866 6.90133H4.01288V8.86359H5.19072V9.76556H3.06539V3.25614H5.17307V4.15808H4.01288V5.99939H5.12866V6.90133ZM12.0048 8.56602V7.09673H12.9346V8.61244C12.9346 9.42157 12.5539 9.82136 11.7834 9.82136H11.314C10.5437 9.82136 10.1628 9.42157 10.1628 8.61244V4.40924C10.1628 3.60013 10.5437 3.20032 11.314 3.20032H11.7746C12.5449 3.20032 12.9168 3.5909 12.9168 4.39987V5.72978H11.9871V4.45565C11.9871 4.19529 11.8719 4.07448 11.6328 4.07448H11.4734C11.2255 4.07448 11.1103 4.19529 11.1103 4.45565V8.56602C11.1103 8.82643 11.2255 8.94724 11.4734 8.94724H11.6506C11.8896 8.94724 12.0048 8.82643 12.0048 8.56602ZM9.66207 9.76556H8.71442V3.25612H9.66207V9.76556ZM5.64813 3.25612H7.13581C7.90624 3.25612 8.28698 3.65593 8.28698 4.46504V6.19476C8.28698 7.00372 7.90624 7.4035 7.13581 7.4035H6.59564V9.76556H5.64813V3.25612ZM4.31117 12.0096C4.30292 11.976 4.2899 11.9465 4.27212 11.9212C4.25434 11.8952 4.23212 11.8733 4.20545 11.8555C4.17941 11.8371 4.14893 11.8235 4.11401 11.8146C4.07972 11.8051 4.04194 11.8004 4.00066 11.8004C3.91176 11.8004 3.83588 11.8216 3.77302 11.8641C3.71079 11.9066 3.66317 11.9678 3.63015 12.0477C3.59776 12.1276 3.58157 12.224 3.58157 12.3369C3.58157 12.451 3.59713 12.5487 3.62824 12.6298C3.65936 12.711 3.70571 12.7732 3.7673 12.8163C3.8289 12.8594 3.90541 12.881 3.99685 12.881C4.0775 12.881 4.14449 12.8692 4.19783 12.8458C4.2518 12.8223 4.29212 12.789 4.31879 12.7459C4.344 12.7051 4.3573 12.6576 4.35868 12.6032H4.00447V12.2265H4.86933V12.4967C4.86933 12.6742 4.83155 12.8261 4.75598 12.9523C4.68106 13.0779 4.57755 13.1743 4.44547 13.2415C4.31403 13.3081 4.16322 13.3414 3.99304 13.3414C3.80318 13.3414 3.6365 13.3011 3.49299 13.2205C3.34948 13.14 3.2374 13.0252 3.15676 12.8762C3.07675 12.7272 3.03675 12.5499 3.03675 12.3445C3.03675 12.1834 3.06119 12.0407 3.11009 11.9164C3.15962 11.7921 3.2282 11.6872 3.31583 11.6016C3.40345 11.5153 3.50473 11.4503 3.61967 11.4066C3.7346 11.3622 3.85779 11.34 3.98923 11.34C4.1048 11.34 4.21211 11.3565 4.31117 11.3894C4.41087 11.4218 4.49881 11.4681 4.57501 11.5283C4.65185 11.5879 4.71376 11.6586 4.76075 11.7404C4.80774 11.8222 4.83631 11.912 4.84647 12.0096H4.31117ZM5.56274 13.3147H4.99125L5.63513 11.3666H6.35902L7.0029 13.3147H6.43141L6.31869 12.9418H5.67546L5.56274 13.3147ZM7.8499 11.3666H7.19078V13.3147H7.70893V12.1809H7.72417L8.1585 13.2995H8.47092L8.90525 12.1885H8.92049V13.3147H9.43864V11.3666H8.77952L8.32614 12.47H8.30328L7.8499 11.3666ZM9.68962 13.3147V11.3666H11.0955V11.7928H10.2192V12.1276H11.0231V12.5537H10.2192V12.8886H11.0917V13.3147H9.68962ZM12.3382 11.827C12.3808 11.8625 12.4046 11.912 12.4097 11.9754H12.9164C12.9158 11.8479 12.884 11.7366 12.8212 11.6415C12.7589 11.5458 12.6703 11.4716 12.5554 11.4189C12.4405 11.3663 12.3043 11.34 12.1468 11.34C11.9925 11.34 11.8557 11.366 11.7363 11.418C11.6175 11.47 11.5245 11.5426 11.4572 11.6358C11.3905 11.7284 11.3575 11.8365 11.3581 11.9602C11.3575 12.1124 11.4067 12.2325 11.5058 12.3207C11.6055 12.4082 11.7417 12.4707 11.9144 12.5081L12.1087 12.5499C12.1811 12.5658 12.2386 12.5829 12.2811 12.6013C12.3236 12.6191 12.3541 12.6393 12.3725 12.6622C12.3916 12.6844 12.4014 12.7104 12.4021 12.7402C12.4014 12.7719 12.3913 12.8001 12.3716 12.8248C12.3519 12.8496 12.323 12.8689 12.2849 12.8829C12.2468 12.8968 12.1995 12.9038 12.143 12.9038C12.0757 12.9038 12.0176 12.8933 11.9687 12.8724C11.9204 12.8515 11.883 12.8207 11.8563 12.7801C11.8296 12.7395 11.8147 12.6894 11.8115 12.6298H11.3086C11.3092 12.7928 11.3442 12.9266 11.4134 13.0313C11.4832 13.1353 11.581 13.2123 11.7067 13.2624C11.8331 13.3125 11.9811 13.3375 12.1506 13.3375C12.3157 13.3375 12.457 13.3144 12.5745 13.2681C12.6926 13.2218 12.7834 13.1543 12.8469 13.0655C12.9104 12.9767 12.9424 12.8683 12.9431 12.7402C12.9424 12.666 12.9304 12.5975 12.9069 12.5347C12.884 12.4719 12.8481 12.4155 12.7993 12.3654C12.7504 12.3147 12.6875 12.2706 12.6107 12.2332C12.5338 12.1958 12.4414 12.1656 12.3335 12.1428L12.1735 12.1086C12.1271 12.099 12.0871 12.0883 12.0535 12.0762C12.0198 12.0642 11.9922 12.0509 11.9706 12.0363C11.949 12.021 11.9331 12.0042 11.923 11.9859C11.9134 11.9668 11.9093 11.9456 11.9106 11.9221C11.9112 11.8936 11.9198 11.8682 11.9363 11.846C11.9528 11.8238 11.9782 11.8064 12.0125 11.7937C12.0474 11.7804 12.0922 11.7737 12.1468 11.7737C12.2325 11.7737 12.2963 11.7915 12.3382 11.827Z" fill="#DCDCDC"/>
</svg>
