<?xml version="1.0" encoding="UTF-8"?>
<svg width="648px" height="751px" viewBox="0 0 648 751" version="1.1" xmlns="http://www.w3.org/2000/svg" xmlns:xlink="http://www.w3.org/1999/xlink">
    <!-- Generator: Sketch 55 (78076) - https://sketchapp.com -->
    <title>形状结合</title>
    <desc>Created with Sketch.</desc>
    <g id="页面1" stroke="none" stroke-width="1" fill="none" fill-rule="evenodd">
        <path d="M588.395982,-0.00045743541 C631.322647,-0.00045743541 647.166647,15.8422088 647.166647,58.7902078 L647.166647,577.024861 C647.166647,581.884861 646.969314,586.399528 646.53998,590.582194 C645.562647,599.956861 645.378647,609.040861 636.65998,619.383527 C635.809314,620.39686 626.907981,627.02086 626.907981,627.02086 C622.118647,629.36886 618.850648,631.098193 613.449314,633.271527 L352.655988,742.535524 C339.115988,748.742191 333.454655,751.160857 323.621322,750.96619 L323.621322,750.967524 C323.607988,750.967524 323.595988,750.967524 323.582655,750.967524 C323.569322,750.967524 323.557322,750.967524 323.543988,750.967524 L323.543988,750.96619 C313.710655,751.160857 308.049322,748.742191 294.510656,742.535524 L33.7159955,633.271527 C28.3159957,631.098193 25.0466624,629.36886 20.2586625,627.02086 C20.2586625,627.02086 11.3573294,620.39686 10.5053295,619.383527 C1.786663,609.040861 1.60266301,599.956861 0.6253297,590.582194 C0.195996377,586.399528 -3.61796012e-06,581.884861 -3.61796012e-06,577.024861 L-3.61796019e-06,58.7902078 C-3.61796019e-06,15.8422088 15.8426627,-0.00045743541 58.7706616,-0.00045743541 L588.395982,-0.00045743541 Z M139.274393,261.037269 L190.851725,261.037269 L190.851725,221.14127 L139.274393,221.14127 L139.274393,139.693272 L192.905058,139.693272 L192.905058,99.7972734 L95.4757273,99.7972734 L95.4757273,387.731933 L193.721058,387.731933 L193.721058,347.834601 L139.274393,347.834601 L139.274393,261.037269 Z M508.708117,269.680069 L508.708117,334.672068 C508.708117,346.190734 503.384117,351.534734 492.337451,351.534734 L484.145451,351.534734 C472.685451,351.534734 467.361451,346.190734 467.361451,334.672068 L467.361451,152.856072 C467.361451,141.338739 472.685451,135.994739 484.145451,135.994739 L491.514784,135.994739 C502.568117,135.994739 507.892117,141.338739 507.892117,152.856072 L507.892117,209.214737 L550.869449,209.214737 L550.869449,150.388072 C550.869449,114.605406 533.676116,97.3280735 498.069451,97.3280735 L476.777451,97.3280735 C441.169452,97.3280735 423.561452,115.013406 423.561452,150.802739 L423.561452,336.725401 C423.561452,372.516067 441.169452,390.200066 476.777451,390.200066 L498.476117,390.200066 C534.092116,390.200066 551.690783,372.516067 551.690783,336.725401 L551.690783,269.680069 L508.708117,269.680069 Z M356.608254,387.732466 L400.413586,387.732466 L400.413586,99.7964734 L356.608254,99.7964734 L356.608254,387.732466 Z M293.049189,227.72167 C293.049189,239.240337 287.733189,244.591003 276.679856,244.591003 L258.66519,244.591003 L258.66519,138.463006 L276.679856,138.463006 C287.733189,138.463006 293.049189,143.808339 293.049189,155.324339 L293.049189,227.72167 Z M283.634523,99.7963401 L214.865191,99.7963401 L214.865191,387.732333 L258.66519,387.732333 L258.66519,283.249669 L283.634523,283.249669 C319.249188,283.249669 336.849188,265.565669 336.849188,229.783003 L336.849188,153.271005 C336.849188,117.481673 319.249188,99.7963401 283.634523,99.7963401 Z M552.921983,521.016463 L553.041983,519.701796 L553.041983,518.385796 L553.041983,518.14713 L553.041983,516.832463 L552.921983,515.517796 L552.801983,514.32313 L552.563316,513.12713 L552.324649,511.93113 L552.085983,510.85513 L551.733983,509.77913 L551.375316,508.704463 L550.897983,507.748463 L550.299316,506.67113 L549.708649,505.71513 L548.991316,504.640463 L548.280649,503.68313 L547.444649,502.84713 L546.615316,501.889797 L545.659316,501.053797 L544.709983,500.216463 L543.759316,499.61913 L542.803316,498.901797 L541.855316,498.304463 L540.785983,497.70713 L539.709983,497.108463 L538.52065,496.51113 L537.33265,496.033797 L536.14465,495.43513 L534.829983,494.964464 L533.761983,494.605797 L532.69265,494.24713 L531.49665,493.888464 L530.42865,493.529797 L529.24065,493.17113 L528.051317,492.812464 L526.855317,492.573797 L525.547317,492.21513 L524.359317,491.856464 L523.05265,491.617797 L521.74465,491.257797 L520.43665,490.900464 L519.12065,490.541797 L517.93265,490.301797 L516.86465,489.94313 L515.78865,489.704464 L514.839317,489.345797 L513.889984,489.10713 L512.461984,488.629797 L511.147317,488.15113 L509.959317,487.672464 L509.009984,487.07513 L507.933984,486.477797 L507.10465,485.640464 L506.625984,484.92313 L506.03665,483.608464 L505.915317,482.055131 L505.915317,481.815131 L506.03665,480.620464 L506.505984,479.544464 L507.223317,478.468464 L508.29265,477.511131 L509.129984,477.033797 L510.079317,476.555131 L511.147317,476.316464 L512.343317,476.076464 L513.651317,475.837797 L515.077984,475.837797 L516.267317,475.837797 L517.335317,475.957797 L518.531317,476.076464 L519.719317,476.196464 L520.907317,476.436464 L522.095317,476.675131 L523.291317,476.915131 L524.479317,477.272464 L525.667317,477.632464 L526.97665,477.989797 L527.93265,478.468464 L529.00065,478.827131 L529.949983,479.304464 L531.025983,479.783131 L531.975316,480.260464 L533.043316,480.739131 L534.00065,481.337797 L535.06865,481.815131 L536.02465,482.532464 L536.975316,483.129797 L538.043316,483.728464 L538.999316,484.444464 L539.709983,483.488464 L540.307316,482.532464 L541.01665,481.576464 L541.735316,480.620464 L542.444649,479.544464 L543.043316,478.588464 L543.759316,477.632464 L544.471316,476.675131 L545.067316,475.719131 L545.777983,474.763131 L546.495316,473.805797 L547.093983,472.849797 L547.803316,471.775131 L548.520649,470.817797 L549.231316,469.861797 L549.828649,468.905798 L550.537983,467.948464 L549.589983,467.232464 L548.640649,466.515131 L547.684649,465.796464 L546.733983,465.200464 L545.659316,464.483131 L544.709983,463.884464 L543.640649,463.287131 L542.564649,462.689798 L541.615316,462.211131 L540.545983,461.613798 L539.351316,461.135131 L538.281983,460.656464 L537.213983,460.179131 L536.14465,459.820464 L534.949983,459.343131 L533.88065,459.103131 L532.811316,458.744464 L531.61665,458.385798 L530.547316,458.147131 L529.359316,457.907131 L528.171317,457.668464 L527.095317,457.429798 L525.905983,457.191131 L524.597983,457.071131 L523.409983,456.832464 L522.095317,456.712464 L520.907317,456.712464 L519.599317,456.592464 L518.291317,456.473798 L516.98465,456.473798 L515.675317,456.473798 L514.36065,456.473798 L513.17265,456.473798 L511.98465,456.592464 L510.79665,456.712464 L509.60065,456.832464 L508.41265,456.951131 L507.343317,457.191131 L506.155317,457.429798 L505.08065,457.668464 L504.009984,457.907131 L503.06065,458.147131 L501.98465,458.505798 L500.796651,458.983131 L499.608651,459.343131 L498.532651,459.820464 L497.464651,460.417798 L496.395317,460.896464 L495.319317,461.493798 L494.371317,462.091131 L493.420651,462.808464 L492.464651,463.525798 L491.635317,464.123131 L490.679317,464.960464 L489.848651,465.917798 L489.012651,466.753798 L488.183318,467.709798 L487.464651,468.665798 L486.753984,469.623131 L486.157984,470.697797 L485.565984,471.775131 L485.088651,472.849797 L484.609984,473.925797 L484.139318,475.001797 L483.900651,476.076464 L483.541984,477.153797 L483.301984,478.229797 L483.063318,479.304464 L482.943318,480.500464 L482.824651,481.576464 L482.704651,482.77113 L482.704651,483.96713 L482.704651,484.205797 L482.704651,485.521797 L482.824651,486.83513 L482.943318,488.03113 L483.063318,489.225797 L483.301984,490.301797 L483.541984,491.497797 L483.900651,492.453797 L484.251318,493.529797 L484.609984,494.48713 L485.088651,495.316464 L485.685984,496.39113 L486.276651,497.348463 L486.875318,498.184463 L487.584651,499.020463 L488.301984,499.857797 L489.132651,500.69513 L489.968651,501.53113 L490.797984,502.249797 L491.753984,502.84713 L492.703317,503.564463 L493.772651,504.161797 L494.728651,504.75913 L495.917984,505.356463 L496.985984,505.953797 L498.180651,506.432463 L499.369984,506.909797 L500.557984,507.388463 L501.865984,507.86713 L502.941984,508.225797 L504.009984,508.584463 L505.08065,508.94313 L506.267317,509.18313 L507.343317,509.540463 L508.53265,509.89913 L509.719317,510.13913 L510.915317,510.497796 L512.103317,510.736463 L513.411317,511.09513 L514.60065,511.333796 L515.907317,511.692463 L517.103317,511.93113 L518.291317,512.289796 L519.36065,512.528463 L520.43665,512.888463 L521.38465,513.12713 L522.215317,513.36713 L523.641983,513.96313 L524.837983,514.441796 L525.905983,514.920463 L526.855317,515.397796 L527.81265,516.11513 L528.641983,516.832463 L529.24065,517.668463 L529.719316,518.864463 L529.83665,520.29913 L529.83665,520.537796 L529.719316,521.733796 L529.359316,522.808463 L528.88065,523.765796 L528.171317,524.603129 L527.215317,525.320463 L526.38465,525.797796 L525.42865,526.156463 L524.359317,526.395129 L523.291317,526.635129 L522.095317,526.873796 L520.787317,526.992463 L519.36065,526.992463 L518.171317,526.992463 L516.86465,526.873796 L515.675317,526.873796 L514.48065,526.635129 L513.17265,526.515129 L511.98465,526.276463 L510.79665,526.037796 L509.60065,525.797796 L508.53265,525.439129 L507.343317,525.080463 L506.155317,524.721796 L505.08065,524.244463 L504.009984,523.885796 L502.941984,523.407129 L501.865984,522.929796 L500.796651,522.45113 L499.848651,521.852463 L498.771317,521.37513 L497.823317,520.776463 L496.753984,520.060463 L495.797984,519.46313 L494.728651,518.745796 L493.772651,518.028463 L492.703317,517.31113 L491.753984,516.593796 L491.036651,517.549796 L490.207317,518.385796 L489.489984,519.34313 L488.660651,520.29913 L487.943318,521.13513 L487.232651,522.092463 L486.396651,523.048463 L485.685984,523.885796 L484.848651,524.841796 L484.139318,525.677796 L483.301984,526.635129 L482.592651,527.591129 L481.875318,528.427129 L481.044651,529.383129 L480.327318,530.340463 L479.497984,531.177796 L478.780651,532.133796 L479.729984,532.969796 L480.565984,533.687129 L481.516651,534.404463 L482.472651,535.121796 L483.421984,535.839129 L484.371318,536.556462 L485.327318,537.153796 L486.276651,537.751129 L487.352651,538.349796 L488.301984,538.945796 L489.371317,539.544462 L490.445984,540.023129 L491.515317,540.612462 L492.584651,541.091129 L493.659317,541.569796 L494.848651,542.048462 L495.917984,542.405796 L497.105984,542.764462 L498.180651,543.243129 L499.369984,543.601796 L500.557984,543.960462 L501.627317,544.200462 L502.821984,544.557796 L504.009984,544.796462 L505.197984,545.036462 L506.387317,545.275129 L507.583317,545.513796 L508.771317,545.633796 L509.959317,545.872462 L511.267317,545.992462 L512.461984,546.112462 L513.651317,546.232462 L514.957984,546.232462 L516.147317,546.351129 L517.335317,546.351129 L518.649983,546.351129 L519.957983,546.351129 L521.145983,546.351129 L522.335317,546.232462 L523.641983,546.112462 L524.837983,545.992462 L525.905983,545.872462 L527.095317,545.753796 L528.291317,545.513796 L529.359316,545.275129 L530.42865,545.036462 L531.61665,544.796462 L532.69265,544.439129 L533.88065,544.079129 L535.06865,543.721796 L536.25665,543.243129 L537.45265,542.764462 L538.52065,542.167129 L539.589983,541.688462 L540.665983,541.091129 L541.615316,540.373796 L542.564649,539.784462 L543.520649,539.067129 L544.351316,538.349796 L545.305983,537.512462 L546.016649,536.795129 L546.853983,535.957796 L547.563316,535.121796 L548.161983,534.165796 L548.872649,533.209796 L549.469983,532.252463 L550.067316,531.296463 L550.537983,530.221796 L551.016649,529.264463 L551.493983,528.188463 L551.853983,526.992463 L552.085983,525.916463 L552.443316,524.721796 L552.683316,523.525796 L552.801983,522.212463 L552.921983,521.016463 Z M469.463318,544.917796 L470.652651,544.917796 L470.652651,543.721796 L470.652651,542.644462 L470.652651,541.449796 L470.652651,540.255129 L470.652651,539.067129 L470.652651,537.989796 L470.652651,536.795129 L470.652651,535.600463 L470.652651,534.523129 L470.652651,533.328463 L470.652651,532.133796 L470.652651,531.057796 L470.652651,529.861796 L470.652651,528.667129 L470.652651,527.471129 L470.652651,526.395129 L470.652651,525.199129 L469.463318,525.199129 L468.268651,525.199129 L467.080651,525.199129 L465.892651,525.199129 L464.704651,525.199129 L463.508651,525.199129 L462.319318,525.199129 L461.132652,525.199129 L459.943318,525.199129 L458.628652,525.199129 L457.440652,525.199129 L456.252652,525.199129 L455.064652,525.199129 L453.867318,525.199129 L452.680652,525.199129 L451.491318,525.199129 L450.303318,525.199129 L449.107318,525.199129 L447.919319,525.199129 L446.731319,525.199129 L445.543319,525.199129 L444.353985,525.199129 L443.159319,525.199129 L441.971319,525.199129 L440.783319,525.199129 L439.593985,525.199129 L438.397985,525.199129 L437.209985,525.199129 L436.021985,525.199129 L434.713986,525.199129 L433.519319,525.199129 L432.329986,525.199129 L431.141986,525.199129 L429.953986,525.199129 L428.759319,525.199129 L427.569986,525.199129 L426.381986,525.199129 L425.192652,525.199129 L423.997986,525.199129 L423.997986,524.004463 L423.997986,522.689796 L423.997986,521.493796 L423.997986,520.29913 L423.997986,518.984463 L423.997986,517.789796 L423.997986,516.593796 L423.997986,515.27913 L423.997986,514.08313 L423.997986,512.888463 L423.997986,511.572463 L423.997986,510.377796 L425.192652,510.377796 L426.381986,510.377796 L427.569986,510.377796 L428.759319,510.377796 L429.953986,510.377796 L431.141986,510.377796 L432.329986,510.377796 L433.519319,510.377796 L434.595319,510.377796 L435.783319,510.377796 L436.971319,510.377796 L438.159319,510.377796 L439.355319,510.377796 L440.543319,510.377796 L441.732652,510.377796 L442.919319,510.377796 L444.115319,510.377796 L445.303319,510.377796 L446.492652,510.377796 L447.680652,510.377796 L448.875318,510.377796 L450.063318,510.377796 L451.252652,510.377796 L452.441985,510.377796 L453.636652,510.377796 L454.824652,510.377796 L455.893985,510.377796 L457.081985,510.377796 L458.276652,510.377796 L459.465985,510.377796 L460.653985,510.377796 L461.841985,510.377796 L463.036651,510.377796 L464.225985,510.377796 L465.413985,510.377796 L465.413985,509.18313 L465.413985,508.105797 L465.413985,506.909797 L465.413985,505.71513 L465.413985,504.640463 L465.413985,503.444463 L465.413985,502.249797 L465.413985,501.053797 L465.413985,499.977797 L465.413985,498.781797 L465.413985,497.58713 L465.413985,496.51113 L465.413985,495.316464 L465.413985,494.12713 L465.413985,493.05113 L465.413985,491.856464 L464.225985,491.856464 L463.036651,491.856464 L461.841985,491.856464 L460.653985,491.856464 L459.465985,491.856464 L458.276652,491.856464 L457.081985,491.856464 L455.893985,491.856464 L454.824652,491.856464 L453.636652,491.856464 L452.441985,491.856464 L451.252652,491.856464 L450.063318,491.856464 L448.875318,491.856464 L447.680652,491.856464 L446.492652,491.856464 L445.303319,491.856464 L444.115319,491.856464 L442.919319,491.856464 L441.732652,491.856464 L440.543319,491.856464 L439.355319,491.856464 L438.159319,491.856464 L436.971319,491.856464 L435.783319,491.856464 L434.595319,491.856464 L433.519319,491.856464 L432.329986,491.856464 L431.141986,491.856464 L429.953986,491.856464 L428.759319,491.856464 L427.569986,491.856464 L426.381986,491.856464 L425.192652,491.856464 L423.997986,491.856464 L423.997986,490.660464 L423.997986,489.465797 L423.997986,488.269797 L423.997986,487.07513 L423.997986,485.87913 L423.997986,484.684464 L423.997986,483.608464 L423.997986,482.412464 L423.997986,481.216464 L423.997986,480.021797 L423.997986,478.827131 L423.997986,477.632464 L425.192652,477.632464 L426.381986,477.632464 L427.569986,477.632464 L428.759319,477.632464 L429.953986,477.632464 L431.141986,477.632464 L432.209986,477.632464 L433.399319,477.632464 L434.595319,477.632464 L435.783319,477.632464 L436.971319,477.632464 L438.159319,477.632464 L439.355319,477.632464 L440.543319,477.632464 L441.732652,477.632464 L442.919319,477.632464 L444.115319,477.632464 L445.303319,477.632464 L446.492652,477.632464 L447.560652,477.632464 L448.756652,477.632464 L449.944652,477.632464 L451.132652,477.632464 L452.320652,477.632464 L453.516652,477.632464 L454.704652,477.632464 L455.893985,477.632464 L457.081985,477.632464 L458.276652,477.632464 L459.465985,477.632464 L460.653985,477.632464 L461.841985,477.632464 L462.917985,477.632464 L464.105985,477.632464 L465.293985,477.632464 L466.483318,477.632464 L467.677985,477.632464 L468.867318,477.632464 L470.055318,477.632464 L470.055318,476.436464 L470.055318,475.360464 L470.055318,474.164464 L470.055318,472.969797 L470.055318,471.775131 L470.055318,470.697797 L470.055318,469.503131 L470.055318,468.307131 L470.055318,467.232464 L470.055318,466.036464 L470.055318,464.840464 L470.055318,463.764464 L470.055318,462.569798 L470.055318,461.373798 L470.055318,460.179131 L470.055318,459.103131 L470.055318,457.907131 L468.867318,457.907131 L467.677985,457.907131 L466.483318,457.907131 L465.293985,457.907131 L464.105985,457.907131 L462.917985,457.907131 L461.721985,457.907131 L460.533985,457.907131 L459.345985,457.907131 L458.157985,457.907131 L456.963318,457.907131 L455.773985,457.907131 L454.585985,457.907131 L453.397985,457.907131 L452.320652,457.907131 L451.132652,457.907131 L449.944652,457.907131 L448.756652,457.907131 L447.560652,457.907131 L446.372652,457.907131 L445.184652,457.907131 L443.996652,457.907131 L442.800652,457.907131 L441.611319,457.907131 L440.423319,457.907131 L439.236652,457.907131 L438.047319,457.907131 L436.851319,457.907131 L435.663319,457.907131 L434.475319,457.907131 L433.287319,457.907131 L432.091319,457.907131 L430.901986,457.907131 L429.713986,457.907131 L428.525986,457.907131 L427.331319,457.907131 L426.141986,457.907131 L424.953986,457.907131 L423.765986,457.907131 L422.571319,457.907131 L421.381986,457.907131 L420.193986,457.907131 L419.004653,457.907131 L417.929986,457.907131 L416.740653,457.907131 L415.553986,457.907131 L414.364653,457.907131 L413.169986,457.907131 L411.980653,457.907131 L410.792653,457.907131 L409.604653,457.907131 L408.408653,457.907131 L407.220653,457.907131 L406.03132,457.907131 L404.844653,457.907131 L403.649986,457.907131 L402.460653,457.907131 L401.272653,457.907131 L401.272653,459.103131 L401.272653,460.299131 L401.272653,461.493798 L401.272653,462.689798 L401.272653,463.884464 L401.272653,465.079131 L401.272653,466.275131 L401.272653,467.471131 L401.272653,468.665798 L401.272653,469.861797 L401.272653,471.056464 L401.272653,472.252464 L401.272653,473.447131 L401.272653,474.643131 L401.272653,475.837797 L401.272653,477.033797 L401.272653,478.229797 L401.272653,479.424464 L401.272653,480.500464 L401.272653,481.695131 L401.272653,482.89113 L401.272653,484.085797 L401.272653,485.281797 L401.272653,486.477797 L401.272653,487.672464 L401.272653,488.868464 L401.272653,490.06313 L401.272653,491.257797 L401.272653,492.453797 L401.272653,493.649797 L401.272653,494.844464 L401.272653,496.033797 L401.272653,497.228463 L401.272653,498.424463 L401.272653,499.61913 L401.272653,500.813797 L401.272653,502.009797 L401.272653,503.204463 L401.272653,504.400463 L401.272653,505.596463 L401.272653,506.79113 L401.272653,507.98713 L401.272653,509.18313 L401.272653,510.377796 L401.272653,511.572463 L401.272653,512.76713 L401.272653,513.96313 L401.272653,515.15913 L401.272653,516.353796 L401.272653,517.549796 L401.272653,518.745796 L401.272653,519.940463 L401.272653,521.13513 L401.272653,522.33113 L401.272653,523.407129 L401.272653,524.603129 L401.272653,525.797796 L401.272653,526.992463 L401.272653,528.188463 L401.272653,529.383129 L401.272653,530.579129 L401.272653,531.775129 L401.272653,532.969796 L401.272653,534.165796 L401.272653,535.361796 L401.272653,536.556462 L401.272653,537.751129 L401.272653,538.945796 L401.272653,540.141796 L401.272653,541.331129 L401.272653,542.525796 L401.272653,543.721796 L401.272653,544.917796 L402.460653,544.917796 L403.649986,544.917796 L404.844653,544.917796 L406.03132,544.917796 L407.220653,544.917796 L408.408653,544.917796 L409.604653,544.917796 L410.792653,544.917796 L411.980653,544.917796 L413.288653,544.917796 L414.477986,544.917796 L415.672653,544.917796 L416.860653,544.917796 L418.049986,544.917796 L419.236653,544.917796 L420.432653,544.917796 L421.621986,544.917796 L422.809986,544.917796 L423.997986,544.917796 L425.192652,544.917796 L426.381986,544.917796 L427.569986,544.917796 L428.759319,544.917796 L429.953986,544.917796 L431.141986,544.917796 L432.329986,544.917796 L433.519319,544.917796 L434.713986,544.917796 L436.021985,544.917796 L437.209985,544.917796 L438.397985,544.917796 L439.593985,544.917796 L440.783319,544.917796 L441.971319,544.917796 L443.159319,544.917796 L444.353985,544.917796 L445.543319,544.917796 L446.731319,544.917796 L447.919319,544.917796 L449.107318,544.917796 L450.303318,544.917796 L451.491318,544.917796 L452.680652,544.917796 L453.867318,544.917796 L455.064652,544.917796 L456.252652,544.917796 L457.440652,544.917796 L458.628652,544.917796 L459.943318,544.917796 L461.132652,544.917796 L462.319318,544.917796 L463.508651,544.917796 L464.704651,544.917796 L465.892651,544.917796 L467.080651,544.917796 L468.268651,544.917796 L469.463318,544.917796 Z M382.51132,544.917796 L383.69932,544.917796 L383.69932,543.721796 L383.69932,542.525796 L383.69932,541.331129 L383.69932,540.141796 L383.69932,538.945796 L383.69932,537.751129 L383.69932,536.556462 L383.69932,535.361796 L383.69932,534.165796 L383.69932,532.969796 L383.69932,531.775129 L383.69932,530.579129 L383.69932,529.383129 L383.69932,528.188463 L383.69932,526.992463 L383.69932,525.797796 L383.69932,524.603129 L383.69932,523.407129 L383.69932,522.33113 L383.69932,521.13513 L383.69932,519.940463 L383.69932,518.745796 L383.69932,517.549796 L383.69932,516.353796 L383.69932,515.15913 L383.69932,513.96313 L383.69932,512.76713 L383.69932,511.572463 L383.69932,510.377796 L383.69932,509.18313 L383.69932,507.98713 L383.69932,506.79113 L383.69932,505.596463 L383.69932,504.400463 L383.69932,503.204463 L383.69932,502.009797 L383.69932,500.813797 L383.69932,499.61913 L383.69932,498.424463 L383.69932,497.228463 L383.69932,496.033797 L383.69932,494.844464 L383.69932,493.649797 L383.69932,492.453797 L383.69932,491.257797 L383.69932,490.06313 L383.69932,488.868464 L383.69932,487.672464 L383.69932,486.477797 L383.69932,485.281797 L383.69932,484.085797 L383.69932,482.89113 L383.69932,481.695131 L383.69932,480.500464 L383.69932,479.424464 L383.69932,478.229797 L383.69932,477.033797 L383.69932,475.837797 L383.69932,474.643131 L383.69932,473.447131 L383.69932,472.252464 L383.69932,471.056464 L383.69932,469.861797 L383.69932,468.665798 L383.69932,467.471131 L383.69932,466.275131 L383.69932,465.079131 L383.69932,463.884464 L383.69932,462.689798 L383.69932,461.493798 L383.69932,460.299131 L383.69932,459.103131 L383.69932,457.907131 L382.51132,457.907131 L381.32332,457.907131 L380.24732,457.907131 L379.05932,457.907131 L377.87132,457.907131 L376.681987,457.907131 L375.60732,457.907131 L374.417987,457.907131 L373.229987,457.907131 L372.041987,457.907131 L370.965987,457.907131 L369.776654,457.907131 L368.589987,457.907131 L367.400654,457.907131 L366.324654,457.907131 L365.136654,457.907131 L363.948654,457.907131 L362.759321,457.907131 L361.684654,457.907131 L360.495321,457.907131 L359.307321,457.907131 L358.709987,458.864464 L358.119321,459.939131 L357.401987,460.888464 L356.803321,461.964464 L356.213987,462.920464 L355.615321,463.997798 L354.905988,464.945798 L354.307321,466.023131 L353.711321,466.979131 L353.119321,467.935131 L352.403321,469.003131 L351.811321,469.960464 L351.213988,471.035131 L350.616654,471.992464 L349.907321,473.060464 L349.307321,474.016464 L348.717988,474.972464 L348.119321,476.043131 L347.521988,476.997797 L346.811321,478.073797 L346.215321,479.031131 L345.616654,480.099131 L345.025988,481.056464 L344.308654,482.131131 L343.719321,483.080464 L343.120654,484.036464 L342.523321,485.112464 L341.812655,486.069797 L341.215321,487.145797 L340.623321,488.09513 L340.027321,489.17113 L339.316655,490.12713 L338.719321,491.19513 L338.121988,492.152464 L337.531321,491.19513 L336.933988,490.12713 L336.215321,489.17113 L335.624655,488.09513 L335.027321,487.145797 L334.436655,486.069797 L333.839321,485.112464 L333.121988,484.036464 L332.531321,483.080464 L331.932655,482.131131 L331.343321,481.056464 L330.745988,480.099131 L330.028655,479.031131 L329.436655,478.073797 L328.839321,476.997797 L328.249988,476.043131 L327.651322,474.972464 L326.933988,474.016464 L326.343322,473.060464 L325.745988,471.992464 L325.148655,471.035131 L324.437988,469.960464 L323.840655,469.003131 L323.249988,467.935131 L322.651322,466.979131 L322.055322,466.023131 L321.343322,464.945798 L320.745988,463.997798 L320.155322,462.920464 L319.557988,461.964464 L318.959322,460.888464 L318.249988,459.939131 L317.652655,458.864464 L317.061988,457.907131 L315.865988,457.907131 L314.677989,457.907131 L313.609989,457.907131 L312.420655,457.907131 L311.224655,457.907131 L310.036655,457.907131 L308.968655,457.907131 L307.780655,457.907131 L306.584655,457.907131 L305.396655,457.907131 L304.327322,457.907131 L303.139322,457.907131 L301.943322,457.907131 L300.755322,457.907131 L299.685989,457.907131 L298.491322,457.907131 L297.301989,457.907131 L296.115322,457.907131 L295.044656,457.907131 L293.849989,457.907131 L292.661989,457.907131 L292.661989,459.103131 L292.661989,460.299131 L292.661989,461.493798 L292.661989,462.689798 L292.661989,463.884464 L292.661989,465.079131 L292.661989,466.275131 L292.661989,467.471131 L292.661989,468.665798 L292.661989,469.861797 L292.661989,471.056464 L292.661989,472.252464 L292.661989,473.447131 L292.661989,474.643131 L292.661989,475.837797 L292.661989,477.033797 L292.661989,478.229797 L292.661989,479.424464 L292.661989,480.500464 L292.661989,481.695131 L292.661989,482.89113 L292.661989,484.085797 L292.661989,485.281797 L292.661989,486.477797 L292.661989,487.672464 L292.661989,488.868464 L292.661989,490.06313 L292.661989,491.257797 L292.661989,492.453797 L292.661989,493.649797 L292.661989,494.844464 L292.661989,496.033797 L292.661989,497.228463 L292.661989,498.424463 L292.661989,499.61913 L292.661989,500.813797 L292.661989,502.009797 L292.661989,503.204463 L292.661989,504.400463 L292.661989,505.596463 L292.661989,506.79113 L292.661989,507.98713 L292.661989,509.18313 L292.661989,510.377796 L292.661989,511.572463 L292.661989,512.76713 L292.661989,513.96313 L292.661989,515.15913 L292.661989,516.353796 L292.661989,517.549796 L292.661989,518.745796 L292.661989,519.940463 L292.661989,521.13513 L292.661989,522.33113 L292.661989,523.407129 L292.661989,524.603129 L292.661989,525.797796 L292.661989,526.992463 L292.661989,528.188463 L292.661989,529.383129 L292.661989,530.579129 L292.661989,531.775129 L292.661989,532.969796 L292.661989,534.165796 L292.661989,535.361796 L292.661989,536.556462 L292.661989,537.751129 L292.661989,538.945796 L292.661989,540.141796 L292.661989,541.331129 L292.661989,542.525796 L292.661989,543.721796 L292.661989,544.917796 L293.849989,544.917796 L295.044656,544.917796 L296.233989,544.917796 L297.423322,544.917796 L298.611322,544.917796 L299.805989,544.917796 L300.993989,544.917796 L302.183322,544.917796 L303.371322,544.917796 L304.565989,544.917796 L305.755322,544.917796 L306.943322,544.917796 L308.132655,544.917796 L309.327322,544.917796 L310.515322,544.917796 L311.703322,544.917796 L312.892655,544.917796 L314.087322,544.917796 L315.275322,544.917796 L315.275322,543.721796 L315.275322,542.525796 L315.275322,541.331129 L315.275322,540.135129 L315.275322,538.932462 L315.275322,537.737796 L315.275322,536.541796 L315.275322,535.345796 L315.275322,534.151129 L315.275322,532.956463 L315.275322,531.879129 L315.275322,530.677796 L315.275322,529.481796 L315.275322,528.287129 L315.275322,527.091129 L315.275322,525.896463 L315.275322,524.693796 L315.275322,523.499129 L315.275322,522.30313 L315.275322,521.108463 L315.275322,519.912463 L315.275322,518.716463 L315.275322,517.51513 L315.275322,516.31913 L315.275322,515.12313 L315.275322,513.928463 L315.275322,512.733796 L315.275322,511.537796 L315.275322,510.33513 L315.275322,509.140463 L315.275322,507.944463 L315.275322,506.749797 L315.275322,505.673797 L315.275322,504.477797 L315.275322,503.276463 L315.275322,502.080463 L315.275322,500.884463 L315.275322,499.689797 L315.275322,498.493797 L315.275322,497.292463 L315.275322,496.096463 L315.275322,494.900464 L315.275322,493.705797 L315.984655,494.661797 L316.584655,495.745797 L317.293988,496.700463 L317.891322,497.776463 L318.608655,498.733797 L319.199322,499.808463 L319.916655,500.772463 L320.507322,501.848463 L321.224655,502.804463 L321.821988,503.880463 L322.532655,504.836463 L323.129988,505.920463 L323.840655,506.876463 L324.437988,507.952463 L325.148655,508.908463 L325.745988,509.99113 L326.463322,510.94713 L327.172655,512.02313 L327.771322,512.97913 L328.480655,514.061796 L329.079321,515.017796 L329.796655,516.093796 L330.385988,517.049796 L331.103321,518.133796 L331.693988,519.089796 L332.411321,520.164463 L333.009988,521.121796 L333.719321,522.197796 L334.316655,523.161796 L335.027321,524.236463 L335.624655,525.192463 L336.335321,526.268463 L336.933988,527.232463 L337.649988,528.308463 L338.121988,528.308463 L338.719321,527.352463 L339.429988,526.268463 L340.027321,525.312463 L340.744655,524.356463 L341.335321,523.280463 L342.051321,522.32313 L342.641988,521.360463 L343.240654,520.285796 L343.957988,519.328463 L344.548654,518.372463 L345.265988,517.409796 L345.856654,516.333796 L346.572654,515.377796 L347.171321,514.420463 L347.761988,513.337796 L348.479321,512.381796 L349.068654,511.424463 L349.785988,510.349796 L350.376654,509.392463 L351.093988,508.429797 L351.692654,507.353797 L352.283321,506.397797 L353.000654,505.441797 L353.591321,504.35913 L354.307321,503.401797 L354.905988,502.445797 L355.615321,501.489797 L356.213987,500.40713 L356.803321,499.45113 L357.521987,498.493797 L358.119321,497.41913 L358.828654,496.461797 L359.427321,495.505797 L360.137987,494.421797 L360.733987,493.465797 L360.733987,494.661797 L360.733987,495.857797 L360.733987,497.052463 L360.733987,498.25513 L360.733987,499.45113 L360.733987,500.645797 L360.733987,501.841797 L360.733987,503.036463 L360.733987,504.23913 L360.733987,505.43513 L360.733987,506.629797 L360.733987,507.824463 L360.733987,509.01913 L360.733987,510.21513 L360.733987,511.417796 L360.733987,512.613796 L360.733987,513.808463 L360.733987,515.004463 L360.733987,516.200463 L360.733987,517.39513 L360.733987,518.597796 L360.733987,519.792463 L360.733987,520.988463 L360.733987,522.18313 L360.733987,523.377796 L360.733987,524.573796 L360.733987,525.776463 L360.733987,526.972463 L360.733987,528.167129 L360.733987,529.363129 L360.733987,530.559129 L360.733987,531.760463 L360.733987,532.956463 L360.733987,534.151129 L360.733987,535.345796 L360.733987,536.541796 L360.733987,537.737796 L360.733987,538.932462 L360.733987,540.135129 L360.733987,541.331129 L360.733987,542.525796 L360.733987,543.721796 L360.733987,544.917796 L361.923321,544.917796 L363.111321,544.917796 L364.307321,544.917796 L365.615321,544.917796 L366.803321,544.917796 L367.991321,544.917796 L369.185987,544.917796 L370.37532,544.917796 L371.56332,544.917796 L372.87132,544.917796 L374.05932,544.917796 L375.25532,544.917796 L376.44332,544.917796 L377.632654,544.917796 L378.820654,544.917796 L380.133987,544.917796 L381.32332,544.917796 L382.51132,544.917796 Z M244.432657,509.06313 L244.90999,510.13913 L243.72199,510.13913 L242.527324,510.13913 L241.339324,510.13913 L240.14999,510.13913 L238.96199,510.13913 L237.77399,510.13913 L236.57799,510.13913 L235.38999,510.13913 L234.321991,510.13913 L233.125991,510.13913 L231.936657,510.13913 L230.748657,510.13913 L229.560657,510.13913 L228.365991,510.13913 L227.176657,510.13913 L225.988657,510.13913 L224.800657,510.13913 L225.271324,509.06313 L225.629991,507.980463 L226.108657,506.784463 L226.587324,505.708463 L226.937991,504.625797 L227.415324,503.549797 L227.893991,502.353797 L228.365991,501.27113 L228.723324,500.19513 L229.201991,499.120463 L229.679324,498.037797 L230.031324,496.841797 L230.509991,495.765797 L230.987324,494.68313 L231.347324,493.60713 L231.817991,492.53113 L232.296657,491.329797 L232.773991,490.252464 L233.125991,489.177797 L233.604657,488.09513 L234.083324,486.89913 L234.440657,485.816464 L234.911324,484.740464 L235.38999,485.816464 L235.748657,486.89913 L236.219324,488.09513 L236.69799,489.177797 L237.056657,490.252464 L237.53399,491.329797 L238.00599,492.53113 L238.363324,493.60713 L238.84199,494.68313 L239.320657,495.765797 L239.671324,496.841797 L240.14999,498.037797 L240.50999,499.120463 L240.979324,500.19513 L241.45799,501.27113 L241.81799,502.353797 L242.295324,503.549797 L242.76599,504.625797 L243.124657,505.708463 L243.603324,506.784463 L244.07399,507.980463 L244.432657,509.06313 Z M281.805989,544.917796 L282.992656,544.917796 L282.515323,543.840462 L282.036656,542.764462 L281.567323,541.688462 L281.207323,540.493796 L280.728656,539.424462 L280.251323,538.349796 L279.779323,537.273796 L279.301989,536.197796 L278.824656,535.121796 L278.353989,533.925796 L277.875323,532.849796 L277.515323,531.775129 L277.044656,530.699129 L276.567323,529.623129 L276.088656,528.547129 L275.611323,527.352463 L275.140656,526.276463 L274.66199,525.199129 L274.183323,524.124463 L273.832656,523.048463 L273.35399,521.972463 L272.875323,520.776463 L272.396656,519.701796 L271.92599,518.625796 L271.447323,517.549796 L270.96999,516.473796 L270.49799,515.397796 L270.140656,514.201796 L269.66199,513.12713 L269.18999,512.05113 L268.712656,510.97513 L268.23399,509.89913 L267.756656,508.82313 L267.284656,507.628463 L266.807323,506.552463 L266.448656,505.476463 L265.97799,504.400463 L265.499323,503.325797 L265.020656,502.249797 L264.543323,501.053797 L264.071323,499.977797 L263.592656,498.901797 L263.115323,497.825797 L262.763323,496.75113 L262.28599,495.673797 L261.807323,494.605797 L261.336657,493.409797 L260.85799,492.33513 L260.379323,491.257797 L259.90199,490.181797 L259.431323,489.10713 L259.071323,488.03113 L258.59399,486.83513 L258.123323,485.760464 L257.644657,484.684464 L257.167323,483.608464 L256.688657,482.532464 L256.216657,481.456464 L255.739323,480.260464 L255.380657,479.185797 L254.90999,478.109797 L254.431323,477.033797 L253.95399,475.957797 L253.483323,474.881797 L253.004657,473.687131 L252.52599,472.611131 L252.047323,471.535131 L251.696657,470.459131 L251.21799,469.384464 L250.739323,468.307131 L250.268657,467.112464 L249.78999,466.036464 L249.312657,464.960464 L248.83399,463.884464 L248.363324,462.808464 L248.004657,461.733798 L247.527324,460.537798 L247.055324,459.461798 L246.576657,458.385798 L246.099324,457.309798 L244.90999,457.309798 L243.84199,457.309798 L242.64599,457.309798 L241.45799,457.309798 L240.26999,457.309798 L239.200657,457.309798 L238.00599,457.309798 L236.816657,457.309798 L235.62999,457.309798 L234.560657,457.309798 L233.364657,457.309798 L232.175324,457.309798 L230.987324,457.309798 L229.919324,457.309798 L228.723324,457.309798 L227.535324,457.309798 L226.347324,457.309798 L225.271324,457.309798 L224.083324,457.309798 L223.612657,458.385798 L223.133991,459.461798 L222.656657,460.537798 L222.296657,461.733798 L221.825991,462.808464 L221.348658,463.884464 L220.869991,464.960464 L220.399324,466.036464 L219.920658,467.112464 L219.441991,468.307131 L218.963324,469.384464 L218.612658,470.459131 L218.133991,471.535131 L217.655324,472.611131 L217.184658,473.687131 L216.705991,474.881797 L216.228658,475.957797 L215.756658,477.033797 L215.279324,478.109797 L214.920658,479.185797 L214.443324,480.260464 L213.971324,481.456464 L213.493991,482.532464 L213.015324,483.608464 L212.543324,484.684464 L212.065991,485.760464 L211.587324,486.83513 L211.228658,488.03113 L210.757991,489.10713 L210.279324,490.181797 L209.801991,491.257797 L209.329991,492.33513 L208.852658,493.409797 L208.375325,494.605797 L207.903325,495.673797 L207.544658,496.75113 L207.065991,497.825797 L206.588658,498.901797 L206.117991,499.977797 L205.639325,501.053797 L205.160658,502.249797 L204.689991,503.325797 L204.211325,504.400463 L203.852658,505.476463 L203.375325,506.552463 L202.903325,507.628463 L202.425991,508.82313 L201.948658,509.89913 L201.476658,510.97513 L200.999325,512.05113 L200.520658,513.12713 L200.161991,514.201796 L199.691325,515.397796 L199.212658,516.473796 L198.733991,517.549796 L198.263325,518.625796 L197.784658,519.701796 L197.305991,520.776463 L196.835325,521.972463 L196.476658,523.048463 L195.999325,524.124463 L195.520658,525.199129 L195.048658,526.276463 L194.571325,527.352463 L194.092658,528.547129 L193.621992,529.623129 L193.143325,530.699129 L192.785992,531.775129 L192.307325,532.849796 L191.836658,533.925796 L191.357992,535.121796 L190.879325,536.197796 L190.408658,537.273796 L189.931325,538.349796 L189.452658,539.424462 L189.093992,540.493796 L188.621992,541.688462 L188.144658,542.764462 L187.665992,543.840462 L187.195325,544.917796 L188.383325,544.917796 L189.572658,544.917796 L190.760658,544.917796 L191.956658,544.917796 L193.264658,544.917796 L194.452658,544.917796 L195.639325,544.917796 L196.835325,544.917796 L198.024658,544.917796 L199.212658,544.917796 L200.400658,544.917796 L201.595325,544.917796 L202.784658,544.917796 L203.972658,544.917796 L205.280658,544.917796 L206.468658,544.917796 L207.664658,544.917796 L208.852658,544.917796 L210.040658,544.917796 L211.228658,544.917796 L211.707324,543.840462 L212.065991,542.764462 L212.543324,541.688462 L213.015324,540.493796 L213.373991,539.424462 L213.852658,538.349796 L214.323324,537.273796 L214.681991,536.197796 L215.160658,535.121796 L215.637991,534.045796 L215.989991,532.969796 L216.467324,531.775129 L216.945991,530.699129 L217.304658,529.623129 L217.775324,528.547129 L218.963324,528.547129 L220.159324,528.547129 L221.348658,528.547129 L222.535324,528.547129 L223.612657,528.547129 L224.800657,528.547129 L225.988657,528.547129 L227.176657,528.547129 L228.365991,528.547129 L229.560657,528.547129 L230.748657,528.547129 L231.936657,528.547129 L233.125991,528.547129 L234.321991,528.547129 L235.38999,528.547129 L236.57799,528.547129 L237.77399,528.547129 L238.96199,528.547129 L240.14999,528.547129 L241.339324,528.547129 L242.527324,528.547129 L243.72199,528.547129 L244.90999,528.547129 L246.099324,528.547129 L247.175324,528.547129 L248.363324,528.547129 L249.551323,528.547129 L250.739323,528.547129 L251.927323,528.547129 L252.40599,529.623129 L252.764657,530.699129 L253.243323,531.775129 L253.715323,532.969796 L254.072657,534.045796 L254.551323,535.121796 L255.028657,536.197796 L255.380657,537.273796 L255.859323,538.349796 L256.336657,539.424462 L256.688657,540.493796 L257.167323,541.688462 L257.644657,542.764462 L258.003323,543.840462 L258.475323,544.917796 L259.66999,544.917796 L260.85799,544.917796 L261.927323,544.917796 L263.115323,544.917796 L264.30999,544.917796 L265.499323,544.917796 L266.687323,544.917796 L267.756656,544.917796 L268.951323,544.917796 L270.140656,544.917796 L271.328656,544.917796 L272.516656,544.917796 L273.712656,544.917796 L274.780656,544.917796 L275.969989,544.917796 L277.157989,544.917796 L278.353989,544.917796 L279.540656,544.917796 L280.611323,544.917796 L281.805989,544.917796 Z M177.548659,533.805796 L178.377992,533.089796 L178.377992,531.893796 L178.377992,530.699129 L178.377992,529.504463 L178.377992,528.427129 L178.377992,527.232463 L178.377992,526.037796 L178.377992,524.841796 L178.377992,523.645796 L178.377992,522.45113 L178.377992,521.37513 L178.377992,520.180463 L178.377992,518.984463 L178.377992,517.789796 L178.377992,516.593796 L178.377992,515.397796 L178.377992,514.201796 L178.377992,513.12713 L178.377992,511.93113 L178.377992,510.736463 L178.377992,509.540463 L178.377992,508.345797 L178.377992,507.149797 L178.377992,505.953797 L178.377992,504.87913 L178.377992,503.68313 L178.377992,502.48713 L178.377992,501.292463 L178.377992,500.096463 L178.377992,498.901797 L178.377992,497.825797 L178.377992,496.629797 L178.377992,495.43513 L178.377992,494.24713 L177.188659,494.24713 L176.000659,494.24713 L174.805992,494.24713 L173.617992,494.24713 L172.428659,494.24713 L171.240659,494.24713 L170.044659,494.24713 L168.856659,494.24713 L167.668659,494.24713 L166.479326,494.24713 L165.284659,494.24713 L164.096659,494.24713 L162.908659,494.24713 L161.719326,494.24713 L160.524659,494.24713 L159.336659,494.24713 L158.148659,494.24713 L156.959326,494.24713 L155.763326,494.24713 L154.575326,494.24713 L153.387326,494.24713 L152.199326,494.24713 L151.004659,494.24713 L149.815326,494.24713 L148.627326,494.24713 L147.439326,494.24713 L146.243326,494.24713 L145.055326,494.24713 L143.865993,494.24713 L142.679326,494.24713 L141.489993,494.24713 L140.295326,494.24713 L139.105993,494.24713 L139.105993,495.43513 L139.105993,496.51113 L139.105993,497.70713 L139.105993,498.901797 L139.105993,500.096463 L139.105993,501.173797 L139.105993,502.368463 L139.105993,503.564463 L139.105993,504.75913 L139.105993,505.83513 L139.105993,507.03113 L139.105993,508.225797 L139.105993,509.421796 L139.105993,510.497796 L139.105993,511.692463 L140.295326,511.692463 L141.369993,511.692463 L142.559326,511.692463 L143.747326,511.692463 L144.936659,511.692463 L146.011326,511.692463 L147.199326,511.692463 L148.387326,511.692463 L149.576659,511.692463 L150.652659,511.692463 L151.840659,511.692463 L153.028659,511.692463 L154.217993,511.692463 L155.292659,511.692463 L156.481992,511.692463 L156.481992,512.888463 L156.481992,514.08313 L156.481992,515.27913 L156.481992,516.473796 L156.481992,517.789796 L156.481992,518.984463 L156.481992,520.180463 L156.481992,521.37513 L156.481992,522.569796 L155.531326,523.168463 L154.695326,523.645796 L153.627326,524.124463 L152.671326,524.603129 L151.600659,525.080463 L150.532659,525.320463 L149.344659,525.677796 L148.148659,525.916463 L146.960659,526.156463 L145.772659,526.276463 L144.464659,526.395129 L143.148659,526.515129 L141.721993,526.515129 L140.413993,526.515129 L139.105993,526.395129 L137.917993,526.276463 L136.729993,526.037796 L135.533993,525.797796 L134.345993,525.439129 L133.15666,525.080463 L132.081993,524.603129 L131.013993,524.124463 L129.943326,523.645796 L128.987326,523.048463 L128.039327,522.45113 L127.089993,521.733796 L126.13266,521.016463 L125.30466,520.29913 L124.585993,519.46313 L123.75666,518.625796 L123.039327,517.789796 L122.32866,516.832463 L121.731327,515.876463 L121.133993,514.920463 L120.543327,513.844463 L120.065993,512.76713 L119.587327,511.572463 L119.235327,510.616463 L118.87666,509.540463 L118.637993,508.465797 L118.397993,507.388463 L118.159327,506.313797 L118.039327,505.117797 L117.92066,504.041797 L117.80866,502.84713 L117.80866,501.65113 L117.80866,501.412463 L117.80866,500.096463 L117.92066,498.901797 L118.039327,497.70713 L118.279327,496.39113 L118.517993,495.316464 L118.75666,494.12713 L119.115327,492.932464 L119.587327,491.856464 L119.945993,490.780464 L120.423327,489.704464 L121.021993,488.748464 L121.611327,487.672464 L122.20866,486.716464 L122.80066,485.87913 L123.517993,484.92313 L124.347327,484.085797 L125.06466,483.249797 L125.893993,482.532464 L126.731327,481.815131 L127.56066,481.099131 L128.517993,480.500464 L129.465993,479.901797 L130.421993,479.304464 L131.491326,478.827131 L132.56066,478.348464 L133.62866,477.989797 L134.70466,477.632464 L135.773993,477.392464 L136.961993,477.153797 L138.037993,477.033797 L139.225993,476.915131 L140.413993,476.915131 L141.721993,476.915131 L143.036659,477.033797 L144.344659,477.153797 L145.533993,477.272464 L146.721993,477.511131 L147.909993,477.751131 L148.985993,477.989797 L150.053993,478.348464 L151.123326,478.707131 L152.079326,479.065797 L153.028659,479.544464 L153.984659,480.021797 L155.052659,480.620464 L156.003326,481.216464 L156.959326,481.815131 L157.908659,482.412464 L158.857992,483.129797 L159.813992,483.728464 L160.763326,484.564464 L161.719326,485.281797 L162.429992,484.325797 L163.265992,483.488464 L163.977992,482.532464 L164.813992,481.576464 L165.523326,480.620464 L166.240659,479.783131 L167.071326,478.827131 L167.787326,477.871131 L168.617992,476.915131 L169.335325,476.076464 L170.044659,475.120464 L170.881992,474.164464 L171.592659,473.328464 L172.309992,472.371131 L173.139325,471.415131 L173.856659,470.459131 L174.685992,469.623131 L175.403325,468.665798 L174.453992,467.948464 L173.497992,467.112464 L172.548659,466.395131 L171.592659,465.677798 L170.643325,465.079131 L169.693992,464.363131 L168.617992,463.764464 L167.668659,463.167131 L166.600659,462.569798 L165.643326,461.972464 L164.575326,461.493798 L163.505992,460.896464 L162.429992,460.417798 L161.361992,459.939131 L160.292659,459.461798 L159.216659,459.103131 L158.267326,458.744464 L157.199326,458.505798 L156.123326,458.147131 L155.052659,457.907131 L153.984659,457.668464 L152.909993,457.429798 L151.720659,457.191131 L150.532659,456.951131 L149.456659,456.832464 L148.148659,456.592464 L146.960659,456.473798 L145.772659,456.473798 L144.464659,456.353798 L143.148659,456.233798 L141.84066,456.233798 L140.533993,456.233798 L139.345993,456.233798 L138.037993,456.233798 L136.841993,456.353798 L135.65266,456.473798 L134.465993,456.592464 L133.27666,456.712464 L132.081993,456.951131 L130.89266,457.071131 L129.70466,457.309798 L128.635326,457.668464 L127.44066,457.907131 L126.37266,458.265798 L125.30466,458.505798 L124.227327,458.983131 L123.039327,459.343131 L122.089993,459.700464 L120.90066,460.299131 L119.825993,460.776464 L118.75666,461.255131 L117.68866,461.852464 L116.61266,462.449798 L115.543327,463.048464 L114.595327,463.645798 L113.637994,464.243131 L112.68866,464.960464 L111.73266,465.557798 L110.783327,466.275131 L109.95266,466.992464 L108.99666,467.829798 L108.167327,468.545798 L107.331327,469.384464 L106.50066,470.219131 L105.783327,471.056464 L104.953994,471.892464 L104.23666,472.731131 L103.525994,473.687131 L102.80866,474.643131 L102.099327,475.599131 L101.500661,476.555131 L100.904661,477.511131 L100.312661,478.468464 L99.7153272,479.424464 L99.1179939,480.500464 L98.6473272,481.576464 L98.1686606,482.652464 L97.6913273,483.728464 L97.2193273,484.80313 L96.7406606,485.99913 L96.381994,487.07513 L96.0233273,488.269797 L95.6726607,489.345797 L95.4326607,490.541797 L95.073994,491.736464 L94.8353273,492.812464 L94.7166607,494.008464 L94.477994,495.196464 L94.3566607,496.51113 L94.2446607,497.70713 L94.2446607,498.901797 L94.125994,500.216463 L94.125994,501.412463 L94.125994,501.65113 L94.125994,502.84713 L94.125994,504.161797 L94.2446607,505.356463 L94.3566607,506.552463 L94.477994,507.748463 L94.5953274,508.82313 L94.8353273,510.01913 L94.9553273,511.09513 L95.193994,512.289796 L95.5526607,513.36713 L95.7913273,514.561796 L96.1433273,515.636463 L96.381994,516.712463 L96.8606606,517.789796 L97.2193273,518.745796 L97.6913273,519.820463 L98.1686606,520.896463 L98.6473272,521.972463 L99.1179939,523.048463 L99.7153272,524.004463 L100.312661,525.080463 L100.904661,526.037796 L101.500661,526.992463 L102.211327,527.949796 L102.80866,528.905796 L103.525994,529.743129 L104.23666,530.699129 L104.953994,531.535129 L105.783327,532.372463 L106.62066,533.209796 L107.449994,533.925796 L108.287327,534.763129 L109.11666,535.480463 L109.95266,536.197796 L110.903327,536.915129 L111.85266,537.631129 L112.80866,538.349796 L113.757994,538.945796 L114.713994,539.544462 L115.783327,540.141796 L116.731327,540.733796 L117.80866,541.331129 L118.87666,541.809796 L119.945993,542.287129 L121.021993,542.764462 L122.20866,543.243129 L123.277993,543.601796 L124.347327,544.079129 L125.423327,544.439129 L126.611327,544.677796 L127.68066,545.036462 L128.875326,545.275129 L129.943326,545.513796 L131.13266,545.753796 L132.32066,545.992462 L133.51666,546.112462 L134.70466,546.232462 L135.89266,546.351129 L137.20066,546.471129 L138.38866,546.589796 L139.58466,546.589796 L140.891326,546.589796 L142.200659,546.589796 L143.508659,546.589796 L144.815326,546.471129 L146.011326,546.351129 L147.319326,546.232462 L148.507326,546.112462 L149.815326,545.992462 L151.004659,545.872462 L152.199326,545.633796 L153.387326,545.395129 L154.456659,545.156462 L155.652659,544.917796 L156.720659,544.557796 L157.908659,544.200462 L158.977992,543.840462 L160.052659,543.481796 L161.123326,543.123129 L162.191326,542.644462 L163.387326,542.167129 L164.455326,541.688462 L165.643326,541.211129 L166.712659,540.612462 L167.787326,540.141796 L168.856659,539.544462 L169.925992,538.945796 L171.001992,538.349796 L171.951325,537.751129 L172.907325,537.153796 L173.856659,536.436462 L174.805992,535.839129 L175.761992,535.121796 L176.592659,534.523129 L177.548659,533.805796 Z M198.804925,648.08326 L321.562255,690.288592 L449.543585,648.08326 L198.804925,648.08326 Z" id="形状结合" fill="#DCDCDC"></path>
    </g>
</svg>