<svg width="16" height="19" viewBox="0 0 16 19" fill="none" xmlns="http://www.w3.org/2000/svg">
<path fill-rule="evenodd" clip-rule="evenodd" d="M13.7286 1C14.6573 1 15 1.35862 15 2.33084V14.0622C15 14.1722 14.9957 14.2744 14.9865 14.3691C14.9653 14.5813 14.9613 14.787 14.7727 15.0211C14.7543 15.044 14.5618 15.194 14.5618 15.194C14.4581 15.2471 14.3875 15.2863 14.2706 15.3355L8.62893 17.8089C8.33602 17.9494 8.21356 18.0042 8.00082 17.9998L7.99916 17.9998C7.78644 18.0042 7.66396 17.9494 7.37109 17.8089L1.72937 15.3355C1.61255 15.2863 1.54181 15.2471 1.43826 15.194C1.43826 15.194 1.24568 15.044 1.22725 15.0211C1.03866 14.787 1.03468 14.5813 1.01352 14.3691C1.00424 14.2744 1 14.1722 1 14.0622V2.33084C1 1.35862 1.34273 1 2.27136 1H13.7286ZM4.01288 6.90913H5.12866V6.006H4.01288V4.16225H5.17307V3.25912H3.06539V9.77715H5.19072V8.87399H4.01288V6.90913ZM12.0048 7.10479V8.57602C12.0048 8.83678 11.8896 8.95775 11.6506 8.95775H11.4734C11.2255 8.95775 11.1103 8.83678 11.1103 8.57602V4.46022C11.1103 4.19951 11.2255 4.07854 11.4734 4.07854H11.6328C11.8719 4.07854 11.9871 4.19951 11.9871 4.46022V5.73603H12.9168V4.40436C12.9168 3.59433 12.5449 3.20323 11.7746 3.20323H11.314C10.5437 3.20323 10.1628 3.60357 10.1628 4.41375V8.6225C10.1628 9.4327 10.5437 9.83302 11.314 9.83302H11.7834C12.5539 9.83302 12.9346 9.4327 12.9346 8.6225V7.10479H12.0048ZM8.71442 9.77715H9.66207V3.2591H8.71442V9.77715ZM7.33946 6.15498C7.33946 6.41571 7.22446 6.53684 6.98534 6.53684H6.59564V4.13441H6.98536C7.22446 4.13441 7.33949 4.2554 7.33949 4.51609L7.33946 6.15498ZM7.13581 3.2591H5.64813V9.77715H6.59564V7.41197H7.13581C7.90624 7.41197 8.28698 7.01166 8.28698 6.20163V4.46962C8.28698 3.65944 7.90624 3.2591 7.13581 3.2591ZM12.9612 12.7943L12.9638 12.7646V12.6996L12.9612 12.6699L12.9586 12.6428L12.9535 12.6157L12.9483 12.5887L12.9432 12.5643L12.9355 12.5399L12.9278 12.5156L12.9175 12.494L12.9045 12.4696L12.8917 12.4479L12.8762 12.4236L12.8608 12.4019L12.8428 12.383L12.8248 12.3614L12.8041 12.3424L12.7836 12.3235L12.763 12.31L12.7423 12.2937L12.7218 12.2802L12.6987 12.2667L12.6754 12.2531L12.6497 12.2396L12.624 12.2288L12.5983 12.2152L12.5699 12.2046L12.5468 12.1964L12.5236 12.1883L12.4978 12.1802L12.4747 12.1721L12.449 12.164L12.4232 12.1559L12.3973 12.1505L12.369 12.1423L12.3433 12.1342L12.3151 12.1288L12.2868 12.1207L12.2585 12.1126L12.23 12.1045L12.2043 12.099L12.1812 12.0909L12.1579 12.0855L12.1374 12.0774L12.1169 12.072L12.086 12.0612L12.0575 12.0503L12.0318 12.0395L12.0113 12.026L11.988 12.0125L11.9701 11.9935L11.9597 11.9773L11.947 11.9475L11.9444 11.9124V11.9069L11.947 11.8799L11.9571 11.8555L11.9726 11.8312L11.9958 11.8095L12.0139 11.7987L12.0344 11.7878L12.0575 11.7824L12.0834 11.777L12.1117 11.7716H12.1683L12.1914 11.7743L12.2173 11.777L12.243 11.7797L12.2687 11.7852L12.2944 11.7906L12.3202 11.796L12.3459 11.8041L12.3716 11.8122L12.4 11.8203L12.4207 11.8312L12.4438 11.8393L12.4643 11.8501L12.4876 11.8609L12.5081 11.8717L12.5312 11.8826L12.5519 11.8961L12.575 11.9069L12.5957 11.9232L12.6163 11.9367L12.6394 11.9502L12.66 11.9664L12.6754 11.9448L12.6883 11.9232L12.7037 11.9015L12.7192 11.8799L12.7346 11.8555L12.7475 11.8339L12.763 11.8122L12.7784 11.7906L12.7913 11.7689L12.8067 11.7473L12.8222 11.7256L12.8352 11.704L12.8505 11.6796L12.866 11.658L12.8814 11.6363L12.8943 11.6147L12.9097 11.593L12.8892 11.5768L12.8686 11.5606L12.8479 11.5443L12.8274 11.5308L12.8041 11.5146L12.7836 11.501L12.7604 11.4875L12.7372 11.474L12.7166 11.4631L12.6935 11.4496L12.6677 11.4388L12.6445 11.4279L12.6214 11.4171L12.5983 11.409L12.5725 11.3982L12.5493 11.3928L12.5262 11.3847L12.5004 11.3766L12.4772 11.3711L12.4515 11.3657L12.4258 11.3603L12.4025 11.3549L12.3768 11.3495L12.3485 11.3468L12.3228 11.3414L12.2944 11.3387H12.2687L12.2404 11.3359L12.2121 11.3333H12.1014L12.0757 11.3359L12.05 11.3387L12.0241 11.3414L11.9984 11.3441L11.9752 11.3495L11.9495 11.3549L11.9263 11.3603L11.9031 11.3657L11.8826 11.3712L11.8593 11.3793L11.8336 11.3901L11.8079 11.3982L11.7847 11.409L11.7616 11.4226L11.7384 11.4334L11.7151 11.4469L11.6946 11.4604L11.6741 11.4767L11.6534 11.4929L11.6354 11.5064L11.6147 11.5254L11.5968 11.5471L11.5787 11.566L11.5608 11.5876L11.5452 11.6093L11.5298 11.6309L11.5169 11.6553L11.5041 11.6796L11.4938 11.704L11.4835 11.7283L11.4733 11.7527L11.4681 11.777L11.4604 11.8014L11.4552 11.8258L11.45 11.8501L11.4474 11.8772L11.4448 11.9015L11.4423 11.9286V11.9908L11.4448 12.0206L11.4474 12.0476L11.45 12.0747L11.4552 12.099L11.4604 12.1261L11.4681 12.1478L11.4757 12.1721L11.4835 12.1938L11.4938 12.2126L11.5067 12.2369L11.5195 12.2585L11.5325 12.2775L11.5478 12.2964L11.5633 12.3154L11.5813 12.3343L11.5994 12.3532L11.6173 12.3695L11.638 12.383L11.6586 12.3993L11.6817 12.4128L11.7024 12.4263L11.7281 12.4398L11.7512 12.4534L11.777 12.4642L11.8028 12.475L11.8285 12.4858L11.8568 12.4967L11.88 12.5048L11.9031 12.5129L11.9263 12.521L11.952 12.5265L11.9752 12.5345L12.001 12.5427L12.0266 12.5481L12.0525 12.5562L12.0782 12.5616L12.1065 12.5698L12.1322 12.5751L12.1605 12.5833L12.1864 12.5887L12.2121 12.5968L12.2352 12.6022L12.2585 12.6103L12.279 12.6158L12.297 12.6212L12.3278 12.6347L12.3537 12.6455L12.3768 12.6563L12.3974 12.6671L12.4181 12.6834L12.436 12.6996L12.449 12.7185L12.4593 12.7456L12.4618 12.7781V12.7835L12.4593 12.8106L12.4515 12.8349L12.4412 12.8566L12.4258 12.8755L12.4051 12.8917L12.3872 12.9026L12.3665 12.9107L12.3433 12.9161L12.3202 12.9215L12.2944 12.9269L12.2661 12.9296H12.2095L12.1812 12.9269H12.1555L12.1297 12.9215L12.1014 12.9188L12.0757 12.9134L12.05 12.908L12.0241 12.9026L12.001 12.8944L11.9752 12.8863L11.9495 12.8782L11.9263 12.8674L11.9031 12.8593L11.88 12.8484L11.8568 12.8376L11.8336 12.8268L11.8131 12.8132L11.7898 12.8024L11.7693 12.7889L11.7462 12.7727L11.7255 12.7592L11.7023 12.7429L11.6817 12.7267L11.6585 12.7104L11.638 12.6942L11.6225 12.7159L11.6045 12.7348L11.589 12.7564L11.5711 12.7781L11.5556 12.797L11.5402 12.8187L11.5221 12.8403L11.5067 12.8593L11.4886 12.8809L11.4733 12.8999L11.4552 12.9215L11.4398 12.9432L11.4243 12.9621L11.4063 12.9837L11.3908 13.0054L11.3729 13.0244L11.3574 13.046L11.3779 13.0649L11.396 13.0812L11.4165 13.0974L11.4372 13.1136L11.4578 13.1299L11.4783 13.1461L11.499 13.1596L11.5195 13.1732L11.5428 13.1867L11.5633 13.2002L11.5865 13.2137L11.6097 13.2246L11.6329 13.2379L11.656 13.2488L11.6792 13.2596L11.705 13.2704L11.7281 13.2785L11.7538 13.2866L11.777 13.2975L11.8028 13.3056L11.8285 13.3137L11.8516 13.3191L11.8774 13.3272L11.9031 13.3326L11.9288 13.3381L11.9546 13.3435L11.9804 13.3489L12.0061 13.3516L12.0318 13.357L12.0601 13.3597L12.086 13.3624L12.1117 13.3651H12.14L12.1657 13.3679H12.2738L12.2996 13.3651L12.3278 13.3624L12.3537 13.3597L12.3768 13.357L12.4025 13.3543L12.4284 13.3489L12.4515 13.3435L12.4746 13.3381L12.5003 13.3326L12.5236 13.3245L12.5493 13.3164L12.575 13.3083L12.6007 13.2975L12.6266 13.2866L12.6497 13.2731L12.6728 13.2623L12.6961 13.2488L12.7166 13.2325L12.7372 13.2192L12.7578 13.2029L12.7758 13.1867L12.7965 13.1677L12.8118 13.1515L12.83 13.1326L12.8453 13.1136L12.8582 13.092L12.8736 13.0704L12.8865 13.0487L12.8995 13.027L12.9096 13.0027L12.92 12.981L12.9303 12.9567L12.9381 12.9296L12.9431 12.9052L12.9509 12.8782L12.956 12.8511L12.9586 12.8214L12.9612 12.7943ZM11.1558 13.3354H11.1815V12.889H10.1723V12.5535H11.0682V12.1342H10.1723V11.8122H11.1686V11.3657H9.68065V13.3354H11.1558ZM9.27478 13.3354H9.30048V11.3657H8.77281L8.75989 11.3874L8.74713 11.4117L8.7316 11.4332L8.71864 11.4575L8.7059 11.4792L8.69294 11.5036L8.6776 11.5251L8.66465 11.5494L8.65175 11.5711L8.63895 11.5927L8.62346 11.6169L8.61065 11.6386L8.59773 11.6629L8.58482 11.6846L8.56946 11.7087L8.55648 11.7304L8.54374 11.752L8.53078 11.7763L8.51787 11.7979L8.50251 11.8222L8.48959 11.8439L8.47666 11.8681L8.46387 11.8897L8.44836 11.9141L8.4356 11.9356L8.42266 11.9572L8.40972 11.9816L8.39436 12.0032L8.38143 12.0276L8.36862 12.0491L8.35573 12.0734L8.34037 12.0951L8.32743 12.1193L8.31452 12.1409L8.30176 12.1193L8.28882 12.0951L8.27326 12.0734L8.2605 12.0491L8.24757 12.0276L8.2348 12.0032L8.22187 11.9816L8.20636 11.9572L8.19359 11.9356L8.18061 11.9141L8.16787 11.8897L8.15496 11.8681L8.13944 11.8439L8.12664 11.8222L8.1137 11.7979L8.10096 11.7763L8.088 11.752L8.07249 11.7304L8.05973 11.7087L8.04679 11.6846L8.03388 11.6629L8.0185 11.6386L8.00558 11.6169L7.9928 11.5927L7.97984 11.5711L7.96694 11.5494L7.95154 11.5251L7.93863 11.5036L7.92586 11.4792L7.91293 11.4575L7.89997 11.4332L7.88463 11.4117L7.87172 11.3874L7.85893 11.3657H7.33109V13.3354H7.82027V12.1761L7.83563 12.1977L7.84861 12.2223L7.86395 12.2439L7.87687 12.2682L7.8924 12.2899L7.90516 12.3142L7.92069 12.3361L7.93346 12.3604L7.94899 12.3821L7.9619 12.4064L7.97726 12.4281L7.9902 12.4526L8.00556 12.4742L8.0185 12.4986L8.03385 12.5202L8.04679 12.5447L8.0623 12.5664L8.07766 12.5907L8.0906 12.6124L8.10596 12.6369L8.11889 12.6585L8.13443 12.6829L8.14717 12.7045L8.16268 12.7291L8.17546 12.7507L8.19097 12.775L8.20393 12.7967L8.21929 12.8211L8.23221 12.8429L8.24757 12.8672L8.2605 12.8889L8.27586 12.9132L8.28882 12.935L8.30431 12.9594H8.31452L8.32743 12.9377L8.34281 12.9132L8.35573 12.8916L8.37126 12.8699L8.38402 12.8456L8.39951 12.8239L8.4123 12.8021L8.42526 12.7778L8.44077 12.7561L8.45353 12.7345L8.46906 12.7127L8.48183 12.6883L8.49734 12.6667L8.51027 12.645L8.52306 12.6205L8.53857 12.5989L8.55133 12.5772L8.56684 12.5529L8.57961 12.5312L8.59514 12.5094L8.6081 12.4851L8.62086 12.4634L8.63639 12.4418L8.64916 12.4173L8.66465 12.3956L8.6776 12.3739L8.69296 12.3523L8.7059 12.3278L8.71866 12.3061L8.73419 12.2845L8.74711 12.2601L8.76247 12.2385L8.7754 12.2168L8.79079 12.1923L8.80368 12.1707V13.3354H9.27478ZM6.28777 12.5237L6.29808 12.5481H5.86307L5.87324 12.5237L5.881 12.4992L5.89137 12.4721L5.90171 12.4478L5.9093 12.4233L5.91962 12.3989L5.92998 12.3719L5.94019 12.3473L5.94791 12.323L5.95828 12.2987L5.9686 12.2742L5.97621 12.2471L5.98657 12.2227L5.99689 12.1982L6.00468 12.1739L6.01487 12.1495L6.02523 12.1223L6.03555 12.0979L6.04316 12.0736L6.05353 12.0491L6.06387 12.022L6.07161 11.9975L6.08178 11.9731L6.09214 11.9975L6.09991 12.022L6.11007 12.0491L6.12044 12.0736L6.1282 12.0979L6.13852 12.1223L6.14873 12.1495L6.15645 12.1739L6.16682 12.1982L6.17718 12.2227L6.18475 12.2471L6.19511 12.2742L6.2029 12.2987L6.21307 12.323L6.22341 12.3473L6.2312 12.3719L6.24151 12.3989L6.2517 12.4233L6.25947 12.4478L6.26981 12.4721L6.28 12.4992L6.28777 12.5237ZM7.09625 13.3354H7.12193L7.11159 13.311L7.10124 13.2866L7.09108 13.2623L7.08329 13.2352L7.07295 13.211L7.06261 13.1867L7.0524 13.1624L7.04208 13.138L7.03176 13.1136L7.02157 13.0866L7.01121 13.0622L7.00342 13.0379L6.99325 13.0135L6.98291 12.9892L6.97257 12.9648L6.96223 12.9377L6.95206 12.9134L6.9417 12.889L6.93134 12.8647L6.92377 12.8403L6.91341 12.816L6.90304 12.7889L6.8927 12.7646L6.88251 12.7402L6.87215 12.7159L6.86183 12.6915L6.85162 12.6671L6.8439 12.6401L6.83354 12.6157L6.82333 12.5914L6.81301 12.567L6.80265 12.5427L6.79233 12.5183L6.78212 12.4913L6.77178 12.4669L6.76403 12.4425L6.75384 12.4182L6.74348 12.3939L6.73314 12.3695L6.7228 12.3424L6.71259 12.3181L6.70225 12.2937L6.69191 12.2694L6.68429 12.245L6.67398 12.2206L6.66361 12.1965L6.65345 12.1694L6.64308 12.1451L6.63272 12.1207L6.6224 12.0963L6.61224 12.072L6.60445 12.0476L6.59411 12.0206L6.58394 11.9962L6.57356 11.9719L6.56324 11.9475L6.5529 11.9232L6.54269 11.8988L6.53235 11.8717L6.5246 11.8474L6.51441 11.823L6.50405 11.7987L6.49373 11.7743L6.48356 11.75L6.47318 11.7229L6.46284 11.6986L6.45248 11.6742L6.44491 11.6499L6.43454 11.6255L6.42418 11.6011L6.41401 11.5741L6.40365 11.5497L6.39333 11.5254L6.38297 11.501L6.3728 11.4767L6.36502 11.4523L6.3547 11.4253L6.34449 11.4009L6.33415 11.3766L6.32381 11.3522H5.84754L5.83737 11.3766L5.82701 11.4009L5.81669 11.4253L5.8089 11.4523L5.79871 11.4767L5.78839 11.501L5.77803 11.5254L5.76786 11.5497L5.75748 11.5741L5.74714 11.6011L5.73678 11.6255L5.72921 11.6499L5.71884 11.6742L5.70848 11.6986L5.69832 11.7229L5.68795 11.75L5.67763 11.7743L5.66742 11.7987L5.65708 11.823L5.64934 11.8474L5.639 11.8717L5.62879 11.8988L5.61847 11.9232L5.60811 11.9475L5.5979 11.9719L5.58758 11.9962L5.57722 12.0206L5.56947 12.0476L5.55928 12.072L5.54892 12.0963L5.5386 12.1207L5.52839 12.1451L5.51807 12.1694L5.50773 12.1965L5.49752 12.2206L5.48978 12.245L5.47941 12.2694L5.46909 12.2937L5.45891 12.3181L5.44854 12.3424L5.4382 12.3695L5.42801 12.3939L5.41765 12.4182L5.40991 12.4425L5.39957 12.4669L5.38936 12.4913L5.37904 12.5183L5.36872 12.5427L5.35851 12.567L5.34817 12.5914L5.33783 12.6157L5.33006 12.6401L5.31989 12.6671L5.30951 12.6915L5.29917 12.7159L5.289 12.7402L5.27862 12.7646L5.26828 12.7889L5.25811 12.816L5.25032 12.8403L5.24 12.8647L5.22966 12.889L5.21945 12.9134L5.20911 12.9377L5.19877 12.9648L5.18858 12.9892L5.17822 13.0135L5.1705 13.0379L5.16014 13.0622L5.14997 13.0866L5.13961 13.1136L5.12924 13.138L5.11908 13.1624L5.10874 13.1867L5.09839 13.211L5.09063 13.2352L5.08042 13.2623L5.0701 13.2866L5.05974 13.311L5.04957 13.3354H5.56945L5.57979 13.311L5.58756 13.2866L5.59787 13.2623L5.60809 13.2352L5.61585 13.211L5.62621 13.1867L5.63638 13.1624L5.64415 13.138L5.65451 13.1136L5.66483 13.0893L5.67244 13.0649L5.68276 13.0379L5.69312 13.0135L5.70089 12.9892L5.71106 12.9648H6.44988L6.46024 12.9892L6.46801 13.0135L6.47835 13.0379L6.48856 13.0649L6.4963 13.0893L6.50665 13.1136L6.51699 13.138L6.5246 13.1624L6.53494 13.1867L6.54528 13.211L6.5529 13.2352L6.56324 13.2623L6.57358 13.2866L6.58132 13.311L6.59153 13.3354H7.09625ZM4.84088 13.0838L4.85881 13.0676V12.1883H4.00925V12.5833H4.38514V12.8295L4.36459 12.843L4.34648 12.8539L4.32338 12.8647L4.3027 12.8755L4.27955 12.8863L4.25645 12.8917L4.23075 12.8999L4.20487 12.9052L4.17917 12.9107L4.15348 12.9134L4.12518 12.9161L4.09671 12.9188H4.03755L4.00925 12.9161L3.98355 12.9134L3.95785 12.908L3.93198 12.9026L3.90628 12.8944L3.88053 12.8863L3.8573 12.8755L3.8342 12.8647L3.81105 12.8539L3.79035 12.8403L3.76984 12.8268L3.74931 12.8106L3.72861 12.7943L3.7107 12.7781L3.69514 12.7592L3.67719 12.7402L3.66168 12.7213L3.64632 12.6996L3.63338 12.678L3.62047 12.6563L3.6077 12.632L3.59736 12.6076L3.587 12.5805L3.57938 12.5589L3.57164 12.5345L3.56647 12.5102L3.56128 12.4858L3.55611 12.4615L3.55351 12.4344L3.55096 12.4101L3.54854 12.383V12.3208L3.55096 12.2937L3.55351 12.2667L3.5587 12.2369L3.56387 12.2125L3.56904 12.1856L3.57679 12.1586L3.587 12.1342L3.59477 12.1099L3.60508 12.0855L3.61804 12.0639L3.63081 12.0395L3.64372 12.0179L3.65653 11.9989L3.67204 11.9773L3.68999 11.9583L3.7055 11.9394L3.72344 11.9232L3.74154 11.9069L3.7595 11.8907L3.7802 11.8772L3.80071 11.8636L3.82139 11.8501L3.84454 11.8393L3.86766 11.8284L3.89077 11.8203L3.91404 11.8122L3.93717 11.8068L3.96287 11.8014L3.98615 11.7987L4.01185 11.796H4.06584L4.09429 11.7987L4.12258 11.8014L4.1483 11.8041L4.174 11.8095L4.1997 11.8149L4.22298 11.8203L4.24609 11.8284L4.26923 11.8366L4.28989 11.8447L4.31044 11.8555L4.33112 11.8663L4.35423 11.8799L4.37478 11.8934L4.39546 11.9069L4.41601 11.9204L4.43654 11.9367L4.45722 11.9502L4.47777 11.9691L4.49843 11.9854L4.51381 11.9638L4.5319 11.9448L4.5473 11.9232L4.56538 11.9015L4.58074 11.8799L4.59625 11.8609L4.61421 11.8393L4.6297 11.8176L4.64768 11.796L4.66319 11.777L4.67855 11.7554L4.69665 11.7337L4.71201 11.7148L4.72754 11.6931L4.7455 11.6715L4.76101 11.6499L4.77894 11.6309L4.79445 11.6093L4.77392 11.593L4.75324 11.5741L4.73269 11.5579L4.71203 11.5416L4.69148 11.5281L4.67095 11.5119L4.64768 11.4983L4.62712 11.4848L4.60404 11.4713L4.58332 11.4577L4.56021 11.4469L4.53709 11.4334L4.51381 11.4226L4.49071 11.4117L4.46756 11.4009L4.44431 11.3928L4.42376 11.3847L4.40065 11.3793L4.37737 11.3711L4.35423 11.3657L4.33112 11.3603L4.30787 11.3549L4.28213 11.3495L4.25645 11.3441L4.23317 11.3414L4.20487 11.3359L4.17917 11.3333H4.15348L4.12518 11.3306L4.09671 11.3278H3.98615L3.96027 11.3306L3.93453 11.3333L3.90887 11.3359L3.88313 11.3387L3.8573 11.3441L3.83156 11.3468L3.80588 11.3522L3.78273 11.3603L3.7569 11.3657L3.7338 11.3738L3.7107 11.3793L3.68738 11.3901L3.66168 11.3982L3.64115 11.4063L3.6154 11.4199L3.59217 11.4307L3.56902 11.4415L3.54594 11.455L3.52266 11.4686L3.49952 11.4821L3.47901 11.4956L3.45831 11.5091L3.43775 11.5254L3.4171 11.5389L3.39654 11.5551L3.37859 11.5714L3.35791 11.5903L3.33995 11.6065L3.32187 11.6255L3.30391 11.6444L3.28838 11.6634L3.27045 11.6823L3.25494 11.7013L3.23956 11.7229L3.22404 11.7446L3.20869 11.7662L3.19575 11.7878L3.18286 11.8095L3.17005 11.8312L3.15711 11.8528L3.1442 11.8772L3.13403 11.9015L3.12365 11.9259L3.11333 11.9502L3.10312 11.9746L3.09278 12.0016L3.08501 12.026L3.07724 12.053L3.06967 12.0774L3.06448 12.1045L3.05671 12.1315L3.05154 12.1559L3.04899 12.1829L3.04382 12.2098L3.0412 12.2396L3.03878 12.2667V12.2937L3.03621 12.3235V12.4128L3.03878 12.4398L3.0412 12.4669L3.04382 12.494L3.04635 12.5183L3.05154 12.5454L3.05414 12.5697L3.05931 12.5968L3.06708 12.6212L3.07223 12.6482L3.07984 12.6725L3.08501 12.6969L3.09537 12.7213L3.10312 12.7429L3.11333 12.7672L3.12367 12.7916L3.13401 12.816L3.1442 12.8403L3.15711 12.862L3.17005 12.8863L3.18286 12.908L3.19575 12.9296L3.21111 12.9513L3.22404 12.9729L3.23956 12.9919L3.25491 13.0135L3.27045 13.0324L3.2884 13.0514L3.30651 13.0704L3.32444 13.0866L3.34255 13.1055L3.3605 13.1217L3.37859 13.138L3.39914 13.1542L3.41969 13.1704L3.44037 13.1867L3.4609 13.2002L3.48158 13.2137L3.50473 13.2273L3.52522 13.2407L3.54854 13.2542L3.57164 13.265L3.59477 13.2758L3.61804 13.2866L3.64372 13.2975L3.66685 13.3056L3.68999 13.3164L3.71325 13.3245L3.73895 13.33L3.76209 13.3381L3.78792 13.3435L3.81103 13.3489L3.83677 13.3543L3.86247 13.3597L3.88834 13.3624L3.91404 13.3651L3.93974 13.3679L3.96804 13.3706L3.99374 13.3732H4.1045L4.13275 13.3705L4.15862 13.3678L4.18692 13.3651L4.21262 13.3624L4.24091 13.3597L4.26666 13.357L4.29249 13.3516L4.31819 13.3462L4.34133 13.3408L4.36721 13.3354L4.39031 13.3272L4.41601 13.3191L4.43914 13.311L4.46239 13.3029L4.48554 13.2948L4.50864 13.2839L4.53451 13.2731L4.55762 13.2623L4.58332 13.2515L4.60647 13.2379L4.6297 13.2273L4.65285 13.2137L4.67597 13.2002L4.69925 13.1867L4.7198 13.1732L4.74046 13.1596L4.76101 13.1434L4.78154 13.1299L4.80222 13.1136L4.82018 13.1001L4.84088 13.0838ZM5.3007 15.6708L7.95628 16.6262L10.7249 15.6708H5.3007Z" fill="#DCDCDC"/>
</svg>
