<svg width="87" height="87" xmlns="http://www.w3.org/2000/svg"><path d="M23.075 0h40.85c8.024 0 10.933.835 13.867 2.404a16.356 16.356 0 016.804 6.804C86.165 12.142 87 15.051 87 23.075v40.85c0 8.024-.835 10.933-2.404 13.867a16.356 16.356 0 01-6.804 6.804C74.858 86.165 71.949 87 63.925 87h-40.85c-8.024 0-10.933-.835-13.867-2.404a16.356 16.356 0 01-6.804-6.804C.835 74.858 0 71.949 0 63.925v-40.85c0-8.024.835-10.933 2.404-13.867a16.356 16.356 0 016.804-6.804C12.142.835 15.051 0 23.075 0zM61.77 66.72a3.5 3.5 0 004.95-4.95l-20-20a3.5 3.5 0 00-4.95 0L27.745 55.795v-31.55a3.5 3.5 0 00-7 0v40c0 3.118 3.77 4.68 5.975 2.475l17.525-17.525L61.77 66.72zm.042-44.991L46.067 36.984l4.866 5.032 15.745-15.255a3.5 3.5 0 10-4.866-5.032z" fill="#DCDCDC" fill-rule="nonzero"/></svg>