<?xml version="1.0" encoding="UTF-8"?>
<svg width="132px" height="149px" viewBox="0 0 132 149" version="1.1" xmlns="http://www.w3.org/2000/svg" xmlns:xlink="http://www.w3.org/1999/xlink">
    <!-- Generator: Sketch 54 (76480) - https://sketchapp.com -->
    <title>咖啡</title>
    <desc>Created with Sketch.</desc>
    <g id="页面1" stroke="none" stroke-width="1" fill="none" fill-rule="evenodd">
        <g id="画板" transform="translate(-88.000000, -47.000000)" fill-rule="nonzero">
            <g id="咖啡" transform="translate(88.000000, 47.000000)">
                <polygon id="路径" fill="#F4CE26" points="23.703125 94.8515625 109.703125 94.8515625 107.437738 117.480242 25.777965 117.851562"></polygon>
                <path d="M125.546875,59.375 L6.30859375,59.375 L17.2070312,33.9257812 C18.9453125,29.8828125 22.890625,27.2851562 27.2851563,27.2851562 L104.53125,27.2851562 C108.925781,27.2851562 112.890625,29.9023438 114.609375,33.9453125 L125.546875,59.375 Z M22.9492188,48.3984375 L108.90625,48.3984375 L104.550781,38.2421875 L27.3046875,38.2421875 L22.9492188,48.3984375 Z M27.3046875,32.7539063 L27.3046875,38.2421875 L27.3046875,32.7539063 Z" id="形状" fill="#DCDCDC"></path>
                <path d="M98.203125,148.808594 L27.4414062,148.808594 C23.59375,148.808594 20.3710937,145.898437 19.9609375,142.070312 L12.5,71.25 C12.03125,66.8164062 15.5078125,62.9296875 19.9804687,62.9296875 L111.894531,62.9296875 C116.367188,62.9296875 119.84375,66.796875 119.375,71.25 L112.558594,135.878906 C111.777344,143.222656 105.585938,148.808594 98.203125,148.808594 L98.203125,148.808594 Z M37.3242187,137.832031 L94.5507812,137.832031 C98.3984375,137.832031 101.621094,134.921875 102.03125,131.09375 L107.1875,82.2265625 C107.65625,77.7929688 104.179687,73.90625 99.7070312,73.90625 L32.1679687,73.90625 C27.6953125,73.90625 24.21875,77.7734375 24.6875,82.2265625 L29.84375,131.09375 C30.234375,134.921875 33.4765625,137.832031 37.3242187,137.832031 L37.3242187,137.832031 Z" id="形状" fill="#DCDCDC"></path>
                <path d="M23.6914063,115.332031 L105.15625,115.332031 L105.15625,127.402344 L23.6914063,127.402344 L23.6914063,115.332031 Z M23.6914062,85.4296875 L109.824219,85.4296875 L109.824219,97.5 L23.6914062,97.5 L23.6914062,85.4296875 Z" id="形状" fill="#DCDCDC"></path>
                <path d="M14.6289062,53.8867187 L117.226562,53.8867187 C122.226562,53.8867187 126.269531,57.9492187 126.269531,62.9296875 C126.269531,67.9296875 122.207031,71.9726562 117.226562,71.9726562 L14.6289062,71.9726562 C9.62890625,71.9726562 5.5859375,67.9101562 5.5859375,62.9296875 C5.5859375,57.9296875 9.62890625,53.8867187 14.6289062,53.8867187 Z" id="路径" fill="#F4CE26"></path>
                <path d="M117.226562,77.4804688 L14.6289062,77.4804688 C6.62109375,77.4804688 0.09765625,70.9570312 0.09765625,62.9492187 C0.09765625,54.9414062 6.62109375,48.4179687 14.6289062,48.4179687 L117.226562,48.4179687 C125.234375,48.4179687 131.757812,54.9414062 131.757812,62.9492187 C131.757812,70.9570312 125.253906,77.4804688 117.226562,77.4804688 L117.226562,77.4804688 Z M14.6289063,59.375 C12.65625,59.375 11.0546875,60.9765625 11.0546875,62.9492188 C11.0546875,64.921875 12.65625,66.5234375 14.6289063,66.5234375 L117.226562,66.5234375 C119.199219,66.5234375 120.800781,64.921875 120.800781,62.9492188 C120.800781,60.9765625 119.199219,59.375 117.226562,59.375 L14.6289063,59.375 Z M35.6640625,0.21484375 C38.59375,-0.56640625 41.6015625,1.171875 42.3828125,4.1015625 L45.2148438,14.7070313 C45.9960938,17.6367188 44.2578125,20.6445312 41.328125,21.4257812 C38.3984375,22.2070312 35.390625,20.46875 34.609375,17.5390625 L31.7773438,6.93359375 C30.9960938,4.00390625 32.734375,0.99609375 35.6640625,0.21484375 Z M63.0859375,0.21484375 C66.015625,-0.56640625 69.0234375,1.171875 69.8046875,4.1015625 L72.6367188,14.7070313 C73.4179688,17.6367188 71.6796875,20.6445312 68.75,21.4257812 C65.8203125,22.2070312 62.8125,20.46875 62.03125,17.5390625 L59.1992188,6.93359375 C58.4375,4.00390625 60.1757813,0.99609375 63.0859375,0.21484375 Z M90.5273438,0.21484375 C93.4570312,-0.56640625 96.4648438,1.171875 97.2460938,4.1015625 L100.078125,14.7070313 C100.859375,17.6367188 99.1210938,20.6445312 96.1914062,21.4257812 C93.2617188,22.2070312 90.2539062,20.46875 89.4726562,17.5390625 L86.640625,6.93359375 C85.859375,4.00390625 87.5976562,0.99609375 90.5273438,0.21484375 Z" id="形状" fill="#DCDCDC"></path>
            </g>
        </g>
    </g>
</svg>