<svg width="132" height="149" xmlns="http://www.w3.org/2000/svg"><g fill-rule="nonzero" fill="none"><path fill="#F4CE26" d="M23.703 94.852h86l-2.265 22.628-81.66.372z"/><path d="M125.547 59.375H6.309l10.898-25.45a10.944 10.944 0 0110.078-6.64h77.246c4.395 0 8.36 2.617 10.078 6.66l10.938 25.43zM22.949 48.398h85.957l-4.355-10.156H27.305l-4.356 10.156zm4.356-15.644v5.488-5.488zM98.203 148.809H27.441c-3.847 0-7.07-2.91-7.48-6.739L12.5 71.25c-.469-4.434 3.008-8.32 7.48-8.32h91.915c4.472 0 7.949 3.867 7.48 8.32l-6.816 64.629c-.782 7.344-6.973 12.93-14.356 12.93zm-60.879-10.977h57.227c3.847 0 7.07-2.91 7.48-6.738l5.156-48.867c.47-4.434-3.007-8.32-7.48-8.32H32.168c-4.473 0-7.95 3.866-7.48 8.32l5.156 48.867c.39 3.828 3.633 6.738 7.48 6.738z" fill="#DCDCDC"/><path d="M23.691 115.332h81.465v12.07H23.691v-12.07zm0-29.902h86.133V97.5H23.691V85.43z" fill="#DCDCDC"/><path d="M14.629 53.887h102.598c5 0 9.043 4.062 9.043 9.043 0 5-4.063 9.043-9.043 9.043H14.629c-5 0-9.043-4.063-9.043-9.043 0-5 4.043-9.043 9.043-9.043z" fill="#F4CE26"/><path d="M117.227 77.48H14.629C6.62 77.48.098 70.957.098 62.95c0-8.009 6.523-14.532 14.53-14.532h102.599c8.007 0 14.53 6.523 14.53 14.531 0 8.008-6.503 14.531-14.53 14.531zM14.629 59.375a3.576 3.576 0 00-3.574 3.574 3.576 3.576 0 003.574 3.574h102.598a3.576 3.576 0 003.574-3.574 3.576 3.576 0 00-3.574-3.574H14.629zM35.664.215a5.487 5.487 0 016.719 3.887l2.832 10.605a5.487 5.487 0 01-3.887 6.719 5.487 5.487 0 01-6.719-3.887L31.777 6.934a5.487 5.487 0 013.887-6.72zm27.422 0a5.487 5.487 0 016.719 3.887l2.832 10.605a5.487 5.487 0 01-3.887 6.719 5.487 5.487 0 01-6.719-3.887L59.2 6.934c-.761-2.93.977-5.938 3.887-6.72zm27.441 0a5.487 5.487 0 016.72 3.887l2.831 10.605a5.487 5.487 0 01-3.887 6.719 5.487 5.487 0 01-6.718-3.887L86.64 6.934a5.487 5.487 0 013.886-6.72z" fill="#DCDCDC"/></g></svg>