<?xml version="1.0" encoding="UTF-8"?>
<svg width="90px" height="90px" viewBox="0 0 90 90" version="1.1" xmlns="http://www.w3.org/2000/svg" xmlns:xlink="http://www.w3.org/1999/xlink">
    <!-- Generator: Sketch 55.2 (78181) - https://sketchapp.com -->
    <title>形状结合</title>
    <desc>Created with Sketch.</desc>
    <g id="页面1" stroke="none" stroke-width="1" fill="none" fill-rule="evenodd">
        <path d="M40,75.5988747 L40,58.0807424 C36.6299547,56.7917984 33.8854483,54.2379573 32.3472627,51.0000008 L14.5802026,51 C17.0590138,63.6397067 27.2193829,73.5264349 40,75.5988747 Z M50,75.5988747 C62.7806171,73.5264349 72.9409862,63.6397067 75.4197974,51 L57.6527413,51 C56.1145517,54.2379573 53.3700453,56.7917984 50,58.0807424 L50,75.5988747 Z M14.2556834,41 L31.5797574,41 C33.3008557,35.2170221 38.6579587,31 45,31 C51.3420413,31 56.6991443,35.2170221 58.4202426,41 L75.7443166,41 C73.7821298,25.7686067 60.7654176,14 45,14 C29.2345824,14 16.2178702,25.7686067 14.2556834,41 Z M45,90 C20.1471863,90 0,69.8528137 0,45 C0,20.1471863 20.1471863,0 45,0 C69.8528137,0 90,20.1471863 90,45 C90,69.8528137 69.8528137,90 45,90 Z" id="形状结合" fill="#DCDCDC" fill-rule="nonzero"></path>
    </g>
</svg>