<svg width="801" height="169" xmlns="http://www.w3.org/2000/svg"><g fill="#DCDCDC" fill-rule="evenodd"><path d="M147.03 88.08c-1.757-4.421-4.221-7.858-7.89-9.983-3.632-2.105-7.765-2.917-11.946-1.706-8.447 2.444-12.284 9.392-12.231 16.126.066 8.569 4.813 13.415 12.236 16.105 3.44 1.248 7.164.648 10.328-.76 4.498-2.004 7.452-5.868 9.504-10.834V88.08zm-49.005 79.94c-.368-1.972-.954-3.657-.955-5.34-.048-53.446-.04-106.89-.034-160.335 0-.317.076-.633.159-1.26C97.89.775 98.734.077 99.582.07 110.07-.005 120.56.02 131.05.02c6.105 1.718 12.135 3.201 17.692 6.826 6.388 4.166 10.901 9.544 14.578 15.95 3.208 5.593 4.778 11.523 4.755 18.03-.102 28.803-.162 57.607.029 86.41.055 8.44-2.849 15.71-7.335 22.454-4.186 6.292-9.08 10.453-15.678 13.704-5.502 2.713-11.268 4.683-17.56 4.644-9.657-.063-19.314-.018-29.506-.018zM364.489 106.033c-1.062 2.599-2.048 4.25-2.407 6.029-1.327 6.569-3.239 12.998-5.226 19.359-.921 2.947-1.403 6.015-2.456 8.954-.976 2.72-1.725 5.677-2.559 8.469-1.373 4.594-2.123 9.379-4.06 14.005h-21.484c-1.041-3.15-2.407-6.458-3.203-9.9-1.018-4.396-2.506-8.653-3.57-13.017-1.363-5.59-3.229-11.03-4.607-16.618-.887-3.597-1.772-7.26-2.99-10.747-1.483-4.25-2.634-8.591-3.763-12.911-.631-2.414-1.616-4.698-2.153-7.131-1.172-5.32-3.258-10.406-4.021-15.838-.098-.698-.751-1.32-1.425-2.438 6.668-.458 12.896-.101 19.489-.264 1.004 2.798 2.4 5.476 2.899 8.313 1.493 8.47 4.145 16.664 6.332 24.928 2.05 7.746 3.602 15.707 6.605 23.22.679 1.699.768 3.633 1.461 5.477 1.985-6.315 4.148-12.481 5.792-18.834.925-3.58 1.981-7.16 3.06-10.715 2.025-6.67 4.387-13.236 5.861-20.072.453-2.103 1.18-4.171 2.008-6.16.56-1.344 1.01-2.61 1.031-4.102.009-.665.802-1.32 1.181-1.893h15.467c1.332 5.238 2.842 10.303 4.418 15.32.918 2.925 1.641 5.94 2.775 8.833 1.07 2.732 1.322 5.774 2.125 8.625.455 1.616 1.519 3.068 1.922 4.69 1.685 6.77 3.323 13.535 5.96 20.033.568 1.4-.312 3.357 1.824 4.369 1.039-5.764 2.776-11.431 4.479-17.033 1.935-6.37 3.134-12.931 5.388-19.232 1.982-5.543 2.742-11.511 4.484-17.156.853-2.765.446-6.09 3.316-8.398h18.777c-2.683 7.839-4.544 15.636-6.921 23.3-1.274 4.11-2.186 8.465-3.413 12.62-1.219 4.134-2.778 8.31-3.579 12.44-.813 4.193-2.854 7.915-3.426 12.179-.525 3.917-2.558 7.606-3.484 11.5-.971 4.089-1.939 8.157-3.341 12.124-.514 1.455-.749 3.009-1.121 4.557h-21.287c-2.45-1.41-.65-4.777-2.616-6.567-1.175-6.765-3.684-13.19-5.056-19.913-.773-3.781-2.111-7.446-3.191-11.164-1.253-4.313-2.524-8.622-3.743-12.945-.499-1.767-.884-3.566-1.552-6.296M66.86 154.02v-140c-9.64 0-19.107-.002-28.575.008-.642 0-1.344-.042-1.918.188-6.905 2.773-13.76 5.707-17.625 12.643-2.183 3.917-4.709 7.77-4.71 12.528-.004 29.799-.004 59.598.006 89.398 0 .973-.127 2.042.215 2.905 2.74 6.918 5.73 13.707 12.617 17.65 3.487 1.998 7.01 4.44 11.048 4.577 9.611.324 19.241.104 28.941.104M80.876.02v167.818c-1.08.055-2.337.172-3.594.174-11.826.014-23.653-.07-35.478.034-8.467.076-16.242-2.35-23.012-7.128-6.366-4.493-11.799-10.116-14.906-17.543-2.13-5.091-3.899-10.228-3.886-15.892.066-29.148.03-58.297.03-87.446 0-8.056 4.226-17.922 9.433-24.114 3.115-3.705 6.744-6.575 10.52-9.466 3.85-2.95 8.41-3.86 12.756-5.45 3.454-1.262 7.03-.98 10.583-.983C55.79.014 68.255.02 80.876.02M744.05 108.847V75.501l1.356-1.356h17.425v88.767h-17.409c-.377-.376-.729-.73-1.256-1.255v-33.404h-40.04v34.556h-18.984V74.22h18.868v34.628h40.04zM208.65 156.067c3.884-5.517 5.893-11.383 9.572-15.962 6.397 3.207 12.63 5.649 19.436 7.078 6.92 1.453 13.756.336 20.608.799 1.717.116 9.93-2.84 11.28-4.044 1.917-1.71 3.13-4.112 3.357-6.54.212-2.278-.923-4.048-3.298-5.614-3.018-1.991-6.232-2.852-9.503-3.67-1.958-.49-3.831-1.612-6.068-1.141-1.901.4-3.662-.823-5.542-1.133-3.555-.585-7.176-.99-10.685-1.852-3.454-.848-6.905-1.791-10.242-3.008-5.065-1.847-10.153-3.937-13.421-8.477-1.774-2.466-3.324-5.363-4.01-8.291-2.022-8.647 2.186-16.8 9.454-22.512 4.873-3.831 10.51-5.321 15.932-7.503 2.577-1.037 5.648-.994 8.51-1.133 3.656-.177 7.33.079 10.989-.074 4.43-.186 13.826 2.098 20.045 3.478 3.065.68 5.75 2.319 9.289 2.986-2.035 5.366-4.416 10.486-6.48 15.698-6.94-2.24-13.427-4.308-20.296-5.328-3.568-.53-7.12-1.061-10.593-.673-3.393.38-6.838.76-10.207 1.774-4.06 1.223-6.418 3.735-7.791 7.193.64 4.84 4.287 6.594 7.748 7.748 3.055 1.019 6.339 1.675 9.592 2.27 8.422 1.543 16.948 2.762 25.02 5.872 6.247 2.406 12.2 5.297 16.604 10.513 1.699 2.01 3.068 4.32 3.133 7.198.03 1.368.884 2.719.903 4.084.115 8.202-3.817 19.152-13.381 23.378-4.902 2.166-9.782 3.728-14.952 4.988-5.251 1.278-10.422.485-15.614.835-1.658.11-3.33.002-4.995.02-8.016.082-15.637-1.836-23.084-4.587-3.61-1.334-7.182-2.771-11.31-4.37M665.504 92.451l-14.755 12.791c-1.442-1.812-2.543-3.497-3.935-4.889-4.579-4.575-9.82-7.663-16.504-8.51-2.693-.34-5.066-.99-7.723.1-1.14.467-2.633.078-3.557.078-8.228 3.326-14.44 8.142-18.134 16.245-2.538 5.566-1.468 11.14-1.866 16.726 3.02 9.561 8.65 16.705 18.45 20.04 2.987 1.016 6.221 2.108 9.144 1.766 3.194-.375 6.664-.443 9.664-1.84 2.806-1.306 5.607-2.848 7.973-4.813 2.45-2.033 4.373-4.7 6.68-7.259l14.072 12.07v1.132c-1.237 1.704-2.399 3.618-3.863 5.262-3.958 4.445-15.988 12.226-23.776 13.827-6.757 1.39-13.45.9-20.1.624-3.816-.158-7.724-1.909-11.374-3.726-5.608-2.793-10.888-6.002-15.005-10.762-2.486-2.873-4.698-6.005-6.83-9.156-1.822-2.69-2.404-5.98-3.9-8.886-1.032-2-.826-4.65-1.127-7.014-.282-2.203-1.213-4.23-1.069-6.586.638-10.39 3.045-20.05 9.42-28.63 4.892-6.584 10.798-11.657 18.2-15.09 4.885-2.269 9.793-4.255 15.37-3.994 1.674.078 3.466-1.106 5.065-.848 6.463 1.044 13.04 1.395 19.146 4.417 5.993 2.967 11.625 6.41 15.18 10.36 1.702 1.89 3.158 4.002 5.154 6.565M490.115 93.196v-19.01h74.817v18.656h-26.157c-.324.287-.467.379-.562.507-.087.12-.175.28-.175.422-.008 22.62-.008 45.242-.008 67.662l-1.462 1.584H518.2V93.196h-28.087zM468.863 161.689l-1.236 1.236h-19.413V75.338l1.206-1.206h18.221l1.221 1.22zM728.11 22.513c-.241 5.24-.69 10.566 3.67 14.788 3.383 3.276 7.435 4.042 11.92 3.735 7.372-.503 13.162-8.622 12.246-15.57-.526-3.996-2.477-7.653-5.974-9.92-4.475-2.904-9.39-3.413-14.76-1.206-2.185 2.485-5.392 4.63-7.101 8.173m6.72 29.67c-13.843-8.299-9.625-4.014-17.618-17.388-.625-1.887-.215-3.542-.976-5.375-1.228-2.956.478-6.232 1.234-9.308 1.76-7.156 6.988-11.583 12.62-15.653 2.955-.368 5.386-2.538 8.478-2.444 1.164.036 2.337.088 3.494-.009 3.927-.332 7.602.452 10.945 2.517 3.189 1.97 6.88 3.406 8.362 7.337 5.61 5.66 6.299 12.866 5.49 20.105-.413 3.711-2.42 7.353-4.794 10.425-1.608 2.082-3.492 4.135-5.675 5.547-3.524 2.282-7.2 4.61-11.77 4.084-3.22 2.023-6.438-.85-9.79.161M571.202 49.35l-1.547 1.547h-8.5V3.237h9.48l22.224 29.271V4.673l1.575-1.527h8.472v47.658h-9.386l-22.318-30.166V49.35zM213.202 3.108h9.4l22.337 29.79V4.612l1.497-1.497h8.424v47.856c-2.552.121-5.32.011-8.485.063-8.192-9.34-14.897-20.149-23.158-30.23v30.033c-1.74.065-3.327.148-4.915.177-1.643.03-3.287.007-5.1.007V3.108zM336.203 3.108h9.617l22.21 29.57v-4.036c0-7.326-.003-14.651.004-21.976.002-1.307-.354-2.766 2.243-3.55h7.582V50.97c-2.55.124-5.317.012-8.627.067-7.38-9.866-14.953-19.994-23.168-30.978v30.866h-9.861V3.108zM653.106 40.02h13.183c.684-.386 1.207-.737 1.772-.992 8.756-3.96 10.493-13.503 3.889-21.521-1.733-2.103-4.373-3.192-7.003-3.404-3.91-.316-7.865-.082-11.841-.082v26zm-9.941 11v-48c7.097 0 14.142-.66 21.008.168 8.542 1.03 15.976 4.68 19.88 13.21.914 1.997 1.893 3.9 2.025 6.176.079 1.376 1.068 2.795.87 4.074-.62 3.99-.857 8.256-3.025 11.696-2 3.174-4.38 6.086-7.783 8.32-4.155 2.726-8.6 3.942-13.232 4.249-6.46.428-12.967.108-19.743.108zM486.206 3.115h35.419l1.25 1.251v7.31l-1.46 1.46h-25.274v8.852h24.794v8.86h-24.73c-.061 1.741-.14 3.34-.168 4.937-.028 1.64-.006 3.281-.006 5.082h25.347l1.517 1.52v7.27l-1.28 1.28h-35.41V3.114zM437.2 50.92h-9.77l-1.33-1.33V14.07h-13.97V3.195h38.586l1.189 1.235v8.216l-1.36 1.36H437.2V50.92zM290.206 4.346l1.192-1.192h9.266l1.279 1.279v45.544c-3.332 2.048-7.032.53-10.368 1.088l-1.37-1.368V4.346zM786.204 149.113h2.88l3.488 8.046 3.217-7.926h4.241c0 4.353.008 8.646-.019 12.94-.002.27-.286.538-.462.848-.304 0-.72.128-.94-.026-.534-.374-.977-.879-1.618-1.484v-6.179c-.91 1.96-1.753 3.031-1.85 4.167-.138 1.571-.272 2.896-2.208 3.623-2.659-1.03-1.67-4.407-3.675-6.27v4.663l-3.054 1.907v-14.309zM781.935 149.196v2.39l-4.026 1.512v10.217l-2.748-1.383v-9.734c-1.394-.105-2.643-.2-4.357-.328l1.25-2.674h9.88z"/><path d="M58.065 50.227c.001 4.86-1.248 8.403-4.163 11.508-3.26 3.476-7.558 5.002-11.807 5.052-3.868.045-8.072-1.179-11.08-4.303-3.317-3.443-5.153-7.398-5.05-12.396.19-9.403 7.484-15.828 16-15.896 7.477-.059 16.615 5.272 16.1 16.035"/></g></svg>