<svg width="85" height="19" viewBox="0 0 85 19" fill="none" xmlns="http://www.w3.org/2000/svg">
<path fill-rule="evenodd" clip-rule="evenodd" d="M15.4352 8.93089C15.8159 9.14669 16.0715 9.49572 16.2538 9.94467H16.2539V10.8533C16.041 11.3576 15.7345 11.75 15.2679 11.9535C14.9396 12.0965 14.5533 12.1575 14.1964 12.0307C13.4263 11.7576 12.9338 11.2654 12.927 10.3953C12.9215 9.71141 13.3195 9.00584 14.1959 8.75765C14.6296 8.63467 15.0584 8.71713 15.4352 8.93089ZM11.1278 17.874C11.1422 17.9344 11.1572 17.997 11.1697 18.0626C11.4842 18.0626 11.7937 18.0622 12.0999 18.0618C12.823 18.0609 13.5269 18.06 14.2308 18.0645C14.8836 18.0684 15.4818 17.8684 16.0526 17.5929C16.7371 17.2627 17.2449 16.8402 17.6791 16.2012C18.1445 15.5164 18.4458 14.7781 18.4401 13.921C18.4203 10.996 18.4265 8.07096 18.4371 5.146C18.4395 4.48521 18.2766 3.88301 17.9438 3.31504C17.5623 2.66451 17.0941 2.11837 16.4314 1.69531C15.9045 1.35887 15.3366 1.20412 14.7593 1.04679C14.7049 1.03198 14.6504 1.01714 14.5959 1.00212C14.3783 1.00212 14.1606 1.00202 13.9429 1.00192C13.0723 1.00151 12.2017 1.00111 11.3312 1.0072C11.2699 1.0077 11.2089 1.04225 11.1531 1.07381C11.1288 1.08755 11.1055 1.10072 11.0836 1.11027C11.0806 1.13269 11.0776 1.1512 11.0751 1.16717C11.0704 1.19656 11.0671 1.21737 11.0671 1.23823L11.067 1.79837C11.0664 7.03903 11.0658 12.2796 11.0706 17.5204C11.0707 17.6352 11.0982 17.7502 11.1278 17.874ZM38.7064 12.009C38.7399 11.9369 38.7766 11.858 38.8143 11.7678C38.8378 11.8619 38.8579 11.945 38.8763 12.0209C38.912 12.1686 38.9411 12.2886 38.9753 12.4072C39.0695 12.7343 39.1668 13.0607 39.264 13.387C39.2972 13.4986 39.3305 13.6102 39.3636 13.7217C39.3987 13.8401 39.4365 13.958 39.4742 14.0758C39.5569 14.3338 39.6396 14.5919 39.6947 14.8555C39.7602 15.1699 39.8508 15.478 39.9414 15.7859C40.0474 16.1466 40.1534 16.5071 40.2192 16.8776C40.3149 16.9629 40.3246 17.0834 40.3341 17.2021C40.345 17.3364 40.3556 17.4685 40.4906 17.5445H42.699C42.7112 17.4949 42.722 17.4453 42.7327 17.3959C42.7559 17.2887 42.7788 17.1829 42.8153 17.0818C42.9608 16.6789 43.0612 16.2658 43.1619 15.8506C43.2029 15.682 43.2647 15.5173 43.3264 15.3529C43.4094 15.1316 43.4921 14.911 43.5234 14.6827C43.5557 14.4473 43.6329 14.2282 43.7103 14.0089C43.7753 13.8247 43.8403 13.6403 43.8788 13.4459C43.9366 13.1546 44.0323 12.8609 44.1277 12.5681C44.1696 12.4394 44.2115 12.3108 44.2501 12.1826C44.3091 11.9873 44.361 11.7876 44.4129 11.588C44.4731 11.3565 44.5332 11.1252 44.6042 10.9011C44.7043 10.5852 44.7956 10.2672 44.8873 9.94749C45.0216 9.47944 45.1569 9.00795 45.3222 8.53495H43.3742C43.1604 8.70322 43.1219 8.92473 43.0844 9.14021C43.0697 9.22486 43.0551 9.30857 43.0302 9.38777C42.9498 9.64262 42.8896 9.90396 42.8295 10.1651C42.7543 10.4914 42.6792 10.8173 42.565 11.13C42.4274 11.5064 42.3277 11.892 42.2281 12.2774C42.1584 12.5471 42.0887 12.8167 42.006 13.083L41.9958 13.1159C41.8224 13.6741 41.647 14.2386 41.5413 14.8127C41.3918 14.7434 41.3847 14.6303 41.3779 14.5205C41.3745 14.4675 41.3713 14.4153 41.3521 14.369C41.0898 13.7363 40.9228 13.0787 40.7554 12.4196L40.7338 12.3347C40.7121 12.2492 40.6719 12.1683 40.6316 12.0873C40.5944 12.0124 40.5571 11.9373 40.5344 11.8584C40.501 11.7423 40.4767 11.6231 40.4526 11.504C40.4164 11.3262 40.3804 11.1487 40.3139 10.9825C40.2352 10.7861 40.1756 10.584 40.1163 10.3829C40.0869 10.2833 40.0576 10.1839 40.026 10.0855C39.8625 9.57604 39.7059 9.06169 39.5677 8.52977H37.963C37.9511 8.54741 37.9352 8.56582 37.9189 8.58479C37.8813 8.62839 37.8412 8.67495 37.8405 8.722C37.8383 8.87352 37.7916 9.00208 37.7335 9.13856C37.6476 9.34055 37.5722 9.55056 37.5252 9.76412C37.4144 10.2671 37.2552 10.7558 37.096 11.2445C37.0355 11.4302 36.975 11.6159 36.9172 11.8024C36.8052 12.1635 36.6957 12.527 36.5997 12.8906C36.477 13.3545 36.3265 13.8087 36.1751 14.2657C36.1159 14.4441 36.0566 14.6231 35.9988 14.8032C35.9633 14.7107 35.9431 14.6161 35.9233 14.5232C35.9029 14.4279 35.8829 14.3344 35.8472 14.247C35.6169 13.683 35.4689 13.0942 35.3215 12.5077C35.2694 12.3008 35.2175 12.0941 35.162 11.889C35.0981 11.6526 35.0304 11.4169 34.9626 11.1809C34.7897 10.5789 34.6163 9.97544 34.5051 9.35751C34.4696 9.15997 34.3903 8.97003 34.3104 8.77855C34.2738 8.69075 34.2371 8.60264 34.2043 8.51332C33.9377 8.51977 33.6769 8.5182 33.4169 8.51663C33.0097 8.51418 32.6046 8.51174 32.1824 8.54013C32.207 8.57999 32.2312 8.61364 32.2529 8.6436C32.2928 8.69896 32.3236 8.74171 32.3302 8.78771C32.3771 9.11415 32.472 9.42829 32.5669 9.74233C32.6323 9.95895 32.6978 10.1755 32.7474 10.3961C32.7784 10.5335 32.8237 10.6662 32.8691 10.7991C32.9054 10.9052 32.9417 11.0114 32.9708 11.1202C33.0879 11.5589 33.2073 11.9998 33.3612 12.4313C33.4817 12.769 33.5707 13.1229 33.6586 13.4718L33.6714 13.5227C33.7418 13.8023 33.8246 14.0783 33.9073 14.3543C33.9925 14.6383 34.0776 14.9223 34.1493 15.2103C34.2014 15.4192 34.2632 15.6256 34.325 15.8323C34.3944 16.0641 34.4639 16.2962 34.5197 16.5322C34.5772 16.7757 34.6635 17.0127 34.7471 17.2422C34.7834 17.3421 34.8193 17.4405 34.852 17.5375H37.0809C37.2108 17.2338 37.2893 16.9233 37.367 16.6156C37.4095 16.4475 37.4517 16.2802 37.5021 16.1153C37.5289 16.0276 37.5548 15.9382 37.5808 15.8485C37.639 15.6482 37.6977 15.446 37.7676 15.2553C37.829 15.0874 37.8717 14.9153 37.9143 14.7437C37.9475 14.6102 37.9806 14.4769 38.0224 14.346C38.2285 13.7 38.4269 13.0471 38.5645 12.3801C38.5891 12.2611 38.6418 12.1478 38.7064 12.009ZM7.93646 2.42383V16.6409L7.93636 16.641C7.64609 16.641 7.35643 16.6429 7.06725 16.6447C6.35384 16.6493 5.64335 16.6539 4.93385 16.6305C4.57334 16.6185 4.25241 16.4332 3.93937 16.2524C3.88863 16.2231 3.83811 16.194 3.78766 16.1657C3.07316 15.7653 2.76296 15.0758 2.4787 14.3733C2.45073 14.3042 2.453 14.2221 2.45521 14.142C2.4558 14.1206 2.45639 14.0992 2.45639 14.0783C2.45536 11.0521 2.45536 8.02598 2.45577 4.99987C2.45586 4.57031 2.663 4.21339 2.86811 3.85996C2.89371 3.81584 2.91928 3.77178 2.94441 3.72764C3.34539 3.02328 4.05657 2.72534 4.77294 2.44374C4.82458 2.42348 4.88621 2.424 4.9451 2.42449C4.95412 2.42457 4.96308 2.42464 4.97192 2.42464C5.81353 2.42377 6.65506 2.4238 7.50788 2.42382C7.6504 2.42383 7.79325 2.42383 7.93646 2.42383ZM9.39056 18.0442V1.00212C9.03259 1.00212 8.67582 1.00208 8.31993 1.00203C7.37406 1.00191 6.43436 1.00179 5.49449 1.00253C5.43705 1.00258 5.37956 1.00192 5.32206 1.00127C5.01057 0.997716 4.69905 0.994165 4.39655 1.10235C4.28465 1.14243 4.17138 1.17824 4.05821 1.21403C3.71538 1.32245 3.37346 1.43058 3.07316 1.6558C2.68142 1.94939 2.30492 2.24084 1.98176 2.61708C1.44155 3.24588 1.00312 4.24778 1.00312 5.06588C1.00312 5.83808 1.00337 6.61028 1.00363 7.38248C1.00435 9.57037 1.00507 11.7583 1.00001 13.9461C0.998659 14.5213 1.18219 15.0429 1.40316 15.5599C1.7255 16.3141 2.28915 16.8852 2.9496 17.3414C3.65196 17.8266 4.45859 18.073 5.337 18.0653C6.14345 18.0583 6.94999 18.0596 7.75653 18.0609C8.17693 18.0616 8.59732 18.0623 9.0177 18.0618C9.10833 18.0617 9.19897 18.0559 9.28343 18.0505C9.32051 18.0481 9.35639 18.0459 9.39056 18.0442ZM78.1922 8.66727V12.0536V12.0537H74.0382V8.53718H72.0807V17.5335H74.0502V14.0243H78.2042V17.4165C78.2589 17.4698 78.2954 17.5057 78.3345 17.5439H80.1406V8.52956H78.3329L78.1922 8.66727ZM23.1212 16.0577C22.9805 16.3179 22.8347 16.5872 22.6466 16.8488C22.7842 16.901 22.9158 16.9514 23.0435 17.0004C23.3133 17.1038 23.5658 17.2006 23.82 17.2926C24.5926 17.5719 25.3832 17.7667 26.2148 17.7584C26.2781 17.7577 26.3415 17.7588 26.4049 17.7598C26.5145 17.7616 26.6241 17.7634 26.733 17.7564C26.9246 17.7437 27.1158 17.7458 27.3073 17.7478C27.6543 17.7515 28.0019 17.7552 28.3529 17.6716C28.8893 17.5436 29.3956 17.385 29.9041 17.165C30.8964 16.7359 31.3043 15.6239 31.2924 14.791C31.2914 14.7212 31.2685 14.6519 31.2455 14.5825C31.2229 14.5139 31.2002 14.4453 31.1987 14.3762C31.1919 14.084 31.0499 13.8494 30.8737 13.6453C30.4168 13.1156 29.7992 12.822 29.1511 12.5777C28.4375 12.3086 27.6898 12.1789 26.9438 12.0495C26.8142 12.027 26.6846 12.0046 26.5553 11.9814C26.2178 11.921 25.8771 11.8543 25.5602 11.7509C25.2011 11.6337 24.8228 11.4555 24.7564 10.964C24.8988 10.6129 25.1435 10.3578 25.5647 10.2336C25.911 10.1315 26.2652 10.0927 26.6141 10.0545L26.6236 10.0534C26.9826 10.0142 27.3497 10.0676 27.7185 10.1212L27.7226 10.1218C28.4352 10.2254 29.1082 10.4354 29.8282 10.6628C29.9227 10.4292 30.0236 10.1974 30.125 9.96453C30.2534 9.66972 30.3825 9.37311 30.5005 9.0687C30.3019 9.03206 30.1293 8.96656 29.9623 8.90321C29.8205 8.84942 29.6828 8.79717 29.5368 8.76547C29.4581 8.74839 29.3746 8.72994 29.2877 8.71075C28.6616 8.57251 27.8608 8.39569 27.4572 8.41227C27.2728 8.41982 27.088 8.41757 26.9033 8.41531C26.7077 8.41293 26.5122 8.41055 26.3171 8.41979C26.2734 8.42187 26.2291 8.42355 26.1846 8.42524C25.9274 8.435 25.6622 8.44506 25.4343 8.53485C25.3064 8.5852 25.1775 8.63192 25.0485 8.67863C24.61 8.83747 24.172 8.99615 23.7814 9.29678C23.0273 9.87684 22.5908 10.7048 22.8006 11.5829C22.8717 11.8802 23.0325 12.1744 23.2166 12.4248C23.5556 12.8859 24.0835 13.0981 24.609 13.2857C24.9552 13.4093 25.3132 13.505 25.6715 13.5912C25.9314 13.6536 26.1972 13.6925 26.4622 13.7312C26.5684 13.7467 26.6745 13.7622 26.78 13.7792C26.8509 13.7907 26.9202 13.8144 26.9891 13.8379C27.1098 13.8792 27.2295 13.9201 27.355 13.8943C27.5226 13.8597 27.6705 13.9096 27.8162 13.9586C27.8723 13.9775 27.9281 13.9963 27.9845 14.0102C28.3239 14.0932 28.6573 14.1807 28.9704 14.3828C29.2168 14.5419 29.3346 14.7216 29.3126 14.9529C29.289 15.1995 29.1632 15.4434 28.9643 15.6171C28.8243 15.7394 27.9722 16.0395 27.7941 16.0278C27.5235 16.0099 27.2532 16.0152 26.9825 16.0206C26.5421 16.0293 26.1007 16.038 25.6561 15.9466C24.95 15.8015 24.3033 15.5535 23.6397 15.2278C23.4362 15.4757 23.282 15.7607 23.1212 16.0577ZM68.5126 11.6875L70.0434 10.3886C69.9758 10.3036 69.9141 10.2235 69.8557 10.1475C69.7349 9.99067 69.6276 9.85116 69.5086 9.72187C69.1398 9.32075 68.5555 8.97111 67.9338 8.66981C67.4306 8.42606 66.8967 8.35342 66.3623 8.28073C66.2239 8.2619 66.0854 8.24307 65.9475 8.22126C65.8595 8.20737 65.7659 8.23464 65.6715 8.26215C65.5879 8.28653 65.5036 8.31109 65.422 8.30737C64.8434 8.28087 64.3342 8.48255 63.8274 8.71296C63.0595 9.06159 62.4468 9.57675 61.9392 10.2454C61.2779 11.1167 61.0281 12.0976 60.9619 13.1528C60.9526 13.3024 60.9869 13.439 61.021 13.575C61.0415 13.6565 61.0619 13.7378 61.0729 13.8216C61.0819 13.8914 61.0866 13.9638 61.0912 14.0362C61.1025 14.2127 61.1139 14.3899 61.1898 14.5338C61.2549 14.6576 61.3033 14.7883 61.3515 14.9184C61.4183 15.0985 61.4847 15.2776 61.5944 15.4362C61.8156 15.7562 62.0451 16.0743 62.303 16.366C62.7301 16.8494 63.2779 17.1753 63.8597 17.4589C64.2384 17.6434 64.6438 17.8212 65.0397 17.8373C65.1095 17.8401 65.1794 17.8432 65.2493 17.8462C65.8703 17.8734 66.4949 17.9008 67.125 17.7739C67.933 17.6113 69.181 16.8212 69.5916 16.3698C69.6964 16.2546 69.7863 16.1264 69.8741 16.0011C69.9136 15.9448 69.9526 15.8891 69.9924 15.8354V15.7205L68.5325 14.4948C68.4585 14.5751 68.3884 14.6564 68.3192 14.7366C68.1646 14.9159 68.0151 15.0893 67.8395 15.2319C67.594 15.4315 67.3034 15.588 67.0123 15.7207C66.7619 15.8348 66.4799 15.8616 66.2066 15.8875C66.1403 15.8938 66.0745 15.9001 66.0097 15.9075C65.7065 15.9423 65.3709 15.8314 65.0611 15.7282C64.0443 15.3895 63.4603 14.664 63.1469 13.6931C63.1589 13.529 63.1581 13.3651 63.1573 13.2012C63.1553 12.7985 63.1534 12.3963 63.3405 11.9946C63.7238 11.1717 64.3682 10.6826 65.2219 10.3449C65.2494 10.3449 65.2818 10.3481 65.3169 10.3517C65.4037 10.3604 65.5066 10.3708 65.5909 10.337C65.8205 10.2448 66.0296 10.2752 66.2546 10.3078C66.2997 10.3144 66.3454 10.321 66.3921 10.3268C67.0856 10.4128 67.6293 10.7264 68.1043 11.191C68.2019 11.2865 68.2857 11.3956 68.3759 11.5131C68.4193 11.5695 68.4641 11.6278 68.5126 11.6875ZM51.8475 8.53373V10.4642H54.7612V17.5546H56.6668L56.8184 17.3937C56.8184 15.117 56.8184 12.8197 56.8193 10.5226C56.8193 10.5082 56.8284 10.4919 56.8374 10.4797C56.8437 10.4715 56.852 10.4647 56.8659 10.4533C56.8738 10.4468 56.8835 10.4389 56.8957 10.4283H59.6094V8.53373H51.8475ZM49.5144 17.5452L49.6426 17.4197L49.6425 8.65214L49.5159 8.52824H47.6255L47.5004 8.65071V17.5452H49.5144ZM76.5353 3.35195C76.5364 3.33006 76.5374 3.30817 76.5385 3.2863H76.5386C76.6597 3.0406 76.8532 2.86111 77.036 2.69162C77.1208 2.61291 77.2034 2.53635 77.2753 2.45633C77.8324 2.23221 78.3423 2.28389 78.8066 2.5788C79.1694 2.80901 79.3718 3.18038 79.4263 3.58618C79.5214 4.29175 78.9207 5.11624 78.1559 5.16732C77.6906 5.1985 77.2702 5.12071 76.9192 4.78803C76.4855 4.37691 76.5105 3.8627 76.5353 3.35195ZM76.0858 5.60152C76.26 5.77279 76.506 5.87107 77.2357 6.29931V6.29921C77.3902 6.2536 77.5419 6.28582 77.6922 6.31772C77.8801 6.35763 78.0657 6.39704 78.2514 6.28286C78.7255 6.33627 79.1069 6.09986 79.4725 5.86812C79.699 5.72474 79.8944 5.51625 80.0613 5.30482C80.3076 4.99286 80.5158 4.62301 80.5586 4.24616C80.6426 3.51103 80.5711 2.77926 79.9891 2.20448C79.8629 1.87686 79.5823 1.7199 79.3029 1.56356C79.2419 1.5294 79.1809 1.49527 79.1215 1.4594C78.7747 1.2497 78.3934 1.17009 77.986 1.2038C77.8775 1.21271 77.7676 1.20924 77.6582 1.2058C77.6467 1.20543 77.6351 1.20507 77.6236 1.20472C77.4449 1.1994 77.2875 1.26539 77.1302 1.33137C77.005 1.38387 76.8798 1.43635 76.744 1.45291C76.1597 1.86622 75.6173 2.31578 75.4347 3.04248C75.416 3.11695 75.3917 3.19258 75.3673 3.26865C75.2892 3.51164 75.2097 3.7591 75.3067 3.98771C75.3487 4.08679 75.3563 4.18074 75.364 4.27586C75.3708 4.35944 75.3776 4.44392 75.408 4.53355C75.8158 5.20157 75.9172 5.43574 76.0858 5.60152ZM60.0994 6.16871L60.2599 6.01162V3.09589L62.5753 6.15927H63.5491V1.31957H62.6701L62.5067 1.47464V4.3013L60.2011 1.32881H59.2176V6.16871H60.0994ZM24.0941 1.31571H23.1189V6.18131C23.1769 6.18131 23.2334 6.18153 23.2886 6.18175C23.4123 6.18224 23.5301 6.1827 23.648 6.1806C23.7615 6.17857 23.875 6.17393 23.9936 6.16909C24.0471 6.1669 24.1017 6.16467 24.1579 6.16262V3.11275C24.543 3.57283 24.8956 4.04784 25.2442 4.51754C25.6713 5.09296 26.0925 5.66041 26.5604 6.18263C26.6972 6.18043 26.8268 6.18108 26.9506 6.18171C27.1241 6.18258 27.2862 6.1834 27.4407 6.17623V1.31642H26.5667L26.4114 1.46844V4.3409L24.0941 1.31571ZM36.8774 1.31571H35.8797V6.17156H36.9027V3.0371C37.2303 3.46576 37.548 3.88158 37.8585 4.28799C38.3559 4.93911 38.8349 5.56606 39.3063 6.18293C39.4503 6.18059 39.5844 6.18123 39.7111 6.18183C39.8865 6.18267 40.0477 6.18344 40.2013 6.17613V1.31652H39.4147C39.1743 1.38757 39.1778 1.51321 39.1813 1.63375C39.1817 1.64829 39.1821 1.66275 39.182 1.67703C39.1815 2.24906 39.1815 2.82109 39.1816 3.39317C39.1816 3.56501 39.1816 3.73686 39.1816 3.90871V4.31856L36.8774 1.31571ZM70.1248 5.06415H68.7571V2.42393C68.8805 2.42393 69.0037 2.42181 69.1266 2.41969C69.4146 2.41471 69.7012 2.40977 69.9856 2.43226C70.2584 2.45379 70.5323 2.56438 70.7121 2.77794C71.3972 3.59217 71.217 4.56127 70.3086 4.96341C70.2696 4.98066 70.2325 5.00224 70.1911 5.02631C70.1703 5.03837 70.1485 5.05106 70.1248 5.06415ZM67.7258 1.30677V6.18121V6.18131C67.9383 6.18131 68.1483 6.18428 68.3564 6.18722C68.8365 6.19401 69.3065 6.20066 69.774 6.17034C70.2546 6.13916 70.7157 6.01568 71.1468 5.73885C71.4998 5.51199 71.7468 5.21627 71.9542 4.89395C72.1408 4.60426 72.1895 4.25688 72.2374 3.91564C72.2473 3.84538 72.2571 3.77539 72.2681 3.70621C72.2796 3.63349 72.2525 3.55631 72.225 3.47794C72.2033 3.41633 72.1814 3.35399 72.1778 3.2925C72.1655 3.0836 72.0813 2.90564 71.9952 2.72361C71.986 2.70424 71.9769 2.68482 71.9677 2.66532C71.5627 1.79909 70.7915 1.42843 69.9053 1.32383C69.4127 1.26569 68.9112 1.2798 68.4052 1.29404C68.1795 1.3004 67.9529 1.30677 67.7258 1.30677ZM55.1165 1.31642H51.4419L51.4418 1.31632V6.17278H55.1155L55.2482 6.04279V5.30452L55.0909 5.15016H52.4612C52.4612 5.09317 52.461 5.03775 52.4608 4.98343C52.4603 4.86342 52.4598 4.74873 52.4618 4.63408C52.4638 4.52329 52.4683 4.41241 52.4729 4.2969C52.4751 4.24332 52.4773 4.18875 52.4793 4.13273H55.0449V3.23299H52.4726V2.33406H55.0947L55.2462 2.1858V1.44346L55.1165 1.31642ZM45.3441 6.17105H46.3577V2.42241H47.7422L47.8833 2.2843V1.44996L47.76 1.32455H43.7568V2.42891H45.2062V6.03599L45.3441 6.17105ZM31.2314 1.32038L31.1077 1.44143H31.1076V6.04685L31.2497 6.18578C31.3767 6.16498 31.5088 6.17258 31.6422 6.18025C31.8724 6.19348 32.1065 6.20695 32.3254 6.07529V1.45027L32.1927 1.32038H31.2314ZM82.8643 16.1426H82.5655V17.5957L82.8823 17.402V16.9285C82.9744 17.0123 83.0056 17.1262 83.0358 17.2363C83.0737 17.3747 83.1099 17.507 83.2636 17.5652C83.4644 17.4914 83.4783 17.3569 83.4927 17.1973C83.4993 17.1217 83.5392 17.0488 83.5925 16.9515C83.6205 16.9004 83.6521 16.8426 83.6846 16.7742V17.4016C83.7047 17.4202 83.7229 17.4379 83.7401 17.4545C83.7798 17.4929 83.8138 17.5258 83.8525 17.5523C83.8683 17.5632 83.8938 17.5603 83.9185 17.5575C83.9295 17.5562 83.9403 17.555 83.95 17.555C83.956 17.5447 83.9631 17.5348 83.9701 17.5253C83.9844 17.5057 83.9978 17.4873 83.9979 17.4689C84.0002 17.1138 84.0001 16.7587 83.9999 16.4004C83.9999 16.3187 83.9999 16.2369 83.9999 16.1548H83.5599L83.2261 16.9597L82.8643 16.1426ZM82.1226 16.3937V16.151H82.1225H81.0975L80.9678 16.4226C81.09 16.4315 81.1894 16.4389 81.2865 16.446L81.4198 16.4559V17.4444L81.7049 17.5848V16.5473L82.1226 16.3937ZM6.59211 7.26929C6.89453 6.95398 7.02411 6.59419 7.024 6.10065C7.07743 5.00766 6.1294 4.46629 5.35369 4.47228C4.47019 4.47919 3.71347 5.13165 3.69376 6.08653C3.68307 6.59408 3.87355 6.99572 4.21767 7.34536C4.52974 7.6626 4.96589 7.7869 5.36718 7.78233C5.808 7.77725 6.2539 7.62228 6.59211 7.26929Z" fill="#DCDCDC"/>
</svg>
