<svg class="icon" viewBox="0 0 1024 1024" xmlns="http://www.w3.org/2000/svg" width="200" height="200"><defs><style/></defs><path d="M537.088 132.693a374.613 374.613 0 01145.792 39.211 374.4 374.4 0 01115.456 89.344 388.779 388.779 0 0173.173 126.421 369.067 369.067 0 0119.798 149.419 350.89 350.89 0 01-13.056 78.848 391.424 391.424 0 01-28.758 72.661 851.541 851.541 0 01-62.72 102.912 751.36 751.36 0 01-75.178 90.368 793.984 793.984 0 01-182.87 139.99l-1.578 1.109a8.363 8.363 0 01-4.651.981 12.501 12.501 0 01-6.784-4.138 11.35 11.35 0 01-2.645-7.382c0-1.237.17-2.517.512-3.626a7.936 7.936 0 011.578-2.646c11.819-16.768 21.59-34.389 29.27-52.693a231.253 231.253 0 0015.701-57.984 5.035 5.035 0 00-1.621-3.627 4.693 4.693 0 00-3.627-1.621 390.613 390.613 0 01-33.92 2.645 210.133 210.133 0 01-33.963-1.578A376.235 376.235 0 01225.75 762.752a387.755 387.755 0 01-73.173-126.421 369.579 369.579 0 01-19.84-149.419 350.89 350.89 0 0113.056-78.848 366.848 366.848 0 0128.8-71.68c18.73-36.864 39.723-71.51 62.677-103.936a769.45 769.45 0 0175.136-90.368A802.133 802.133 0 01495.275 2.176l1.621-1.067a7.979 7.979 0 014.65-1.066 12.587 12.587 0 016.742 4.181 10.88 10.88 0 012.645 7.424 10.41 10.41 0 01-.512 3.584 6.997 6.997 0 01-1.536 2.603 275.072 275.072 0 00-29.312 52.778c-7.722 18.475-12.8 37.76-15.616 57.942 0 1.408.512 2.688 1.536 3.669a4.992 4.992 0 003.627 1.579c11.179-1.408 22.485-2.262 33.92-2.603 11.605-.384 22.87.128 34.048 1.493zm-34.432 527.659a141.653 141.653 0 00107.563-36.48c30.72-27.264 47.317-61.355 50.176-102.4a143.232 143.232 0 00-36.523-108.16 140.501 140.501 0 00-102.4-49.579 143.36 143.36 0 00-108.117 36.48 140.757 140.757 0 00-49.664 102.4 144.256 144.256 0 0036.096 108.16c26.794 30.934 61.098 47.574 102.869 49.579z" fill="#dcdcdc"/></svg>