<svg width="19" height="19" viewBox="0 0 19 19" fill="none" xmlns="http://www.w3.org/2000/svg">
<path d="M9.92832 3.20268C10.7958 3.25316 11.6437 3.47465 12.4203 3.85366C13.1719 4.21753 13.8424 4.72154 14.3937 5.33696C14.9434 5.95354 15.3677 6.66573 15.6444 7.43582C15.9317 8.2313 16.0469 9.0758 15.9828 9.91649C15.96 10.3597 15.8851 10.7989 15.7596 11.2255C15.6376 11.6426 15.4729 12.0467 15.2681 12.4319C14.9527 13.0253 14.5945 13.5962 14.196 14.1404C13.8087 14.6723 13.3791 15.174 12.9111 15.6407C11.991 16.5589 10.938 17.3418 9.78538 17.9649L9.7584 17.9833C9.73409 17.996 9.70647 18.0017 9.67891 17.9996C9.63359 17.9895 9.59288 17.9654 9.56295 17.9309C9.53337 17.8965 9.51735 17.8531 9.51774 17.8083C9.51774 17.7878 9.52065 17.7665 9.52649 17.7481C9.53244 17.7319 9.54161 17.717 9.55347 17.7042C9.75548 17.4258 9.92249 17.1332 10.0538 16.8294C10.1859 16.5212 10.2761 16.1975 10.3221 15.8667C10.322 15.8554 10.3194 15.8442 10.3146 15.8338C10.3099 15.8235 10.303 15.8142 10.2944 15.8065C10.2867 15.7979 10.2772 15.791 10.2665 15.7863C10.2558 15.7817 10.2442 15.7794 10.2324 15.7796C10.0399 15.8024 9.84648 15.817 9.65265 15.8235C9.45874 15.83 9.2646 15.8212 9.07214 15.7973C8.21919 15.7475 7.38499 15.5332 6.6183 15.1667C5.85161 14.8003 5.16779 14.2891 4.6068 13.663C4.05678 13.0467 3.63234 12.3344 3.3561 11.5641C3.06882 10.7687 2.95338 9.9242 3.01699 9.08347C3.0398 8.64029 3.11468 8.20109 3.24015 7.77442C3.36066 7.36202 3.52566 6.96313 3.73241 6.58438C4.05255 5.97236 4.41137 5.39716 4.80371 4.85882C5.19179 4.32765 5.62113 3.82609 6.08796 3.35852C7.00944 2.44231 8.06217 1.66002 9.21364 1.03582L9.24134 1.0181C9.26536 1.00447 9.29309 0.998294 9.32082 1.00041C9.36593 1.01087 9.40635 1.03522 9.43606 1.06982C9.46646 1.10397 9.48259 1.14794 9.48127 1.19307C9.48195 1.21325 9.47899 1.23339 9.47252 1.25257C9.46711 1.26867 9.45815 1.28342 9.44626 1.29579C9.24667 1.56913 9.07865 1.86297 8.94525 2.17202C8.81326 2.47874 8.72647 2.79891 8.67834 3.13398C8.67834 3.15735 8.68709 3.1786 8.70459 3.19489C8.71254 3.20313 8.72214 3.20971 8.7328 3.21422C8.74346 3.21873 8.75496 3.22107 8.76658 3.22111C8.95766 3.19773 9.15091 3.18355 9.34636 3.17789C9.54472 3.17151 9.73726 3.18002 9.92832 3.20268ZM9.33979 11.9629C9.67268 11.9907 10.0079 11.9512 10.3243 11.8469C10.6407 11.7427 10.9315 11.576 11.1783 11.3573C11.7034 10.9047 11.9871 10.3387 12.0359 9.65723C12.0642 9.33234 12.0233 9.00528 11.9159 8.69637C11.8086 8.38746 11.6369 8.1033 11.4117 7.86155C11.1951 7.61339 10.9276 7.41197 10.6261 7.27022C10.3247 7.12846 9.99611 7.04951 9.66141 7.03843C9.3271 7.01113 8.99058 7.0508 8.67271 7.15498C8.35483 7.25916 8.06236 7.42563 7.81343 7.64408C7.55788 7.85444 7.35038 8.11431 7.2042 8.40706C7.05803 8.69981 6.9764 9.01898 6.96455 9.34414C6.93637 9.66846 6.97654 9.99496 7.08262 10.3037C7.1887 10.6124 7.35845 10.8969 7.58152 11.1398C8.03949 11.6534 8.62583 11.9296 9.33979 11.9629Z" fill="#DCDCDC"/>
</svg>
