<svg width="197" height="197" xmlns="http://www.w3.org/2000/svg"><g fill="#DCDCDC" fill-rule="nonzero"><path d="M108.156 55.925a21.43 21.43 0 00-.094 42.861h.094c11.835-.001 21.429-9.595 21.429-21.43 0-11.836-9.594-21.43-21.429-21.431z"/><path d="M98.436.13C44.071.13 0 44.2 0 98.567c0 54.365 44.07 98.436 98.436 98.436 54.366 0 98.437-44.07 98.437-98.436C196.873 44.2 152.803.13 98.436.13zM51.644 127.884a4.706 4.706 0 01-9.41 0 32.926 32.926 0 0117.646-29.18A23.525 23.525 0 0175.168 57.31a4.706 4.706 0 010 9.41c-7.796 0-14.116 6.32-14.116 14.117 0 7.796 6.32 14.117 14.116 14.117a4.706 4.706 0 110 9.412c-12.992 0-23.524 10.532-23.524 23.525v-.007zm99.057 21.28a4.01 4.01 0 01-4.08-3.952c-.018-21.227-17.237-38.424-38.465-38.414h-.096c-21.23-.013-38.452 17.184-38.47 38.414a4.01 4.01 0 01-8.02 0 46.56 46.56 0 0130.073-43.443 29.454 29.454 0 1132.926 0 46.68 46.68 0 0116.43 10.627 46.202 46.202 0 0113.632 32.827 4.01 4.01 0 01-3.93 3.94z"/></g></svg>