<?xml version="1.0" standalone="no"?><!DOCTYPE svg PUBLIC "-//W3C//DTD SVG 1.1//EN" "http://www.w3.org/Graphics/SVG/1.1/DTD/svg11.dtd"><svg t="1553358208593" class="icon" style="" viewBox="0 0 1024 1024" version="1.1" xmlns="http://www.w3.org/2000/svg" p-id="1135" xmlns:xlink="http://www.w3.org/1999/xlink" width="200" height="200"><defs><style type="text/css"></style></defs><path d="M931.507451 840.8889c-23.05197 2.785996-89.719883-105.481862-89.719883-105.481862 0 62.689918-32.271958 144.493811-102.101866 203.571733 33.683956 10.383986 109.685856 38.33395 91.60588 68.84191-14.631981 24.685968-251.019672 15.761979-319.263582 8.07399-68.243911 7.68799-304.631601 16.611978-319.263582-8.07399-18.089976-30.49996 57.835924-58.427924 91.56588-68.82991-69.839909-59.077923-102.117866-140.889816-102.117866-203.583733 0 0-66.667913 108.267858-89.717883 105.481862-10.739986-1.299998-24.847967-59.287922 18.693975-199.407739 20.521973-66.047914 43.989942-120.955842 80.287895-211.557724C185.366427 196.125743 281.964301 0.012 512 0c227.473702 0.012 326.311573 192.265748 320.527581 429.925437 36.235953 90.445882 59.823922 145.699809 80.287894 211.555724 43.535943 140.119817 29.431961 198.105741 18.691976 199.407739z" fill="#dcdcdc" p-id="1136"></path></svg>