<svg class="icon" viewBox="0 0 1024 1024" xmlns="http://www.w3.org/2000/svg" width="200" height="200"><defs><style/></defs><path d="M931.507 840.889c-23.052 2.786-89.72-105.482-89.72-105.482 0 62.69-32.271 144.494-102.101 203.572 33.684 10.384 109.686 38.334 91.606 68.842-14.632 24.686-251.02 15.762-319.264 8.074-68.244 7.688-304.632 16.612-319.264-8.074-18.09-30.5 57.836-58.428 91.566-68.83-69.84-59.078-102.118-140.89-102.118-203.584 0 0-66.667 108.268-89.717 105.482-10.74-1.3-24.848-59.288 18.694-199.408 20.521-66.048 43.99-120.956 80.287-211.558C185.366 196.126 281.964.012 512 0c227.474.012 326.312 192.266 320.528 429.925 36.236 90.446 59.824 145.7 80.287 211.556 43.536 140.12 29.432 198.106 18.692 199.408z" fill="#dcdcdc"/></svg>