<svg width="19" height="19" viewBox="0 0 19 19" fill="none" xmlns="http://www.w3.org/2000/svg">
<path fill-rule="evenodd" clip-rule="evenodd" d="M2 5.29504C2 3.4416 2 2.51488 2.34805 1.80696C2.6542 1.18426 3.14271 0.677986 3.74356 0.360703C4.42664 0 5.32084 0 7.10924 0H11.8908C13.6792 0 14.5734 0 15.2564 0.360703C15.8573 0.677986 16.3458 1.18426 16.652 1.80696C17 2.51488 17 3.4416 17 5.29504V13.705C17 15.5584 17 16.4851 16.652 17.193C16.3458 17.8157 15.8573 18.322 15.2564 18.6393C14.5734 19 13.6792 19 11.8908 19H7.10924C5.32084 19 4.42664 19 3.74356 18.6393C3.14271 18.322 2.6542 17.8157 2.34805 17.193C2 16.4851 2 15.5584 2 13.705V5.29504ZM14.0633 4.05617C12.5913 4.90789 11.0991 5.19158 9.76413 5.19158C7.18348 5.19158 5.19109 4.13151 5.06652 4.06338C4.79 3.91269 4.68174 3.55496 4.82391 3.26407C4.96739 2.97251 5.3071 2.8585 5.58232 3.00919C5.67349 3.05677 9.76135 5.1899 13.5233 3.0151C13.5883 2.9781 13.6602 2.95482 13.7345 2.9467C13.8088 2.93857 13.8839 2.94577 13.9554 2.96785C14.0268 2.98994 14.093 3.02643 14.1499 3.07511C14.2068 3.1238 14.2532 3.18363 14.2863 3.25096C14.4363 3.53793 14.3359 3.89827 14.0633 4.05617ZM12.0761 12.8067C12.3865 12.8067 12.6383 13.072 12.6383 13.4002C12.6383 13.7278 12.3865 13.9938 12.0761 13.9938H10.1215V15.5217C10.1215 15.8493 9.86978 16.1153 9.55935 16.1153C9.24891 16.1153 8.99652 15.8493 8.99652 15.5217V13.9938H7.0413C6.73087 13.9938 6.47913 13.7278 6.47913 13.4002C6.47913 13.0727 6.73087 12.8067 7.0413 12.8067H8.99587V11.8062H7.0413C6.73087 11.8062 6.47913 11.5402 6.47913 11.212C6.47913 10.8844 6.73087 10.6184 7.0413 10.6184H8.5087L6.95652 8.15559C6.87351 8.02405 6.84349 7.86568 6.87256 7.71269C6.90164 7.55971 6.98763 7.42359 7.11304 7.33203C7.17434 7.28905 7.24376 7.25915 7.317 7.24416C7.39025 7.22917 7.46578 7.22942 7.53893 7.24489C7.61208 7.26036 7.6813 7.29073 7.74231 7.33411C7.80333 7.37749 7.85485 7.43298 7.89369 7.49714L9.52804 10.0916L11.163 7.49714C11.2019 7.43307 11.2534 7.37767 11.3143 7.33435C11.3753 7.29103 11.4445 7.2607 11.5175 7.24523C11.5906 7.22977 11.666 7.22949 11.7392 7.24442C11.8124 7.25934 11.8818 7.28916 11.943 7.33203C12.2013 7.51352 12.2717 7.88238 12.0996 8.15559L10.5474 10.619H12.0754C12.3859 10.619 12.6376 10.8844 12.6376 11.212C12.6376 11.5395 12.3859 11.8062 12.0754 11.8062H10.1209V12.8067H12.0761Z" fill="#DCDCDC"/>
</svg>
