<svg width="19" height="19" viewBox="0 0 19 19" fill="none" xmlns="http://www.w3.org/2000/svg">
<path d="M9.55219 11.6927C9.63798 11.7476 9.70809 11.8652 9.70809 11.9516C9.70809 12.0458 9.92632 12.5715 10.1914 13.1365C10.4799 13.7407 11.0801 14.5803 11.6882 15.2316C12.2495 15.828 12.9432 16.4715 13.2396 16.6519C13.4494 16.7755 13.3264 16.6966 13.5994 16.9025L13.6108 16.9231C12.323 17.669 10.9719 17.9624 9.49865 18C8.21954 18.0045 6.96833 17.6999 5.8126 17.1559C5.65715 17.0828 5.51094 16.9911 5.3602 16.9087C5.44282 16.8031 5.5729 16.7377 5.68551 16.6676C5.97394 16.4871 6.66776 15.8594 7.23684 15.2709C7.88391 14.5882 8.42183 13.8348 8.72584 13.1835C8.98311 12.6186 9.24038 12.0378 9.29492 11.881C9.34954 11.7242 9.4664 11.6378 9.55219 11.6927V11.6927ZM10.8811 1C11.5768 1.14316 11.7353 1.14991 12.422 1.40267C15.2985 2.46105 17.4424 5.08927 17.903 8.13831C18.1599 9.838 17.9042 11.6013 17.1626 13.152C16.7907 13.9296 16.4249 14.4244 15.8878 15.0795C15.6474 15.0295 15.7867 15.0679 15.4769 14.9413C15.1884 14.8001 14.4946 14.2586 13.9489 13.7407C13.3954 13.2228 12.6861 12.4068 12.3664 11.936C12.0468 11.4573 11.6648 10.7432 11.509 10.3588C11.353 9.96639 11.1347 9.26016 11.0178 8.78946C10.8774 8.20087 10.8073 6.81194 10.8073 4.45782L10.8811 1V1ZM8.00593 1.0465C8.05829 2.16078 8.06382 2.69367 8.06681 3.08503C8.0746 4.12746 8.07523 5.17052 8.06572 6.21285C8.05875 6.97643 8.07695 7.78834 7.95747 8.54554C7.89152 8.96381 7.87567 8.98651 7.77475 9.33849C7.61106 9.85642 7.31483 10.6019 7.12777 10.9864C6.93282 11.3787 6.45732 12.1242 6.06752 12.65C5.67771 13.1679 4.93715 13.9055 4.41482 14.29C3.89248 14.6744 3.3312 15.0355 3.15971 15.0983L3.13145 15.1061C2.61017 14.5193 2.17365 13.8615 1.83476 13.152C0.340233 10.0268 0.885667 6.25617 3.2051 3.68722C4.12548 2.66777 5.94559 1.62963 6.57527 1.40258C7.20495 1.17553 7.89016 0.968815 8.00593 1.0465Z" fill="#DCDCDC"/>
</svg>
