<svg width="188" height="187" xmlns="http://www.w3.org/2000/svg"><path d="M94.518 117.389c.947.602 1.721 1.892 1.721 2.839 0 1.033 2.409 6.799 5.335 12.995 3.185 6.626 9.81 15.834 16.523 22.976 6.196 6.541 13.854 13.598 17.126 15.576 2.316 1.356.958.49 3.972 2.749l.126.225c-14.216 8.181-29.131 11.398-45.394 11.81-14.12.05-27.932-3.29-40.69-9.256-1.716-.802-3.33-1.808-4.994-2.712.912-1.157 2.348-1.875 3.591-2.643 3.184-1.98 10.843-8.864 17.125-15.318 7.143-7.487 13.081-15.749 16.437-22.892 2.84-6.195 5.68-12.564 6.282-14.284.603-1.72 1.893-2.667 2.84-2.065zM109.188.125c7.68 1.57 9.429 1.644 17.01 4.416 31.753 11.607 55.419 40.43 60.504 73.868 2.836 18.64.013 37.978-8.173 54.984-4.106 8.528-8.144 13.954-14.073 21.138-2.653-.548-1.116-.127-4.536-1.515-3.184-1.549-10.843-7.487-16.867-13.167-6.11-5.68-13.94-14.629-17.469-19.792-3.528-5.25-7.745-13.081-9.465-17.297-1.722-4.303-4.132-12.048-5.422-17.21-1.55-6.455-2.324-21.687-2.324-47.504l.815-37.921zm-31.739.51c.578 12.22.639 18.064.672 22.356.086 11.432.093 22.871-.012 34.302-.077 8.374.124 17.278-1.195 25.582-.728 4.587-.903 4.836-2.017 8.696-1.807 5.68-5.077 13.856-7.142 18.072-2.152 4.303-7.401 12.478-11.704 18.244-4.303 5.68-12.478 13.769-18.244 17.986-5.766 4.216-11.962 8.176-13.855 8.864l-.312.086a91.889 91.889 0 01-14.314-21.43C-7.172 99.12-1.151 57.768 24.453 29.595 34.613 18.415 54.705 7.03 61.656 4.54 68.607 2.05 76.171-.217 77.449.635z" fill="#DCDCDC" fill-rule="nonzero"/></svg>