<?xml version="1.0" encoding="UTF-8"?>
<svg width="90px" height="109px" viewBox="0 0 90 109" version="1.1" xmlns="http://www.w3.org/2000/svg" xmlns:xlink="http://www.w3.org/1999/xlink">
    <!-- Generator: Sketch 56.3 (81716) - https://sketch.com -->
    <title>tox</title>
    <desc>Created with Sketch.</desc>
    <g id="页面1" stroke="none" stroke-width="1" fill="none" fill-rule="evenodd">
        <g id="APP-我的订单" transform="translate(-56.000000, -572.000000)" fill="#DCDCDC" fill-rule="nonzero">
            <path d="M127.574,613.851 C127.574,609.166 127.648,603.298 127.541,598.614 C127.494,596.596 127.273,594.538 126.795,592.58 C123.374,578.581 109.823,569.875 95.594,572.45 C82.998,574.729 73.621,585.968 73.621,598.786 L73.621,612.651 L73.621,613.821 C73.146,613.821 72.827,613.82 72.505,613.821 L61.023,613.821 C58.25,613.821 56,616.07 56,618.844 L56,675.719 C56,678.492 58.25,680.742 61.023,680.742 L140.474,680.742 C143.249,680.742 145.498,678.492 145.498,675.719 L145.498,618.844 C145.498,616.07 143.249,613.821 140.474,613.821 L127.574,613.851 Z M108.107,667.118 L93.332,667.118 C91.01,667.118 89.129,665.204 89.129,662.844 C89.129,662.781 89.136,662.717 89.138,662.654 C89.133,662.654 89.132,661.633 89.13,660.613 C89.129,659.484 89.641,656.324 91.191,654.039 C92.832,651.621 95.046,650.049 97.448,649.342 C94.282,648.051 92.052,644.944 92.052,641.317 C92.052,636.528 95.932,632.649 100.719,632.649 C105.508,632.649 109.386,636.528 109.386,641.317 C109.386,645.036 107.042,648.208 103.749,649.437 C106.081,650.19 108.286,651.75 110.022,654.144 C111.643,656.379 112.307,659.487 112.307,660.614 L112.307,662.657 C112.301,662.719 112.307,662.782 112.307,662.846 C112.308,665.204 110.427,667.118 108.107,667.118 L108.107,667.118 Z M117.779,605.104 C116.217,609.715 113.259,613.409 110.169,617.016 C107.783,619.799 104.979,622.141 101.993,624.263 C101.849,624.366 101.695,624.451 101.308,624.69 C103.089,621.614 104.525,618.692 104.941,615.286 C100.707,616.288 96.714,615.85 92.848,614.146 C85.986,611.123 81.885,604.528 82.585,597.083 C83.158,590.956 86.525,586.54 91.906,583.688 C100.573,579.095 111.64,582.033 116.595,590.204 C119.482,594.962 119.527,599.945 117.779,605.104 L117.779,605.104 Z" id="tox"></path>
        </g>
    </g>
</svg>