<svg width="645" height="667" xmlns="http://www.w3.org/2000/svg"><path d="M302.516 0C95.718 0 6.456 184.072 6.456 184.072l26.275 18.81S-.334 265.76.58 346.412c0 164.64 131.058 319.732 323.986 319.732 175.268 0 320.05-142.657 320.05-319.327C644.617 116.399 465.935 0 302.517 0zm1.794 56.168c161.571 0 286.946 130.2 286.946 281.563 0 160.455-120.68 272.043-261.307 272.043-103.498 0-196.863-78.817-196.863-186.88 0-62.415 33.174-105.928 70.348-129.119l5.44 5.903c-10.173 7.96-39.181 54.557-39.181 100.356 0 85.022 66.674 143.906 150.678 143.906 107.006 0 178.371-91.267 178.371-197.238 0-123.296-108.833-227.971-239.806-227.971-72.442 0-133.926 31.154-169.256 58.657l-5.498-4.977C130.403 101.144 210.446 56.168 304.31 56.168zm-48.21 117.95c83.58 0 165.18 55.293 185.548 133.778l-7.408 2.807c-36.571-48.294-96.496-88.317-167.26-88.317-130.212 0-198.596 118.323-188.557 217.147l-7.668 2.808s-14.382-31.734-14.382-69.364c0-108.97 89.488-198.86 199.727-198.86zm55.242 136.759c39.57 0 71.216 32.072 71.216 70.145 0 31.506-20.228 50.178-20.228 50.178l23.96 16.755s-23.759 37.3-72.257 37.3c-46.391 0-87.42-37.444-87.42-87.797 0-51.884 44.629-86.582 84.73-86.582z" fill="#DCDCDC" fill-rule="nonzero"/></svg>