<?xml version="1.0" encoding="UTF-8"?>
<svg width="645px" height="667px" viewBox="0 0 645 667" version="1.1" xmlns="http://www.w3.org/2000/svg" xmlns:xlink="http://www.w3.org/1999/xlink">
    <!-- Generator: Sketch 53.2 (72643) - https://sketchapp.com -->
    <title>Uplay</title>
    <desc>Created with Sketch.</desc>
    <g id="Page-1" stroke="none" stroke-width="1" fill="none" fill-rule="evenodd">
        <path d="M302.51619,0.0001 C95.71804,0.0001 6.45544,184.0725 6.45544,184.0725 L32.73079,202.8816 C32.73079,202.8816 -0.33386,265.761 0.58113,346.4124 C0.58113,511.0512 131.63911,666.1438 324.56662,666.1438 C499.83462,666.1438 644.61662,523.4874 644.61662,346.817 C644.61662,116.3989 465.93542,0.0001 302.51619,0.0001 Z M304.31027,56.1677 C465.88142,56.1677 591.25572,186.3674 591.25572,337.7307 C591.25572,498.1859 470.57652,609.7735 329.94903,609.7735 C226.45146,609.7735 133.0864,530.9566 133.0864,422.8943 C133.0864,360.4795 166.26011,316.9656 203.4338,293.775 L208.87405,299.6781 C198.70055,307.6383 169.69252,354.2347 169.69252,400.0338 C169.69252,485.056 236.36721,543.9402 320.37068,543.9402 C427.37682,543.9402 498.74212,452.6727 498.74212,346.7019 C498.74212,223.4056 389.90877,118.731 258.93612,118.731 C186.49438,118.731 125.00953,149.8854 89.67999,177.3876 L84.18187,172.4107 C130.40335,101.1442 210.44603,56.1677 304.31027,56.1677 L304.31027,56.1677 Z M256.10021,174.1176 C339.67962,174.1176 421.28022,229.4107 441.64832,307.8964 L434.24022,310.7032 C397.66862,262.4089 337.74422,222.3857 266.98078,222.3857 C136.76769,222.3857 68.38402,340.7091 78.42327,439.5334 L70.75479,442.3406 C70.75479,442.3406 56.37276,410.6066 56.37276,372.9769 C56.37276,264.0064 145.86127,174.1176 256.10021,174.1176 L256.10021,174.1176 Z M311.34211,310.8765 C350.91285,310.8765 382.55764,342.949 382.55764,381.0216 C382.55764,412.5284 362.33021,431.1996 362.33021,431.1996 L386.2905,447.9545 C386.2905,447.9545 362.53099,485.2554 314.03335,485.2554 C267.6416,485.2554 226.6128,447.8109 226.6128,397.4583 C226.6128,345.5742 271.24176,310.8765 311.34211,310.8765 L311.34211,310.8765 Z" id="Uplay" fill="#DCDCDC" fill-rule="nonzero"></path>
    </g>
</svg>