<svg width="19" height="19" viewBox="0 0 19 19" fill="none" xmlns="http://www.w3.org/2000/svg">
<path d="M8.97017 1C3.51168 1 1.15559 5.69752 1.15559 5.69752L1.84913 6.17755C1.84913 6.17755 0.976366 7.7822 1.00049 9.84044C1.00049 14.0421 4.4598 18 9.55219 18C14.1784 18 18 14.3594 18 9.85077C18 3.9705 13.2837 1 8.9702 1H8.97017ZM9.01753 2.43341C13.2822 2.43341 16.5915 5.75611 16.5915 9.6189C16.5915 13.7137 13.4062 16.5614 9.69428 16.5614C6.96242 16.5614 4.49802 14.55 4.49802 11.7923C4.49802 10.1994 5.37366 9.08897 6.35488 8.49714L6.49847 8.64779C6.22995 8.85092 5.46428 10.0401 5.46428 11.2089C5.46428 13.3786 7.22415 14.8814 9.44146 14.8814C12.2659 14.8814 14.1496 12.5522 14.1496 9.84784C14.1496 6.70132 11.2769 4.03002 7.81987 4.03002C5.90774 4.03002 4.28486 4.82507 3.35231 5.52694L3.20719 5.39993C4.42721 3.5812 6.53996 2.43341 9.01753 2.43341ZM7.74501 5.44349C9.95113 5.44349 12.105 6.85457 12.6426 8.85751L12.4471 8.92914C11.4818 7.69668 9.90003 6.67529 8.03219 6.67529C4.59521 6.67529 2.7902 9.6949 3.05518 12.2169L2.85278 12.2885C2.85278 12.2885 2.47316 11.4787 2.47316 10.5184C2.47316 7.73746 4.83522 5.44347 7.74501 5.44347V5.44349ZM9.20314 8.93358C10.2476 8.93358 11.0829 9.75206 11.0829 10.7237C11.0829 11.5277 10.549 12.0042 10.549 12.0042L11.1814 12.4318C11.1814 12.4318 10.5543 13.3837 9.27417 13.3837C8.04967 13.3837 6.96669 12.4281 6.96669 11.1431C6.96669 9.81905 8.14469 8.93356 9.20317 8.93356L9.20314 8.93358Z" fill="#DCDCDC"/>
</svg>
