<svg class="icon" viewBox="0 0 1024 1024" xmlns="http://www.w3.org/2000/svg" width="200" height="200"><defs><style/></defs><path d="M735.877 64.242c-59.81 0-116.027 23.289-158.304 65.575l-167.91 167.907c-42.294 42.251-65.573 98.497-65.573 158.274 0 76.547 38.6 146.987 103.27 188.483 9.803 6.28 21.22 7.991 31.76 5.625 10.441-2.297 20.001-8.573 26.235-18.313 6.259-9.775 7.982-21.126 5.66-31.62-2.298-10.493-8.584-20.132-18.34-26.373-40.468-25.96-64.63-69.995-64.63-117.802 0-37.384 14.55-72.5 40.983-98.91l167.917-167.906c26.415-26.444 61.561-40.985 98.933-40.985 77.148 0 139.925 62.76 139.925 139.891 0 37.382-14.56 72.5-40.982 98.94l-79.651 79.67c-8.393 8.402-12.484 19.444-12.295 30.455.19 10.493 4.286 20.883 12.295 28.91 8.196 8.196 18.94 12.278 29.683 12.278 10.752 0 21.494-4.082 29.674-12.278l79.65-79.668c42.295-42.254 65.58-98.496 65.58-158.307 0-123.429-100.433-223.846-223.88-223.846zm-159.25 315.275c-9.799-6.309-21.22-8.024-31.755-5.656-10.435 2.295-20.002 8.607-26.237 18.313-6.248 9.774-7.981 21.125-5.65 31.62 2.29 10.494 8.574 20.13 18.33 26.372 40.478 25.962 64.639 69.995 64.639 117.805 0 37.38-14.558 72.498-40.985 98.94l-167.915 167.91c-26.417 26.407-61.56 40.982-98.934 40.982-77.148 0-139.923-62.795-139.923-139.922 0-37.383 14.55-72.501 40.982-98.941l79.643-79.669c8.393-8.368 12.49-19.446 12.301-30.454-.188-10.459-4.295-20.885-12.301-28.91-8.198-8.198-18.94-12.278-29.676-12.278-10.76 0-21.492 4.08-29.682 12.278l-79.65 79.667C87.52 619.826 64.242 676.07 64.242 735.882c0 123.425 100.433 223.877 223.878 223.877 59.81 0 116.021-23.285 158.297-65.606l167.909-167.91c42.295-42.25 65.58-98.497 65.58-158.27.002-76.55-38.606-146.991-103.279-188.456z" fill="#dcdcdc"/></svg>