<svg width="266" height="355" viewBox="0 0 266 355" fill="none" xmlns="http://www.w3.org/2000/svg">
<path fill-rule="evenodd" clip-rule="evenodd" d="M14.9502 305.349C16.4353 306.277 17.9866 307.171 19.3326 307.911C21.0544 307.192 22.3584 308.157 23.5001 309.001L23.5015 309.002L23.51 309.009C23.6593 309.119 23.8057 309.227 23.95 309.329L24.0149 309.375L24.2731 309.558C25.8802 310.696 27.3989 311.772 29.48 311.716C30.1777 313.169 31.5035 313.522 32.8301 313.876C33.5191 314.06 34.2084 314.244 34.81 314.582C35.8152 314.967 36.7998 315.404 37.76 315.89C41.2024 318.311 45.1011 320.01 49.22 320.883C49.5121 320.939 49.816 320.991 50.127 321.044L50.1304 321.045C52.3638 321.425 54.9654 321.869 56.22 324.418C56.2786 324.541 56.498 324.585 56.7847 324.641C56.9386 324.671 57.1119 324.705 57.29 324.757C60.9265 324.111 62.7747 321.513 64.7719 318.706C65.6745 317.437 66.6076 316.125 67.75 314.931C65.33 314.822 63.75 314.402 65.75 312.435C65.159 311.302 65.7067 310.392 66.2205 309.538C66.5761 308.948 66.9155 308.384 66.85 307.792C66.6588 306.141 67.6285 305.55 68.6437 304.932C69.2739 304.548 69.9217 304.153 70.32 303.488L68 302.11C67.2302 302.693 66.8116 303.681 66.3669 304.73C65.7372 306.216 65.0553 307.826 63.25 308.581C63.1961 308.469 63.1376 308.372 63.0886 308.291C63.0103 308.161 62.9554 308.07 62.98 308.021C63.9007 306.305 64.6881 304.531 65.4758 302.757C66.8785 299.598 68.282 296.438 70.44 293.592C70.6083 293.372 70.7808 293.151 70.9549 292.928L70.9558 292.927C72.664 290.737 74.5246 288.352 74.08 285.144C74.982 284.409 74.8867 283.263 74.8063 282.297C74.7459 281.57 74.6938 280.945 75.08 280.67C76.4912 279.676 76.7126 278.299 76.9328 276.929C77.0887 275.959 77.244 274.993 77.82 274.17C78.05 273.838 78.1607 273.308 78.2792 272.74C78.4287 272.023 78.5906 271.247 79.02 270.735C80.5071 268.964 81.46 266.893 82.4043 264.84C83.2127 263.083 84.0147 261.339 85.14 259.81C86.4409 257.87 87.2979 255.668 87.65 253.359C87.6947 253.149 87.7381 252.939 87.7814 252.73L87.7818 252.728C88.2519 250.454 88.7093 248.242 90.65 246.03C90.123 246.03 89.661 246.004 89.2507 245.981L89.2486 245.981C88.4378 245.935 87.8277 245.901 87.31 246.1C86.7706 246.307 86.384 246.772 85.992 247.244C85.8171 247.455 85.6412 247.666 85.45 247.857L83.9 246.08L86.9 241.087L86.13 240.298C85.2599 241.006 84.4576 241.808 83.5379 242.728C82.6925 243.574 81.7477 244.519 80.56 245.58C81.5175 242.553 83.007 240.186 84.4293 237.926C85.6809 235.938 86.8805 234.031 87.62 231.83L80.62 236.593C85.62 229.493 89.85 224.98 95.06 221.015C95.031 221.641 95.0467 222.267 95.0622 222.881C95.0947 224.169 95.1259 225.406 94.74 226.488C93.7977 229.117 93.9147 231.767 94.0313 234.408C94.1015 236 94.1717 237.589 94.01 239.17C95.3862 240.463 95.2192 242.03 95.0543 243.576C94.994 244.142 94.9339 244.705 94.95 245.251C94.9795 246.2 95.2655 247.089 95.552 247.98C95.9467 249.207 96.3423 250.437 96.07 251.832C95.7241 253.603 95.9053 253.858 97.3817 255.936L97.3846 255.94C97.5718 256.203 97.7798 256.496 98.01 256.824C97.8954 255.764 97.9156 254.694 98.07 253.639C98.2046 253.182 98.6109 252.806 99.0144 252.433C99.2107 252.252 99.4064 252.071 99.57 251.881C101.076 253.504 101.414 252.466 101.733 251.483C101.816 251.227 101.899 250.974 102 250.773C103.485 247.885 105.242 245.155 106.999 242.424C109.028 239.271 111.057 236.116 112.67 232.719C112.766 232.521 112.969 232.371 113.38 232.067C113.654 231.863 114.021 231.591 114.51 231.191C113.891 232.717 113.365 234.116 112.87 235.432C111.998 237.749 111.224 239.808 110.21 241.846C108.663 244.853 107.307 247.955 106.15 251.133C105.35 253.423 104.404 255.664 103.459 257.905L103.458 257.906L103.455 257.914L103.453 257.918L103.453 257.919C103.065 258.838 102.677 259.757 102.3 260.679C103.367 260.482 104.321 259.89 104.97 259.021C105.307 258.541 105.537 257.984 105.767 257.428C106.015 256.83 106.261 256.233 106.64 255.736C109.513 252.027 112.005 248.039 114.08 243.833C115.76 240.438 118.01 237.312 121.84 235.844C122.694 235.478 123.434 234.888 123.98 234.137C124.698 233.197 125.282 232.181 126.021 230.895L126.021 230.894L126.022 230.893C126.312 230.388 126.625 229.842 126.98 229.244C127.094 230.279 127.094 231.324 126.98 232.359C126.81 232.933 126.641 233.508 126.472 234.082C125.378 237.807 124.281 241.536 122.93 245.161C122.557 246.144 121.721 246.944 120.853 247.773C120.487 248.123 120.115 248.479 119.77 248.856C119.907 249.027 120.045 249.178 120.172 249.316C120.444 249.613 120.666 249.855 120.72 250.134C120.772 250.401 120.603 250.613 120.433 250.827C120.341 250.942 120.249 251.057 120.19 251.182C119.912 251.799 119.617 252.411 119.323 253.023C117.767 256.26 116.21 259.501 117 263.355C117.07 263.675 117.15 264.174 117 264.354C115.806 265.421 115.949 266.719 116.087 267.983C116.181 268.836 116.273 269.674 115.95 270.415C115.114 272.512 114.812 274.783 115.07 277.026C115.121 277.823 115.319 278.616 115.516 279.407C115.741 280.31 115.965 281.209 115.97 282.108C115.826 284.816 116.402 287.514 117.64 289.927C117.835 290.187 117.975 290.484 118.051 290.8C118.127 291.116 118.137 291.444 118.081 291.764C118.025 292.085 117.903 292.39 117.724 292.661C117.545 292.932 117.312 293.164 117.04 293.342C119.715 294.097 119.769 294.149 121.692 295.979L121.88 296.158C122.427 296.679 122.936 297.209 123.436 297.729C124.862 299.215 126.212 300.621 128.16 301.501C129.265 302.099 130.313 302.798 131.29 303.588C132.632 304.498 133.346 305.873 134.052 307.233C134.593 308.275 135.129 309.309 135.94 310.118C139.904 314.26 144.158 318.114 148.67 321.652C148.82 321.764 148.972 321.876 149.125 321.988C149.256 322.084 149.388 322.18 149.521 322.277L149.717 322.42L149.729 322.428L149.731 322.43C151.7 323.86 153.722 325.328 154.67 327.204C155.822 329.459 157.698 330.958 159.557 332.443C161.411 333.924 163.247 335.391 164.33 337.579C165.945 337.799 166.881 338.907 167.806 340.002C168.142 340.398 168.476 340.793 168.84 341.144C169.86 342.065 170.921 342.938 172.02 343.759C172.013 343.76 172.007 343.761 172 343.762C172.023 343.773 172.047 343.785 172.073 343.799C172.458 344.087 172.849 344.368 173.243 344.643C174.193 345.415 175.35 346.476 176 347.095C181.667 347.73 194.2 349 199 349C203.8 349 207.333 347.73 208.5 347.095L212.06 343.966C216.086 341.767 219.918 339.385 223.25 336.011C217.41 335.372 216.93 334.544 219.42 329.81C220.386 328.036 221.444 326.312 222.59 324.648C223.59 323.08 224.21 322.7 226.28 321.702C227.918 323.139 227.057 324.079 226.168 325.051C225.487 325.795 224.79 326.557 225.18 327.573C226.483 326.818 227.507 325.662 228.1 324.278C229.123 321.677 230.37 319.164 231.618 316.649C232.287 315.303 232.955 313.956 233.59 312.595C233.902 311.864 234.032 311.07 233.97 310.278C233.898 309.757 233.93 309.226 234.065 308.717C234.199 308.208 234.433 307.731 234.752 307.312C235.072 306.894 235.471 306.542 235.928 306.279C236.384 306.015 236.887 305.843 237.41 305.775C237.454 305.764 237.497 305.755 237.538 305.746L237.619 305.728L237.676 305.716C238.321 305.577 238.707 305.495 239.07 304.576C241.155 299.021 244.142 293.845 247.91 289.258C248.549 288.389 248.899 287.341 248.91 286.262C248.91 284.074 249.97 282.434 251.188 280.549C251.619 279.883 252.07 279.186 252.5 278.423V276.3C249.523 278.191 247.972 281.128 247.1 284.285C245.889 288.643 243.582 292.387 241.273 296.134L241.269 296.141L241.267 296.144L241.266 296.146C240.831 296.851 240.397 297.556 239.97 298.265C239.887 298.38 239.72 298.429 239.423 298.517L239.422 298.517C239.253 298.568 239.041 298.63 238.78 298.725C239.835 295.753 241.245 292.92 242.98 290.287C243.093 290.106 243.246 289.924 243.398 289.744C243.69 289.397 243.98 289.054 243.98 288.719C243.922 286.152 245.136 284.076 246.348 282.003C247.023 280.85 247.696 279.698 248.15 278.464C248.536 277.426 249.314 276.269 250.546 275.885L250.611 276.306L250.752 275.829C251.261 275.71 251.843 275.721 252.5 275.918V269.903L254.915 261.718L260 220.973L252.5 202.682V201.84C250.776 196.813 250.52 191.804 251.74 187.723C251.978 187.127 252.063 186.482 251.99 185.846C251.758 184.867 251.449 183.903 251.071 182.723L251.068 182.713C250.81 181.908 250.52 181.003 250.2 179.924C250.132 182.605 250.083 184.336 250.035 186.044L250.03 186.225C250.06 187.816 249.831 189.401 249.35 190.918C249.208 190.482 249.104 190.035 249.04 189.58C248.931 188.025 248.883 186.449 248.835 184.872L248.835 184.869V184.863C248.729 181.383 248.623 177.889 247.86 174.552C247.163 171.506 247.164 168.444 247.165 165.386C247.165 163.572 247.165 161.76 247.02 159.953C247.008 158.846 246.812 157.749 246.44 156.707C245.927 155.42 246.016 153.859 246.102 152.352L246.102 152.35C246.12 152.035 246.138 151.722 246.15 151.415C246.15 151.026 246.361 150.651 246.574 150.273C246.754 149.954 246.935 149.632 246.99 149.298C247.073 148.214 247.073 147.126 246.99 146.042C246.786 146.317 246.579 146.574 246.379 146.821L246.377 146.824C245.597 147.79 244.926 148.62 244.99 149.867C245.103 152.221 244.76 154.546 244.418 156.872C244.001 159.706 243.584 162.54 243.99 165.425C243.99 165.496 243.909 165.581 243.739 165.758C243.649 165.853 243.533 165.974 243.39 166.134C243.334 165.796 243.276 165.495 243.221 165.217L243.221 165.215C243.13 164.747 243.051 164.344 243.02 163.937C242.917 162.547 242.958 161.147 242.998 159.746V159.743C243.08 156.927 243.162 154.105 242.08 151.345C241.794 150.603 242.062 149.607 242.311 148.68C242.367 148.472 242.422 148.267 242.47 148.07L242.495 147.963L242.531 147.813L242.614 147.468C243.254 144.824 243.887 142.207 241.47 139.951C241.395 138.733 241.323 137.515 241.25 136.296L241.249 136.281C241.177 135.068 241.105 133.855 241.03 132.642C242.272 131.467 242.249 130.015 242.224 128.52C242.205 127.294 242.184 126.039 242.86 124.883C243.656 123.512 243.722 121.703 243.792 119.794C243.824 118.921 243.857 118.027 243.96 117.144L239.96 119.64C240.067 120.114 240.273 120.601 240.483 121.096L240.484 121.098C241.103 122.556 241.756 124.097 240.01 125.632C240.26 127.956 239.754 130.169 239.244 132.398L239.243 132.403C239.182 132.672 239.12 132.941 239.06 133.211C238.842 134.186 238.782 135.219 238.722 136.239C238.628 137.841 238.536 139.411 237.84 140.68C237.12 141.979 236.991 143.312 236.861 144.641C236.766 145.621 236.671 146.599 236.34 147.56C235.832 149.037 235.617 150.832 235.398 152.652C235.281 153.625 235.164 154.606 235 155.549C234.89 156.176 234.738 156.789 234.587 157.404C234.366 158.297 234.145 159.192 234.05 160.132C234.009 161.756 233.879 163.376 233.66 164.985C233.497 164.169 233.164 163.381 232.831 162.595C232.087 160.834 231.348 159.084 232.53 157.047C232.144 155.384 232.422 153.73 232.705 152.043C233.038 150.061 233.378 148.034 232.66 145.893C232.44 146.139 232.201 146.359 231.975 146.566L231.974 146.568C231.523 146.982 231.13 147.344 231.07 147.75C230.518 150.912 230.184 154.109 230.07 157.316C229.987 159.544 229.621 161.752 228.98 163.887C227.98 167.642 226.98 171.386 225.98 175.121C225.751 175.683 225.455 176.216 225.1 176.709L226.83 177.368C226.839 177.413 226.85 177.459 226.864 177.507L226.866 177.515C226.872 177.536 226.878 177.557 226.884 177.577L226.892 177.602L226.913 177.669C226.984 177.898 227.056 178.128 226.98 178.286C226.435 179.449 225.876 180.605 225.317 181.761C223.999 184.488 222.681 187.214 221.55 190.02C220.732 191.697 220.236 193.512 220.09 195.372C220.09 198.797 218.5 201.364 216.58 203.95C214.573 206.61 213.663 209.852 212.777 213.006C212.665 213.404 212.553 213.801 212.44 214.195C211.66 216.891 210.54 218.938 208.15 220.346C207.861 220.546 207.607 220.792 207.4 221.075C207.237 221.869 207.093 222.63 206.954 223.364C206.648 224.975 206.365 226.465 205.96 227.926C205.867 228.255 205.704 228.568 205.543 228.877C205.081 229.766 204.639 230.615 205.96 231.69C206.43 232.07 206.38 233.957 205.87 234.486C205.144 235.231 204.811 236.224 204.479 237.216C203.991 238.67 203.504 240.122 201.78 240.787C201.513 240.887 201.384 241.334 201.254 241.786C201.189 242.012 201.123 242.239 201.04 242.425C200.739 243.096 200.432 243.762 200.119 244.441L200.118 244.443L199.87 244.981C196.75 243.072 197.482 240.56 198.16 238.23C198.263 237.879 198.364 237.532 198.45 237.192C198.628 236.802 198.721 236.378 198.721 235.949C198.721 235.52 198.628 235.096 198.45 234.706C198.032 233.834 197.859 232.865 197.951 231.903C198.042 230.94 198.395 230.021 198.97 229.244C199.8 228.025 200.59 226.398 199.97 224.74C199.86 224.445 199.494 224.244 199.117 224.037C198.946 223.943 198.773 223.848 198.62 223.742C197.683 227.074 196.745 230.143 195.808 233.213L195.62 233.827C195.321 234.867 195.017 235.905 194.712 236.943L194.711 236.945L194.71 236.953C193.751 240.221 192.791 243.492 192.01 246.809C190.87 251.612 189.6 256.095 185.81 259.79C183.433 262.108 181.421 264.796 179.472 267.4L179.469 267.403C178.606 268.556 177.755 269.693 176.89 270.774C176.482 270.335 176.11 269.857 175.746 269.39C174.961 268.382 174.218 267.426 173.24 267.03C170.89 266.031 170.24 264.204 170.06 262.267C169.911 260.526 169.211 258.879 168.06 257.563C167.269 256.769 166.667 255.807 166.297 254.75C165.926 253.692 165.798 252.566 165.92 251.452C165.945 251.12 165.945 250.786 165.92 250.453C165.92 247.258 165.92 244.222 167.79 241.217C168.62 239.892 168.821 238.283 169.026 236.642C169.196 235.277 169.369 233.89 169.91 232.629C169.991 232.441 169.999 232.19 170.007 231.951C170.017 231.656 170.026 231.381 170.17 231.271C171.664 230.178 172.296 228.6 172.922 227.04C173.284 226.135 173.645 225.236 174.17 224.441C175.576 222.206 176.858 219.896 178.01 217.52C178.124 217.311 178.223 217.066 178.328 216.809C178.721 215.845 179.182 214.716 180.69 214.645C181.12 214.645 181.87 213.716 181.86 213.227C181.86 211.495 182.424 209.86 182.988 208.221C183.726 206.08 184.466 203.934 183.95 201.563C183.747 201.013 183.736 200.41 183.917 199.853C184.099 199.295 184.462 198.814 184.95 198.488C184.516 197.738 184.928 197.01 185.34 196.282C185.878 195.334 186.415 194.385 185.08 193.385C185.432 192.834 185.777 192.278 186.122 191.723L186.123 191.721L186.127 191.715C186.936 190.412 187.744 189.11 188.64 187.873C189.92 186.105 191.41 184.338 192.89 182.64C193.12 182.37 193.496 182.233 194.024 182.039L194.025 182.039C194.278 181.946 194.566 181.841 194.89 181.702C195.195 184.389 193.998 186.333 192.695 188.449C191.906 189.73 191.078 191.075 190.52 192.686C192.768 190.989 194.051 188.78 195.285 186.654C196.725 184.175 198.098 181.81 200.86 180.503V177.508C204.439 176.722 206.576 174.285 208.696 171.866C209.703 170.717 210.707 169.572 211.86 168.61C213.728 167.047 214.759 164.896 215.789 162.747C216.187 161.917 216.584 161.088 217.03 160.292C217.949 158.832 218.951 157.425 220.03 156.078C220.221 154.529 219.867 152.937 219.498 151.28C219.154 149.733 218.797 148.13 218.86 146.452C218.949 144.292 218.579 142.114 218.17 139.705C217.981 138.595 217.784 137.435 217.62 136.206C214.862 133.239 211.559 130.829 207.89 129.107C203.47 127.04 200.7 123.205 198.08 119.47C195.4 115.83 193.634 111.601 192.93 107.138C192.802 106.138 192.351 105.207 191.646 104.486C190.94 103.765 190.018 103.294 189.02 103.144C187.767 102.907 186.537 102.583 185.306 102.258C183.049 101.662 180.786 101.065 178.36 101.007C173.55 100.897 170.47 101.286 165.9 103.903L167.19 106.489C162.495 108.699 158.174 111.43 153.882 114.143L153.879 114.144L153.878 114.145L153.877 114.146C151.598 115.586 149.326 117.022 147.01 118.372C145.267 119.399 143.621 120.587 141.978 121.771C139.295 123.707 136.621 125.636 133.55 126.85C130.241 128.145 127.061 129.747 124.05 131.633C122.528 132.585 120.983 133.5 119.437 134.414L119.435 134.415C116.411 136.204 113.389 137.993 110.55 140.061C108.63 141.459 106.77 142.368 104.18 141.928C104.371 141.275 104.651 140.65 105.01 140.071C105.203 139.843 105.5 139.678 105.792 139.517C106.151 139.319 106.502 139.126 106.64 138.823C107.608 136.91 108.376 134.902 108.93 132.831C110.53 125.701 113.84 121.467 120.28 118.082C124.677 115.839 129.193 113.839 133.81 112.091C134.397 111.876 134.94 111.554 135.41 111.142C137.046 109.612 139.055 108.776 141.057 107.943C142.348 107.406 143.636 106.87 144.82 106.149C146.126 106.566 146.868 105.793 147.607 105.022C148.233 104.37 148.858 103.719 149.82 103.793V101.826L131.5 110.263C132.522 108.043 134.393 107.188 136.249 106.339C136.972 106.009 137.693 105.679 138.36 105.271C140.07 104.254 141.955 103.543 143.844 102.831C144.85 102.452 145.857 102.072 146.84 101.646C149.67 100.418 152.18 99.2492 154.84 97.981C156.17 97.3471 157.47 96.6655 158.769 95.9841L158.77 95.9836C160.07 95.3022 161.37 94.6207 162.7 93.9867C164.346 93.2019 166.122 92.4592 167.905 91.7136L167.907 91.7131L167.92 91.7073C169.014 91.2501 170.11 90.7918 171.18 90.3219C173.273 89.4031 175.189 88.5393 177.309 87.5836L177.317 87.5801C178.051 87.2489 178.811 86.9067 179.61 86.5473L177.25 85.7185C177.277 85.6453 177.296 85.5565 177.314 85.4677C177.352 85.2902 177.39 85.1127 177.49 85.0594C178.655 84.4509 179.83 83.8568 181.002 83.2637L181.016 83.2571L181.026 83.2521L181.029 83.2502C183.157 82.174 185.283 81.0987 187.36 79.9368C187.94 79.6106 188.378 79.0272 188.904 78.3255C189.167 77.9744 189.453 77.5936 189.79 77.2006C191.438 76.9464 193.049 76.4973 194.59 75.8625C199.745 73.0832 205.092 70.6739 210.59 68.6528C214.36 67.3547 218.45 65.6571 221.02 62.0123C222.296 62.1281 223.573 61.7962 224.63 61.0737C226.533 59.7922 228.606 58.7838 230.79 58.0779C233.19 57.1493 234.08 56.3504 235.7 52.5558L234.133 53.4866L234.131 53.4879L234.13 53.4884L234.125 53.4911C230.664 55.5472 227.443 57.4605 224.2 59.3361C223.495 59.6618 222.758 59.9128 222 60.0851C221.55 58.2776 220.16 58.9167 219.32 59.3361C216.234 60.8596 212.952 61.7783 209.673 62.6963C207.299 63.3608 204.927 64.0251 202.63 64.9182C202.419 65.002 202.193 65.0384 201.966 65.0245C201.74 65.0107 201.519 64.9471 201.32 64.8383C200.053 63.4847 198.949 64.0621 197.824 64.6503L197.82 64.652C197.552 64.7922 197.283 64.9329 197.01 65.048C196.882 65.1054 196.689 65.0119 196.388 64.8665C196.219 64.7844 196.015 64.6859 195.77 64.5886C198.096 62.8604 200.76 62.0455 203.386 61.2417C205.92 60.4666 208.419 59.7017 210.55 58.1378C210.849 58.3051 210.938 58.7094 211.027 59.114C211.182 59.8204 211.338 60.5276 212.61 59.9752L219.85 56.7698L220.13 54.3532C223.69 53.834 227.23 53.2248 230.49 50.2091H219.24C220.156 49.6182 221.161 49.234 222.155 48.8542C224.017 48.1432 225.839 47.4472 226.96 45.436C226.317 45.1908 225.632 45.0777 224.945 45.1035C224.257 45.1292 223.582 45.2932 222.96 45.5857C221.719 46.063 220.34 46.0343 219.12 45.5059L221.12 44.6671C220.944 44.5809 220.787 44.4853 220.646 44.399C220.377 44.2352 220.163 44.1051 219.98 44.1378C218.648 44.5643 217.278 44.8652 215.89 45.0365C214.485 45.1646 213.106 45.5011 211.8 46.0351C210.511 46.402 209.192 46.6279 207.901 46.8491C207.189 46.971 206.486 47.0915 205.8 47.2334C205.076 47.3821 204.339 47.4983 203.594 47.6158C200.787 48.0586 197.862 48.5199 195.08 50.8083C195.984 49.2591 197.276 47.9719 198.83 47.0736C201.905 46.0766 204.991 45.0795 208.076 44.0825L208.09 44.0779C209.074 43.7597 210.059 43.4467 211.043 43.1338L211.044 43.1334L211.054 43.1304C213.154 42.4624 215.252 41.7954 217.34 41.0822C218.677 40.6161 219.994 40.0902 221.312 39.564C222.281 39.177 223.251 38.7898 224.23 38.426C227.12 37.3475 228.1 37.2976 230.7 37.9466C230.734 37.9093 230.778 37.871 230.822 37.8329C230.919 37.7488 231.014 37.6659 231 37.5971C230.988 37.5352 230.906 37.4619 230.82 37.3841C230.767 37.3364 230.712 37.287 230.67 37.2376L229.98 36.3789L247.28 32.115C248.677 32.784 249.527 32.032 250.416 31.2445C251.081 30.6567 251.767 30.0492 252.72 29.998C253.075 31.1992 253.093 32.3678 253.065 33.5235L256.03 32.0408L256.03 31.1654L252.98 27.0059V27.7013C252.293 27.8685 251.616 28.099 250.936 28.3303C249.262 28.9 247.575 29.4744 245.69 29.1192C245.18 29.0234 244.645 28.9653 244.111 28.9072C242.862 28.7716 241.614 28.6361 240.69 28.0208C239.264 27.091 237.88 27.1165 236.455 27.1428C235.661 27.1574 234.854 27.1723 234.02 27.0222C233.95 29.269 234.88 30.0679 236.63 30.0978C237.963 30.0172 239.3 30.0372 240.63 30.1578C241.546 30.453 242.412 30.8839 243.2 31.4359C241.596 31.8932 240.018 32.4029 238.454 32.9081C234.862 34.0686 231.342 35.2056 227.74 35.6299C226.24 35.807 224.807 36.3334 223.364 36.8637C220.739 37.8284 218.078 38.806 214.91 37.717L216 34.881C215.186 35.3516 214.329 35.7429 213.44 36.0493C212.526 36.144 211.604 36.144 210.69 36.0493L211.95 37.5173C211.886 37.5686 211.822 37.6327 211.756 37.6981C211.605 37.8487 211.447 38.0056 211.28 38.0265C210.674 38.0931 210.058 38.0918 209.437 38.0905C208.01 38.0874 206.555 38.0843 205.12 38.9053C204.557 39.2225 203.6 38.8529 202.47 38.4162C201.892 38.1931 201.269 37.9525 200.63 37.7769C201.009 37.5109 201.331 37.2425 201.621 36.9999C202.16 36.5506 202.593 36.1901 203.08 36.0993C203.734 35.9701 204.388 35.8435 205.043 35.7168C210.061 34.7466 215.095 33.7731 219.73 31.6356C220.723 31.1722 221.71 31.1949 222.696 31.2175C223.835 31.2436 224.973 31.2697 226.12 30.5472L225.38 28.8197L231.89 22.8282C231.369 20.6068 229.77 20.3716 228.169 20.1362C227.187 19.9917 226.204 19.8472 225.47 19.2433C225.317 19.1108 224.593 19.6596 223.719 20.321L223.718 20.3216C223.275 20.6569 222.794 21.0213 222.33 21.3403L229.17 23.3375C225.62 27.2719 221.76 29.8582 215.97 28.8396L217.97 26.3931C217.529 26.1831 217.035 26.1084 216.543 26.034C215.609 25.8925 214.68 25.7521 214.13 24.6856C213.699 23.8255 213.242 24.2783 212.8 24.7165C212.77 24.7463 212.74 24.7761 212.71 24.8054C212.64 24.8753 212.05 24.6256 212.06 24.5557C212.06 24.0964 212.14 23.3275 212.38 23.2476C218.469 21.0467 224.403 18.4378 230.14 15.4387C230.218 15.401 230.301 15.3515 230.385 15.3012C230.59 15.1784 230.803 15.0509 230.98 15.0793C233.686 15.5956 235.84 14.3783 237.972 13.1736C238.849 12.6776 239.723 12.1838 240.63 11.8139C241.017 11.6491 241.395 11.4747 241.77 11.3017C243.236 10.6257 244.656 9.97063 246.4 9.98653C247.027 9.98653 247.65 9.61775 248.389 9.17953C248.759 8.9608 249.157 8.72476 249.6 8.50865C249.314 8.16487 249.078 7.8211 248.867 7.5136C248.465 6.92785 248.153 6.47368 247.76 6.40165C246.353 6.00652 244.872 5.95175 243.44 6.24188C239.083 7.52833 234.647 8.52904 230.16 9.2376C226.931 9.77502 223.713 10.6707 220.501 11.5644C219.357 11.8829 218.213 12.2012 217.07 12.5029C215.946 12.8 214.821 13.0869 213.561 13.4084L213.547 13.412C212.312 13.7273 210.945 14.0759 209.32 14.5001C212.589 12.2861 216.284 10.7761 220.17 10.0664C220.256 10.0566 220.348 10.0475 220.442 10.0381C221.019 9.98111 221.707 9.91302 221.93 9.58709C222.527 8.71142 223.354 8.36168 224.212 7.99942C224.792 7.75443 225.385 7.5037 225.93 7.08067C225.582 7.08067 225.209 7.03954 224.836 6.99838C224.017 6.90809 223.196 6.81764 222.64 7.16056C219.96 8.80821 217.58 8.03931 214.9 7.16056C214.612 7.06668 214.322 6.96586 214.029 6.86428C211.864 6.11228 209.577 5.31814 207.19 6.98083C206.572 7.41277 205.577 7.29863 204.583 7.18467C204.13 7.13266 203.677 7.08067 203.26 7.08067H193.99V7.79965L197.61 8.51863C195.845 9.17576 194.195 9.19258 192.606 9.20875C191.009 9.22502 189.474 9.24065 187.95 9.90665C186.196 10.6676 184.157 10.7606 182.114 10.8538C181.047 10.9024 179.979 10.9511 178.95 11.095L178.124 11.21C175.4 11.5882 172.686 11.9652 170.07 12.5728C168.394 12.9622 166.762 13.4767 165.133 13.9904C163.962 14.3593 162.793 14.7279 161.61 15.0493C159.608 15.5932 157.581 16.0873 155.164 16.6762L155.162 16.6768C154.163 16.9202 153.098 17.1798 151.94 17.4659L154.63 18.1848C153.49 19.7526 153.33 19.9723 150.92 20.6114C149.372 20.9416 147.806 21.1817 146.23 21.3303C145.71 22.6385 146.52 23.6471 147.44 22.958C148.903 21.8504 150.193 22.0268 151.884 22.258L151.889 22.2587L151.891 22.259C152.012 22.2755 152.135 22.2923 152.26 22.309C148.36 24.3061 148.36 24.3061 139.34 23.8767C139.034 22.8235 139.805 22.5518 140.593 22.2745C141.477 21.963 142.382 21.6444 141.8 20.202C141.333 20.2841 140.843 20.3352 140.35 20.3867C139.164 20.5105 137.957 20.6365 136.99 21.2005C135.84 21.8336 134.717 21.924 133.578 22.0158C133.171 22.0485 132.763 22.0815 132.35 22.1392C131.925 22.1986 131.491 22.2843 131.045 22.3724C129.841 22.6101 128.55 22.8651 127.12 22.6684C127.379 22.4991 127.645 22.3315 127.91 22.1643L127.911 22.1637C128.442 21.8286 128.973 21.4935 129.46 21.1406C130.132 20.4173 130.861 19.7494 131.64 19.1435C131.881 19.0117 132.199 19.0173 132.525 19.0231C133.308 19.037 134.128 19.0516 133.98 17.1463C132.111 18.1411 130.141 18.4634 128.163 18.7872C126.606 19.042 125.044 19.2976 123.52 19.8824C122.504 20.2729 121.39 20.3091 120.246 20.3463C118.991 20.3871 117.7 20.429 116.46 20.9409C115.544 21.3159 114.475 21.383 113.421 21.4492C112.173 21.5275 110.947 21.6046 110.02 22.1891C108.93 22.8819 107.799 22.9497 106.667 23.0177C105.629 23.08 104.589 23.1424 103.58 23.687C102.578 24.2307 101.152 23.9893 99.5134 23.7119C98.7145 23.5767 97.8651 23.4329 96.99 23.3674L94.57 26.3632C94.0737 26.2202 93.5996 26.0459 93.1426 25.8779C92.1634 25.5178 91.2627 25.1867 90.39 25.2547C89.748 25.3048 89.1261 25.6714 88.5016 26.0396C87.8811 26.4054 87.258 26.7728 86.61 26.8325C84.1643 26.9905 81.7099 26.9537 79.27 26.7227C78.3552 26.5507 77.4532 26.3172 76.57 26.0237C75.4274 25.8009 74.2803 25.6146 73.073 25.4186C72.4945 25.3246 71.9022 25.2284 71.29 25.1249L70.81 27.8011C68.9946 27.4542 67.162 27.2042 65.32 27.0522C62.79 26.9723 62.12 27.7013 62.03 30.0479V33.8525C61.662 33.8715 61.2948 33.8948 60.9287 33.9181C58.4093 34.0783 55.9387 34.2354 53.59 32.9538C52.701 32.4126 51.6575 32.1808 50.6226 32.2946C49.5877 32.4084 48.6197 32.8614 47.87 33.5829L48.75 36.6385C48.6226 36.7975 48.4411 36.9042 48.24 36.9381C47.7362 36.9504 47.2336 36.9558 46.7322 36.9612C43.5814 36.9949 40.4823 37.028 37.48 38.7854C36.4493 39.3824 34.9883 39.2344 33.5298 39.0866C32.8661 39.0194 32.2022 38.9521 31.58 38.9552C31.2632 38.9552 30.8829 38.9161 30.5026 38.877C29.6825 38.7926 28.8613 38.7081 28.67 39.0151C27.3938 41.0633 25.5137 40.9915 23.6402 40.92C22.2255 40.8659 20.8145 40.8121 19.67 41.6713C19.5467 41.7681 18.3994 41.0127 18.1481 40.5447C17.279 42.3684 16.0801 44.8801 14.9969 47.1401L14.9956 63.1617C16.1761 66.8334 17.5245 70.6581 18.5 73.3059V74.1421L18.68 74.125C18.9184 75.111 19.2083 76.0961 19.4981 77.081C20.1563 79.3181 20.8145 81.5549 20.87 83.8012C20.97 88.5844 23.16 92.1593 25.8 95.5544L24.86 97.1122C24.9669 97.2556 25.0537 97.3913 25.1313 97.5124C25.2858 97.7539 25.4035 97.9378 25.57 98.011C26.4373 98.3207 27.2884 98.6739 28.12 99.0695C28.54 99.3291 29.07 100.178 28.94 100.428C28.45 101.346 27.69 101.216 26.94 100.517C26.5442 100.288 26.1252 100.1 25.69 99.9582L27.32 104.082C29.0365 103.489 29.5995 104.509 30.1487 105.505C30.5241 106.185 30.8932 106.854 31.62 106.988C32.8847 107.214 33.2226 108.116 33.5767 109.062C33.8806 109.874 34.1963 110.717 35.12 111.192C35.3311 110.947 35.6235 110.737 35.9139 110.528C36.807 109.886 37.682 109.257 36.12 107.667L37.56 106.669C37.8796 112.323 41.7855 113.638 46.132 115.101L46.1335 115.102C46.546 115.24 46.9623 115.381 47.38 115.526L41.71 116.664C42.3327 116.996 42.7815 117.24 43.1239 117.427L43.127 117.429C43.618 117.696 43.8909 117.845 44.15 117.962C45.0171 118.341 45.9379 118.54 46.8629 118.74C48.4983 119.094 50.1477 119.45 51.54 120.808C52.3464 121.614 53.9658 121.731 55.4802 121.84L55.4818 121.84C55.8448 121.866 56.2017 121.892 56.54 121.927C58.2054 122.018 59.8746 122.018 61.54 121.927C62.6243 123.201 62.1301 124.414 61.6196 125.667C61.3297 126.378 61.0345 127.103 61.02 127.858C61.6778 127.716 62.2544 127.324 62.6277 126.765C63.0011 126.206 63.1417 125.524 63.02 124.863C62.86 123.105 63.77 122.186 65.46 121.867C65.6682 123.571 64.9501 124.984 64.2375 126.386C63.5807 127.678 62.9285 128.96 63.01 130.455C61.1488 132.849 60.3212 135.677 59.4959 138.496C59.1063 139.827 58.7171 141.156 58.22 142.438C57.4507 144.425 56.6633 146.407 55.8759 148.389L55.8754 148.39C54.9025 150.838 53.9295 153.287 52.99 155.749C51.9338 158.505 50.838 161.245 49.7424 163.985C47.353 169.96 44.9647 175.933 42.99 182.061C42.4126 183.831 41.6686 185.554 40.9272 187.272C40.3846 188.529 39.8433 189.782 39.37 191.048C38.6175 193.082 37.781 195.083 36.9444 197.083C35.4684 200.613 33.9911 204.146 32.97 207.874C32.5709 209.338 31.8918 210.723 31.2115 212.111C30.801 212.949 30.39 213.788 30.04 214.645L24.04 229.623C22.26 234.017 20.45 238.411 18.36 242.764C18.3704 242.477 18.3748 242.189 18.3743 241.902L14.9643 252.416L14.9642 252.819L7 275.306V293.306L8.6288 298.518C8.6912 298.814 8.74859 299.087 8.80002 299.333V299.066L9.5 301.306L14.9503 304.939L14.9502 305.349ZM59.72 243.304L63.35 243.493C65.6253 240.832 68.0704 238.321 70.67 235.974C70.9311 235.768 71.1997 235.553 71.4727 235.334L71.4783 235.329C72.1972 234.752 72.9467 234.15 73.67 233.637C74.9215 232.97 76.07 232.126 77.08 231.131C77.6255 230.473 78.3182 230.478 78.9149 230.483C79.3137 230.486 79.6696 230.488 79.91 230.292C84.4947 226.552 88.9897 222.729 93.3263 219.04C94.211 218.288 95.0891 217.541 95.96 216.801V209.322C95.1709 208.649 94.5023 207.846 93.8349 207.044C92.5235 205.469 91.217 203.9 89.01 203.331C88.7955 203.272 88.6528 202.963 88.4973 202.626C88.3628 202.335 88.2186 202.023 88.01 201.833C86.6815 200.532 85.2648 199.324 83.77 198.218C83.0351 197.896 82.2236 197.788 81.43 197.908C80.37 197.948 80.12 197.519 79.95 196.52C79.8789 196.094 79.4857 195.735 78.9707 195.264C78.6894 195.007 78.3715 194.716 78.05 194.363C77.03 196.441 75.66 196.191 73.94 194.663C73.1195 196.832 72.3578 198.83 71.6001 200.817L71.5958 200.828C71.2283 201.792 70.8618 202.753 70.49 203.73L67.86 204.229C69.8198 205.989 68.9277 207.368 68.0424 208.737C67.4504 209.652 66.8616 210.563 67.13 211.579C69.48 211.459 70.18 209.841 70.85 207.994V214.115L67.85 216.362C67.9819 218.068 67.9618 219.782 67.79 221.485C67.3357 223.109 66.7366 224.69 66 226.208C67.2918 227.405 66.5971 228.242 65.9189 229.058C65.6469 229.385 65.3774 229.709 65.24 230.053C65.0145 230.62 64.9946 231.214 64.9745 231.813C64.943 232.756 64.9111 233.711 64.08 234.596C63.3531 235.362 62.9581 236.506 62.5833 237.593C62.3909 238.15 62.2039 238.692 61.98 239.16C61.5165 240.127 60.9836 241.066 60.4305 242.041C60.1962 242.453 59.958 242.873 59.72 243.304ZM112.73 178.916L107.03 181.292L107.06 181.891C107.516 181.891 108.022 181.95 108.527 182.008C109.637 182.137 110.746 182.266 111.33 181.771C112.607 180.714 113.182 181.456 113.729 182.162C114.138 182.69 114.532 183.197 115.19 182.92C115.348 182.871 115.537 182.89 115.727 182.91C115.885 182.926 116.045 182.943 116.19 182.92C119.627 182.389 122.812 183.321 126.01 184.257C126.785 184.484 127.56 184.711 128.34 184.917C128.413 184.937 128.487 184.957 128.562 184.977L128.737 185.023L128.74 185.024C129.998 185.357 131.497 185.754 132.02 186.654C132.45 187.361 132.971 188.023 133.493 188.687C134.815 190.366 136.142 192.052 136.02 194.493C135.94 195.931 136.93 196.81 138.45 196.93C138.674 196.28 138.89 195.632 139.104 194.988L139.105 194.985L139.107 194.979C139.58 193.557 140.047 192.151 140.59 190.779C141.119 189.438 141.685 188.117 142.252 186.797L142.255 186.791L142.255 186.789C143.199 184.59 144.142 182.392 144.91 180.104C146.073 176.637 146.897 173.037 147.71 169.48L147.85 168.87C149.2 162.948 150.72 157.167 153.58 151.774C153.831 151.292 153.887 150.71 153.965 149.906C154.008 149.462 154.057 148.95 154.15 148.349C151.023 151.272 147.706 153.308 144.497 155.278C142.563 156.464 140.669 157.626 138.88 158.944C138.1 159.523 137.31 160.096 136.52 160.668L136.518 160.669L136.515 160.672C133.4 162.929 130.277 165.192 127.67 167.931C125.76 169.96 123.534 171.56 121.311 173.157C119.355 174.562 117.402 175.965 115.67 177.657C115.186 178.134 114.459 178.356 113.729 178.578C113.389 178.682 113.048 178.785 112.73 178.916ZM179.375 272.876L179.369 272.886C179.13 273.285 178.882 273.697 178.62 274.12C179.664 273.803 180.668 273.584 181.627 273.375C184.232 272.808 186.496 272.315 188.28 270.125C190.715 267.393 193.288 264.786 195.99 262.317C195.872 262.164 195.72 262.006 195.566 261.846C194.899 261.151 194.185 260.407 195.89 259.88C196.782 259.612 196.889 259.157 197.012 258.634C197.045 258.494 197.079 258.35 197.13 258.202C197.374 257.492 197.636 256.788 197.898 256.084L197.898 256.083C198.281 255.056 198.664 254.028 198.99 252.98C199.117 252.575 199.356 252.188 199.592 251.807C200.1 250.984 200.593 250.186 199.91 249.285H197.19C197.137 249.491 197.103 249.76 197.067 250.044C196.981 250.722 196.885 251.488 196.49 251.692C194.914 252.53 193.883 253.86 192.855 255.189C192.278 255.933 191.702 256.677 191.03 257.334C188.533 259.555 186.769 262.479 185.97 265.722C185.892 266.111 185.731 266.48 185.498 266.802C185.265 267.124 184.966 267.392 184.62 267.589C182.085 268.364 180.888 270.357 179.375 272.876ZM216.48 218.499C222.12 204.879 226.87 191.737 231.12 178.416L230.12 177.817C229.877 178.452 229.625 179.085 229.373 179.717L229.372 179.72L229.371 179.723C228.899 180.909 228.427 182.096 228.01 183.299C227.725 184.128 227.516 185.007 227.307 185.884C226.891 187.625 226.478 189.36 225.48 190.689C224.566 191.886 224.088 193.279 223.613 194.661C223.023 196.381 222.438 198.082 221.03 199.366C221.103 202.202 219.876 204.567 218.648 206.934C218.017 208.151 217.385 209.368 216.93 210.65C215.927 213.148 215.769 215.904 216.48 218.499Z" fill="#DCDCDC"/>
</svg>
