<?xml version="1.0" standalone="no"?><!DOCTYPE svg PUBLIC "-//W3C//DTD SVG 1.1//EN" "http://www.w3.org/Graphics/SVG/1.1/DTD/svg11.dtd"><svg t="1553427763364" class="icon" style="" viewBox="0 0 1024 1024" version="1.1" xmlns="http://www.w3.org/2000/svg" p-id="2969" xmlns:xlink="http://www.w3.org/1999/xlink" width="200" height="200"><defs><style type="text/css"></style></defs><path d="M1020.695 501.802a45.59 45.59 0 0 0-8.154-20.088l-10.07-10.254L881.36 348.146V176.903a45.953 45.953 0 0 0-0.432-4.314 45.6 45.6 0 0 0-8.155-20.087 41.343 41.343 0 0 0-2.192-2.831 44.588 44.588 0 0 0-5.468-5.508 42.292 42.292 0 0 0-2.409-1.915 45.793 45.793 0 0 0-23.393-8.896H659.474L544.211 17.512l-5.457-5.498a46.006 46.006 0 0 0-29.941-11.006 46.045 46.045 0 0 0-30.485 11.48l-3.738 3.676s0 0.01-0.01 0.01L355.311 133.352H178.725a45.974 45.974 0 0 0-27.778 11.397 45.017 45.017 0 0 0-3.737 3.676s0 0.01-0.011 0.01c-6.857 7.557-11.253 17.379-11.913 28.222V357.33L19.283 473.57c-0.021 0.021-0.052 0.042-0.073 0.062l-4.098 4.107c-6.609 7.496-10.831 17.123-11.49 27.748a43.798 43.798 0 0 0-0.083 2.852 46.056 46.056 0 0 0 11.182 30.167l5.2 5.148 115.366 114.49v175.464c0 0.978 0.021 1.936 0.083 2.882 0.638 10.4 4.716 19.871 11.099 27.284a45.298 45.298 0 0 0 5.2 5.148 46.025 46.025 0 0 0 22.177 10.296h180.23l116.663 118.434 12.181 12.355a45.642 45.642 0 0 0 18.594 7.557c2.491 0.423 5.055 0.639 7.67 0.639s5.178-0.216 7.681-0.639a45.97 45.97 0 0 0 21.055-9.368c0.021-0.01 0.031-0.021 0.053-0.041l6.866-6.734L669.521 879.22h175.598a45.827 45.827 0 0 0 19.221-9.019c0.021-0.01 0.031-0.021 0.053-0.042a46.703 46.703 0 0 0 6.868-6.732c5.251-6.344 8.844-14.106 10.1-22.631V664.838l117.138-116.426 16.113-16.011a45.867 45.867 0 0 0 6.084-16.958 46.67 46.67 0 0 0 0.505-6.836 46.404 46.404 0 0 0-0.506-6.805zM808.784 591.81L778.4 622.007v154.254H627.484l-30.034 29.425-87.145 85.415-82.882-84.138-30.25-30.702H238.246V615.264l-30.435-30.199-77.549-76.951 77.898-78.053 30.085-30.146V236.312H397.42l30.043-29.519 80.834-79.402 78.188 78.579 30.186 30.342H778.4v153.934l29.51 30.044 85.672 87.237-84.798 84.283z" p-id="2970" fill="#dcdcdc"></path><path d="M456.007 678.223c-12.715 0-25.422-4.686-35.333-14.038L274.471 526.219c-20.677-19.514-21.622-52.095-2.109-72.773 19.513-20.676 52.094-21.622 72.773-2.109l111.34 105.068 217.983-200.259c20.937-19.235 53.502-17.854 72.737 3.082 19.234 20.938 17.854 53.503-3.083 72.738L490.833 664.653c-9.854 9.052-22.343 13.57-34.826 13.57z" p-id="2971" fill="#dcdcdc"></path></svg>