<svg class="icon" viewBox="0 0 1024 1024" xmlns="http://www.w3.org/2000/svg" width="200" height="200"><defs><style/></defs><path d="M715.543 358.171c6.743 0 13.486.229 20.114.572C707.771 211.657 554.743 99.2 370.057 99.2 165.714 99.2 0 237.029 0 407.086 0 499.77 49.829 583.314 127.886 639.77a24.571 24.571 0 0110.4 20.115c0 2.743-.572 5.257-1.257 7.885-6.286 23.2-16.229 60.343-16.686 62.058-.8 2.971-1.943 5.942-1.943 9.028 0 6.743 5.486 12.343 12.343 12.343 2.628 0 4.8-1.029 7.086-2.286l81.028-46.743c6.057-3.542 12.572-5.714 19.657-5.714 3.657 0 7.315.572 10.857 1.6 37.829 10.857 78.629 16.914 120.8 16.914 6.858 0 13.6-.114 20.343-.457-8.114-24-12.457-49.257-12.457-75.428 0-155.2 151.086-280.915 337.486-280.915zm-222.057-98.857c27.2 0 49.371 22.057 49.371 49.257S520.8 357.83 493.486 357.83c-27.2 0-49.372-22.058-49.372-49.258s22.172-49.257 49.372-49.257zM246.743 357.83c-27.2 0-49.372-22.058-49.372-49.258s22.058-49.257 49.372-49.257 49.371 22.057 49.371 49.257-22.171 49.258-49.371 49.258zM917.37 832.8c65.029-47.086 106.515-116.571 106.515-193.943 0-141.714-138.057-256.571-308.457-256.571-170.286 0-308.458 114.857-308.458 256.571S545.03 895.43 715.43 895.43c35.2 0 69.257-5.029 100.685-14.058a30.353 30.353 0 019.029-1.371c5.943 0 11.314 1.829 16.343 4.686l67.543 38.857c1.942 1.143 3.771 1.943 5.942 1.943a10.286 10.286 0 007.315-2.972 10.286 10.286 0 002.971-7.314c0-2.514-1.028-5.029-1.6-7.543-.343-1.371-8.686-32.343-13.943-51.771-.571-2.172-1.028-4.343-1.028-6.515.114-6.742 3.543-12.8 8.685-16.571zM612.8 597.943c-22.743 0-41.143-18.4-41.143-41.029 0-22.628 18.4-41.028 41.143-41.028s41.143 18.4 41.143 41.028c0 22.629-18.514 41.029-41.143 41.029zm205.6 0c-22.743 0-41.143-18.4-41.143-41.029 0-22.628 18.4-41.028 41.143-41.028s41.143 18.4 41.143 41.028a41.234 41.234 0 01-41.143 41.029z" fill="#dcdcdc"/></svg>