<svg width="64" height="59" viewBox="0 0 64 59" fill="none" xmlns="http://www.w3.org/2000/svg">
<path fill-rule="evenodd" clip-rule="evenodd" d="M64 29.5C64 45.7924 49.6731 59 32 59C26.2668 59 20.8858 57.6101 16.2318 55.1758C14.6114 54.3283 12.7968 53.8813 10.9747 54.0363C4.7314 54.5673 -0.935761 54.4358 1.50001 52C3.01824 50.4818 3.79659 48.679 4.16148 46.9372C4.49012 45.3686 3.94623 43.7905 3.19914 42.3725C1.14957 38.4826 0 34.1151 0 29.5C0 13.2076 14.3269 0 32 0C49.6731 0 64 13.2076 64 29.5ZM34 19C36.2091 19 38 17.2092 38 15C38 12.7908 36.2091 11 34 11C31.7909 11 30 12.7908 30 15C30 17.2092 31.7909 19 34 19ZM49 19C51.2091 19 53 17.2092 53 15C53 12.7908 51.2091 11 49 11C46.7909 11 45 12.7908 45 15C45 17.2092 46.7909 19 49 19ZM42 43C45.3137 43 48 34.4934 48 24H36C36 34.4934 38.6863 43 42 43Z" fill="#DCDCDC"/>
</svg>
