<svg width="168" height="146" viewBox="0 0 168 146" fill="none" xmlns="http://www.w3.org/2000/svg">
<path d="M61.3136 91.8887C60.5477 92.2754 59.7636 92.46 58.8116 92.46C56.6827 92.46 54.9462 91.3174 53.9749 89.6035L53.5831 88.8488L38.328 56.0533C38.1413 55.6666 38.1413 55.2984 38.1413 54.9117C38.1413 53.3824 39.2991 52.2398 40.8489 52.2398C41.428 52.2398 42.0067 52.4242 42.5858 52.8109L60.5477 65.3949C61.8923 66.1496 63.4423 66.7211 65.1782 66.7211C66.1493 66.7211 67.102 66.5365 68.0731 66.1496L152.303 29.1727C137.234 11.6328 112.325 0.191406 84.1122 0.191406C38.1413 0.191406 0.666504 30.8863 0.666504 68.8035C0.666504 89.3832 11.8698 108.065 29.4405 120.649C30.7843 121.607 31.7554 123.321 31.7554 125.033C31.7554 125.605 31.5685 126.176 31.3636 126.747C30.0196 131.887 27.6856 140.289 27.6856 140.658C27.4985 141.228 27.2925 141.984 27.2925 142.758C27.2925 144.287 28.4505 145.429 30.0005 145.429C30.5792 145.429 31.1583 145.245 31.5503 144.858L49.6991 134.375C51.0438 133.619 52.5936 133.048 54.1436 133.048C54.9085 133.048 55.8798 133.232 56.6456 133.435C65.1409 135.904 74.4214 137.249 83.8878 137.249C129.859 137.249 167.333 106.554 167.333 68.6371C167.333 57.1957 163.86 46.3436 157.867 36.8006L61.8923 91.5018L61.3136 91.8887Z" fill="#DCDCDC"/>
</svg>
