<svg width="168" height="147" viewBox="0 0 168 147" fill="none" xmlns="http://www.w3.org/2000/svg">
<path d="M168 68C168 105.555 130.392 136 84 136C76.0178 136 68.2957 135.099 60.9805 133.415C57.4893 132.611 53.7986 133.03 50.7107 134.847L31.3365 146.243C29.8495 147.118 28.0268 145.826 28.3602 144.133L31.9445 125.936C32.4257 123.492 31.3345 121.023 29.29 119.601C11.358 107.13 0 88.6387 0 68C0 30.4446 37.6081 0 84 0C112.28 0 137.297 11.3135 152.519 28.6546L67.0209 66.603C65.7633 67.1612 64.3071 67.0339 63.1655 66.2659L43.0454 52.7306C41.398 51.6223 39.3168 53.3324 40.0847 55.1634L53.9202 88.1558C55.5531 92.0498 60.2361 93.6225 63.8884 91.5034L158.525 36.5962C164.578 45.9902 168 56.6716 168 68Z" fill="#DCDCDC"/>
</svg>
