<svg width="414" height="361" fill="none" xmlns="http://www.w3.org/2000/svg"><path fill-rule="evenodd" clip-rule="evenodd" d="M206.568 174.527c-19.614-37.046-48.944-82.152-78.317-116.788-18.279-21.553-37.715-40.437-55.785-50.241C63.42 2.59 53.134-.92 42.674.214c-11.349 1.23-20.447 7.64-26.661 17.608C1.586 40.964-1.487 72.004.581 103.46c2.099 31.9 9.668 66.635 18.912 99.054 18.502 64.884 44.35 122.657 49.681 134.1 4.264 9.152 10.414 17.082 19.42 21.08 9.358 4.153 18.803 2.762 26.67-.632 14.573-6.286 28.592-21.463 40.679-37.357 18.512-24.344 36.826-56.397 50.625-82.072 13.799 25.675 32.112 57.728 50.625 82.072 12.087 15.894 26.106 31.071 40.679 37.357 7.867 3.394 17.312 4.785 26.669.632 9.007-3.998 15.157-11.928 19.421-21.08 5.331-11.443 31.179-69.216 49.681-134.1 9.244-32.419 16.813-67.154 18.912-99.054 2.069-31.457-1.005-62.497-15.432-85.64-6.214-9.967-15.312-16.377-26.661-17.607-10.46-1.134-20.746 2.376-29.792 7.284-18.071 9.804-37.506 28.688-55.785 50.24-29.373 34.637-58.703 79.743-78.317 116.789zM40.623 33.164c2.202-3.533 3.915-3.982 5.177-4.119 2.15-.233 6.273.382 12.836 3.943 13.148 7.133 29.733 22.561 47.497 43.508 33.251 39.208 66.639 92.908 84.06 130.072-14.1 27.009-35.848 67.33-57.334 95.584-12.011 15.794-22.103 25.272-29.082 28.283-1.485.641-2.414.792-2.868.817-.362.02-.477-.031-.545-.061l-.005-.003c-.168-.074-2.231-1.097-4.898-6.82-5.015-10.766-30.168-66.992-48.08-129.806-8.962-31.43-15.952-63.969-17.862-93.004-1.94-29.48 1.53-53.037 11.104-68.394zm331.89 0c-2.202-3.533-3.915-3.982-5.177-4.119-2.15-.233-6.273.382-12.836 3.943-13.148 7.133-29.734 22.561-47.497 43.508-33.251 39.208-66.639 92.908-84.06 130.072 14.099 27.009 35.848 67.33 57.334 95.584 12.011 15.794 22.103 25.272 29.082 28.283 1.485.641 2.414.792 2.868.817.362.02.477-.031.544-.061l.006-.003c.168-.074 2.231-1.097 4.898-6.82 5.015-10.766 30.168-66.992 48.079-129.806 8.963-31.43 15.953-63.969 17.863-93.004 1.939-29.48-1.53-53.037-11.104-68.394z" fill="#DCDCDC"/></svg>