<svg width="275" height="80" xmlns="http://www.w3.org/2000/svg"><path d="M8.974 0h257.052c3.12 0 4.252.325 5.393.935a6.36 6.36 0 012.646 2.646c.61 1.14.935 2.272.935 5.393v62.052c0 3.12-.325 4.252-.935 5.393a6.36 6.36 0 01-2.646 2.646c-1.14.61-2.272.935-5.393.935H8.974c-3.12 0-4.252-.325-5.393-.935a6.36 6.36 0 01-2.646-2.646C.325 75.279 0 74.147 0 71.026V8.974c0-3.12.325-4.252.935-5.393A6.36 6.36 0 013.581.935C4.721.325 5.853 0 8.974 0zM16 58.583v6.379h32.276v-7.246H25.29l22.985-37.545v-5.755H16.9v6.83h22.015L16 58.583zm42.503-44.167v50.546h32.276v-7.246H66.164V42.878h21.01v-6.795h-21.01V21.662H90.78v-7.246H58.503zM108.25 37.99V21.662h11.06c2.08-.047 3.905.427 5.477 1.421a6.367 6.367 0 012.427 2.461c.554 1.156.832 2.577.832 4.265 0 2.033-.682 3.882-2.046 5.546-1.433 1.71-3.57 2.589-6.413 2.635H108.25zm-7.661-23.574v50.546h7.661V45.236H119.9c5.2-.093 9.152-1.757 11.856-4.992 2.635-3.074 3.952-6.483 3.952-10.227 0-2.774-.52-5.177-1.56-7.211-.994-2.104-2.288-3.721-3.883-4.854-1.895-1.502-3.767-2.496-5.616-2.981a29.28 29.28 0 00-5.755-.555H100.59zm44.687 0v50.546h32.275v-7.246h-24.614V42.878h21.009v-6.795h-21.009V21.662h24.614v-7.246h-32.275zm50.65 6.83v43.716h7.696V21.246h13.832v-6.83h-35.361v6.83h13.832zm27.803 18.443c0 5.778.173 9.684.52 11.718.185 1.086.416 1.987.693 2.704.3.693.636 1.421 1.006 2.184 1.225 2.334 3.19 4.391 5.893 6.17 2.658 1.85 5.975 2.82 9.95 2.913 4.021-.093 7.373-1.063 10.054-2.912 2.658-1.78 4.576-3.837 5.755-6.171.855-1.225 1.444-2.854 1.768-4.888.3-2.034.45-5.94.45-11.718 0-5.87-.15-9.8-.45-11.787-.324-1.988-.913-3.594-1.768-4.819-1.18-2.334-3.097-4.414-5.755-6.24-2.681-1.85-6.033-2.797-10.054-2.843-3.975.046-7.292.994-9.95 2.843-2.704 1.826-4.668 3.906-5.893 6.24-.763 1.225-1.33 2.831-1.699 4.819-.347 1.987-.52 5.916-.52 11.787zm7.696 0c0-4.97.185-8.355.555-10.158.324-1.71.982-3.108 1.976-4.195.809-1.04 1.872-1.906 3.19-2.6 1.294-.67 2.842-1.028 4.645-1.074 1.826.046 3.409.404 4.75 1.074 1.27.694 2.288 1.56 3.05 2.6.994 1.087 1.676 2.485 2.046 4.195.346 1.803.52 5.189.52 10.158 0 4.97-.174 8.332-.52 10.088-.37 1.757-1.052 3.178-2.046 4.265-.762 1.04-1.78 1.883-3.05 2.53-1.341.763-2.924 1.144-4.75 1.144-1.803 0-3.351-.381-4.646-1.144-1.317-.647-2.38-1.49-3.189-2.53-.994-1.087-1.652-2.508-1.976-4.265-.37-1.756-.555-5.119-.555-10.088z" fill="#DCDCDC" fill-rule="nonzero"/></svg>