<svg width="64" height="19" viewBox="0 0 64 19" fill="none" xmlns="http://www.w3.org/2000/svg">
<path d="M3.02323 1H60.9768C61.6802 1 61.9354 1.06906 62.1926 1.19869C62.4468 1.32549 62.6547 1.52139 62.7892 1.76096C62.9267 2.00321 63 2.24376 63 2.90697V16.093C63 16.756 62.9267 16.9966 62.7892 17.239C62.6547 17.4786 62.4468 17.6745 62.1926 17.8013C61.9356 17.9309 61.6804 18 60.9768 18H3.02323C2.31981 18 2.0646 17.9309 1.80735 17.8013C1.55318 17.6745 1.34533 17.4786 1.2108 17.239C1.07327 16.9968 1 16.7562 1 16.093V2.90697C1 2.24398 1.07327 2.00343 1.2108 1.76096C1.34533 1.52139 1.55318 1.32549 1.80735 1.19869C2.06437 1.06906 2.31959 1 3.02323 1ZM4.60727 13.4489V14.8044H11.884V13.2646H6.70175L11.8838 5.28634V4.0634H4.81018V5.51477H9.77356L4.60727 13.4489ZM14.1898 4.0634V14.8044H21.4665V13.2646H15.917V10.1116H20.6538V8.66764H15.917V5.60318H21.4668V4.0634H14.1898ZM25.4055 9.07288V5.60318H27.899C28.3679 5.59319 28.7794 5.69391 29.1338 5.90514C29.3639 6.02857 29.5532 6.20956 29.681 6.4281C29.8059 6.67375 29.8686 6.97571 29.8686 7.33441C29.8686 7.76642 29.7148 8.15934 29.4073 8.51294C29.0842 8.87631 28.6024 9.0631 27.9614 9.07288H25.4055ZM23.6782 4.0634V14.8044H25.4055V10.6127H28.032C29.2044 10.5929 30.0954 10.2393 30.705 9.55185C31.2991 8.89862 31.596 8.17421 31.596 7.37861C31.596 6.78914 31.4787 6.2785 31.2443 5.84627C31.0202 5.39917 30.7284 5.05556 30.3688 4.8148C29.9416 4.49563 29.5196 4.2844 29.1027 4.18134C28.6754 4.10178 28.2408 4.06227 27.8052 4.0634H23.6782ZM33.7531 4.0634V14.8044H41.0297V13.2646H35.4803V10.1116H40.2169V8.66764H35.4803V5.60318H41.0297V4.0634H33.7531ZM45.1724 5.51477V14.8044H46.9075V5.51477H50.026V4.0634H42.0537V5.51477H45.1724ZM51.4407 9.43391C51.4407 10.6617 51.4797 11.4918 51.558 11.924C51.5997 12.1548 51.6517 12.3462 51.7142 12.4986C51.7818 12.6458 51.8576 12.8005 51.941 12.9627C52.2172 13.4587 52.6602 13.8958 53.2696 14.2738C53.8689 14.6669 54.6167 14.8731 55.5129 14.8928C56.4194 14.8731 57.1752 14.6669 57.7796 14.274C58.3789 13.8958 58.8113 13.4587 59.0771 12.9627C59.2699 12.7024 59.4027 12.3562 59.4757 11.924C59.5433 11.4918 59.5771 10.6617 59.5771 9.43391C59.5771 8.18654 59.5433 7.35141 59.4757 6.92917C59.4027 6.50672 59.2699 6.16545 59.0771 5.90514C58.8111 5.40916 58.3789 4.96716 57.7796 4.57914C57.1752 4.18601 56.4194 3.98477 55.5129 3.975C54.6167 3.98477 53.8689 4.18623 53.2696 4.57914C52.66 4.96716 52.2172 5.40916 51.941 5.90514C51.769 6.16545 51.6411 6.50672 51.558 6.92917C51.4797 7.35141 51.4407 8.18632 51.4407 9.43391ZM53.1758 9.43391C53.1758 8.37779 53.2175 7.65848 53.3009 7.27534C53.374 6.91196 53.5223 6.61489 53.7464 6.3839C53.9288 6.1629 54.1685 5.97887 54.4656 5.8314C54.7574 5.68902 55.1064 5.61295 55.5129 5.60318C55.9246 5.61295 56.2815 5.68902 56.5838 5.8314C56.8701 5.97887 57.0996 6.1629 57.2714 6.3839C57.4955 6.61489 57.6493 6.91196 57.7327 7.27534C57.8107 7.65848 57.8499 8.378 57.8499 9.43391C57.8499 10.49 57.8107 11.2045 57.7327 11.5776C57.6493 11.951 57.4955 12.2529 57.2714 12.4839C57.0996 12.7049 56.8701 12.8841 56.5838 13.0215C56.2815 13.1837 55.9246 13.2646 55.5129 13.2646C55.1064 13.2646 54.7574 13.1837 54.4654 13.0215C54.1685 12.8841 53.9288 12.7049 53.7464 12.4839C53.5223 12.2529 53.374 11.951 53.3009 11.5776C53.2175 11.2045 53.1758 10.4898 53.1758 9.43391Z" fill="#DCDCDC"/>
</svg>
