<?xml version="1.0" encoding="UTF-8"?>
<svg width="111px" height="99px" viewBox="0 0 111 99" version="1.1" xmlns="http://www.w3.org/2000/svg" xmlns:xlink="http://www.w3.org/1999/xlink">
    <!-- Generator: Sketch 53.2 (72643) - https://sketchapp.com -->
    <title>Combined Shape</title>
    <desc>Created with Sketch.</desc>
    <g id="Page-1" stroke="none" stroke-width="1" fill="none" fill-rule="evenodd">
        <path d="M55.5,99 C46.4377727,99 37.8874466,97.0274614 30.350173,93.5334205 C28,93 17,98 14,95 C12.2742036,93.2742036 17,86 12.4632115,80.3250493 C4.97513342,71.8680472 0.5,61.1543741 0.5,49.5 C0.5,22.1619049 25.1243388,0 55.5,0 C85.8756612,0 110.5,22.1619049 110.5,49.5 C110.5,76.8380951 85.8756612,99 55.5,99 Z M32,33 C30.6666667,38.4991826 30,43.9991826 30,49.5 C30,55.0008174 30.6666667,60.8341508 32,67 C47,67 59,67 68,67 C73,67 87,57 87,50 C87,43 72,33 68,33 C60,33 48,33 32,33 Z" id="Combined-Shape" fill="#DCDCDC" fill-rule="nonzero"></path>
    </g>
</svg>