<svg width="21" height="19" viewBox="0 0 21 19" fill="none" xmlns="http://www.w3.org/2000/svg">
<path d="M10.5 18C8.93471 18 7.45783 17.6613 6.15594 17.0613C5.75 16.9697 3.85 17.8283 3.33182 17.3131C3.03373 17.0168 3.85 15.7677 3.06637 14.7932C1.77298 13.341 1 11.5013 1 9.5C1 4.80558 5.25329 1 10.5 1C15.7467 1 20 4.80558 20 9.5C20 14.1944 15.7467 18 10.5 18ZM6.44091 6.66667C6.21061 7.61097 6.09545 8.55541 6.09545 9.5C6.09545 10.4446 6.21061 11.4463 6.44091 12.5051C9.03182 12.5051 11.1045 12.5051 12.6591 12.5051C13.5227 12.5051 15.9409 10.7879 15.9409 9.58586C15.9409 8.38384 13.35 6.66667 12.6591 6.66667C11.2773 6.66667 9.20455 6.66667 6.44091 6.66667Z" fill="#DCDCDC"/>
</svg>
