<?xml version="1.0" encoding="UTF-8"?>
<svg width="189px" height="184px" viewBox="0 0 189 184" version="1.1" xmlns="http://www.w3.org/2000/svg" xmlns:xlink="http://www.w3.org/1999/xlink">
    <!-- Generator: Sketch 50.2 (55047) - http://www.bohemiancoding.com/sketch -->
    <title>Chalogo</title>
    <desc>Created with Sketch.</desc>
    <defs>
        <linearGradient x1="39.4218249%" y1="0%" x2="39.4218236%" y2="100%" id="linearGradient-1">
            <stop stop-color="#FFFFFF" offset="0%"></stop>
            <stop stop-color="#D4D4D4" offset="100%"></stop>
        </linearGradient>
        <path d="M917.955663,160.89664 C915.672253,160.187996 915.593514,150.266972 918.506831,145.700152 C921.420147,141.133332 929.215237,137.196418 931.341171,138.141277 C933.467104,139.086136 936.774112,142.629359 935.671776,151.841738 C940.789765,151.29057 946.931351,151.605523 954.017796,154.04641 C961.104241,156.487297 973.308675,162.786359 973.938581,163.731219 C974.568488,164.676078 974.01732,166.959488 970.78905,166.40832 C967.560781,165.857152 958.834493,161.605285 951.891862,159.400613 C944.949232,157.195941 936.774112,155.778652 929.608929,157.117203 C922.443745,158.455754 920.239073,161.605285 917.955663,160.89664 Z M968.741855,173.101074 C969.918817,174.3672 960.395597,180.423734 950.15962,180.423734 C939.923644,180.423734 920.554026,182.628406 910.633003,190.974664 C900.711979,199.320922 896.932542,207.903395 896.932542,223.966004 C902.52296,213.651289 911.142951,207.856916 928.349116,205.856199 C938.506355,204.675125 945.986491,202.312977 955.19887,198.533539 C964.411249,194.754102 972.285077,187.431441 987.009136,188.140086 C1001.73319,188.848731 1017.00842,192.62786 1027.8743,213.572244 C1038.74019,234.516627 1026.69323,258.335418 1026.69323,260.697567 C1026.69323,263.059715 1031.33879,276.247916 1040,277.192775 C1035.90561,280.972213 1025.1972,280.814736 1016.69347,278.137635 C1015.1187,282.127041 1011.91668,286.4314 1007.0874,291.050713 L989.601117,291.050713 C989.185434,286.4314 987.980242,283.124393 985.985539,281.129689 C983.15096,281.129689 979.214046,280.499783 974.174796,279.239971 C972.075109,284.594174 969.450499,288.531088 966.300968,291.050713 C962.416546,291.050713 955.434296,291.050713 945.354217,291.050713 C945.985702,280.237322 942.417023,274.830627 934.648179,274.830627 C926.879335,274.830627 923.309866,280.237322 923.939772,291.050713 C917.850679,291.050713 913.115895,291.050713 909.735421,291.050713 C870.555217,260.697567 876.224373,199.399353 891.97203,185.698892 C883.625772,175.462915 895.593991,154.203579 902.05053,156.093298 C908.507069,157.983016 910.633003,164.203033 910.633003,172.313384 C913.069615,170.53427 925.092673,167.126145 938.112663,167.038226 C951.599074,166.947158 966.097769,170.256679 968.741855,173.101074 Z M991.339742,174.9911 C988.121781,174.9911 985.513109,172.382428 985.513109,169.164468 C985.513109,165.946507 988.121781,163.337835 991.339742,163.337835 C994.557702,163.337835 997.166375,165.946507 997.166375,169.164468 C997.166375,172.382428 994.557702,174.9911 991.339742,174.9911 Z" id="path-2"></path>
        <filter x="-17.5%" y="-13.1%" width="135.0%" height="136.6%" filterUnits="objectBoundingBox" id="filter-3">
            <feOffset dx="0" dy="8" in="SourceAlpha" result="shadowOffsetOuter1"></feOffset>
            <feGaussianBlur stdDeviation="8" in="shadowOffsetOuter1" result="shadowBlurOuter1"></feGaussianBlur>
            <feColorMatrix values="0 0 0 0 0   0 0 0 0 0   0 0 0 0 0  0 0 0 1 0" type="matrix" in="shadowBlurOuter1"></feColorMatrix>
        </filter>
    </defs>
    <g id="Page-1" stroke="none" stroke-width="1" fill="none" fill-rule="evenodd">
        <g id="PC-1080P" transform="translate(-864.000000, -131.000000)">
            <g id="Chalogo">
                <use fill="black" fill-opacity="1" filter="url(#filter-3)" xlink:href="#path-2"></use>
                <use fill="url(#linearGradient-1)" fill-rule="evenodd" xlink:href="#path-2"></use>
            </g>
        </g>
    </g>
</svg>