<?xml version="1.0" encoding="UTF-8"?>
<svg width="170px" height="53px" viewBox="0 0 170 53" version="1.1" xmlns="http://www.w3.org/2000/svg" xmlns:xlink="http://www.w3.org/1999/xlink">
    <!-- Generator: Sketch 50.2 (55047) - http://www.bohemiancoding.com/sketch -->
    <title>foot</title>
    <desc>Created with Sketch.</desc>
    <defs>
        <path d="M26.4500034,31.928 L30.5300034,31.928 C32.5340034,31.928 33.6860034,32.888 33.6860034,34.568 C33.6860034,36.5 32.4980034,37.688 30.3620034,37.688 C29.9420034,37.688 29.5340034,37.64 29.1620034,37.556 L29.1620034,40.04 L31.0820034,40.16 L31.0820034,41 L26.6060034,41 L26.6060034,40.16 L27.8180034,40.04 L27.8180034,32.888 L26.4500034,32.768 L26.4500034,31.928 Z M29.1620034,32.912 L29.1620034,36.584 C29.4860034,36.656 29.8220034,36.68 30.2540034,36.68 C31.6460034,36.68 32.2700034,36.02 32.2700034,34.712 C32.2700034,33.548 31.5380034,32.912 30.2060034,32.912 L29.1620034,32.912 Z M38.8305744,34.784 C40.6905744,34.784 41.7825744,35.96 41.7825744,37.808 C41.7825744,40.16 40.5465744,41.12 38.8185744,41.12 C36.9585744,41.12 35.8665744,39.932 35.8665744,38.084 C35.8665744,35.732 37.1025744,34.784 38.8305744,34.784 Z M38.8785744,40.208 C39.9465744,40.208 40.4385744,39.404 40.4385744,38.012 C40.4385744,36.5 39.9105744,35.696 38.7705744,35.696 C37.7145744,35.696 37.1985744,36.488 37.1985744,37.88 C37.1985744,39.392 37.7505744,40.208 38.8785744,40.208 Z M50.2631453,41 L49.0991453,36.908 L47.7911453,41 L46.1831453,41 L44.7191453,35.756 L43.9031453,35.648 L43.9031453,34.904 L45.9671453,34.904 C46.0031453,35.504 46.1711453,36.38 46.4351453,37.316 L47.1551453,39.896 L47.9951453,37.148 C48.3071453,36.152 48.4751453,35.408 48.4871453,34.904 L49.9751453,34.904 C50.0111453,35.468 50.1911453,36.32 50.4791453,37.316 L51.1991453,39.896 L52.1351453,37.148 C52.3151453,36.632 52.4471453,36.152 52.5191453,35.708 L51.7631453,35.6 L51.7631453,34.904 L53.7911453,34.904 C53.7431453,35.468 53.5511453,36.164 53.1911453,37.16 L51.8111453,41 L50.2631453,41 Z M61.4197163,39.848 L61.4197163,40.808 C60.8317163,41.024 60.1237163,41.12 59.2957163,41.12 C57.1957163,41.12 56.0917163,40.076 56.0917163,38.18 C56.0917163,36.092 57.1837163,34.784 59.0557163,34.784 C60.6397163,34.784 61.6837163,35.804 61.6837163,37.256 L61.6837163,38.288 L57.4477163,38.288 C57.5317163,39.548 58.2277163,40.124 59.5957163,40.124 C60.2677163,40.124 60.9397163,40.016 61.4197163,39.848 Z M60.3037163,37.376 L60.3037163,37.256 C60.3037163,36.296 59.8357163,35.756 58.9717163,35.756 C58.0717163,35.756 57.5917163,36.284 57.4717163,37.376 L60.3037163,37.376 Z M66.1322872,36.26 L66.1562872,36.26 C66.5042872,35.336 67.2242872,34.784 68.1962872,34.784 C68.4362872,34.784 68.5922872,34.796 68.8322872,34.856 L68.8322872,37.028 L67.8722872,37.028 L67.7882872,35.876 C66.9002872,35.924 66.3842872,36.488 66.3002872,37.532 L66.3002872,40.16 L67.6802872,40.28 L67.6802872,41 L63.9842872,41 L63.9842872,40.28 L65.0042872,40.16 L65.0042872,35.768 L63.9842872,35.648 L63.9842872,34.904 L66.1322872,34.904 L66.1322872,36.26 Z M78.2814291,31.64 L78.2814291,35.456 C78.7494291,35.012 79.3374291,34.784 80.0094291,34.784 C81.6534291,34.784 82.6614291,35.9 82.6614291,37.736 C82.6614291,39.656 81.4854291,41.12 79.3974291,41.12 C78.6774291,41.12 77.6214291,40.904 76.9974291,40.616 L76.9974291,32.732 L75.8934291,32.732 L75.8934291,31.904 L78.2814291,31.64 Z M78.2814291,36.284 L78.2814291,39.908 C78.6414291,40.064 79.0374291,40.16 79.4214291,40.16 C80.6094291,40.16 81.2694291,39.32 81.2694291,37.916 C81.2694291,36.524 80.6694291,35.816 79.5294291,35.816 C79.0494291,35.816 78.6054291,35.996 78.2814291,36.284 Z M88.982,34.904 L91.238,34.904 C91.214,35.408 90.95,36.212 90.446,37.496 L88.862,41.576 C88.082,43.568 87.194,44.24 85.97,44.24 C85.742,44.24 85.454,44.228 85.226,44.168 L85.226,42.968 C85.346,43.004 85.622,43.028 85.922,43.028 C86.774,43.028 87.218,42.728 87.698,41.612 L87.962,41 L87.386,41 L85.67,35.768 L84.782,35.648 L84.782,34.904 L86.882,34.904 C86.93,35.516 87.17,36.404 87.482,37.364 L88.346,40.028 C88.718,39.128 89.078,38.156 89.33,37.448 C89.534,36.872 89.714,36.26 89.822,35.768 L88.982,35.648 L88.982,34.904 Z M111.427142,32.768 L110.407142,32.888 L108.223142,41 L106.699142,41 L104.719142,33.848 L102.703142,41 L101.215142,41 L99.1271419,32.888 L98.1191419,32.768 L98.1191419,31.928 L101.827142,31.928 L101.827142,32.768 L100.471142,32.888 L102.091142,39.488 L104.167142,32.168 L105.583142,32.168 L107.611142,39.536 L109.315142,32.888 L107.923142,32.768 L107.923142,31.928 L111.427142,31.928 L111.427142,32.768 Z M114.663713,33.416 C114.243713,33.416 113.859713,33.188 113.859713,32.588 C113.859713,31.964 114.243713,31.796 114.663713,31.796 C115.107713,31.796 115.479713,31.964 115.479713,32.588 C115.479713,33.188 115.107713,33.416 114.663713,33.416 Z M116.343713,40.28 L116.343713,41 L113.007713,41 L113.007713,40.28 L114.027713,40.16 L114.027713,35.768 L113.007713,35.648 L113.007713,34.904 L115.323713,34.904 L115.323713,40.16 L116.343713,40.28 Z M122.484284,38.504 L119.064284,38.504 L119.292284,37.532 L122.712284,37.532 L122.484284,38.504 Z M128.264855,32.888 L128.264855,36.152 L131.732855,36.152 L131.492855,37.16 L128.264855,37.16 L128.264855,40.04 L130.148855,40.16 L130.148855,41 L125.600855,41 L125.600855,40.16 L126.920855,40.04 L126.920855,32.888 L125.552855,32.768 L125.552855,31.928 L132.452855,31.928 L132.452855,34.556 L131.492855,34.556 L131.312855,32.888 L128.264855,32.888 Z M136.469426,33.416 C136.049426,33.416 135.665426,33.188 135.665426,32.588 C135.665426,31.964 136.049426,31.796 136.469426,31.796 C136.913426,31.796 137.285426,31.964 137.285426,32.588 C137.285426,33.188 136.913426,33.416 136.469426,33.416 Z M138.149426,40.28 L138.149426,41 L134.813426,41 L134.813426,40.28 L135.833426,40.16 L135.833426,35.768 L134.813426,35.648 L134.813426,34.904 L137.129426,34.904 L137.129426,40.16 L138.149426,40.28 Z" id="path-1"></path>
        <filter x="-7.6%" y="-35.7%" width="115.2%" height="242.9%" filterUnits="objectBoundingBox" id="filter-2">
            <feOffset dx="0" dy="5" in="SourceAlpha" result="shadowOffsetOuter1"></feOffset>
            <feGaussianBlur stdDeviation="2" in="shadowOffsetOuter1" result="shadowBlurOuter1"></feGaussianBlur>
            <feColorMatrix values="0 0 0 0 0   0 0 0 0 0   0 0 0 0 0  0 0 0 1 0" type="matrix" in="shadowBlurOuter1"></feColorMatrix>
        </filter>
        <path d="M11.5871446,6.14642066 L11.3071446,3.20642066 C10.3671446,2.90642066 9.42714458,2.78642066 8.40714458,2.78642066 C5.20714458,2.78642066 3.26714458,5.08642066 3.26714458,8.82642066 C3.26714458,12.6464207 5.34714458,14.7064207 9.22714458,14.7064207 C10.6471446,14.7064207 12.2471446,14.4464207 13.4471446,14.0464207 L13.4471446,15.7864207 C11.8471446,16.3464207 10.2071446,16.5664207 8.60714458,16.5664207 C3.62714458,16.5664207 0.847144575,13.7264207 0.847144575,8.86642066 C0.847144575,4.22642066 4.02714458,1.04642066 8.80714458,1.04642066 C10.3671446,1.04642066 11.8071446,1.28642066 13.3471446,1.74642066 L13.3471446,6.14642066 L11.5871446,6.14642066 Z M30.04143,15.1664207 L30.04143,16.3664207 L24.78143,16.3664207 L24.78143,15.1664207 L26.22143,14.9664207 L26.22143,10.1664207 C26.22143,8.48642066 25.54143,7.78642066 24.16143,7.78642066 C23.28143,7.78642066 22.38143,8.20642066 21.76143,8.86642066 L21.76143,14.9664207 L23.16143,15.1664207 L23.16143,16.3664207 L17.96143,16.3664207 L17.96143,15.1664207 L19.62143,14.9664207 L19.62143,2.58642066 L17.78143,2.58642066 L17.78143,1.20642066 L21.76143,0.766420664 L21.76143,7.46642066 C22.70143,6.46642066 23.80143,6.02642066 25.04143,6.02642066 C27.28143,6.02642066 28.40143,7.26642066 28.40143,9.68642066 L28.40143,14.9664207 L30.04143,15.1664207 Z M38.7757155,5.46642066 L37.6557155,4.80642066 L39.5157155,1.62642066 L41.5957155,2.20642066 L38.7757155,5.46642066 Z M42.3957155,9.48642066 L42.3957155,13.3464207 C42.3957155,14.4264207 42.6757155,14.7664207 43.6357155,14.7664207 C43.7957155,14.7664207 43.9757155,14.7464207 44.1157155,14.7264207 L44.1157155,16.1064207 C43.7357155,16.2664207 43.0557155,16.3664207 42.4757155,16.3664207 C41.3757155,16.3664207 40.6957155,15.9064207 40.4557155,15.0864207 C39.6157155,16.0864207 38.5357155,16.5664207 37.1357155,16.5664207 C35.1357155,16.5664207 33.9557155,15.5464207 33.9557155,13.8064207 C33.9557155,11.5464207 35.6957155,10.5864207 40.2357155,10.3264207 L40.2357155,9.70642066 C40.2357155,8.22642066 39.5757155,7.58642066 38.0957155,7.58642066 C37.5357155,7.58642066 37.0557155,7.68642066 36.5557155,7.88642066 L36.3757155,9.62642066 L34.7957155,9.62642066 L34.7957155,7.16642066 C35.9957155,6.42642066 37.3157155,6.02642066 38.5157155,6.02642066 C41.0357155,6.02642066 42.3957155,7.22642066 42.3957155,9.48642066 Z M40.2357155,13.8864207 L40.2357155,11.7464207 C37.3957155,11.8464207 36.1757155,12.4064207 36.1757155,13.5864207 C36.1757155,14.5064207 36.7757155,15.0064207 37.8557155,15.0064207 C38.8757155,15.0064207 39.6157155,14.6664207 40.2357155,13.8864207 Z M50.0500009,13.3664207 C50.9300009,13.3664207 51.6500009,14.0864207 51.6500009,14.9864207 C51.6500009,15.8664207 50.9300009,16.5664207 50.0500009,16.5664207 C49.1500009,16.5664207 48.4500009,15.8664207 48.4500009,14.9864207 C48.4500009,14.0864207 49.1500009,13.3664207 50.0500009,13.3664207 Z M62.8642864,9.78642066 L62.6642864,7.78642066 C62.1242864,7.60642066 61.6442864,7.54642066 61.0242864,7.54642066 C59.1642864,7.54642066 58.2042864,8.92642066 58.2042864,11.3264207 C58.2042864,13.6864207 59.4442864,14.9264207 61.8642864,14.9264207 C62.8042864,14.9264207 63.7042864,14.7864207 64.5642864,14.4864207 L64.5642864,16.0864207 C63.3242864,16.4464207 62.5242864,16.5664207 61.3442864,16.5664207 C57.8042864,16.5664207 55.9842864,14.8864207 55.9842864,11.6064207 C55.9842864,8.10642066 57.9842864,6.00642066 61.2242864,6.00642066 C62.4442864,6.00642066 63.6442864,6.18642066 64.4642864,6.50642066 L64.4642864,9.78642066 L62.8642864,9.78642066 Z M75.2385718,9.56642066 L75.0785718,7.82642066 C74.4785718,7.58642066 73.8385718,7.50642066 73.1185718,7.50642066 C72.0185718,7.50642066 71.3985718,7.96642066 71.3985718,8.82642066 C71.3985718,9.64642066 72.0385718,10.0064207 73.9385718,10.4064207 C76.5385718,10.9464207 77.4385718,11.6864207 77.4385718,13.3864207 C77.4385718,15.3464207 75.8585718,16.5664207 73.2585718,16.5664207 C70.3785718,16.5664207 69.0985718,15.5464207 69.0985718,13.5664207 L69.0985718,13.0264207 L71.1385718,13.0264207 L71.1385718,13.4464207 C71.1385718,14.4064207 71.8585718,15.0464207 73.3985718,15.0464207 C74.7785718,15.0464207 75.3585718,14.5264207 75.3585718,13.6864207 C75.3585718,12.9064207 74.7585718,12.4664207 73.0385718,12.1464207 C70.4385718,11.6464207 69.3985718,10.7464207 69.3985718,9.12642066 C69.3985718,7.18642066 70.7985718,6.00642066 73.4585718,6.00642066 C74.5185718,6.00642066 75.8585718,6.20642066 76.8185718,6.48642066 L76.8185718,9.56642066 L75.2385718,9.56642066 Z M85.4928573,15.1864207 L87.8328573,15.1864207 C90.2328573,15.1864207 91.5128573,16.3264207 91.5128573,18.0264207 C91.5128573,20.4064207 89.4328573,21.7664207 86.0528573,21.7664207 C82.8128573,21.7664207 81.0728573,20.8864207 81.0728573,19.0864207 C81.0728573,18.1464207 81.6528573,17.3864207 82.8128573,16.6864207 C82.1928573,16.2864207 81.8328573,15.6864207 81.8328573,14.8864207 C81.8328573,14.0264207 82.3128573,13.2864207 83.3528573,12.6064207 C82.4928573,11.9864207 81.9928573,11.0464207 81.9928573,9.84642066 C81.9928573,7.38642066 83.5328573,6.00642066 86.2328573,6.00642066 C86.9128573,6.00642066 87.5128573,6.10642066 88.0528573,6.26642066 C88.7128573,5.10642066 89.7728573,4.46642066 91.3928573,4.46642066 L91.3928573,6.20642066 C90.1728573,6.20642066 89.4928573,6.40642066 89.0528573,6.74642066 C89.9528573,7.34642066 90.4528573,8.30642066 90.4528573,9.50642066 C90.4528573,12.0064207 88.9328573,13.3664207 86.2128573,13.3664207 C85.5328573,13.3664207 84.9128573,13.2664207 84.3728573,13.1064207 C83.9728573,13.4464207 83.7728573,13.8064207 83.7728573,14.2064207 C83.7728573,14.9064207 84.3728573,15.1864207 85.4928573,15.1864207 Z M86.1528573,7.30642066 C84.8928573,7.30642066 84.1728573,8.04642066 84.1728573,9.60642066 C84.1728573,11.2664207 84.9128573,12.0864207 86.2728573,12.0864207 C87.5728573,12.0864207 88.2728573,11.3064207 88.2728573,9.72642066 C88.2728573,8.06642066 87.5528573,7.30642066 86.1528573,7.30642066 Z M87.0928573,17.1664207 L84.7528573,17.1664207 C84.4128573,17.1664207 84.1128573,17.1264207 83.8328573,17.0664207 C83.3528573,17.4864207 83.1128573,17.9264207 83.1128573,18.4664207 C83.1128573,19.6464207 84.0928573,20.3264207 86.1728573,20.3264207 C87.7928573,20.3264207 89.1728573,19.9064207 89.1728573,18.5464207 C89.1728573,17.6864207 88.5328573,17.1664207 87.0928573,17.1664207 Z M100.287143,6.00642066 C103.387143,6.00642066 105.207143,7.96642066 105.207143,11.0464207 C105.207143,14.9664207 103.147143,16.5664207 100.267143,16.5664207 C97.1671427,16.5664207 95.3471427,14.5864207 95.3471427,11.5064207 C95.3471427,7.58642066 97.4071427,6.00642066 100.287143,6.00642066 Z M100.367143,15.0464207 C102.147143,15.0464207 102.967143,13.7064207 102.967143,11.3864207 C102.967143,8.86642066 102.087143,7.52642066 100.187143,7.52642066 C98.4271427,7.52642066 97.5671427,8.84642066 97.5671427,11.1664207 C97.5671427,13.6864207 98.4871427,15.0464207 100.367143,15.0464207 Z M110.941428,13.3664207 C111.821428,13.3664207 112.541428,14.0864207 112.541428,14.9864207 C112.541428,15.8664207 111.821428,16.5664207 110.941428,16.5664207 C110.041428,16.5664207 109.341428,15.8664207 109.341428,14.9864207 C109.341428,14.0864207 110.041428,13.3664207 110.941428,13.3664207 Z M120.255714,0.766420664 L120.255714,13.5864207 C120.255714,14.5664207 120.555714,14.8664207 121.535714,14.8664207 C121.715714,14.8664207 122.055714,14.8464207 122.255714,14.8064207 L122.255714,16.2664207 C121.755714,16.4264207 121.215714,16.4664207 120.715714,16.4664207 C118.915714,16.4664207 118.115714,15.7464207 118.115714,14.0464207 L118.115714,2.58642066 L116.275714,2.58642066 L116.275714,1.20642066 L120.255714,0.766420664 Z M128.449999,3.72642066 C127.749999,3.72642066 127.109999,3.34642066 127.109999,2.34642066 C127.109999,1.30642066 127.749999,1.02642066 128.449999,1.02642066 C129.189999,1.02642066 129.809999,1.30642066 129.809999,2.34642066 C129.809999,3.34642066 129.189999,3.72642066 128.449999,3.72642066 Z M131.249999,15.1664207 L131.249999,16.3664207 L125.689999,16.3664207 L125.689999,15.1664207 L127.389999,14.9664207 L127.389999,7.64642066 L125.689999,7.44642066 L125.689999,6.20642066 L129.549999,6.20642066 L129.549999,14.9664207 L131.249999,15.1664207 Z M147.364285,15.1664207 L147.364285,16.3664207 L142.104285,16.3664207 L142.104285,15.1664207 L143.544285,14.9664207 L143.544285,10.1664207 C143.544285,8.48642066 142.844285,7.78642066 141.484285,7.78642066 C140.584285,7.78642066 139.704285,8.20642066 139.084285,8.86642066 L139.084285,14.9664207 L140.524285,15.1664207 L140.524285,16.3664207 L135.284285,16.3664207 L135.284285,15.1664207 L136.924285,14.9664207 L136.924285,7.64642066 L135.284285,7.44642066 L135.284285,6.20642066 L138.884285,6.20642066 L138.884285,7.66642066 C139.864285,6.52642066 141.024285,6.02642066 142.364285,6.02642066 C144.584285,6.02642066 145.724285,7.26642066 145.724285,9.68642066 L145.724285,14.9664207 L147.364285,15.1664207 Z M155.17857,14.9264207 L156.93857,15.1464207 L156.93857,16.3664207 L151.29857,16.3664207 L151.29857,15.1464207 L153.03857,14.9264207 L153.03857,2.58642066 L151.19857,2.58642066 L151.19857,1.20642066 L155.17857,0.766420664 L155.17857,14.9264207 Z M157.83857,10.8664207 L160.45857,13.7864207 C161.29857,14.7064207 161.79857,15.0464207 162.61857,15.1064207 L162.61857,16.3664207 L161.75857,16.3664207 C160.39857,16.3664207 159.69857,16.1664207 158.95857,15.3064207 L155.41857,11.2864207 L158.71857,7.68642066 L156.85857,7.46642066 L156.85857,6.20642066 L162.45857,6.20642066 L162.45857,7.46642066 L161.21857,7.66642066 L157.83857,10.8664207 Z" id="path-3"></path>
        <filter x="-5.3%" y="-21.4%" width="110.5%" height="185.7%" filterUnits="objectBoundingBox" id="filter-4">
            <feOffset dx="0" dy="5" in="SourceAlpha" result="shadowOffsetOuter1"></feOffset>
            <feGaussianBlur stdDeviation="2" in="shadowOffsetOuter1" result="shadowBlurOuter1"></feGaussianBlur>
            <feColorMatrix values="0 0 0 0 0   0 0 0 0 0   0 0 0 0 0  0 0 0 1 0" type="matrix" in="shadowBlurOuter1"></feColorMatrix>
        </filter>
    </defs>
    <g id="Page-1" stroke="none" stroke-width="1" fill="none" fill-rule="evenodd" opacity="0.635658482">
        <g id="PC-1080P" transform="translate(-870.000000, -1003.000000)">
            <g id="foot" transform="translate(873.000000, 1003.000000)">
                <g id="Power-by-Wi-Fi" opacity="0.607087054">
                    <use fill="black" fill-opacity="1" filter="url(#filter-2)" xlink:href="#path-1"></use>
                    <use fill="#FFFFFF" fill-rule="evenodd" xlink:href="#path-1"></use>
                </g>
                <g id="Chá.csgo.link" opacity="0.607087054">
                    <use fill="black" fill-opacity="1" filter="url(#filter-4)" xlink:href="#path-3"></use>
                    <use fill="#FFFFFF" fill-rule="evenodd" xlink:href="#path-3"></use>
                    <use fill="#FFFFFF" fill-rule="evenodd" xlink:href="#path-3"></use>
                </g>
            </g>
        </g>
    </g>
</svg>