<svg xmlns="http://www.w3.org/2000/svg" width="250" height="80" viewBox="0 0 250 80">
  <g fill="#FFFFFF" fill-rule="evenodd" transform="translate(18 14)">
    <g fill-rule="nonzero" transform="translate(85.409 24.98)">
      <path d="M16.4779973,18.7379388 L16.3857192,18.8242904 C16.3726799,18.8365264 15.044343,20.0527899 12.0998016,20.0527899 C7.85133024,20.0527899 4.2625137,15.9467208 4.2625137,11.086911 C4.2625137,6.22675152 7.85133024,2.12068243 12.0998016,2.12068243 C14.2439306,2.12068243 16.0075795,2.93210741 17.4903819,4.60110475 L18.0500688,5.23073698 L18.0500688,1.0564956 L17.8340845,0.976786466 C17.7682193,0.953013567 16.1774247,0.38665921 12.0998016,0.38665921 C5.53869339,0.38665921 0.200938955,5.18668719 0.200938955,11.0872606 C0.200938955,17.487764 4.98268427,21.7875123 12.0998016,21.7875123 C16.2750523,21.7875123 17.9243566,19.3703678 17.9925622,19.2672354 L18.3436202,18.7372396 L16.4779973,18.7379388 Z"/>
      <polygon points="85.903 21.787 88.572 21.787 88.572 8.006 85.903 5.137"/>
      <path d="M34.8674223.385960007C29.0047524.385960007 24.2350434 5.18598799 24.2350434 11.0865614 24.2350434 16.9867851 29.0047524 21.7868131 34.8674223 21.7868131 40.7300921 21.7868131 45.4998011 16.9867851 45.4998011 11.0865614 45.4998011 5.18633759 40.7300921.385960007 34.8674223.385960007zM41.4382264 11.086911C41.4382264 16.0309747 38.4906759 20.0527899 34.8674223 20.0527899 31.2441686 20.0527899 28.2966181 16.0306251 28.2966181 11.086911 28.2966181 6.14319677 31.2441686 2.12068243 34.8674223 2.12068243 38.4906759 2.12068243 41.4382264 6.14284717 41.4382264 11.086911zM58.8687613.387008811L58.8664209.387008811C58.8289747.383512797 57.9336095.305551672 56.5604709.305551672 55.754709.305551672 54.9519562.332820586 54.1749477.38665921 51.3059674.585582438 49.5533517.856523566 49.535966.859320377L49.260469.902321356 49.260469 2.4496574 49.5944757 2.43777095C49.622226 2.43672214 52.3979251 2.33813453 53.7155631 2.33813453 55.0308607 2.33813453 57.1198234 2.43672214 57.1455677 2.43777095 62.2656661 2.60068523 65.4094747 7.58530278 65.4094747 11.086911 65.4094747 16.0309747 62.4619243 20.0527899 58.8380019 20.0527899L55.7463505 20.0611803 55.7463505 5.22654176 51.6847757 5.22654176 51.6847757 21.7871627 58.8390049 21.7871627C64.7016748 21.7871627 69.4710495 16.9871347 69.4710495 11.086911 69.4713838 5.18703679 64.7030121.387008811 58.8687613.387008811zM124.546378 10.7491959L124.546378 19.5692911C123.797788 19.7846456 121.999368 20.0527899 121.209654 20.0527899 116.961517 20.0527899 113.372366 15.9467208 113.372366 11.086911 113.372366 6.22675152 116.961517 2.12068243 121.209654 2.12068243 123.353783 2.12068243 125.117432 2.93210741 126.600234 4.60110475L127.159921 5.23073698 127.159921 1.0564956 126.943937.976786466C126.878072.953013567 125.287277.38665921 121.209654.38665921 114.648546.38665921 109.310791 5.18668719 109.310791 11.0872606 109.310791 17.487764 114.092537 21.7875123 121.209654 21.7875123 128.141881 21.7875123 128.590232 18.3715565 128.605946 18.2261223L128.607952 10.7491959 124.546378 10.7491959z"/>
      <polygon points="100.478 15.003 89.323 .386 85.903 .386 85.903 2.533 100.772 21.519 100.772 21.787 103.126 21.787 103.126 .386 100.478 .386"/>
      <rect width="4.061" height="1.226" x="75.657" y="3.205"/>
      <rect width="4.061" height="1" x="75.657" y=".386"/>
      <rect width="4.061" height="1.062" x="75.657" y="1.663"/>
      <rect width="4.061" height="16.832" x="75.657" y="4.955"/>
    </g>
    <path d="M87.216,5.216 L87.216,16 L88.608,16 L88.608,10.944 L93.824,10.944 L93.824,16 L95.232,16 L95.232,5.216 L93.824,5.216 L93.824,9.728 L88.608,9.728 L88.608,5.216 L87.216,5.216 Z M100.88,8.08 C103.104,8.08 104.608,9.696 104.608,12.064 C104.608,14.928 102.624,16.176 100.752,16.176 C98.656,16.176 97.04,14.64 97.04,12.192 C97.04,9.6 98.736,8.08 100.88,8.08 Z M100.848,9.136 C99.184,9.136 98.464,10.672 98.464,12.144 C98.464,13.84 99.44,15.12 100.816,15.12 C102.16,15.12 103.168,13.856 103.168,12.112 C103.168,10.8 102.512,9.136 100.848,9.136 Z M105.84,15.632 C106.384,15.952 107.168,16.16 108.016,16.16 C109.856,16.16 110.912,15.2 110.912,13.84 C110.912,12.688 110.224,12.016 108.88,11.504 C107.872,11.12 107.408,10.832 107.408,10.192 C107.408,9.616 107.872,9.136 108.704,9.136 C109.424,9.136 109.984,9.392 110.288,9.584 L110.64,8.56 C110.208,8.304 109.52,8.08 108.736,8.08 C107.072,8.08 106.064,9.104 106.064,10.352 C106.064,11.28 106.72,12.048 108.112,12.544 C109.152,12.928 109.552,13.296 109.552,13.968 C109.552,14.608 109.072,15.12 108.048,15.12 C107.344,15.12 106.608,14.832 106.192,14.56 L105.84,15.632 Z M113.04,6.4 L113.04,8.256 L111.84,8.256 L111.84,9.328 L113.04,9.328 L113.04,13.552 C113.04,14.464 113.184,15.152 113.584,15.568 C113.92,15.952 114.448,16.16 115.104,16.16 C115.648,16.16 116.08,16.08 116.352,15.968 L116.288,14.912 C116.112,14.96 115.84,15.008 115.472,15.008 C114.688,15.008 114.416,14.464 114.416,13.504 L114.416,9.328 L116.432,9.328 L116.432,8.256 L114.416,8.256 L114.416,6.032 L113.04,6.4 Z M124.24,12.384 L118.8,12.384 C118.832,14.288 120.048,15.072 121.456,15.072 C122.464,15.072 123.072,14.896 123.6,14.672 L123.84,15.68 C123.344,15.904 122.496,16.16 121.264,16.16 C118.88,16.16 117.456,14.592 117.456,12.256 C117.456,9.92 118.832,8.08 121.088,8.08 C123.616,8.08 124.288,10.304 124.288,11.728 C124.288,12.016 124.256,12.24 124.24,12.384 Z M118.816,11.376 L122.928,11.376 C122.944,10.48 122.56,9.088 120.976,9.088 C119.552,9.088 118.928,10.4 118.816,11.376 Z M131.312,4.64 L132.72,4.64 L132.72,14 C132.72,14.688 132.736,15.472 132.784,16 L131.52,16 L131.456,14.656 L131.424,14.656 C130.992,15.52 130.048,16.176 128.784,16.176 C126.912,16.176 125.472,14.592 125.472,12.24 C125.456,9.664 127.056,8.08 128.944,8.08 C130.128,8.08 130.928,8.64 131.28,9.264 L131.312,9.264 L131.312,4.64 Z M131.312,12.752 L131.312,11.408 C131.312,11.232 131.296,10.992 131.248,10.816 C131.04,9.92 130.272,9.184 129.216,9.184 C127.76,9.184 126.896,10.464 126.896,12.176 C126.896,13.744 127.664,15.04 129.184,15.04 C130.128,15.04 130.992,14.416 131.248,13.36 C131.296,13.168 131.312,12.976 131.312,12.752 Z M139.6,16 L138.384,16 C138.416,15.472 138.448,14.688 138.448,14 L138.448,4.64 L139.84,4.64 L139.84,9.504 L139.872,9.504 C140.368,8.64 141.264,8.08 142.512,8.08 C144.432,8.08 145.792,9.68 145.776,12.032 C145.776,14.8 144.032,16.176 142.304,16.176 C141.184,16.176 140.288,15.744 139.712,14.72 L139.664,14.72 L139.6,16 Z M139.84,11.504 L139.84,12.896 C139.84,13.072 139.872,13.248 139.904,13.408 C140.176,14.384 140.992,15.056 142.016,15.056 C143.488,15.056 144.368,13.856 144.368,12.08 C144.368,10.528 143.568,9.2 142.064,9.2 C141.104,9.2 140.208,9.856 139.92,10.928 C139.888,11.088 139.84,11.28 139.84,11.504 Z M146.528,8.256 L149.392,15.392 C149.456,15.568 149.488,15.68 149.488,15.76 C149.488,15.84 149.44,15.952 149.376,16.096 C149.056,16.816 148.576,17.36 148.192,17.664 C147.776,18.016 147.312,18.24 146.96,18.352 L147.312,19.536 C147.664,19.472 148.352,19.232 149.04,18.624 C150,17.792 150.688,16.432 151.696,13.776 L153.808,8.256 L152.32,8.256 L150.784,12.8 C150.592,13.36 150.432,13.952 150.288,14.416 L150.256,14.416 C150.128,13.952 149.936,13.344 149.76,12.832 L148.064,8.256 L146.528,8.256 Z"/>
    <path fill-rule="nonzero" d="M66.950058,21.9833306 C65.0442599,21.9833306 63.373995,23.1936522 62.440211,25.0089148 C59.2631484,18.1112692 52.654155,11.720894 44.486072,9.08951128 C40.0786117,7.32880343 36.983722,3.94949384 36.6014199,0 C36.2186783,3.94949384 33.1237887,7.32880343 28.7167678,9.08951128 C20.5486847,11.720894 13.9396914,18.1112692 10.7626287,25.0089148 C9.82884477,23.1936522 8.15857989,21.9833306 6.25278174,21.9833306 C3.32619292,21.9833306 0.95328307,24.8360117 0.95328307,28.3543477 C0.95328307,31.8731236 3.32575349,34.7258047 6.25278174,34.7258047 C7.14306236,34.7258047 7.98149051,34.4605106 8.71797142,33.9941562 C8.96976352,45.4193991 21.3510798,52.835754 36.6018593,52.8555521 C51.8526388,52.835754 64.2339551,45.4193991 64.4857472,33.9941562 C65.2222281,34.4605106 66.0606563,34.7258047 66.9509369,34.7258047 C69.8775257,34.7258047 72.2504355,31.8731236 72.2504355,28.3543477 C72.2491173,24.8360117 69.8766468,21.9833306 66.950058,21.9833306 Z M8.66172466,30.345593 C8.41388741,31.2629033 7.3100449,31.6535851 6.19697441,31.2184676 C5.08346449,30.7833502 4.38169838,29.6874173 4.62953563,28.770107 C4.87737288,27.8527967 5.98121539,27.4621149 7.09472531,27.8972324 C8.2077958,28.3323498 8.90956191,29.4282827 8.66172466,30.345593 Z M36.6009804,49.675103 C24.3690696,49.6557449 14.4630498,43.8843892 14.4630498,35.6219971 C14.4630498,35.449094 14.4692018,35.2775108 14.4775509,35.1063675 C14.4801875,35.050053 14.4832635,34.9937385 14.4872183,34.937424 C14.4946886,34.8203954 14.5052349,34.7042468 14.51666,34.5885381 C14.5324794,34.4332333 14.5504959,34.2779285 14.5733462,34.1239435 C14.5755433,34.108545 14.5777405,34.0931466 14.5799376,34.078188 C14.8260171,32.4543068 15.456596,29.9760291 16.4088359,28.5479287 C18.6960573,25.2350527 22.776144,23.0282284 27.4310022,23.0282284 C31.014096,23.0282284 34.2544363,24.3384203 36.6014199,26.4515337 C38.9484035,24.3384203 42.1887437,23.0282284 45.7718376,23.0282284 C50.4266958,23.0282284 54.506343,25.2350527 56.7940039,28.5479287 C57.7462438,29.9760291 58.3763832,32.4543068 58.6229022,34.078188 C58.6250993,34.0935865 58.6272964,34.108545 58.6294936,34.1239435 C58.6523438,34.2779285 58.6703603,34.4332333 58.6861797,34.5885381 C58.6976049,34.7046868 58.7081511,34.8208354 58.7156214,34.937424 C58.7191368,34.9937385 58.7222128,35.050053 58.7252888,35.1063675 C58.7336379,35.2775108 58.7397899,35.449094 58.7397899,35.6219971 C58.7393505,43.8843892 48.8333307,49.6561849 36.6009804,49.675103 Z M67.0058653,31.2184676 C65.8923554,31.6535851 64.7889523,31.2624633 64.5406757,30.345593 C64.292399,29.4287226 64.9946045,28.3323498 66.1081144,27.8972324 C67.2216244,27.4621149 68.3250274,27.8532367 68.5733041,28.770107 C68.8207019,29.6874173 68.1189358,30.7837901 67.0058653,31.2184676 Z M22.7664751,32.3517968 C22.1248048,32.3517968 21.6046281,31.7263998 21.6046281,30.9549334 C21.6046281,30.183467 22.1248048,29.55807 22.7664751,29.55807 C23.4081455,29.55807 23.9283221,30.183467 23.9283221,30.9549334 C23.9283221,31.7263998 23.4081455,32.3517968 22.7664751,32.3517968 Z M50.4372419,32.3539794 C49.7955716,32.3539794 49.2753949,31.7285824 49.2753949,30.957116 C49.2753949,30.1856496 49.7955716,29.5602526 50.4372419,29.5602526 C51.0789123,29.5602526 51.5990889,30.1856496 51.5990889,30.957116 C51.5990889,31.7285824 51.0789123,32.3539794 50.4372419,32.3539794 Z"/>
  </g>
</svg>
