<?xml version="1.0" encoding="UTF-8"?>
<svg width="59px" height="60px" viewBox="0 0 59 60" version="1.1" xmlns="http://www.w3.org/2000/svg" xmlns:xlink="http://www.w3.org/1999/xlink">
    <!-- Generator: Sketch 50.2 (55047) - http://www.bohemiancoding.com/sketch -->
    <title>Music</title>
    <desc>Created with Sketch.</desc>
    <defs>
        <linearGradient x1="39.4218249%" y1="0%" x2="39.4218236%" y2="100%" id="linearGradient-1">
            <stop stop-color="#FFFFFF" offset="0%"></stop>
            <stop stop-color="#D4D4D4" offset="100%"></stop>
        </linearGradient>
        <path d="M1038.68374,143.603558 L1045.37932,140.429722 C1046.00657,140.120155 1046.26948,139.36461 1045.96987,138.732531 C1045.67027,138.100452 1044.91898,137.825629 1044.28224,138.115191 L1036.85457,141.636079 C1036.40746,141.848014 1036.12245,142.298552 1036.12247,142.793344 L1036.12247,152.371625 C1035.13165,151.682285 1033.95333,151.313248 1032.7463,151.314249 C1029.47236,151.314249 1026.80864,153.977753 1026.80864,157.251904 C1026.80864,160.525843 1029.47215,163.189346 1032.7463,163.189346 C1036.02024,163.189346 1038.68374,160.525843 1038.68374,157.251904 L1038.68374,143.603558 Z M1032.74608,160.628293 C1030.88426,160.628293 1029.3697,159.113731 1029.3697,157.252118 C1029.3697,155.390504 1030.88426,153.875942 1032.74608,153.875942 C1034.60791,153.875942 1036.12247,155.390291 1036.12247,157.251904 C1036.12247,159.113518 1034.60791,160.628293 1032.74608,160.628293 Z M1027.32965,152.057657 C1027.81629,151.846779 1028.03976,151.281166 1027.82867,150.794526 C1027.61758,150.307885 1027.05218,150.084201 1026.56554,150.295506 C1025.24627,150.867522 1024.22859,151.918922 1023.70033,153.256543 C1023.17186,154.594164 1023.19598,156.057287 1023.76821,157.376553 C1023.97936,157.86312 1024.54482,158.086573 1025.03155,157.875786 C1025.26526,157.774432 1025.44913,157.58439 1025.54271,157.347466 C1025.6363,157.110542 1025.63193,156.846145 1025.53057,156.612442 C1025.16275,155.770347 1025.14707,154.816108 1025.48703,153.962385 C1025.82198,153.106727 1026.48556,152.420783 1027.32965,152.057657 Z M1024.216,148.957671 C1024.53082,148.821138 1024.74888,148.527023 1024.78805,148.186118 C1024.82721,147.845212 1024.68153,147.509308 1024.40588,147.304935 C1024.13023,147.100563 1023.76649,147.058773 1023.45168,147.195307 C1019.37777,148.962367 1017.50057,153.714369 1019.26721,157.78849 C1019.47836,158.275057 1020.04383,158.49851 1020.53055,158.287723 C1020.76426,158.186369 1020.94813,157.996327 1021.04171,157.759403 C1021.1353,157.522479 1021.13093,157.258082 1021.02957,157.024379 C1019.68427,153.922045 1021.11367,150.303403 1024.216,148.957671 Z M1042.48082,157.500988 C1042.36834,157.176754 1042.09143,156.937155 1041.7544,156.872444 C1041.41737,156.807734 1041.07142,156.927743 1040.84686,157.187267 C1040.6223,157.44679 1040.55326,157.806399 1040.66573,158.130632 C1041.29154,159.934617 1040.33298,161.911274 1038.52921,162.53729 C1038.2008,162.646513 1037.95654,162.923979 1037.88985,163.263591 C1037.82315,163.603203 1037.94433,163.952435 1038.20704,164.177749 C1038.46975,164.403064 1038.83337,164.469612 1039.15885,164.351947 C1041.96323,163.37888 1043.45346,160.305574 1042.48082,157.500988 Z M1046.86976,157.696498 C1046.68657,157.208492 1046.1477,156.955536 1045.65523,157.12637 C1045.16276,157.297205 1044.89631,157.829525 1045.05468,158.326142 C1045.59169,159.873574 1045.49372,161.537756 1044.77891,163.011765 C1044.06411,164.485774 1042.81826,165.593308 1041.27062,166.129893 C1040.94638,166.242368 1040.70679,166.519276 1040.64207,166.856308 C1040.57736,167.19334 1040.69737,167.539293 1040.9569,167.76385 C1041.21642,167.988407 1041.57603,168.057452 1041.90026,167.944977 C1043.93263,167.239988 1045.56885,165.785616 1046.50734,163.849512 C1047.44583,161.914049 1047.57453,159.728862 1046.86976,157.696498 Z" id="path-2"></path>
        <filter x="-97.5%" y="-66.7%" width="295.0%" height="286.7%" filterUnits="objectBoundingBox" id="filter-3">
            <feOffset dx="0" dy="8" in="SourceAlpha" result="shadowOffsetOuter1"></feOffset>
            <feGaussianBlur stdDeviation="8" in="shadowOffsetOuter1" result="shadowBlurOuter1"></feGaussianBlur>
            <feColorMatrix values="0 0 0 0 0   0 0 0 0 0   0 0 0 0 0  0 0 0 1 0" type="matrix" in="shadowBlurOuter1"></feColorMatrix>
        </filter>
    </defs>
    <g id="Page-1" stroke="none" stroke-width="1" fill="none" fill-rule="evenodd">
        <g id="PC-1080P" transform="translate(-1003.000000, -131.000000)" fill-rule="nonzero">
            <g id="Music">
                <use fill="black" fill-opacity="1" filter="url(#filter-3)" xlink:href="#path-2"></use>
                <use fill="url(#linearGradient-1)" fill-rule="evenodd" xlink:href="#path-2"></use>
            </g>
        </g>
    </g>
</svg>