<?xml version="1.0" encoding="UTF-8"?>
<svg width="204px" height="12px" viewBox="0 0 204 12" version="1.1" xmlns="http://www.w3.org/2000/svg" xmlns:xlink="http://www.w3.org/1999/xlink">
    <!-- Generator: Sketch 49.2 (51160) - http://www.bohemiancoding.com/sketch -->
    <title>Copyright 2018 All R</title>
    <desc>Created with Sketch.</desc>
    <defs></defs>
    <g id="Page-1" stroke="none" stroke-width="1" fill="none" fill-rule="evenodd">
        <g id="Desktop" transform="translate(-410.000000, -939.000000)" fill="#828282">
            <path d="M414.801999,939.264 C415.749999,939.264 416.553999,939.516 417.201999,940.02 C417.849999,940.524 418.233999,941.208 418.353999,942.06 L417.405999,942.06 C417.285999,941.436 416.973999,940.956 416.493999,940.62 C416.025999,940.296 415.461999,940.14 414.789999,940.14 C413.793999,940.14 413.025999,940.488 412.485999,941.184 C411.981999,941.832 411.729999,942.684 411.729999,943.752 C411.729999,944.82 411.969999,945.672 412.473999,946.296 C413.001999,946.956 413.757999,947.292 414.765999,947.292 C415.449999,947.292 416.025999,947.112 416.505999,946.752 C417.009999,946.368 417.357999,945.804 417.525999,945.06 L418.473999,945.06 C418.281999,946.056 417.837999,946.836 417.129999,947.388 C416.469999,947.904 415.677999,948.168 414.765999,948.168 C413.433999,948.168 412.413999,947.724 411.705999,946.848 C411.057999,946.056 410.745999,945.024 410.745999,943.752 C410.745999,942.48 411.069999,941.436 411.729999,940.62 C412.449999,939.708 413.481999,939.264 414.801999,939.264 Z M422.722,941.628 C423.646,941.628 424.39,941.94 424.942,942.588 C425.47,943.2 425.734,943.968 425.734,944.904 C425.734,945.828 425.47,946.596 424.954,947.196 C424.39,947.844 423.646,948.168 422.722,948.168 C421.786,948.168 421.054,947.844 420.502,947.196 C419.974,946.596 419.71,945.828 419.71,944.904 C419.71,943.968 419.974,943.2 420.502,942.588 C421.054,941.94 421.786,941.628 422.722,941.628 Z M422.722,942.432 C422.062,942.432 421.546,942.684 421.186,943.188 C420.85,943.644 420.694,944.208 420.694,944.904 C420.694,945.588 420.85,946.152 421.186,946.608 C421.546,947.112 422.062,947.364 422.722,947.364 C423.37,947.364 423.886,947.112 424.27,946.608 C424.594,946.152 424.762,945.576 424.762,944.904 C424.762,944.208 424.594,943.644 424.27,943.188 C423.886,942.684 423.37,942.432 422.722,942.432 Z M430.174,941.628 C431.062,941.628 431.77,941.952 432.286,942.624 C432.754,943.224 432.994,943.98 432.994,944.916 C432.994,945.828 432.754,946.584 432.298,947.184 C431.794,947.832 431.11,948.168 430.222,948.168 C429.334,948.168 428.65,947.736 428.17,946.872 L428.17,950.376 L427.21,950.376 L427.21,941.796 L428.11,941.796 L428.11,942.816 C428.554,942.024 429.238,941.628 430.174,941.628 Z M430.054,942.42 C429.43,942.42 428.938,942.66 428.602,943.152 C428.29,943.584 428.134,944.16 428.134,944.856 L428.134,944.976 C428.134,945.696 428.302,946.272 428.662,946.716 C428.998,947.148 429.442,947.376 430.018,947.376 C430.69,947.376 431.194,947.136 431.542,946.68 C431.854,946.248 432.01,945.66 432.01,944.916 C432.01,944.184 431.854,943.596 431.566,943.164 C431.218,942.66 430.714,942.42 430.054,942.42 Z M433.786,941.796 L434.83,941.796 L436.726,946.692 L438.562,941.796 L439.618,941.796 L436.222,950.376 L435.178,950.376 L436.246,947.856 L433.786,941.796 Z M443.374,941.628 C443.71,941.628 443.998,941.676 444.226,941.772 L444.226,942.732 C443.914,942.636 443.602,942.6 443.302,942.6 C442.822,942.6 442.414,942.804 442.09,943.236 C441.754,943.644 441.598,944.136 441.598,944.712 L441.598,948 L440.65,948 L440.65,941.796 L441.598,941.796 L441.598,942.876 C441.766,942.516 441.982,942.228 442.246,942.024 C442.57,941.76 442.942,941.628 443.374,941.628 Z M446.05,939.456 C446.254,939.456 446.422,939.516 446.566,939.66 C446.71,939.78 446.782,939.948 446.782,940.164 C446.782,940.368 446.71,940.536 446.566,940.68 C446.422,940.812 446.254,940.884 446.05,940.884 C445.846,940.884 445.678,940.812 445.534,940.68 C445.39,940.536 445.33,940.368 445.33,940.164 C445.33,939.948 445.39,939.78 445.534,939.66 C445.678,939.516 445.846,939.456 446.05,939.456 Z M445.57,941.796 L446.53,941.796 L446.53,948 L445.57,948 L445.57,941.796 Z M451.114,941.628 C452.05,941.628 452.746,942.036 453.202,942.864 L453.202,941.796 L454.162,941.796 L454.162,947.568 C454.162,949.548 453.214,950.544 451.33,950.544 C450.49,950.544 449.842,950.376 449.41,950.04 C448.966,949.704 448.69,949.2 448.582,948.528 L449.542,948.528 C449.614,948.948 449.794,949.26 450.07,949.452 C450.346,949.656 450.766,949.764 451.33,949.764 C452.578,949.764 453.202,949.068 453.202,947.7 L453.202,946.608 C452.746,947.436 452.05,947.856 451.114,947.856 C450.25,947.856 449.566,947.556 449.062,946.968 C448.558,946.392 448.318,945.66 448.318,944.76 C448.318,943.848 448.558,943.116 449.062,942.54 C449.566,941.928 450.25,941.628 451.114,941.628 Z M451.258,942.42 C450.634,942.42 450.154,942.636 449.806,943.092 C449.47,943.5 449.302,944.064 449.302,944.76 C449.302,945.408 449.446,945.948 449.746,946.356 C450.082,946.812 450.574,947.052 451.246,947.052 C451.87,947.052 452.35,946.836 452.71,946.404 C453.046,945.984 453.214,945.432 453.214,944.76 C453.214,944.064 453.046,943.5 452.71,943.092 C452.35,942.636 451.87,942.42 451.258,942.42 Z M455.878,939.264 L456.838,939.264 L456.838,942.816 C457.054,942.42 457.342,942.12 457.702,941.916 C458.038,941.724 458.41,941.628 458.83,941.628 C459.55,941.628 460.114,941.832 460.498,942.264 C460.882,942.684 461.074,943.296 461.074,944.088 L461.074,948 L460.114,948 L460.114,944.232 C460.114,943.656 459.97,943.212 459.706,942.9 C459.418,942.588 459.022,942.432 458.506,942.432 C458.026,942.432 457.63,942.624 457.318,943.008 C456.994,943.392 456.838,943.884 456.838,944.46 L456.838,948 L455.878,948 L455.878,939.264 Z M464.434,939.792 L464.434,941.796 L465.97,941.796 L465.97,942.6 L464.434,942.6 L464.434,946.548 C464.434,946.776 464.47,946.944 464.566,947.04 C464.65,947.136 464.806,947.196 465.022,947.196 L465.814,947.196 L465.814,948 L464.878,948 C464.374,948 464.002,947.868 463.786,947.604 C463.582,947.364 463.486,947.016 463.486,946.548 L463.486,942.6 L462.238,942.6 L462.238,941.796 L463.486,941.796 L463.486,940.188 L464.434,939.792 Z M474.466,939.264 C475.258,939.264 475.906,939.492 476.422,939.948 C476.926,940.404 477.19,941.016 477.19,941.76 C477.19,942.504 476.902,943.176 476.35,943.776 C476.05,944.088 475.462,944.556 474.574,945.156 C473.482,945.888 472.858,946.548 472.702,947.124 L477.202,947.124 L477.202,948 L471.49,948 C471.49,947.22 471.766,946.512 472.342,945.876 C472.678,945.492 473.29,944.976 474.202,944.352 C474.874,943.872 475.318,943.524 475.546,943.284 C475.978,942.816 476.206,942.3 476.206,941.748 C476.206,941.22 476.05,940.824 475.738,940.536 C475.426,940.248 474.982,940.104 474.43,940.104 C473.842,940.104 473.386,940.296 473.074,940.704 C472.738,941.088 472.558,941.664 472.546,942.42 L471.562,942.42 C471.562,941.46 471.838,940.692 472.366,940.128 C472.894,939.552 473.602,939.264 474.466,939.264 Z M481.774,939.264 C482.794,939.264 483.562,939.708 484.09,940.62 C484.546,941.388 484.774,942.42 484.774,943.716 C484.774,945.012 484.546,946.044 484.09,946.812 C483.562,947.712 482.794,948.168 481.774,948.168 C480.742,948.168 479.974,947.712 479.458,946.812 C479.002,946.044 478.774,945.012 478.774,943.716 C478.774,942.42 479.002,941.388 479.458,940.62 C479.974,939.708 480.742,939.264 481.774,939.264 Z M481.774,940.104 C481.006,940.104 480.454,940.512 480.118,941.34 C479.878,941.916 479.758,942.708 479.758,943.716 C479.758,944.712 479.878,945.504 480.118,946.092 C480.454,946.908 481.006,947.328 481.774,947.328 C482.542,947.328 483.094,946.908 483.43,946.092 C483.67,945.504 483.802,944.712 483.802,943.716 C483.802,942.708 483.67,941.916 483.43,941.34 C483.094,940.512 482.542,940.104 481.774,940.104 Z M488.362,939.432 L489.13,939.432 L489.13,948 L488.146,948 L488.146,940.632 C487.606,941.184 486.934,941.568 486.13,941.808 L486.13,940.824 C486.514,940.716 486.922,940.548 487.33,940.308 C487.738,940.044 488.074,939.756 488.362,939.432 Z M494.242,939.264 C495.13,939.264 495.838,939.492 496.342,939.96 C496.798,940.38 497.038,940.908 497.038,941.532 C497.038,941.988 496.93,942.372 496.714,942.684 C496.474,943.02 496.138,943.272 495.694,943.428 L495.694,943.452 C496.138,943.56 496.522,943.812 496.834,944.196 C497.17,944.604 497.338,945.084 497.338,945.636 C497.338,946.392 497.074,947.004 496.546,947.46 C495.994,947.928 495.226,948.168 494.242,948.168 C493.246,948.168 492.478,947.928 491.938,947.46 C491.41,947.004 491.146,946.392 491.146,945.636 C491.146,945.084 491.314,944.604 491.65,944.196 C491.962,943.812 492.334,943.56 492.79,943.452 L492.79,943.428 C492.334,943.272 491.998,943.02 491.77,942.684 C491.554,942.372 491.446,941.988 491.446,941.532 C491.446,940.908 491.674,940.38 492.142,939.96 C492.646,939.492 493.342,939.264 494.242,939.264 Z M494.242,940.068 C493.63,940.068 493.15,940.224 492.814,940.536 C492.514,940.8 492.37,941.148 492.37,941.568 C492.37,942 492.502,942.36 492.766,942.624 C493.078,942.936 493.57,943.104 494.242,943.104 C494.902,943.104 495.394,942.936 495.718,942.624 C495.982,942.36 496.114,942 496.114,941.568 C496.114,941.148 495.958,940.8 495.67,940.536 C495.322,940.224 494.842,940.068 494.242,940.068 Z M494.242,943.872 C493.546,943.872 493.018,944.04 492.646,944.388 C492.286,944.7 492.118,945.12 492.118,945.636 C492.118,946.14 492.286,946.56 492.646,946.872 C493.006,947.196 493.546,947.364 494.242,947.364 C494.938,947.364 495.466,947.196 495.85,946.86 C496.186,946.548 496.366,946.14 496.366,945.636 C496.366,945.12 496.186,944.7 495.85,944.388 C495.466,944.04 494.926,943.872 494.242,943.872 Z M505.666,939.432 L506.806,939.432 L510.178,948 L509.11,948 L508.198,945.6 L504.262,945.6 L503.35,948 L502.294,948 L505.666,939.432 Z M504.574,944.772 L507.886,944.772 L506.266,940.488 L506.218,940.488 L504.574,944.772 Z M511.342,939.264 L512.29,939.264 L512.29,948 L511.342,948 L511.342,939.264 Z M514.39,939.264 L515.338,939.264 L515.338,948 L514.39,948 L514.39,939.264 Z M521.59,939.432 L525.286,939.432 C526.138,939.432 526.81,939.624 527.302,940.02 C527.806,940.428 528.07,941.028 528.07,941.82 C528.07,942.3 527.938,942.72 527.674,943.092 C527.386,943.476 527.002,943.716 526.51,943.836 L526.51,943.86 C527.326,944.04 527.782,944.556 527.878,945.42 L528.01,946.74 C528.058,947.268 528.214,947.688 528.466,948 L527.398,948 C527.206,947.712 527.086,947.34 527.05,946.86 L526.942,945.72 C526.894,945.216 526.714,944.844 526.402,944.628 C526.114,944.412 525.706,944.316 525.166,944.316 L522.574,944.316 L522.574,948 L521.59,948 L521.59,939.432 Z M522.574,940.284 L522.574,943.464 L525.166,943.464 C525.79,943.464 526.282,943.308 526.618,943.02 C526.918,942.744 527.074,942.36 527.074,941.856 C527.074,941.328 526.918,940.932 526.63,940.68 C526.318,940.416 525.826,940.284 525.166,940.284 L522.574,940.284 Z M530.602,939.456 C530.806,939.456 530.974,939.516 531.118,939.66 C531.262,939.78 531.334,939.948 531.334,940.164 C531.334,940.368 531.262,940.536 531.118,940.68 C530.974,940.812 530.806,940.884 530.602,940.884 C530.398,940.884 530.23,940.812 530.086,940.68 C529.942,940.536 529.882,940.368 529.882,940.164 C529.882,939.948 529.942,939.78 530.086,939.66 C530.23,939.516 530.398,939.456 530.602,939.456 Z M530.122,941.796 L531.082,941.796 L531.082,948 L530.122,948 L530.122,941.796 Z M535.666,941.628 C536.602,941.628 537.298,942.036 537.754,942.864 L537.754,941.796 L538.714,941.796 L538.714,947.568 C538.714,949.548 537.766,950.544 535.882,950.544 C535.042,950.544 534.394,950.376 533.962,950.04 C533.518,949.704 533.242,949.2 533.134,948.528 L534.094,948.528 C534.166,948.948 534.346,949.26 534.622,949.452 C534.898,949.656 535.318,949.764 535.882,949.764 C537.13,949.764 537.754,949.068 537.754,947.7 L537.754,946.608 C537.298,947.436 536.602,947.856 535.666,947.856 C534.802,947.856 534.118,947.556 533.614,946.968 C533.11,946.392 532.87,945.66 532.87,944.76 C532.87,943.848 533.11,943.116 533.614,942.54 C534.118,941.928 534.802,941.628 535.666,941.628 Z M535.81,942.42 C535.186,942.42 534.706,942.636 534.358,943.092 C534.022,943.5 533.854,944.064 533.854,944.76 C533.854,945.408 533.998,945.948 534.298,946.356 C534.634,946.812 535.126,947.052 535.798,947.052 C536.422,947.052 536.902,946.836 537.262,946.404 C537.598,945.984 537.766,945.432 537.766,944.76 C537.766,944.064 537.598,943.5 537.262,943.092 C536.902,942.636 536.422,942.42 535.81,942.42 Z M540.43,939.264 L541.39,939.264 L541.39,942.816 C541.606,942.42 541.894,942.12 542.254,941.916 C542.59,941.724 542.962,941.628 543.382,941.628 C544.102,941.628 544.666,941.832 545.05,942.264 C545.434,942.684 545.626,943.296 545.626,944.088 L545.626,948 L544.666,948 L544.666,944.232 C544.666,943.656 544.522,943.212 544.258,942.9 C543.97,942.588 543.574,942.432 543.058,942.432 C542.578,942.432 542.182,942.624 541.87,943.008 C541.546,943.392 541.39,943.884 541.39,944.46 L541.39,948 L540.43,948 L540.43,939.264 Z M548.986,939.792 L548.986,941.796 L550.522,941.796 L550.522,942.6 L548.986,942.6 L548.986,946.548 C548.986,946.776 549.022,946.944 549.118,947.04 C549.202,947.136 549.358,947.196 549.574,947.196 L550.366,947.196 L550.366,948 L549.43,948 C548.926,948 548.554,947.868 548.338,947.604 C548.134,947.364 548.038,947.016 548.038,946.548 L548.038,942.6 L546.79,942.6 L546.79,941.796 L548.038,941.796 L548.038,940.188 L548.986,939.792 Z M554.014,941.628 C555.55,941.628 556.39,942.264 556.558,943.56 L555.622,943.56 C555.538,943.176 555.382,942.888 555.142,942.72 C554.878,942.528 554.494,942.432 554.002,942.432 C553.57,942.432 553.234,942.504 552.994,942.672 C552.73,942.828 552.598,943.044 552.598,943.32 C552.598,943.584 552.766,943.812 553.126,943.992 C553.354,944.1 553.786,944.232 554.41,944.4 C555.154,944.58 555.682,944.772 556.006,944.976 C556.498,945.288 556.75,945.708 556.75,946.248 C556.75,947.52 555.874,948.168 554.122,948.168 C552.49,948.168 551.602,947.448 551.458,946.02 L552.394,946.02 C552.466,946.512 552.646,946.86 552.91,947.076 C553.174,947.268 553.57,947.364 554.098,947.364 C555.202,947.364 555.766,947.004 555.766,946.308 C555.766,945.96 555.562,945.696 555.178,945.504 C554.974,945.408 554.53,945.276 553.858,945.108 C553.126,944.928 552.61,944.748 552.322,944.556 C551.842,944.268 551.614,943.872 551.614,943.344 C551.614,942.816 551.842,942.408 552.31,942.096 C552.742,941.784 553.318,941.628 554.014,941.628 Z M562.45,939.432 L566.146,939.432 C566.998,939.432 567.67,939.624 568.162,940.02 C568.666,940.428 568.93,941.028 568.93,941.82 C568.93,942.3 568.798,942.72 568.534,943.092 C568.246,943.476 567.862,943.716 567.37,943.836 L567.37,943.86 C568.186,944.04 568.642,944.556 568.738,945.42 L568.87,946.74 C568.918,947.268 569.074,947.688 569.326,948 L568.258,948 C568.066,947.712 567.946,947.34 567.91,946.86 L567.802,945.72 C567.754,945.216 567.574,944.844 567.262,944.628 C566.974,944.412 566.566,944.316 566.026,944.316 L563.434,944.316 L563.434,948 L562.45,948 L562.45,939.432 Z M563.434,940.284 L563.434,943.464 L566.026,943.464 C566.65,943.464 567.142,943.308 567.478,943.02 C567.778,942.744 567.934,942.36 567.934,941.856 C567.934,941.328 567.778,940.932 567.49,940.68 C567.178,940.416 566.686,940.284 566.026,940.284 L563.434,940.284 Z M573.226,941.628 C574.222,941.628 574.978,941.964 575.482,942.636 C575.938,943.236 576.178,944.088 576.202,945.168 L571.306,945.168 C571.354,945.864 571.534,946.404 571.87,946.788 C572.206,947.172 572.674,947.364 573.262,947.364 C573.766,947.364 574.186,947.232 574.498,946.98 C574.762,946.764 574.966,946.44 575.122,946.008 L576.082,946.008 C575.938,946.608 575.662,947.088 575.242,947.472 C574.726,947.928 574.066,948.168 573.262,948.168 C572.374,948.168 571.654,947.868 571.126,947.292 C570.574,946.692 570.31,945.9 570.31,944.892 C570.31,943.98 570.562,943.212 571.09,942.6 C571.618,941.952 572.326,941.628 573.226,941.628 Z M573.25,942.432 C572.698,942.432 572.254,942.612 571.918,942.972 C571.582,943.332 571.39,943.812 571.33,944.424 L575.206,944.424 C575.086,943.092 574.426,942.432 573.25,942.432 Z M579.754,941.628 C581.29,941.628 582.13,942.264 582.298,943.56 L581.362,943.56 C581.278,943.176 581.122,942.888 580.882,942.72 C580.618,942.528 580.234,942.432 579.742,942.432 C579.31,942.432 578.974,942.504 578.734,942.672 C578.47,942.828 578.338,943.044 578.338,943.32 C578.338,943.584 578.506,943.812 578.866,943.992 C579.094,944.1 579.526,944.232 580.15,944.4 C580.894,944.58 581.422,944.772 581.746,944.976 C582.238,945.288 582.49,945.708 582.49,946.248 C582.49,947.52 581.614,948.168 579.862,948.168 C578.23,948.168 577.342,947.448 577.198,946.02 L578.134,946.02 C578.206,946.512 578.386,946.86 578.65,947.076 C578.914,947.268 579.31,947.364 579.838,947.364 C580.942,947.364 581.506,947.004 581.506,946.308 C581.506,945.96 581.302,945.696 580.918,945.504 C580.714,945.408 580.27,945.276 579.598,945.108 C578.866,944.928 578.35,944.748 578.062,944.556 C577.582,944.268 577.354,943.872 577.354,943.344 C577.354,942.816 577.582,942.408 578.05,942.096 C578.482,941.784 579.058,941.628 579.754,941.628 Z M586.402,941.628 C587.398,941.628 588.154,941.964 588.658,942.636 C589.114,943.236 589.354,944.088 589.378,945.168 L584.482,945.168 C584.53,945.864 584.71,946.404 585.046,946.788 C585.382,947.172 585.85,947.364 586.438,947.364 C586.942,947.364 587.362,947.232 587.674,946.98 C587.938,946.764 588.142,946.44 588.298,946.008 L589.258,946.008 C589.114,946.608 588.838,947.088 588.418,947.472 C587.902,947.928 587.242,948.168 586.438,948.168 C585.55,948.168 584.83,947.868 584.302,947.292 C583.75,946.692 583.486,945.9 583.486,944.892 C583.486,943.98 583.738,943.212 584.266,942.6 C584.794,941.952 585.502,941.628 586.402,941.628 Z M586.426,942.432 C585.874,942.432 585.43,942.612 585.094,942.972 C584.758,943.332 584.566,943.812 584.506,944.424 L588.382,944.424 C588.262,943.092 587.602,942.432 586.426,942.432 Z M593.458,941.628 C593.794,941.628 594.082,941.676 594.31,941.772 L594.31,942.732 C593.998,942.636 593.686,942.6 593.386,942.6 C592.906,942.6 592.498,942.804 592.174,943.236 C591.838,943.644 591.682,944.136 591.682,944.712 L591.682,948 L590.734,948 L590.734,941.796 L591.682,941.796 L591.682,942.876 C591.85,942.516 592.066,942.228 592.33,942.024 C592.654,941.76 593.026,941.628 593.458,941.628 Z M594.658,941.796 L595.714,941.796 L597.49,946.8 L599.266,941.796 L600.322,941.796 L597.97,948 L596.998,948 L594.658,941.796 Z M603.91,941.628 C604.906,941.628 605.662,941.964 606.166,942.636 C606.622,943.236 606.862,944.088 606.886,945.168 L601.99,945.168 C602.038,945.864 602.218,946.404 602.554,946.788 C602.89,947.172 603.358,947.364 603.946,947.364 C604.45,947.364 604.87,947.232 605.182,946.98 C605.446,946.764 605.65,946.44 605.806,946.008 L606.766,946.008 C606.622,946.608 606.346,947.088 605.926,947.472 C605.41,947.928 604.75,948.168 603.946,948.168 C603.058,948.168 602.338,947.868 601.81,947.292 C601.258,946.692 600.994,945.9 600.994,944.892 C600.994,943.98 601.246,943.212 601.774,942.6 C602.302,941.952 603.01,941.628 603.91,941.628 Z M603.934,942.432 C603.382,942.432 602.938,942.612 602.602,942.972 C602.266,943.332 602.074,943.812 602.014,944.424 L605.89,944.424 C605.77,943.092 605.11,942.432 603.934,942.432 Z M612.826,939.264 L613.786,939.264 L613.786,948 L612.886,948 L612.886,946.98 C612.454,947.772 611.758,948.168 610.822,948.168 C609.91,948.168 609.202,947.832 608.698,947.184 C608.23,946.584 608.002,945.816 608.002,944.88 C608.002,943.968 608.23,943.224 608.698,942.624 C609.202,941.952 609.886,941.628 610.774,941.628 C611.662,941.628 612.346,942.06 612.826,942.936 L612.826,939.264 Z M610.978,942.42 C610.294,942.42 609.778,942.66 609.442,943.14 C609.13,943.56 608.986,944.136 608.986,944.88 C608.986,945.624 609.13,946.212 609.43,946.644 C609.766,947.124 610.27,947.376 610.942,947.376 C611.566,947.376 612.046,947.136 612.394,946.656 C612.694,946.224 612.85,945.66 612.85,944.964 L612.85,944.844 C612.85,944.124 612.67,943.536 612.334,943.092 C611.986,942.636 611.53,942.42 610.978,942.42 Z" id="Copyright-2018-All-R"></path>
        </g>
    </g>
</svg>