<?xml version="1.0" encoding="UTF-8"?>
<svg width="66px" height="66px" viewBox="0 0 66 66" version="1.1" xmlns="http://www.w3.org/2000/svg" xmlns:xlink="http://www.w3.org/1999/xlink">
    <!-- Generator: Sketch 49.3 (51167) - http://www.bohemiancoding.com/sketch -->
    <title>dribbble</title>
    <desc>Created with Sketch.</desc>
    <defs></defs>
    <g id="Page-1" stroke="none" stroke-width="1" fill="none" fill-rule="evenodd">
        <g id="Desktop" transform="translate(-332.000000, -388.000000)">
            <g id="dribbble" transform="translate(332.000000, 388.000000)">
                <circle id="Oval" fill="#E84B89" cx="33" cy="33" r="33"></circle>
                <g id="Group-4" transform="translate(13.000000, 13.000000)" fill="#FFFFFF" fill-rule="nonzero">
                    <path d="M20,40 C8.975,40 0,31.025 0,20 C0,8.975 8.975,0 20,0 C31.025,0 40,8.975 40,20 C40,31.025 31.025,40 20,40 Z M36.9645729,22.8455858 C36.3667677,22.6582517 31.5501658,21.222591 26.0606061,22.0996554 C28.349346,28.3736461 29.2836301,33.482759 29.4629717,34.5454545 C33.476066,31.8443207 36.1923697,27.6107307 36.969697,22.8455858 L36.9645729,22.8455858 Z M26.6666667,36.1933533 C26.4144946,34.6686756 25.4305291,29.3627975 23.0571449,23.030303 L22.9483648,23.0641847 C13.4053825,26.4777685 9.99364272,33.2710545 9.6969697,33.9063368 C12.6541792,36.2904969 16.3056673,37.5829288 20.0640437,37.5757276 C22.4044642,37.5757276 24.6295119,37.0844426 26.6567776,36.1967414 L26.6666667,36.1933533 Z M7.38109324,31.5151515 C7.76445191,30.8405797 12.4126756,22.9902503 21.1489566,20.1064559 C21.3720317,20.0305665 21.5951067,19.9647958 21.8181818,19.9040843 C21.3885558,18.9175231 20.9258815,17.9360211 20.4433784,16.969697 C11.9830495,19.5499341 3.78049627,19.4403162 3.03691268,19.4234519 L3.03030303,19.9496179 C3.03030303,24.3899868 4.67940619,28.4441634 7.38274566,31.5100922 L7.38109324,31.5151515 Z M3.03030303,16.9672351 C3.79515319,16.9807454 10.8168101,17.0111436 18.7878788,14.8596263 C16.8600959,11.4098836 14.7509374,8.06800482 12.4695515,4.84848485 C7.63122975,7.16202574 4.13861123,11.6431275 3.03196576,16.9571023 L3.03030303,16.9672351 Z M15.7575758,3.50220777 C16.2222552,4.12484571 19.2921054,8.27685776 22.0554649,13.3333333 C28.0616936,11.0967523 30.6075436,7.69682136 30.9090909,7.26752886 C27.8277484,4.53416513 23.8415535,3.02566535 19.7122942,3.03031374 C18.3528598,3.03031374 17.0263813,3.19416585 15.7575758,3.49729221 L15.7575758,3.50220777 Z M33.1289009,9.09090909 C32.7673753,9.58631095 29.9199457,13.3496569 23.6363636,15.9923697 C24.0343736,16.829428 24.4157998,17.6750278 24.7640585,18.5308772 C24.8967285,18.838368 25.0128147,19.1458589 25.1289009,19.4362668 C30.783959,18.7017054 36.4058495,19.8804202 36.969697,20 C36.9365295,15.8659568 35.5103271,12.07357 33.1388512,9.10115878 L33.1289009,9.09090909 Z" id="Shape"></path>
                </g>
            </g>
        </g>
    </g>
</svg>