<?xml version="1.0" encoding="UTF-8"?>
<svg width="125px" height="12px" viewBox="0 0 125 12" version="1.1" xmlns="http://www.w3.org/2000/svg" xmlns:xlink="http://www.w3.org/1999/xlink">
    <!-- Generator: Sketch 49.2 (51160) - http://www.bohemiancoding.com/sketch -->
    <title>浙ICP备16000063号-1</title>
    <desc>Created with Sketch.</desc>
    <defs></defs>
    <g id="Page-1" stroke="none" stroke-width="1" fill="none" fill-rule="evenodd">
        <g id="Desktop" transform="translate(-341.000000, -960.000000)" fill="#828282">
            <path d="M341.868,960.4 C342.528,960.976 343.08,961.54 343.536,962.104 L342.936,962.704 C342.528,962.164 341.976,961.588 341.256,960.988 L341.868,960.4 Z M341.58,963.268 C342.252,963.844 342.828,964.408 343.284,964.984 L342.684,965.584 C342.276,965.032 341.7,964.456 340.98,963.856 L341.58,963.268 Z M342.528,966.46 L343.284,966.748 C342.864,968.296 342.396,969.748 341.892,971.104 L341.088,970.756 C341.64,969.352 342.12,967.924 342.528,966.46 Z M346.944,965.164 L346.944,966.04 C346.56,966.244 346.188,966.436 345.804,966.616 L345.804,970 C345.804,970.72 345.48,971.092 344.832,971.092 L343.86,971.092 L343.68,970.336 C343.992,970.36 344.28,970.384 344.568,970.384 C344.832,970.384 344.964,970.192 344.964,969.808 L344.964,966.988 C344.568,967.144 344.184,967.288 343.8,967.42 L343.596,966.592 C344.064,966.46 344.52,966.304 344.964,966.136 L344.964,963.196 L343.68,963.196 L343.68,962.44 L344.964,962.44 L344.964,960.232 L345.804,960.232 L345.804,962.44 L346.896,962.44 L346.896,963.196 L345.804,963.196 L345.804,965.776 C346.188,965.584 346.572,965.38 346.944,965.164 Z M351.24,960.424 L351.636,961.156 C350.652,961.516 349.56,961.744 348.36,961.816 L348.36,964.108 L351.876,964.108 L351.876,964.888 L350.712,964.888 L350.712,971.224 L349.896,971.224 L349.896,964.888 L348.36,964.888 L348.36,965.74 C348.3,967.996 347.856,969.808 347.016,971.164 L346.428,970.54 C347.124,969.388 347.496,967.78 347.556,965.74 L347.556,961.12 C348.924,961.096 350.148,960.856 351.24,960.424 Z M353.556,961.432 L354.528,961.432 L354.528,970 L353.556,970 L353.556,961.432 Z M360.252,961.264 C361.2,961.264 362.004,961.516 362.652,962.02 C363.3,962.524 363.684,963.208 363.804,964.06 L362.856,964.06 C362.736,963.436 362.424,962.956 361.944,962.62 C361.476,962.296 360.912,962.14 360.24,962.14 C359.244,962.14 358.476,962.488 357.936,963.184 C357.432,963.832 357.18,964.684 357.18,965.752 C357.18,966.82 357.42,967.672 357.924,968.296 C358.452,968.956 359.208,969.292 360.216,969.292 C360.9,969.292 361.476,969.112 361.956,968.752 C362.46,968.368 362.808,967.804 362.976,967.06 L363.924,967.06 C363.732,968.056 363.288,968.836 362.58,969.388 C361.92,969.904 361.128,970.168 360.216,970.168 C358.884,970.168 357.864,969.724 357.156,968.848 C356.508,968.056 356.196,967.024 356.196,965.752 C356.196,964.48 356.52,963.436 357.18,962.62 C357.9,961.708 358.932,961.264 360.252,961.264 Z M365.52,961.432 L369.024,961.432 C370.992,961.432 371.976,962.272 371.976,963.952 C371.976,965.644 370.98,966.496 369.012,966.496 L366.504,966.496 L366.504,970 L365.52,970 L365.52,961.432 Z M366.504,962.284 L366.504,965.644 L368.964,965.644 C369.66,965.644 370.164,965.5 370.5,965.224 C370.824,964.948 370.992,964.528 370.992,963.952 C370.992,963.376 370.824,962.956 370.488,962.704 C370.152,962.416 369.648,962.284 368.964,962.284 L366.504,962.284 Z M382.38,965.968 L382.38,971.2 L381.552,971.2 L381.552,970.672 L375.648,970.672 L375.648,971.2 L374.82,971.2 L374.82,965.968 L382.38,965.968 Z M375.648,969.928 L378.18,969.928 L378.18,968.656 L375.648,968.656 L375.648,969.928 Z M378.996,969.928 L381.552,969.928 L381.552,968.656 L378.996,968.656 L378.996,969.928 Z M375.648,967.96 L378.18,967.96 L378.18,966.688 L375.648,966.688 L375.648,967.96 Z M378.996,966.688 L378.996,967.96 L381.552,967.96 L381.552,966.688 L378.996,966.688 Z M376.992,960.052 L377.844,960.244 C377.664,960.532 377.472,960.796 377.28,961.048 L382.164,961.048 L382.164,961.708 C381.42,962.62 380.52,963.388 379.464,964.036 C380.76,964.588 382.284,964.972 384.06,965.212 L383.688,965.98 C381.72,965.68 380.04,965.188 378.648,964.492 C377.184,965.224 375.456,965.752 373.476,966.076 L373.104,965.32 C374.904,965.068 376.464,964.636 377.808,964.036 C377.088,963.604 376.452,963.1 375.9,962.536 C375.372,963.016 374.808,963.436 374.208,963.82 L373.656,963.148 C375,962.368 376.116,961.336 376.992,960.052 Z M376.416,962.044 C377.016,962.656 377.748,963.184 378.612,963.64 C379.572,963.112 380.4,962.5 381.096,961.804 L376.656,961.804 L376.416,962.044 Z M387.576,961.432 L388.344,961.432 L388.344,970 L387.36,970 L387.36,962.632 C386.82,963.184 386.148,963.568 385.344,963.808 L385.344,962.824 C385.728,962.716 386.136,962.548 386.544,962.308 C386.952,962.044 387.288,961.756 387.576,961.432 Z M393.576,961.264 C395.16,961.264 396.072,962.02 396.312,963.556 L395.34,963.556 C395.148,962.572 394.56,962.092 393.564,962.092 C392.892,962.092 392.364,962.416 391.98,963.088 C391.596,963.712 391.416,964.516 391.416,965.488 C391.416,965.536 391.416,965.644 391.428,965.8 L391.476,965.8 C391.692,965.356 391.992,965.008 392.4,964.768 C392.784,964.516 393.228,964.396 393.732,964.396 C394.548,964.396 395.208,964.66 395.712,965.188 C396.204,965.716 396.456,966.388 396.456,967.228 C396.456,968.068 396.18,968.776 395.64,969.328 C395.088,969.88 394.404,970.168 393.564,970.168 C392.52,970.168 391.74,969.772 391.212,969.004 C390.708,968.272 390.468,967.252 390.468,965.944 C390.468,964.576 390.732,963.46 391.272,962.608 C391.836,961.708 392.604,961.264 393.576,961.264 Z M393.54,965.212 C392.976,965.212 392.508,965.404 392.136,965.788 C391.764,966.172 391.584,966.652 391.584,967.252 C391.584,967.852 391.752,968.344 392.112,968.728 C392.472,969.136 392.94,969.34 393.54,969.34 C394.116,969.34 394.584,969.136 394.944,968.752 C395.304,968.344 395.484,967.84 395.484,967.228 C395.484,966.616 395.304,966.136 394.956,965.776 C394.596,965.392 394.128,965.212 393.54,965.212 Z M400.884,961.264 C401.904,961.264 402.672,961.708 403.2,962.62 C403.656,963.388 403.884,964.42 403.884,965.716 C403.884,967.012 403.656,968.044 403.2,968.812 C402.672,969.712 401.904,970.168 400.884,970.168 C399.852,970.168 399.084,969.712 398.568,968.812 C398.112,968.044 397.884,967.012 397.884,965.716 C397.884,964.42 398.112,963.388 398.568,962.62 C399.084,961.708 399.852,961.264 400.884,961.264 Z M400.884,962.104 C400.116,962.104 399.564,962.512 399.228,963.34 C398.988,963.916 398.868,964.708 398.868,965.716 C398.868,966.712 398.988,967.504 399.228,968.092 C399.564,968.908 400.116,969.328 400.884,969.328 C401.652,969.328 402.204,968.908 402.54,968.092 C402.78,967.504 402.912,966.712 402.912,965.716 C402.912,964.708 402.78,963.916 402.54,963.34 C402.204,962.512 401.652,962.104 400.884,962.104 Z M408.312,961.264 C409.332,961.264 410.1,961.708 410.628,962.62 C411.084,963.388 411.312,964.42 411.312,965.716 C411.312,967.012 411.084,968.044 410.628,968.812 C410.1,969.712 409.332,970.168 408.312,970.168 C407.28,970.168 406.512,969.712 405.996,968.812 C405.54,968.044 405.312,967.012 405.312,965.716 C405.312,964.42 405.54,963.388 405.996,962.62 C406.512,961.708 407.28,961.264 408.312,961.264 Z M408.312,962.104 C407.544,962.104 406.992,962.512 406.656,963.34 C406.416,963.916 406.296,964.708 406.296,965.716 C406.296,966.712 406.416,967.504 406.656,968.092 C406.992,968.908 407.544,969.328 408.312,969.328 C409.08,969.328 409.632,968.908 409.968,968.092 C410.208,967.504 410.34,966.712 410.34,965.716 C410.34,964.708 410.208,963.916 409.968,963.34 C409.632,962.512 409.08,962.104 408.312,962.104 Z M415.74,961.264 C416.76,961.264 417.528,961.708 418.056,962.62 C418.512,963.388 418.74,964.42 418.74,965.716 C418.74,967.012 418.512,968.044 418.056,968.812 C417.528,969.712 416.76,970.168 415.74,970.168 C414.708,970.168 413.94,969.712 413.424,968.812 C412.968,968.044 412.74,967.012 412.74,965.716 C412.74,964.42 412.968,963.388 413.424,962.62 C413.94,961.708 414.708,961.264 415.74,961.264 Z M415.74,962.104 C414.972,962.104 414.42,962.512 414.084,963.34 C413.844,963.916 413.724,964.708 413.724,965.716 C413.724,966.712 413.844,967.504 414.084,968.092 C414.42,968.908 414.972,969.328 415.74,969.328 C416.508,969.328 417.06,968.908 417.396,968.092 C417.636,967.504 417.768,966.712 417.768,965.716 C417.768,964.708 417.636,963.916 417.396,963.34 C417.06,962.512 416.508,962.104 415.74,962.104 Z M423.168,961.264 C424.188,961.264 424.956,961.708 425.484,962.62 C425.94,963.388 426.168,964.42 426.168,965.716 C426.168,967.012 425.94,968.044 425.484,968.812 C424.956,969.712 424.188,970.168 423.168,970.168 C422.136,970.168 421.368,969.712 420.852,968.812 C420.396,968.044 420.168,967.012 420.168,965.716 C420.168,964.42 420.396,963.388 420.852,962.62 C421.368,961.708 422.136,961.264 423.168,961.264 Z M423.168,962.104 C422.4,962.104 421.848,962.512 421.512,963.34 C421.272,963.916 421.152,964.708 421.152,965.716 C421.152,966.712 421.272,967.504 421.512,968.092 C421.848,968.908 422.4,969.328 423.168,969.328 C423.936,969.328 424.488,968.908 424.824,968.092 C425.064,967.504 425.196,966.712 425.196,965.716 C425.196,964.708 425.064,963.916 424.824,963.34 C424.488,962.512 423.936,962.104 423.168,962.104 Z M430.716,961.264 C432.3,961.264 433.212,962.02 433.452,963.556 L432.48,963.556 C432.288,962.572 431.7,962.092 430.704,962.092 C430.032,962.092 429.504,962.416 429.12,963.088 C428.736,963.712 428.556,964.516 428.556,965.488 C428.556,965.536 428.556,965.644 428.568,965.8 L428.616,965.8 C428.832,965.356 429.132,965.008 429.54,964.768 C429.924,964.516 430.368,964.396 430.872,964.396 C431.688,964.396 432.348,964.66 432.852,965.188 C433.344,965.716 433.596,966.388 433.596,967.228 C433.596,968.068 433.32,968.776 432.78,969.328 C432.228,969.88 431.544,970.168 430.704,970.168 C429.66,970.168 428.88,969.772 428.352,969.004 C427.848,968.272 427.608,967.252 427.608,965.944 C427.608,964.576 427.872,963.46 428.412,962.608 C428.976,961.708 429.744,961.264 430.716,961.264 Z M430.68,965.212 C430.116,965.212 429.648,965.404 429.276,965.788 C428.904,966.172 428.724,966.652 428.724,967.252 C428.724,967.852 428.892,968.344 429.252,968.728 C429.612,969.136 430.08,969.34 430.68,969.34 C431.256,969.34 431.724,969.136 432.084,968.752 C432.444,968.344 432.624,967.84 432.624,967.228 C432.624,966.616 432.444,966.136 432.096,965.776 C431.736,965.392 431.268,965.212 430.68,965.212 Z M438.108,961.264 C438.924,961.264 439.596,961.468 440.1,961.888 C440.592,962.308 440.844,962.872 440.844,963.592 C440.844,964.552 440.376,965.2 439.44,965.512 C439.944,965.668 440.328,965.908 440.592,966.244 C440.88,966.58 441.024,967 441.024,967.504 C441.024,968.284 440.748,968.92 440.208,969.412 C439.656,969.916 438.936,970.168 438.048,970.168 C437.232,970.168 436.572,969.952 436.056,969.544 C435.444,969.04 435.108,968.308 435.036,967.348 L436.032,967.348 C436.056,968.02 436.284,968.536 436.704,968.884 C437.064,969.172 437.508,969.328 438.048,969.328 C438.66,969.328 439.152,969.148 439.524,968.8 C439.86,968.464 440.04,968.044 440.04,967.54 C440.04,967.024 439.872,966.628 439.536,966.34 C439.2,966.052 438.744,965.92 438.144,965.92 L437.448,965.92 L437.448,965.152 L438.108,965.152 C438.684,965.152 439.116,965.02 439.416,964.768 C439.716,964.504 439.872,964.132 439.872,963.652 C439.872,963.172 439.716,962.8 439.428,962.536 C439.116,962.248 438.672,962.116 438.12,962.116 C437.544,962.116 437.1,962.26 436.776,962.572 C436.44,962.884 436.248,963.328 436.188,963.904 L435.216,963.904 C435.288,963.076 435.6,962.428 436.128,961.96 C436.632,961.492 437.292,961.264 438.108,961.264 Z M444.336,960.628 L451.368,960.628 L451.368,963.868 L444.336,963.868 L444.336,960.628 Z M450.48,963.088 L450.48,961.408 L445.224,961.408 L445.224,963.088 L450.48,963.088 Z M445.2,965.728 L442.452,965.728 L442.452,964.9 L453.24,964.9 L453.24,965.728 L446.076,965.728 L445.668,967.132 L451.536,967.132 C451.464,969.052 451.272,970.204 450.984,970.576 C450.696,970.936 450.144,971.116 449.328,971.116 C448.728,971.116 448.2,971.092 447.732,971.044 L447.444,970.252 C448.08,970.3 448.644,970.324 449.136,970.324 C449.784,970.324 450.18,970.192 450.336,969.928 C450.48,969.664 450.588,968.992 450.66,967.912 L444.636,967.912 L445.2,965.728 Z M454.68,966.484 L460.74,966.484 L460.74,967.3 L454.68,967.3 L454.68,966.484 Z M464.328,961.432 L465.096,961.432 L465.096,970 L464.112,970 L464.112,962.632 C463.572,963.184 462.9,963.568 462.096,963.808 L462.096,962.824 C462.48,962.716 462.888,962.548 463.296,962.308 C463.704,962.044 464.04,961.756 464.328,961.432 Z" id="浙ICP备16000063号-1"></path>
        </g>
    </g>
</svg>