<?xml version="1.0" encoding="UTF-8"?>
<svg width="66px" height="66px" viewBox="0 0 66 66" version="1.1" xmlns="http://www.w3.org/2000/svg" xmlns:xlink="http://www.w3.org/1999/xlink">
    <!-- Generator: Sketch 49.3 (51167) - http://www.bohemiancoding.com/sketch -->
    <title>more</title>
    <desc>Created with Sketch.</desc>
    <defs></defs>
    <g id="Page-1" stroke="none" stroke-width="1" fill="none" fill-rule="evenodd">
        <g id="Desktop" transform="translate(-530.000000, -388.000000)">
            <g id="more" transform="translate(530.000000, 388.000000)">
                <circle id="Oval" fill="#ACACAC" cx="33" cy="33" r="33"></circle>
                <path d="M15.288,38 L15.288,26.8 L17.72,26.8 L21.096,31.584 L24.488,26.8 L26.888,26.8 L26.888,38 L24.584,38 L24.584,30.256 L21.08,35.088 L17.592,30.256 L17.592,38 L15.288,38 Z M28.568,33.616 C28.568,30.96 30.424,29.216 32.904,29.216 C35.352,29.216 37.192,30.96 37.192,33.616 C37.192,36.448 35.464,38.192 32.904,38.192 C30.312,38.192 28.568,36.448 28.568,33.616 Z M30.936,33.632 C30.936,35.328 31.64,36.432 32.904,36.432 C34.12,36.432 34.824,35.328 34.824,33.632 C34.824,32.048 34.056,30.992 32.904,30.992 C31.72,30.992 30.936,32.048 30.936,33.632 Z M38.776,38 L38.776,29.408 L40.936,29.408 L41.096,30.736 C41.752,29.584 42.568,29.168 43.544,29.168 C43.944,29.168 44.312,29.232 44.6,29.344 L44.264,31.488 C43.96,31.376 43.592,31.296 43.112,31.296 C42.232,31.296 41.64,31.84 41.112,32.832 L41.112,38 L38.776,38 Z M45.048,33.648 C45.048,30.896 46.968,29.2 49.352,29.2 C51.816,29.2 53.176,30.816 53.176,33.12 C53.176,33.456 53.144,33.904 53.096,34.16 L47.432,34.16 C47.56,35.616 48.248,36.336 49.544,36.336 C50.408,36.336 51.208,36.048 51.928,35.6 L52.904,37.088 C51.848,37.824 50.648,38.208 49.368,38.208 C46.84,38.208 45.048,36.528 45.048,33.648 Z M49.416,30.896 C48.456,30.896 47.704,31.568 47.48,32.816 L50.952,32.816 C50.952,31.728 50.536,30.896 49.416,30.896 Z" id="More" fill="#FFFFFF"></path>
            </g>
        </g>
    </g>
</svg>