<?xml version="1.0" encoding="UTF-8"?>
<svg width="66px" height="66px" viewBox="0 0 66 66" version="1.1" xmlns="http://www.w3.org/2000/svg" xmlns:xlink="http://www.w3.org/1999/xlink">
    <!-- Generator: Sketch 49.3 (51167) - http://www.bohemiancoding.com/sketch -->
    <title>steam</title>
    <desc>Created with Sketch.</desc>
    <defs></defs>
    <g id="Page-1" stroke="none" stroke-width="1" fill="none" fill-rule="evenodd">
        <g id="Desktop" transform="translate(-428.000000, -388.000000)" fill="#255087" fill-rule="nonzero">
            <g id="steam" transform="translate(428.000000, 388.000000)">
                <path d="M32.9421439,0 C15.582568,0 1.3472199,13.365 0,30.35175 L17.7204876,37.66125 C19.2726014,36.6032269 21.1086277,36.0377093 22.9881449,36.03875 C23.1617131,36.03875 23.3325262,36.04975 23.5060945,36.05525 L31.3882952,24.66475 L31.3882952,24.5025 C31.3943712,17.6340392 36.9710694,12.0675649 43.8521456,12.0615 C50.7232426,12.0615 56.315996,17.64675 56.315996,24.51075 C56.315996,31.37475 50.7232426,36.9545 43.8521456,36.9545 L43.5628653,36.9545 L32.3332777,44.95975 C32.3332777,45.10275 32.3442979,45.2485 32.3442979,45.397 C32.3472222,47.871892 31.364696,50.2464984 29.6130184,51.9980592 C27.8613408,53.74962 25.4841142,54.7345425 23.0046752,54.736 C18.5524455,54.7209747 14.7214189,51.5903663 13.8276006,47.23675 L1.14059108,41.9925 C5.06929367,55.84425 17.8086492,66 32.9421439,66 C51.1998664,66 66,51.22425 66,33 C66,14.77575 51.1971114,0 32.9421439,0 Z M20.7124729,50.0775 L16.6542829,48.4 C17.3761062,49.89325 18.6213892,51.14725 20.2744198,51.8375 C22.8961935,52.9218481 25.9140461,52.3259018 27.9246764,50.3267762 C29.9353066,48.3276505 30.5441225,45.3176798 29.4680247,42.6965 C28.0231751,39.1939333 24.0504379,37.4725242 20.5003339,38.81075 L24.6962765,40.54325 C27.3339226,41.6405708 28.5809692,44.6644396 27.481633,47.29725 C26.3822968,49.9300605 23.352874,51.1748208 20.7152279,50.0775 L20.7124729,50.0775 Z M52.1613792,24.49425 C52.1553083,19.9176315 48.4399251,16.2090598 43.8549007,16.203 C39.2673593,16.203 35.5484221,19.9151191 35.5484221,24.49425 C35.5484221,29.0733809 39.2673593,32.7855 43.8549007,32.7855 C48.4424421,32.7855 52.1613792,29.0733809 52.1613792,24.49425 Z M37.6339956,24.4805 C37.6339956,22.2546907 38.8236317,20.197958 40.7547795,19.0850533 C42.6859274,17.9721487 45.0651997,17.9721487 46.9963475,19.0850533 C48.9274954,20.197958 50.1171315,22.2546907 50.1171314,24.4805 C50.1140915,27.9203597 47.3203647,30.707734 43.874186,30.70925 C42.2189605,30.70998 40.6313188,30.0539729 39.4608975,28.8856975 C38.2904763,27.717422 37.6332644,26.1326909 37.6339956,24.4805 Z" id="Shape"></path>
            </g>
        </g>
    </g>
</svg>