<?xml version="1.0" encoding="UTF-8"?>
<svg width="36px" height="15px" viewBox="0 0 36 15" version="1.1" xmlns="http://www.w3.org/2000/svg" xmlns:xlink="http://www.w3.org/1999/xlink">
    <!-- Generator: Sketch 49.2 (51160) - http://www.bohemiancoding.com/sketch -->
    <title>Group 2</title>
    <desc>Created with Sketch.</desc>
    <defs></defs>
    <g id="Page-1" stroke="none" stroke-width="1" fill="none" fill-rule="evenodd">
        <g id="Desktop" transform="translate(-494.000000, -912.000000)">
            <g id="Group-2" transform="translate(494.000000, 912.000000)">
                <rect id="Rectangle-2" stroke-opacity="0.420261549" stroke="#979797" x="0.5" y="0.5" width="35" height="14"></rect>
                <path d="M13.452,11 L12.444,11 L12.444,5.408 L11.004,6.008 L10.644,5.252 L12.672,4.4 L13.452,4.4 L13.452,11 Z M15.876,11 L15.876,9.596 L16.992,9.596 L16.992,11 L15.876,11 Z M18.42,7.724 C18.42,5.684 19.92,4.328 21.708,4.328 C23.52,4.328 25.02,5.684 25.02,7.724 C25.02,9.788 23.52,11.144 21.708,11.144 C19.92,11.144 18.42,9.788 18.42,7.724 Z M19.44,7.724 C19.44,9.212 20.4,10.292 21.708,10.292 C23.028,10.292 24,9.212 24,7.724 C24,6.236 23.028,5.18 21.708,5.18 C20.4,5.18 19.44,6.236 19.44,7.724 Z" id="1.0" fill="#D8D8D8"></path>
            </g>
        </g>
    </g>
</svg>