<?xml version="1.0" encoding="UTF-8"?>
<svg width="211px" height="93px" viewBox="0 0 211 93" version="1.1" xmlns="http://www.w3.org/2000/svg" xmlns:xlink="http://www.w3.org/1999/xlink">
    <!-- Generator: Sketch 49.2 (51160) - http://www.bohemiancoding.com/sketch -->
    <title>txt</title>
    <desc>Created with Sketch.</desc>
    <defs></defs>
    <g id="Page-1" stroke="none" stroke-width="1" fill="none" fill-rule="evenodd">
        <g id="Desktop" transform="translate(-410.000000, -228.000000)" fill="#000000">
            <g id="Group" transform="translate(410.000000, 111.000000)">
                <path d="M9.59277344,119.566406 L9.59277344,155 L4.24560547,155 L4.24560547,119.566406 L9.59277344,119.566406 Z M22.1624023,118.028809 L26.7522461,119.818848 L20.2117188,132.945801 L16.7234375,131.5 L22.1624023,118.028809 Z M32.8731445,132.647461 L38.0367188,132.647461 L38.0367188,134.712891 C39.0311899,133.672521 39.8803025,132.968752 40.584082,132.601562 C41.3337603,132.219074 42.2746688,132.027832 43.4068359,132.027832 C45.9312626,132.027832 47.9278247,133.129384 49.396582,135.33252 C51.0183349,133.129384 53.2137882,132.027832 55.9830078,132.027832 C61.0165616,132.027832 63.5333008,135.080048 63.5333008,141.18457 L63.5333008,155 L58.3467773,155 L58.3467773,142.584473 C58.3467773,140.442535 58.0866888,138.927902 57.5665039,138.040527 C57.0310195,137.137854 56.1513082,136.686523 54.9273438,136.686523 C53.5044851,136.686523 52.4679557,137.222 51.8177246,138.292969 C51.1674935,139.363938 50.8423828,141.085112 50.8423828,143.456543 L50.8423828,155 L45.6558594,155 L45.6558594,142.65332 C45.6558594,138.675436 44.5084099,136.686523 42.2134766,136.686523 C40.7600188,136.686523 39.7005404,137.22965 39.0350098,138.315918 C38.3694791,139.402186 38.0367188,141.115711 38.0367188,143.456543 L38.0367188,155 L32.8731445,155 L32.8731445,132.647461 Z M87.6857422,119.566406 L96.9113281,143.25 L106.55,117.845215 L115.775586,143.25 L125.574902,119.566406 L131.381055,119.566406 L115.546094,157.249023 L106.435254,132.142578 L96.9342774,157.271973 L81.8795899,119.566406 L87.6857422,119.566406 Z M140.623047,132.647461 L140.623047,155 L135.459473,155 L135.459473,132.647461 L140.623047,132.647461 Z M134.679199,123.353027 C134.679199,122.450354 135.008135,121.670088 135.666016,121.012207 C136.323897,120.354326 137.111812,120.025391 138.029785,120.025391 C138.963058,120.025391 139.758623,120.354326 140.416504,121.012207 C141.074385,121.654788 141.40332,122.442704 141.40332,123.375977 C141.40332,124.309249 141.074385,125.104814 140.416504,125.762695 C139.773923,126.420576 138.986007,126.749512 138.052734,126.749512 C137.119461,126.749512 136.323897,126.420576 135.666016,125.762695 C135.008135,125.104814 134.679199,124.3016 134.679199,123.353027 Z M144.104785,141.391113 L154.340137,141.391113 L154.340137,145.88916 L144.104785,145.88916 L144.104785,141.391113 Z M176.47959,124.592285 L164.13291,124.592285 L164.13291,133.106445 L176.043555,133.106445 L176.043555,138.132324 L164.13291,138.132324 L164.13291,155 L158.785742,155 L158.785742,119.566406 L176.47959,119.566406 L176.47959,124.592285 Z M187.144434,132.647461 L187.144434,155 L181.980859,155 L181.980859,132.647461 L187.144434,132.647461 Z M181.200586,123.353027 C181.200586,122.450354 181.529521,121.670088 182.187402,121.012207 C182.845283,120.354326 183.633199,120.025391 184.551172,120.025391 C185.484445,120.025391 186.28001,120.354326 186.937891,121.012207 C187.595772,121.654788 187.924707,122.442704 187.924707,123.375977 C187.924707,124.309249 187.595772,125.104814 186.937891,125.762695 C186.295309,126.420576 185.507394,126.749512 184.574121,126.749512 C183.640848,126.749512 182.845283,126.420576 182.187402,125.762695 C181.529521,125.104814 181.200586,124.3016 181.200586,123.353027 Z M5.98974609,171.566406 L15.215332,195.25 L24.8540039,169.845215 L34.0795898,195.25 L43.8789062,171.566406 L49.6850586,171.566406 L33.8500977,209.249023 L24.7392578,184.142578 L15.2382812,209.271973 L0.18359375,171.566406 L5.98974609,171.566406 Z M70.9294922,197.040039 L54.9109375,197.040039 C55.0486335,198.875986 55.6453072,200.337071 56.7009766,201.42334 C57.7566459,202.494309 59.1106363,203.029785 60.7629883,203.029785 C62.048151,203.029785 63.1114541,202.723799 63.9529297,202.111816 C64.7791057,201.499834 65.7200143,200.367684 66.7756836,198.715332 L71.1360352,201.147949 C70.4628547,202.295416 69.751436,203.278398 69.0017578,204.096924 C68.2520796,204.91545 67.448865,205.58862 66.5920898,206.116455 C65.7353147,206.64429 64.8097055,207.030598 63.8152344,207.275391 C62.8207633,207.520184 61.7421608,207.642578 60.5793945,207.642578 C57.2440914,207.642578 54.5667093,206.571625 52.547168,204.429688 C50.5276266,202.27245 49.5178711,199.411476 49.5178711,195.84668 C49.5178711,192.312482 50.497028,189.451508 52.4553711,187.263672 C54.4290138,185.106435 57.0451986,184.027832 60.3040039,184.027832 C63.5934084,184.027832 66.1942938,185.075836 68.1067383,187.171875 C70.0038832,189.252615 70.9524414,192.136538 70.9524414,195.82373 L70.9294922,197.040039 Z M65.6282227,192.817383 C64.9091435,190.063463 63.17267,188.686523 60.41875,188.686523 C59.7914682,188.686523 59.2024442,188.782144 58.6516602,188.973389 C58.1008762,189.164633 57.5998232,189.440021 57.1484863,189.799561 C56.6971494,190.1591 56.3108415,190.591306 55.9895508,191.096191 C55.6682601,191.601077 55.4234709,192.174801 55.2551758,192.817383 L65.6282227,192.817383 Z M81.9385742,168.23877 L81.9385742,207 L76.775,207 L76.775,168.23877 L81.9385742,168.23877 Z M106.074609,185.611328 L106.074609,192.473145 C104.896544,191.034986 103.84089,190.04818 102.907617,189.512695 C101.989644,188.961911 100.911041,188.686523 99.6717774,188.686523 C97.7287338,188.686523 96.1146549,189.367343 94.8294922,190.729004 C93.5443295,192.090664 92.9017578,193.796539 92.9017578,195.84668 C92.9017578,197.942719 93.5213805,199.663893 94.7606445,201.010254 C96.0152081,202.356615 97.6139877,203.029785 99.5570313,203.029785 C100.796295,203.029785 101.890197,202.762047 102.83877,202.226562 C103.756743,201.706378 104.835345,200.696622 106.074609,199.197266 L106.074609,206.013184 C103.97857,207.099452 101.882563,207.642578 99.7865234,207.642578 C96.3288239,207.642578 93.4372512,206.525727 91.1117188,204.291992 C88.7861863,202.042958 87.6234375,199.25083 87.6234375,195.915527 C87.6234375,192.580224 88.8014856,189.765148 91.1576172,187.470215 C93.5137488,185.175281 96.4053214,184.027832 99.8324219,184.027832 C102.035558,184.027832 104.116266,184.555659 106.074609,185.611328 Z M110.221875,195.663086 C110.221875,192.43488 111.376974,189.688651 113.687207,187.424316 C115.99744,185.159982 118.812516,184.027832 122.13252,184.027832 C125.467823,184.027832 128.298198,185.167632 130.62373,187.447266 C132.918664,189.726899 134.066113,192.526676 134.066113,195.84668 C134.066113,199.197282 132.911014,202.004709 130.600781,204.269043 C128.275249,206.518078 125.421924,207.642578 122.040723,207.642578 C118.69012,207.642578 115.882694,206.495129 113.618359,204.200195 C111.354025,201.935861 110.221875,199.090186 110.221875,195.663086 Z M115.500195,195.754883 C115.500195,197.988618 116.096869,199.75569 117.290234,201.056152 C118.514199,202.371914 120.128278,203.029785 122.13252,203.029785 C124.152061,203.029785 125.76614,202.379564 126.974805,201.079102 C128.18347,199.778639 128.787793,198.042166 128.787793,195.869629 C128.787793,193.697092 128.18347,191.960618 126.974805,190.660156 C125.75084,189.344394 124.136761,188.686523 122.13252,188.686523 C120.158877,188.686523 118.560097,189.344394 117.336133,190.660156 C116.112168,191.975918 115.500195,193.674143 115.500195,195.754883 Z M139.728027,184.647461 L144.891602,184.647461 L144.891602,186.712891 C145.886073,185.672521 146.735185,184.968752 147.438965,184.601562 C148.188643,184.219074 149.129552,184.027832 150.261719,184.027832 C152.786145,184.027832 154.782708,185.129384 156.251465,187.33252 C157.873218,185.129384 160.068671,184.027832 162.837891,184.027832 C167.871444,184.027832 170.388184,187.080048 170.388184,193.18457 L170.388184,207 L165.20166,207 L165.20166,194.584473 C165.20166,192.442535 164.941572,190.927902 164.421387,190.040527 C163.885902,189.137854 163.006191,188.686523 161.782227,188.686523 C160.359368,188.686523 159.322839,189.222 158.672607,190.292969 C158.022376,191.363938 157.697266,193.085112 157.697266,195.456543 L157.697266,207 L152.510742,207 L152.510742,194.65332 C152.510742,190.675436 151.363293,188.686523 149.068359,188.686523 C147.614902,188.686523 146.555423,189.22965 145.889893,190.315918 C145.224362,191.402186 144.891602,193.115711 144.891602,195.456543 L144.891602,207 L139.728027,207 L139.728027,184.647461 Z M197.461719,197.040039 L181.443164,197.040039 C181.58086,198.875986 182.177534,200.337071 183.233203,201.42334 C184.288872,202.494309 185.642863,203.029785 187.295215,203.029785 C188.580378,203.029785 189.643681,202.723799 190.485156,202.111816 C191.311332,201.499834 192.252241,200.367684 193.30791,198.715332 L197.668262,201.147949 C196.995081,202.295416 196.283663,203.278398 195.533984,204.096924 C194.784306,204.91545 193.981092,205.58862 193.124316,206.116455 C192.267541,206.64429 191.341932,207.030598 190.347461,207.275391 C189.35299,207.520184 188.274387,207.642578 187.111621,207.642578 C183.776318,207.642578 181.098936,206.571625 179.079395,204.429688 C177.059853,202.27245 176.050098,199.411476 176.050098,195.84668 C176.050098,192.312482 177.029255,189.451508 178.987598,187.263672 C180.96124,185.106435 183.577425,184.027832 186.83623,184.027832 C190.125635,184.027832 192.72652,185.075836 194.638965,187.171875 C196.53611,189.252615 197.484668,192.136538 197.484668,195.82373 L197.461719,197.040039 Z M192.160449,192.817383 C191.44137,190.063463 189.704897,188.686523 186.950977,188.686523 C186.323695,188.686523 185.734671,188.782144 185.183887,188.973389 C184.633103,189.164633 184.13205,189.440021 183.680713,189.799561 C183.229376,190.1591 182.843068,190.591306 182.521777,191.096191 C182.200487,191.601077 181.955697,192.174801 181.787402,192.817383 L192.160449,192.817383 Z M204.110449,204.429688 C204.110449,203.572912 204.424085,202.830895 205.051367,202.203613 C205.678649,201.576331 206.428316,201.262695 207.300391,201.262695 C208.172465,201.262695 208.922132,201.576331 209.549414,202.203613 C210.176696,202.830895 210.490332,203.580562 210.490332,204.452637 C210.490332,205.340011 210.176696,206.097328 209.549414,206.724609 C208.937432,207.336592 208.187765,207.642578 207.300391,207.642578 C206.397717,207.642578 205.6404,207.336592 205.028418,206.724609 C204.416436,206.112627 204.110449,205.347661 204.110449,204.429688 Z" id="txt"></path>
            </g>
        </g>
    </g>
</svg>