<svg width="60" height="60" viewBox="0 0 60 60" fill="none" xmlns="http://www.w3.org/2000/svg">
<path fill-rule="evenodd" clip-rule="evenodd" d="M0 30C0 13.4 13.4 0 30 0C46.6 0 60 13.4 60 30C60 46.6 46.6 60 30 60C13.4 60 0 46.6 0 30Z" fill="#1769FF"/>
<path fill-rule="evenodd" clip-rule="evenodd" d="M34.4 23.3H42.9V20.9H34.4V23.3ZM36.4 28.6C35.9 29.1 35.5 29.9 35.4 30.8H42C41.9 29.8 41.6 29 41 28.5C40.4 28 39.6 27.7 38.7 27.7C37.7 27.8 37 28.1 36.4 28.6ZM42.1 25.4C43.1 25.8 44 26.6 44.6 27.5C45.2 28.4 45.6 29.4 45.8 30.5C45.9 31.2 45.9 32.1 45.9 33.4H35.3C35.4 34.8 35.9 35.9 36.8 36.4C37.4 36.8 38.1 36.9 38.9 36.9C39.8 36.9 40.5 36.7 41 36.2C41.3 36 41.6 35.6 41.8 35.2H45.7C45.6 36.1 45.1 36.9 44.3 37.8C43 39.3 41.2 40 38.8 40C36.9 40 35.1 39.4 33.7 38.2C32.2 37 31.5 35.1 31.5 32.4C31.5 29.9 32.2 28 33.5 26.6C34.8 25.3 36.6 24.6 38.7 24.6C40 24.7 41.1 24.9 42.1 25.4ZM17.9 30.9V36.1H22.7C23.6 36.1 24.2 36 24.7 35.8C25.6 35.4 26 34.6 26 33.4C26 32.4 25.6 31.7 24.7 31.3C24.2 31.1 23.6 31 22.7 31H17.9V30.9ZM17.9 23.4V27.7H22.7C23.6 27.7 24.3 27.5 24.8 27.2C25.3 26.9 25.6 26.3 25.6 25.5C25.6 24.6 25.2 24 24.5 23.7C23.9 23.5 23.1 23.4 22.2 23.4H17.9ZM28.6 22.1C29.2 22.9 29.5 23.9 29.5 25.1C29.5 26.3 29.2 27.2 28.6 28C28.3 28.4 27.8 28.8 27.1 29.1C28.1 29.5 28.9 30 29.4 30.8C29.9 31.6 30.2 32.5 30.2 33.7C30.2 34.9 29.9 35.9 29.3 36.8C28.9 37.4 28.5 37.9 27.9 38.3C27.3 38.8 26.5 39.1 25.7 39.3C24.8 39.5 23.9 39.6 22.9 39.6H14V20H23.6C25.9 20 27.6 20.7 28.6 22.1Z" fill="white"/>
</svg>
