<?xml version="1.0" encoding="utf-8"?>
<!-- Generator: Adobe Illustrator 23.0.0, SVG Export Plug-In . SVG Version: 6.00 Build 0)  -->
<svg version="1.1" id="图层_1" xmlns="http://www.w3.org/2000/svg" xmlns:xlink="http://www.w3.org/1999/xlink" x="0px" y="0px"
	 viewBox="0 0 60 60" style="enable-background:new 0 0 60 60;" xml:space="preserve">
<style type="text/css">
	.st0{fill-rule:evenodd;clip-rule:evenodd;fill:#FDFDF5;}
	.st1{fill-rule:evenodd;clip-rule:evenodd;fill:#1769FF;}
	.st2{fill-rule:evenodd;clip-rule:evenodd;fill:#FFFFFF;}
</style>
<title>behance</title>
<desc>Created with Sketch.</desc>
<path class="st0" d="M30,60L30,60C13.4,60,0,46.6,0,30v0C0,13.4,13.4,0,30,0h0c16.6,0,30,13.4,30,30v0C60,46.6,46.6,60,30,60z"/>
<g id="Page-1">
	<g id="behance">
		<path id="back" class="st1" d="M0,30C0,13.4,13.4,0,30,0s30,13.4,30,30S46.6,60,30,60S0,46.6,0,30z"/>
		<path id="Behance" class="st2" d="M34.4,23.3h8.5v-2.4h-8.5V23.3L34.4,23.3z M36.4,28.6c-0.5,0.5-0.9,1.3-1,2.2H42
			c-0.1-1-0.4-1.8-1-2.3c-0.6-0.5-1.4-0.8-2.3-0.8C37.7,27.8,37,28.1,36.4,28.6L36.4,28.6L36.4,28.6z M42.1,25.4
			c1,0.4,1.9,1.2,2.5,2.1c0.6,0.9,1,1.9,1.2,3c0.1,0.7,0.1,1.6,0.1,2.9H35.3c0.1,1.4,0.6,2.5,1.5,3c0.6,0.4,1.3,0.5,2.1,0.5
			c0.9,0,1.6-0.2,2.1-0.7c0.3-0.2,0.6-0.6,0.8-1h3.9c-0.1,0.9-0.6,1.7-1.4,2.6C43,39.3,41.2,40,38.8,40c-1.9,0-3.7-0.6-5.1-1.8
			c-1.5-1.2-2.2-3.1-2.2-5.8c0-2.5,0.7-4.4,2-5.8c1.3-1.3,3.1-2,5.2-2C40,24.7,41.1,24.9,42.1,25.4L42.1,25.4L42.1,25.4z M17.9,30.9
			v5.2h4.8c0.9,0,1.5-0.1,2-0.3c0.9-0.4,1.3-1.2,1.3-2.4c0-1-0.4-1.7-1.3-2.1c-0.5-0.2-1.1-0.3-2-0.3H17.9L17.9,30.9z M17.9,23.4
			v4.3h4.8c0.9,0,1.6-0.2,2.1-0.5c0.5-0.3,0.8-0.9,0.8-1.7c0-0.9-0.4-1.5-1.1-1.8c-0.6-0.2-1.4-0.3-2.3-0.3H17.9L17.9,23.4z
			 M28.6,22.1c0.6,0.8,0.9,1.8,0.9,3c0,1.2-0.3,2.1-0.9,2.9c-0.3,0.4-0.8,0.8-1.5,1.1c1,0.4,1.8,0.9,2.3,1.7
			c0.5,0.8,0.8,1.7,0.8,2.9c0,1.2-0.3,2.2-0.9,3.1c-0.4,0.6-0.8,1.1-1.4,1.5c-0.6,0.5-1.4,0.8-2.2,1c-0.9,0.2-1.8,0.3-2.8,0.3H14V20
			h9.6C25.9,20,27.6,20.7,28.6,22.1L28.6,22.1L28.6,22.1z"/>
	</g>
</g>
</svg>
