<?xml version="1.0" encoding="utf-8"?>
<!-- Generator: Adobe Illustrator 23.0.0, SVG Export Plug-In . SVG Version: 6.00 Build 0)  -->
<svg version="1.1" id="图层_1" xmlns="http://www.w3.org/2000/svg" xmlns:xlink="http://www.w3.org/1999/xlink" x="0px" y="0px"
	 viewBox="0 0 60 60" style="enable-background:new 0 0 60 60;" xml:space="preserve">
<style type="text/css">
	.st0{fill-rule:evenodd;clip-rule:evenodd;fill:#FDFDF5;}
	.st1{fill:#029DD0;}
	.st2{fill:#FFFFFF;}
</style>
<title>bilibili</title>
<desc>Created with Sketch.</desc>
<path class="st0" d="M30,60L30,60C13.4,60,0,46.6,0,30v0C0,13.4,13.4,0,30,0h0c16.6,0,30,13.4,30,30v0C60,46.6,46.6,60,30,60z"/>
<g id="Page-1">
	<g id="bilibili">
		<circle id="Oval" class="st1" cx="30" cy="30" r="30"/>
		<g id="CN_bilibili-B" transform="translate(16.000000, 10.000000)">
			<path id="Shape" class="st2" d="M10.8,8.3C10.1,7.9,9.4,7.4,8.7,7L5.2,4.8C4.7,4.5,4.5,4.1,4.8,3.5C5.1,3,5.5,2.9,6,3.2
				c2.7,1.7,5.5,3.4,8.2,5.1c0.7,0.4,2,0.2,2.4-0.6c1.4-2.3,2.8-4.6,4.2-6.9c0-0.1,0.1-0.2,0.1-0.2c0.4-0.6,0.8-0.8,1.3-0.4
				c0.5,0.4,0.4,0.9,0.1,1.4c-0.6,0.9-1.1,1.9-1.7,2.8c-0.8,1.3-1.6,2.6-2.4,4h9.8c0.9,0,1.1,0.2,1.1,1.2c0,7.1,0,14.2,0,21.4
				c0,1-0.2,1.2-1.1,1.2c-0.2,0-0.5,0-0.7,0c-0.9-0.1-1.5,0-1.8,1.2c-0.3,1.1-1.3,1.7-2.2,1.5c-1.1-0.1-1.8-0.8-2.1-2
				c-0.2-0.7-0.4-0.8-1-0.8c-3.8,0-7.5,0-11.3,0c-0.4,0-0.7,0-0.8,0.6C7.8,34.2,6.8,35,5.8,35c-1.1,0-2-0.8-2.3-2.1
				c-0.1-0.6-0.4-0.7-0.8-0.7c-0.6,0-1.2,0-1.8,0c-0.6,0-0.9-0.3-0.9-1C0,24,0,16.7,0,9.5c0-0.8,0.3-1,1-1c3,0,6.1,0,9.1,0h0.6
				C10.8,8.4,10.8,8.4,10.8,8.3L10.8,8.3z M27.5,30.6V10.1h-26v20.5H27.5z M6.7,32.3H4.9c0.1,0.6,0.4,1,0.8,1
				C6.2,33.4,6.5,32.9,6.7,32.3L6.7,32.3z M22.5,32.3c0.2,0.6,0.4,1.1,1,1c0.5,0,0.7-0.5,0.9-1H22.5z"/>
			<path class="st2" d="M14.5,29H4.2c-1,0-1.2-0.2-1.2-1.4c0-5.1,0-10.2,0-15.3C3,11.2,3.2,11,4.1,11h20.7c0.9,0,1.1,0.2,1.1,1.3
				c0,5.1,0,10.3,0,15.4c0,1.1-0.2,1.3-1.2,1.3H14.5z M24.4,27.2V12.8H4.5v14.4H24.4z"/>
			<path class="st2" d="M14.6,25c-0.3,0.2-0.5,0.5-0.8,0.6c-0.9,0.6-1.8,0.5-2.7-0.2c-0.9-0.8-1.3-1.9-1.3-3.1
				c0-0.3,0.5-0.7,0.7-0.7c0.2,0,0.6,0.4,0.7,0.7c0.1,0.2,0.1,0.6,0.2,0.9c0.2,0.6,0.5,1.1,1.1,1c0.4-0.1,0.7-0.6,1-0.9
				c0.1-0.2,0.1-0.6,0.2-0.8c0.1-0.5,0.3-0.9,0.8-0.9c0.4,0,0.7,0.3,0.7,0.8c0,0.3,0,0.8,0.2,1c0.3,0.4,0.7,0.8,1,0.8
				c0.3,0,0.7-0.4,1-0.8c0.2-0.2,0.2-0.6,0.2-1c0.1-0.5,0.3-0.9,0.8-0.8c0.5,0,0.7,0.4,0.7,1c0,1.4-0.5,2.6-1.6,3.2
				c-1,0.6-2,0.3-2.9-0.6C14.7,25.1,14.7,25,14.6,25L14.6,25z M23,19.7c0,0.8-0.6,1.3-1.1,0.9c-1.5-1-2.9-2-4.3-3
				c-0.4-0.3-0.5-0.7-0.2-1.2c0.2-0.5,0.6-0.6,1-0.3c1.5,1,2.9,2,4.4,3C22.9,19.3,22.9,19.6,23,19.7z M10.6,16.5
				c0.1,0.2,0.5,0.4,0.5,0.6c0,0.3-0.1,0.9-0.3,1c-1.3,0.8-2.6,1.4-3.9,2.1c-0.4,0.2-0.8,0-0.9-0.4c-0.1-0.3,0.1-0.9,0.3-1.1
				c1.3-0.8,2.6-1.4,4-2.2C10.3,16.5,10.4,16.5,10.6,16.5z"/>
		</g>
	</g>
</g>
</svg>
