<svg width="200" height="200" viewBox="0 0 200 200" fill="none" xmlns="http://www.w3.org/2000/svg">
<g clip-path="url(#clip0_7_6)">
<path d="M100 200C155.228 200 200 155.228 200 100C200 44.7717 155.228 0 100 0C44.7717 0 0 44.7717 0 100C0 155.228 44.7717 200 100 200Z" fill="#029DD0"/>
<path d="M95.2708 119.543C96.9897 118.73 98.5703 117.319 100 115.305C101.43 117.319 103.01 118.73 104.729 119.543C107.211 120.716 109.691 120.505 111.817 119.52C113.882 118.563 115.603 116.892 116.868 115.074C118.135 113.253 119.05 111.132 119.387 109.108C119.583 107.932 118.789 106.82 117.613 106.624C116.437 106.428 115.325 107.222 115.129 108.398C114.911 109.707 114.279 111.237 113.324 112.609C112.366 113.986 111.19 115.053 110.002 115.604C108.874 116.127 107.744 116.193 106.574 115.64C105.327 115.051 103.771 113.628 102.187 110.607C101.756 109.786 100.869 109.357 100 109.469C99.1306 109.357 98.2445 109.786 97.8135 110.607C96.2295 113.628 94.6726 115.051 93.4257 115.64C92.2564 116.193 91.1264 116.127 89.9981 115.604C88.8096 115.053 87.634 113.986 86.676 112.609C85.7213 111.237 85.0887 109.707 84.8706 108.398C84.6747 107.222 83.5627 106.428 82.3869 106.624C81.2111 106.82 80.4168 107.932 80.6128 109.108C80.9502 111.132 81.8652 113.253 83.1325 115.074C84.3967 116.892 86.1177 118.563 88.1831 119.52C90.3086 120.505 92.7894 120.716 95.2708 119.543Z" fill="white"/>
<path d="M81.8492 86.1265C84.5607 85.1727 87.5319 86.5976 88.4857 89.309C89.4395 92.0205 88.0146 94.9918 85.3031 95.9455L66.7793 102.461C64.0679 103.415 61.0966 101.99 60.1429 99.2787C59.1891 96.5673 60.614 93.596 63.3254 92.6423L81.8492 86.1265Z" fill="white"/>
<path d="M118.151 86.1265C115.439 85.1727 112.468 86.5976 111.514 89.309C110.561 92.0205 111.985 94.9918 114.697 95.9455L133.221 102.461C135.932 103.415 138.903 101.99 139.857 99.2787C140.811 96.5673 139.386 93.596 136.675 92.6423L118.151 86.1265Z" fill="white"/>
<path fill-rule="evenodd" clip-rule="evenodd" d="M99.493 153.121C99.6614 153.121 99.8305 153.121 100 153.121C100.083 153.121 100.165 153.121 100.248 153.121C100.334 153.121 100.421 153.121 100.507 153.121C116.85 153.121 138.592 152.323 138.592 152.323C149.9 151.876 158.996 142.869 159.554 131.566C159.554 131.566 160.888 118.709 160.888 104.543C160.888 90.3772 159.554 77.5208 159.554 77.5208C158.996 66.2177 149.9 57.2108 138.592 56.7631C138.592 56.7631 132.292 56.3296 123.955 55.9275L129.129 49.0645C131.292 46.1958 130.72 42.1168 127.852 39.9537C124.983 37.7907 120.904 38.3627 118.741 41.2314L108.097 55.3473C105.5 55.2894 102.938 55.2553 100.507 55.2553C100.339 55.2553 100.17 55.2554 100 55.2558C99.8304 55.2554 99.6614 55.2553 99.493 55.2553C97.0616 55.2553 94.5002 55.2894 91.9029 55.3473L81.2592 41.2314C79.0962 38.3627 75.0171 37.7907 72.1484 39.9537C69.2797 42.1168 68.7077 46.1958 70.8707 49.0645L76.0455 55.9275C67.7085 56.3296 61.4078 56.7631 61.4078 56.7631C50.0998 57.2108 41.0044 66.2177 40.4462 77.5208C40.4462 77.5208 39.1116 90.3772 39.1116 104.543C39.1116 118.709 40.4462 131.566 40.4462 131.566C41.0044 142.869 50.0998 151.876 61.4078 152.323C61.4078 152.323 83.1502 153.121 99.493 153.121ZM100 66.5956C99.9362 66.5955 99.8724 66.5954 99.8086 66.5954C99.7033 66.5953 99.5981 66.5952 99.493 66.5952C82.451 66.5952 61.8561 68.0853 61.8561 68.0853C56.4114 68.3008 52.0322 72.6375 51.7634 78.0798C51.7634 78.0798 50.4565 88.6293 50.4565 104.543C50.4565 120.457 51.7634 131.007 51.7634 131.007C52.0322 136.449 56.4114 140.786 61.8561 141.001C61.8561 141.001 86.3838 141.781 99.493 141.781C99.5611 141.781 99.6296 141.781 99.6983 141.781C99.7982 141.781 99.8988 141.781 100 141.781C100.171 141.781 100.34 141.781 100.507 141.781C113.616 141.781 138.144 141.001 138.144 141.001C143.589 140.786 147.968 136.449 148.237 131.007C148.237 131.007 149.544 120.457 149.544 104.543C149.544 88.6293 148.237 78.0798 148.237 78.0798C147.968 72.6375 143.589 68.3008 138.144 68.0853C138.144 68.0853 117.549 66.5952 100.507 66.5952C100.338 66.5952 100.169 66.5954 100 66.5956Z" fill="white"/>
</g>
<defs>
<clipPath id="clip0_7_6">
<rect width="200" height="200" fill="white"/>
</clipPath>
</defs>
</svg>
