<svg width="60" height="60" viewBox="0 0 60 60" fill="none" xmlns="http://www.w3.org/2000/svg">
<path d="M30 60C46.5685 60 60 46.5685 60 30C60 13.4315 46.5685 0 30 0C13.4315 0 0 13.4315 0 30C0 46.5685 13.4315 60 30 60Z" fill="#029DD0"/>
<path fill-rule="evenodd" clip-rule="evenodd" d="M26.8 18.3C26.45 18.1 26.1 17.875 25.75 17.65C25.4 17.425 25.05 17.2 24.7 17L21.2 14.8C20.7 14.5 20.5 14.1 20.8 13.5C21.1 13 21.5 12.9 22 13.2C23.35 14.05 24.725 14.9 26.1 15.75C27.475 16.6 28.85 17.45 30.2 18.3C30.9 18.7 32.2 18.5 32.6 17.7L36.8 10.8C36.8 10.7 36.9 10.6 36.9 10.6C37.3 10 37.7 9.8 38.2 10.2C38.7 10.6 38.6 11.1 38.3 11.6C38 12.05 37.725 12.525 37.45 13C37.175 13.475 36.9 13.95 36.6 14.4L36.6 14.4001C35.8 15.7001 35 17 34.2 18.4H44C44.9 18.4 45.1 18.6 45.1 19.6V41C45.1 42 44.9 42.2 44 42.2H43.3C42.4 42.1 41.8 42.2 41.5 43.4C41.2 44.5 40.2 45.1 39.3 44.9C38.2 44.8 37.5 44.1 37.2 42.9C37 42.2 36.8 42.1 36.2 42.1H24.9C24.5 42.1 24.2 42.1 24.1 42.7C23.8 44.2 22.8 45 21.8 45C20.7 45 19.8 44.2 19.5 42.9C19.4 42.3 19.1 42.2 18.7 42.2H16.9C16.3 42.2 16 41.9 16 41.2V19.5C16 18.7 16.3 18.5 17 18.5H26.1H26.7C26.7575 18.4425 26.7819 18.4181 26.7923 18.3887C26.8 18.3669 26.8 18.3425 26.8 18.3ZM43.5 40.6V20.1H17.5V40.6H43.5ZM22.7 42.3H20.9C21 42.9 21.3 43.3 21.7 43.3C22.2 43.4 22.5 42.9 22.7 42.3ZM38.5 42.3C38.7 42.9 38.9 43.4 39.5 43.3C40 43.3 40.2 42.8 40.4 42.3H38.5ZM30.5 39H20.2C19.2 39 19 38.8 19 37.6V22.3C19 21.2 19.2 21 20.1 21H40.8C41.7 21 41.9 21.2 41.9 22.3V37.7C41.9 38.8 41.7 39 40.7 39H30.5ZM40.4 37.2V22.8H20.5V37.2H40.4ZM30.2777 35.2665C30.3777 35.1744 30.481 35.0793 30.6 35C30.7 35 30.7 35.1 30.6 35.2C31.5 36.1 32.5 36.4 33.5 35.8C34.6 35.2 35.1 34 35.1 32.6C35.1 32 34.9 31.6 34.4 31.6C33.9 31.5 33.7 31.9 33.6 32.4C33.6 32.8 33.6 33.2 33.4 33.4C33.1 33.8 32.7 34.2 32.4 34.2C32.1 34.2 31.7 33.8 31.4 33.4C31.2 33.2 31.2 32.7 31.2 32.4C31.2 31.9 30.9 31.6 30.5 31.6C30 31.6 29.8 32 29.7 32.5C29.65 32.6 29.625 32.75 29.6 32.9C29.575 33.05 29.55 33.2 29.5 33.3C29.4165 33.3835 29.333 33.4825 29.2473 33.584C29.0253 33.8473 28.7887 34.1278 28.5 34.2C27.9 34.3 27.6 33.8 27.4 33.2C27.3531 33.0593 27.3282 32.8967 27.3047 32.743C27.278 32.5689 27.2531 32.4062 27.2 32.3C27.1 32 26.7 31.6 26.5 31.6C26.3 31.6 25.8 32 25.8 32.3C25.8 33.5 26.2 34.6 27.1 35.4C28 36.1 28.9 36.2 29.8 35.6C29.981 35.5397 30.1256 35.4066 30.2777 35.2665ZM37.9 30.6C38.4 31 39 30.5 39 29.7C38.9459 29.6459 38.921 29.5331 38.8938 29.4093C38.8707 29.3045 38.8459 29.1917 38.8 29.1C38.05 28.6 37.325 28.1 36.6 27.6C35.875 27.1 35.15 26.6 34.4 26.1C34 25.8 33.6 25.9 33.4 26.4C33.1 26.9 33.2 27.3 33.6 27.6L33.6002 27.6001C35.0001 28.6001 36.4001 29.6 37.9 30.6ZM26.8388 26.7571C26.7408 26.6714 26.6429 26.5857 26.6 26.5H26.3C25.7062 26.8393 25.1303 27.1427 24.5649 27.4406C23.7972 27.845 23.0486 28.2393 22.3 28.7C22.1 28.9 21.9 29.5 22 29.8C22.1 30.2 22.5 30.4 22.9 30.2C23.3333 29.9667 23.7667 29.7444 24.2 29.5222C25.0667 29.0778 25.9333 28.6333 26.8 28.1C27 28 27.1 27.4 27.1 27.1C27.1 26.9857 26.9694 26.8714 26.8388 26.7571Z" fill="white"/>
</svg>
