<svg width="261" height="261" viewBox="0 0 261 261" fill="none" xmlns="http://www.w3.org/2000/svg">
<rect width="261" height="261" rx="130.5" fill="url(#paint0_linear_1_2)"/>
<path d="M48.777 140.189V142.976C48.777 144.369 48.5147 145.689 47.99 146.934C47.4653 148.18 46.7413 149.288 45.8179 150.259C44.8944 151.23 43.8136 152.001 42.5754 152.57C41.3372 153.14 40.0045 153.425 38.5774 153.425C37.3601 153.425 36.1219 153.257 34.8627 152.919C33.6035 152.581 32.4702 151.99 31.4628 151.146C30.4555 150.301 29.6265 149.214 28.9759 147.884C28.3253 146.554 28 144.855 28 142.786V117.961C28 116.483 28.2518 115.111 28.7555 113.844C29.2592 112.578 29.9728 111.48 30.8962 110.551C31.8196 109.622 32.9214 108.894 34.2016 108.366C35.4818 107.838 36.8984 107.575 38.4515 107.575C41.4736 107.575 43.929 108.567 45.8179 110.551C46.7413 111.522 47.4653 112.673 47.99 114.003C48.5147 115.332 48.777 116.779 48.777 118.341V120.874H42.355V118.721C42.355 117.454 41.9983 116.356 41.2847 115.427C40.5711 114.499 39.6058 114.034 38.3885 114.034C36.7935 114.034 35.7337 114.53 35.209 115.522C34.6843 116.515 34.422 117.771 34.422 119.291V142.343C34.422 143.652 34.7053 144.749 35.272 145.636C35.8386 146.522 36.8565 146.966 38.3256 146.966C38.7453 146.966 39.1965 146.892 39.6792 146.744C40.1619 146.596 40.6131 146.354 41.0329 146.016C41.4106 145.678 41.7254 145.214 41.9773 144.623C42.2291 144.031 42.355 143.293 42.355 142.406V140.189H48.777ZM74.7798 120.937H68.3578V119.481C68.3578 118.003 68.0115 116.726 67.3189 115.649C66.6264 114.573 65.4616 114.034 63.8246 114.034C62.9432 114.034 62.2296 114.203 61.684 114.541C61.1383 114.879 60.6976 115.301 60.3618 115.807C60.026 116.356 59.7951 116.979 59.6692 117.676C59.5433 118.372 59.4803 119.101 59.4803 119.861C59.4803 120.747 59.5118 121.486 59.5748 122.077C59.6377 122.668 59.7951 123.196 60.047 123.66C60.2988 124.125 60.6661 124.526 61.1488 124.864C61.6315 125.201 62.2926 125.539 63.1321 125.877L68.043 127.84C69.4701 128.389 70.6244 129.033 71.5058 129.772C72.3873 130.511 73.0799 131.366 73.5835 132.337C74.0453 133.35 74.3601 134.5 74.5279 135.788C74.6958 137.076 74.7798 138.543 74.7798 140.189C74.7798 142.089 74.5909 143.852 74.2131 145.478C73.8354 147.103 73.2268 148.486 72.3873 149.626C71.5058 150.808 70.3516 151.737 68.9244 152.412C67.4973 153.088 65.7554 153.425 63.6987 153.425C62.1457 153.425 60.6976 153.151 59.3544 152.602C58.0113 152.053 56.857 151.293 55.8916 150.322C54.9262 149.351 54.1602 148.222 53.5935 146.934C53.0269 145.646 52.7436 144.243 52.7436 142.723V140.316H59.1655V142.343C59.1655 143.525 59.5118 144.591 60.2044 145.541C60.897 146.491 62.0617 146.966 63.6987 146.966C64.79 146.966 65.64 146.807 66.2486 146.491C66.8572 146.174 67.3294 145.72 67.6652 145.129C68.001 144.538 68.2004 143.831 68.2634 143.008C68.3263 142.184 68.3578 141.266 68.3578 140.253C68.3578 139.071 68.3158 138.1 68.2319 137.34C68.1479 136.58 67.98 135.967 67.7282 135.503C67.4344 135.039 67.0461 134.659 66.5634 134.363C66.0807 134.068 65.4406 133.751 64.6431 133.413L60.047 131.513C57.2767 130.373 55.4194 128.864 54.475 126.985C53.5306 125.106 53.0584 122.753 53.0584 119.924C53.0584 118.235 53.2892 116.631 53.7509 115.111C54.2126 113.591 54.9052 112.282 55.8286 111.184C56.7101 110.087 57.8329 109.211 59.197 108.556C60.5612 107.902 62.1876 107.575 64.0765 107.575C65.6715 107.575 67.1301 107.87 68.4522 108.461C69.7744 109.052 70.9182 109.833 71.8836 110.804C73.8144 112.831 74.7798 115.153 74.7798 117.771V120.937ZM79.187 118.594C79.187 116.778 79.5018 115.174 80.1314 113.781C80.7611 112.388 81.6005 111.227 82.6499 110.298C83.6573 109.411 84.801 108.736 86.0812 108.271C87.3614 107.807 88.6521 107.575 89.9533 107.575C91.2545 107.575 92.5452 107.807 93.8254 108.271C95.1056 108.736 96.2704 109.411 97.3197 110.298C98.3271 111.227 99.1456 112.388 99.7752 113.781C100.405 115.174 100.72 116.778 100.72 118.594V120.874H94.2976V118.594C94.2976 117.032 93.8674 115.881 93.0069 115.142C92.1464 114.404 91.1286 114.034 89.9533 114.034C88.778 114.034 87.7602 114.404 86.8997 115.142C86.0393 115.881 85.609 117.032 85.609 118.594V142.406C85.609 143.968 86.0393 145.119 86.8997 145.858C87.7602 146.596 88.778 146.966 89.9533 146.966C91.1286 146.966 92.1464 146.596 93.0069 145.858C93.8674 145.119 94.2976 143.968 94.2976 142.406V133.92H89.1978V128.22H100.72V142.406C100.72 144.306 100.405 145.931 99.7752 147.282C99.1456 148.633 98.3271 149.752 97.3197 150.639C96.2704 151.568 95.1056 152.264 93.8254 152.729C92.5452 153.193 91.2545 153.425 89.9533 153.425C88.6521 153.425 87.3614 153.193 86.0812 152.729C84.801 152.264 83.6573 151.568 82.6499 150.639C81.6005 149.752 80.7611 148.633 80.1314 147.282C79.5018 145.931 79.187 144.306 79.187 142.406V118.594ZM106.008 118.594C106.008 116.778 106.323 115.174 106.953 113.781C107.582 112.388 108.422 111.227 109.471 110.298C110.479 109.411 111.622 108.736 112.902 108.271C114.183 107.807 115.473 107.575 116.775 107.575C118.076 107.575 119.366 107.807 120.647 108.271C121.927 108.736 123.092 109.411 124.141 110.298C125.148 111.227 125.967 112.388 126.596 113.781C127.226 115.174 127.541 116.778 127.541 118.594V142.406C127.541 144.306 127.226 145.931 126.596 147.282C125.967 148.633 125.148 149.752 124.141 150.639C123.092 151.568 121.927 152.264 120.647 152.729C119.366 153.193 118.076 153.425 116.775 153.425C115.473 153.425 114.183 153.193 112.902 152.729C111.622 152.264 110.479 151.568 109.471 150.639C108.422 149.752 107.582 148.633 106.953 147.282C106.323 145.931 106.008 144.306 106.008 142.406V118.594ZM112.43 142.406C112.43 143.968 112.861 145.119 113.721 145.858C114.581 146.596 115.599 146.966 116.775 146.966C117.95 146.966 118.968 146.596 119.828 145.858C120.689 145.119 121.119 143.968 121.119 142.406V118.594C121.119 117.032 120.689 115.881 119.828 115.142C118.968 114.404 117.95 114.034 116.775 114.034C115.599 114.034 114.581 114.404 113.721 115.142C112.861 115.881 112.43 117.032 112.43 118.594V142.406ZM132.83 153.045V146.586H139.252V153.045H132.83Z" fill="white"/>
<path d="M144.918 107.955V153.045H164.058V146.586H151.34V107.955H144.918Z" fill="#FF0000"/>
<path d="M168.402 107.955V153.045H174.824V107.955H168.402Z" fill="#FF0000"/>
<path d="M180.806 107.955V153.045H187.228V125.94H187.354L197.175 153.045H203.22V107.955H196.798V135.123H196.672L186.976 107.955H180.806Z" fill="#FF0000"/>
<path d="M209.012 107.955V153.045H215.434V139.556L218.897 133.033L226.2 153.045H233L222.611 126.004L231.363 107.955H224.941L215.56 128.537H215.434V107.955H209.012Z" fill="#FF0000"/>
<defs>
<linearGradient id="paint0_linear_1_2" x1="130.5" y1="0" x2="130.5" y2="261" gradientUnits="userSpaceOnUse">
<stop stop-color="#070707"/>
<stop offset="1" stop-color="#3E3E3E"/>
</linearGradient>
</defs>
</svg>
