<svg width="261" height="261" viewBox="0 0 261 261" fill="none" xmlns="http://www.w3.org/2000/svg">
<rect width="261" height="261" rx="130.5" fill="black"/>
<path d="M53.8583 139.587V142.2C53.8583 143.507 53.6123 144.744 53.1203 145.912C52.6282 147.08 51.9492 148.12 51.0832 149.03C50.2172 149.941 49.2036 150.664 48.0423 151.198C46.8811 151.733 45.6313 152 44.2929 152C43.1513 152 41.9901 151.842 40.8092 151.525C39.6283 151.208 38.5654 150.654 37.6207 149.862C36.676 149.07 35.8985 148.05 35.2884 146.803C34.6782 145.556 34.3732 143.962 34.3732 142.022V118.74C34.3732 117.355 34.6094 116.068 35.0817 114.88C35.5541 113.692 36.2233 112.663 37.0893 111.791C37.9553 110.92 38.9886 110.237 40.1892 109.742C41.3898 109.247 42.7183 109 44.1748 109C47.009 109 49.3118 109.93 51.0832 111.791C51.9492 112.702 52.6282 113.781 53.1203 115.028C53.6123 116.276 53.8583 117.632 53.8583 119.097V121.472H47.8357V119.453C47.8357 118.265 47.5011 117.236 46.8319 116.365C46.1627 115.494 45.2573 115.058 44.1158 115.058C42.6199 115.058 41.626 115.523 41.1339 116.454C40.6419 117.384 40.3959 118.562 40.3959 119.988V141.606C40.3959 142.834 40.6616 143.863 41.193 144.695C41.7244 145.526 42.679 145.942 44.0567 145.942C44.4504 145.942 44.8735 145.873 45.3262 145.734C45.7789 145.596 46.202 145.368 46.5957 145.051C46.95 144.734 47.2452 144.299 47.4814 143.744C47.7176 143.19 47.8357 142.497 47.8357 141.666V139.587H53.8583ZM78.2443 121.532H72.2216V120.166C72.2216 118.78 71.8969 117.582 71.2474 116.573C70.5979 115.563 69.5055 115.058 67.9703 115.058C67.1437 115.058 66.4745 115.216 65.9628 115.533C65.451 115.85 65.0377 116.246 64.7228 116.721C64.4079 117.236 64.1914 117.82 64.0733 118.473C63.9552 119.126 63.8962 119.809 63.8962 120.522C63.8962 121.354 63.9257 122.046 63.9847 122.601C64.0438 123.155 64.1914 123.65 64.4276 124.086C64.6638 124.521 65.0082 124.897 65.4609 125.214C65.9136 125.531 66.5335 125.848 67.3208 126.164L71.9264 128.006C73.2648 128.52 74.3473 129.124 75.1739 129.817C76.0006 130.51 76.6501 131.312 77.1225 132.222C77.5555 133.173 77.8507 134.252 78.0081 135.459C78.1656 136.667 78.2443 138.043 78.2443 139.587C78.2443 141.369 78.0672 143.022 77.7129 144.546C77.3586 146.071 76.7879 147.367 76.0006 148.436C75.1739 149.545 74.0914 150.416 72.753 151.05C71.4147 151.683 69.7811 152 67.8522 152C66.3958 152 65.0377 151.743 63.7781 151.228C62.5184 150.713 61.4359 150 60.5305 149.09C59.6252 148.179 58.9068 147.12 58.3754 145.912C57.8439 144.705 57.5782 143.388 57.5782 141.963V139.706H63.6009V141.606C63.6009 142.715 63.9257 143.715 64.5752 144.606C65.2247 145.497 66.317 145.942 67.8522 145.942C68.8757 145.942 69.6728 145.794 70.2436 145.497C70.8144 145.2 71.2572 144.774 71.5721 144.22C71.887 143.665 72.074 143.002 72.1331 142.23C72.1921 141.458 72.2216 140.597 72.2216 139.646C72.2216 138.538 72.1823 137.627 72.1035 136.914C72.0248 136.202 71.8674 135.628 71.6312 135.192C71.3556 134.756 70.9915 134.4 70.5388 134.123C70.0861 133.846 69.4858 133.549 68.7379 133.232L64.4276 131.45C61.8295 130.381 60.0877 128.966 59.202 127.204C58.3163 125.442 57.8735 123.234 57.8735 120.581C57.8735 118.998 58.09 117.493 58.523 116.068C58.956 114.642 59.6055 113.415 60.4715 112.385C61.2981 111.356 62.3511 110.534 63.6304 109.921C64.9098 109.307 66.4351 109 68.2065 109C69.7023 109 71.0702 109.277 72.3102 109.831C73.5502 110.386 74.6228 111.118 75.5282 112.029C77.339 113.93 78.2443 116.107 78.2443 118.562V121.532ZM82.3775 119.334C82.3775 117.632 82.6728 116.127 83.2632 114.82C83.8537 113.514 84.641 112.425 85.6251 111.554C86.5698 110.722 87.6425 110.089 88.8431 109.653C90.0437 109.218 91.2541 109 92.4744 109C93.6947 109 94.9051 109.218 96.1057 109.653C97.3063 110.089 98.3987 110.722 99.3828 111.554C100.328 112.425 101.095 113.514 101.686 114.82C102.276 116.127 102.571 117.632 102.571 119.334V121.472H96.5486V119.334C96.5486 117.869 96.1451 116.79 95.3381 116.097C94.5312 115.404 93.5766 115.058 92.4744 115.058C91.3722 115.058 90.4176 115.404 89.6107 116.097C88.8037 116.79 88.4002 117.869 88.4002 119.334V141.666C88.4002 143.131 88.8037 144.21 89.6107 144.903C90.4176 145.596 91.3722 145.942 92.4744 145.942C93.5766 145.942 94.5312 145.596 95.3381 144.903C96.1451 144.21 96.5486 143.131 96.5486 141.666V133.707H91.7658V128.362H102.571V141.666C102.571 143.448 102.276 144.972 101.686 146.239C101.095 147.506 100.328 148.555 99.3828 149.387C98.3987 150.258 97.3063 150.911 96.1057 151.347C94.9051 151.782 93.6947 152 92.4744 152C91.2541 152 90.0437 151.782 88.8431 151.347C87.6425 150.911 86.5698 150.258 85.6251 149.387C84.641 148.555 83.8537 147.506 83.2632 146.239C82.6728 144.972 82.3775 143.448 82.3775 141.666V119.334ZM107.531 119.334C107.531 117.632 107.826 116.127 108.417 114.82C109.007 113.514 109.795 112.425 110.779 111.554C111.723 110.722 112.796 110.089 113.997 109.653C115.197 109.218 116.408 109 117.628 109C118.848 109 120.059 109.218 121.259 109.653C122.46 110.089 123.552 110.722 124.536 111.554C125.481 112.425 126.249 113.514 126.839 114.82C127.43 116.127 127.725 117.632 127.725 119.334V141.666C127.725 143.448 127.43 144.972 126.839 146.239C126.249 147.506 125.481 148.555 124.536 149.387C123.552 150.258 122.46 150.911 121.259 151.347C120.059 151.782 118.848 152 117.628 152C116.408 152 115.197 151.782 113.997 151.347C112.796 150.911 111.723 150.258 110.779 149.387C109.795 148.555 109.007 147.506 108.417 146.239C107.826 144.972 107.531 143.448 107.531 141.666V119.334ZM113.554 141.666C113.554 143.131 113.957 144.21 114.764 144.903C115.571 145.596 116.526 145.942 117.628 145.942C118.73 145.942 119.685 145.596 120.492 144.903C121.299 144.21 121.702 143.131 121.702 141.666V119.334C121.702 117.869 121.299 116.79 120.492 116.097C119.685 115.404 118.73 115.058 117.628 115.058C116.526 115.058 115.571 115.404 114.764 116.097C113.957 116.79 113.554 117.869 113.554 119.334V141.666ZM132.685 151.644V145.586H138.707V151.644H132.685Z" fill="white"/>
<path d="M144.022 109.356V151.644H161.971V145.586H150.044V109.356H144.022Z" fill="#FF0000"/>
<path d="M166.046 109.356V151.644H172.068V109.356H166.046Z" fill="#FF0000"/>
<path d="M177.678 109.356V151.644H183.7V126.224H183.819L193.03 151.644H198.698V109.356H192.675V134.836H192.557L183.464 109.356H177.678Z" fill="#FF0000"/>
<path d="M204.13 109.356V151.644H210.153V138.993L213.401 132.876L220.25 151.644H226.627L216.884 126.283L225.092 109.356H219.069L210.271 128.659H210.153V109.356H204.13Z" fill="#FF0000"/>
</svg>
