<?xml version="1.0" encoding="UTF-8"?>
<svg width="90px" height="90px" viewBox="0 0 90 90" version="1.1" xmlns="http://www.w3.org/2000/svg" xmlns:xlink="http://www.w3.org/1999/xlink">
    <!-- Generator: Sketch 54 (76480) - https://sketchapp.com -->
    <title>画板复制</title>
    <desc>Created with Sketch.</desc>
    <g id="画板复制" stroke="none" stroke-width="1" fill="none" fill-rule="evenodd">
        <rect id="矩形" fill="#FE2D54" fill-rule="nonzero" x="0" y="0" width="90" height="90" rx="45"></rect>
        <g id="编组" transform="translate(12.000000, 23.000000)" fill="#FFFFFF" fill-rule="nonzero">
            <path d="M22.3371378,11.2840471 L21.0356518,5.95413196 L15.7803019,4.57304174 C14.4934411,4.23485858 13.7347453,2.95548433 14.0857073,1.71547939 C14.4366693,0.475474453 15.7643871,-0.255596542 17.0512479,0.0825866237 L25.079327,2.19234179 L26.2491393,6.98301979 C26.274864,6.98252321 26.3005996,6.9822747 26.3263426,6.9822747 L32.718165,6.9822747 L57.8275463,6.9822747 C60.0366853,6.9822747 61.8275463,8.7731357 61.8275463,10.9822747 C61.8275463,11.2984002 61.790071,11.6134113 61.7159049,11.9207136 L57.6087488,28.9384389 C57.1752721,30.7345205 55.5680404,32 53.7203902,32 L30.4334987,32 C28.5858486,32 26.9786168,30.7345205 26.5451401,28.9384389 L22.437984,11.9207136 C22.3866678,11.7080884 22.3533799,11.4953303 22.3371378,11.2840471 Z M34.2270395,18.0360345 C35.3941679,18.0360345 36.3403123,17.1243401 36.3403123,15.999708 C36.3403123,14.875076 35.3941679,13.9633816 34.2270395,13.9633816 C33.0599112,13.9633816 32.1137668,14.875076 32.1137668,15.999708 C32.1137668,17.1243401 33.0599112,18.0360345 34.2270395,18.0360345 Z M49.9256374,18.0360345 C51.0927657,18.0360345 52.0389102,17.1243401 52.0389102,15.999708 C52.0389102,14.875076 51.0927657,13.9633816 49.9256374,13.9633816 C48.7585091,13.9633816 47.8123646,14.875076 47.8123646,15.999708 C47.8123646,17.1243401 48.7585091,18.0360345 49.9256374,18.0360345 Z M37.677371,23.7514139 C39.0829401,24.5752369 40.6983344,25.0177253 42.3782346,25.0177253 C44.2591971,25.0177253 46.056968,24.4627002 47.5662661,23.4448129 C48.1126638,23.0763163 48.2455932,22.3507759 47.8631723,21.824273 C47.4807513,21.2977702 46.727795,21.1696808 46.1813973,21.5381775 C45.0748015,22.2844778 43.7596792,22.690495 42.3782346,22.690495 C41.1441884,22.690495 39.9624455,22.3667924 38.932476,21.7631133 C38.362675,21.4291452 37.6197951,21.6035069 37.2732074,22.1525609 C36.9266198,22.7016149 37.10757,23.4174458 37.677371,23.7514139 Z" id="形状结合"></path>
            <circle id="椭圆形" cx="32" cy="41" r="4"></circle>
            <circle id="椭圆形复制" cx="53" cy="41" r="4"></circle>
            <path d="M5.38144243,10.0531922 L15.7726177,10.1207371 C17.0837007,10.1292595 18.1444973,11.1898972 18.1532159,12.5009789 L18.1532159,12.5009789 C18.1617879,13.7899973 17.1237809,14.8419021 15.8347625,14.850474 C15.8245319,14.850542 15.814301,14.8505428 15.8040703,14.8504763 L5.41289501,14.7829314 C4.10181203,14.774409 3.04101545,13.7137713 3.03229681,12.4026896 L3.03229681,12.4026896 C3.02372488,11.1136712 4.06173183,10.0617664 5.35075022,10.0531945 C5.36098084,10.0531265 5.3712118,10.0531257 5.38144243,10.0531922 Z" id="矩形" transform="translate(10.592756, 12.451834) rotate(-15.000000) translate(-10.592756, -12.451834) "></path>
            <path d="M11.418646,29.3797879 L20.6001478,29.4394697 C21.9112308,29.4479921 22.9720274,30.5086298 22.980746,31.8197115 L22.980746,31.8197115 C22.9893179,33.1087299 21.951311,34.1606347 20.6622926,34.1692066 C20.652062,34.1692746 20.641831,34.1692754 20.6316004,34.1692089 L11.4500986,34.1095271 C10.1390156,34.1010048 9.07821906,33.040367 9.06950041,31.7292853 L9.06950041,31.7292853 C9.06092849,30.4402669 10.0989354,29.3883622 11.3879538,29.3797902 C11.3981844,29.3797222 11.4084154,29.3797214 11.418646,29.3797879 Z" id="矩形复制-3" transform="translate(16.025123, 31.774498) rotate(-15.000000) translate(-16.025123, -31.774498) "></path>
            <path d="M4.21305931,16.8426237 L17.0235817,16.9258949 C18.3346647,16.9344172 19.3954613,17.995055 19.4041799,19.3061367 L19.4041799,19.3061367 C19.4127518,20.5951551 18.3747449,21.6470598 17.0857265,21.6556318 C17.0754959,21.6556998 17.0652649,21.6557006 17.0550343,21.6556341 L4.2445119,21.5723628 C2.93342892,21.5638405 1.87263234,20.5032027 1.86391369,19.192121 L1.86391369,19.192121 C1.85534177,17.9031027 2.89334872,16.8511979 4.18236711,16.842626 C4.19259773,16.8425579 4.20282868,16.8425572 4.21305931,16.8426237 Z" id="矩形复制" transform="translate(10.634047, 19.249129) rotate(-15.000000) translate(-10.634047, -19.249129) "></path>
            <path d="M2.9729447,23.7064622 L18.8076509,23.8093913 C20.1187339,23.8179136 21.1795305,24.8785514 21.1882491,26.1896331 L21.1882491,26.1896331 C21.196821,27.4786514 20.1588141,28.5305562 18.8697957,28.5391281 C18.8595651,28.5391962 18.8493341,28.5391969 18.8391035,28.5391304 L3.00439729,28.4362013 C1.6933143,28.427679 0.632517723,27.3670412 0.62379908,26.0559596 L0.62379908,26.0559596 C0.615227156,24.7669412 1.65323411,23.7150364 2.94225249,23.7064645 C2.95248311,23.7063964 2.96271407,23.7063957 2.9729447,23.7064622 Z" id="矩形复制-2" transform="translate(10.906024, 26.122796) rotate(-15.000000) translate(-10.906024, -26.122796) "></path>
        </g>
    </g>
</svg>