<?xml version="1.0" encoding="UTF-8"?>
<svg width="60px" height="60px" viewBox="0 0 60 60" version="1.1" xmlns="http://www.w3.org/2000/svg" xmlns:xlink="http://www.w3.org/1999/xlink">
    <!-- Generator: Sketch 53 (72520) - https://sketchapp.com -->
    <title>dribbble</title>
    <desc>Created with Sketch.</desc>
    <g id="Page-1" stroke="none" stroke-width="1" fill="none" fill-rule="evenodd">
        <g id="dribbble">
            <path d="M0,30 C0,13.4314567 13.4314567,0 30,0 C46.5685433,0 60,13.4314567 60,30 C60,46.5685433 46.5685433,60 30,60 C13.4314567,60 0,46.5685433 0,30 Z" id="back" fill="#F26798"></path>
            <path d="M46,29.9778187 C46,31.0598662 45.8898415,32.1404127 45.67347,33.1936939 C45.4624843,34.221961 45.1499825,35.2314676 44.7405988,36.1965115 C44.340609,37.1444834 43.8444888,38.0579983 43.2647635,38.909916 C42.6936805,39.7564557 42.0357984,40.5506533 41.3130987,41.2746239 C40.5888335,41.9954677 39.7919225,42.651525 38.9457877,43.2250358 C38.0910733,43.8007353 37.1762383,44.2961396 36.2277107,44.6979911 C35.2612721,45.1052206 34.24943,45.4172715 33.2220567,45.6278902 C32.1673787,45.844825 31.0828909,45.9555749 29.9992798,45.9555749 C28.9148546,45.9555749 27.8304294,45.844825 26.7772544,45.6278902 C25.7483155,45.4172715 24.736536,45.1052206 23.7708489,44.6979911 C22.822384,44.2961396 21.9066722,43.8007353 21.0519577,43.2250358 C20.205823,42.6515876 19.408912,41.9954677 18.6862124,41.2746239 C17.9627612,40.5506533 17.3048791,39.7564557 16.732982,38.909916 C16.1563879,38.0579983 15.6594536,37.1444208 15.2578982,36.1965115 C14.8484519,35.2314676 14.5351985,34.2218985 14.3234613,33.1936939 C14.109407,32.1404127 14,31.0598662 14,29.9778187 C14,28.8949584 14.1093443,27.812098 14.3235239,26.7611306 C14.5352612,25.7328635 14.8485145,24.7217936 15.2579608,23.758313 C15.6595163,22.8096532 16.1564505,21.8953254 16.7330446,21.0433451 C17.3049417,20.1961176 17.9628239,19.4034208 18.686275,18.6786372 C19.4089746,17.9577309 20.2058856,17.3032369 21.0520204,16.7306017 C21.9067348,16.1524633 22.8224466,15.6571216 23.7709116,15.2545196 C24.7365986,14.8464146 25.7483155,14.5336133 26.777317,14.3245579 C27.830492,14.1092491 28.9149172,14 29.9993424,14 C31.0829535,14 32.1673787,14.1092491 33.2221194,14.3245579 C34.2494926,14.5336758 35.2612721,14.8464771 36.2277733,15.2545196 C37.1762383,15.657059 38.0911359,16.1524633 38.9458504,16.7306017 C39.7919851,17.3032369 40.5889587,17.9577309 41.3131614,18.6786372 C42.035861,19.4034208 42.6937431,20.1961176 43.2648261,21.0433451 C43.8444888,21.8953254 44.340609,22.8097158 44.7405988,23.758313 C45.1499825,24.7217936 45.4624843,25.7328635 45.67347,26.7611306 C45.8898415,27.812098 46,28.8949584 46,29.9778187 Z M24.1692731,17.6363622 C20.35888,19.433125 17.5149881,22.9391638 16.6282093,27.1645455 C16.9884319,27.1676722 22.6824783,27.2394627 29.2429502,25.4988566 C26.878019,21.3031166 24.3513258,17.8790615 24.1692731,17.6363622 Z M30.3750335,27.5999159 C23.3395463,29.7031639 16.5883794,29.5518286 16.3462062,29.5425109 C16.3422607,29.689156 16.3352467,29.831111 16.3352467,29.9778187 C16.3352467,33.4830445 17.659528,36.6785958 19.8362066,39.0948327 C19.8315097,39.0877663 23.5708227,32.4634073 30.9446135,30.0823777 C31.1227208,30.0230943 31.3040219,29.9700018 31.4836948,29.9185353 C31.1407569,29.1430982 30.7664436,28.3660352 30.3750335,27.5999159 Z M39.023193,19.737359 C36.6175551,17.619165 33.4588442,16.3343158 29.9992798,16.3343158 C28.8890528,16.3343158 27.8116417,16.4685164 26.7795715,16.7165938 C26.984232,16.9912486 29.5508178,20.391165 31.8876301,24.6757676 C37.0434093,22.7456797 38.989563,19.7872621 39.023193,19.737359 Z M32.4150004,32.1794347 C32.3845644,32.1895029 32.3541283,32.1981953 32.3243811,32.2090764 C24.2623779,35.0155551 21.6296215,40.6714147 21.6011364,40.7331554 C23.9208373,42.5345216 26.8303609,43.6213217 29.9992798,43.6213217 C31.8915129,43.6213217 33.6939408,43.2366048 35.3338552,42.5400247 C35.1315118,41.3479152 34.3377321,37.1693724 32.4150004,32.1794347 Z M37.6348457,41.293322 C40.7029373,39.2259066 42.8819331,35.9429936 43.4897773,32.1403502 C43.2085257,32.0498617 39.3856701,30.841368 34.9752609,31.5474535 C36.7675435,36.4656632 37.4957542,40.471046 37.6348457,41.293322 Z M32.9393021,26.7089137 C33.2564382,27.3595929 33.5635542,28.0218412 33.847123,28.6874039 C33.9479503,28.9261635 34.0463978,29.1602329 34.1424655,29.3942398 C38.8364434,28.8044073 43.4609069,29.7967792 43.658616,29.837302 C43.6273658,26.6027913 42.4686666,23.634243 40.551446,21.310183 C40.5256442,21.3467662 38.3341233,24.5087985 32.9393021,26.7089137 Z" id="Path" fill="#FFFFFF"></path>
        </g>
    </g>
</svg>