<svg width="180" height="180" viewBox="0 0 180 180" fill="none" xmlns="http://www.w3.org/2000/svg">
<g clip-path="url(#clip0_24_40)">
<path d="M116.719 54.8438C126.039 54.8438 133.594 62.3989 133.594 71.7188C133.594 81.0386 126.039 88.5938 116.719 88.5938C107.399 88.5938 99.8438 81.0386 99.8438 71.7188C99.8438 62.3989 107.399 54.8438 116.719 54.8438Z" fill="black"/>
<path fill-rule="evenodd" clip-rule="evenodd" d="M90 0C139.706 0 180 40.2944 180 90C180 139.706 139.706 180 90 180C40.2944 180 0 139.706 0 90C0 40.2944 40.2944 0 90 0ZM60.4688 78.75V136.406H97.0312V125.156H71.7188V78.75H60.4688ZM116.719 43.5938C101.186 43.5938 88.5938 56.1857 88.5938 71.7188C88.5938 87.2518 101.186 99.8438 116.719 99.8438C132.252 99.8438 144.844 87.2518 144.844 71.7188C144.844 56.1857 132.252 43.5938 116.719 43.5938ZM19.6875 79.4531V90.7031H46.4062V79.4531H19.6875Z" fill="black"/>
</g>
<defs>
<clipPath id="clip0_24_40">
<rect width="180" height="180" fill="white"/>
</clipPath>
</defs>
</svg>
