<?xml version="1.0" encoding="UTF-8"?>
<svg width="180px" height="180px" viewBox="0 0 180 180" version="1.1" xmlns="http://www.w3.org/2000/svg" xmlns:xlink="http://www.w3.org/1999/xlink">
    <!-- Generator: Sketch 53.2 (72643) - https://sketchapp.com -->
    <title>New Copy</title>
    <desc>Created with Sketch.</desc>
    <defs>
        <path d="M118.836023,175.281229 C119.593972,173.127724 120,170.852585 120,168.5 C120,154.969024 106.568542,144 90,144 C73.4314575,144 60,154.969024 60,168.5 C60,170.852585 60.4060277,173.127724 61.1639767,175.281229 C25.6015238,163.260772 4.85207071e-15,129.620164 0,90 C-6.08718376e-15,40.2943725 40.2943725,9.13077564e-15 90,0 C139.705627,-9.13077564e-15 180,40.2943725 180,90 C180,129.620164 154.398476,163.260772 118.836023,175.281229 Z M44.0884246,71.6464714 C42.363173,76.7261952 41.4266055,82.1767285 41.4266055,87.8485024 C41.4266055,115.37907 63.4930115,137.697005 90.7133028,137.697005 C117.933594,137.697005 140,115.37907 140,87.8485024 C140,60.3179347 117.933594,38 90.7133028,38 C77.1303716,38 64.8307641,43.5571928 55.9158891,52.5462163 C44.2823086,53.8771053 33.3103455,51.1996262 23,44.5137789 C27.7385273,56.3472909 38.8222119,62.0812941 47.92877,63.0849517 C47.5749424,63.7089367 47.2340753,64.3413998 46.90654,64.9819654 C41.2542377,66.2629432 34.9644395,66.6995619 25.5301741,64.8587429 C30.9329468,69.1488321 37.3608128,71.4930032 44.0884246,71.6464714 Z M108,178 C110.729581,171.697479 110.274651,163.983193 108,160 C114.892192,165.369748 114.437262,172.428571 108,178 Z M72,178 C65.5627381,172.428571 65.1078079,165.369748 72,160 C69.7253492,163.983193 69.270419,171.697479 72,178 Z" id="path-1"></path>
    </defs>
    <g id="New-Copy" stroke="none" stroke-width="1" fill="none" fill-rule="evenodd">
        <g id="Group-6">
            <mask id="mask-2" fill="white">
                <use xlink:href="#path-1"></use>
            </mask>
            <use id="Combined-Shape" fill="#000000" xlink:href="#path-1"></use>
        </g>
    </g>
</svg>