<svg width="180" height="180" viewBox="0 0 180 180" fill="none" xmlns="http://www.w3.org/2000/svg">
<g clip-path="url(#clip0_24_40)">
<path d="M117 52C128.046 52 137 60.9543 137 72C137 83.0457 128.046 92 117 92C105.954 92 97 83.0457 97 72C97 60.9543 105.954 52 117 52Z" fill="black"/>
<path fill-rule="evenodd" clip-rule="evenodd" d="M90 0C139.706 0 180 40.2944 180 90C180 139.706 139.706 180 90 180C40.2944 180 0 139.706 0 90C0 40.2944 40.2944 0 90 0ZM62 79V135H97V127H70V79H62ZM117 44C101.536 44 89 56.536 89 72C89 87.464 101.536 100 117 100C132.464 100 145 87.464 145 72C145 56.536 132.464 44 117 44ZM20 81V89H46V81H20Z" fill="black"/>
</g>
<defs>
<clipPath id="clip0_24_40">
<rect width="180" height="180" fill="white"/>
</clipPath>
</defs>
</svg>
