<?xml version="1.0" encoding="utf-8"?>
<!-- Generator: Adobe Illustrator 23.0.0, SVG Export Plug-In . SVG Version: 6.00 Build 0)  -->
<svg version="1.1" id="图层_1" xmlns="http://www.w3.org/2000/svg" xmlns:xlink="http://www.w3.org/1999/xlink" x="0px" y="0px"
	 viewBox="0 0 60 60" style="enable-background:new 0 0 60 60;" xml:space="preserve">
<style type="text/css">
	.st0{fill-rule:evenodd;clip-rule:evenodd;fill:#FFFFFF;}
	.st1{fill-rule:evenodd;clip-rule:evenodd;fill:#161514;}
</style>
<title>github</title>
<desc>Created with Sketch.</desc>
<path class="st0" d="M30,60L30,60C13.4,60,0,46.6,0,30v0C0,13.4,13.4,0,30,0h0c16.6,0,30,13.4,30,30v0C60,46.6,46.6,60,30,60z"/>
<g id="Page-1">
	<g id="github">
		<path id="Fill-4" class="st1" d="M30,0C13.4,0,0,13.4,0,30c0,13.3,8.6,24.5,20.5,28.5c1.5,0.3,2-0.7,2-1.4c0-0.7,0-3.1,0-5.6
			c-8.3,1.8-10.1-3.5-10.1-3.5c-1.4-3.5-3.3-4.4-3.3-4.4c-2.7-1.9,0.2-1.8,0.2-1.8c3,0.2,4.6,3.1,4.6,3.1c2.7,4.6,7,3.3,8.7,2.5
			c0.3-1.9,1-3.3,1.9-4c-6.7-0.8-13.7-3.3-13.7-14.8c0-3.3,1.2-6,3.1-8.1c-0.3-0.8-1.3-3.8,0.3-7.9c0,0,2.5-0.8,8.3,3.1
			c2.4-0.7,5-1,7.5-1c2.5,0,5.1,0.3,7.5,1c5.7-3.9,8.2-3.1,8.2-3.1c1.6,4.1,0.6,7.2,0.3,7.9c1.9,2.1,3.1,4.8,3.1,8.1
			c0,11.5-7,14.1-13.7,14.8c1.1,0.9,2,2.8,2,5.6c0,4,0,7.2,0,8.2c0,0.8,0.5,1.7,2.1,1.4C51.4,54.5,60,43.3,60,30
			C60,13.4,46.6,0,30,0"/>
		<path id="Fill-5" class="st1" d="M11.5,42.9c-0.1,0.1-0.3,0.2-0.5,0.1c-0.2-0.1-0.3-0.3-0.3-0.4c0.1-0.2,0.3-0.2,0.5-0.1
			C11.4,42.5,11.5,42.7,11.5,42.9"/>
		<path id="Fill-6" class="st1" d="M12.7,44.2c-0.1,0.1-0.4,0.1-0.6-0.1c-0.2-0.2-0.2-0.5-0.1-0.6c0.1-0.1,0.4-0.1,0.6,0.1
			C12.8,43.8,12.8,44.1,12.7,44.2"/>
		<path id="Fill-7" class="st1" d="M13.8,45.9c-0.2,0.1-0.5,0-0.7-0.3c-0.2-0.3-0.2-0.6,0-0.7c0.2-0.1,0.5,0,0.7,0.2
			C14,45.5,14,45.8,13.8,45.9"/>
		<path id="Fill-8" class="st1" d="M15.5,47.6c-0.2,0.2-0.5,0.1-0.8-0.1c-0.3-0.2-0.3-0.6-0.2-0.8c0.2-0.2,0.5-0.1,0.8,0.1
			C15.6,47.1,15.6,47.4,15.5,47.6"/>
		<path id="Fill-9" class="st1" d="M17.7,48.6c-0.1,0.2-0.4,0.3-0.7,0.2c-0.3-0.1-0.6-0.4-0.5-0.6c0.1-0.2,0.4-0.3,0.8-0.2
			C17.5,48,17.8,48.3,17.7,48.6"/>
		<path id="Fill-10" class="st1" d="M20.1,48.7c0,0.2-0.3,0.4-0.6,0.5c-0.4,0-0.6-0.2-0.7-0.4c0-0.2,0.3-0.4,0.6-0.5
			C19.9,48.3,20.1,48.5,20.1,48.7"/>
		<path id="Fill-11" class="st1" d="M22.4,48.3c0,0.2-0.2,0.5-0.6,0.6c-0.3,0.1-0.7-0.1-0.7-0.3c0-0.2,0.2-0.5,0.6-0.6
			C22.1,48,22.4,48.1,22.4,48.3"/>
	</g>
</g>
</svg>
