<svg width="200" height="200" viewBox="0 0 200 200" fill="none" xmlns="http://www.w3.org/2000/svg">
<g clip-path="url(#clip0_18_50)">
<path d="M131.621 194.897C171.353 181.664 200 144.178 200 100C200 44.7715 155.228 0 100 0C44.7715 0 0 44.7715 0 100C0 144.138 28.5953 181.597 68.2705 194.861L68.2719 194.859L69.8047 195.219L99.25 198.875L129.359 195.406L131.621 194.895L131.621 194.897Z" fill="black"/>
<path d="M131.631 194.892C126.591 195.848 125 192.734 125 190.083V162.642C125 153.308 121.725 147.225 118.142 144.125C140.408 141.65 163.8 133.192 163.8 94.7833C163.8 83.8667 159.925 74.9417 153.508 67.9417C154.542 65.425 157.967 55.25 152.525 41.475C152.525 41.475 144.142 38.7917 125.05 51.725C117.058 49.5083 108.5 48.4 100 48.3583C91.5 48.4 82.95 49.5083 74.975 51.725C55.8667 38.7917 47.4667 41.475 47.4667 41.475C42.0333 55.2417 45.4583 65.4167 46.4917 67.9417C40.1 74.9417 36.1917 83.8583 36.1917 94.7833C36.1917 133.092 59.5417 141.667 81.75 144.208C78.8833 146.7 76.2917 151.117 75.4 157.575C69.6917 160.133 55.2167 164.55 46.3 149.267C46.3 149.267 41.0167 139.658 30.975 138.958C30.975 138.958 21.2083 138.825 30.2833 145.033C30.2833 145.033 36.8417 148.108 41.3917 159.667C41.3917 159.667 47.1833 177.517 75 171.467V190.083C75 192.648 73.4669 195.655 68.7769 194.956C68.6921 194.944 68.2578 194.855 68.2578 194.855C68.2578 194.855 68.5177 194.934 68.5169 194.943C78.4157 198.224 89.0005 200 100 200C111.054 200 121.69 198.206 131.631 194.894L131.631 194.892Z" fill="white"/>
</g>
<defs>
<clipPath id="clip0_18_50">
<rect width="200" height="200" fill="white"/>
</clipPath>
</defs>
</svg>
