<?xml version="1.0" encoding="utf-8"?>
<!-- Generator: Adobe Illustrator 23.0.0, SVG Export Plug-In . SVG Version: 6.00 Build 0)  -->
<svg version="1.1" id="图层_1" xmlns="http://www.w3.org/2000/svg" xmlns:xlink="http://www.w3.org/1999/xlink" x="0px" y="0px"
	 viewBox="0 0 60 60" style="enable-background:new 0 0 60 60;" xml:space="preserve">
<style type="text/css">
	.st0{fill-rule:evenodd;clip-rule:evenodd;fill:url(#path-1_1_);}
	.st1{fill:#FFFFFF;}
</style>
<linearGradient id="path-1_1_" gradientUnits="userSpaceOnUse" x1="-270.1353" y1="420.8665" x2="-269.7019" y2="419.9748" gradientTransform="matrix(60 0 0 -60 16225 25255)">
	<stop  offset="0" style="stop-color:#3A60FF"/>
	<stop  offset="0.5377" style="stop-color:#FF3298"/>
	<stop  offset="1" style="stop-color:#FFEA4B"/>
</linearGradient>
<path id="path-1" class="st0" d="M0,30C0,13.4,13.4,0,30,0s30,13.4,30,30S46.6,60,30,60S0,46.6,0,30z"/>
<path id="Shape" class="st1" d="M30,14c-4.3,0-4.9,0-6.6,0.1c-1.7,0.1-2.9,0.3-3.9,0.7c-1.1,0.4-1.9,1-2.8,1.8
	c-0.9,0.9-1.4,1.8-1.8,2.8c-0.4,1-0.7,2.2-0.7,3.9C14,25.1,14,25.7,14,30s0,4.9,0.1,6.6c0.1,1.7,0.3,2.9,0.7,3.9
	c0.4,1.1,1,1.9,1.8,2.8c0.9,0.9,1.8,1.4,2.8,1.8c1,0.4,2.2,0.7,3.9,0.7C25.1,46,25.7,46,30,46c4.3,0,4.9,0,6.6-0.1
	c1.7-0.1,2.9-0.3,3.9-0.7c1.1-0.4,1.9-1,2.8-1.8c0.9-0.9,1.4-1.8,1.8-2.8c0.4-1,0.7-2.2,0.7-3.9C46,34.9,46,34.3,46,30
	s0-4.9-0.1-6.6c-0.1-1.7-0.4-2.9-0.7-3.9c-0.4-1.1-1-1.9-1.8-2.8c-0.9-0.9-1.8-1.4-2.8-1.8c-1-0.4-2.2-0.7-3.9-0.7
	C34.9,14,34.3,14,30,14L30,14z M28.6,16.9c0.4,0,0.9,0,1.4,0c4.3,0,4.8,0,6.5,0.1c1.6,0.1,2.4,0.3,3,0.6c0.7,0.3,1.3,0.6,1.8,1.2
	c0.6,0.6,0.9,1.1,1.2,1.8c0.2,0.6,0.5,1.4,0.6,3c0.1,1.7,0.1,2.2,0.1,6.5s0,4.8-0.1,6.5c-0.1,1.6-0.3,2.4-0.6,3
	c-0.3,0.7-0.6,1.3-1.2,1.8c-0.6,0.6-1.1,0.9-1.8,1.2c-0.6,0.2-1.4,0.5-3,0.6c-1.7,0.1-2.2,0.1-6.5,0.1c-4.3,0-4.8,0-6.5-0.1
	c-1.6-0.1-2.4-0.3-3-0.6c-0.7-0.3-1.3-0.6-1.8-1.2c-0.6-0.6-0.9-1.1-1.2-1.8c-0.2-0.6-0.5-1.4-0.6-3c-0.1-1.7-0.1-2.2-0.1-6.5
	s0-4.8,0.1-6.5c0.1-1.6,0.3-2.4,0.6-3c0.3-0.7,0.6-1.3,1.2-1.8c0.6-0.6,1.1-0.9,1.8-1.2c0.6-0.2,1.4-0.5,3-0.6
	C25,16.9,25.6,16.9,28.6,16.9L28.6,16.9z M38.5,19.5c-1.1,0-1.9,0.9-1.9,1.9c0,1.1,0.9,1.9,1.9,1.9c1.1,0,1.9-0.9,1.9-1.9
	S39.6,19.5,38.5,19.5L38.5,19.5z M30,21.8c-4.5,0-8.2,3.7-8.2,8.2s3.7,8.2,8.2,8.2s8.2-3.7,8.2-8.2S34.5,21.8,30,21.8L30,21.8z
	 M30,24.7c2.9,0,5.3,2.4,5.3,5.3c0,2.9-2.4,5.3-5.3,5.3c-2.9,0-5.3-2.4-5.3-5.3C24.7,27.1,27.1,24.7,30,24.7L30,24.7z"/>
</svg>
