<?xml version="1.0" encoding="UTF-8"?>
<svg width="60px" height="60px" viewBox="0 0 60 60" version="1.1" xmlns="http://www.w3.org/2000/svg" xmlns:xlink="http://www.w3.org/1999/xlink">
    <!-- Generator: Sketch 53 (72520) - https://sketchapp.com -->
    <title>linkedin</title>
    <desc>Created with Sketch.</desc>
    <g id="Page-1" stroke="none" stroke-width="1" fill="none" fill-rule="evenodd">
        <g id="linkedin">
            <path d="M0,30 C0,13.4314567 13.4314567,0 30,0 C46.5685433,0 60,13.4314567 60,30 C60,46.5685433 46.5685433,60 30,60 C13.4314567,60 0,46.5685433 0,30 Z" id="back" fill="#0077B5"></path>
            <path d="M21.2006775,24.8473104 L21.2006775,45.2744497 L14.4020214,45.2744497 L14.4020214,24.8473104 L21.2006775,24.8473104 Z M21.6484541,18.5283721 C21.6484541,20.4897539 20.1720674,22.0591846 17.8014852,22.0591846 L17.7580381,22.0591846 C15.475572,22.0591846 14,20.4897539 14,18.5283721 C14,16.5255041 15.5205126,15 17.84629,15 C20.1720674,15 21.6043281,16.5255041 21.6484541,18.5283721 Z M45.719232,33.5621523 L45.7189605,45.2744497 L38.920576,45.2744497 L38.920576,34.3459186 C38.920576,31.6009061 37.9367708,29.7277845 35.4756285,29.7277845 C33.5973562,29.7277845 32.4785934,30.9905418 31.9872339,32.2101858 C31.8074716,32.6472837 31.7633456,33.2562922 31.7633456,33.8667921 L31.7633456,45.274992 L24.9638749,45.274992 C24.9638749,45.274992 25.0534846,26.7646298 24.9638749,24.8478527 L31.7633456,24.8478527 L31.7633456,27.7411856 C32.6656875,26.3503088 34.2817837,24.3676416 37.8914228,24.3676416 C42.3652519,24.3676416 45.719232,27.2878186 45.719232,33.5621523 Z" id="Shape" fill="#FFFFFF"></path>
        </g>
    </g>
</svg>