<svg width="180" height="180" viewBox="0 0 180 180" fill="none" xmlns="http://www.w3.org/2000/svg">
<g clip-path="url(#clip0_4122_1364)">
<path d="M90 180C139.706 180 180 139.706 180 90C180 40.2944 139.706 0 90 0C40.2944 0 0 40.2944 0 90C0 139.706 40.2944 180 90 180Z" fill="url(#paint0_linear_4122_1364)"/>
<path d="M131.885 42.0894C108.39 45.879 92.0704 62.1985 83.325 89.8922C76.1489 112.616 64.4856 123.447 47.7669 124.004C43.903 124.133 40.8752 127.369 41.004 131.233C41.1328 135.097 44.3694 138.125 48.2333 137.996C71.5145 137.22 87.8513 122.05 96.6752 94.108C103.93 71.135 116.277 58.7878 134.115 55.9108C137.931 55.2952 140.526 51.7021 139.911 47.8854C139.295 44.0688 135.702 41.4738 131.885 42.0894Z" fill="white"/>
</g>
<defs>
<linearGradient id="paint0_linear_4122_1364" x1="3400" y1="2198.05" x2="14600" y2="15898" gradientUnits="userSpaceOnUse">
<stop stop-color="#2BE9EC"/>
<stop offset="1" stop-color="#10CCCD"/>
</linearGradient>
<clipPath id="clip0_4122_1364">
<rect width="180" height="180" fill="white"/>
</clipPath>
</defs>
</svg>
