<?xml version="1.0" encoding="UTF-8"?>
<svg width="59px" height="59px" viewBox="0 0 59 59" version="1.1" xmlns="http://www.w3.org/2000/svg" xmlns:xlink="http://www.w3.org/1999/xlink">
    <!-- Generator: Sketch 53 (72520) - https://sketchapp.com -->
    <title>music</title>
    <desc>Created with Sketch.</desc>
    <defs>
        <linearGradient x1="-2.1739163%" y1="99.9999957%" x2="-2.1739163%" y2="-4.34782609e-06%" id="linearGradient-1">
            <stop stop-color="#DA2916" offset="0%"></stop>
            <stop stop-color="#DD0000" offset="100%"></stop>
        </linearGradient>
    </defs>
    <g id="Page-1" stroke="none" stroke-width="1" fill="none" fill-rule="evenodd">
        <g id="music" fill-rule="nonzero">
            <path d="M29.3617021,0 C45.5782979,0 58.7234043,13.1451064 58.7234043,29.3617021 C58.7234043,45.5782979 45.5782979,58.7234043 29.3617021,58.7234043 C13.1451064,58.7234043 0,45.5782979 0,29.3617021 C0,13.1451064 13.1451064,0 29.3617021,0 Z" id="Path" fill="url(#linearGradient-1)"></path>
            <path d="M32.8055745,30.0573191 C32.8055745,31.7015745 31.4638723,33.0394468 29.8157872,33.0394468 C27.9864255,33.0394468 26.9779149,31.3773191 26.8145106,29.8351915 C26.5030213,26.8939149 28.0438723,25.2930638 29.3919574,24.4696596 C29.939617,24.1364681 30.539617,23.8760426 31.1677021,23.6858298 C31.1677021,23.6858298 32.6204681,28.2968936 32.7340851,29.0130638 C32.8591915,29.802 32.8055745,30.0573191 32.8055745,30.0573191 M39.9468511,20.808383 C38.339617,19.7666809 36.3698298,19.194766 34.3413191,19.0926383 L33.8881277,17.435617 L33.9021702,17.4522128 C33.8842979,17.4024255 33.8689787,17.3539149 33.8536596,17.3066809 L33.719617,16.8164681 C33.4106809,15.3994468 33.972383,14.7241277 34.2608936,14.4815745 C34.3106809,14.4445532 34.3604681,14.4062553 34.4153617,14.3705106 C35.7391915,13.4922128 37.6221702,14.9002979 37.7281277,14.9832766 C38.5642979,15.7875319 40.0936596,15.9866809 40.919617,15.1632766 C41.753234,14.3322128 41.5566383,12.7760426 40.7230213,11.9449787 C39.4247234,10.6505106 35.4391915,8.57348936 32.0472766,10.8279574 C28.998766,12.8539149 28.9374894,15.7058298 29.4391915,17.3539149 L30.0481277,19.5828511 C29.0281277,19.8751915 28.0528085,20.2939149 27.1591915,20.8390213 C23.8221702,22.8777447 22.1485532,26.3194468 22.566,30.2807234 C22.998766,34.3454043 26.0447234,37.2981702 29.8157872,37.2981702 C33.8179149,37.2981702 37.0757872,34.049234 37.0757872,30.0573191 C37.0221702,29.1049787 37.032383,29.1151915 36.906,28.2637021 C36.779617,27.4326383 35.5489787,23.5262553 35.5489787,23.5262553 C36.3047234,23.6998723 37.0106809,23.9845532 37.6208936,24.3790213 C44.5055745,28.8407234 41.639617,35.9437021 41.5119574,36.2526383 C39.6174894,40.7909362 35.4800426,43.4998723 30.1681277,43.6849787 C26.706,43.8075319 23.3881277,42.5168936 20.826,40.0505106 C18.1247234,37.4500851 16.5762128,33.8079574 16.5762128,30.0573191 C16.5762128,24.4096596 20.1391915,19.2790213 25.4408936,17.2951915 C26.5451489,16.8828511 27.4362128,15.7058298 26.826,14.3385957 C26.346,13.2637021 25.0451489,12.894766 23.939617,13.3096596 C16.9808936,15.9126383 12.3047234,22.6441277 12.3047234,30.0573191 C12.3047234,34.9568936 14.3294043,39.7160426 17.8591915,43.1143404 C21.1157872,46.2471064 25.3042979,47.9526383 29.7149362,47.9513617 C29.9153617,47.9513617 30.1170638,47.9488085 30.3174894,47.9411489 C37.2685532,47.6973191 42.9264255,43.9402979 45.4451489,37.9109362 C47.0204681,34.248383 47.8974894,25.9607234 39.9468511,20.808383" id="Shape" fill="#FEFEFE"></path>
        </g>
    </g>
</svg>