<?xml version="1.0" encoding="UTF-8"?>
<svg width="60px" height="60px" viewBox="0 0 60 60" version="1.1" xmlns="http://www.w3.org/2000/svg" xmlns:xlink="http://www.w3.org/1999/xlink">
    <!-- Generator: Sketch 53 (72520) - https://sketchapp.com -->
    <title>spotify</title>
    <desc>Created with Sketch.</desc>
    <g id="Page-1" stroke="none" stroke-width="1" fill="none" fill-rule="evenodd">
        <g id="spotify">
            <path d="M29.9998209,1.00998232e-13 C13.431729,1.00998232e-13 0,13.4313708 0,29.9994626 C0,46.5693457 13.431729,60 29.9998209,60 C46.5686292,60 60,46.5693457 60,29.9994626 C60,13.4313708 46.5686292,1.00998232e-13 29.9998209,1.00998232e-13" id="Spotify" fill="#1ED760"></path>
            <path d="M43.0987357,42.6181711 C42.5677154,43.4889738 41.4340488,43.7617171 40.5664216,43.2310497 C33.6278742,38.990297 24.8944428,38.0326963 14.6092326,40.3818877 C13.6181123,40.609115 12.6301676,39.9881211 12.4043517,38.9973537 C12.1771244,38.0062335 12.7960012,37.0182887 13.7892385,36.79212 C25.0447515,34.2192296 34.6994413,35.3264334 42.4876213,40.0855043 C43.3559541,40.6158189 43.6294031,41.7501911 43.0987357,42.6181711" id="Path" fill="#FFFFFF"></path>
            <path d="M46.7142605,34.5724199 C46.0459865,35.6566892 44.6282858,35.9968245 43.5454278,35.3310203 C35.6051749,30.4502205 23.496501,29.0360482 14.1022052,31.8876801 C12.8842105,32.2556895 11.5974125,31.5690679 11.2272861,30.3528374 C10.8603352,29.1348427 11.5473096,27.8505146 12.7635401,27.4800353 C23.4950897,24.2233461 36.8362246,25.8005293 45.9563658,31.4053514 C47.0392238,32.0722141 47.3800647,33.4906204 46.7142605,34.5724199" id="Path" fill="#FFFFFF"></path>
            <path d="M47.0261688,26.1946486 C37.501676,20.5383123 21.7912379,20.0182299 12.6989709,22.7777712 C11.2385769,23.220935 9.69456042,22.3967069 9.25245516,20.9366657 C8.80999706,19.475566 9.63316672,17.9326081 11.0942664,17.4887386 C21.5319024,14.3206116 38.8823287,14.9324316 49.8471038,21.4412232 C51.1607174,22.2209938 51.5911791,23.9170832 50.8128198,25.228227 C50.0337548,26.5414878 48.336254,26.9744193 47.0261688,26.1946486" id="Path" fill="#FFFFFF"></path>
        </g>
    </g>
</svg>