<svg width="60" height="60" viewBox="0 0 60 60" fill="none" xmlns="http://www.w3.org/2000/svg">
<g clip-path="url(#clip0_4122_1371)">
<path fill-rule="evenodd" clip-rule="evenodd" d="M29.9998 0C13.4317 0 0 13.4314 0 29.9995C0 46.5693 13.4317 60 29.9998 60C46.5686 60 60 46.5693 60 29.9995C60 13.4314 46.5686 0 29.9998 0Z" fill="#1ED760"/>
<path d="M12.6989 22.7779C21.7912 20.0184 37.5016 20.5385 47.0261 26.1948C48.3362 26.9746 50.0337 26.5417 50.8128 25.2284C51.5911 23.9172 51.1607 22.2212 49.8471 21.4414C38.8823 14.9326 21.5319 14.3208 11.0942 17.4889C9.63313 17.9328 8.80996 19.4757 9.25242 20.9368C9.69452 22.3969 11.2385 23.2211 12.6989 22.7779Z" fill="white"/>
<path d="M46.7142 34.5729C46.0459 35.6572 44.6282 35.9973 43.5453 35.3315C35.6051 30.4507 23.4964 29.0365 14.1021 31.8882C12.8841 32.2562 11.5973 31.5695 11.2272 30.3533C10.8603 29.1353 11.5472 27.851 12.7635 27.4805C23.495 24.2238 36.8361 25.801 45.9563 31.4058C47.0391 32.0727 47.38 33.4911 46.7142 34.5729Z" fill="white"/>
<path d="M43.0988 42.6178C42.5678 43.4886 41.4341 43.7613 40.5665 43.2306C33.6279 38.9899 24.8945 38.0323 14.6093 40.3815C13.6182 40.6087 12.6302 39.9877 12.4044 38.9969C12.1772 38.0058 12.7961 37.0179 13.7893 36.7917C25.0448 34.2188 34.6995 35.326 42.4877 40.0851C43.356 40.6154 43.6295 41.7498 43.0988 42.6178Z" fill="white"/>
</g>
<defs>
<clipPath id="clip0_4122_1371">
<rect width="60" height="60" fill="white"/>
</clipPath>
</defs>
</svg>
