<?xml version="1.0" encoding="utf-8"?>
<!-- Generator: Adobe Illustrator 23.0.0, SVG Export Plug-In . SVG Version: 6.00 Build 0)  -->
<svg version="1.1" id="图层_1" xmlns="http://www.w3.org/2000/svg" xmlns:xlink="http://www.w3.org/1999/xlink" x="0px" y="0px"
	 viewBox="0 0 60 60" style="enable-background:new 0 0 60 60;" xml:space="preserve">
<style type="text/css">
	.st0{fill-rule:evenodd;clip-rule:evenodd;fill:#FFFFFF;}
	.st1{fill:#144274;}
</style>
<title>steam</title>
<desc>Created with Sketch.</desc>
<path class="st0" d="M30,60L30,60C13.4,60,0,46.6,0,30v0C0,13.4,13.4,0,30,0h0c16.6,0,30,13.4,30,30v0C60,46.6,46.6,60,30,60z"/>
<g id="Page-1">
	<g id="steam">
		<path id="Shape" class="st1" d="M60,30c0,16.6-13.5,30-30,30C16.2,60,4.6,50.8,1,38.2l11.5,4.8c0.8,3.9,4.2,6.8,8.3,6.8
			c4.7,0,8.7-3.9,8.5-8.9l10.2-7.3c6.3,0.2,11.6-4.9,11.6-11.3C51.2,16,46.1,11,39.9,11S28.5,16,28.5,22.3v0.1l-7.2,10.4
			c-1.9-0.1-3.7,0.4-5.3,1.5L0,27.6C1.2,12.1,14.2,0,30,0C46.5,0,60,13.4,60,30z M18.8,45.5L15.1,44c0.7,1.4,1.8,2.5,3.3,3.1
			c3.3,1.4,7-0.2,8.3-3.4c0.7-1.6,0.7-3.3,0-4.9c-0.7-1.6-1.9-2.8-3.4-3.5c-1.6-0.7-3.2-0.6-4.7-0.1l3.8,1.6c2.4,1,3.5,3.7,2.5,6.1
			C24,45.4,21.2,46.5,18.8,45.5L18.8,45.5z M39.9,29.8c-4.2,0-7.5-3.4-7.5-7.5s3.4-7.5,7.5-7.5s7.5,3.4,7.5,7.5S44,29.8,39.9,29.8
			L39.9,29.8z M39.9,27.9c3.1,0,5.7-2.5,5.7-5.7c0-3.1-2.5-5.7-5.7-5.7s-5.7,2.5-5.7,5.7C34.2,25.4,36.8,27.9,39.9,27.9z"/>
	</g>
</g>
</svg>
