<svg width="233" height="233" viewBox="0 0 233 233" fill="none" xmlns="http://www.w3.org/2000/svg">
<g clip-path="url(#clip0)">
<path d="M4.8911 150.01C19.2841 198.02 63.8071 233 116.501 233C180.841 233 233.001 180.84 233.001 116.5C233.001 52.159 180.841 0 116.501 0C54.7601 0 4.2411 48.029 0.251099 108.76C7.7902 121.42 10.7321 129.25 4.8922 150.01H4.8911Z" fill="url(#paint0_linear)"/>
<path d="M110.5 87.322C110.5 87.518 110.5 87.714 110.51 87.898L82.002 129.31C77.384 129.1 72.75 129.91 68.356 131.72C66.419 132.51 64.604 133.48 62.901 134.6L0.302002 108.83C0.302492 108.83 -1.1465 132.66 4.89 150.42L49.144 168.68C51.366 178.61 58.178 187.32 68.228 191.51C84.671 198.38 103.63 190.55 110.47 174.1C112.25 169.8 113.08 165.29 112.96 160.79L153.75 131.64C154.08 131.65 154.42 131.66 154.75 131.66C179.16 131.66 199 111.76 199 87.322C199 62.882 179.16 43 154.75 43C130.35 43 110.5 62.882 110.5 87.322ZM103.66 171.24C98.366 183.95 83.76 189.98 71.064 184.69C65.207 182.25 60.785 177.78 58.234 172.45L72.639 178.42C82.002 182.32 92.744 177.88 96.636 168.52C100.54 159.15 96.111 148.39 86.753 144.49L71.862 138.32C77.608 136.14 84.14 136.06 90.243 138.6C96.396 141.16 101.17 145.98 103.7 152.14C106.23 158.3 106.22 165.1 103.66 171.24V171.24ZM154.75 116.86C138.5 116.86 125.27 103.61 125.27 87.322C125.27 71.047 138.5 57.793 154.75 57.793C171.01 57.793 184.24 71.047 184.24 87.322C184.24 103.61 171.01 116.86 154.75 116.86ZM132.66 87.277C132.66 75.024 142.58 65.086 154.8 65.086C167.03 65.086 176.95 75.024 176.95 87.277C176.95 99.531 167.03 109.46 154.8 109.46C142.58 109.46 132.66 99.531 132.66 87.277V87.277Z" fill="white"/>
</g>
<defs>
<linearGradient id="paint0_linear" x1="116.626" y1="0" x2="116.626" y2="233" gradientUnits="userSpaceOnUse">
<stop stop-color="#111D2E"/>
<stop offset="0.21248" stop-color="#051839"/>
<stop offset="0.40695" stop-color="#0A1B48"/>
<stop offset="0.5811" stop-color="#132E62"/>
<stop offset="0.7376" stop-color="#144B7E"/>
<stop offset="0.87279" stop-color="#136497"/>
<stop offset="1" stop-color="#1387B8"/>
</linearGradient>
<clipPath id="clip0">
<rect width="233" height="233" fill="white"/>
</clipPath>
</defs>
</svg>
