<svg width="200" height="200" viewBox="0 0 200 200" fill="none" xmlns="http://www.w3.org/2000/svg">
<g clip-path="url(#clip0_4122_1381)">
<path d="M100 200C155.229 200 200 155.228 200 100C200 44.7715 155.229 0 100 0C47.0183 0 3.66001 41.2032 0.220215 93.3145L1.20056 94.7673L4.93978 128.776L4.28217 129.04C16.7248 170.106 54.8715 200 100 200Z" fill="url(#paint0_linear_4122_1381)"/>
<path d="M132.876 55.8682C122.386 55.8682 113.871 64.3987 113.871 74.9163C113.871 85.4347 122.386 93.9575 132.876 93.9575C143.373 93.9575 151.889 85.4347 151.889 74.9163C151.889 64.3987 143.373 55.8682 132.876 55.8682Z" fill="white"/>
<path fill-rule="evenodd" clip-rule="evenodd" d="M0.21905 93.3282L53.9923 115.536C55.4541 114.575 57.012 113.742 58.6746 113.064C62.4463 111.511 66.4239 110.815 70.3879 110.996L94.8584 75.4492C94.8498 75.2913 94.8498 75.123 94.8498 74.9548C94.8498 53.9763 111.888 36.9102 132.833 36.9102C153.785 36.9102 170.815 53.9763 170.815 74.9548C170.815 95.9316 153.785 113.013 132.833 113.013C132.572 113.013 132.306 113.006 132.045 112.998L131.974 112.996L96.9614 138.017C97.0644 141.88 96.3519 145.751 94.824 149.442C88.9528 163.562 72.6789 170.283 58.5647 164.386C49.9381 160.79 44.091 153.313 42.1837 144.79L4.28513 129.044L4.28346 129.042L4.28177 129.039C1.4972 119.85 0 110.1 0 100C0 97.7582 0.0737816 95.5333 0.21905 93.3282ZM60.9991 158.532C71.8969 163.073 84.4343 157.897 88.9785 146.987C91.176 141.717 91.1845 135.88 89.0129 130.592C86.8412 125.305 82.7433 121.167 77.4617 118.97C72.2231 116.79 66.6162 116.858 61.684 118.73L74.466 124.026C82.4986 127.373 86.3004 136.609 82.9493 144.652C79.6085 152.687 70.3879 156.498 62.351 153.15L49.9863 148.026C52.176 152.601 55.9716 156.438 60.9991 158.532ZM107.528 74.9548C107.528 88.9359 118.884 100.309 132.833 100.309C146.79 100.309 158.146 88.9359 158.146 74.9548C158.146 60.9848 146.79 49.608 132.833 49.608C118.884 49.608 107.528 60.9848 107.528 74.9548Z" fill="white"/>
</g>
<defs>
<linearGradient id="paint0_linear_4122_1381" x1="100" y1="0" x2="100" y2="200" gradientUnits="userSpaceOnUse">
<stop stop-color="#111D2E"/>
<stop offset="0.21248" stop-color="#051839"/>
<stop offset="0.40695" stop-color="#0A1B48"/>
<stop offset="0.5811" stop-color="#132E62"/>
<stop offset="0.7376" stop-color="#144B7E"/>
<stop offset="0.87279" stop-color="#136497"/>
<stop offset="1" stop-color="#1387B8"/>
</linearGradient>
<clipPath id="clip0_4122_1381">
<rect width="200" height="200" fill="white"/>
</clipPath>
</defs>
</svg>
