<svg width="200" height="200" viewBox="0 0 200 200" fill="none" xmlns="http://www.w3.org/2000/svg">
<g clip-path="url(#clip0_18_70)">
<path d="M100 200C155.229 200 200 155.228 200 100C200 44.7715 155.229 0 100 0C47.0181 0 3.65977 41.2032 0.219971 93.3145L1.20032 94.7673L4.93954 128.776L4.28193 129.04C16.7246 170.106 54.8713 200 100 200Z" fill="url(#paint0_linear_18_70)"/>
<path d="M113.871 74.9159C113.871 64.3983 122.386 55.8678 132.876 55.8678C143.373 55.8678 151.889 64.3983 151.889 74.9159C151.889 85.4343 143.373 93.9571 132.876 93.9571C122.386 93.9571 113.871 85.4343 113.871 74.9159Z" fill="white"/>
<path fill-rule="evenodd" clip-rule="evenodd" d="M53.9923 115.536L0.21905 93.3279C0.0737816 95.533 0 97.7579 0 100C0 110.1 1.4972 119.85 4.28177 129.039L4.28346 129.042L4.28513 129.044L42.1837 144.79C44.091 153.313 49.9381 160.79 58.5647 164.386C72.6789 170.283 88.9528 163.562 94.824 149.442C96.3519 145.751 97.0644 141.88 96.9614 138.017L131.974 112.996C132.258 113.004 132.549 113.013 132.833 113.013C153.785 113.013 170.815 95.9313 170.815 74.9545C170.815 53.976 153.785 36.9099 132.833 36.9099C111.888 36.9099 94.8498 53.976 94.8498 74.9545C94.8498 75.1227 94.8498 75.291 94.8584 75.4489L70.3879 110.996C66.4239 110.815 62.4463 111.511 58.6746 113.064C57.012 113.742 55.4541 114.575 53.9923 115.536ZM88.9785 146.987C84.4343 157.897 71.8969 163.073 60.9991 158.532C55.9716 156.438 52.176 152.601 49.9863 148.026L62.351 153.15C70.3879 156.498 79.6085 152.687 82.9493 144.652C86.3004 136.609 82.4986 127.373 74.466 124.026L61.684 118.73C66.6162 116.858 72.2231 116.79 77.4617 118.97C82.7433 121.167 86.8412 125.305 89.0129 130.592C91.1845 135.88 91.176 141.717 88.9785 146.987ZM132.833 100.309C118.884 100.309 107.528 88.9356 107.528 74.9545C107.528 60.9845 118.884 49.6077 132.833 49.6077C146.79 49.6077 158.146 60.9845 158.146 74.9545C158.146 88.9356 146.79 100.309 132.833 100.309Z" fill="white"/>
</g>
<defs>
<linearGradient id="paint0_linear_18_70" x1="99.9999" y1="0" x2="99.9999" y2="200" gradientUnits="userSpaceOnUse">
<stop stop-color="#111D2E"/>
<stop offset="0.21248" stop-color="#051839"/>
<stop offset="0.40695" stop-color="#0A1B48"/>
<stop offset="0.5811" stop-color="#132E62"/>
<stop offset="0.7376" stop-color="#144B7E"/>
<stop offset="0.87279" stop-color="#136497"/>
<stop offset="1" stop-color="#1387B8"/>
</linearGradient>
<clipPath id="clip0_18_70">
<rect width="200" height="200" fill="white"/>
</clipPath>
</defs>
</svg>
