<svg width="233" height="233" viewBox="0 0 233 233" fill="none" xmlns="http://www.w3.org/2000/svg">
<g clip-path="url(#clip0)">
<path d="M4.8911 150.01C19.2841 198.02 63.8071 233 116.501 233C180.841 233 233.001 180.84 233.001 116.5C233.001 52.159 180.841 0 116.501 0C54.7601 0 4.2411 48.029 0.251099 108.76C7.7902 121.42 10.7321 129.25 4.8922 150.01H4.8911Z" fill="url(#paint0_linear)"/>
<path d="M154.8 65.086C142.58 65.086 132.66 75.024 132.66 87.277C132.66 99.531 142.58 109.46 154.8 109.46C167.03 109.46 176.95 99.531 176.95 87.277C176.95 75.024 167.03 65.086 154.8 65.086Z" fill="white"/>
<path fill-rule="evenodd" clip-rule="evenodd" d="M0.255193 108.727L62.901 134.6C64.604 133.48 66.419 132.51 68.3559 131.72C72.7499 129.91 77.3839 129.1 82.0019 129.31L110.51 87.898C110.5 87.714 110.5 87.518 110.5 87.322C110.5 62.882 130.35 43 154.75 43C179.16 43 199 62.882 199 87.322C199 111.76 179.16 131.66 154.75 131.66C154.42 131.66 154.08 131.65 153.75 131.64L112.96 160.79C113.08 165.29 112.25 169.8 110.47 174.1C103.63 190.55 84.6709 198.38 68.2279 191.51C58.1779 187.32 51.366 178.61 49.144 168.68L4.99218 150.336C4.99087 150.334 4.98956 150.333 4.98826 150.331C1.74424 139.625 0 128.266 0 116.5C0 113.888 0.0859556 111.296 0.255193 108.727ZM71.0639 184.69C83.7599 189.98 98.366 183.95 103.66 171.24C106.22 165.1 106.23 158.3 103.7 152.14C101.17 145.98 96.3959 141.16 90.2429 138.6C84.1399 136.06 77.6079 136.14 71.8619 138.32L86.7529 144.49C96.1109 148.39 100.54 159.15 96.6359 168.52C92.7439 177.88 82.0019 182.32 72.6389 178.42L58.234 172.45C60.785 177.78 65.2069 182.25 71.0639 184.69ZM125.27 87.322C125.27 103.61 138.5 116.86 154.75 116.86C171.01 116.86 184.24 103.61 184.24 87.322C184.24 71.047 171.01 57.793 154.75 57.793C138.5 57.793 125.27 71.047 125.27 87.322Z" fill="white"/>
</g>
<defs>
<linearGradient id="paint0_linear" x1="116.626" y1="0" x2="116.626" y2="233" gradientUnits="userSpaceOnUse">
<stop stop-color="#111D2E"/>
<stop offset="0.21248" stop-color="#051839"/>
<stop offset="0.40695" stop-color="#0A1B48"/>
<stop offset="0.5811" stop-color="#132E62"/>
<stop offset="0.7376" stop-color="#144B7E"/>
<stop offset="0.87279" stop-color="#136497"/>
<stop offset="1" stop-color="#1387B8"/>
</linearGradient>
<clipPath id="clip0">
<rect width="233" height="233" fill="white"/>
</clipPath>
</defs>
</svg>
