<?xml version="1.0" encoding="UTF-8"?>
<svg width="60px" height="60px" viewBox="0 0 60 60" version="1.1" xmlns="http://www.w3.org/2000/svg" xmlns:xlink="http://www.w3.org/1999/xlink">
    <!-- Generator: Sketch 53 (72520) - https://sketchapp.com -->
    <title>telegram</title>
    <desc>Created with Sketch.</desc>
    <defs>
        <linearGradient x1="66.67%" y1="16.67%" x2="41.67%" y2="75%" id="linearGradient-1">
            <stop stop-color="#37AEE2" offset="0%"></stop>
            <stop stop-color="#1E96C8" offset="100%"></stop>
        </linearGradient>
        <linearGradient x1="61.2346759%" y1="45.5610016%" x2="74.7064382%" y2="71.2734252%" id="linearGradient-2">
            <stop stop-color="#EFF7FC" offset="0%"></stop>
            <stop stop-color="#FFFFFF" offset="100%"></stop>
        </linearGradient>
    </defs>
    <g id="Page-1" stroke="none" stroke-width="1" fill="none" fill-rule="evenodd">
        <g id="telegram">
            <circle id="Oval" fill="url(#linearGradient-1)" cx="30" cy="30" r="30"></circle>
            <path d="M24.5,43.75 C23.5281,43.75 23.69325,43.383025 23.35805,42.457625 L20.5,33.051475 L42.5,20" id="Shape" fill="#C8DAEA"></path>
            <path d="M24.5,43.75 C25.25,43.75 25.581375,43.407 26,43 L30,39.1105 L25.0105,36.10175" id="Shape" fill="#A9C9DD"></path>
            <path d="M25.01,36.1025 L37.1,45.03475 C38.479625,45.795975 39.47535,45.40185 39.819,43.753875 L44.74025,20.563125 C45.2441,18.543075 43.970225,17.626875 42.6504,18.226075 L13.7529,29.368825 C11.780375,30.16 11.791875,31.260475 13.39335,31.750825 L20.8091,34.0654 L37.97735,23.23415 C38.787825,22.742675 39.531675,23.0069025 38.92115,23.54875" id="Shape" fill="url(#linearGradient-2)"></path>
        </g>
    </g>
</svg>