<svg width="200" height="200" viewBox="0 0 200 200" fill="none" xmlns="http://www.w3.org/2000/svg">
<g clip-path="url(#clip0_201_4)">
<path d="M100 200C155.228 200 200 155.228 200 100C200 44.7717 155.228 0 100 0C44.7717 0 0 44.7717 0 100C0 155.228 44.7717 200 100 200Z" fill="black"/>
<path d="M130.357 95.3672C129.811 95.1053 129.256 94.8532 128.693 94.6119C127.714 76.5695 117.855 66.2403 101.302 66.1345C101.227 66.1341 101.152 66.1341 101.077 66.1341C91.1757 66.1341 82.9408 70.3605 77.8724 78.0512L86.9765 84.2964C90.7628 78.5517 96.7051 77.3271 101.081 77.3271C101.132 77.3271 101.183 77.3271 101.233 77.3276C106.683 77.3623 110.796 78.9471 113.458 82.0375C115.396 84.2875 116.691 87.3967 117.333 91.3206C112.5 90.4992 107.274 90.2467 101.687 90.567C85.9482 91.4736 75.8301 100.653 76.5097 113.407C76.8545 119.877 80.0777 125.443 85.585 129.079C90.2414 132.153 96.2385 133.656 102.471 133.316C110.702 132.864 117.16 129.724 121.665 123.982C125.086 119.621 127.25 113.97 128.205 106.849C132.128 109.216 135.035 112.332 136.641 116.077C139.371 122.443 139.53 132.904 130.994 141.433C123.515 148.904 114.525 152.136 100.939 152.236C85.8686 152.125 74.4708 147.291 67.0603 137.871C60.121 129.049 56.5347 116.308 56.4009 100C56.5347 83.6919 60.121 70.9503 67.0603 62.129C74.4708 52.7085 85.8684 47.8754 100.939 47.7634C116.119 47.8763 127.715 52.7327 135.41 62.1986C139.182 66.8406 142.027 72.6782 143.902 79.4847L154.571 76.6382C152.298 68.2602 148.721 61.0408 143.854 55.0535C133.99 42.9178 119.564 36.6993 100.976 36.5704H100.902C82.3518 36.6989 68.0871 42.941 58.5041 55.1231C49.9765 65.9637 45.5777 81.0476 45.4299 99.9554L45.4294 100L45.4299 100.045C45.5777 118.952 49.9765 134.037 58.5041 144.877C68.0871 157.059 82.3518 163.301 100.902 163.43H100.976C117.468 163.315 129.093 158.997 138.67 149.429C151.199 136.912 150.822 121.222 146.692 111.59C143.729 104.683 138.081 99.0725 130.357 95.3672ZM101.882 122.139C94.9841 122.527 87.8179 119.431 87.4645 112.8C87.2026 107.882 90.9638 102.396 102.305 101.742C103.604 101.667 104.879 101.631 106.131 101.631C110.251 101.631 114.105 102.031 117.608 102.797C116.301 119.118 108.636 121.768 101.882 122.139Z" fill="white"/>
</g>
<defs>
<clipPath id="clip0_201_4">
<rect width="200" height="200" fill="white"/>
</clipPath>
</defs>
</svg>
