<svg width="224" height="93" viewBox="0 0 224 93" fill="none" xmlns="http://www.w3.org/2000/svg">
<path fill-rule="evenodd" clip-rule="evenodd" d="M22.5928 2.56641V38H17.2456V2.56641H22.5928ZM35.1624 1.02881L39.7522 2.81885L33.2117 15.9458L29.7234 14.5L35.1624 1.02881ZM45.8731 15.6475H51.0367V17.7129C52.0312 16.6725 52.8803 15.9688 53.5841 15.6016C54.3338 15.2191 55.2747 15.0278 56.4068 15.0278C58.9313 15.0278 60.9278 16.1294 62.3966 18.3325C64.0183 16.1294 66.2138 15.0278 68.983 15.0278C74.0166 15.0278 76.5333 18.08 76.5333 24.1846V38H71.3468V25.5845C71.3468 23.4425 71.0867 21.9279 70.5665 21.0405C70.031 20.1379 69.1513 19.6865 67.9273 19.6865C66.5045 19.6865 65.468 20.222 64.8177 21.293C64.1675 22.3639 63.8424 24.0851 63.8424 26.4565V38H58.6559V25.6533C58.6559 21.6754 57.5084 19.6865 55.2135 19.6865C53.76 19.6865 52.7005 20.2297 52.035 21.3159C51.3695 22.4022 51.0367 24.1157 51.0367 26.4565V38H45.8731V15.6475ZM100.686 2.56641L109.911 26.25L119.55 0.845215L128.776 26.25L138.575 2.56641H144.381L128.546 40.249L119.435 15.1426L109.934 40.272L94.8796 2.56641H100.686ZM153.623 15.6475V38H148.459V15.6475H153.623ZM147.679 6.35303C147.679 5.45035 148.008 4.67009 148.666 4.01221C149.324 3.35433 150.112 3.02539 151.03 3.02539C151.963 3.02539 152.759 3.35433 153.417 4.01221C154.074 4.65479 154.403 5.4427 154.403 6.37598C154.403 7.30925 154.074 8.10481 153.417 8.7627C152.774 9.42058 151.986 9.74951 151.053 9.74951C150.119 9.74951 149.324 9.42058 148.666 8.7627C148.008 8.10481 147.679 7.3016 147.679 6.35303ZM157.105 24.3911H167.34V28.8892H157.105V24.3911ZM189.48 7.59229H177.133V16.1064H189.044V21.1323H177.133V38H171.786V2.56641H189.48V7.59229ZM200.144 15.6475V38H194.981V15.6475H200.144ZM194.201 6.35303C194.201 5.45035 194.53 4.67009 195.187 4.01221C195.845 3.35433 196.633 3.02539 197.551 3.02539C198.484 3.02539 199.28 3.35433 199.938 4.01221C200.596 4.65479 200.925 5.4427 200.925 6.37598C200.925 7.30925 200.596 8.10481 199.938 8.7627C199.295 9.42058 198.507 9.74951 197.574 9.74951C196.641 9.74951 195.845 9.42058 195.187 8.7627C194.53 8.10481 194.201 7.3016 194.201 6.35303ZM18.9897 54.5664L28.2153 78.25L37.854 52.8452L47.0796 78.25L56.8789 54.5664H62.6851L46.8501 92.249L37.7393 67.1426L28.2383 92.272L13.1836 54.5664H18.9897ZM83.9295 80.04H67.9109C68.0486 81.876 68.6453 83.3371 69.701 84.4233C70.7566 85.4943 72.1106 86.0298 73.763 86.0298C75.0482 86.0298 76.1115 85.7238 76.9529 85.1118C77.7791 84.4998 78.72 83.3677 79.7757 81.7153L84.136 84.1479C83.4629 85.2954 82.7514 86.2784 82.0018 87.0969C81.2521 87.9154 80.4489 88.5886 79.5921 89.1165C78.7353 89.6443 77.8097 90.0306 76.8152 90.2754C75.8208 90.5202 74.7422 90.6426 73.5794 90.6426C70.2441 90.6426 67.5667 89.5716 65.5472 87.4297C63.5276 85.2724 62.5179 82.4115 62.5179 78.8467C62.5179 75.3125 63.497 72.4515 65.4554 70.2637C67.429 68.1064 70.0452 67.0278 73.304 67.0278C76.5934 67.0278 79.1943 68.0758 81.1067 70.1719C83.0039 72.2526 83.9524 75.1365 83.9524 78.8237L83.9295 80.04ZM78.6282 75.8174C77.9091 73.0635 76.1727 71.6865 73.4188 71.6865C72.7915 71.6865 72.2024 71.7821 71.6517 71.9734C71.1009 72.1646 70.5998 72.44 70.1485 72.7996C69.6972 73.1591 69.3108 73.5913 68.9896 74.0962C68.6683 74.6011 68.4235 75.1748 68.2552 75.8174H78.6282ZM94.9386 51.2388V90H89.775V51.2388H94.9386ZM119.075 68.6113V75.4731C117.897 74.035 116.841 73.0482 115.908 72.5127C114.99 71.9619 113.911 71.6865 112.672 71.6865C110.729 71.6865 109.115 72.3673 107.829 73.729C106.544 75.0907 105.902 76.7965 105.902 78.8467C105.902 80.9427 106.521 82.6639 107.761 84.0103C109.015 85.3566 110.614 86.0298 112.557 86.0298C113.796 86.0298 114.89 85.762 115.839 85.2266C116.757 84.7064 117.835 83.6966 119.075 82.1973V89.0132C116.979 90.0995 114.883 90.6426 112.787 90.6426C109.329 90.6426 106.437 89.5257 104.112 87.292C101.786 85.043 100.623 82.2508 100.623 78.9155C100.623 75.5802 101.801 72.7651 104.158 70.4702C106.514 68.1753 109.405 67.0278 112.832 67.0278C115.036 67.0278 117.116 67.5557 119.075 68.6113ZM123.222 78.6631C123.222 75.4349 124.377 72.6887 126.687 70.4243C128.997 68.16 131.813 67.0278 135.133 67.0278C138.468 67.0278 141.298 68.1676 143.624 70.4473C145.919 72.7269 147.066 75.5267 147.066 78.8467C147.066 82.1973 145.911 85.0047 143.601 87.269C141.275 89.5181 138.422 90.6426 135.041 90.6426C131.69 90.6426 128.883 89.4951 126.618 87.2002C124.354 84.9359 123.222 82.0902 123.222 78.6631ZM128.5 78.7549C128.5 80.9886 129.097 82.7557 130.29 84.0562C131.514 85.3719 133.128 86.0298 135.133 86.0298C137.152 86.0298 138.766 85.3796 139.975 84.0791C141.183 82.7786 141.788 81.0422 141.788 78.8696C141.788 76.6971 141.183 74.9606 139.975 73.6602C138.751 72.3444 137.137 71.6865 135.133 71.6865C133.159 71.6865 131.56 72.3444 130.336 73.6602C129.112 74.9759 128.5 76.6741 128.5 78.7549ZM152.728 67.6475H157.892V69.7129C158.886 68.6725 159.735 67.9688 160.439 67.6016C161.189 67.2191 162.13 67.0278 163.262 67.0278C165.786 67.0278 167.783 68.1294 169.251 70.3325C170.873 68.1294 173.069 67.0278 175.838 67.0278C180.871 67.0278 183.388 70.08 183.388 76.1846V90H178.202V77.5845C178.202 75.4425 177.942 73.9279 177.421 73.0405C176.886 72.1379 176.006 71.6865 174.782 71.6865C173.359 71.6865 172.323 72.222 171.673 73.293C171.022 74.3639 170.697 76.0851 170.697 78.4565V90H165.511V77.6533C165.511 73.6754 164.363 71.6865 162.068 71.6865C160.615 71.6865 159.555 72.2297 158.89 73.3159C158.224 74.4022 157.892 76.1157 157.892 78.4565V90H152.728V67.6475ZM210.462 80.04H194.443C194.581 81.876 195.178 83.3371 196.233 84.4233C197.289 85.4943 198.643 86.0298 200.295 86.0298C201.58 86.0298 202.644 85.7238 203.485 85.1118C204.311 84.4998 205.252 83.3677 206.308 81.7153L210.668 84.1479C209.995 85.2954 209.284 86.2784 208.534 87.0969C207.784 87.9154 206.981 88.5886 206.124 89.1165C205.268 89.6443 204.342 90.0306 203.347 90.2754C202.353 90.5202 201.274 90.6426 200.112 90.6426C196.776 90.6426 194.099 89.5716 192.079 87.4297C190.06 85.2724 189.05 82.4115 189.05 78.8467C189.05 75.3125 190.029 72.4515 191.988 70.2637C193.961 68.1064 196.577 67.0278 199.836 67.0278C203.126 67.0278 205.727 68.0758 207.639 70.1719C209.536 72.2526 210.485 75.1365 210.485 78.8237L210.462 80.04ZM205.16 75.8174C204.441 73.0635 202.705 71.6865 199.951 71.6865C199.324 71.6865 198.735 71.7821 198.184 71.9734C197.633 72.1646 197.132 72.44 196.681 72.7996C196.229 73.1591 195.843 73.5913 195.522 74.0962C195.2 74.6011 194.956 75.1748 194.787 75.8174H205.16ZM217.11 87.4297C217.11 86.5729 217.424 85.8309 218.051 85.2036C218.679 84.5763 219.428 84.2627 220.3 84.2627C221.172 84.2627 221.922 84.5763 222.549 85.2036C223.177 85.8309 223.49 86.5806 223.49 87.4526C223.49 88.34 223.177 89.0973 222.549 89.7246C221.937 90.3366 221.188 90.6426 220.3 90.6426C219.398 90.6426 218.64 90.3366 218.028 89.7246C217.416 89.1126 217.11 88.3477 217.11 87.4297Z" fill="black"/>
</svg>
