<svg width="200" height="200" viewBox="0 0 200 200" fill="none" xmlns="http://www.w3.org/2000/svg">
<g clip-path="url(#clip0_507_2)">
<path fill-rule="evenodd" clip-rule="evenodd" d="M0 100C0 44.7715 44.7715 0 100 0C155.228 0 200 44.7715 200 100C200 155.228 155.228 200 100 200C44.7715 200 0 155.228 0 100Z" fill="black"/>
<path d="M109.786 91.9506L148.081 47.4362H139.006L105.755 86.0874L79.1975 47.4362H48.5664L88.7268 105.884L48.5664 152.564H57.6415L92.7557 111.747L120.802 152.564H151.434L109.784 91.9506H109.786ZM97.3567 106.399L93.2877 100.579L60.9114 54.2678H74.8503L100.978 91.642L105.047 97.4621L139.011 146.043H125.072L97.3567 106.401V106.399Z" fill="white"/>
</g>
<defs>
<clipPath id="clip0_507_2">
<rect width="200" height="200" fill="white"/>
</clipPath>
</defs>
</svg>
