<svg width="60" height="60" viewBox="0 0 60 60" fill="none" xmlns="http://www.w3.org/2000/svg">
<path fill-rule="evenodd" clip-rule="evenodd" d="M0 30C0 13.4315 13.4121 0 29.9567 0C46.5013 0 59.9134 13.4315 59.9134 30C59.9134 46.5685 46.5013 60 29.9567 60C13.4121 60 0 46.5685 0 30Z" fill="#CE1312"/>
<path fill-rule="evenodd" clip-rule="evenodd" d="M45.6141 23.9613C45.6141 23.9613 45.3015 21.708 44.3439 20.7158C43.1287 19.4128 41.7666 19.4067 41.1425 19.3311C36.671 19 29.9637 19 29.9637 19H29.9497C29.9497 19 23.2424 19 18.7709 19.3311C18.1458 19.4067 16.7847 19.4128 15.5685 20.7158C14.6109 21.708 14.2993 23.9613 14.2993 23.9613C14.2993 23.9613 13.9798 26.6081 13.9798 29.2538V31.735C13.9798 34.3817 14.2993 37.0274 14.2993 37.0274C14.2993 37.0274 14.6109 39.2807 15.5685 40.273C16.7847 41.5759 18.3814 41.535 19.0924 41.6709C21.6487 41.9223 29.9567 42 29.9567 42C29.9567 42 36.671 41.9898 41.1425 41.6587C41.7666 41.582 43.1287 41.5759 44.3439 40.273C45.3015 39.2807 45.6141 37.0274 45.6141 37.0274C45.6141 37.0274 45.9336 34.3817 45.9336 31.735V29.2538C45.9336 26.6081 45.6141 23.9613 45.6141 23.9613Z" fill="white"/>
<path fill-rule="evenodd" clip-rule="evenodd" d="M26.6575 34.7414L26.6565 25.5535L35.29 30.1633L26.6575 34.7414Z" fill="#CE1312"/>
</svg>
