<svg width="61" height="60" viewBox="0 0 61 60" fill="none" xmlns="http://www.w3.org/2000/svg">
<path d="M30.5 60C13.931 60 0.5 46.569 0.5 30C0.5 13.431 13.931 0 30.5 0C47.069 0 60.5 13.431 60.5 30C60.5 46.569 47.069 60 30.5 60Z" fill="#FFE302"/>
<path d="M43.88 28.28C46.81 23.965 48.278 19.597 47.916 14.554C45.948 16 44.314 17.473 42.437 18.504C40.537 19.549 38.396 20.156 35.987 21.102C37.18 17.973 37.417 15.405 36.082 12.765C35.852 12.957 35.694 13.026 35.64 13.143C34.14 16.378 31.403 17.905 28.09 18.676C26.222 19.111 24.308 19.456 22.523 20.128C15.994 22.583 12.513 28.171 13.387 34.556C14.285 41.121 19.634 46.304 25.912 46.69C32.905 47.122 38.771 43.04 40.684 36.473C40.827 35.983 41.312 35.536 41.74 35.198C43.239 34.012 44.954 33.046 46.254 31.68C47.329 30.55 47.933 28.973 48.746 27.594L48.338 27.293C46.933 27.603 45.528 27.915 43.879 28.281L43.88 28.28Z" fill="#1E1E1E"/>
<path d="M19.365 35.64C18.541 35.915 17.934 36.329 17.387 36.26C15.839 36.066 15.482 34.715 14.945 33.375L19.365 35.64ZM23.721 35.605L32.776 32.499C32.009 34.469 30.848 36.071 28.756 36.815C26.836 37.497 25.21 36.906 23.721 35.605Z" fill="#FFE302"/>
</svg>
