<?xml version="1.0" encoding="UTF-8"?>
<svg width="61px" height="60px" viewBox="0 0 61 60" version="1.1" xmlns="http://www.w3.org/2000/svg" xmlns:xlink="http://www.w3.org/1999/xlink">
    <!-- Generator: Sketch 53 (72520) - https://sketchapp.com -->
    <title>zcool</title>
    <desc>Created with Sketch.</desc>
    <g id="Page-1" stroke="none" stroke-width="1" fill="none" fill-rule="evenodd">
        <g id="zcool" transform="translate(0.500000, 0.000000)" fill-rule="nonzero">
            <g id="Shape-2">
                <path d="M30,60 C13.431,60 0,46.569 0,30 C0,13.431 13.431,0 30,0 C46.569,0 60,13.431 60,30 C60,46.569 46.569,60 30,60 Z" id="Path" fill="#FFE302"></path>
                <path d="M43.38,28.28 C46.31,23.965 47.778,19.597 47.416,14.554 C45.448,16 43.814,17.473 41.937,18.504 C40.037,19.549 37.896,20.156 35.487,21.102 C36.68,17.973 36.917,15.405 35.582,12.765 C35.352,12.957 35.194,13.026 35.14,13.143 C33.64,16.378 30.903,17.905 27.59,18.676 C25.722,19.111 23.808,19.456 22.023,20.128 C15.494,22.583 12.013,28.171 12.887,34.556 C13.785,41.121 19.134,46.304 25.412,46.69 C32.405,47.122 38.271,43.04 40.184,36.473 C40.327,35.983 40.812,35.536 41.24,35.198 C42.739,34.012 44.454,33.046 45.754,31.68 C46.829,30.55 47.433,28.973 48.246,27.594 L47.838,27.293 C46.433,27.603 45.028,27.915 43.379,28.281 L43.38,28.28 Z" id="Path" fill="#1E1E1E"></path>
                <path d="M18.865,35.64 C18.041,35.915 17.434,36.329 16.887,36.26 C15.339,36.066 14.982,34.715 14.445,33.375 L18.865,35.64 L18.865,35.64 Z M23.221,35.605 L32.276,32.499 C31.509,34.469 30.348,36.071 28.256,36.815 C26.336,37.497 24.71,36.906 23.221,35.605 L23.221,35.605 Z" id="Shape" fill="#FFE302"></path>
            </g>
        </g>
    </g>
</svg>